G04 #@! TF.GenerationSoftware,KiCad,Pcbnew,5.0.2-bee76a0~70~ubuntu16.04.1*
G04 #@! TF.CreationDate,2019-05-26T13:41:25+03:00*
G04 #@! TF.ProjectId,FreeEEG32-prealpha2,46726565-4545-4473-9332-2d707265616c,rev?*
G04 #@! TF.SameCoordinates,Original*
G04 #@! TF.FileFunction,Legend,Top*
G04 #@! TF.FilePolarity,Positive*
%FSLAX46Y46*%
G04 Gerber Fmt 4.6, Leading zero omitted, Abs format (unit mm)*
G04 Created by KiCad (PCBNEW 5.0.2-bee76a0~70~ubuntu16.04.1) date Вс 26 май 2019 13:41:25*
%MOMM*%
%LPD*%
G01*
G04 APERTURE LIST*
%ADD10C,0.200000*%
%ADD11C,0.120000*%
%ADD12C,0.150000*%
%ADD13C,0.100000*%
G04 APERTURE END LIST*
D10*
X19482571Y-15490857D02*
X19482571Y-16290857D01*
X19482571Y-15605142D02*
X19539714Y-15548000D01*
X19654000Y-15490857D01*
X19825428Y-15490857D01*
X19939714Y-15548000D01*
X19996857Y-15662285D01*
X19996857Y-16290857D01*
X21025428Y-16233714D02*
X20911142Y-16290857D01*
X20682571Y-16290857D01*
X20568285Y-16233714D01*
X20511142Y-16119428D01*
X20511142Y-15662285D01*
X20568285Y-15548000D01*
X20682571Y-15490857D01*
X20911142Y-15490857D01*
X21025428Y-15548000D01*
X21082571Y-15662285D01*
X21082571Y-15776571D01*
X20511142Y-15890857D01*
X22111142Y-15490857D02*
X22111142Y-16290857D01*
X21596857Y-15490857D02*
X21596857Y-16119428D01*
X21654000Y-16233714D01*
X21768285Y-16290857D01*
X21939714Y-16290857D01*
X22054000Y-16233714D01*
X22111142Y-16176571D01*
X22682571Y-16290857D02*
X22682571Y-15490857D01*
X22682571Y-15719428D02*
X22739714Y-15605142D01*
X22796857Y-15548000D01*
X22911142Y-15490857D01*
X23025428Y-15490857D01*
X23596857Y-16290857D02*
X23482571Y-16233714D01*
X23425428Y-16176571D01*
X23368285Y-16062285D01*
X23368285Y-15719428D01*
X23425428Y-15605142D01*
X23482571Y-15548000D01*
X23596857Y-15490857D01*
X23768285Y-15490857D01*
X23882571Y-15548000D01*
X23939714Y-15605142D01*
X23996857Y-15719428D01*
X23996857Y-16062285D01*
X23939714Y-16176571D01*
X23882571Y-16233714D01*
X23768285Y-16290857D01*
X23596857Y-16290857D01*
X24511142Y-16290857D02*
X24511142Y-15490857D01*
X24511142Y-15090857D02*
X24454000Y-15148000D01*
X24511142Y-15205142D01*
X24568285Y-15148000D01*
X24511142Y-15090857D01*
X24511142Y-15205142D01*
X25596857Y-16290857D02*
X25596857Y-15090857D01*
X25596857Y-16233714D02*
X25482571Y-16290857D01*
X25254000Y-16290857D01*
X25139714Y-16233714D01*
X25082571Y-16176571D01*
X25025428Y-16062285D01*
X25025428Y-15719428D01*
X25082571Y-15605142D01*
X25139714Y-15548000D01*
X25254000Y-15490857D01*
X25482571Y-15490857D01*
X25596857Y-15548000D01*
X26111142Y-16233714D02*
X26225428Y-16290857D01*
X26454000Y-16290857D01*
X26568285Y-16233714D01*
X26625428Y-16119428D01*
X26625428Y-16062285D01*
X26568285Y-15948000D01*
X26454000Y-15890857D01*
X26282571Y-15890857D01*
X26168285Y-15833714D01*
X26111142Y-15719428D01*
X26111142Y-15662285D01*
X26168285Y-15548000D01*
X26282571Y-15490857D01*
X26454000Y-15490857D01*
X26568285Y-15548000D01*
X27082571Y-16233714D02*
X27196857Y-16290857D01*
X27425428Y-16290857D01*
X27539714Y-16233714D01*
X27596857Y-16119428D01*
X27596857Y-16062285D01*
X27539714Y-15948000D01*
X27425428Y-15890857D01*
X27254000Y-15890857D01*
X27139714Y-15833714D01*
X27082571Y-15719428D01*
X27082571Y-15662285D01*
X27139714Y-15548000D01*
X27254000Y-15490857D01*
X27425428Y-15490857D01*
X27539714Y-15548000D01*
X28111142Y-16176571D02*
X28168285Y-16233714D01*
X28111142Y-16290857D01*
X28054000Y-16233714D01*
X28111142Y-16176571D01*
X28111142Y-16290857D01*
X29196857Y-16233714D02*
X29082571Y-16290857D01*
X28854000Y-16290857D01*
X28739714Y-16233714D01*
X28682571Y-16176571D01*
X28625428Y-16062285D01*
X28625428Y-15719428D01*
X28682571Y-15605142D01*
X28739714Y-15548000D01*
X28854000Y-15490857D01*
X29082571Y-15490857D01*
X29196857Y-15548000D01*
X29882571Y-16290857D02*
X29768285Y-16233714D01*
X29711142Y-16176571D01*
X29654000Y-16062285D01*
X29654000Y-15719428D01*
X29711142Y-15605142D01*
X29768285Y-15548000D01*
X29882571Y-15490857D01*
X30054000Y-15490857D01*
X30168285Y-15548000D01*
X30225428Y-15605142D01*
X30282571Y-15719428D01*
X30282571Y-16062285D01*
X30225428Y-16176571D01*
X30168285Y-16233714D01*
X30054000Y-16290857D01*
X29882571Y-16290857D01*
X30796857Y-16290857D02*
X30796857Y-15490857D01*
X30796857Y-15605142D02*
X30854000Y-15548000D01*
X30968285Y-15490857D01*
X31139714Y-15490857D01*
X31254000Y-15548000D01*
X31311142Y-15662285D01*
X31311142Y-16290857D01*
X31311142Y-15662285D02*
X31368285Y-15548000D01*
X31482571Y-15490857D01*
X31654000Y-15490857D01*
X31768285Y-15548000D01*
X31825428Y-15662285D01*
X31825428Y-16290857D01*
X14519285Y-43290000D02*
X14519285Y-43690000D01*
X15147857Y-43690000D02*
X13947857Y-43690000D01*
X13947857Y-43118571D01*
X15147857Y-42661428D02*
X14347857Y-42661428D01*
X14576428Y-42661428D02*
X14462142Y-42604285D01*
X14405000Y-42547142D01*
X14347857Y-42432857D01*
X14347857Y-42318571D01*
X15090714Y-41461428D02*
X15147857Y-41575714D01*
X15147857Y-41804285D01*
X15090714Y-41918571D01*
X14976428Y-41975714D01*
X14519285Y-41975714D01*
X14405000Y-41918571D01*
X14347857Y-41804285D01*
X14347857Y-41575714D01*
X14405000Y-41461428D01*
X14519285Y-41404285D01*
X14633571Y-41404285D01*
X14747857Y-41975714D01*
X15090714Y-40432857D02*
X15147857Y-40547142D01*
X15147857Y-40775714D01*
X15090714Y-40890000D01*
X14976428Y-40947142D01*
X14519285Y-40947142D01*
X14405000Y-40890000D01*
X14347857Y-40775714D01*
X14347857Y-40547142D01*
X14405000Y-40432857D01*
X14519285Y-40375714D01*
X14633571Y-40375714D01*
X14747857Y-40947142D01*
X14519285Y-39861428D02*
X14519285Y-39461428D01*
X15147857Y-39290000D02*
X15147857Y-39861428D01*
X13947857Y-39861428D01*
X13947857Y-39290000D01*
X14519285Y-38775714D02*
X14519285Y-38375714D01*
X15147857Y-38204285D02*
X15147857Y-38775714D01*
X13947857Y-38775714D01*
X13947857Y-38204285D01*
X14005000Y-37061428D02*
X13947857Y-37175714D01*
X13947857Y-37347142D01*
X14005000Y-37518571D01*
X14119285Y-37632857D01*
X14233571Y-37690000D01*
X14462142Y-37747142D01*
X14633571Y-37747142D01*
X14862142Y-37690000D01*
X14976428Y-37632857D01*
X15090714Y-37518571D01*
X15147857Y-37347142D01*
X15147857Y-37232857D01*
X15090714Y-37061428D01*
X15033571Y-37004285D01*
X14633571Y-37004285D01*
X14633571Y-37232857D01*
X13947857Y-36604285D02*
X13947857Y-35861428D01*
X14405000Y-36261428D01*
X14405000Y-36090000D01*
X14462142Y-35975714D01*
X14519285Y-35918571D01*
X14633571Y-35861428D01*
X14919285Y-35861428D01*
X15033571Y-35918571D01*
X15090714Y-35975714D01*
X15147857Y-36090000D01*
X15147857Y-36432857D01*
X15090714Y-36547142D01*
X15033571Y-36604285D01*
X14062142Y-35404285D02*
X14005000Y-35347142D01*
X13947857Y-35232857D01*
X13947857Y-34947142D01*
X14005000Y-34832857D01*
X14062142Y-34775714D01*
X14176428Y-34718571D01*
X14290714Y-34718571D01*
X14462142Y-34775714D01*
X15147857Y-35461428D01*
X15147857Y-34718571D01*
X14347857Y-33290000D02*
X15547857Y-33290000D01*
X14405000Y-33290000D02*
X14347857Y-33175714D01*
X14347857Y-32947142D01*
X14405000Y-32832857D01*
X14462142Y-32775714D01*
X14576428Y-32718571D01*
X14919285Y-32718571D01*
X15033571Y-32775714D01*
X15090714Y-32832857D01*
X15147857Y-32947142D01*
X15147857Y-33175714D01*
X15090714Y-33290000D01*
X15147857Y-32204285D02*
X14347857Y-32204285D01*
X14576428Y-32204285D02*
X14462142Y-32147142D01*
X14405000Y-32090000D01*
X14347857Y-31975714D01*
X14347857Y-31861428D01*
X15090714Y-31004285D02*
X15147857Y-31118571D01*
X15147857Y-31347142D01*
X15090714Y-31461428D01*
X14976428Y-31518571D01*
X14519285Y-31518571D01*
X14405000Y-31461428D01*
X14347857Y-31347142D01*
X14347857Y-31118571D01*
X14405000Y-31004285D01*
X14519285Y-30947142D01*
X14633571Y-30947142D01*
X14747857Y-31518571D01*
X15147857Y-29918571D02*
X14519285Y-29918571D01*
X14405000Y-29975714D01*
X14347857Y-30090000D01*
X14347857Y-30318571D01*
X14405000Y-30432857D01*
X15090714Y-29918571D02*
X15147857Y-30032857D01*
X15147857Y-30318571D01*
X15090714Y-30432857D01*
X14976428Y-30490000D01*
X14862142Y-30490000D01*
X14747857Y-30432857D01*
X14690714Y-30318571D01*
X14690714Y-30032857D01*
X14633571Y-29918571D01*
X15147857Y-29175714D02*
X15090714Y-29290000D01*
X14976428Y-29347142D01*
X13947857Y-29347142D01*
X14347857Y-28718571D02*
X15547857Y-28718571D01*
X14405000Y-28718571D02*
X14347857Y-28604285D01*
X14347857Y-28375714D01*
X14405000Y-28261428D01*
X14462142Y-28204285D01*
X14576428Y-28147142D01*
X14919285Y-28147142D01*
X15033571Y-28204285D01*
X15090714Y-28261428D01*
X15147857Y-28375714D01*
X15147857Y-28604285D01*
X15090714Y-28718571D01*
X15147857Y-27632857D02*
X13947857Y-27632857D01*
X15147857Y-27118571D02*
X14519285Y-27118571D01*
X14405000Y-27175714D01*
X14347857Y-27290000D01*
X14347857Y-27461428D01*
X14405000Y-27575714D01*
X14462142Y-27632857D01*
X15147857Y-26032857D02*
X14519285Y-26032857D01*
X14405000Y-26090000D01*
X14347857Y-26204285D01*
X14347857Y-26432857D01*
X14405000Y-26547142D01*
X15090714Y-26032857D02*
X15147857Y-26147142D01*
X15147857Y-26432857D01*
X15090714Y-26547142D01*
X14976428Y-26604285D01*
X14862142Y-26604285D01*
X14747857Y-26547142D01*
X14690714Y-26432857D01*
X14690714Y-26147142D01*
X14633571Y-26032857D01*
X14062142Y-25518571D02*
X14005000Y-25461428D01*
X13947857Y-25347142D01*
X13947857Y-25061428D01*
X14005000Y-24947142D01*
X14062142Y-24889999D01*
X14176428Y-24832857D01*
X14290714Y-24832857D01*
X14462142Y-24889999D01*
X15147857Y-25575714D01*
X15147857Y-24832857D01*
D11*
G04 #@! TO.C,U3*
X38883493Y38425000D02*
X38883493Y38900000D01*
X29663493Y29680000D02*
X30138493Y29680000D01*
X29663493Y30155000D02*
X29663493Y29680000D01*
X29663493Y38900000D02*
X30138493Y38900000D01*
X29663493Y38425000D02*
X29663493Y38900000D01*
X38883493Y29680000D02*
X38408493Y29680000D01*
X38883493Y30155000D02*
X38883493Y29680000D01*
G04 #@! TO.C,U2*
X1595000Y-38900000D02*
X2070000Y-38900000D01*
X-7150000Y-29680000D02*
X-7150000Y-30155000D01*
X-6675000Y-29680000D02*
X-7150000Y-29680000D01*
X2070000Y-29680000D02*
X2070000Y-30155000D01*
X1595000Y-29680000D02*
X2070000Y-29680000D01*
X-7150000Y-38900000D02*
X-7150000Y-38425000D01*
X-6675000Y-38900000D02*
X-7150000Y-38900000D01*
G04 #@! TO.C,U1*
X-30155000Y-38900000D02*
X-29680000Y-38900000D01*
X-38900000Y-29680000D02*
X-38900000Y-30155000D01*
X-38425000Y-29680000D02*
X-38900000Y-29680000D01*
X-29680000Y-29680000D02*
X-29680000Y-30155000D01*
X-30155000Y-29680000D02*
X-29680000Y-29680000D01*
X-38900000Y-38900000D02*
X-38900000Y-38425000D01*
X-38425000Y-38900000D02*
X-38900000Y-38900000D01*
G04 #@! TO.C,U4*
X38900000Y6675000D02*
X38900000Y7150000D01*
X29680000Y-2070000D02*
X30155000Y-2070000D01*
X29680000Y-1595000D02*
X29680000Y-2070000D01*
X29680000Y7150000D02*
X30155000Y7150000D01*
X29680000Y6675000D02*
X29680000Y7150000D01*
X38900000Y-2070000D02*
X38425000Y-2070000D01*
X38900000Y-1595000D02*
X38900000Y-2070000D01*
G04 #@! TO.C,C104*
X-7144273Y32630522D02*
X-7374478Y32860727D01*
X-7865522Y31909273D02*
X-8095727Y32139478D01*
D12*
G04 #@! TO.C,U14*
X-40705000Y-7650000D02*
X-42230000Y-7650000D01*
X-40705000Y-18025000D02*
X-32955000Y-18025000D01*
X-40705000Y-7375000D02*
X-32955000Y-7375000D01*
X-40705000Y-18025000D02*
X-40705000Y-17670000D01*
X-32955000Y-18025000D02*
X-32955000Y-17670000D01*
X-32955000Y-7375000D02*
X-32955000Y-7730000D01*
X-40705000Y-7375000D02*
X-40705000Y-7650000D01*
G04 #@! TO.C,U15*
X-14035000Y-7375000D02*
X-14035000Y-7650000D01*
X-6285000Y-7375000D02*
X-6285000Y-7730000D01*
X-6285000Y-18025000D02*
X-6285000Y-17670000D01*
X-14035000Y-18025000D02*
X-14035000Y-17670000D01*
X-14035000Y-7375000D02*
X-6285000Y-7375000D01*
X-14035000Y-18025000D02*
X-6285000Y-18025000D01*
X-14035000Y-7650000D02*
X-15560000Y-7650000D01*
G04 #@! TO.C,T1*
X17700000Y38925000D02*
X7700000Y38925000D01*
X7700000Y38925000D02*
X7700000Y30925000D01*
X7700000Y30925000D02*
X17700000Y30925000D01*
X17700000Y30925000D02*
X17700000Y38925000D01*
G04 #@! TO.C,U16*
X17750000Y10225000D02*
X17750000Y11750000D01*
X7375000Y10225000D02*
X7375000Y2475000D01*
X18025000Y10225000D02*
X18025000Y2475000D01*
X7375000Y10225000D02*
X7730000Y10225000D01*
X7375000Y2475000D02*
X7730000Y2475000D01*
X18025000Y2475000D02*
X17670000Y2475000D01*
X18025000Y10225000D02*
X17750000Y10225000D01*
D11*
G04 #@! TO.C,C92*
X33780000Y-43017221D02*
X33780000Y-43342779D01*
X34800000Y-43017221D02*
X34800000Y-43342779D01*
D12*
G04 #@! TO.C,U7*
X27955000Y-43985000D02*
X27955000Y-45385000D01*
X33055000Y-43985000D02*
X33055000Y-39835000D01*
X27905000Y-43985000D02*
X27905000Y-39835000D01*
X33055000Y-43985000D02*
X32910000Y-43985000D01*
X33055000Y-39835000D02*
X32910000Y-39835000D01*
X27905000Y-39835000D02*
X28050000Y-39835000D01*
X27905000Y-43985000D02*
X27955000Y-43985000D01*
D11*
G04 #@! TO.C,C90*
X27380000Y-43438578D02*
X27380000Y-42921422D01*
X25960000Y-43438578D02*
X25960000Y-42921422D01*
G04 #@! TO.C,C110*
X27624721Y-24640000D02*
X27950279Y-24640000D01*
X27624721Y-23620000D02*
X27950279Y-23620000D01*
G04 #@! TO.C,C109*
X27624721Y-28700000D02*
X27950279Y-28700000D01*
X27624721Y-29720000D02*
X27950279Y-29720000D01*
G04 #@! TO.C,U10*
X30185000Y-27570000D02*
X30185000Y-25770000D01*
X26965000Y-25770000D02*
X26965000Y-28220000D01*
G04 #@! TO.C,C38*
X-472221Y-40764999D02*
X-797779Y-40764999D01*
X-472221Y-41784999D02*
X-797779Y-41784999D01*
G04 #@! TO.C,C39*
X-472221Y-42035000D02*
X-797779Y-42035000D01*
X-472221Y-43055000D02*
X-797779Y-43055000D01*
G04 #@! TO.C,C27*
X-32273Y-26170478D02*
X-262478Y-25940273D01*
X-753522Y-26891727D02*
X-983727Y-26661522D01*
G04 #@! TO.C,C26*
X-921273Y-27059478D02*
X-1151478Y-26829273D01*
X-1642522Y-27780727D02*
X-1872727Y-27550522D01*
G04 #@! TO.C,C80*
X41784999Y4607779D02*
X41784999Y4282221D01*
X40764999Y4607779D02*
X40764999Y4282221D01*
G04 #@! TO.C,C69*
X26891727Y4326478D02*
X26661522Y4096273D01*
X26170478Y5047727D02*
X25940273Y4817522D01*
G04 #@! TO.C,C68*
X27780727Y3437478D02*
X27550522Y3207273D01*
X27059478Y4158727D02*
X26829273Y3928522D01*
G04 #@! TO.C,C81*
X43055000Y4607779D02*
X43055000Y4282221D01*
X42035000Y4607779D02*
X42035000Y4282221D01*
G04 #@! TO.C,C87*
X21270430Y-37590429D02*
X20944872Y-37590429D01*
X21270430Y-38610429D02*
X20944872Y-38610429D01*
G04 #@! TO.C,U6*
X21930150Y-41540430D02*
X21930150Y-39090430D01*
X18710150Y-39740430D02*
X18710150Y-41540430D01*
G04 #@! TO.C,C88*
X21270429Y-43690430D02*
X20944871Y-43690430D01*
X21270429Y-42670430D02*
X20944871Y-42670430D01*
G04 #@! TO.C,C48*
X26153971Y36797727D02*
X25923766Y36567522D01*
X26875220Y36076478D02*
X26645015Y35846273D01*
G04 #@! TO.C,C60*
X42018494Y36357778D02*
X42018494Y36032220D01*
X43038494Y36357778D02*
X43038494Y36032220D01*
G04 #@! TO.C,C47*
X27042971Y35908727D02*
X26812766Y35678522D01*
X27764220Y35187478D02*
X27534015Y34957273D01*
G04 #@! TO.C,C59*
X40748495Y36357778D02*
X40748495Y36032220D01*
X41768495Y36357778D02*
X41768495Y36032220D01*
G04 #@! TO.C,C5*
X-32671273Y-27059478D02*
X-32901478Y-26829273D01*
X-33392522Y-27780727D02*
X-33622727Y-27550522D01*
G04 #@! TO.C,C6*
X-31782273Y-26170478D02*
X-32012478Y-25940273D01*
X-32503522Y-26891727D02*
X-32733727Y-26661522D01*
G04 #@! TO.C,C18*
X-32222221Y-42035000D02*
X-32547779Y-42035000D01*
X-32222221Y-43055000D02*
X-32547779Y-43055000D01*
G04 #@! TO.C,C17*
X-32222221Y-40764999D02*
X-32547779Y-40764999D01*
X-32222221Y-41784999D02*
X-32547779Y-41784999D01*
G04 #@! TO.C,C85*
X21270429Y-24640430D02*
X20944871Y-24640430D01*
X21270429Y-23620430D02*
X20944871Y-23620430D01*
G04 #@! TO.C,C86*
X21270430Y-28700431D02*
X20944872Y-28700431D01*
X21270430Y-29720431D02*
X20944872Y-29720431D01*
G04 #@! TO.C,U5*
X18710150Y-25770430D02*
X18710150Y-27570430D01*
X21930150Y-27570430D02*
X21930150Y-25120430D01*
G04 #@! TO.C,U8*
X8229089Y-11513353D02*
X7629089Y-11513353D01*
X8229089Y-14113353D02*
X8229089Y-11513353D01*
X13629089Y-11513353D02*
X13629089Y-14113353D01*
X11829089Y-16513353D02*
X10029089Y-16513353D01*
X10029089Y-9113353D02*
X11829089Y-9113353D01*
X10029089Y-7613353D02*
X10029089Y-9113353D01*
G04 #@! TO.C,C100*
X-10549478Y7779273D02*
X-10319273Y8009478D01*
X-11270727Y8500522D02*
X-11040522Y8730727D01*
G04 #@! TO.C,C96*
X-36354273Y12945522D02*
X-36584478Y13175727D01*
X-37075522Y12224273D02*
X-37305727Y12454478D01*
D12*
G04 #@! TO.C,U9*
X-31765000Y30790000D02*
X-33065000Y30790000D01*
X-11415000Y31765000D02*
X-12465000Y31765000D01*
X-11415000Y11415000D02*
X-12465000Y11415000D01*
X-31765000Y11415000D02*
X-30715000Y11415000D01*
X-31765000Y31765000D02*
X-30715000Y31765000D01*
X-31765000Y11415000D02*
X-31765000Y12465000D01*
X-11415000Y11415000D02*
X-11415000Y12465000D01*
X-11415000Y31765000D02*
X-11415000Y30715000D01*
X-31765000Y31765000D02*
X-31765000Y30790000D01*
D11*
G04 #@! TO.C,C113*
X17020000Y44612779D02*
X17020000Y44287221D01*
X16000000Y44612779D02*
X16000000Y44287221D01*
G04 #@! TO.C,C115*
X12190000Y24927779D02*
X12190000Y24602221D01*
X13210000Y24927779D02*
X13210000Y24602221D01*
D12*
G04 #@! TO.C,D1*
X14440000Y26035000D02*
X14440000Y24685000D01*
X14440000Y24685000D02*
X16040000Y24685000D01*
X16040000Y24685000D02*
X16040000Y27385000D01*
X16040000Y27385000D02*
X14440000Y27385000D01*
X14440000Y27385000D02*
X14440000Y26035000D01*
G04 #@! TO.C,D2*
X10080000Y26505000D02*
X11430000Y26505000D01*
X10080000Y28105000D02*
X10080000Y26505000D01*
X12780000Y28105000D02*
X10080000Y28105000D01*
X12780000Y26505000D02*
X12780000Y28105000D01*
X11430000Y26505000D02*
X12780000Y26505000D01*
D13*
G04 #@! TO.C,U11*
X44780000Y-40560000D02*
X44780000Y-40780000D01*
X44060000Y-40560000D02*
X44780000Y-40560000D01*
X44780000Y-43260000D02*
X44060000Y-43260000D01*
X44780000Y-43040000D02*
X44780000Y-43260000D01*
X41580000Y-43260000D02*
X41580000Y-43040000D01*
X41580000Y-43260000D02*
X42300000Y-43260000D01*
X41480000Y-40560000D02*
X42300000Y-40560000D01*
D11*
G04 #@! TO.C,U12*
X14310000Y43550000D02*
X14310000Y45350000D01*
X11090000Y45350000D02*
X11090000Y42400000D01*
D12*
G04 #@! TO.C,U13*
X47840000Y-18995000D02*
X48840000Y-18995000D01*
X48840000Y-18995000D02*
X48840000Y-16495000D01*
X33640000Y-30495000D02*
X47840000Y-30495000D01*
X47840000Y-30495000D02*
X47840000Y-18995000D01*
X48840000Y-16495000D02*
X33640000Y-16495000D01*
X33640000Y-16495000D02*
X33640000Y-30495000D01*
D11*
G04 #@! TO.C,C122*
X-25010522Y159273D02*
X-25240727Y389478D01*
X-24289273Y880522D02*
X-24519478Y1110727D01*
G04 #@! TO.C,U3*
D12*
X39545873Y33528095D02*
X40355397Y33528095D01*
X40450635Y33575714D01*
X40498254Y33623333D01*
X40545873Y33718571D01*
X40545873Y33909047D01*
X40498254Y34004285D01*
X40450635Y34051904D01*
X40355397Y34099523D01*
X39545873Y34099523D01*
X39545873Y34480476D02*
X39545873Y35099523D01*
X39926826Y34766190D01*
X39926826Y34909047D01*
X39974445Y35004285D01*
X40022064Y35051904D01*
X40117302Y35099523D01*
X40355397Y35099523D01*
X40450635Y35051904D01*
X40498254Y35004285D01*
X40545873Y34909047D01*
X40545873Y34623333D01*
X40498254Y34528095D01*
X40450635Y34480476D01*
G04 #@! TO.C,U2*
X-3301904Y-39562380D02*
X-3301904Y-40371904D01*
X-3254285Y-40467142D01*
X-3206666Y-40514761D01*
X-3111428Y-40562380D01*
X-2920952Y-40562380D01*
X-2825714Y-40514761D01*
X-2778095Y-40467142D01*
X-2730476Y-40371904D01*
X-2730476Y-39562380D01*
X-2301904Y-39657619D02*
X-2254285Y-39610000D01*
X-2159047Y-39562380D01*
X-1920952Y-39562380D01*
X-1825714Y-39610000D01*
X-1778095Y-39657619D01*
X-1730476Y-39752857D01*
X-1730476Y-39848095D01*
X-1778095Y-39990952D01*
X-2349523Y-40562380D01*
X-1730476Y-40562380D01*
G04 #@! TO.C,U1*
X-35051904Y-39562380D02*
X-35051904Y-40371904D01*
X-35004285Y-40467142D01*
X-34956666Y-40514761D01*
X-34861428Y-40562380D01*
X-34670952Y-40562380D01*
X-34575714Y-40514761D01*
X-34528095Y-40467142D01*
X-34480476Y-40371904D01*
X-34480476Y-39562380D01*
X-33480476Y-40562380D02*
X-34051904Y-40562380D01*
X-33766190Y-40562380D02*
X-33766190Y-39562380D01*
X-33861428Y-39705238D01*
X-33956666Y-39800476D01*
X-34051904Y-39848095D01*
G04 #@! TO.C,U4*
X39562380Y1778095D02*
X40371904Y1778095D01*
X40467142Y1825714D01*
X40514761Y1873333D01*
X40562380Y1968571D01*
X40562380Y2159047D01*
X40514761Y2254285D01*
X40467142Y2301904D01*
X40371904Y2349523D01*
X39562380Y2349523D01*
X39895714Y3254285D02*
X40562380Y3254285D01*
X39514761Y3016190D02*
X40229047Y2778095D01*
X40229047Y3397142D01*
G04 #@! TO.C,C104*
X-9674987Y31912585D02*
X-9742330Y31912585D01*
X-9877017Y31979928D01*
X-9944361Y32047272D01*
X-10011704Y32181959D01*
X-10011704Y32316646D01*
X-9978033Y32417661D01*
X-9877017Y32586020D01*
X-9776002Y32687035D01*
X-9607643Y32788050D01*
X-9506628Y32821722D01*
X-9371941Y32821722D01*
X-9237254Y32754378D01*
X-9169911Y32687035D01*
X-9102567Y32552348D01*
X-9102567Y32485004D01*
X-9068895Y31171806D02*
X-9472956Y31575867D01*
X-9270926Y31373837D02*
X-8563819Y32080943D01*
X-8732178Y32047272D01*
X-8866865Y32047272D01*
X-8967880Y32080943D01*
X-7924056Y31441180D02*
X-7856712Y31373837D01*
X-7823040Y31272821D01*
X-7823040Y31205478D01*
X-7856712Y31104462D01*
X-7957727Y30936104D01*
X-8126086Y30767745D01*
X-8294445Y30666730D01*
X-8395460Y30633058D01*
X-8462804Y30633058D01*
X-8563819Y30666730D01*
X-8631163Y30734073D01*
X-8664834Y30835088D01*
X-8664834Y30902432D01*
X-8631163Y31003447D01*
X-8530147Y31171806D01*
X-8361788Y31340165D01*
X-8193430Y31441180D01*
X-8092414Y31474852D01*
X-8025071Y31474852D01*
X-7924056Y31441180D01*
X-7317964Y30363684D02*
X-7789369Y29892279D01*
X-7216949Y30801417D02*
X-7890384Y30464699D01*
X-7452651Y30026966D01*
G04 #@! TO.C,U14*
X-43727619Y-17748095D02*
X-42918095Y-17748095D01*
X-42822857Y-17700476D01*
X-42775238Y-17652857D01*
X-42727619Y-17557619D01*
X-42727619Y-17367142D01*
X-42775238Y-17271904D01*
X-42822857Y-17224285D01*
X-42918095Y-17176666D01*
X-43727619Y-17176666D01*
X-42727619Y-16176666D02*
X-42727619Y-16748095D01*
X-42727619Y-16462380D02*
X-43727619Y-16462380D01*
X-43584761Y-16557619D01*
X-43489523Y-16652857D01*
X-43441904Y-16748095D01*
X-43394285Y-15319523D02*
X-42727619Y-15319523D01*
X-43775238Y-15557619D02*
X-43060952Y-15795714D01*
X-43060952Y-15176666D01*
G04 #@! TO.C,C116*
X-42822857Y-13184047D02*
X-42775238Y-13231666D01*
X-42727619Y-13374523D01*
X-42727619Y-13469761D01*
X-42775238Y-13612619D01*
X-42870476Y-13707857D01*
X-42965714Y-13755476D01*
X-43156190Y-13803095D01*
X-43299047Y-13803095D01*
X-43489523Y-13755476D01*
X-43584761Y-13707857D01*
X-43680000Y-13612619D01*
X-43727619Y-13469761D01*
X-43727619Y-13374523D01*
X-43680000Y-13231666D01*
X-43632380Y-13184047D01*
X-42727619Y-12231666D02*
X-42727619Y-12803095D01*
X-42727619Y-12517380D02*
X-43727619Y-12517380D01*
X-43584761Y-12612619D01*
X-43489523Y-12707857D01*
X-43441904Y-12803095D01*
X-42727619Y-11279285D02*
X-42727619Y-11850714D01*
X-42727619Y-11565000D02*
X-43727619Y-11565000D01*
X-43584761Y-11660238D01*
X-43489523Y-11755476D01*
X-43441904Y-11850714D01*
X-43727619Y-10422142D02*
X-43727619Y-10612619D01*
X-43680000Y-10707857D01*
X-43632380Y-10755476D01*
X-43489523Y-10850714D01*
X-43299047Y-10898333D01*
X-42918095Y-10898333D01*
X-42822857Y-10850714D01*
X-42775238Y-10803095D01*
X-42727619Y-10707857D01*
X-42727619Y-10517380D01*
X-42775238Y-10422142D01*
X-42822857Y-10374523D01*
X-42918095Y-10326904D01*
X-43156190Y-10326904D01*
X-43251428Y-10374523D01*
X-43299047Y-10422142D01*
X-43346666Y-10517380D01*
X-43346666Y-10707857D01*
X-43299047Y-10803095D01*
X-43251428Y-10850714D01*
X-43156190Y-10898333D01*
G04 #@! TO.C,C117*
X-30122857Y-13184047D02*
X-30075238Y-13231666D01*
X-30027619Y-13374523D01*
X-30027619Y-13469761D01*
X-30075238Y-13612619D01*
X-30170476Y-13707857D01*
X-30265714Y-13755476D01*
X-30456190Y-13803095D01*
X-30599047Y-13803095D01*
X-30789523Y-13755476D01*
X-30884761Y-13707857D01*
X-30980000Y-13612619D01*
X-31027619Y-13469761D01*
X-31027619Y-13374523D01*
X-30980000Y-13231666D01*
X-30932380Y-13184047D01*
X-30027619Y-12231666D02*
X-30027619Y-12803095D01*
X-30027619Y-12517380D02*
X-31027619Y-12517380D01*
X-30884761Y-12612619D01*
X-30789523Y-12707857D01*
X-30741904Y-12803095D01*
X-30027619Y-11279285D02*
X-30027619Y-11850714D01*
X-30027619Y-11565000D02*
X-31027619Y-11565000D01*
X-30884761Y-11660238D01*
X-30789523Y-11755476D01*
X-30741904Y-11850714D01*
X-31027619Y-10945952D02*
X-31027619Y-10279285D01*
X-30027619Y-10707857D01*
G04 #@! TO.C,C118*
X-16152857Y-13184047D02*
X-16105238Y-13231666D01*
X-16057619Y-13374523D01*
X-16057619Y-13469761D01*
X-16105238Y-13612619D01*
X-16200476Y-13707857D01*
X-16295714Y-13755476D01*
X-16486190Y-13803095D01*
X-16629047Y-13803095D01*
X-16819523Y-13755476D01*
X-16914761Y-13707857D01*
X-17010000Y-13612619D01*
X-17057619Y-13469761D01*
X-17057619Y-13374523D01*
X-17010000Y-13231666D01*
X-16962380Y-13184047D01*
X-16057619Y-12231666D02*
X-16057619Y-12803095D01*
X-16057619Y-12517380D02*
X-17057619Y-12517380D01*
X-16914761Y-12612619D01*
X-16819523Y-12707857D01*
X-16771904Y-12803095D01*
X-16057619Y-11279285D02*
X-16057619Y-11850714D01*
X-16057619Y-11565000D02*
X-17057619Y-11565000D01*
X-16914761Y-11660238D01*
X-16819523Y-11755476D01*
X-16771904Y-11850714D01*
X-16629047Y-10707857D02*
X-16676666Y-10803095D01*
X-16724285Y-10850714D01*
X-16819523Y-10898333D01*
X-16867142Y-10898333D01*
X-16962380Y-10850714D01*
X-17010000Y-10803095D01*
X-17057619Y-10707857D01*
X-17057619Y-10517380D01*
X-17010000Y-10422142D01*
X-16962380Y-10374523D01*
X-16867142Y-10326904D01*
X-16819523Y-10326904D01*
X-16724285Y-10374523D01*
X-16676666Y-10422142D01*
X-16629047Y-10517380D01*
X-16629047Y-10707857D01*
X-16581428Y-10803095D01*
X-16533809Y-10850714D01*
X-16438571Y-10898333D01*
X-16248095Y-10898333D01*
X-16152857Y-10850714D01*
X-16105238Y-10803095D01*
X-16057619Y-10707857D01*
X-16057619Y-10517380D01*
X-16105238Y-10422142D01*
X-16152857Y-10374523D01*
X-16248095Y-10326904D01*
X-16438571Y-10326904D01*
X-16533809Y-10374523D01*
X-16581428Y-10422142D01*
X-16629047Y-10517380D01*
G04 #@! TO.C,U15*
X-17057619Y-17748095D02*
X-16248095Y-17748095D01*
X-16152857Y-17700476D01*
X-16105238Y-17652857D01*
X-16057619Y-17557619D01*
X-16057619Y-17367142D01*
X-16105238Y-17271904D01*
X-16152857Y-17224285D01*
X-16248095Y-17176666D01*
X-17057619Y-17176666D01*
X-16057619Y-16176666D02*
X-16057619Y-16748095D01*
X-16057619Y-16462380D02*
X-17057619Y-16462380D01*
X-16914761Y-16557619D01*
X-16819523Y-16652857D01*
X-16771904Y-16748095D01*
X-17057619Y-15271904D02*
X-17057619Y-15748095D01*
X-16581428Y-15795714D01*
X-16629047Y-15748095D01*
X-16676666Y-15652857D01*
X-16676666Y-15414761D01*
X-16629047Y-15319523D01*
X-16581428Y-15271904D01*
X-16486190Y-15224285D01*
X-16248095Y-15224285D01*
X-16152857Y-15271904D01*
X-16105238Y-15319523D01*
X-16057619Y-15414761D01*
X-16057619Y-15652857D01*
X-16105238Y-15748095D01*
X-16152857Y-15795714D01*
G04 #@! TO.C,C119*
X-3452857Y-13184047D02*
X-3405238Y-13231666D01*
X-3357619Y-13374523D01*
X-3357619Y-13469761D01*
X-3405238Y-13612619D01*
X-3500476Y-13707857D01*
X-3595714Y-13755476D01*
X-3786190Y-13803095D01*
X-3929047Y-13803095D01*
X-4119523Y-13755476D01*
X-4214761Y-13707857D01*
X-4310000Y-13612619D01*
X-4357619Y-13469761D01*
X-4357619Y-13374523D01*
X-4310000Y-13231666D01*
X-4262380Y-13184047D01*
X-3357619Y-12231666D02*
X-3357619Y-12803095D01*
X-3357619Y-12517380D02*
X-4357619Y-12517380D01*
X-4214761Y-12612619D01*
X-4119523Y-12707857D01*
X-4071904Y-12803095D01*
X-3357619Y-11279285D02*
X-3357619Y-11850714D01*
X-3357619Y-11565000D02*
X-4357619Y-11565000D01*
X-4214761Y-11660238D01*
X-4119523Y-11755476D01*
X-4071904Y-11850714D01*
X-3357619Y-10803095D02*
X-3357619Y-10612619D01*
X-3405238Y-10517380D01*
X-3452857Y-10469761D01*
X-3595714Y-10374523D01*
X-3786190Y-10326904D01*
X-4167142Y-10326904D01*
X-4262380Y-10374523D01*
X-4310000Y-10422142D01*
X-4357619Y-10517380D01*
X-4357619Y-10707857D01*
X-4310000Y-10803095D01*
X-4262380Y-10850714D01*
X-4167142Y-10898333D01*
X-3929047Y-10898333D01*
X-3833809Y-10850714D01*
X-3786190Y-10803095D01*
X-3738571Y-10707857D01*
X-3738571Y-10517380D01*
X-3786190Y-10422142D01*
X-3833809Y-10374523D01*
X-3929047Y-10326904D01*
G04 #@! TO.C,T1*
X11652380Y34163095D02*
X11652380Y34734523D01*
X12652380Y34448809D02*
X11652380Y34448809D01*
X12652380Y35591666D02*
X12652380Y35020238D01*
X12652380Y35305952D02*
X11652380Y35305952D01*
X11795238Y35210714D01*
X11890476Y35115476D01*
X11938095Y35020238D01*
G04 #@! TO.C,C58*
X42342969Y29772893D02*
X42342969Y29705549D01*
X42275625Y29570862D01*
X42208282Y29503519D01*
X42073595Y29436175D01*
X41938908Y29436175D01*
X41837893Y29469847D01*
X41669534Y29570862D01*
X41568519Y29671877D01*
X41467503Y29840236D01*
X41433832Y29941251D01*
X41433832Y30075938D01*
X41501175Y30210625D01*
X41568519Y30277969D01*
X41703206Y30345312D01*
X41770549Y30345312D01*
X42342969Y31052419D02*
X42006251Y30715702D01*
X42309297Y30345312D01*
X42309297Y30412656D01*
X42342969Y30513671D01*
X42511328Y30682030D01*
X42612343Y30715702D01*
X42679687Y30715702D01*
X42780702Y30682030D01*
X42949061Y30513671D01*
X42982732Y30412656D01*
X42982732Y30345312D01*
X42949061Y30244297D01*
X42780702Y30075938D01*
X42679687Y30042267D01*
X42612343Y30042267D01*
X43083748Y31187106D02*
X42982732Y31153435D01*
X42915389Y31153435D01*
X42814374Y31187106D01*
X42780702Y31220778D01*
X42747030Y31321793D01*
X42747030Y31389137D01*
X42780702Y31490152D01*
X42915389Y31624839D01*
X43016404Y31658511D01*
X43083748Y31658511D01*
X43184763Y31624839D01*
X43218435Y31591167D01*
X43252106Y31490152D01*
X43252106Y31422809D01*
X43218435Y31321793D01*
X43083748Y31187106D01*
X43050076Y31086091D01*
X43050076Y31018748D01*
X43083748Y30917732D01*
X43218435Y30783045D01*
X43319450Y30749374D01*
X43386793Y30749374D01*
X43487809Y30783045D01*
X43622496Y30917732D01*
X43656167Y31018748D01*
X43656167Y31086091D01*
X43622496Y31187106D01*
X43487809Y31321793D01*
X43386793Y31355465D01*
X43319450Y31355465D01*
X43218435Y31321793D01*
G04 #@! TO.C,C120*
X12215952Y12342857D02*
X12168333Y12295238D01*
X12025476Y12247619D01*
X11930238Y12247619D01*
X11787380Y12295238D01*
X11692142Y12390476D01*
X11644523Y12485714D01*
X11596904Y12676190D01*
X11596904Y12819047D01*
X11644523Y13009523D01*
X11692142Y13104761D01*
X11787380Y13200000D01*
X11930238Y13247619D01*
X12025476Y13247619D01*
X12168333Y13200000D01*
X12215952Y13152380D01*
X13168333Y12247619D02*
X12596904Y12247619D01*
X12882619Y12247619D02*
X12882619Y13247619D01*
X12787380Y13104761D01*
X12692142Y13009523D01*
X12596904Y12961904D01*
X13549285Y13152380D02*
X13596904Y13200000D01*
X13692142Y13247619D01*
X13930238Y13247619D01*
X14025476Y13200000D01*
X14073095Y13152380D01*
X14120714Y13057142D01*
X14120714Y12961904D01*
X14073095Y12819047D01*
X13501666Y12247619D01*
X14120714Y12247619D01*
X14739761Y13247619D02*
X14835000Y13247619D01*
X14930238Y13200000D01*
X14977857Y13152380D01*
X15025476Y13057142D01*
X15073095Y12866666D01*
X15073095Y12628571D01*
X15025476Y12438095D01*
X14977857Y12342857D01*
X14930238Y12295238D01*
X14835000Y12247619D01*
X14739761Y12247619D01*
X14644523Y12295238D01*
X14596904Y12342857D01*
X14549285Y12438095D01*
X14501666Y12628571D01*
X14501666Y12866666D01*
X14549285Y13057142D01*
X14596904Y13152380D01*
X14644523Y13200000D01*
X14739761Y13247619D01*
G04 #@! TO.C,U16*
X7651904Y13247619D02*
X7651904Y12438095D01*
X7699523Y12342857D01*
X7747142Y12295238D01*
X7842380Y12247619D01*
X8032857Y12247619D01*
X8128095Y12295238D01*
X8175714Y12342857D01*
X8223333Y12438095D01*
X8223333Y13247619D01*
X9223333Y12247619D02*
X8651904Y12247619D01*
X8937619Y12247619D02*
X8937619Y13247619D01*
X8842380Y13104761D01*
X8747142Y13009523D01*
X8651904Y12961904D01*
X10080476Y13247619D02*
X9890000Y13247619D01*
X9794761Y13200000D01*
X9747142Y13152380D01*
X9651904Y13009523D01*
X9604285Y12819047D01*
X9604285Y12438095D01*
X9651904Y12342857D01*
X9699523Y12295238D01*
X9794761Y12247619D01*
X9985238Y12247619D01*
X10080476Y12295238D01*
X10128095Y12342857D01*
X10175714Y12438095D01*
X10175714Y12676190D01*
X10128095Y12771428D01*
X10080476Y12819047D01*
X9985238Y12866666D01*
X9794761Y12866666D01*
X9699523Y12819047D01*
X9651904Y12771428D01*
X9604285Y12676190D01*
G04 #@! TO.C,C121*
X12215952Y-357142D02*
X12168333Y-404761D01*
X12025476Y-452380D01*
X11930238Y-452380D01*
X11787380Y-404761D01*
X11692142Y-309523D01*
X11644523Y-214285D01*
X11596904Y-23809D01*
X11596904Y119047D01*
X11644523Y309523D01*
X11692142Y404761D01*
X11787380Y500000D01*
X11930238Y547619D01*
X12025476Y547619D01*
X12168333Y500000D01*
X12215952Y452380D01*
X13168333Y-452380D02*
X12596904Y-452380D01*
X12882619Y-452380D02*
X12882619Y547619D01*
X12787380Y404761D01*
X12692142Y309523D01*
X12596904Y261904D01*
X13549285Y452380D02*
X13596904Y500000D01*
X13692142Y547619D01*
X13930238Y547619D01*
X14025476Y500000D01*
X14073095Y452380D01*
X14120714Y357142D01*
X14120714Y261904D01*
X14073095Y119047D01*
X13501666Y-452380D01*
X14120714Y-452380D01*
X15073095Y-452380D02*
X14501666Y-452380D01*
X14787380Y-452380D02*
X14787380Y547619D01*
X14692142Y404761D01*
X14596904Y309523D01*
X14501666Y261904D01*
G04 #@! TO.C,C91*
X33647142Y-39727142D02*
X33599523Y-39774761D01*
X33456666Y-39822380D01*
X33361428Y-39822380D01*
X33218571Y-39774761D01*
X33123333Y-39679523D01*
X33075714Y-39584285D01*
X33028095Y-39393809D01*
X33028095Y-39250952D01*
X33075714Y-39060476D01*
X33123333Y-38965238D01*
X33218571Y-38870000D01*
X33361428Y-38822380D01*
X33456666Y-38822380D01*
X33599523Y-38870000D01*
X33647142Y-38917619D01*
X34123333Y-39822380D02*
X34313809Y-39822380D01*
X34409047Y-39774761D01*
X34456666Y-39727142D01*
X34551904Y-39584285D01*
X34599523Y-39393809D01*
X34599523Y-39012857D01*
X34551904Y-38917619D01*
X34504285Y-38870000D01*
X34409047Y-38822380D01*
X34218571Y-38822380D01*
X34123333Y-38870000D01*
X34075714Y-38917619D01*
X34028095Y-39012857D01*
X34028095Y-39250952D01*
X34075714Y-39346190D01*
X34123333Y-39393809D01*
X34218571Y-39441428D01*
X34409047Y-39441428D01*
X34504285Y-39393809D01*
X34551904Y-39346190D01*
X34599523Y-39250952D01*
X35551904Y-39822380D02*
X34980476Y-39822380D01*
X35266190Y-39822380D02*
X35266190Y-38822380D01*
X35170952Y-38965238D01*
X35075714Y-39060476D01*
X34980476Y-39108095D01*
G04 #@! TO.C,C92*
X33647142Y-46077142D02*
X33599523Y-46124761D01*
X33456666Y-46172380D01*
X33361428Y-46172380D01*
X33218571Y-46124761D01*
X33123333Y-46029523D01*
X33075714Y-45934285D01*
X33028095Y-45743809D01*
X33028095Y-45600952D01*
X33075714Y-45410476D01*
X33123333Y-45315238D01*
X33218571Y-45220000D01*
X33361428Y-45172380D01*
X33456666Y-45172380D01*
X33599523Y-45220000D01*
X33647142Y-45267619D01*
X34123333Y-46172380D02*
X34313809Y-46172380D01*
X34409047Y-46124761D01*
X34456666Y-46077142D01*
X34551904Y-45934285D01*
X34599523Y-45743809D01*
X34599523Y-45362857D01*
X34551904Y-45267619D01*
X34504285Y-45220000D01*
X34409047Y-45172380D01*
X34218571Y-45172380D01*
X34123333Y-45220000D01*
X34075714Y-45267619D01*
X34028095Y-45362857D01*
X34028095Y-45600952D01*
X34075714Y-45696190D01*
X34123333Y-45743809D01*
X34218571Y-45791428D01*
X34409047Y-45791428D01*
X34504285Y-45743809D01*
X34551904Y-45696190D01*
X34599523Y-45600952D01*
X34980476Y-45267619D02*
X35028095Y-45220000D01*
X35123333Y-45172380D01*
X35361428Y-45172380D01*
X35456666Y-45220000D01*
X35504285Y-45267619D01*
X35551904Y-45362857D01*
X35551904Y-45458095D01*
X35504285Y-45600952D01*
X34932857Y-46172380D01*
X35551904Y-46172380D01*
G04 #@! TO.C,U7*
X26432380Y-42671904D02*
X27241904Y-42671904D01*
X27337142Y-42624285D01*
X27384761Y-42576666D01*
X27432380Y-42481428D01*
X27432380Y-42290952D01*
X27384761Y-42195714D01*
X27337142Y-42148095D01*
X27241904Y-42100476D01*
X26432380Y-42100476D01*
X26432380Y-41719523D02*
X26432380Y-41052857D01*
X27432380Y-41481428D01*
G04 #@! TO.C,C89*
X26027142Y-39727142D02*
X25979523Y-39774761D01*
X25836666Y-39822380D01*
X25741428Y-39822380D01*
X25598571Y-39774761D01*
X25503333Y-39679523D01*
X25455714Y-39584285D01*
X25408095Y-39393809D01*
X25408095Y-39250952D01*
X25455714Y-39060476D01*
X25503333Y-38965238D01*
X25598571Y-38870000D01*
X25741428Y-38822380D01*
X25836666Y-38822380D01*
X25979523Y-38870000D01*
X26027142Y-38917619D01*
X26598571Y-39250952D02*
X26503333Y-39203333D01*
X26455714Y-39155714D01*
X26408095Y-39060476D01*
X26408095Y-39012857D01*
X26455714Y-38917619D01*
X26503333Y-38870000D01*
X26598571Y-38822380D01*
X26789047Y-38822380D01*
X26884285Y-38870000D01*
X26931904Y-38917619D01*
X26979523Y-39012857D01*
X26979523Y-39060476D01*
X26931904Y-39155714D01*
X26884285Y-39203333D01*
X26789047Y-39250952D01*
X26598571Y-39250952D01*
X26503333Y-39298571D01*
X26455714Y-39346190D01*
X26408095Y-39441428D01*
X26408095Y-39631904D01*
X26455714Y-39727142D01*
X26503333Y-39774761D01*
X26598571Y-39822380D01*
X26789047Y-39822380D01*
X26884285Y-39774761D01*
X26931904Y-39727142D01*
X26979523Y-39631904D01*
X26979523Y-39441428D01*
X26931904Y-39346190D01*
X26884285Y-39298571D01*
X26789047Y-39250952D01*
X27455714Y-39822380D02*
X27646190Y-39822380D01*
X27741428Y-39774761D01*
X27789047Y-39727142D01*
X27884285Y-39584285D01*
X27931904Y-39393809D01*
X27931904Y-39012857D01*
X27884285Y-38917619D01*
X27836666Y-38870000D01*
X27741428Y-38822380D01*
X27550952Y-38822380D01*
X27455714Y-38870000D01*
X27408095Y-38917619D01*
X27360476Y-39012857D01*
X27360476Y-39250952D01*
X27408095Y-39346190D01*
X27455714Y-39393809D01*
X27550952Y-39441428D01*
X27741428Y-39441428D01*
X27836666Y-39393809D01*
X27884285Y-39346190D01*
X27931904Y-39250952D01*
G04 #@! TO.C,C90*
X26027142Y-46077142D02*
X25979523Y-46124761D01*
X25836666Y-46172380D01*
X25741428Y-46172380D01*
X25598571Y-46124761D01*
X25503333Y-46029523D01*
X25455714Y-45934285D01*
X25408095Y-45743809D01*
X25408095Y-45600952D01*
X25455714Y-45410476D01*
X25503333Y-45315238D01*
X25598571Y-45220000D01*
X25741428Y-45172380D01*
X25836666Y-45172380D01*
X25979523Y-45220000D01*
X26027142Y-45267619D01*
X26503333Y-46172380D02*
X26693809Y-46172380D01*
X26789047Y-46124761D01*
X26836666Y-46077142D01*
X26931904Y-45934285D01*
X26979523Y-45743809D01*
X26979523Y-45362857D01*
X26931904Y-45267619D01*
X26884285Y-45220000D01*
X26789047Y-45172380D01*
X26598571Y-45172380D01*
X26503333Y-45220000D01*
X26455714Y-45267619D01*
X26408095Y-45362857D01*
X26408095Y-45600952D01*
X26455714Y-45696190D01*
X26503333Y-45743809D01*
X26598571Y-45791428D01*
X26789047Y-45791428D01*
X26884285Y-45743809D01*
X26931904Y-45696190D01*
X26979523Y-45600952D01*
X27598571Y-45172380D02*
X27693809Y-45172380D01*
X27789047Y-45220000D01*
X27836666Y-45267619D01*
X27884285Y-45362857D01*
X27931904Y-45553333D01*
X27931904Y-45791428D01*
X27884285Y-45981904D01*
X27836666Y-46077142D01*
X27789047Y-46124761D01*
X27693809Y-46172380D01*
X27598571Y-46172380D01*
X27503333Y-46124761D01*
X27455714Y-46077142D01*
X27408095Y-45981904D01*
X27360476Y-45791428D01*
X27360476Y-45553333D01*
X27408095Y-45362857D01*
X27455714Y-45267619D01*
X27503333Y-45220000D01*
X27598571Y-45172380D01*
G04 #@! TO.C,C110*
X31472142Y-25884047D02*
X31519761Y-25931666D01*
X31567380Y-26074523D01*
X31567380Y-26169761D01*
X31519761Y-26312619D01*
X31424523Y-26407857D01*
X31329285Y-26455476D01*
X31138809Y-26503095D01*
X30995952Y-26503095D01*
X30805476Y-26455476D01*
X30710238Y-26407857D01*
X30615000Y-26312619D01*
X30567380Y-26169761D01*
X30567380Y-26074523D01*
X30615000Y-25931666D01*
X30662619Y-25884047D01*
X31567380Y-24931666D02*
X31567380Y-25503095D01*
X31567380Y-25217380D02*
X30567380Y-25217380D01*
X30710238Y-25312619D01*
X30805476Y-25407857D01*
X30853095Y-25503095D01*
X31567380Y-23979285D02*
X31567380Y-24550714D01*
X31567380Y-24265000D02*
X30567380Y-24265000D01*
X30710238Y-24360238D01*
X30805476Y-24455476D01*
X30853095Y-24550714D01*
X30567380Y-23360238D02*
X30567380Y-23265000D01*
X30615000Y-23169761D01*
X30662619Y-23122142D01*
X30757857Y-23074523D01*
X30948333Y-23026904D01*
X31186428Y-23026904D01*
X31376904Y-23074523D01*
X31472142Y-23122142D01*
X31519761Y-23169761D01*
X31567380Y-23265000D01*
X31567380Y-23360238D01*
X31519761Y-23455476D01*
X31472142Y-23503095D01*
X31376904Y-23550714D01*
X31186428Y-23598333D01*
X30948333Y-23598333D01*
X30757857Y-23550714D01*
X30662619Y-23503095D01*
X30615000Y-23455476D01*
X30567380Y-23360238D01*
G04 #@! TO.C,C109*
X31472142Y-29694047D02*
X31519761Y-29741666D01*
X31567380Y-29884523D01*
X31567380Y-29979761D01*
X31519761Y-30122619D01*
X31424523Y-30217857D01*
X31329285Y-30265476D01*
X31138809Y-30313095D01*
X30995952Y-30313095D01*
X30805476Y-30265476D01*
X30710238Y-30217857D01*
X30615000Y-30122619D01*
X30567380Y-29979761D01*
X30567380Y-29884523D01*
X30615000Y-29741666D01*
X30662619Y-29694047D01*
X31567380Y-28741666D02*
X31567380Y-29313095D01*
X31567380Y-29027380D02*
X30567380Y-29027380D01*
X30710238Y-29122619D01*
X30805476Y-29217857D01*
X30853095Y-29313095D01*
X30567380Y-28122619D02*
X30567380Y-28027380D01*
X30615000Y-27932142D01*
X30662619Y-27884523D01*
X30757857Y-27836904D01*
X30948333Y-27789285D01*
X31186428Y-27789285D01*
X31376904Y-27836904D01*
X31472142Y-27884523D01*
X31519761Y-27932142D01*
X31567380Y-28027380D01*
X31567380Y-28122619D01*
X31519761Y-28217857D01*
X31472142Y-28265476D01*
X31376904Y-28313095D01*
X31186428Y-28360714D01*
X30948333Y-28360714D01*
X30757857Y-28313095D01*
X30662619Y-28265476D01*
X30615000Y-28217857D01*
X30567380Y-28122619D01*
X31567380Y-27313095D02*
X31567380Y-27122619D01*
X31519761Y-27027380D01*
X31472142Y-26979761D01*
X31329285Y-26884523D01*
X31138809Y-26836904D01*
X30757857Y-26836904D01*
X30662619Y-26884523D01*
X30615000Y-26932142D01*
X30567380Y-27027380D01*
X30567380Y-27217857D01*
X30615000Y-27313095D01*
X30662619Y-27360714D01*
X30757857Y-27408333D01*
X30995952Y-27408333D01*
X31091190Y-27360714D01*
X31138809Y-27313095D01*
X31186428Y-27217857D01*
X31186428Y-27027380D01*
X31138809Y-26932142D01*
X31091190Y-26884523D01*
X30995952Y-26836904D01*
G04 #@! TO.C,U10*
X25487380Y-27908095D02*
X26296904Y-27908095D01*
X26392142Y-27860476D01*
X26439761Y-27812857D01*
X26487380Y-27717619D01*
X26487380Y-27527142D01*
X26439761Y-27431904D01*
X26392142Y-27384285D01*
X26296904Y-27336666D01*
X25487380Y-27336666D01*
X26487380Y-26336666D02*
X26487380Y-26908095D01*
X26487380Y-26622380D02*
X25487380Y-26622380D01*
X25630238Y-26717619D01*
X25725476Y-26812857D01*
X25773095Y-26908095D01*
X25487380Y-25717619D02*
X25487380Y-25622380D01*
X25535000Y-25527142D01*
X25582619Y-25479523D01*
X25677857Y-25431904D01*
X25868333Y-25384285D01*
X26106428Y-25384285D01*
X26296904Y-25431904D01*
X26392142Y-25479523D01*
X26439761Y-25527142D01*
X26487380Y-25622380D01*
X26487380Y-25717619D01*
X26439761Y-25812857D01*
X26392142Y-25860476D01*
X26296904Y-25908095D01*
X26106428Y-25955714D01*
X25868333Y-25955714D01*
X25677857Y-25908095D01*
X25582619Y-25860476D01*
X25535000Y-25812857D01*
X25487380Y-25717619D01*
G04 #@! TO.C,C40*
X-3182857Y-44172142D02*
X-3230476Y-44219761D01*
X-3373333Y-44267380D01*
X-3468571Y-44267380D01*
X-3611428Y-44219761D01*
X-3706666Y-44124523D01*
X-3754285Y-44029285D01*
X-3801904Y-43838809D01*
X-3801904Y-43695952D01*
X-3754285Y-43505476D01*
X-3706666Y-43410238D01*
X-3611428Y-43315000D01*
X-3468571Y-43267380D01*
X-3373333Y-43267380D01*
X-3230476Y-43315000D01*
X-3182857Y-43362619D01*
X-2325714Y-43600714D02*
X-2325714Y-44267380D01*
X-2563809Y-43219761D02*
X-2801904Y-43934047D01*
X-2182857Y-43934047D01*
X-1611428Y-43267380D02*
X-1516190Y-43267380D01*
X-1420952Y-43315000D01*
X-1373333Y-43362619D01*
X-1325714Y-43457857D01*
X-1278095Y-43648333D01*
X-1278095Y-43886428D01*
X-1325714Y-44076904D01*
X-1373333Y-44172142D01*
X-1420952Y-44219761D01*
X-1516190Y-44267380D01*
X-1611428Y-44267380D01*
X-1706666Y-44219761D01*
X-1754285Y-44172142D01*
X-1801904Y-44076904D01*
X-1849523Y-43886428D01*
X-1849523Y-43648333D01*
X-1801904Y-43457857D01*
X-1754285Y-43362619D01*
X-1706666Y-43315000D01*
X-1611428Y-43267380D01*
G04 #@! TO.C,C32*
X-7897857Y-38742857D02*
X-7850238Y-38790476D01*
X-7802619Y-38933333D01*
X-7802619Y-39028571D01*
X-7850238Y-39171428D01*
X-7945476Y-39266666D01*
X-8040714Y-39314285D01*
X-8231190Y-39361904D01*
X-8374047Y-39361904D01*
X-8564523Y-39314285D01*
X-8659761Y-39266666D01*
X-8755000Y-39171428D01*
X-8802619Y-39028571D01*
X-8802619Y-38933333D01*
X-8755000Y-38790476D01*
X-8707380Y-38742857D01*
X-8802619Y-38409523D02*
X-8802619Y-37790476D01*
X-8421666Y-38123809D01*
X-8421666Y-37980952D01*
X-8374047Y-37885714D01*
X-8326428Y-37838095D01*
X-8231190Y-37790476D01*
X-7993095Y-37790476D01*
X-7897857Y-37838095D01*
X-7850238Y-37885714D01*
X-7802619Y-37980952D01*
X-7802619Y-38266666D01*
X-7850238Y-38361904D01*
X-7897857Y-38409523D01*
X-8707380Y-37409523D02*
X-8755000Y-37361904D01*
X-8802619Y-37266666D01*
X-8802619Y-37028571D01*
X-8755000Y-36933333D01*
X-8707380Y-36885714D01*
X-8612142Y-36838095D01*
X-8516904Y-36838095D01*
X-8374047Y-36885714D01*
X-7802619Y-37457142D01*
X-7802619Y-36838095D01*
G04 #@! TO.C,C33*
X-9167857Y-38742857D02*
X-9120238Y-38790476D01*
X-9072619Y-38933333D01*
X-9072619Y-39028571D01*
X-9120238Y-39171428D01*
X-9215476Y-39266666D01*
X-9310714Y-39314285D01*
X-9501190Y-39361904D01*
X-9644047Y-39361904D01*
X-9834523Y-39314285D01*
X-9929761Y-39266666D01*
X-10025000Y-39171428D01*
X-10072619Y-39028571D01*
X-10072619Y-38933333D01*
X-10025000Y-38790476D01*
X-9977380Y-38742857D01*
X-10072619Y-38409523D02*
X-10072619Y-37790476D01*
X-9691666Y-38123809D01*
X-9691666Y-37980952D01*
X-9644047Y-37885714D01*
X-9596428Y-37838095D01*
X-9501190Y-37790476D01*
X-9263095Y-37790476D01*
X-9167857Y-37838095D01*
X-9120238Y-37885714D01*
X-9072619Y-37980952D01*
X-9072619Y-38266666D01*
X-9120238Y-38361904D01*
X-9167857Y-38409523D01*
X-10072619Y-37457142D02*
X-10072619Y-36838095D01*
X-9691666Y-37171428D01*
X-9691666Y-37028571D01*
X-9644047Y-36933333D01*
X-9596428Y-36885714D01*
X-9501190Y-36838095D01*
X-9263095Y-36838095D01*
X-9167857Y-36885714D01*
X-9120238Y-36933333D01*
X-9072619Y-37028571D01*
X-9072619Y-37314285D01*
X-9120238Y-37409523D01*
X-9167857Y-37457142D01*
G04 #@! TO.C,C31*
X-9167857Y-35567857D02*
X-9120238Y-35615476D01*
X-9072619Y-35758333D01*
X-9072619Y-35853571D01*
X-9120238Y-35996428D01*
X-9215476Y-36091666D01*
X-9310714Y-36139285D01*
X-9501190Y-36186904D01*
X-9644047Y-36186904D01*
X-9834523Y-36139285D01*
X-9929761Y-36091666D01*
X-10025000Y-35996428D01*
X-10072619Y-35853571D01*
X-10072619Y-35758333D01*
X-10025000Y-35615476D01*
X-9977380Y-35567857D01*
X-10072619Y-35234523D02*
X-10072619Y-34615476D01*
X-9691666Y-34948809D01*
X-9691666Y-34805952D01*
X-9644047Y-34710714D01*
X-9596428Y-34663095D01*
X-9501190Y-34615476D01*
X-9263095Y-34615476D01*
X-9167857Y-34663095D01*
X-9120238Y-34710714D01*
X-9072619Y-34805952D01*
X-9072619Y-35091666D01*
X-9120238Y-35186904D01*
X-9167857Y-35234523D01*
X-9072619Y-33663095D02*
X-9072619Y-34234523D01*
X-9072619Y-33948809D02*
X-10072619Y-33948809D01*
X-9929761Y-34044047D01*
X-9834523Y-34139285D01*
X-9786904Y-34234523D01*
G04 #@! TO.C,C34*
X-11502106Y-41707969D02*
X-11569450Y-41707969D01*
X-11704137Y-41640625D01*
X-11771480Y-41573282D01*
X-11838824Y-41438595D01*
X-11838824Y-41303908D01*
X-11805152Y-41202893D01*
X-11704137Y-41034534D01*
X-11603122Y-40933519D01*
X-11434763Y-40832503D01*
X-11333748Y-40798832D01*
X-11199061Y-40798832D01*
X-11064374Y-40866175D01*
X-10997030Y-40933519D01*
X-10929687Y-41068206D01*
X-10929687Y-41135549D01*
X-10626641Y-41303908D02*
X-10188908Y-41741641D01*
X-10693984Y-41775312D01*
X-10592969Y-41876328D01*
X-10559297Y-41977343D01*
X-10559297Y-42044687D01*
X-10592969Y-42145702D01*
X-10761328Y-42314061D01*
X-10862343Y-42347732D01*
X-10929687Y-42347732D01*
X-11030702Y-42314061D01*
X-11232732Y-42112030D01*
X-11266404Y-42011015D01*
X-11266404Y-41943671D01*
X-9818519Y-42583435D02*
X-10289923Y-43054839D01*
X-9717503Y-42145702D02*
X-10390938Y-42482419D01*
X-9953206Y-42920152D01*
G04 #@! TO.C,C38*
X1897142Y-40997141D02*
X1849523Y-41044760D01*
X1706666Y-41092379D01*
X1611428Y-41092379D01*
X1468571Y-41044760D01*
X1373333Y-40949522D01*
X1325714Y-40854284D01*
X1278095Y-40663808D01*
X1278095Y-40520951D01*
X1325714Y-40330475D01*
X1373333Y-40235237D01*
X1468571Y-40139999D01*
X1611428Y-40092379D01*
X1706666Y-40092379D01*
X1849523Y-40139999D01*
X1897142Y-40187618D01*
X2230476Y-40092379D02*
X2849523Y-40092379D01*
X2516190Y-40473332D01*
X2659047Y-40473332D01*
X2754285Y-40520951D01*
X2801904Y-40568570D01*
X2849523Y-40663808D01*
X2849523Y-40901903D01*
X2801904Y-40997141D01*
X2754285Y-41044760D01*
X2659047Y-41092379D01*
X2373333Y-41092379D01*
X2278095Y-41044760D01*
X2230476Y-40997141D01*
X3420952Y-40520951D02*
X3325714Y-40473332D01*
X3278095Y-40425713D01*
X3230476Y-40330475D01*
X3230476Y-40282856D01*
X3278095Y-40187618D01*
X3325714Y-40139999D01*
X3420952Y-40092379D01*
X3611428Y-40092379D01*
X3706666Y-40139999D01*
X3754285Y-40187618D01*
X3801904Y-40282856D01*
X3801904Y-40330475D01*
X3754285Y-40425713D01*
X3706666Y-40473332D01*
X3611428Y-40520951D01*
X3420952Y-40520951D01*
X3325714Y-40568570D01*
X3278095Y-40616189D01*
X3230476Y-40711427D01*
X3230476Y-40901903D01*
X3278095Y-40997141D01*
X3325714Y-41044760D01*
X3420952Y-41092379D01*
X3611428Y-41092379D01*
X3706666Y-41044760D01*
X3754285Y-40997141D01*
X3801904Y-40901903D01*
X3801904Y-40711427D01*
X3754285Y-40616189D01*
X3706666Y-40568570D01*
X3611428Y-40520951D01*
G04 #@! TO.C,C42*
X3802142Y-43537142D02*
X3754523Y-43584761D01*
X3611666Y-43632380D01*
X3516428Y-43632380D01*
X3373571Y-43584761D01*
X3278333Y-43489523D01*
X3230714Y-43394285D01*
X3183095Y-43203809D01*
X3183095Y-43060952D01*
X3230714Y-42870476D01*
X3278333Y-42775238D01*
X3373571Y-42680000D01*
X3516428Y-42632380D01*
X3611666Y-42632380D01*
X3754523Y-42680000D01*
X3802142Y-42727619D01*
X4659285Y-42965714D02*
X4659285Y-43632380D01*
X4421190Y-42584761D02*
X4183095Y-43299047D01*
X4802142Y-43299047D01*
X5135476Y-42727619D02*
X5183095Y-42680000D01*
X5278333Y-42632380D01*
X5516428Y-42632380D01*
X5611666Y-42680000D01*
X5659285Y-42727619D01*
X5706904Y-42822857D01*
X5706904Y-42918095D01*
X5659285Y-43060952D01*
X5087857Y-43632380D01*
X5706904Y-43632380D01*
G04 #@! TO.C,C39*
X-4452857Y-42902142D02*
X-4500476Y-42949761D01*
X-4643333Y-42997380D01*
X-4738571Y-42997380D01*
X-4881428Y-42949761D01*
X-4976666Y-42854523D01*
X-5024285Y-42759285D01*
X-5071904Y-42568809D01*
X-5071904Y-42425952D01*
X-5024285Y-42235476D01*
X-4976666Y-42140238D01*
X-4881428Y-42045000D01*
X-4738571Y-41997380D01*
X-4643333Y-41997380D01*
X-4500476Y-42045000D01*
X-4452857Y-42092619D01*
X-4119523Y-41997380D02*
X-3500476Y-41997380D01*
X-3833809Y-42378333D01*
X-3690952Y-42378333D01*
X-3595714Y-42425952D01*
X-3548095Y-42473571D01*
X-3500476Y-42568809D01*
X-3500476Y-42806904D01*
X-3548095Y-42902142D01*
X-3595714Y-42949761D01*
X-3690952Y-42997380D01*
X-3976666Y-42997380D01*
X-4071904Y-42949761D01*
X-4119523Y-42902142D01*
X-3024285Y-42997380D02*
X-2833809Y-42997380D01*
X-2738571Y-42949761D01*
X-2690952Y-42902142D01*
X-2595714Y-42759285D01*
X-2548095Y-42568809D01*
X-2548095Y-42187857D01*
X-2595714Y-42092619D01*
X-2643333Y-42045000D01*
X-2738571Y-41997380D01*
X-2929047Y-41997380D01*
X-3024285Y-42045000D01*
X-3071904Y-42092619D01*
X-3119523Y-42187857D01*
X-3119523Y-42425952D01*
X-3071904Y-42521190D01*
X-3024285Y-42568809D01*
X-2929047Y-42616428D01*
X-2738571Y-42616428D01*
X-2643333Y-42568809D01*
X-2595714Y-42521190D01*
X-2548095Y-42425952D01*
G04 #@! TO.C,C27*
X-3882106Y-25197969D02*
X-3949450Y-25197969D01*
X-4084137Y-25130625D01*
X-4151480Y-25063282D01*
X-4218824Y-24928595D01*
X-4218824Y-24793908D01*
X-4185152Y-24692893D01*
X-4084137Y-24524534D01*
X-3983122Y-24423519D01*
X-3814763Y-24322503D01*
X-3713748Y-24288832D01*
X-3579061Y-24288832D01*
X-3444374Y-24356175D01*
X-3377030Y-24423519D01*
X-3309687Y-24558206D01*
X-3309687Y-24625549D01*
X-3040312Y-24894923D02*
X-2972969Y-24894923D01*
X-2871954Y-24928595D01*
X-2703595Y-25096954D01*
X-2669923Y-25197969D01*
X-2669923Y-25265312D01*
X-2703595Y-25366328D01*
X-2770938Y-25433671D01*
X-2905625Y-25501015D01*
X-3713748Y-25501015D01*
X-3276015Y-25938748D01*
X-2333206Y-25467343D02*
X-1861801Y-25938748D01*
X-2871954Y-26342809D01*
G04 #@! TO.C,C29*
X3102893Y-27102969D02*
X3035549Y-27102969D01*
X2900862Y-27035625D01*
X2833519Y-26968282D01*
X2766175Y-26833595D01*
X2766175Y-26698908D01*
X2799847Y-26597893D01*
X2900862Y-26429534D01*
X3001877Y-26328519D01*
X3170236Y-26227503D01*
X3271251Y-26193832D01*
X3405938Y-26193832D01*
X3540625Y-26261175D01*
X3607969Y-26328519D01*
X3675312Y-26463206D01*
X3675312Y-26530549D01*
X3944687Y-26799923D02*
X4012030Y-26799923D01*
X4113045Y-26833595D01*
X4281404Y-27001954D01*
X4315076Y-27102969D01*
X4315076Y-27170312D01*
X4281404Y-27271328D01*
X4214061Y-27338671D01*
X4079374Y-27406015D01*
X3271251Y-27406015D01*
X3708984Y-27843748D01*
X4045702Y-28180465D02*
X4180389Y-28315152D01*
X4281404Y-28348824D01*
X4348748Y-28348824D01*
X4517106Y-28315152D01*
X4685465Y-28214137D01*
X4954839Y-27944763D01*
X4988511Y-27843748D01*
X4988511Y-27776404D01*
X4954839Y-27675389D01*
X4820152Y-27540702D01*
X4719137Y-27507030D01*
X4651793Y-27507030D01*
X4550778Y-27540702D01*
X4382419Y-27709061D01*
X4348748Y-27810076D01*
X4348748Y-27877419D01*
X4382419Y-27978435D01*
X4517106Y-28113122D01*
X4618122Y-28146793D01*
X4685465Y-28146793D01*
X4786480Y-28113122D01*
G04 #@! TO.C,C36*
X-5152106Y-40437969D02*
X-5219450Y-40437969D01*
X-5354137Y-40370625D01*
X-5421480Y-40303282D01*
X-5488824Y-40168595D01*
X-5488824Y-40033908D01*
X-5455152Y-39932893D01*
X-5354137Y-39764534D01*
X-5253122Y-39663519D01*
X-5084763Y-39562503D01*
X-4983748Y-39528832D01*
X-4849061Y-39528832D01*
X-4714374Y-39596175D01*
X-4647030Y-39663519D01*
X-4579687Y-39798206D01*
X-4579687Y-39865549D01*
X-4276641Y-40033908D02*
X-3838908Y-40471641D01*
X-4343984Y-40505312D01*
X-4242969Y-40606328D01*
X-4209297Y-40707343D01*
X-4209297Y-40774687D01*
X-4242969Y-40875702D01*
X-4411328Y-41044061D01*
X-4512343Y-41077732D01*
X-4579687Y-41077732D01*
X-4680702Y-41044061D01*
X-4882732Y-40842030D01*
X-4916404Y-40741015D01*
X-4916404Y-40673671D01*
X-3232816Y-41077732D02*
X-3367503Y-40943045D01*
X-3468519Y-40909374D01*
X-3535862Y-40909374D01*
X-3704221Y-40943045D01*
X-3872580Y-41044061D01*
X-4141954Y-41313435D01*
X-4175625Y-41414450D01*
X-4175625Y-41481793D01*
X-4141954Y-41582809D01*
X-4007267Y-41717496D01*
X-3906251Y-41751167D01*
X-3838908Y-41751167D01*
X-3737893Y-41717496D01*
X-3569534Y-41549137D01*
X-3535862Y-41448122D01*
X-3535862Y-41380778D01*
X-3569534Y-41279763D01*
X-3704221Y-41145076D01*
X-3805236Y-41111404D01*
X-3872580Y-41111404D01*
X-3973595Y-41145076D01*
G04 #@! TO.C,C23*
X4802142Y-38107857D02*
X4849761Y-38155476D01*
X4897380Y-38298333D01*
X4897380Y-38393571D01*
X4849761Y-38536428D01*
X4754523Y-38631666D01*
X4659285Y-38679285D01*
X4468809Y-38726904D01*
X4325952Y-38726904D01*
X4135476Y-38679285D01*
X4040238Y-38631666D01*
X3945000Y-38536428D01*
X3897380Y-38393571D01*
X3897380Y-38298333D01*
X3945000Y-38155476D01*
X3992619Y-38107857D01*
X3992619Y-37726904D02*
X3945000Y-37679285D01*
X3897380Y-37584047D01*
X3897380Y-37345952D01*
X3945000Y-37250714D01*
X3992619Y-37203095D01*
X4087857Y-37155476D01*
X4183095Y-37155476D01*
X4325952Y-37203095D01*
X4897380Y-37774523D01*
X4897380Y-37155476D01*
X3897380Y-36822142D02*
X3897380Y-36203095D01*
X4278333Y-36536428D01*
X4278333Y-36393571D01*
X4325952Y-36298333D01*
X4373571Y-36250714D01*
X4468809Y-36203095D01*
X4706904Y-36203095D01*
X4802142Y-36250714D01*
X4849761Y-36298333D01*
X4897380Y-36393571D01*
X4897380Y-36679285D01*
X4849761Y-36774523D01*
X4802142Y-36822142D01*
G04 #@! TO.C,C26*
X-4517106Y-26467969D02*
X-4584450Y-26467969D01*
X-4719137Y-26400625D01*
X-4786480Y-26333282D01*
X-4853824Y-26198595D01*
X-4853824Y-26063908D01*
X-4820152Y-25962893D01*
X-4719137Y-25794534D01*
X-4618122Y-25693519D01*
X-4449763Y-25592503D01*
X-4348748Y-25558832D01*
X-4214061Y-25558832D01*
X-4079374Y-25626175D01*
X-4012030Y-25693519D01*
X-3944687Y-25828206D01*
X-3944687Y-25895549D01*
X-3675312Y-26164923D02*
X-3607969Y-26164923D01*
X-3506954Y-26198595D01*
X-3338595Y-26366954D01*
X-3304923Y-26467969D01*
X-3304923Y-26535312D01*
X-3338595Y-26636328D01*
X-3405938Y-26703671D01*
X-3540625Y-26771015D01*
X-4348748Y-26771015D01*
X-3911015Y-27208748D01*
X-2597816Y-27107732D02*
X-2732503Y-26973045D01*
X-2833519Y-26939374D01*
X-2900862Y-26939374D01*
X-3069221Y-26973045D01*
X-3237580Y-27074061D01*
X-3506954Y-27343435D01*
X-3540625Y-27444450D01*
X-3540625Y-27511793D01*
X-3506954Y-27612809D01*
X-3372267Y-27747496D01*
X-3271251Y-27781167D01*
X-3203908Y-27781167D01*
X-3102893Y-27747496D01*
X-2934534Y-27579137D01*
X-2900862Y-27478122D01*
X-2900862Y-27410778D01*
X-2934534Y-27309763D01*
X-3069221Y-27175076D01*
X-3170236Y-27141404D01*
X-3237580Y-27141404D01*
X-3338595Y-27175076D01*
G04 #@! TO.C,C37*
X-7057106Y-42342969D02*
X-7124450Y-42342969D01*
X-7259137Y-42275625D01*
X-7326480Y-42208282D01*
X-7393824Y-42073595D01*
X-7393824Y-41938908D01*
X-7360152Y-41837893D01*
X-7259137Y-41669534D01*
X-7158122Y-41568519D01*
X-6989763Y-41467503D01*
X-6888748Y-41433832D01*
X-6754061Y-41433832D01*
X-6619374Y-41501175D01*
X-6552030Y-41568519D01*
X-6484687Y-41703206D01*
X-6484687Y-41770549D01*
X-6181641Y-41938908D02*
X-5743908Y-42376641D01*
X-6248984Y-42410312D01*
X-6147969Y-42511328D01*
X-6114297Y-42612343D01*
X-6114297Y-42679687D01*
X-6147969Y-42780702D01*
X-6316328Y-42949061D01*
X-6417343Y-42982732D01*
X-6484687Y-42982732D01*
X-6585702Y-42949061D01*
X-6787732Y-42747030D01*
X-6821404Y-42646015D01*
X-6821404Y-42578671D01*
X-5508206Y-42612343D02*
X-5036801Y-43083748D01*
X-6046954Y-43487809D01*
G04 #@! TO.C,C28*
X1832893Y-27737968D02*
X1765549Y-27737968D01*
X1630862Y-27670624D01*
X1563519Y-27603281D01*
X1496175Y-27468594D01*
X1496175Y-27333907D01*
X1529847Y-27232892D01*
X1630862Y-27064533D01*
X1731877Y-26963518D01*
X1900236Y-26862502D01*
X2001251Y-26828831D01*
X2135938Y-26828831D01*
X2270625Y-26896174D01*
X2337969Y-26963518D01*
X2405312Y-27098205D01*
X2405312Y-27165548D01*
X2674687Y-27434922D02*
X2742030Y-27434922D01*
X2843045Y-27468594D01*
X3011404Y-27636953D01*
X3045076Y-27737968D01*
X3045076Y-27805311D01*
X3011404Y-27906327D01*
X2944061Y-27973670D01*
X2809374Y-28041014D01*
X2001251Y-28041014D01*
X2438984Y-28478747D01*
X3247106Y-28478747D02*
X3213435Y-28377731D01*
X3213435Y-28310388D01*
X3247106Y-28209373D01*
X3280778Y-28175701D01*
X3381793Y-28142029D01*
X3449137Y-28142029D01*
X3550152Y-28175701D01*
X3684839Y-28310388D01*
X3718511Y-28411403D01*
X3718511Y-28478747D01*
X3684839Y-28579762D01*
X3651167Y-28613434D01*
X3550152Y-28647105D01*
X3482809Y-28647105D01*
X3381793Y-28613434D01*
X3247106Y-28478747D01*
X3146091Y-28445075D01*
X3078748Y-28445075D01*
X2977732Y-28478747D01*
X2843045Y-28613434D01*
X2809374Y-28714449D01*
X2809374Y-28781792D01*
X2843045Y-28882808D01*
X2977732Y-29017495D01*
X3078748Y-29051166D01*
X3146091Y-29051166D01*
X3247106Y-29017495D01*
X3381793Y-28882808D01*
X3415465Y-28781792D01*
X3415465Y-28714449D01*
X3381793Y-28613434D01*
G04 #@! TO.C,C35*
X-10867107Y-40437969D02*
X-10934451Y-40437969D01*
X-11069138Y-40370625D01*
X-11136481Y-40303282D01*
X-11203825Y-40168595D01*
X-11203825Y-40033908D01*
X-11170153Y-39932893D01*
X-11069138Y-39764534D01*
X-10968123Y-39663519D01*
X-10799764Y-39562503D01*
X-10698749Y-39528832D01*
X-10564062Y-39528832D01*
X-10429375Y-39596175D01*
X-10362031Y-39663519D01*
X-10294688Y-39798206D01*
X-10294688Y-39865549D01*
X-9991642Y-40033908D02*
X-9553909Y-40471641D01*
X-10058985Y-40505312D01*
X-9957970Y-40606328D01*
X-9924298Y-40707343D01*
X-9924298Y-40774687D01*
X-9957970Y-40875702D01*
X-10126329Y-41044061D01*
X-10227344Y-41077732D01*
X-10294688Y-41077732D01*
X-10395703Y-41044061D01*
X-10597733Y-40842030D01*
X-10631405Y-40741015D01*
X-10631405Y-40673671D01*
X-8914146Y-41111404D02*
X-9250863Y-40774687D01*
X-9621252Y-41077732D01*
X-9553909Y-41077732D01*
X-9452894Y-41111404D01*
X-9284535Y-41279763D01*
X-9250863Y-41380778D01*
X-9250863Y-41448122D01*
X-9284535Y-41549137D01*
X-9452894Y-41717496D01*
X-9553909Y-41751167D01*
X-9621252Y-41751167D01*
X-9722268Y-41717496D01*
X-9890626Y-41549137D01*
X-9924298Y-41448122D01*
X-9924298Y-41380778D01*
G04 #@! TO.C,C25*
X4802142Y-35567857D02*
X4849761Y-35615476D01*
X4897380Y-35758333D01*
X4897380Y-35853571D01*
X4849761Y-35996428D01*
X4754523Y-36091666D01*
X4659285Y-36139285D01*
X4468809Y-36186904D01*
X4325952Y-36186904D01*
X4135476Y-36139285D01*
X4040238Y-36091666D01*
X3945000Y-35996428D01*
X3897380Y-35853571D01*
X3897380Y-35758333D01*
X3945000Y-35615476D01*
X3992619Y-35567857D01*
X3992619Y-35186904D02*
X3945000Y-35139285D01*
X3897380Y-35044047D01*
X3897380Y-34805952D01*
X3945000Y-34710714D01*
X3992619Y-34663095D01*
X4087857Y-34615476D01*
X4183095Y-34615476D01*
X4325952Y-34663095D01*
X4897380Y-35234523D01*
X4897380Y-34615476D01*
X3897380Y-33710714D02*
X3897380Y-34186904D01*
X4373571Y-34234523D01*
X4325952Y-34186904D01*
X4278333Y-34091666D01*
X4278333Y-33853571D01*
X4325952Y-33758333D01*
X4373571Y-33710714D01*
X4468809Y-33663095D01*
X4706904Y-33663095D01*
X4802142Y-33710714D01*
X4849761Y-33758333D01*
X4897380Y-33853571D01*
X4897380Y-34091666D01*
X4849761Y-34186904D01*
X4802142Y-34234523D01*
G04 #@! TO.C,C22*
X3532142Y-38107857D02*
X3579761Y-38155476D01*
X3627380Y-38298333D01*
X3627380Y-38393571D01*
X3579761Y-38536428D01*
X3484523Y-38631666D01*
X3389285Y-38679285D01*
X3198809Y-38726904D01*
X3055952Y-38726904D01*
X2865476Y-38679285D01*
X2770238Y-38631666D01*
X2675000Y-38536428D01*
X2627380Y-38393571D01*
X2627380Y-38298333D01*
X2675000Y-38155476D01*
X2722619Y-38107857D01*
X2722619Y-37726904D02*
X2675000Y-37679285D01*
X2627380Y-37584047D01*
X2627380Y-37345952D01*
X2675000Y-37250714D01*
X2722619Y-37203095D01*
X2817857Y-37155476D01*
X2913095Y-37155476D01*
X3055952Y-37203095D01*
X3627380Y-37774523D01*
X3627380Y-37155476D01*
X2722619Y-36774523D02*
X2675000Y-36726904D01*
X2627380Y-36631666D01*
X2627380Y-36393571D01*
X2675000Y-36298333D01*
X2722619Y-36250714D01*
X2817857Y-36203095D01*
X2913095Y-36203095D01*
X3055952Y-36250714D01*
X3627380Y-36822142D01*
X3627380Y-36203095D01*
G04 #@! TO.C,C30*
X-7897857Y-35567857D02*
X-7850238Y-35615476D01*
X-7802619Y-35758333D01*
X-7802619Y-35853571D01*
X-7850238Y-35996428D01*
X-7945476Y-36091666D01*
X-8040714Y-36139285D01*
X-8231190Y-36186904D01*
X-8374047Y-36186904D01*
X-8564523Y-36139285D01*
X-8659761Y-36091666D01*
X-8755000Y-35996428D01*
X-8802619Y-35853571D01*
X-8802619Y-35758333D01*
X-8755000Y-35615476D01*
X-8707380Y-35567857D01*
X-8802619Y-35234523D02*
X-8802619Y-34615476D01*
X-8421666Y-34948809D01*
X-8421666Y-34805952D01*
X-8374047Y-34710714D01*
X-8326428Y-34663095D01*
X-8231190Y-34615476D01*
X-7993095Y-34615476D01*
X-7897857Y-34663095D01*
X-7850238Y-34710714D01*
X-7802619Y-34805952D01*
X-7802619Y-35091666D01*
X-7850238Y-35186904D01*
X-7897857Y-35234523D01*
X-8802619Y-33996428D02*
X-8802619Y-33901190D01*
X-8755000Y-33805952D01*
X-8707380Y-33758333D01*
X-8612142Y-33710714D01*
X-8421666Y-33663095D01*
X-8183571Y-33663095D01*
X-7993095Y-33710714D01*
X-7897857Y-33758333D01*
X-7850238Y-33805952D01*
X-7802619Y-33901190D01*
X-7802619Y-33996428D01*
X-7850238Y-34091666D01*
X-7897857Y-34139285D01*
X-7993095Y-34186904D01*
X-8183571Y-34234523D01*
X-8421666Y-34234523D01*
X-8612142Y-34186904D01*
X-8707380Y-34139285D01*
X-8755000Y-34091666D01*
X-8802619Y-33996428D01*
G04 #@! TO.C,C24*
X3532142Y-35567857D02*
X3579761Y-35615476D01*
X3627380Y-35758333D01*
X3627380Y-35853571D01*
X3579761Y-35996428D01*
X3484523Y-36091666D01*
X3389285Y-36139285D01*
X3198809Y-36186904D01*
X3055952Y-36186904D01*
X2865476Y-36139285D01*
X2770238Y-36091666D01*
X2675000Y-35996428D01*
X2627380Y-35853571D01*
X2627380Y-35758333D01*
X2675000Y-35615476D01*
X2722619Y-35567857D01*
X2722619Y-35186904D02*
X2675000Y-35139285D01*
X2627380Y-35044047D01*
X2627380Y-34805952D01*
X2675000Y-34710714D01*
X2722619Y-34663095D01*
X2817857Y-34615476D01*
X2913095Y-34615476D01*
X3055952Y-34663095D01*
X3627380Y-35234523D01*
X3627380Y-34615476D01*
X2960714Y-33758333D02*
X3627380Y-33758333D01*
X2579761Y-33996428D02*
X3294047Y-34234523D01*
X3294047Y-33615476D01*
G04 #@! TO.C,C41*
X3802142Y-42267142D02*
X3754523Y-42314761D01*
X3611666Y-42362380D01*
X3516428Y-42362380D01*
X3373571Y-42314761D01*
X3278333Y-42219523D01*
X3230714Y-42124285D01*
X3183095Y-41933809D01*
X3183095Y-41790952D01*
X3230714Y-41600476D01*
X3278333Y-41505238D01*
X3373571Y-41410000D01*
X3516428Y-41362380D01*
X3611666Y-41362380D01*
X3754523Y-41410000D01*
X3802142Y-41457619D01*
X4659285Y-41695714D02*
X4659285Y-42362380D01*
X4421190Y-41314761D02*
X4183095Y-42029047D01*
X4802142Y-42029047D01*
X5706904Y-42362380D02*
X5135476Y-42362380D01*
X5421190Y-42362380D02*
X5421190Y-41362380D01*
X5325952Y-41505238D01*
X5230714Y-41600476D01*
X5135476Y-41648095D01*
G04 #@! TO.C,C73*
X34282142Y-4802142D02*
X34234523Y-4849761D01*
X34091666Y-4897380D01*
X33996428Y-4897380D01*
X33853571Y-4849761D01*
X33758333Y-4754523D01*
X33710714Y-4659285D01*
X33663095Y-4468809D01*
X33663095Y-4325952D01*
X33710714Y-4135476D01*
X33758333Y-4040238D01*
X33853571Y-3945000D01*
X33996428Y-3897380D01*
X34091666Y-3897380D01*
X34234523Y-3945000D01*
X34282142Y-3992619D01*
X34615476Y-3897380D02*
X35282142Y-3897380D01*
X34853571Y-4897380D01*
X35567857Y-3897380D02*
X36186904Y-3897380D01*
X35853571Y-4278333D01*
X35996428Y-4278333D01*
X36091666Y-4325952D01*
X36139285Y-4373571D01*
X36186904Y-4468809D01*
X36186904Y-4706904D01*
X36139285Y-4802142D01*
X36091666Y-4849761D01*
X35996428Y-4897380D01*
X35710714Y-4897380D01*
X35615476Y-4849761D01*
X35567857Y-4802142D01*
G04 #@! TO.C,C79*
X42342969Y-1977106D02*
X42342969Y-2044450D01*
X42275625Y-2179137D01*
X42208282Y-2246480D01*
X42073595Y-2313824D01*
X41938908Y-2313824D01*
X41837893Y-2280152D01*
X41669534Y-2179137D01*
X41568519Y-2078122D01*
X41467503Y-1909763D01*
X41433832Y-1808748D01*
X41433832Y-1674061D01*
X41501175Y-1539374D01*
X41568519Y-1472030D01*
X41703206Y-1404687D01*
X41770549Y-1404687D01*
X41938908Y-1101641D02*
X42410312Y-630236D01*
X42814374Y-1640389D01*
X43420465Y-1034297D02*
X43555152Y-899610D01*
X43588824Y-798595D01*
X43588824Y-731251D01*
X43555152Y-562893D01*
X43454137Y-394534D01*
X43184763Y-125160D01*
X43083748Y-91488D01*
X43016404Y-91488D01*
X42915389Y-125160D01*
X42780702Y-259847D01*
X42747030Y-360862D01*
X42747030Y-428206D01*
X42780702Y-529221D01*
X42949061Y-697580D01*
X43050076Y-731251D01*
X43117419Y-731251D01*
X43218435Y-697580D01*
X43353122Y-562893D01*
X43386793Y-461877D01*
X43386793Y-394534D01*
X43353122Y-293519D01*
G04 #@! TO.C,C67*
X34282142Y9167857D02*
X34234523Y9120238D01*
X34091666Y9072619D01*
X33996428Y9072619D01*
X33853571Y9120238D01*
X33758333Y9215476D01*
X33710714Y9310714D01*
X33663095Y9501190D01*
X33663095Y9644047D01*
X33710714Y9834523D01*
X33758333Y9929761D01*
X33853571Y10025000D01*
X33996428Y10072619D01*
X34091666Y10072619D01*
X34234523Y10025000D01*
X34282142Y9977380D01*
X35139285Y10072619D02*
X34948809Y10072619D01*
X34853571Y10025000D01*
X34805952Y9977380D01*
X34710714Y9834523D01*
X34663095Y9644047D01*
X34663095Y9263095D01*
X34710714Y9167857D01*
X34758333Y9120238D01*
X34853571Y9072619D01*
X35044047Y9072619D01*
X35139285Y9120238D01*
X35186904Y9167857D01*
X35234523Y9263095D01*
X35234523Y9501190D01*
X35186904Y9596428D01*
X35139285Y9644047D01*
X35044047Y9691666D01*
X34853571Y9691666D01*
X34758333Y9644047D01*
X34710714Y9596428D01*
X34663095Y9501190D01*
X35567857Y10072619D02*
X36234523Y10072619D01*
X35805952Y9072619D01*
G04 #@! TO.C,C76*
X41707969Y-6422106D02*
X41707969Y-6489450D01*
X41640625Y-6624137D01*
X41573282Y-6691480D01*
X41438595Y-6758824D01*
X41303908Y-6758824D01*
X41202893Y-6725152D01*
X41034534Y-6624137D01*
X40933519Y-6523122D01*
X40832503Y-6354763D01*
X40798832Y-6253748D01*
X40798832Y-6119061D01*
X40866175Y-5984374D01*
X40933519Y-5917030D01*
X41068206Y-5849687D01*
X41135549Y-5849687D01*
X41303908Y-5546641D02*
X41775312Y-5075236D01*
X42179374Y-6085389D01*
X42347732Y-4502816D02*
X42213045Y-4637503D01*
X42179374Y-4738519D01*
X42179374Y-4805862D01*
X42213045Y-4974221D01*
X42314061Y-5142580D01*
X42583435Y-5411954D01*
X42684450Y-5445625D01*
X42751793Y-5445625D01*
X42852809Y-5411954D01*
X42987496Y-5277267D01*
X43021167Y-5176251D01*
X43021167Y-5108908D01*
X42987496Y-5007893D01*
X42819137Y-4839534D01*
X42718122Y-4805862D01*
X42650778Y-4805862D01*
X42549763Y-4839534D01*
X42415076Y-4974221D01*
X42381404Y-5075236D01*
X42381404Y-5142580D01*
X42415076Y-5243595D01*
G04 #@! TO.C,C80*
X40997141Y6977142D02*
X41044760Y6929523D01*
X41092379Y6786666D01*
X41092379Y6691428D01*
X41044760Y6548571D01*
X40949522Y6453333D01*
X40854284Y6405714D01*
X40663808Y6358095D01*
X40520951Y6358095D01*
X40330475Y6405714D01*
X40235237Y6453333D01*
X40139999Y6548571D01*
X40092379Y6691428D01*
X40092379Y6786666D01*
X40139999Y6929523D01*
X40187618Y6977142D01*
X40520951Y7548571D02*
X40473332Y7453333D01*
X40425713Y7405714D01*
X40330475Y7358095D01*
X40282856Y7358095D01*
X40187618Y7405714D01*
X40139999Y7453333D01*
X40092379Y7548571D01*
X40092379Y7739047D01*
X40139999Y7834285D01*
X40187618Y7881904D01*
X40282856Y7929523D01*
X40330475Y7929523D01*
X40425713Y7881904D01*
X40473332Y7834285D01*
X40520951Y7739047D01*
X40520951Y7548571D01*
X40568570Y7453333D01*
X40616189Y7405714D01*
X40711427Y7358095D01*
X40901903Y7358095D01*
X40997141Y7405714D01*
X41044760Y7453333D01*
X41092379Y7548571D01*
X41092379Y7739047D01*
X41044760Y7834285D01*
X40997141Y7881904D01*
X40901903Y7929523D01*
X40711427Y7929523D01*
X40616189Y7881904D01*
X40568570Y7834285D01*
X40520951Y7739047D01*
X40092379Y8548571D02*
X40092379Y8643809D01*
X40139999Y8739047D01*
X40187618Y8786666D01*
X40282856Y8834285D01*
X40473332Y8881904D01*
X40711427Y8881904D01*
X40901903Y8834285D01*
X40997141Y8786666D01*
X41044760Y8739047D01*
X41092379Y8643809D01*
X41092379Y8548571D01*
X41044760Y8453333D01*
X40997141Y8405714D01*
X40901903Y8358095D01*
X40711427Y8310476D01*
X40473332Y8310476D01*
X40282856Y8358095D01*
X40187618Y8405714D01*
X40139999Y8453333D01*
X40092379Y8548571D01*
G04 #@! TO.C,C71*
X27102969Y8182893D02*
X27102969Y8115549D01*
X27035625Y7980862D01*
X26968282Y7913519D01*
X26833595Y7846175D01*
X26698908Y7846175D01*
X26597893Y7879847D01*
X26429534Y7980862D01*
X26328519Y8081877D01*
X26227503Y8250236D01*
X26193832Y8351251D01*
X26193832Y8485938D01*
X26261175Y8620625D01*
X26328519Y8687969D01*
X26463206Y8755312D01*
X26530549Y8755312D01*
X26698908Y9058358D02*
X27170312Y9529763D01*
X27574374Y8519610D01*
X28517183Y9462419D02*
X28113122Y9058358D01*
X28315152Y9260389D02*
X27608045Y9967496D01*
X27641717Y9799137D01*
X27641717Y9664450D01*
X27608045Y9563435D01*
G04 #@! TO.C,C65*
X36822142Y9167857D02*
X36774523Y9120238D01*
X36631666Y9072619D01*
X36536428Y9072619D01*
X36393571Y9120238D01*
X36298333Y9215476D01*
X36250714Y9310714D01*
X36203095Y9501190D01*
X36203095Y9644047D01*
X36250714Y9834523D01*
X36298333Y9929761D01*
X36393571Y10025000D01*
X36536428Y10072619D01*
X36631666Y10072619D01*
X36774523Y10025000D01*
X36822142Y9977380D01*
X37679285Y10072619D02*
X37488809Y10072619D01*
X37393571Y10025000D01*
X37345952Y9977380D01*
X37250714Y9834523D01*
X37203095Y9644047D01*
X37203095Y9263095D01*
X37250714Y9167857D01*
X37298333Y9120238D01*
X37393571Y9072619D01*
X37584047Y9072619D01*
X37679285Y9120238D01*
X37726904Y9167857D01*
X37774523Y9263095D01*
X37774523Y9501190D01*
X37726904Y9596428D01*
X37679285Y9644047D01*
X37584047Y9691666D01*
X37393571Y9691666D01*
X37298333Y9644047D01*
X37250714Y9596428D01*
X37203095Y9501190D01*
X38679285Y10072619D02*
X38203095Y10072619D01*
X38155476Y9596428D01*
X38203095Y9644047D01*
X38298333Y9691666D01*
X38536428Y9691666D01*
X38631666Y9644047D01*
X38679285Y9596428D01*
X38726904Y9501190D01*
X38726904Y9263095D01*
X38679285Y9167857D01*
X38631666Y9120238D01*
X38536428Y9072619D01*
X38298333Y9072619D01*
X38203095Y9120238D01*
X38155476Y9167857D01*
G04 #@! TO.C,C78*
X40437969Y-72106D02*
X40437969Y-139450D01*
X40370625Y-274137D01*
X40303282Y-341480D01*
X40168595Y-408824D01*
X40033908Y-408824D01*
X39932893Y-375152D01*
X39764534Y-274137D01*
X39663519Y-173122D01*
X39562503Y-4763D01*
X39528832Y96251D01*
X39528832Y230938D01*
X39596175Y365625D01*
X39663519Y432969D01*
X39798206Y500312D01*
X39865549Y500312D01*
X40033908Y803358D02*
X40505312Y1274763D01*
X40909374Y264610D01*
X41178748Y1342106D02*
X41077732Y1308435D01*
X41010389Y1308435D01*
X40909374Y1342106D01*
X40875702Y1375778D01*
X40842030Y1476793D01*
X40842030Y1544137D01*
X40875702Y1645152D01*
X41010389Y1779839D01*
X41111404Y1813511D01*
X41178748Y1813511D01*
X41279763Y1779839D01*
X41313435Y1746167D01*
X41347106Y1645152D01*
X41347106Y1577809D01*
X41313435Y1476793D01*
X41178748Y1342106D01*
X41145076Y1241091D01*
X41145076Y1173748D01*
X41178748Y1072732D01*
X41313435Y938045D01*
X41414450Y904374D01*
X41481793Y904374D01*
X41582809Y938045D01*
X41717496Y1072732D01*
X41751167Y1173748D01*
X41751167Y1241091D01*
X41717496Y1342106D01*
X41582809Y1476793D01*
X41481793Y1510465D01*
X41414450Y1510465D01*
X41313435Y1476793D01*
G04 #@! TO.C,C83*
X42267142Y8882142D02*
X42314761Y8834523D01*
X42362380Y8691666D01*
X42362380Y8596428D01*
X42314761Y8453571D01*
X42219523Y8358333D01*
X42124285Y8310714D01*
X41933809Y8263095D01*
X41790952Y8263095D01*
X41600476Y8310714D01*
X41505238Y8358333D01*
X41410000Y8453571D01*
X41362380Y8596428D01*
X41362380Y8691666D01*
X41410000Y8834523D01*
X41457619Y8882142D01*
X41790952Y9453571D02*
X41743333Y9358333D01*
X41695714Y9310714D01*
X41600476Y9263095D01*
X41552857Y9263095D01*
X41457619Y9310714D01*
X41410000Y9358333D01*
X41362380Y9453571D01*
X41362380Y9644047D01*
X41410000Y9739285D01*
X41457619Y9786904D01*
X41552857Y9834523D01*
X41600476Y9834523D01*
X41695714Y9786904D01*
X41743333Y9739285D01*
X41790952Y9644047D01*
X41790952Y9453571D01*
X41838571Y9358333D01*
X41886190Y9310714D01*
X41981428Y9263095D01*
X42171904Y9263095D01*
X42267142Y9310714D01*
X42314761Y9358333D01*
X42362380Y9453571D01*
X42362380Y9644047D01*
X42314761Y9739285D01*
X42267142Y9786904D01*
X42171904Y9834523D01*
X41981428Y9834523D01*
X41886190Y9786904D01*
X41838571Y9739285D01*
X41790952Y9644047D01*
X41362380Y10167857D02*
X41362380Y10786904D01*
X41743333Y10453571D01*
X41743333Y10596428D01*
X41790952Y10691666D01*
X41838571Y10739285D01*
X41933809Y10786904D01*
X42171904Y10786904D01*
X42267142Y10739285D01*
X42314761Y10691666D01*
X42362380Y10596428D01*
X42362380Y10310714D01*
X42314761Y10215476D01*
X42267142Y10167857D01*
G04 #@! TO.C,C82*
X44172142Y1897142D02*
X44219761Y1849523D01*
X44267380Y1706666D01*
X44267380Y1611428D01*
X44219761Y1468571D01*
X44124523Y1373333D01*
X44029285Y1325714D01*
X43838809Y1278095D01*
X43695952Y1278095D01*
X43505476Y1325714D01*
X43410238Y1373333D01*
X43315000Y1468571D01*
X43267380Y1611428D01*
X43267380Y1706666D01*
X43315000Y1849523D01*
X43362619Y1897142D01*
X43695952Y2468571D02*
X43648333Y2373333D01*
X43600714Y2325714D01*
X43505476Y2278095D01*
X43457857Y2278095D01*
X43362619Y2325714D01*
X43315000Y2373333D01*
X43267380Y2468571D01*
X43267380Y2659047D01*
X43315000Y2754285D01*
X43362619Y2801904D01*
X43457857Y2849523D01*
X43505476Y2849523D01*
X43600714Y2801904D01*
X43648333Y2754285D01*
X43695952Y2659047D01*
X43695952Y2468571D01*
X43743571Y2373333D01*
X43791190Y2325714D01*
X43886428Y2278095D01*
X44076904Y2278095D01*
X44172142Y2325714D01*
X44219761Y2373333D01*
X44267380Y2468571D01*
X44267380Y2659047D01*
X44219761Y2754285D01*
X44172142Y2801904D01*
X44076904Y2849523D01*
X43886428Y2849523D01*
X43791190Y2801904D01*
X43743571Y2754285D01*
X43695952Y2659047D01*
X43362619Y3230476D02*
X43315000Y3278095D01*
X43267380Y3373333D01*
X43267380Y3611428D01*
X43315000Y3706666D01*
X43362619Y3754285D01*
X43457857Y3801904D01*
X43553095Y3801904D01*
X43695952Y3754285D01*
X44267380Y3182857D01*
X44267380Y3801904D01*
G04 #@! TO.C,C69*
X25197969Y1197893D02*
X25197969Y1130549D01*
X25130625Y995862D01*
X25063282Y928519D01*
X24928595Y861175D01*
X24793908Y861175D01*
X24692893Y894847D01*
X24524534Y995862D01*
X24423519Y1096877D01*
X24322503Y1265236D01*
X24288832Y1366251D01*
X24288832Y1500938D01*
X24356175Y1635625D01*
X24423519Y1702969D01*
X24558206Y1770312D01*
X24625549Y1770312D01*
X25164297Y2443748D02*
X25029610Y2309061D01*
X24995938Y2208045D01*
X24995938Y2140702D01*
X25029610Y1972343D01*
X25130625Y1803984D01*
X25400000Y1534610D01*
X25501015Y1500938D01*
X25568358Y1500938D01*
X25669374Y1534610D01*
X25804061Y1669297D01*
X25837732Y1770312D01*
X25837732Y1837656D01*
X25804061Y1938671D01*
X25635702Y2107030D01*
X25534687Y2140702D01*
X25467343Y2140702D01*
X25366328Y2107030D01*
X25231641Y1972343D01*
X25197969Y1871328D01*
X25197969Y1803984D01*
X25231641Y1702969D01*
X26275465Y2140702D02*
X26410152Y2275389D01*
X26443824Y2376404D01*
X26443824Y2443748D01*
X26410152Y2612106D01*
X26309137Y2780465D01*
X26039763Y3049839D01*
X25938748Y3083511D01*
X25871404Y3083511D01*
X25770389Y3049839D01*
X25635702Y2915152D01*
X25602030Y2814137D01*
X25602030Y2746793D01*
X25635702Y2645778D01*
X25804061Y2477419D01*
X25905076Y2443748D01*
X25972419Y2443748D01*
X26073435Y2477419D01*
X26208122Y2612106D01*
X26241793Y2713122D01*
X26241793Y2780465D01*
X26208122Y2881480D01*
G04 #@! TO.C,C84*
X43537142Y8882142D02*
X43584761Y8834523D01*
X43632380Y8691666D01*
X43632380Y8596428D01*
X43584761Y8453571D01*
X43489523Y8358333D01*
X43394285Y8310714D01*
X43203809Y8263095D01*
X43060952Y8263095D01*
X42870476Y8310714D01*
X42775238Y8358333D01*
X42680000Y8453571D01*
X42632380Y8596428D01*
X42632380Y8691666D01*
X42680000Y8834523D01*
X42727619Y8882142D01*
X43060952Y9453571D02*
X43013333Y9358333D01*
X42965714Y9310714D01*
X42870476Y9263095D01*
X42822857Y9263095D01*
X42727619Y9310714D01*
X42680000Y9358333D01*
X42632380Y9453571D01*
X42632380Y9644047D01*
X42680000Y9739285D01*
X42727619Y9786904D01*
X42822857Y9834523D01*
X42870476Y9834523D01*
X42965714Y9786904D01*
X43013333Y9739285D01*
X43060952Y9644047D01*
X43060952Y9453571D01*
X43108571Y9358333D01*
X43156190Y9310714D01*
X43251428Y9263095D01*
X43441904Y9263095D01*
X43537142Y9310714D01*
X43584761Y9358333D01*
X43632380Y9453571D01*
X43632380Y9644047D01*
X43584761Y9739285D01*
X43537142Y9786904D01*
X43441904Y9834523D01*
X43251428Y9834523D01*
X43156190Y9786904D01*
X43108571Y9739285D01*
X43060952Y9644047D01*
X42965714Y10691666D02*
X43632380Y10691666D01*
X42584761Y10453571D02*
X43299047Y10215476D01*
X43299047Y10834523D01*
G04 #@! TO.C,C68*
X26467969Y562893D02*
X26467969Y495549D01*
X26400625Y360862D01*
X26333282Y293519D01*
X26198595Y226175D01*
X26063908Y226175D01*
X25962893Y259847D01*
X25794534Y360862D01*
X25693519Y461877D01*
X25592503Y630236D01*
X25558832Y731251D01*
X25558832Y865938D01*
X25626175Y1000625D01*
X25693519Y1067969D01*
X25828206Y1135312D01*
X25895549Y1135312D01*
X26434297Y1808748D02*
X26299610Y1674061D01*
X26265938Y1573045D01*
X26265938Y1505702D01*
X26299610Y1337343D01*
X26400625Y1168984D01*
X26670000Y899610D01*
X26771015Y865938D01*
X26838358Y865938D01*
X26939374Y899610D01*
X27074061Y1034297D01*
X27107732Y1135312D01*
X27107732Y1202656D01*
X27074061Y1303671D01*
X26905702Y1472030D01*
X26804687Y1505702D01*
X26737343Y1505702D01*
X26636328Y1472030D01*
X26501641Y1337343D01*
X26467969Y1236328D01*
X26467969Y1168984D01*
X26501641Y1067969D01*
X27208748Y1977106D02*
X27107732Y1943435D01*
X27040389Y1943435D01*
X26939374Y1977106D01*
X26905702Y2010778D01*
X26872030Y2111793D01*
X26872030Y2179137D01*
X26905702Y2280152D01*
X27040389Y2414839D01*
X27141404Y2448511D01*
X27208748Y2448511D01*
X27309763Y2414839D01*
X27343435Y2381167D01*
X27377106Y2280152D01*
X27377106Y2212809D01*
X27343435Y2111793D01*
X27208748Y1977106D01*
X27175076Y1876091D01*
X27175076Y1808748D01*
X27208748Y1707732D01*
X27343435Y1573045D01*
X27444450Y1539374D01*
X27511793Y1539374D01*
X27612809Y1573045D01*
X27747496Y1707732D01*
X27781167Y1808748D01*
X27781167Y1876091D01*
X27747496Y1977106D01*
X27612809Y2111793D01*
X27511793Y2145465D01*
X27444450Y2145465D01*
X27343435Y2111793D01*
G04 #@! TO.C,C77*
X40437969Y-5787107D02*
X40437969Y-5854451D01*
X40370625Y-5989138D01*
X40303282Y-6056481D01*
X40168595Y-6123825D01*
X40033908Y-6123825D01*
X39932893Y-6090153D01*
X39764534Y-5989138D01*
X39663519Y-5888123D01*
X39562503Y-5719764D01*
X39528832Y-5618749D01*
X39528832Y-5484062D01*
X39596175Y-5349375D01*
X39663519Y-5282031D01*
X39798206Y-5214688D01*
X39865549Y-5214688D01*
X40033908Y-4911642D02*
X40505312Y-4440237D01*
X40909374Y-5450390D01*
X40707343Y-4238207D02*
X41178748Y-3766802D01*
X41582809Y-4776955D01*
G04 #@! TO.C,C81*
X42902142Y627142D02*
X42949761Y579523D01*
X42997380Y436666D01*
X42997380Y341428D01*
X42949761Y198571D01*
X42854523Y103333D01*
X42759285Y55714D01*
X42568809Y8095D01*
X42425952Y8095D01*
X42235476Y55714D01*
X42140238Y103333D01*
X42045000Y198571D01*
X41997380Y341428D01*
X41997380Y436666D01*
X42045000Y579523D01*
X42092619Y627142D01*
X42425952Y1198571D02*
X42378333Y1103333D01*
X42330714Y1055714D01*
X42235476Y1008095D01*
X42187857Y1008095D01*
X42092619Y1055714D01*
X42045000Y1103333D01*
X41997380Y1198571D01*
X41997380Y1389047D01*
X42045000Y1484285D01*
X42092619Y1531904D01*
X42187857Y1579523D01*
X42235476Y1579523D01*
X42330714Y1531904D01*
X42378333Y1484285D01*
X42425952Y1389047D01*
X42425952Y1198571D01*
X42473571Y1103333D01*
X42521190Y1055714D01*
X42616428Y1008095D01*
X42806904Y1008095D01*
X42902142Y1055714D01*
X42949761Y1103333D01*
X42997380Y1198571D01*
X42997380Y1389047D01*
X42949761Y1484285D01*
X42902142Y1531904D01*
X42806904Y1579523D01*
X42616428Y1579523D01*
X42521190Y1531904D01*
X42473571Y1484285D01*
X42425952Y1389047D01*
X42997380Y2531904D02*
X42997380Y1960476D01*
X42997380Y2246190D02*
X41997380Y2246190D01*
X42140238Y2150952D01*
X42235476Y2055714D01*
X42283095Y1960476D01*
G04 #@! TO.C,C74*
X37457142Y-3532142D02*
X37409523Y-3579761D01*
X37266666Y-3627380D01*
X37171428Y-3627380D01*
X37028571Y-3579761D01*
X36933333Y-3484523D01*
X36885714Y-3389285D01*
X36838095Y-3198809D01*
X36838095Y-3055952D01*
X36885714Y-2865476D01*
X36933333Y-2770238D01*
X37028571Y-2675000D01*
X37171428Y-2627380D01*
X37266666Y-2627380D01*
X37409523Y-2675000D01*
X37457142Y-2722619D01*
X37790476Y-2627380D02*
X38457142Y-2627380D01*
X38028571Y-3627380D01*
X39266666Y-2960714D02*
X39266666Y-3627380D01*
X39028571Y-2579761D02*
X38790476Y-3294047D01*
X39409523Y-3294047D01*
G04 #@! TO.C,C70*
X27737968Y6912893D02*
X27737968Y6845549D01*
X27670624Y6710862D01*
X27603281Y6643519D01*
X27468594Y6576175D01*
X27333907Y6576175D01*
X27232892Y6609847D01*
X27064533Y6710862D01*
X26963518Y6811877D01*
X26862502Y6980236D01*
X26828831Y7081251D01*
X26828831Y7215938D01*
X26896174Y7350625D01*
X26963518Y7417969D01*
X27098205Y7485312D01*
X27165548Y7485312D01*
X27333907Y7788358D02*
X27805311Y8259763D01*
X28209373Y7249610D01*
X28209373Y8663824D02*
X28276716Y8731167D01*
X28377731Y8764839D01*
X28445075Y8764839D01*
X28546090Y8731167D01*
X28714449Y8630152D01*
X28882808Y8461793D01*
X28983823Y8293435D01*
X29017495Y8192419D01*
X29017495Y8125076D01*
X28983823Y8024061D01*
X28916479Y7956717D01*
X28815464Y7923045D01*
X28748121Y7923045D01*
X28647105Y7956717D01*
X28478747Y8057732D01*
X28310388Y8226091D01*
X28209373Y8394450D01*
X28175701Y8495465D01*
X28175701Y8562809D01*
X28209373Y8663824D01*
G04 #@! TO.C,C72*
X34282142Y-3532142D02*
X34234523Y-3579761D01*
X34091666Y-3627380D01*
X33996428Y-3627380D01*
X33853571Y-3579761D01*
X33758333Y-3484523D01*
X33710714Y-3389285D01*
X33663095Y-3198809D01*
X33663095Y-3055952D01*
X33710714Y-2865476D01*
X33758333Y-2770238D01*
X33853571Y-2675000D01*
X33996428Y-2627380D01*
X34091666Y-2627380D01*
X34234523Y-2675000D01*
X34282142Y-2722619D01*
X34615476Y-2627380D02*
X35282142Y-2627380D01*
X34853571Y-3627380D01*
X35615476Y-2722619D02*
X35663095Y-2675000D01*
X35758333Y-2627380D01*
X35996428Y-2627380D01*
X36091666Y-2675000D01*
X36139285Y-2722619D01*
X36186904Y-2817857D01*
X36186904Y-2913095D01*
X36139285Y-3055952D01*
X35567857Y-3627380D01*
X36186904Y-3627380D01*
G04 #@! TO.C,C75*
X37457142Y-4802142D02*
X37409523Y-4849761D01*
X37266666Y-4897380D01*
X37171428Y-4897380D01*
X37028571Y-4849761D01*
X36933333Y-4754523D01*
X36885714Y-4659285D01*
X36838095Y-4468809D01*
X36838095Y-4325952D01*
X36885714Y-4135476D01*
X36933333Y-4040238D01*
X37028571Y-3945000D01*
X37171428Y-3897380D01*
X37266666Y-3897380D01*
X37409523Y-3945000D01*
X37457142Y-3992619D01*
X37790476Y-3897380D02*
X38457142Y-3897380D01*
X38028571Y-4897380D01*
X39314285Y-3897380D02*
X38838095Y-3897380D01*
X38790476Y-4373571D01*
X38838095Y-4325952D01*
X38933333Y-4278333D01*
X39171428Y-4278333D01*
X39266666Y-4325952D01*
X39314285Y-4373571D01*
X39361904Y-4468809D01*
X39361904Y-4706904D01*
X39314285Y-4802142D01*
X39266666Y-4849761D01*
X39171428Y-4897380D01*
X38933333Y-4897380D01*
X38838095Y-4849761D01*
X38790476Y-4802142D01*
G04 #@! TO.C,C66*
X34282142Y7897857D02*
X34234523Y7850238D01*
X34091666Y7802619D01*
X33996428Y7802619D01*
X33853571Y7850238D01*
X33758333Y7945476D01*
X33710714Y8040714D01*
X33663095Y8231190D01*
X33663095Y8374047D01*
X33710714Y8564523D01*
X33758333Y8659761D01*
X33853571Y8755000D01*
X33996428Y8802619D01*
X34091666Y8802619D01*
X34234523Y8755000D01*
X34282142Y8707380D01*
X35139285Y8802619D02*
X34948809Y8802619D01*
X34853571Y8755000D01*
X34805952Y8707380D01*
X34710714Y8564523D01*
X34663095Y8374047D01*
X34663095Y7993095D01*
X34710714Y7897857D01*
X34758333Y7850238D01*
X34853571Y7802619D01*
X35044047Y7802619D01*
X35139285Y7850238D01*
X35186904Y7897857D01*
X35234523Y7993095D01*
X35234523Y8231190D01*
X35186904Y8326428D01*
X35139285Y8374047D01*
X35044047Y8421666D01*
X34853571Y8421666D01*
X34758333Y8374047D01*
X34710714Y8326428D01*
X34663095Y8231190D01*
X36091666Y8802619D02*
X35901190Y8802619D01*
X35805952Y8755000D01*
X35758333Y8707380D01*
X35663095Y8564523D01*
X35615476Y8374047D01*
X35615476Y7993095D01*
X35663095Y7897857D01*
X35710714Y7850238D01*
X35805952Y7802619D01*
X35996428Y7802619D01*
X36091666Y7850238D01*
X36139285Y7897857D01*
X36186904Y7993095D01*
X36186904Y8231190D01*
X36139285Y8326428D01*
X36091666Y8374047D01*
X35996428Y8421666D01*
X35805952Y8421666D01*
X35710714Y8374047D01*
X35663095Y8326428D01*
X35615476Y8231190D01*
G04 #@! TO.C,C64*
X36822142Y7897857D02*
X36774523Y7850238D01*
X36631666Y7802619D01*
X36536428Y7802619D01*
X36393571Y7850238D01*
X36298333Y7945476D01*
X36250714Y8040714D01*
X36203095Y8231190D01*
X36203095Y8374047D01*
X36250714Y8564523D01*
X36298333Y8659761D01*
X36393571Y8755000D01*
X36536428Y8802619D01*
X36631666Y8802619D01*
X36774523Y8755000D01*
X36822142Y8707380D01*
X37679285Y8802619D02*
X37488809Y8802619D01*
X37393571Y8755000D01*
X37345952Y8707380D01*
X37250714Y8564523D01*
X37203095Y8374047D01*
X37203095Y7993095D01*
X37250714Y7897857D01*
X37298333Y7850238D01*
X37393571Y7802619D01*
X37584047Y7802619D01*
X37679285Y7850238D01*
X37726904Y7897857D01*
X37774523Y7993095D01*
X37774523Y8231190D01*
X37726904Y8326428D01*
X37679285Y8374047D01*
X37584047Y8421666D01*
X37393571Y8421666D01*
X37298333Y8374047D01*
X37250714Y8326428D01*
X37203095Y8231190D01*
X38631666Y8469285D02*
X38631666Y7802619D01*
X38393571Y8850238D02*
X38155476Y8135952D01*
X38774523Y8135952D01*
G04 #@! TO.C,C87*
X17772292Y-38457572D02*
X17724673Y-38505191D01*
X17581816Y-38552810D01*
X17486578Y-38552810D01*
X17343721Y-38505191D01*
X17248483Y-38409953D01*
X17200864Y-38314715D01*
X17153245Y-38124239D01*
X17153245Y-37981382D01*
X17200864Y-37790906D01*
X17248483Y-37695668D01*
X17343721Y-37600430D01*
X17486578Y-37552810D01*
X17581816Y-37552810D01*
X17724673Y-37600430D01*
X17772292Y-37648049D01*
X18343721Y-37981382D02*
X18248483Y-37933763D01*
X18200864Y-37886144D01*
X18153245Y-37790906D01*
X18153245Y-37743287D01*
X18200864Y-37648049D01*
X18248483Y-37600430D01*
X18343721Y-37552810D01*
X18534197Y-37552810D01*
X18629435Y-37600430D01*
X18677054Y-37648049D01*
X18724673Y-37743287D01*
X18724673Y-37790906D01*
X18677054Y-37886144D01*
X18629435Y-37933763D01*
X18534197Y-37981382D01*
X18343721Y-37981382D01*
X18248483Y-38029001D01*
X18200864Y-38076620D01*
X18153245Y-38171858D01*
X18153245Y-38362334D01*
X18200864Y-38457572D01*
X18248483Y-38505191D01*
X18343721Y-38552810D01*
X18534197Y-38552810D01*
X18629435Y-38505191D01*
X18677054Y-38457572D01*
X18724673Y-38362334D01*
X18724673Y-38171858D01*
X18677054Y-38076620D01*
X18629435Y-38029001D01*
X18534197Y-37981382D01*
X19058007Y-37552810D02*
X19724673Y-37552810D01*
X19296102Y-38552810D01*
G04 #@! TO.C,U6*
X22672530Y-41402334D02*
X23482054Y-41402334D01*
X23577292Y-41354715D01*
X23624911Y-41307096D01*
X23672530Y-41211858D01*
X23672530Y-41021382D01*
X23624911Y-40926144D01*
X23577292Y-40878525D01*
X23482054Y-40830906D01*
X22672530Y-40830906D01*
X22672530Y-39926144D02*
X22672530Y-40116620D01*
X22720150Y-40211858D01*
X22767769Y-40259477D01*
X22910626Y-40354715D01*
X23101102Y-40402334D01*
X23482054Y-40402334D01*
X23577292Y-40354715D01*
X23624911Y-40307096D01*
X23672530Y-40211858D01*
X23672530Y-40021382D01*
X23624911Y-39926144D01*
X23577292Y-39878525D01*
X23482054Y-39830906D01*
X23243959Y-39830906D01*
X23148721Y-39878525D01*
X23101102Y-39926144D01*
X23053483Y-40021382D01*
X23053483Y-40211858D01*
X23101102Y-40307096D01*
X23148721Y-40354715D01*
X23243959Y-40402334D01*
G04 #@! TO.C,C88*
X17772292Y-43537572D02*
X17724673Y-43585191D01*
X17581816Y-43632810D01*
X17486578Y-43632810D01*
X17343721Y-43585191D01*
X17248483Y-43489953D01*
X17200864Y-43394715D01*
X17153245Y-43204239D01*
X17153245Y-43061382D01*
X17200864Y-42870906D01*
X17248483Y-42775668D01*
X17343721Y-42680430D01*
X17486578Y-42632810D01*
X17581816Y-42632810D01*
X17724673Y-42680430D01*
X17772292Y-42728049D01*
X18343721Y-43061382D02*
X18248483Y-43013763D01*
X18200864Y-42966144D01*
X18153245Y-42870906D01*
X18153245Y-42823287D01*
X18200864Y-42728049D01*
X18248483Y-42680430D01*
X18343721Y-42632810D01*
X18534197Y-42632810D01*
X18629435Y-42680430D01*
X18677054Y-42728049D01*
X18724673Y-42823287D01*
X18724673Y-42870906D01*
X18677054Y-42966144D01*
X18629435Y-43013763D01*
X18534197Y-43061382D01*
X18343721Y-43061382D01*
X18248483Y-43109001D01*
X18200864Y-43156620D01*
X18153245Y-43251858D01*
X18153245Y-43442334D01*
X18200864Y-43537572D01*
X18248483Y-43585191D01*
X18343721Y-43632810D01*
X18534197Y-43632810D01*
X18629435Y-43585191D01*
X18677054Y-43537572D01*
X18724673Y-43442334D01*
X18724673Y-43251858D01*
X18677054Y-43156620D01*
X18629435Y-43109001D01*
X18534197Y-43061382D01*
X19296102Y-43061382D02*
X19200864Y-43013763D01*
X19153245Y-42966144D01*
X19105626Y-42870906D01*
X19105626Y-42823287D01*
X19153245Y-42728049D01*
X19200864Y-42680430D01*
X19296102Y-42632810D01*
X19486578Y-42632810D01*
X19581816Y-42680430D01*
X19629435Y-42728049D01*
X19677054Y-42823287D01*
X19677054Y-42870906D01*
X19629435Y-42966144D01*
X19581816Y-43013763D01*
X19486578Y-43061382D01*
X19296102Y-43061382D01*
X19200864Y-43109001D01*
X19153245Y-43156620D01*
X19105626Y-43251858D01*
X19105626Y-43442334D01*
X19153245Y-43537572D01*
X19200864Y-43585191D01*
X19296102Y-43632810D01*
X19486578Y-43632810D01*
X19581816Y-43585191D01*
X19629435Y-43537572D01*
X19677054Y-43442334D01*
X19677054Y-43251858D01*
X19629435Y-43156620D01*
X19581816Y-43109001D01*
X19486578Y-43061382D01*
G04 #@! TO.C,C52*
X34265636Y26947857D02*
X34218017Y26900238D01*
X34075160Y26852619D01*
X33979922Y26852619D01*
X33837065Y26900238D01*
X33741827Y26995476D01*
X33694208Y27090714D01*
X33646589Y27281190D01*
X33646589Y27424047D01*
X33694208Y27614523D01*
X33741827Y27709761D01*
X33837065Y27805000D01*
X33979922Y27852619D01*
X34075160Y27852619D01*
X34218017Y27805000D01*
X34265636Y27757380D01*
X35170398Y27852619D02*
X34694208Y27852619D01*
X34646589Y27376428D01*
X34694208Y27424047D01*
X34789446Y27471666D01*
X35027541Y27471666D01*
X35122779Y27424047D01*
X35170398Y27376428D01*
X35218017Y27281190D01*
X35218017Y27043095D01*
X35170398Y26947857D01*
X35122779Y26900238D01*
X35027541Y26852619D01*
X34789446Y26852619D01*
X34694208Y26900238D01*
X34646589Y26947857D01*
X35598970Y27757380D02*
X35646589Y27805000D01*
X35741827Y27852619D01*
X35979922Y27852619D01*
X36075160Y27805000D01*
X36122779Y27757380D01*
X36170398Y27662142D01*
X36170398Y27566904D01*
X36122779Y27424047D01*
X35551351Y26852619D01*
X36170398Y26852619D01*
G04 #@! TO.C,C56*
X40421463Y25962893D02*
X40421463Y25895549D01*
X40354119Y25760862D01*
X40286776Y25693519D01*
X40152089Y25626175D01*
X40017402Y25626175D01*
X39916387Y25659847D01*
X39748028Y25760862D01*
X39647013Y25861877D01*
X39545997Y26030236D01*
X39512326Y26131251D01*
X39512326Y26265938D01*
X39579669Y26400625D01*
X39647013Y26467969D01*
X39781700Y26535312D01*
X39849043Y26535312D01*
X40421463Y27242419D02*
X40084745Y26905702D01*
X40387791Y26535312D01*
X40387791Y26602656D01*
X40421463Y26703671D01*
X40589822Y26872030D01*
X40690837Y26905702D01*
X40758181Y26905702D01*
X40859196Y26872030D01*
X41027555Y26703671D01*
X41061226Y26602656D01*
X41061226Y26535312D01*
X41027555Y26434297D01*
X40859196Y26265938D01*
X40758181Y26232267D01*
X40690837Y26232267D01*
X41061226Y27882183D02*
X40926539Y27747496D01*
X40892868Y27646480D01*
X40892868Y27579137D01*
X40926539Y27410778D01*
X41027555Y27242419D01*
X41296929Y26973045D01*
X41397944Y26939374D01*
X41465287Y26939374D01*
X41566303Y26973045D01*
X41700990Y27107732D01*
X41734661Y27208748D01*
X41734661Y27276091D01*
X41700990Y27377106D01*
X41532631Y27545465D01*
X41431616Y27579137D01*
X41364272Y27579137D01*
X41263257Y27545465D01*
X41128570Y27410778D01*
X41094898Y27309763D01*
X41094898Y27242419D01*
X41128570Y27141404D01*
G04 #@! TO.C,C62*
X42250636Y40632143D02*
X42298255Y40584524D01*
X42345874Y40441667D01*
X42345874Y40346429D01*
X42298255Y40203572D01*
X42203017Y40108334D01*
X42107779Y40060715D01*
X41917303Y40013096D01*
X41774446Y40013096D01*
X41583970Y40060715D01*
X41488732Y40108334D01*
X41393494Y40203572D01*
X41345874Y40346429D01*
X41345874Y40441667D01*
X41393494Y40584524D01*
X41441113Y40632143D01*
X41345874Y41489286D02*
X41345874Y41298810D01*
X41393494Y41203572D01*
X41441113Y41155953D01*
X41583970Y41060715D01*
X41774446Y41013096D01*
X42155398Y41013096D01*
X42250636Y41060715D01*
X42298255Y41108334D01*
X42345874Y41203572D01*
X42345874Y41394048D01*
X42298255Y41489286D01*
X42250636Y41536905D01*
X42155398Y41584524D01*
X41917303Y41584524D01*
X41822065Y41536905D01*
X41774446Y41489286D01*
X41726827Y41394048D01*
X41726827Y41203572D01*
X41774446Y41108334D01*
X41822065Y41060715D01*
X41917303Y41013096D01*
X41441113Y41965477D02*
X41393494Y42013096D01*
X41345874Y42108334D01*
X41345874Y42346429D01*
X41393494Y42441667D01*
X41441113Y42489286D01*
X41536351Y42536905D01*
X41631589Y42536905D01*
X41774446Y42489286D01*
X42345874Y41917858D01*
X42345874Y42536905D01*
G04 #@! TO.C,C55*
X41691463Y25327893D02*
X41691463Y25260549D01*
X41624119Y25125862D01*
X41556776Y25058519D01*
X41422089Y24991175D01*
X41287402Y24991175D01*
X41186387Y25024847D01*
X41018028Y25125862D01*
X40917013Y25226877D01*
X40815997Y25395236D01*
X40782326Y25496251D01*
X40782326Y25630938D01*
X40849669Y25765625D01*
X40917013Y25832969D01*
X41051700Y25900312D01*
X41119043Y25900312D01*
X41691463Y26607419D02*
X41354745Y26270702D01*
X41657791Y25900312D01*
X41657791Y25967656D01*
X41691463Y26068671D01*
X41859822Y26237030D01*
X41960837Y26270702D01*
X42028181Y26270702D01*
X42129196Y26237030D01*
X42297555Y26068671D01*
X42331226Y25967656D01*
X42331226Y25900312D01*
X42297555Y25799297D01*
X42129196Y25630938D01*
X42028181Y25597267D01*
X41960837Y25597267D01*
X42364898Y27280854D02*
X42028181Y26944137D01*
X42331226Y26573748D01*
X42331226Y26641091D01*
X42364898Y26742106D01*
X42533257Y26910465D01*
X42634272Y26944137D01*
X42701616Y26944137D01*
X42802631Y26910465D01*
X42970990Y26742106D01*
X43004661Y26641091D01*
X43004661Y26573748D01*
X42970990Y26472732D01*
X42802631Y26304374D01*
X42701616Y26270702D01*
X42634272Y26270702D01*
G04 #@! TO.C,C48*
X25181462Y32947893D02*
X25181462Y32880549D01*
X25114118Y32745862D01*
X25046775Y32678519D01*
X24912088Y32611175D01*
X24777401Y32611175D01*
X24676386Y32644847D01*
X24508027Y32745862D01*
X24407012Y32846877D01*
X24305996Y33015236D01*
X24272325Y33116251D01*
X24272325Y33250938D01*
X24339668Y33385625D01*
X24407012Y33452969D01*
X24541699Y33520312D01*
X24609042Y33520312D01*
X25383493Y33958045D02*
X25854897Y33486641D01*
X24945760Y34059061D02*
X25282477Y33385625D01*
X25720210Y33823358D01*
X25922241Y34362106D02*
X25821225Y34328435D01*
X25753882Y34328435D01*
X25652867Y34362106D01*
X25619195Y34395778D01*
X25585523Y34496793D01*
X25585523Y34564137D01*
X25619195Y34665152D01*
X25753882Y34799839D01*
X25854897Y34833511D01*
X25922241Y34833511D01*
X26023256Y34799839D01*
X26056928Y34766167D01*
X26090599Y34665152D01*
X26090599Y34597809D01*
X26056928Y34496793D01*
X25922241Y34362106D01*
X25888569Y34261091D01*
X25888569Y34193748D01*
X25922241Y34092732D01*
X26056928Y33958045D01*
X26157943Y33924374D01*
X26225286Y33924374D01*
X26326302Y33958045D01*
X26460989Y34092732D01*
X26494660Y34193748D01*
X26494660Y34261091D01*
X26460989Y34362106D01*
X26326302Y34496793D01*
X26225286Y34530465D01*
X26157943Y34530465D01*
X26056928Y34496793D01*
G04 #@! TO.C,C60*
X42885636Y32377141D02*
X42933255Y32329522D01*
X42980874Y32186665D01*
X42980874Y32091427D01*
X42933255Y31948570D01*
X42838017Y31853332D01*
X42742779Y31805713D01*
X42552303Y31758094D01*
X42409446Y31758094D01*
X42218970Y31805713D01*
X42123732Y31853332D01*
X42028494Y31948570D01*
X41980874Y32091427D01*
X41980874Y32186665D01*
X42028494Y32329522D01*
X42076113Y32377141D01*
X41980874Y33234284D02*
X41980874Y33043808D01*
X42028494Y32948570D01*
X42076113Y32900951D01*
X42218970Y32805713D01*
X42409446Y32758094D01*
X42790398Y32758094D01*
X42885636Y32805713D01*
X42933255Y32853332D01*
X42980874Y32948570D01*
X42980874Y33139046D01*
X42933255Y33234284D01*
X42885636Y33281903D01*
X42790398Y33329522D01*
X42552303Y33329522D01*
X42457065Y33281903D01*
X42409446Y33234284D01*
X42361827Y33139046D01*
X42361827Y32948570D01*
X42409446Y32853332D01*
X42457065Y32805713D01*
X42552303Y32758094D01*
X41980874Y33948570D02*
X41980874Y34043808D01*
X42028494Y34139046D01*
X42076113Y34186665D01*
X42171351Y34234284D01*
X42361827Y34281903D01*
X42599922Y34281903D01*
X42790398Y34234284D01*
X42885636Y34186665D01*
X42933255Y34139046D01*
X42980874Y34043808D01*
X42980874Y33948570D01*
X42933255Y33853332D01*
X42885636Y33805713D01*
X42790398Y33758094D01*
X42599922Y33710475D01*
X42361827Y33710475D01*
X42171351Y33758094D01*
X42076113Y33805713D01*
X42028494Y33853332D01*
X41980874Y33948570D01*
G04 #@! TO.C,C49*
X27721463Y38662893D02*
X27721463Y38595549D01*
X27654119Y38460862D01*
X27586776Y38393519D01*
X27452089Y38326175D01*
X27317402Y38326175D01*
X27216387Y38359847D01*
X27048028Y38460862D01*
X26947013Y38561877D01*
X26845997Y38730236D01*
X26812326Y38831251D01*
X26812326Y38965938D01*
X26879669Y39100625D01*
X26947013Y39167969D01*
X27081700Y39235312D01*
X27149043Y39235312D01*
X27923494Y39673045D02*
X28394898Y39201641D01*
X27485761Y39774061D02*
X27822478Y39100625D01*
X28260211Y39538358D01*
X28798959Y39605702D02*
X28933646Y39740389D01*
X28967318Y39841404D01*
X28967318Y39908748D01*
X28933646Y40077106D01*
X28832631Y40245465D01*
X28563257Y40514839D01*
X28462242Y40548511D01*
X28394898Y40548511D01*
X28293883Y40514839D01*
X28159196Y40380152D01*
X28125524Y40279137D01*
X28125524Y40211793D01*
X28159196Y40110778D01*
X28327555Y39942419D01*
X28428570Y39908748D01*
X28495913Y39908748D01*
X28596929Y39942419D01*
X28731616Y40077106D01*
X28765287Y40178122D01*
X28765287Y40245465D01*
X28731616Y40346480D01*
G04 #@! TO.C,C44*
X36805636Y40917857D02*
X36758017Y40870238D01*
X36615160Y40822619D01*
X36519922Y40822619D01*
X36377065Y40870238D01*
X36281827Y40965476D01*
X36234208Y41060714D01*
X36186589Y41251190D01*
X36186589Y41394047D01*
X36234208Y41584523D01*
X36281827Y41679761D01*
X36377065Y41775000D01*
X36519922Y41822619D01*
X36615160Y41822619D01*
X36758017Y41775000D01*
X36805636Y41727380D01*
X37662779Y41489285D02*
X37662779Y40822619D01*
X37424684Y41870238D02*
X37186589Y41155952D01*
X37805636Y41155952D01*
X38615160Y41489285D02*
X38615160Y40822619D01*
X38377065Y41870238D02*
X38138970Y41155952D01*
X38758017Y41155952D01*
G04 #@! TO.C,C57*
X40437969Y31677893D02*
X40437969Y31610549D01*
X40370625Y31475862D01*
X40303282Y31408519D01*
X40168595Y31341175D01*
X40033908Y31341175D01*
X39932893Y31374847D01*
X39764534Y31475862D01*
X39663519Y31576877D01*
X39562503Y31745236D01*
X39528832Y31846251D01*
X39528832Y31980938D01*
X39596175Y32115625D01*
X39663519Y32182969D01*
X39798206Y32250312D01*
X39865549Y32250312D01*
X40437969Y32957419D02*
X40101251Y32620702D01*
X40404297Y32250312D01*
X40404297Y32317656D01*
X40437969Y32418671D01*
X40606328Y32587030D01*
X40707343Y32620702D01*
X40774687Y32620702D01*
X40875702Y32587030D01*
X41044061Y32418671D01*
X41077732Y32317656D01*
X41077732Y32250312D01*
X41044061Y32149297D01*
X40875702Y31980938D01*
X40774687Y31947267D01*
X40707343Y31947267D01*
X40707343Y33226793D02*
X41178748Y33698198D01*
X41582809Y32688045D01*
G04 #@! TO.C,C51*
X34265636Y28217857D02*
X34218017Y28170238D01*
X34075160Y28122619D01*
X33979922Y28122619D01*
X33837065Y28170238D01*
X33741827Y28265476D01*
X33694208Y28360714D01*
X33646589Y28551190D01*
X33646589Y28694047D01*
X33694208Y28884523D01*
X33741827Y28979761D01*
X33837065Y29075000D01*
X33979922Y29122619D01*
X34075160Y29122619D01*
X34218017Y29075000D01*
X34265636Y29027380D01*
X35170398Y29122619D02*
X34694208Y29122619D01*
X34646589Y28646428D01*
X34694208Y28694047D01*
X34789446Y28741666D01*
X35027541Y28741666D01*
X35122779Y28694047D01*
X35170398Y28646428D01*
X35218017Y28551190D01*
X35218017Y28313095D01*
X35170398Y28217857D01*
X35122779Y28170238D01*
X35027541Y28122619D01*
X34789446Y28122619D01*
X34694208Y28170238D01*
X34646589Y28217857D01*
X36170398Y28122619D02*
X35598970Y28122619D01*
X35884684Y28122619D02*
X35884684Y29122619D01*
X35789446Y28979761D01*
X35694208Y28884523D01*
X35598970Y28836904D01*
G04 #@! TO.C,C45*
X34265636Y39647857D02*
X34218017Y39600238D01*
X34075160Y39552619D01*
X33979922Y39552619D01*
X33837065Y39600238D01*
X33741827Y39695476D01*
X33694208Y39790714D01*
X33646589Y39981190D01*
X33646589Y40124047D01*
X33694208Y40314523D01*
X33741827Y40409761D01*
X33837065Y40505000D01*
X33979922Y40552619D01*
X34075160Y40552619D01*
X34218017Y40505000D01*
X34265636Y40457380D01*
X35122779Y40219285D02*
X35122779Y39552619D01*
X34884684Y40600238D02*
X34646589Y39885952D01*
X35265636Y39885952D01*
X36122779Y40552619D02*
X35646589Y40552619D01*
X35598970Y40076428D01*
X35646589Y40124047D01*
X35741827Y40171666D01*
X35979922Y40171666D01*
X36075160Y40124047D01*
X36122779Y40076428D01*
X36170398Y39981190D01*
X36170398Y39743095D01*
X36122779Y39647857D01*
X36075160Y39600238D01*
X35979922Y39552619D01*
X35741827Y39552619D01*
X35646589Y39600238D01*
X35598970Y39647857D01*
G04 #@! TO.C,C46*
X34265636Y40917857D02*
X34218017Y40870238D01*
X34075160Y40822619D01*
X33979922Y40822619D01*
X33837065Y40870238D01*
X33741827Y40965476D01*
X33694208Y41060714D01*
X33646589Y41251190D01*
X33646589Y41394047D01*
X33694208Y41584523D01*
X33741827Y41679761D01*
X33837065Y41775000D01*
X33979922Y41822619D01*
X34075160Y41822619D01*
X34218017Y41775000D01*
X34265636Y41727380D01*
X35122779Y41489285D02*
X35122779Y40822619D01*
X34884684Y41870238D02*
X34646589Y41155952D01*
X35265636Y41155952D01*
X36075160Y41822619D02*
X35884684Y41822619D01*
X35789446Y41775000D01*
X35741827Y41727380D01*
X35646589Y41584523D01*
X35598970Y41394047D01*
X35598970Y41013095D01*
X35646589Y40917857D01*
X35694208Y40870238D01*
X35789446Y40822619D01*
X35979922Y40822619D01*
X36075160Y40870238D01*
X36122779Y40917857D01*
X36170398Y41013095D01*
X36170398Y41251190D01*
X36122779Y41346428D01*
X36075160Y41394047D01*
X35979922Y41441666D01*
X35789446Y41441666D01*
X35694208Y41394047D01*
X35646589Y41346428D01*
X35598970Y41251190D01*
G04 #@! TO.C,C47*
X26451462Y32312893D02*
X26451462Y32245549D01*
X26384118Y32110862D01*
X26316775Y32043519D01*
X26182088Y31976175D01*
X26047401Y31976175D01*
X25946386Y32009847D01*
X25778027Y32110862D01*
X25677012Y32211877D01*
X25575996Y32380236D01*
X25542325Y32481251D01*
X25542325Y32615938D01*
X25609668Y32750625D01*
X25677012Y32817969D01*
X25811699Y32885312D01*
X25879042Y32885312D01*
X26653493Y33323045D02*
X27124897Y32851641D01*
X26215760Y33424061D02*
X26552477Y32750625D01*
X26990210Y33188358D01*
X26720836Y33861793D02*
X27192241Y34333198D01*
X27596302Y33323045D01*
G04 #@! TO.C,C63*
X43520636Y40632142D02*
X43568255Y40584523D01*
X43615874Y40441666D01*
X43615874Y40346428D01*
X43568255Y40203571D01*
X43473017Y40108333D01*
X43377779Y40060714D01*
X43187303Y40013095D01*
X43044446Y40013095D01*
X42853970Y40060714D01*
X42758732Y40108333D01*
X42663494Y40203571D01*
X42615874Y40346428D01*
X42615874Y40441666D01*
X42663494Y40584523D01*
X42711113Y40632142D01*
X42615874Y41489285D02*
X42615874Y41298809D01*
X42663494Y41203571D01*
X42711113Y41155952D01*
X42853970Y41060714D01*
X43044446Y41013095D01*
X43425398Y41013095D01*
X43520636Y41060714D01*
X43568255Y41108333D01*
X43615874Y41203571D01*
X43615874Y41394047D01*
X43568255Y41489285D01*
X43520636Y41536904D01*
X43425398Y41584523D01*
X43187303Y41584523D01*
X43092065Y41536904D01*
X43044446Y41489285D01*
X42996827Y41394047D01*
X42996827Y41203571D01*
X43044446Y41108333D01*
X43092065Y41060714D01*
X43187303Y41013095D01*
X42615874Y41917857D02*
X42615874Y42536904D01*
X42996827Y42203571D01*
X42996827Y42346428D01*
X43044446Y42441666D01*
X43092065Y42489285D01*
X43187303Y42536904D01*
X43425398Y42536904D01*
X43520636Y42489285D01*
X43568255Y42441666D01*
X43615874Y42346428D01*
X43615874Y42060714D01*
X43568255Y41965476D01*
X43520636Y41917857D01*
G04 #@! TO.C,C61*
X44155636Y33647142D02*
X44203255Y33599523D01*
X44250874Y33456666D01*
X44250874Y33361428D01*
X44203255Y33218571D01*
X44108017Y33123333D01*
X44012779Y33075714D01*
X43822303Y33028095D01*
X43679446Y33028095D01*
X43488970Y33075714D01*
X43393732Y33123333D01*
X43298494Y33218571D01*
X43250874Y33361428D01*
X43250874Y33456666D01*
X43298494Y33599523D01*
X43346113Y33647142D01*
X43250874Y34504285D02*
X43250874Y34313809D01*
X43298494Y34218571D01*
X43346113Y34170952D01*
X43488970Y34075714D01*
X43679446Y34028095D01*
X44060398Y34028095D01*
X44155636Y34075714D01*
X44203255Y34123333D01*
X44250874Y34218571D01*
X44250874Y34409047D01*
X44203255Y34504285D01*
X44155636Y34551904D01*
X44060398Y34599523D01*
X43822303Y34599523D01*
X43727065Y34551904D01*
X43679446Y34504285D01*
X43631827Y34409047D01*
X43631827Y34218571D01*
X43679446Y34123333D01*
X43727065Y34075714D01*
X43822303Y34028095D01*
X44250874Y35551904D02*
X44250874Y34980476D01*
X44250874Y35266190D02*
X43250874Y35266190D01*
X43393732Y35170952D01*
X43488970Y35075714D01*
X43536589Y34980476D01*
G04 #@! TO.C,C50*
X27086463Y39932893D02*
X27086463Y39865549D01*
X27019119Y39730862D01*
X26951776Y39663519D01*
X26817089Y39596175D01*
X26682402Y39596175D01*
X26581387Y39629847D01*
X26413028Y39730862D01*
X26312013Y39831877D01*
X26210997Y40000236D01*
X26177326Y40101251D01*
X26177326Y40235938D01*
X26244669Y40370625D01*
X26312013Y40437969D01*
X26446700Y40505312D01*
X26514043Y40505312D01*
X27086463Y41212419D02*
X26749745Y40875702D01*
X27052791Y40505312D01*
X27052791Y40572656D01*
X27086463Y40673671D01*
X27254822Y40842030D01*
X27355837Y40875702D01*
X27423181Y40875702D01*
X27524196Y40842030D01*
X27692555Y40673671D01*
X27726226Y40572656D01*
X27726226Y40505312D01*
X27692555Y40404297D01*
X27524196Y40235938D01*
X27423181Y40202267D01*
X27355837Y40202267D01*
X27557868Y41683824D02*
X27625211Y41751167D01*
X27726226Y41784839D01*
X27793570Y41784839D01*
X27894585Y41751167D01*
X28062944Y41650152D01*
X28231303Y41481793D01*
X28332318Y41313435D01*
X28365990Y41212419D01*
X28365990Y41145076D01*
X28332318Y41044061D01*
X28264974Y40976717D01*
X28163959Y40943045D01*
X28096616Y40943045D01*
X27995600Y40976717D01*
X27827242Y41077732D01*
X27658883Y41246091D01*
X27557868Y41414450D01*
X27524196Y41515465D01*
X27524196Y41582809D01*
X27557868Y41683824D01*
G04 #@! TO.C,C43*
X36805636Y39647857D02*
X36758017Y39600238D01*
X36615160Y39552619D01*
X36519922Y39552619D01*
X36377065Y39600238D01*
X36281827Y39695476D01*
X36234208Y39790714D01*
X36186589Y39981190D01*
X36186589Y40124047D01*
X36234208Y40314523D01*
X36281827Y40409761D01*
X36377065Y40505000D01*
X36519922Y40552619D01*
X36615160Y40552619D01*
X36758017Y40505000D01*
X36805636Y40457380D01*
X37662779Y40219285D02*
X37662779Y39552619D01*
X37424684Y40600238D02*
X37186589Y39885952D01*
X37805636Y39885952D01*
X38091351Y40552619D02*
X38710398Y40552619D01*
X38377065Y40171666D01*
X38519922Y40171666D01*
X38615160Y40124047D01*
X38662779Y40076428D01*
X38710398Y39981190D01*
X38710398Y39743095D01*
X38662779Y39647857D01*
X38615160Y39600238D01*
X38519922Y39552619D01*
X38234208Y39552619D01*
X38138970Y39600238D01*
X38091351Y39647857D01*
G04 #@! TO.C,C59*
X40980637Y38727141D02*
X41028256Y38679522D01*
X41075875Y38536665D01*
X41075875Y38441427D01*
X41028256Y38298570D01*
X40933018Y38203332D01*
X40837780Y38155713D01*
X40647304Y38108094D01*
X40504447Y38108094D01*
X40313971Y38155713D01*
X40218733Y38203332D01*
X40123495Y38298570D01*
X40075875Y38441427D01*
X40075875Y38536665D01*
X40123495Y38679522D01*
X40171114Y38727141D01*
X40075875Y39631903D02*
X40075875Y39155713D01*
X40552066Y39108094D01*
X40504447Y39155713D01*
X40456828Y39250951D01*
X40456828Y39489046D01*
X40504447Y39584284D01*
X40552066Y39631903D01*
X40647304Y39679522D01*
X40885399Y39679522D01*
X40980637Y39631903D01*
X41028256Y39584284D01*
X41075875Y39489046D01*
X41075875Y39250951D01*
X41028256Y39155713D01*
X40980637Y39108094D01*
X41075875Y40155713D02*
X41075875Y40346189D01*
X41028256Y40441427D01*
X40980637Y40489046D01*
X40837780Y40584284D01*
X40647304Y40631903D01*
X40266352Y40631903D01*
X40171114Y40584284D01*
X40123495Y40536665D01*
X40075875Y40441427D01*
X40075875Y40250951D01*
X40123495Y40155713D01*
X40171114Y40108094D01*
X40266352Y40060475D01*
X40504447Y40060475D01*
X40599685Y40108094D01*
X40647304Y40155713D01*
X40694923Y40250951D01*
X40694923Y40441427D01*
X40647304Y40536665D01*
X40599685Y40584284D01*
X40504447Y40631903D01*
G04 #@! TO.C,C53*
X37440636Y28217857D02*
X37393017Y28170238D01*
X37250160Y28122619D01*
X37154922Y28122619D01*
X37012065Y28170238D01*
X36916827Y28265476D01*
X36869208Y28360714D01*
X36821589Y28551190D01*
X36821589Y28694047D01*
X36869208Y28884523D01*
X36916827Y28979761D01*
X37012065Y29075000D01*
X37154922Y29122619D01*
X37250160Y29122619D01*
X37393017Y29075000D01*
X37440636Y29027380D01*
X38345398Y29122619D02*
X37869208Y29122619D01*
X37821589Y28646428D01*
X37869208Y28694047D01*
X37964446Y28741666D01*
X38202541Y28741666D01*
X38297779Y28694047D01*
X38345398Y28646428D01*
X38393017Y28551190D01*
X38393017Y28313095D01*
X38345398Y28217857D01*
X38297779Y28170238D01*
X38202541Y28122619D01*
X37964446Y28122619D01*
X37869208Y28170238D01*
X37821589Y28217857D01*
X38726351Y29122619D02*
X39345398Y29122619D01*
X39012065Y28741666D01*
X39154922Y28741666D01*
X39250160Y28694047D01*
X39297779Y28646428D01*
X39345398Y28551190D01*
X39345398Y28313095D01*
X39297779Y28217857D01*
X39250160Y28170238D01*
X39154922Y28122619D01*
X38869208Y28122619D01*
X38773970Y28170238D01*
X38726351Y28217857D01*
G04 #@! TO.C,C54*
X37440636Y26947857D02*
X37393017Y26900238D01*
X37250160Y26852619D01*
X37154922Y26852619D01*
X37012065Y26900238D01*
X36916827Y26995476D01*
X36869208Y27090714D01*
X36821589Y27281190D01*
X36821589Y27424047D01*
X36869208Y27614523D01*
X36916827Y27709761D01*
X37012065Y27805000D01*
X37154922Y27852619D01*
X37250160Y27852619D01*
X37393017Y27805000D01*
X37440636Y27757380D01*
X38345398Y27852619D02*
X37869208Y27852619D01*
X37821589Y27376428D01*
X37869208Y27424047D01*
X37964446Y27471666D01*
X38202541Y27471666D01*
X38297779Y27424047D01*
X38345398Y27376428D01*
X38393017Y27281190D01*
X38393017Y27043095D01*
X38345398Y26947857D01*
X38297779Y26900238D01*
X38202541Y26852619D01*
X37964446Y26852619D01*
X37869208Y26900238D01*
X37821589Y26947857D01*
X39250160Y27519285D02*
X39250160Y26852619D01*
X39012065Y27900238D02*
X38773970Y27185952D01*
X39393017Y27185952D01*
G04 #@! TO.C,C10*
X-40917857Y-35567857D02*
X-40870238Y-35615476D01*
X-40822619Y-35758333D01*
X-40822619Y-35853571D01*
X-40870238Y-35996428D01*
X-40965476Y-36091666D01*
X-41060714Y-36139285D01*
X-41251190Y-36186904D01*
X-41394047Y-36186904D01*
X-41584523Y-36139285D01*
X-41679761Y-36091666D01*
X-41775000Y-35996428D01*
X-41822619Y-35853571D01*
X-41822619Y-35758333D01*
X-41775000Y-35615476D01*
X-41727380Y-35567857D01*
X-40822619Y-34615476D02*
X-40822619Y-35186904D01*
X-40822619Y-34901190D02*
X-41822619Y-34901190D01*
X-41679761Y-34996428D01*
X-41584523Y-35091666D01*
X-41536904Y-35186904D01*
X-41822619Y-33996428D02*
X-41822619Y-33901190D01*
X-41775000Y-33805952D01*
X-41727380Y-33758333D01*
X-41632142Y-33710714D01*
X-41441666Y-33663095D01*
X-41203571Y-33663095D01*
X-41013095Y-33710714D01*
X-40917857Y-33758333D01*
X-40870238Y-33805952D01*
X-40822619Y-33901190D01*
X-40822619Y-33996428D01*
X-40870238Y-34091666D01*
X-40917857Y-34139285D01*
X-41013095Y-34186904D01*
X-41203571Y-34234523D01*
X-41441666Y-34234523D01*
X-41632142Y-34186904D01*
X-41727380Y-34139285D01*
X-41775000Y-34091666D01*
X-41822619Y-33996428D01*
G04 #@! TO.C,C12*
X-40917857Y-38742857D02*
X-40870238Y-38790476D01*
X-40822619Y-38933333D01*
X-40822619Y-39028571D01*
X-40870238Y-39171428D01*
X-40965476Y-39266666D01*
X-41060714Y-39314285D01*
X-41251190Y-39361904D01*
X-41394047Y-39361904D01*
X-41584523Y-39314285D01*
X-41679761Y-39266666D01*
X-41775000Y-39171428D01*
X-41822619Y-39028571D01*
X-41822619Y-38933333D01*
X-41775000Y-38790476D01*
X-41727380Y-38742857D01*
X-40822619Y-37790476D02*
X-40822619Y-38361904D01*
X-40822619Y-38076190D02*
X-41822619Y-38076190D01*
X-41679761Y-38171428D01*
X-41584523Y-38266666D01*
X-41536904Y-38361904D01*
X-41727380Y-37409523D02*
X-41775000Y-37361904D01*
X-41822619Y-37266666D01*
X-41822619Y-37028571D01*
X-41775000Y-36933333D01*
X-41727380Y-36885714D01*
X-41632142Y-36838095D01*
X-41536904Y-36838095D01*
X-41394047Y-36885714D01*
X-40822619Y-37457142D01*
X-40822619Y-36838095D01*
G04 #@! TO.C,C5*
X-35930389Y-26804687D02*
X-35997732Y-26804687D01*
X-36132419Y-26737343D01*
X-36199763Y-26669999D01*
X-36267106Y-26535312D01*
X-36267106Y-26400625D01*
X-36233435Y-26299610D01*
X-36132419Y-26131251D01*
X-36031404Y-26030236D01*
X-35863045Y-25929221D01*
X-35762030Y-25895549D01*
X-35627343Y-25895549D01*
X-35492656Y-25962893D01*
X-35425312Y-26030236D01*
X-35357969Y-26164923D01*
X-35357969Y-26232267D01*
X-34650862Y-26804687D02*
X-34987580Y-26467969D01*
X-35357969Y-26771015D01*
X-35290625Y-26771015D01*
X-35189610Y-26804687D01*
X-35021251Y-26973045D01*
X-34987580Y-27074061D01*
X-34987580Y-27141404D01*
X-35021251Y-27242419D01*
X-35189610Y-27410778D01*
X-35290625Y-27444450D01*
X-35357969Y-27444450D01*
X-35458984Y-27410778D01*
X-35627343Y-27242419D01*
X-35661015Y-27141404D01*
X-35661015Y-27074061D01*
G04 #@! TO.C,C6*
X-35295389Y-25534687D02*
X-35362732Y-25534687D01*
X-35497419Y-25467343D01*
X-35564763Y-25399999D01*
X-35632106Y-25265312D01*
X-35632106Y-25130625D01*
X-35598435Y-25029610D01*
X-35497419Y-24861251D01*
X-35396404Y-24760236D01*
X-35228045Y-24659221D01*
X-35127030Y-24625549D01*
X-34992343Y-24625549D01*
X-34857656Y-24692893D01*
X-34790312Y-24760236D01*
X-34722969Y-24894923D01*
X-34722969Y-24962267D01*
X-34049534Y-25501015D02*
X-34184221Y-25366328D01*
X-34285236Y-25332656D01*
X-34352580Y-25332656D01*
X-34520938Y-25366328D01*
X-34689297Y-25467343D01*
X-34958671Y-25736717D01*
X-34992343Y-25837732D01*
X-34992343Y-25905076D01*
X-34958671Y-26006091D01*
X-34823984Y-26140778D01*
X-34722969Y-26174450D01*
X-34655625Y-26174450D01*
X-34554610Y-26140778D01*
X-34386251Y-25972419D01*
X-34352580Y-25871404D01*
X-34352580Y-25804061D01*
X-34386251Y-25703045D01*
X-34520938Y-25568358D01*
X-34621954Y-25534687D01*
X-34689297Y-25534687D01*
X-34790312Y-25568358D01*
G04 #@! TO.C,C18*
X-36202857Y-42902142D02*
X-36250476Y-42949761D01*
X-36393333Y-42997380D01*
X-36488571Y-42997380D01*
X-36631428Y-42949761D01*
X-36726666Y-42854523D01*
X-36774285Y-42759285D01*
X-36821904Y-42568809D01*
X-36821904Y-42425952D01*
X-36774285Y-42235476D01*
X-36726666Y-42140238D01*
X-36631428Y-42045000D01*
X-36488571Y-41997380D01*
X-36393333Y-41997380D01*
X-36250476Y-42045000D01*
X-36202857Y-42092619D01*
X-35250476Y-42997380D02*
X-35821904Y-42997380D01*
X-35536190Y-42997380D02*
X-35536190Y-41997380D01*
X-35631428Y-42140238D01*
X-35726666Y-42235476D01*
X-35821904Y-42283095D01*
X-34679047Y-42425952D02*
X-34774285Y-42378333D01*
X-34821904Y-42330714D01*
X-34869523Y-42235476D01*
X-34869523Y-42187857D01*
X-34821904Y-42092619D01*
X-34774285Y-42045000D01*
X-34679047Y-41997380D01*
X-34488571Y-41997380D01*
X-34393333Y-42045000D01*
X-34345714Y-42092619D01*
X-34298095Y-42187857D01*
X-34298095Y-42235476D01*
X-34345714Y-42330714D01*
X-34393333Y-42378333D01*
X-34488571Y-42425952D01*
X-34679047Y-42425952D01*
X-34774285Y-42473571D01*
X-34821904Y-42521190D01*
X-34869523Y-42616428D01*
X-34869523Y-42806904D01*
X-34821904Y-42902142D01*
X-34774285Y-42949761D01*
X-34679047Y-42997380D01*
X-34488571Y-42997380D01*
X-34393333Y-42949761D01*
X-34345714Y-42902142D01*
X-34298095Y-42806904D01*
X-34298095Y-42616428D01*
X-34345714Y-42521190D01*
X-34393333Y-42473571D01*
X-34488571Y-42425952D01*
G04 #@! TO.C,C17*
X-29852857Y-40997141D02*
X-29900476Y-41044760D01*
X-30043333Y-41092379D01*
X-30138571Y-41092379D01*
X-30281428Y-41044760D01*
X-30376666Y-40949522D01*
X-30424285Y-40854284D01*
X-30471904Y-40663808D01*
X-30471904Y-40520951D01*
X-30424285Y-40330475D01*
X-30376666Y-40235237D01*
X-30281428Y-40139999D01*
X-30138571Y-40092379D01*
X-30043333Y-40092379D01*
X-29900476Y-40139999D01*
X-29852857Y-40187618D01*
X-28900476Y-41092379D02*
X-29471904Y-41092379D01*
X-29186190Y-41092379D02*
X-29186190Y-40092379D01*
X-29281428Y-40235237D01*
X-29376666Y-40330475D01*
X-29471904Y-40378094D01*
X-28567142Y-40092379D02*
X-27900476Y-40092379D01*
X-28329047Y-41092379D01*
G04 #@! TO.C,C1*
X-28217857Y-37631666D02*
X-28170238Y-37679285D01*
X-28122619Y-37822142D01*
X-28122619Y-37917380D01*
X-28170238Y-38060238D01*
X-28265476Y-38155476D01*
X-28360714Y-38203095D01*
X-28551190Y-38250714D01*
X-28694047Y-38250714D01*
X-28884523Y-38203095D01*
X-28979761Y-38155476D01*
X-29075000Y-38060238D01*
X-29122619Y-37917380D01*
X-29122619Y-37822142D01*
X-29075000Y-37679285D01*
X-29027380Y-37631666D01*
X-28122619Y-36679285D02*
X-28122619Y-37250714D01*
X-28122619Y-36965000D02*
X-29122619Y-36965000D01*
X-28979761Y-37060238D01*
X-28884523Y-37155476D01*
X-28836904Y-37250714D01*
G04 #@! TO.C,C3*
X-28217857Y-35091666D02*
X-28170238Y-35139285D01*
X-28122619Y-35282142D01*
X-28122619Y-35377380D01*
X-28170238Y-35520238D01*
X-28265476Y-35615476D01*
X-28360714Y-35663095D01*
X-28551190Y-35710714D01*
X-28694047Y-35710714D01*
X-28884523Y-35663095D01*
X-28979761Y-35615476D01*
X-29075000Y-35520238D01*
X-29122619Y-35377380D01*
X-29122619Y-35282142D01*
X-29075000Y-35139285D01*
X-29027380Y-35091666D01*
X-29122619Y-34758333D02*
X-29122619Y-34139285D01*
X-28741666Y-34472619D01*
X-28741666Y-34329761D01*
X-28694047Y-34234523D01*
X-28646428Y-34186904D01*
X-28551190Y-34139285D01*
X-28313095Y-34139285D01*
X-28217857Y-34186904D01*
X-28170238Y-34234523D01*
X-28122619Y-34329761D01*
X-28122619Y-34615476D01*
X-28170238Y-34710714D01*
X-28217857Y-34758333D01*
G04 #@! TO.C,C7*
X-29580389Y-28074686D02*
X-29647732Y-28074686D01*
X-29782419Y-28007342D01*
X-29849763Y-27939998D01*
X-29917106Y-27805311D01*
X-29917106Y-27670624D01*
X-29883435Y-27569609D01*
X-29782419Y-27401250D01*
X-29681404Y-27300235D01*
X-29513045Y-27199220D01*
X-29412030Y-27165548D01*
X-29277343Y-27165548D01*
X-29142656Y-27232892D01*
X-29075312Y-27300235D01*
X-29007969Y-27434922D01*
X-29007969Y-27502266D01*
X-28704923Y-27670624D02*
X-28233519Y-28142029D01*
X-29243671Y-28546090D01*
G04 #@! TO.C,C2*
X-26947857Y-37631666D02*
X-26900238Y-37679285D01*
X-26852619Y-37822142D01*
X-26852619Y-37917380D01*
X-26900238Y-38060238D01*
X-26995476Y-38155476D01*
X-27090714Y-38203095D01*
X-27281190Y-38250714D01*
X-27424047Y-38250714D01*
X-27614523Y-38203095D01*
X-27709761Y-38155476D01*
X-27805000Y-38060238D01*
X-27852619Y-37917380D01*
X-27852619Y-37822142D01*
X-27805000Y-37679285D01*
X-27757380Y-37631666D01*
X-27757380Y-37250714D02*
X-27805000Y-37203095D01*
X-27852619Y-37107857D01*
X-27852619Y-36869761D01*
X-27805000Y-36774523D01*
X-27757380Y-36726904D01*
X-27662142Y-36679285D01*
X-27566904Y-36679285D01*
X-27424047Y-36726904D01*
X-26852619Y-37298333D01*
X-26852619Y-36679285D01*
G04 #@! TO.C,C4*
X-26947857Y-35091666D02*
X-26900238Y-35139285D01*
X-26852619Y-35282142D01*
X-26852619Y-35377380D01*
X-26900238Y-35520238D01*
X-26995476Y-35615476D01*
X-27090714Y-35663095D01*
X-27281190Y-35710714D01*
X-27424047Y-35710714D01*
X-27614523Y-35663095D01*
X-27709761Y-35615476D01*
X-27805000Y-35520238D01*
X-27852619Y-35377380D01*
X-27852619Y-35282142D01*
X-27805000Y-35139285D01*
X-27757380Y-35091666D01*
X-27519285Y-34234523D02*
X-26852619Y-34234523D01*
X-27900238Y-34472619D02*
X-27185952Y-34710714D01*
X-27185952Y-34091666D01*
G04 #@! TO.C,C8*
X-28310389Y-27439687D02*
X-28377732Y-27439687D01*
X-28512419Y-27372343D01*
X-28579763Y-27304999D01*
X-28647106Y-27170312D01*
X-28647106Y-27035625D01*
X-28613435Y-26934610D01*
X-28512419Y-26766251D01*
X-28411404Y-26665236D01*
X-28243045Y-26564221D01*
X-28142030Y-26530549D01*
X-28007343Y-26530549D01*
X-27872656Y-26597893D01*
X-27805312Y-26665236D01*
X-27737969Y-26799923D01*
X-27737969Y-26867267D01*
X-27569610Y-27507030D02*
X-27603282Y-27406015D01*
X-27603282Y-27338671D01*
X-27569610Y-27237656D01*
X-27535938Y-27203984D01*
X-27434923Y-27170312D01*
X-27367580Y-27170312D01*
X-27266564Y-27203984D01*
X-27131877Y-27338671D01*
X-27098206Y-27439687D01*
X-27098206Y-27507030D01*
X-27131877Y-27608045D01*
X-27165549Y-27641717D01*
X-27266564Y-27675389D01*
X-27333908Y-27675389D01*
X-27434923Y-27641717D01*
X-27569610Y-27507030D01*
X-27670625Y-27473358D01*
X-27737969Y-27473358D01*
X-27838984Y-27507030D01*
X-27973671Y-27641717D01*
X-28007343Y-27742732D01*
X-28007343Y-27810076D01*
X-27973671Y-27911091D01*
X-27838984Y-28045778D01*
X-27737969Y-28079450D01*
X-27670625Y-28079450D01*
X-27569610Y-28045778D01*
X-27434923Y-27911091D01*
X-27401251Y-27810076D01*
X-27401251Y-27742732D01*
X-27434923Y-27641717D01*
G04 #@! TO.C,C21*
X-27947857Y-43537142D02*
X-27995476Y-43584761D01*
X-28138333Y-43632380D01*
X-28233571Y-43632380D01*
X-28376428Y-43584761D01*
X-28471666Y-43489523D01*
X-28519285Y-43394285D01*
X-28566904Y-43203809D01*
X-28566904Y-43060952D01*
X-28519285Y-42870476D01*
X-28471666Y-42775238D01*
X-28376428Y-42680000D01*
X-28233571Y-42632380D01*
X-28138333Y-42632380D01*
X-27995476Y-42680000D01*
X-27947857Y-42727619D01*
X-27566904Y-42727619D02*
X-27519285Y-42680000D01*
X-27424047Y-42632380D01*
X-27185952Y-42632380D01*
X-27090714Y-42680000D01*
X-27043095Y-42727619D01*
X-26995476Y-42822857D01*
X-26995476Y-42918095D01*
X-27043095Y-43060952D01*
X-27614523Y-43632380D01*
X-26995476Y-43632380D01*
X-26043095Y-43632380D02*
X-26614523Y-43632380D01*
X-26328809Y-43632380D02*
X-26328809Y-42632380D01*
X-26424047Y-42775238D01*
X-26519285Y-42870476D01*
X-26614523Y-42918095D01*
G04 #@! TO.C,C16*
X-38807106Y-42342969D02*
X-38874450Y-42342969D01*
X-39009137Y-42275625D01*
X-39076480Y-42208282D01*
X-39143824Y-42073595D01*
X-39143824Y-41938908D01*
X-39110152Y-41837893D01*
X-39009137Y-41669534D01*
X-38908122Y-41568519D01*
X-38739763Y-41467503D01*
X-38638748Y-41433832D01*
X-38504061Y-41433832D01*
X-38369374Y-41501175D01*
X-38302030Y-41568519D01*
X-38234687Y-41703206D01*
X-38234687Y-41770549D01*
X-38201015Y-43083748D02*
X-38605076Y-42679687D01*
X-38403045Y-42881717D02*
X-37695938Y-42174610D01*
X-37864297Y-42208282D01*
X-37998984Y-42208282D01*
X-38100000Y-42174610D01*
X-36887816Y-42982732D02*
X-37022503Y-42848045D01*
X-37123519Y-42814374D01*
X-37190862Y-42814374D01*
X-37359221Y-42848045D01*
X-37527580Y-42949061D01*
X-37796954Y-43218435D01*
X-37830625Y-43319450D01*
X-37830625Y-43386793D01*
X-37796954Y-43487809D01*
X-37662267Y-43622496D01*
X-37561251Y-43656167D01*
X-37493908Y-43656167D01*
X-37392893Y-43622496D01*
X-37224534Y-43454137D01*
X-37190862Y-43353122D01*
X-37190862Y-43285778D01*
X-37224534Y-43184763D01*
X-37359221Y-43050076D01*
X-37460236Y-43016404D01*
X-37527580Y-43016404D01*
X-37628595Y-43050076D01*
G04 #@! TO.C,C20*
X-27947857Y-42267142D02*
X-27995476Y-42314761D01*
X-28138333Y-42362380D01*
X-28233571Y-42362380D01*
X-28376428Y-42314761D01*
X-28471666Y-42219523D01*
X-28519285Y-42124285D01*
X-28566904Y-41933809D01*
X-28566904Y-41790952D01*
X-28519285Y-41600476D01*
X-28471666Y-41505238D01*
X-28376428Y-41410000D01*
X-28233571Y-41362380D01*
X-28138333Y-41362380D01*
X-27995476Y-41410000D01*
X-27947857Y-41457619D01*
X-27566904Y-41457619D02*
X-27519285Y-41410000D01*
X-27424047Y-41362380D01*
X-27185952Y-41362380D01*
X-27090714Y-41410000D01*
X-27043095Y-41457619D01*
X-26995476Y-41552857D01*
X-26995476Y-41648095D01*
X-27043095Y-41790952D01*
X-27614523Y-42362380D01*
X-26995476Y-42362380D01*
X-26376428Y-41362380D02*
X-26281190Y-41362380D01*
X-26185952Y-41410000D01*
X-26138333Y-41457619D01*
X-26090714Y-41552857D01*
X-26043095Y-41743333D01*
X-26043095Y-41981428D01*
X-26090714Y-42171904D01*
X-26138333Y-42267142D01*
X-26185952Y-42314761D01*
X-26281190Y-42362380D01*
X-26376428Y-42362380D01*
X-26471666Y-42314761D01*
X-26519285Y-42267142D01*
X-26566904Y-42171904D01*
X-26614523Y-41981428D01*
X-26614523Y-41743333D01*
X-26566904Y-41552857D01*
X-26519285Y-41457619D01*
X-26471666Y-41410000D01*
X-26376428Y-41362380D01*
G04 #@! TO.C,C19*
X-34932857Y-44172142D02*
X-34980476Y-44219761D01*
X-35123333Y-44267380D01*
X-35218571Y-44267380D01*
X-35361428Y-44219761D01*
X-35456666Y-44124523D01*
X-35504285Y-44029285D01*
X-35551904Y-43838809D01*
X-35551904Y-43695952D01*
X-35504285Y-43505476D01*
X-35456666Y-43410238D01*
X-35361428Y-43315000D01*
X-35218571Y-43267380D01*
X-35123333Y-43267380D01*
X-34980476Y-43315000D01*
X-34932857Y-43362619D01*
X-33980476Y-44267380D02*
X-34551904Y-44267380D01*
X-34266190Y-44267380D02*
X-34266190Y-43267380D01*
X-34361428Y-43410238D01*
X-34456666Y-43505476D01*
X-34551904Y-43553095D01*
X-33504285Y-44267380D02*
X-33313809Y-44267380D01*
X-33218571Y-44219761D01*
X-33170952Y-44172142D01*
X-33075714Y-44029285D01*
X-33028095Y-43838809D01*
X-33028095Y-43457857D01*
X-33075714Y-43362619D01*
X-33123333Y-43315000D01*
X-33218571Y-43267380D01*
X-33409047Y-43267380D01*
X-33504285Y-43315000D01*
X-33551904Y-43362619D01*
X-33599523Y-43457857D01*
X-33599523Y-43695952D01*
X-33551904Y-43791190D01*
X-33504285Y-43838809D01*
X-33409047Y-43886428D01*
X-33218571Y-43886428D01*
X-33123333Y-43838809D01*
X-33075714Y-43791190D01*
X-33028095Y-43695952D01*
G04 #@! TO.C,C15*
X-36902106Y-40437969D02*
X-36969450Y-40437969D01*
X-37104137Y-40370625D01*
X-37171480Y-40303282D01*
X-37238824Y-40168595D01*
X-37238824Y-40033908D01*
X-37205152Y-39932893D01*
X-37104137Y-39764534D01*
X-37003122Y-39663519D01*
X-36834763Y-39562503D01*
X-36733748Y-39528832D01*
X-36599061Y-39528832D01*
X-36464374Y-39596175D01*
X-36397030Y-39663519D01*
X-36329687Y-39798206D01*
X-36329687Y-39865549D01*
X-36296015Y-41178748D02*
X-36700076Y-40774687D01*
X-36498045Y-40976717D02*
X-35790938Y-40269610D01*
X-35959297Y-40303282D01*
X-36093984Y-40303282D01*
X-36195000Y-40269610D01*
X-34949145Y-41111404D02*
X-35285862Y-40774687D01*
X-35656251Y-41077732D01*
X-35588908Y-41077732D01*
X-35487893Y-41111404D01*
X-35319534Y-41279763D01*
X-35285862Y-41380778D01*
X-35285862Y-41448122D01*
X-35319534Y-41549137D01*
X-35487893Y-41717496D01*
X-35588908Y-41751167D01*
X-35656251Y-41751167D01*
X-35757267Y-41717496D01*
X-35925625Y-41549137D01*
X-35959297Y-41448122D01*
X-35959297Y-41380778D01*
G04 #@! TO.C,C14*
X-42617107Y-40437969D02*
X-42684451Y-40437969D01*
X-42819138Y-40370625D01*
X-42886481Y-40303282D01*
X-42953825Y-40168595D01*
X-42953825Y-40033908D01*
X-42920153Y-39932893D01*
X-42819138Y-39764534D01*
X-42718123Y-39663519D01*
X-42549764Y-39562503D01*
X-42448749Y-39528832D01*
X-42314062Y-39528832D01*
X-42179375Y-39596175D01*
X-42112031Y-39663519D01*
X-42044688Y-39798206D01*
X-42044688Y-39865549D01*
X-42011016Y-41178748D02*
X-42415077Y-40774687D01*
X-42213046Y-40976717D02*
X-41505939Y-40269610D01*
X-41674298Y-40303282D01*
X-41808985Y-40303282D01*
X-41910001Y-40269610D01*
X-40933520Y-41313435D02*
X-41404924Y-41784839D01*
X-40832504Y-40875702D02*
X-41505939Y-41212419D01*
X-41068207Y-41650152D01*
G04 #@! TO.C,C13*
X-43252106Y-41707969D02*
X-43319450Y-41707969D01*
X-43454137Y-41640625D01*
X-43521480Y-41573282D01*
X-43588824Y-41438595D01*
X-43588824Y-41303908D01*
X-43555152Y-41202893D01*
X-43454137Y-41034534D01*
X-43353122Y-40933519D01*
X-43184763Y-40832503D01*
X-43083748Y-40798832D01*
X-42949061Y-40798832D01*
X-42814374Y-40866175D01*
X-42747030Y-40933519D01*
X-42679687Y-41068206D01*
X-42679687Y-41135549D01*
X-42646015Y-42448748D02*
X-43050076Y-42044687D01*
X-42848045Y-42246717D02*
X-42140938Y-41539610D01*
X-42309297Y-41573282D01*
X-42443984Y-41573282D01*
X-42545000Y-41539610D01*
X-41703206Y-41977343D02*
X-41265473Y-42415076D01*
X-41770549Y-42448748D01*
X-41669534Y-42549763D01*
X-41635862Y-42650778D01*
X-41635862Y-42718122D01*
X-41669534Y-42819137D01*
X-41837893Y-42987496D01*
X-41938908Y-43021167D01*
X-42006251Y-43021167D01*
X-42107267Y-42987496D01*
X-42309297Y-42785465D01*
X-42342969Y-42684450D01*
X-42342969Y-42617106D01*
G04 #@! TO.C,C11*
X-39647857Y-38742857D02*
X-39600238Y-38790476D01*
X-39552619Y-38933333D01*
X-39552619Y-39028571D01*
X-39600238Y-39171428D01*
X-39695476Y-39266666D01*
X-39790714Y-39314285D01*
X-39981190Y-39361904D01*
X-40124047Y-39361904D01*
X-40314523Y-39314285D01*
X-40409761Y-39266666D01*
X-40505000Y-39171428D01*
X-40552619Y-39028571D01*
X-40552619Y-38933333D01*
X-40505000Y-38790476D01*
X-40457380Y-38742857D01*
X-39552619Y-37790476D02*
X-39552619Y-38361904D01*
X-39552619Y-38076190D02*
X-40552619Y-38076190D01*
X-40409761Y-38171428D01*
X-40314523Y-38266666D01*
X-40266904Y-38361904D01*
X-39552619Y-36838095D02*
X-39552619Y-37409523D01*
X-39552619Y-37123809D02*
X-40552619Y-37123809D01*
X-40409761Y-37219047D01*
X-40314523Y-37314285D01*
X-40266904Y-37409523D01*
G04 #@! TO.C,C9*
X-39647857Y-35091666D02*
X-39600238Y-35139285D01*
X-39552619Y-35282142D01*
X-39552619Y-35377380D01*
X-39600238Y-35520238D01*
X-39695476Y-35615476D01*
X-39790714Y-35663095D01*
X-39981190Y-35710714D01*
X-40124047Y-35710714D01*
X-40314523Y-35663095D01*
X-40409761Y-35615476D01*
X-40505000Y-35520238D01*
X-40552619Y-35377380D01*
X-40552619Y-35282142D01*
X-40505000Y-35139285D01*
X-40457380Y-35091666D01*
X-39552619Y-34615476D02*
X-39552619Y-34425000D01*
X-39600238Y-34329761D01*
X-39647857Y-34282142D01*
X-39790714Y-34186904D01*
X-39981190Y-34139285D01*
X-40362142Y-34139285D01*
X-40457380Y-34186904D01*
X-40505000Y-34234523D01*
X-40552619Y-34329761D01*
X-40552619Y-34520238D01*
X-40505000Y-34615476D01*
X-40457380Y-34663095D01*
X-40362142Y-34710714D01*
X-40124047Y-34710714D01*
X-40028809Y-34663095D01*
X-39981190Y-34615476D01*
X-39933571Y-34520238D01*
X-39933571Y-34329761D01*
X-39981190Y-34234523D01*
X-40028809Y-34186904D01*
X-40124047Y-34139285D01*
G04 #@! TO.C,C85*
X17772292Y-24487572D02*
X17724673Y-24535191D01*
X17581816Y-24582810D01*
X17486578Y-24582810D01*
X17343721Y-24535191D01*
X17248483Y-24439953D01*
X17200864Y-24344715D01*
X17153245Y-24154239D01*
X17153245Y-24011382D01*
X17200864Y-23820906D01*
X17248483Y-23725668D01*
X17343721Y-23630430D01*
X17486578Y-23582810D01*
X17581816Y-23582810D01*
X17724673Y-23630430D01*
X17772292Y-23678049D01*
X18343721Y-24011382D02*
X18248483Y-23963763D01*
X18200864Y-23916144D01*
X18153245Y-23820906D01*
X18153245Y-23773287D01*
X18200864Y-23678049D01*
X18248483Y-23630430D01*
X18343721Y-23582810D01*
X18534197Y-23582810D01*
X18629435Y-23630430D01*
X18677054Y-23678049D01*
X18724673Y-23773287D01*
X18724673Y-23820906D01*
X18677054Y-23916144D01*
X18629435Y-23963763D01*
X18534197Y-24011382D01*
X18343721Y-24011382D01*
X18248483Y-24059001D01*
X18200864Y-24106620D01*
X18153245Y-24201858D01*
X18153245Y-24392334D01*
X18200864Y-24487572D01*
X18248483Y-24535191D01*
X18343721Y-24582810D01*
X18534197Y-24582810D01*
X18629435Y-24535191D01*
X18677054Y-24487572D01*
X18724673Y-24392334D01*
X18724673Y-24201858D01*
X18677054Y-24106620D01*
X18629435Y-24059001D01*
X18534197Y-24011382D01*
X19629435Y-23582810D02*
X19153245Y-23582810D01*
X19105626Y-24059001D01*
X19153245Y-24011382D01*
X19248483Y-23963763D01*
X19486578Y-23963763D01*
X19581816Y-24011382D01*
X19629435Y-24059001D01*
X19677054Y-24154239D01*
X19677054Y-24392334D01*
X19629435Y-24487572D01*
X19581816Y-24535191D01*
X19486578Y-24582810D01*
X19248483Y-24582810D01*
X19153245Y-24535191D01*
X19105626Y-24487572D01*
G04 #@! TO.C,C86*
X17772292Y-29567572D02*
X17724673Y-29615191D01*
X17581816Y-29662810D01*
X17486578Y-29662810D01*
X17343721Y-29615191D01*
X17248483Y-29519953D01*
X17200864Y-29424715D01*
X17153245Y-29234239D01*
X17153245Y-29091382D01*
X17200864Y-28900906D01*
X17248483Y-28805668D01*
X17343721Y-28710430D01*
X17486578Y-28662810D01*
X17581816Y-28662810D01*
X17724673Y-28710430D01*
X17772292Y-28758049D01*
X18343721Y-29091382D02*
X18248483Y-29043763D01*
X18200864Y-28996144D01*
X18153245Y-28900906D01*
X18153245Y-28853287D01*
X18200864Y-28758049D01*
X18248483Y-28710430D01*
X18343721Y-28662810D01*
X18534197Y-28662810D01*
X18629435Y-28710430D01*
X18677054Y-28758049D01*
X18724673Y-28853287D01*
X18724673Y-28900906D01*
X18677054Y-28996144D01*
X18629435Y-29043763D01*
X18534197Y-29091382D01*
X18343721Y-29091382D01*
X18248483Y-29139001D01*
X18200864Y-29186620D01*
X18153245Y-29281858D01*
X18153245Y-29472334D01*
X18200864Y-29567572D01*
X18248483Y-29615191D01*
X18343721Y-29662810D01*
X18534197Y-29662810D01*
X18629435Y-29615191D01*
X18677054Y-29567572D01*
X18724673Y-29472334D01*
X18724673Y-29281858D01*
X18677054Y-29186620D01*
X18629435Y-29139001D01*
X18534197Y-29091382D01*
X19581816Y-28662810D02*
X19391340Y-28662810D01*
X19296102Y-28710430D01*
X19248483Y-28758049D01*
X19153245Y-28900906D01*
X19105626Y-29091382D01*
X19105626Y-29472334D01*
X19153245Y-29567572D01*
X19200864Y-29615191D01*
X19296102Y-29662810D01*
X19486578Y-29662810D01*
X19581816Y-29615191D01*
X19629435Y-29567572D01*
X19677054Y-29472334D01*
X19677054Y-29234239D01*
X19629435Y-29139001D01*
X19581816Y-29091382D01*
X19486578Y-29043763D01*
X19296102Y-29043763D01*
X19200864Y-29091382D01*
X19153245Y-29139001D01*
X19105626Y-29234239D01*
G04 #@! TO.C,U5*
X22672530Y-27432334D02*
X23482054Y-27432334D01*
X23577292Y-27384715D01*
X23624911Y-27337096D01*
X23672530Y-27241858D01*
X23672530Y-27051382D01*
X23624911Y-26956144D01*
X23577292Y-26908525D01*
X23482054Y-26860906D01*
X22672530Y-26860906D01*
X22672530Y-25908525D02*
X22672530Y-26384715D01*
X23148721Y-26432334D01*
X23101102Y-26384715D01*
X23053483Y-26289477D01*
X23053483Y-26051382D01*
X23101102Y-25956144D01*
X23148721Y-25908525D01*
X23243959Y-25860906D01*
X23482054Y-25860906D01*
X23577292Y-25908525D01*
X23624911Y-25956144D01*
X23672530Y-26051382D01*
X23672530Y-26289477D01*
X23624911Y-26384715D01*
X23577292Y-26432334D01*
G04 #@! TO.C,U8*
X14481469Y-13575257D02*
X15290993Y-13575257D01*
X15386231Y-13527638D01*
X15433850Y-13480019D01*
X15481469Y-13384781D01*
X15481469Y-13194305D01*
X15433850Y-13099067D01*
X15386231Y-13051448D01*
X15290993Y-13003829D01*
X14481469Y-13003829D01*
X14910041Y-12384781D02*
X14862422Y-12480019D01*
X14814803Y-12527638D01*
X14719565Y-12575257D01*
X14671946Y-12575257D01*
X14576708Y-12527638D01*
X14529089Y-12480019D01*
X14481469Y-12384781D01*
X14481469Y-12194305D01*
X14529089Y-12099067D01*
X14576708Y-12051448D01*
X14671946Y-12003829D01*
X14719565Y-12003829D01*
X14814803Y-12051448D01*
X14862422Y-12099067D01*
X14910041Y-12194305D01*
X14910041Y-12384781D01*
X14957660Y-12480019D01*
X15005279Y-12527638D01*
X15100517Y-12575257D01*
X15290993Y-12575257D01*
X15386231Y-12527638D01*
X15433850Y-12480019D01*
X15481469Y-12384781D01*
X15481469Y-12194305D01*
X15433850Y-12099067D01*
X15386231Y-12051448D01*
X15290993Y-12003829D01*
X15100517Y-12003829D01*
X15005279Y-12051448D01*
X14957660Y-12099067D01*
X14910041Y-12194305D01*
G04 #@! TO.C,C100*
X-12344911Y8222338D02*
X-12344911Y8154995D01*
X-12412254Y8020308D01*
X-12479598Y7952964D01*
X-12614285Y7885621D01*
X-12748972Y7885621D01*
X-12849987Y7919292D01*
X-13018346Y8020308D01*
X-13119361Y8121323D01*
X-13220376Y8289682D01*
X-13254048Y8390697D01*
X-13254048Y8525384D01*
X-13186704Y8660071D01*
X-13119361Y8727414D01*
X-12984674Y8794758D01*
X-12917330Y8794758D01*
X-11604132Y8828430D02*
X-12008193Y8424369D01*
X-11806163Y8626399D02*
X-12513269Y9333506D01*
X-12479598Y9165147D01*
X-12479598Y9030460D01*
X-12513269Y8929445D01*
X-11873506Y9973269D02*
X-11806163Y10040613D01*
X-11705147Y10074285D01*
X-11637804Y10074285D01*
X-11536788Y10040613D01*
X-11368430Y9939598D01*
X-11200071Y9771239D01*
X-11099056Y9602880D01*
X-11065384Y9501865D01*
X-11065384Y9434521D01*
X-11099056Y9333506D01*
X-11166399Y9266163D01*
X-11267414Y9232491D01*
X-11334758Y9232491D01*
X-11435773Y9266163D01*
X-11604132Y9367178D01*
X-11772491Y9535537D01*
X-11873506Y9703895D01*
X-11907178Y9804911D01*
X-11907178Y9872254D01*
X-11873506Y9973269D01*
X-11200071Y10646704D02*
X-11132727Y10714048D01*
X-11031712Y10747720D01*
X-10964369Y10747720D01*
X-10863353Y10714048D01*
X-10694995Y10613033D01*
X-10526636Y10444674D01*
X-10425621Y10276315D01*
X-10391949Y10175300D01*
X-10391949Y10107956D01*
X-10425621Y10006941D01*
X-10492964Y9939598D01*
X-10593979Y9905926D01*
X-10661323Y9905926D01*
X-10762338Y9939598D01*
X-10930697Y10040613D01*
X-11099056Y10208972D01*
X-11200071Y10377330D01*
X-11233743Y10478346D01*
X-11233743Y10545689D01*
X-11200071Y10646704D01*
G04 #@! TO.C,C96*
X-38548269Y11890867D02*
X-38615613Y11890867D01*
X-38750300Y11958211D01*
X-38817643Y12025554D01*
X-38884987Y12160241D01*
X-38884987Y12294928D01*
X-38851315Y12395943D01*
X-38750300Y12564302D01*
X-38649285Y12665317D01*
X-38480926Y12766333D01*
X-38379911Y12800004D01*
X-38245224Y12800004D01*
X-38110537Y12732661D01*
X-38043193Y12665317D01*
X-37975850Y12530630D01*
X-37975850Y12463287D01*
X-38278895Y11486806D02*
X-38144208Y11352119D01*
X-38043193Y11318447D01*
X-37975850Y11318447D01*
X-37807491Y11352119D01*
X-37639132Y11453134D01*
X-37369758Y11722508D01*
X-37336086Y11823524D01*
X-37336086Y11890867D01*
X-37369758Y11991882D01*
X-37504445Y12126569D01*
X-37605460Y12160241D01*
X-37672804Y12160241D01*
X-37773819Y12126569D01*
X-37942178Y11958211D01*
X-37975850Y11857195D01*
X-37975850Y11789852D01*
X-37942178Y11688837D01*
X-37807491Y11554149D01*
X-37706475Y11520478D01*
X-37639132Y11520478D01*
X-37538117Y11554149D01*
X-36628979Y11251104D02*
X-36763666Y11385791D01*
X-36864682Y11419462D01*
X-36932025Y11419462D01*
X-37100384Y11385791D01*
X-37268743Y11284775D01*
X-37538117Y11015401D01*
X-37571788Y10914386D01*
X-37571788Y10847043D01*
X-37538117Y10746027D01*
X-37403430Y10611340D01*
X-37302414Y10577669D01*
X-37235071Y10577669D01*
X-37134056Y10611340D01*
X-36965697Y10779699D01*
X-36932025Y10880714D01*
X-36932025Y10948058D01*
X-36965697Y11049073D01*
X-37100384Y11183760D01*
X-37201399Y11217432D01*
X-37268743Y11217432D01*
X-37369758Y11183760D01*
G04 #@! TO.C,U9*
X-22351904Y34612619D02*
X-22351904Y33803095D01*
X-22304285Y33707857D01*
X-22256666Y33660238D01*
X-22161428Y33612619D01*
X-21970952Y33612619D01*
X-21875714Y33660238D01*
X-21828095Y33707857D01*
X-21780476Y33803095D01*
X-21780476Y34612619D01*
X-21256666Y33612619D02*
X-21066190Y33612619D01*
X-20970952Y33660238D01*
X-20923333Y33707857D01*
X-20828095Y33850714D01*
X-20780476Y34041190D01*
X-20780476Y34422142D01*
X-20828095Y34517380D01*
X-20875714Y34565000D01*
X-20970952Y34612619D01*
X-21161428Y34612619D01*
X-21256666Y34565000D01*
X-21304285Y34517380D01*
X-21351904Y34422142D01*
X-21351904Y34184047D01*
X-21304285Y34088809D01*
X-21256666Y34041190D01*
X-21161428Y33993571D01*
X-20970952Y33993571D01*
X-20875714Y34041190D01*
X-20828095Y34088809D01*
X-20780476Y34184047D01*
G04 #@! TO.C,C93*
X-44209345Y23615208D02*
X-44209345Y23547864D01*
X-44276689Y23413177D01*
X-44344032Y23345834D01*
X-44478719Y23278490D01*
X-44613406Y23278490D01*
X-44714421Y23312162D01*
X-44882780Y23413177D01*
X-44983795Y23514192D01*
X-45084811Y23682551D01*
X-45118482Y23783566D01*
X-45118482Y23918253D01*
X-45051139Y24052940D01*
X-44983795Y24120284D01*
X-44849108Y24187627D01*
X-44781765Y24187627D01*
X-43805284Y23884582D02*
X-43670597Y24019269D01*
X-43636925Y24120284D01*
X-43636925Y24187627D01*
X-43670597Y24355986D01*
X-43771612Y24524345D01*
X-44040986Y24793719D01*
X-44142002Y24827391D01*
X-44209345Y24827391D01*
X-44310360Y24793719D01*
X-44445047Y24659032D01*
X-44478719Y24558017D01*
X-44478719Y24490673D01*
X-44445047Y24389658D01*
X-44276689Y24221299D01*
X-44175673Y24187627D01*
X-44108330Y24187627D01*
X-44007315Y24221299D01*
X-43872627Y24355986D01*
X-43838956Y24457002D01*
X-43838956Y24524345D01*
X-43872627Y24625360D01*
X-43939971Y25164108D02*
X-43502238Y25601841D01*
X-43468566Y25096765D01*
X-43367551Y25197780D01*
X-43266536Y25231452D01*
X-43199192Y25231452D01*
X-43098177Y25197780D01*
X-42929818Y25029421D01*
X-42896147Y24928406D01*
X-42896147Y24861063D01*
X-42929818Y24760047D01*
X-43131849Y24558017D01*
X-43232864Y24524345D01*
X-43300208Y24524345D01*
G04 #@! TO.C,C97*
X-34554421Y7629715D02*
X-34621765Y7629715D01*
X-34756452Y7697059D01*
X-34823795Y7764402D01*
X-34891139Y7899089D01*
X-34891139Y8033776D01*
X-34857467Y8134791D01*
X-34756452Y8303150D01*
X-34655437Y8404165D01*
X-34487078Y8505181D01*
X-34386063Y8538852D01*
X-34251376Y8538852D01*
X-34116689Y8471509D01*
X-34049345Y8404165D01*
X-33982002Y8269478D01*
X-33982002Y8202135D01*
X-34285047Y7225654D02*
X-34150360Y7090967D01*
X-34049345Y7057295D01*
X-33982002Y7057295D01*
X-33813643Y7090967D01*
X-33645284Y7191982D01*
X-33375910Y7461356D01*
X-33342238Y7562372D01*
X-33342238Y7629715D01*
X-33375910Y7730730D01*
X-33510597Y7865417D01*
X-33611612Y7899089D01*
X-33678956Y7899089D01*
X-33779971Y7865417D01*
X-33948330Y7697059D01*
X-33982002Y7596043D01*
X-33982002Y7528700D01*
X-33948330Y7427685D01*
X-33813643Y7292997D01*
X-33712627Y7259326D01*
X-33645284Y7259326D01*
X-33544269Y7292997D01*
X-33005521Y7360341D02*
X-32534116Y6888936D01*
X-33544269Y6484875D01*
G04 #@! TO.C,C98*
X-26742106Y4012030D02*
X-26809450Y4012030D01*
X-26944137Y4079374D01*
X-27011480Y4146717D01*
X-27078824Y4281404D01*
X-27078824Y4416091D01*
X-27045152Y4517106D01*
X-26944137Y4685465D01*
X-26843122Y4786480D01*
X-26674763Y4887496D01*
X-26573748Y4921167D01*
X-26439061Y4921167D01*
X-26304374Y4853824D01*
X-26237030Y4786480D01*
X-26169687Y4651793D01*
X-26169687Y4584450D01*
X-26472732Y3607969D02*
X-26338045Y3473282D01*
X-26237030Y3439610D01*
X-26169687Y3439610D01*
X-26001328Y3473282D01*
X-25832969Y3574297D01*
X-25563595Y3843671D01*
X-25529923Y3944687D01*
X-25529923Y4012030D01*
X-25563595Y4113045D01*
X-25698282Y4247732D01*
X-25799297Y4281404D01*
X-25866641Y4281404D01*
X-25967656Y4247732D01*
X-26136015Y4079374D01*
X-26169687Y3978358D01*
X-26169687Y3911015D01*
X-26136015Y3809999D01*
X-26001328Y3675312D01*
X-25900312Y3641641D01*
X-25832969Y3641641D01*
X-25731954Y3675312D01*
X-25327893Y3271251D02*
X-25361564Y3372267D01*
X-25361564Y3439610D01*
X-25327893Y3540625D01*
X-25294221Y3574297D01*
X-25193206Y3607969D01*
X-25125862Y3607969D01*
X-25024847Y3574297D01*
X-24890160Y3439610D01*
X-24856488Y3338595D01*
X-24856488Y3271251D01*
X-24890160Y3170236D01*
X-24923832Y3136564D01*
X-25024847Y3102893D01*
X-25092190Y3102893D01*
X-25193206Y3136564D01*
X-25327893Y3271251D01*
X-25428908Y3304923D01*
X-25496251Y3304923D01*
X-25597267Y3271251D01*
X-25731954Y3136564D01*
X-25765625Y3035549D01*
X-25765625Y2968206D01*
X-25731954Y2867190D01*
X-25597267Y2732503D01*
X-25496251Y2698832D01*
X-25428908Y2698832D01*
X-25327893Y2732503D01*
X-25193206Y2867190D01*
X-25159534Y2968206D01*
X-25159534Y3035549D01*
X-25193206Y3136564D01*
G04 #@! TO.C,C99*
X-16519715Y1005578D02*
X-16519715Y938234D01*
X-16587059Y803547D01*
X-16654402Y736204D01*
X-16789089Y668860D01*
X-16923776Y668860D01*
X-17024791Y702532D01*
X-17193150Y803547D01*
X-17294165Y904562D01*
X-17395181Y1072921D01*
X-17428852Y1173936D01*
X-17428852Y1308623D01*
X-17361509Y1443310D01*
X-17294165Y1510654D01*
X-17159478Y1577997D01*
X-17092135Y1577997D01*
X-16115654Y1274952D02*
X-15980967Y1409639D01*
X-15947295Y1510654D01*
X-15947295Y1577997D01*
X-15980967Y1746356D01*
X-16081982Y1914715D01*
X-16351356Y2184089D01*
X-16452372Y2217761D01*
X-16519715Y2217761D01*
X-16620730Y2184089D01*
X-16755417Y2049402D01*
X-16789089Y1948387D01*
X-16789089Y1881043D01*
X-16755417Y1780028D01*
X-16587059Y1611669D01*
X-16486043Y1577997D01*
X-16418700Y1577997D01*
X-16317685Y1611669D01*
X-16182997Y1746356D01*
X-16149326Y1847372D01*
X-16149326Y1914715D01*
X-16182997Y2015730D01*
X-15442219Y1948387D02*
X-15307532Y2083074D01*
X-15273860Y2184089D01*
X-15273860Y2251433D01*
X-15307532Y2419791D01*
X-15408547Y2588150D01*
X-15677921Y2857524D01*
X-15778936Y2891196D01*
X-15846280Y2891196D01*
X-15947295Y2857524D01*
X-16081982Y2722837D01*
X-16115654Y2621822D01*
X-16115654Y2554478D01*
X-16081982Y2453463D01*
X-15913623Y2285104D01*
X-15812608Y2251433D01*
X-15745265Y2251433D01*
X-15644249Y2285104D01*
X-15509562Y2419791D01*
X-15475891Y2520807D01*
X-15475891Y2588150D01*
X-15509562Y2689165D01*
G04 #@! TO.C,C102*
X-3521433Y15273860D02*
X-3521433Y15206517D01*
X-3588776Y15071830D01*
X-3656120Y15004486D01*
X-3790807Y14937143D01*
X-3925494Y14937143D01*
X-4026509Y14970814D01*
X-4194868Y15071830D01*
X-4295883Y15172845D01*
X-4396898Y15341204D01*
X-4430570Y15442219D01*
X-4430570Y15576906D01*
X-4363226Y15711593D01*
X-4295883Y15778936D01*
X-4161196Y15846280D01*
X-4093852Y15846280D01*
X-2780654Y15879952D02*
X-3184715Y15475891D01*
X-2982685Y15677921D02*
X-3689791Y16385028D01*
X-3656120Y16216669D01*
X-3656120Y16081982D01*
X-3689791Y15980967D01*
X-3050028Y17024791D02*
X-2982685Y17092135D01*
X-2881669Y17125807D01*
X-2814326Y17125807D01*
X-2713310Y17092135D01*
X-2544952Y16991120D01*
X-2376593Y16822761D01*
X-2275578Y16654402D01*
X-2241906Y16553387D01*
X-2241906Y16486043D01*
X-2275578Y16385028D01*
X-2342921Y16317685D01*
X-2443936Y16284013D01*
X-2511280Y16284013D01*
X-2612295Y16317685D01*
X-2780654Y16418700D01*
X-2949013Y16587059D01*
X-3050028Y16755417D01*
X-3083700Y16856433D01*
X-3083700Y16923776D01*
X-3050028Y17024791D01*
X-2477608Y17462524D02*
X-2477608Y17529868D01*
X-2443936Y17630883D01*
X-2275578Y17799242D01*
X-2174562Y17832913D01*
X-2107219Y17832913D01*
X-2006204Y17799242D01*
X-1938860Y17731898D01*
X-1871517Y17597211D01*
X-1871517Y16789089D01*
X-1433784Y17226822D01*
G04 #@! TO.C,C103*
X-851509Y25496063D02*
X-918852Y25496063D01*
X-1053539Y25563406D01*
X-1120883Y25630750D01*
X-1188226Y25765437D01*
X-1188226Y25900124D01*
X-1154555Y26001139D01*
X-1053539Y26169498D01*
X-952524Y26270513D01*
X-784165Y26371528D01*
X-683150Y26405200D01*
X-548463Y26405200D01*
X-413776Y26337856D01*
X-346433Y26270513D01*
X-279089Y26135826D01*
X-279089Y26068482D01*
X-245417Y24755284D02*
X-649478Y25159345D01*
X-447448Y24957315D02*
X259658Y25664421D01*
X91299Y25630750D01*
X-43387Y25630750D01*
X-144402Y25664421D01*
X899421Y25024658D02*
X966765Y24957315D01*
X1000437Y24856299D01*
X1000437Y24788956D01*
X966765Y24687940D01*
X865750Y24519582D01*
X697391Y24351223D01*
X529032Y24250208D01*
X428017Y24216536D01*
X360673Y24216536D01*
X259658Y24250208D01*
X192315Y24317551D01*
X158643Y24418566D01*
X158643Y24485910D01*
X192315Y24586925D01*
X293330Y24755284D01*
X461689Y24923643D01*
X630047Y25024658D01*
X731063Y25058330D01*
X798406Y25058330D01*
X899421Y25024658D01*
X1370826Y24553253D02*
X1808559Y24115521D01*
X1303482Y24081849D01*
X1404498Y23980834D01*
X1438169Y23879818D01*
X1438169Y23812475D01*
X1404498Y23711460D01*
X1236139Y23543101D01*
X1135124Y23509429D01*
X1067780Y23509429D01*
X966765Y23543101D01*
X764734Y23745131D01*
X731063Y23846147D01*
X731063Y23913490D01*
G04 #@! TO.C,C105*
X-7493562Y35313116D02*
X-7560905Y35313116D01*
X-7695592Y35380459D01*
X-7762936Y35447803D01*
X-7830279Y35582490D01*
X-7830279Y35717177D01*
X-7796608Y35818192D01*
X-7695592Y35986551D01*
X-7594577Y36087566D01*
X-7426218Y36188581D01*
X-7325203Y36222253D01*
X-7190516Y36222253D01*
X-7055829Y36154909D01*
X-6988486Y36087566D01*
X-6921142Y35952879D01*
X-6921142Y35885535D01*
X-6887470Y34572337D02*
X-7291531Y34976398D01*
X-7089501Y34774368D02*
X-6382394Y35481474D01*
X-6550753Y35447803D01*
X-6685440Y35447803D01*
X-6786455Y35481474D01*
X-5742631Y34841711D02*
X-5675287Y34774368D01*
X-5641615Y34673352D01*
X-5641615Y34606009D01*
X-5675287Y34504993D01*
X-5776302Y34336635D01*
X-5944661Y34168276D01*
X-6113020Y34067261D01*
X-6214035Y34033589D01*
X-6281379Y34033589D01*
X-6382394Y34067261D01*
X-6449738Y34134604D01*
X-6483409Y34235619D01*
X-6483409Y34302963D01*
X-6449737Y34403978D01*
X-6348722Y34572337D01*
X-6180363Y34740696D01*
X-6012005Y34841711D01*
X-5910989Y34875383D01*
X-5843646Y34875383D01*
X-5742631Y34841711D01*
X-4867165Y33966245D02*
X-5203883Y34302963D01*
X-5574272Y33999917D01*
X-5506928Y33999917D01*
X-5405913Y33966245D01*
X-5237554Y33797887D01*
X-5203883Y33696871D01*
X-5203883Y33629528D01*
X-5237554Y33528513D01*
X-5405913Y33360154D01*
X-5506928Y33326482D01*
X-5574272Y33326482D01*
X-5675287Y33360154D01*
X-5843646Y33528513D01*
X-5877318Y33629528D01*
X-5877318Y33696871D01*
G04 #@! TO.C,C106*
X-17996509Y41371063D02*
X-18063852Y41371063D01*
X-18198539Y41438406D01*
X-18265883Y41505750D01*
X-18333226Y41640437D01*
X-18333226Y41775124D01*
X-18299555Y41876139D01*
X-18198539Y42044498D01*
X-18097524Y42145513D01*
X-17929165Y42246528D01*
X-17828150Y42280200D01*
X-17693463Y42280200D01*
X-17558776Y42212856D01*
X-17491433Y42145513D01*
X-17424089Y42010826D01*
X-17424089Y41943482D01*
X-17390417Y40630284D02*
X-17794478Y41034345D01*
X-17592448Y40832315D02*
X-16885341Y41539421D01*
X-17053700Y41505750D01*
X-17188387Y41505750D01*
X-17289402Y41539421D01*
X-16245578Y40899658D02*
X-16178234Y40832315D01*
X-16144562Y40731299D01*
X-16144562Y40663956D01*
X-16178234Y40562940D01*
X-16279249Y40394582D01*
X-16447608Y40226223D01*
X-16615967Y40125208D01*
X-16716982Y40091536D01*
X-16784326Y40091536D01*
X-16885341Y40125208D01*
X-16952685Y40192551D01*
X-16986356Y40293566D01*
X-16986356Y40360910D01*
X-16952685Y40461925D01*
X-16851669Y40630284D01*
X-16683310Y40798643D01*
X-16514952Y40899658D01*
X-16413936Y40933330D01*
X-16346593Y40933330D01*
X-16245578Y40899658D01*
X-15403784Y40057864D02*
X-15538471Y40192551D01*
X-15639486Y40226223D01*
X-15706830Y40226223D01*
X-15875188Y40192551D01*
X-16043547Y40091536D01*
X-16312921Y39822162D01*
X-16346593Y39721147D01*
X-16346593Y39653803D01*
X-16312921Y39552788D01*
X-16178234Y39418101D01*
X-16077219Y39384429D01*
X-16009875Y39384429D01*
X-15908860Y39418101D01*
X-15740501Y39586460D01*
X-15706830Y39687475D01*
X-15706830Y39754818D01*
X-15740501Y39855834D01*
X-15875188Y39990521D01*
X-15976204Y40024192D01*
X-16043547Y40024192D01*
X-16144562Y39990521D01*
G04 #@! TO.C,C107*
X-25496063Y42328490D02*
X-25496063Y42261147D01*
X-25563406Y42126460D01*
X-25630750Y42059116D01*
X-25765437Y41991773D01*
X-25900124Y41991773D01*
X-26001139Y42025444D01*
X-26169498Y42126460D01*
X-26270513Y42227475D01*
X-26371528Y42395834D01*
X-26405200Y42496849D01*
X-26405200Y42631536D01*
X-26337856Y42766223D01*
X-26270513Y42833566D01*
X-26135826Y42900910D01*
X-26068482Y42900910D01*
X-24755284Y42934582D02*
X-25159345Y42530521D01*
X-24957314Y42732551D02*
X-25664421Y43439658D01*
X-25630750Y43271299D01*
X-25630750Y43136612D01*
X-25664421Y43035597D01*
X-25024658Y44079421D02*
X-24957314Y44146765D01*
X-24856299Y44180437D01*
X-24788956Y44180437D01*
X-24687940Y44146765D01*
X-24519582Y44045750D01*
X-24351223Y43877391D01*
X-24250208Y43709032D01*
X-24216536Y43608017D01*
X-24216536Y43540673D01*
X-24250208Y43439658D01*
X-24317551Y43372315D01*
X-24418566Y43338643D01*
X-24485910Y43338643D01*
X-24586925Y43372315D01*
X-24755284Y43473330D01*
X-24923643Y43641689D01*
X-25024658Y43810047D01*
X-25058330Y43911063D01*
X-25058330Y43978406D01*
X-25024658Y44079421D01*
X-24553253Y44550826D02*
X-24081849Y45022230D01*
X-23677788Y44012078D01*
G04 #@! TO.C,C95*
X-37094421Y13979715D02*
X-37161765Y13979715D01*
X-37296452Y14047059D01*
X-37363795Y14114402D01*
X-37431139Y14249089D01*
X-37431139Y14383776D01*
X-37397467Y14484791D01*
X-37296452Y14653150D01*
X-37195437Y14754165D01*
X-37027078Y14855181D01*
X-36926063Y14888852D01*
X-36791376Y14888852D01*
X-36656689Y14821509D01*
X-36589345Y14754165D01*
X-36522002Y14619478D01*
X-36522002Y14552135D01*
X-36825047Y13575654D02*
X-36690360Y13440967D01*
X-36589345Y13407295D01*
X-36522002Y13407295D01*
X-36353643Y13440967D01*
X-36185284Y13541982D01*
X-35915910Y13811356D01*
X-35882238Y13912372D01*
X-35882238Y13979715D01*
X-35915910Y14080730D01*
X-36050597Y14215417D01*
X-36151612Y14249089D01*
X-36218956Y14249089D01*
X-36319971Y14215417D01*
X-36488330Y14047059D01*
X-36522002Y13946043D01*
X-36522002Y13878700D01*
X-36488330Y13777685D01*
X-36353643Y13642997D01*
X-36252627Y13609326D01*
X-36185284Y13609326D01*
X-36084269Y13642997D01*
X-35141460Y13306280D02*
X-35478177Y13642997D01*
X-35848566Y13339952D01*
X-35781223Y13339952D01*
X-35680208Y13306280D01*
X-35511849Y13137921D01*
X-35478177Y13036906D01*
X-35478177Y12969562D01*
X-35511849Y12868547D01*
X-35680208Y12700188D01*
X-35781223Y12666517D01*
X-35848566Y12666517D01*
X-35949582Y12700188D01*
X-36117940Y12868547D01*
X-36151612Y12969562D01*
X-36151612Y13036906D01*
G04 #@! TO.C,C94*
X-41347105Y10997030D02*
X-41414449Y10997030D01*
X-41549136Y11064374D01*
X-41616479Y11131717D01*
X-41683823Y11266404D01*
X-41683823Y11401091D01*
X-41650151Y11502106D01*
X-41549136Y11670465D01*
X-41448121Y11771480D01*
X-41279762Y11872496D01*
X-41178747Y11906167D01*
X-41044060Y11906167D01*
X-40909373Y11838824D01*
X-40842029Y11771480D01*
X-40774686Y11636793D01*
X-40774686Y11569450D01*
X-41077731Y10592969D02*
X-40943044Y10458282D01*
X-40842029Y10424610D01*
X-40774686Y10424610D01*
X-40606327Y10458282D01*
X-40437968Y10559297D01*
X-40168594Y10828671D01*
X-40134922Y10929687D01*
X-40134922Y10997030D01*
X-40168594Y11098045D01*
X-40303281Y11232732D01*
X-40404296Y11266404D01*
X-40471640Y11266404D01*
X-40572655Y11232732D01*
X-40741014Y11064374D01*
X-40774686Y10963358D01*
X-40774686Y10896015D01*
X-40741014Y10795000D01*
X-40606327Y10660312D01*
X-40505311Y10626641D01*
X-40437968Y10626641D01*
X-40336953Y10660312D01*
X-39663518Y10121564D02*
X-40134922Y9650160D01*
X-39562502Y10559297D02*
X-40235937Y10222580D01*
X-39798205Y9784847D01*
G04 #@! TO.C,C108*
X-34001433Y34323860D02*
X-34001433Y34256517D01*
X-34068776Y34121830D01*
X-34136120Y34054486D01*
X-34270807Y33987143D01*
X-34405494Y33987143D01*
X-34506509Y34020814D01*
X-34674868Y34121830D01*
X-34775883Y34222845D01*
X-34876898Y34391204D01*
X-34910570Y34492219D01*
X-34910570Y34626906D01*
X-34843226Y34761593D01*
X-34775883Y34828936D01*
X-34641196Y34896280D01*
X-34573852Y34896280D01*
X-33260654Y34929952D02*
X-33664715Y34525891D01*
X-33462684Y34727921D02*
X-34169791Y35435028D01*
X-34136120Y35266669D01*
X-34136120Y35131982D01*
X-34169791Y35030967D01*
X-33530028Y36074791D02*
X-33462684Y36142135D01*
X-33361669Y36175807D01*
X-33294326Y36175807D01*
X-33193310Y36142135D01*
X-33024952Y36041120D01*
X-32856593Y35872761D01*
X-32755578Y35704402D01*
X-32721906Y35603387D01*
X-32721906Y35536043D01*
X-32755578Y35435028D01*
X-32822921Y35367685D01*
X-32923936Y35334013D01*
X-32991280Y35334013D01*
X-33092295Y35367685D01*
X-33260654Y35468700D01*
X-33429013Y35637059D01*
X-33530028Y35805417D01*
X-33563700Y35906433D01*
X-33563700Y35973776D01*
X-33530028Y36074791D01*
X-32587219Y36411509D02*
X-32688234Y36377837D01*
X-32755578Y36377837D01*
X-32856593Y36411509D01*
X-32890265Y36445181D01*
X-32923936Y36546196D01*
X-32923936Y36613539D01*
X-32890265Y36714555D01*
X-32755578Y36849242D01*
X-32654562Y36882913D01*
X-32587219Y36882913D01*
X-32486204Y36849242D01*
X-32452532Y36815570D01*
X-32418860Y36714555D01*
X-32418860Y36647211D01*
X-32452532Y36546196D01*
X-32587219Y36411509D01*
X-32620891Y36310494D01*
X-32620891Y36243150D01*
X-32587219Y36142135D01*
X-32452532Y36007448D01*
X-32351517Y35973776D01*
X-32284173Y35973776D01*
X-32183158Y36007448D01*
X-32048471Y36142135D01*
X-32014799Y36243150D01*
X-32014799Y36310494D01*
X-32048471Y36411509D01*
X-32183158Y36546196D01*
X-32284173Y36579868D01*
X-32351517Y36579868D01*
X-32452532Y36546196D01*
G04 #@! TO.C,C101*
X-10256063Y6768490D02*
X-10256063Y6701147D01*
X-10323406Y6566460D01*
X-10390750Y6499116D01*
X-10525437Y6431773D01*
X-10660124Y6431773D01*
X-10761139Y6465444D01*
X-10929498Y6566460D01*
X-11030513Y6667475D01*
X-11131528Y6835834D01*
X-11165200Y6936849D01*
X-11165200Y7071536D01*
X-11097856Y7206223D01*
X-11030513Y7273566D01*
X-10895826Y7340910D01*
X-10828482Y7340910D01*
X-9515284Y7374582D02*
X-9919345Y6970521D01*
X-9717315Y7172551D02*
X-10424421Y7879658D01*
X-10390750Y7711299D01*
X-10390750Y7576612D01*
X-10424421Y7475597D01*
X-9784658Y8519421D02*
X-9717315Y8586765D01*
X-9616299Y8620437D01*
X-9548956Y8620437D01*
X-9447940Y8586765D01*
X-9279582Y8485750D01*
X-9111223Y8317391D01*
X-9010208Y8149032D01*
X-8976536Y8048017D01*
X-8976536Y7980673D01*
X-9010208Y7879658D01*
X-9077551Y7812314D01*
X-9178566Y7778643D01*
X-9245910Y7778643D01*
X-9346925Y7812314D01*
X-9515284Y7913330D01*
X-9683643Y8081689D01*
X-9784658Y8250047D01*
X-9818330Y8351063D01*
X-9818330Y8418406D01*
X-9784658Y8519421D01*
X-8168414Y8721452D02*
X-8572475Y8317391D01*
X-8370444Y8519421D02*
X-9077551Y9226528D01*
X-9043879Y9058169D01*
X-9043879Y8923482D01*
X-9077551Y8822467D01*
G04 #@! TO.C,C111*
X41425952Y-44907142D02*
X41378333Y-44954761D01*
X41235476Y-45002380D01*
X41140238Y-45002380D01*
X40997380Y-44954761D01*
X40902142Y-44859523D01*
X40854523Y-44764285D01*
X40806904Y-44573809D01*
X40806904Y-44430952D01*
X40854523Y-44240476D01*
X40902142Y-44145238D01*
X40997380Y-44050000D01*
X41140238Y-44002380D01*
X41235476Y-44002380D01*
X41378333Y-44050000D01*
X41425952Y-44097619D01*
X42378333Y-45002380D02*
X41806904Y-45002380D01*
X42092619Y-45002380D02*
X42092619Y-44002380D01*
X41997380Y-44145238D01*
X41902142Y-44240476D01*
X41806904Y-44288095D01*
X43330714Y-45002380D02*
X42759285Y-45002380D01*
X43045000Y-45002380D02*
X43045000Y-44002380D01*
X42949761Y-44145238D01*
X42854523Y-44240476D01*
X42759285Y-44288095D01*
X44283095Y-45002380D02*
X43711666Y-45002380D01*
X43997380Y-45002380D02*
X43997380Y-44002380D01*
X43902142Y-44145238D01*
X43806904Y-44240476D01*
X43711666Y-44288095D01*
G04 #@! TO.C,C112*
X46077142Y-43664047D02*
X46124761Y-43711666D01*
X46172380Y-43854523D01*
X46172380Y-43949761D01*
X46124761Y-44092619D01*
X46029523Y-44187857D01*
X45934285Y-44235476D01*
X45743809Y-44283095D01*
X45600952Y-44283095D01*
X45410476Y-44235476D01*
X45315238Y-44187857D01*
X45220000Y-44092619D01*
X45172380Y-43949761D01*
X45172380Y-43854523D01*
X45220000Y-43711666D01*
X45267619Y-43664047D01*
X46172380Y-42711666D02*
X46172380Y-43283095D01*
X46172380Y-42997380D02*
X45172380Y-42997380D01*
X45315238Y-43092619D01*
X45410476Y-43187857D01*
X45458095Y-43283095D01*
X46172380Y-41759285D02*
X46172380Y-42330714D01*
X46172380Y-42045000D02*
X45172380Y-42045000D01*
X45315238Y-42140238D01*
X45410476Y-42235476D01*
X45458095Y-42330714D01*
X45267619Y-41378333D02*
X45220000Y-41330714D01*
X45172380Y-41235476D01*
X45172380Y-40997380D01*
X45220000Y-40902142D01*
X45267619Y-40854523D01*
X45362857Y-40806904D01*
X45458095Y-40806904D01*
X45600952Y-40854523D01*
X46172380Y-41425952D01*
X46172380Y-40806904D01*
G04 #@! TO.C,C113*
X15597142Y43330952D02*
X15644761Y43283333D01*
X15692380Y43140476D01*
X15692380Y43045238D01*
X15644761Y42902380D01*
X15549523Y42807142D01*
X15454285Y42759523D01*
X15263809Y42711904D01*
X15120952Y42711904D01*
X14930476Y42759523D01*
X14835238Y42807142D01*
X14740000Y42902380D01*
X14692380Y43045238D01*
X14692380Y43140476D01*
X14740000Y43283333D01*
X14787619Y43330952D01*
X15692380Y44283333D02*
X15692380Y43711904D01*
X15692380Y43997619D02*
X14692380Y43997619D01*
X14835238Y43902380D01*
X14930476Y43807142D01*
X14978095Y43711904D01*
X15692380Y45235714D02*
X15692380Y44664285D01*
X15692380Y44950000D02*
X14692380Y44950000D01*
X14835238Y44854761D01*
X14930476Y44759523D01*
X14978095Y44664285D01*
X14692380Y45569047D02*
X14692380Y46188095D01*
X15073333Y45854761D01*
X15073333Y45997619D01*
X15120952Y46092857D01*
X15168571Y46140476D01*
X15263809Y46188095D01*
X15501904Y46188095D01*
X15597142Y46140476D01*
X15644761Y46092857D01*
X15692380Y45997619D01*
X15692380Y45711904D01*
X15644761Y45616666D01*
X15597142Y45569047D01*
G04 #@! TO.C,C114*
X9247141Y23010952D02*
X9294760Y22963333D01*
X9342379Y22820476D01*
X9342379Y22725238D01*
X9294760Y22582380D01*
X9199522Y22487142D01*
X9104284Y22439523D01*
X8913808Y22391904D01*
X8770951Y22391904D01*
X8580475Y22439523D01*
X8485237Y22487142D01*
X8389999Y22582380D01*
X8342379Y22725238D01*
X8342379Y22820476D01*
X8389999Y22963333D01*
X8437618Y23010952D01*
X9342379Y23963333D02*
X9342379Y23391904D01*
X9342379Y23677619D02*
X8342379Y23677619D01*
X8485237Y23582380D01*
X8580475Y23487142D01*
X8628094Y23391904D01*
X9342379Y24915714D02*
X9342379Y24344285D01*
X9342379Y24630000D02*
X8342379Y24630000D01*
X8485237Y24534761D01*
X8580475Y24439523D01*
X8628094Y24344285D01*
X8675713Y25772857D02*
X9342379Y25772857D01*
X8294760Y25534761D02*
X9009046Y25296666D01*
X9009046Y25915714D01*
G04 #@! TO.C,C115*
X10517142Y23010952D02*
X10564761Y22963333D01*
X10612380Y22820476D01*
X10612380Y22725238D01*
X10564761Y22582380D01*
X10469523Y22487142D01*
X10374285Y22439523D01*
X10183809Y22391904D01*
X10040952Y22391904D01*
X9850476Y22439523D01*
X9755238Y22487142D01*
X9660000Y22582380D01*
X9612380Y22725238D01*
X9612380Y22820476D01*
X9660000Y22963333D01*
X9707619Y23010952D01*
X10612380Y23963333D02*
X10612380Y23391904D01*
X10612380Y23677619D02*
X9612380Y23677619D01*
X9755238Y23582380D01*
X9850476Y23487142D01*
X9898095Y23391904D01*
X10612380Y24915714D02*
X10612380Y24344285D01*
X10612380Y24630000D02*
X9612380Y24630000D01*
X9755238Y24534761D01*
X9850476Y24439523D01*
X9898095Y24344285D01*
X9612380Y25820476D02*
X9612380Y25344285D01*
X10088571Y25296666D01*
X10040952Y25344285D01*
X9993333Y25439523D01*
X9993333Y25677619D01*
X10040952Y25772857D01*
X10088571Y25820476D01*
X10183809Y25868095D01*
X10421904Y25868095D01*
X10517142Y25820476D01*
X10564761Y25772857D01*
X10612380Y25677619D01*
X10612380Y25439523D01*
X10564761Y25344285D01*
X10517142Y25296666D01*
G04 #@! TO.C,D1*
X17292380Y25296904D02*
X16292380Y25296904D01*
X16292380Y25535000D01*
X16340000Y25677857D01*
X16435238Y25773095D01*
X16530476Y25820714D01*
X16720952Y25868333D01*
X16863809Y25868333D01*
X17054285Y25820714D01*
X17149523Y25773095D01*
X17244761Y25677857D01*
X17292380Y25535000D01*
X17292380Y25296904D01*
X17292380Y26820714D02*
X17292380Y26249285D01*
X17292380Y26535000D02*
X16292380Y26535000D01*
X16435238Y26439761D01*
X16530476Y26344523D01*
X16578095Y26249285D01*
G04 #@! TO.C,D2*
X8707380Y26566904D02*
X7707380Y26566904D01*
X7707380Y26805000D01*
X7755000Y26947857D01*
X7850238Y27043095D01*
X7945476Y27090714D01*
X8135952Y27138333D01*
X8278809Y27138333D01*
X8469285Y27090714D01*
X8564523Y27043095D01*
X8659761Y26947857D01*
X8707380Y26805000D01*
X8707380Y26566904D01*
X7802619Y27519285D02*
X7755000Y27566904D01*
X7707380Y27662142D01*
X7707380Y27900238D01*
X7755000Y27995476D01*
X7802619Y28043095D01*
X7897857Y28090714D01*
X7993095Y28090714D01*
X8135952Y28043095D01*
X8707380Y27471666D01*
X8707380Y28090714D01*
G04 #@! TO.C,U11*
X41941904Y-38862380D02*
X41941904Y-39671904D01*
X41989523Y-39767142D01*
X42037142Y-39814761D01*
X42132380Y-39862380D01*
X42322857Y-39862380D01*
X42418095Y-39814761D01*
X42465714Y-39767142D01*
X42513333Y-39671904D01*
X42513333Y-38862380D01*
X43513333Y-39862380D02*
X42941904Y-39862380D01*
X43227619Y-39862380D02*
X43227619Y-38862380D01*
X43132380Y-39005238D01*
X43037142Y-39100476D01*
X42941904Y-39148095D01*
X44465714Y-39862380D02*
X43894285Y-39862380D01*
X44180000Y-39862380D02*
X44180000Y-38862380D01*
X44084761Y-39005238D01*
X43989523Y-39100476D01*
X43894285Y-39148095D01*
G04 #@! TO.C,U12*
X9252380Y43211904D02*
X10061904Y43211904D01*
X10157142Y43259523D01*
X10204761Y43307142D01*
X10252380Y43402380D01*
X10252380Y43592857D01*
X10204761Y43688095D01*
X10157142Y43735714D01*
X10061904Y43783333D01*
X9252380Y43783333D01*
X10252380Y44783333D02*
X10252380Y44211904D01*
X10252380Y44497619D02*
X9252380Y44497619D01*
X9395238Y44402380D01*
X9490476Y44307142D01*
X9538095Y44211904D01*
X9347619Y45164285D02*
X9300000Y45211904D01*
X9252380Y45307142D01*
X9252380Y45545238D01*
X9300000Y45640476D01*
X9347619Y45688095D01*
X9442857Y45735714D01*
X9538095Y45735714D01*
X9680952Y45688095D01*
X10252380Y45116666D01*
X10252380Y45735714D01*
G04 #@! TO.C,U13*
X41092380Y-24733095D02*
X41901904Y-24733095D01*
X41997142Y-24685476D01*
X42044761Y-24637857D01*
X42092380Y-24542619D01*
X42092380Y-24352142D01*
X42044761Y-24256904D01*
X41997142Y-24209285D01*
X41901904Y-24161666D01*
X41092380Y-24161666D01*
X42092380Y-23161666D02*
X42092380Y-23733095D01*
X42092380Y-23447380D02*
X41092380Y-23447380D01*
X41235238Y-23542619D01*
X41330476Y-23637857D01*
X41378095Y-23733095D01*
X41092380Y-22828333D02*
X41092380Y-22209285D01*
X41473333Y-22542619D01*
X41473333Y-22399761D01*
X41520952Y-22304523D01*
X41568571Y-22256904D01*
X41663809Y-22209285D01*
X41901904Y-22209285D01*
X41997142Y-22256904D01*
X42044761Y-22304523D01*
X42092380Y-22399761D01*
X42092380Y-22685476D01*
X42044761Y-22780714D01*
X41997142Y-22828333D01*
G04 #@! TO.C,C122*
X-28348824Y3713748D02*
X-28416167Y3713748D01*
X-28550854Y3781091D01*
X-28618198Y3848435D01*
X-28685541Y3983122D01*
X-28685541Y4117809D01*
X-28651870Y4218824D01*
X-28550854Y4387183D01*
X-28449839Y4488198D01*
X-28281480Y4589213D01*
X-28180465Y4622885D01*
X-28045778Y4622885D01*
X-27911091Y4555541D01*
X-27843748Y4488198D01*
X-27776404Y4353511D01*
X-27776404Y4286167D01*
X-27742732Y2972969D02*
X-28146793Y3377030D01*
X-27944763Y3174999D02*
X-27237656Y3882106D01*
X-27406015Y3848435D01*
X-27540702Y3848435D01*
X-27641717Y3882106D01*
X-26833595Y3343358D02*
X-26766251Y3343358D01*
X-26665236Y3309687D01*
X-26496877Y3141328D01*
X-26463206Y3040312D01*
X-26463206Y2972969D01*
X-26496877Y2871954D01*
X-26564221Y2804610D01*
X-26698908Y2737267D01*
X-27507030Y2737267D01*
X-27069297Y2299534D01*
X-26160160Y2669923D02*
X-26092816Y2669923D01*
X-25991801Y2636251D01*
X-25823442Y2467893D01*
X-25789771Y2366877D01*
X-25789771Y2299534D01*
X-25823442Y2198519D01*
X-25890786Y2131175D01*
X-26025473Y2063832D01*
X-26833595Y2063832D01*
X-26395862Y1626099D01*
G04 #@! TD*
M02*
