M48
;DRILL file {KiCad 5.0.2-bee76a0~70~ubuntu16.04.1} date Чт 06 июн 2019 06:46:00
;FORMAT={-:-/ absolute / inch / decimal}
FMAT,2
INCH,TZ
T1C0.0122
T2C0.0157
T3C0.0236
T4C0.0335
T5C0.0394
T6C0.0866
%
G90
G05
T1
X1.0161Y-3.7161
X1.0161Y-3.7697
X1.0161Y-3.8232
X1.0161Y-3.8768
X1.0161Y-3.9303
X1.0161Y-3.9839
X1.0697Y-3.7161
X1.0697Y-3.7697
X1.0697Y-3.8232
X1.0697Y-3.8768
X1.0697Y-3.9303
X1.0697Y-3.9839
X1.1232Y-3.7161
X1.1232Y-3.7697
X1.1232Y-3.8232
X1.1232Y-3.8768
X1.1232Y-3.9303
X1.1232Y-3.9839
X1.1768Y-3.7161
X1.1768Y-3.7697
X1.1768Y-3.8232
X1.1768Y-3.8768
X1.1768Y-3.9303
X1.1768Y-3.9839
X1.2303Y-3.7161
X1.2303Y-3.7697
X1.2303Y-3.8232
X1.2303Y-3.8768
X1.2303Y-3.9303
X1.2303Y-3.9839
X1.2839Y-3.7161
X1.2839Y-3.7697
X1.2839Y-3.8232
X1.2839Y-3.8768
X1.2839Y-3.9303
X1.2839Y-3.9839
X3.7155Y-1.0161
X3.7155Y-1.0697
X3.7155Y-1.1232
X3.7155Y-1.1768
X3.7155Y-1.2303
X3.7155Y-1.2839
X3.769Y-1.0161
X3.769Y-1.0697
X3.769Y-1.1232
X3.769Y-1.1768
X3.769Y-1.2303
X3.769Y-1.2839
X3.8226Y-1.0161
X3.8226Y-1.0697
X3.8226Y-1.1232
X3.8226Y-1.1768
X3.8226Y-1.2303
X3.8226Y-1.2839
X3.8761Y-1.0161
X3.8761Y-1.0697
X3.8761Y-1.1232
X3.8761Y-1.1768
X3.8761Y-1.2303
X3.8761Y-1.2839
X3.9297Y-1.0161
X3.9297Y-1.0697
X3.9297Y-1.1232
X3.9297Y-1.1768
X3.9297Y-1.2303
X3.9297Y-1.2839
X3.9832Y-1.0161
X3.9832Y-1.0697
X3.9832Y-1.1232
X3.9832Y-1.1768
X3.9832Y-1.2303
X3.9832Y-1.2839
X2.2661Y-3.7161
X2.2661Y-3.7697
X2.2661Y-3.8232
X2.2661Y-3.8768
X2.2661Y-3.9303
X2.2661Y-3.9839
X2.3197Y-3.7161
X2.3197Y-3.7697
X2.3197Y-3.8232
X2.3197Y-3.8768
X2.3197Y-3.9303
X2.3197Y-3.9839
X2.3732Y-3.7161
X2.3732Y-3.7697
X2.3732Y-3.8232
X2.3732Y-3.8768
X2.3732Y-3.9303
X2.3732Y-3.9839
X2.4268Y-3.7161
X2.4268Y-3.7697
X2.4268Y-3.8232
X2.4268Y-3.8768
X2.4268Y-3.9303
X2.4268Y-3.9839
X2.4803Y-3.7161
X2.4803Y-3.7697
X2.4803Y-3.8232
X2.4803Y-3.8768
X2.4803Y-3.9303
X2.4803Y-3.9839
X2.5339Y-3.7161
X2.5339Y-3.7697
X2.5339Y-3.8232
X2.5339Y-3.8768
X2.5339Y-3.9303
X2.5339Y-3.9839
X3.7161Y-2.2661
X3.7161Y-2.3197
X3.7161Y-2.3732
X3.7161Y-2.4268
X3.7161Y-2.4803
X3.7161Y-2.5339
X3.7697Y-2.2661
X3.7697Y-2.3197
X3.7697Y-2.3732
X3.7697Y-2.4268
X3.7697Y-2.4803
X3.7697Y-2.5339
X3.8232Y-2.2661
X3.8232Y-2.3197
X3.8232Y-2.3732
X3.8232Y-2.4268
X3.8232Y-2.4803
X3.8232Y-2.5339
X3.8768Y-2.2661
X3.8768Y-2.3197
X3.8768Y-2.3732
X3.8768Y-2.4268
X3.8768Y-2.4803
X3.8768Y-2.5339
X3.9303Y-2.2661
X3.9303Y-2.3197
X3.9303Y-2.3732
X3.9303Y-2.4268
X3.9303Y-2.4803
X3.9303Y-2.5339
X3.9839Y-2.2661
X3.9839Y-2.3197
X3.9839Y-2.3732
X3.9839Y-2.4268
X3.9839Y-2.4803
X3.9839Y-2.5339
T2
X0.88Y-1.2
X1.015Y-1.785
X1.325Y-1.6
X1.325Y-1.9
X1.325Y-1.975
X1.575Y-1.325
X1.6Y-1.975
X1.775Y-1.325
X1.775Y-1.975
X1.975Y-1.325
X1.975Y-1.8
T4
X0.7126Y-2.9016
X0.7126Y-3.0984
T5
X1.93Y-2.85
X1.93Y-2.95
X1.93Y-3.05
X1.93Y-3.15
X2.03Y-2.85
X2.03Y-2.95
X2.03Y-3.05
X2.03Y-3.15
X3.2244Y-3.2031
X3.2244Y-3.3031
X3.2244Y-3.4031
X3.2244Y-3.5031
X3.5Y-2.85
X3.5Y-2.95
X3.6Y-2.85
X3.6Y-2.95
X3.7Y-2.85
X3.7Y-2.95
X3.8Y-2.85
X3.8Y-2.95
X3.9Y-2.85
X3.9Y-2.95
X4.Y-2.85
X4.Y-2.95
X4.1Y-2.85
X4.1Y-2.95
X4.2Y-2.85
X4.2Y-2.95
X0.8Y-4.3
X0.8Y-4.4
X0.9Y-4.3
X0.9Y-4.4
X1.Y-4.3
X1.Y-4.4
X1.1Y-4.3
X1.1Y-4.4
X1.2Y-4.3
X1.2Y-4.4
X1.3Y-4.3
X1.3Y-4.4
X1.4Y-4.3
X1.4Y-4.4
X1.5Y-4.3
X1.5Y-4.4
X4.0986Y-3.2052
X4.1986Y-3.2052
X4.2986Y-3.2052
X2.95Y-1.675
X3.05Y-1.675
X0.6Y-0.8
X0.6Y-0.9
X0.6Y-1.
X0.6Y-1.1
X0.6Y-1.2
X0.6Y-1.3
X0.6Y-1.4
X0.6Y-1.5
X0.6Y-1.6
X0.6Y-1.7
X0.6Y-1.8
X0.6Y-1.9
X0.6Y-2.
X0.6Y-2.1
X0.6Y-2.2
X0.6Y-2.3
X0.6Y-2.4
X0.6Y-2.5
X0.7Y-0.8
X0.7Y-0.9
X0.7Y-1.
X0.7Y-1.1
X0.7Y-1.2
X0.7Y-1.3
X0.7Y-1.4
X0.7Y-1.5
X0.7Y-1.6
X0.7Y-1.7
X0.7Y-1.8
X0.7Y-1.9
X0.7Y-2.
X0.7Y-2.1
X0.7Y-2.2
X0.7Y-2.3
X0.7Y-2.4
X0.7Y-2.5
X3.9986Y-3.2038
X3.9986Y-3.3038
X3.9986Y-3.4038
X3.9986Y-3.5038
X3.7425Y-4.0852
X3.7425Y-4.1852
X3.7425Y-4.2852
X3.7425Y-4.3852
X4.3986Y-3.2038
X4.3986Y-3.3038
X4.3986Y-3.4038
X4.3986Y-3.5038
X4.0986Y-3.5052
X4.1986Y-3.5052
X4.2986Y-3.5052
X3.2258Y-3.649
X3.3258Y-3.649
X3.4258Y-3.649
X3.2258Y-3.949
X3.3258Y-3.949
X3.4258Y-3.949
X0.8Y-2.6
X0.8Y-2.7
X0.9Y-2.6
X0.9Y-2.7
X1.Y-2.6
X1.Y-2.7
X1.1Y-2.6
X1.1Y-2.7
X1.2Y-2.6
X1.2Y-2.7
X1.3Y-2.6
X1.3Y-2.7
X1.4Y-2.6
X1.4Y-2.7
X1.5Y-2.6
X1.5Y-2.7
X1.6Y-2.6
X1.6Y-2.7
X1.7Y-2.6
X1.7Y-2.7
X1.8Y-2.6
X1.8Y-2.7
X1.9Y-2.6
X1.9Y-2.7
X2.Y-2.6
X2.Y-2.7
X2.1Y-2.6
X2.1Y-2.7
X2.2Y-2.6
X2.2Y-2.7
X2.3Y-2.6
X2.3Y-2.7
X2.4Y-2.6
X2.4Y-2.7
X2.5Y-2.6
X2.5Y-2.7
X3.5693Y-3.9511
X3.6693Y-3.9511
X3.7693Y-3.9511
X2.6Y-0.8
X2.6Y-0.9
X2.6Y-1.
X2.6Y-1.1
X2.6Y-1.2
X2.6Y-1.3
X2.6Y-1.4
X2.6Y-1.5
X2.6Y-1.6
X2.6Y-1.7
X2.6Y-1.8
X2.6Y-1.9
X2.6Y-2.
X2.6Y-2.1
X2.6Y-2.2
X2.6Y-2.3
X2.6Y-2.4
X2.6Y-2.5
X2.7Y-0.8
X2.7Y-0.9
X2.7Y-1.
X2.7Y-1.1
X2.7Y-1.2
X2.7Y-1.3
X2.7Y-1.4
X2.7Y-1.5
X2.7Y-1.6
X2.7Y-1.7
X2.7Y-1.8
X2.7Y-1.9
X2.7Y-2.
X2.7Y-2.1
X2.7Y-2.2
X2.7Y-2.3
X2.7Y-2.4
X2.7Y-2.5
X2.18Y-2.85
X2.18Y-2.95
X2.18Y-3.05
X2.18Y-3.15
X2.28Y-2.85
X2.28Y-2.95
X2.28Y-3.05
X2.28Y-3.15
X4.3Y-0.8
X4.3Y-0.9
X4.3Y-1.
X4.3Y-1.1
X4.3Y-1.2
X4.3Y-1.3
X4.3Y-1.4
X4.3Y-1.5
X4.4Y-0.8
X4.4Y-0.9
X4.4Y-1.
X4.4Y-1.1
X4.4Y-1.2
X4.4Y-1.3
X4.4Y-1.4
X4.4Y-1.5
X4.3Y-2.05
X4.3Y-2.15
X4.3Y-2.25
X4.3Y-2.35
X4.3Y-2.45
X4.3Y-2.55
X4.3Y-2.65
X4.3Y-2.75
X4.4Y-2.05
X4.4Y-2.15
X4.4Y-2.25
X4.4Y-2.35
X4.4Y-2.45
X4.4Y-2.55
X4.4Y-2.65
X4.4Y-2.75
X2.85Y-1.8
X2.85Y-1.9
X2.95Y-1.8
X2.95Y-1.9
X3.05Y-1.8
X3.05Y-1.9
X3.15Y-1.8
X3.15Y-1.9
X3.5Y-1.85
X3.5Y-1.95
X3.6Y-1.85
X3.6Y-1.95
X3.7Y-1.85
X3.7Y-1.95
X3.8Y-1.85
X3.8Y-1.95
X3.9Y-1.85
X3.9Y-1.95
X4.Y-1.85
X4.Y-1.95
X4.1Y-1.85
X4.1Y-1.95
X4.2Y-1.85
X4.2Y-1.95
X2.05Y-4.3
X2.05Y-4.4
X2.15Y-4.3
X2.15Y-4.4
X2.25Y-4.3
X2.25Y-4.4
X2.35Y-4.3
X2.35Y-4.4
X2.45Y-4.3
X2.45Y-4.4
X2.55Y-4.3
X2.55Y-4.4
X2.65Y-4.3
X2.65Y-4.4
X2.75Y-4.3
X2.75Y-4.4
X0.6Y-3.5
X0.6Y-3.6
X0.6Y-3.7
X0.6Y-3.8
X0.6Y-3.9
X0.6Y-4.
X0.6Y-4.1
X0.6Y-4.2
X0.7Y-3.5
X0.7Y-3.6
X0.7Y-3.7
X0.7Y-3.8
X0.7Y-3.9
X0.7Y-4.
X0.7Y-4.1
X0.7Y-4.2
X3.5Y-0.6
X3.5Y-0.7
X3.6Y-0.6
X3.6Y-0.7
X3.7Y-0.6
X3.7Y-0.7
X3.8Y-0.6
X3.8Y-0.7
X3.9Y-0.6
X3.9Y-0.7
X4.Y-0.6
X4.Y-0.7
X4.1Y-0.6
X4.1Y-0.7
X4.2Y-0.6
X4.2Y-0.7
X2.05Y-3.3
X2.05Y-3.4
X2.15Y-3.3
X2.15Y-3.4
X2.25Y-3.3
X2.25Y-3.4
X2.35Y-3.3
X2.35Y-3.4
X2.45Y-3.3
X2.45Y-3.4
X2.55Y-3.3
X2.55Y-3.4
X2.65Y-3.3
X2.65Y-3.4
X2.75Y-3.3
X2.75Y-3.4
X3.656Y-3.2024
X3.756Y-3.2024
X3.856Y-3.2024
X1.85Y-3.5
X1.85Y-3.6
X1.85Y-3.7
X1.85Y-3.8
X1.85Y-3.9
X1.85Y-4.
X1.85Y-4.1
X1.85Y-4.2
X1.95Y-3.5
X1.95Y-3.6
X1.95Y-3.7
X1.95Y-3.8
X1.95Y-3.9
X1.95Y-4.
X1.95Y-4.1
X1.95Y-4.2
X3.5693Y-3.6511
X3.6693Y-3.6511
X3.7693Y-3.6511
X1.6Y-3.5
X1.6Y-3.6
X1.6Y-3.7
X1.6Y-3.8
X1.6Y-3.9
X1.6Y-4.
X1.6Y-4.1
X1.6Y-4.2
X1.7Y-3.5
X1.7Y-3.6
X1.7Y-3.7
X1.7Y-3.8
X1.7Y-3.9
X1.7Y-4.
X1.7Y-4.1
X1.7Y-4.2
X0.8Y-0.6
X0.8Y-0.7
X0.9Y-0.6
X0.9Y-0.7
X1.Y-0.6
X1.Y-0.7
X1.1Y-0.6
X1.1Y-0.7
X1.2Y-0.6
X1.2Y-0.7
X1.3Y-0.6
X1.3Y-0.7
X1.4Y-0.6
X1.4Y-0.7
X1.5Y-0.6
X1.5Y-0.7
X1.6Y-0.6
X1.6Y-0.7
X1.7Y-0.6
X1.7Y-0.7
X1.8Y-0.6
X1.8Y-0.7
X1.9Y-0.6
X1.9Y-0.7
X2.Y-0.6
X2.Y-0.7
X2.1Y-0.6
X2.1Y-0.7
X2.2Y-0.6
X2.2Y-0.7
X2.3Y-0.6
X2.3Y-0.7
X2.4Y-0.6
X2.4Y-0.7
X2.5Y-0.6
X2.5Y-0.7
X0.855Y-2.9
X0.855Y-3.
X0.855Y-3.1
X0.955Y-2.9
X0.955Y-3.
X0.955Y-3.1
X2.95Y-0.6
X3.05Y-0.6
X3.2425Y-4.0852
X3.2425Y-4.1852
X3.2425Y-4.2852
X3.2425Y-4.3852
X2.98Y-2.85
X2.98Y-2.95
X2.98Y-3.05
X2.98Y-3.15
X3.08Y-2.85
X3.08Y-2.95
X3.08Y-3.05
X3.08Y-3.15
X2.85Y-3.5
X2.85Y-3.6
X2.85Y-3.7
X2.85Y-3.8
X2.85Y-3.9
X2.85Y-4.
X2.85Y-4.1
X2.85Y-4.2
X2.95Y-3.5
X2.95Y-3.6
X2.95Y-3.7
X2.95Y-3.8
X2.95Y-3.9
X2.95Y-4.
X2.95Y-4.1
X2.95Y-4.2
X0.8Y-3.3
X0.8Y-3.4
X0.9Y-3.3
X0.9Y-3.4
X1.Y-3.3
X1.Y-3.4
X1.1Y-3.3
X1.1Y-3.4
X1.2Y-3.3
X1.2Y-3.4
X1.3Y-3.3
X1.3Y-3.4
X1.4Y-3.3
X1.4Y-3.4
X1.5Y-3.3
X1.5Y-3.4
X2.85Y-2.6
X2.85Y-2.7
X2.95Y-2.6
X2.95Y-2.7
X3.05Y-2.6
X3.05Y-2.7
X3.15Y-2.6
X3.15Y-2.7
X3.9543Y-3.652
X3.9543Y-3.752
X4.0543Y-3.652
X4.0543Y-3.752
X4.1543Y-3.652
X4.1543Y-3.752
X4.2543Y-3.652
X4.2543Y-3.752
X4.3543Y-3.652
X4.3543Y-3.752
X3.3Y-0.8
X3.3Y-0.9
X3.3Y-1.
X3.3Y-1.1
X3.3Y-1.2
X3.3Y-1.3
X3.3Y-1.4
X3.3Y-1.5
X3.4Y-0.8
X3.4Y-0.9
X3.4Y-1.
X3.4Y-1.1
X3.4Y-1.2
X3.4Y-1.3
X3.4Y-1.4
X3.4Y-1.5
X3.3Y-2.05
X3.3Y-2.15
X3.3Y-2.25
X3.3Y-2.35
X3.3Y-2.45
X3.3Y-2.55
X3.3Y-2.65
X3.3Y-2.75
X3.4Y-2.05
X3.4Y-2.15
X3.4Y-2.25
X3.4Y-2.35
X3.4Y-2.45
X3.4Y-2.55
X3.4Y-2.65
X3.4Y-2.75
X3.4994Y-1.6
X3.4994Y-1.7
X3.5994Y-1.6
X3.5994Y-1.7
X3.6994Y-1.6
X3.6994Y-1.7
X3.7994Y-1.6
X3.7994Y-1.7
X3.8994Y-1.6
X3.8994Y-1.7
X3.9994Y-1.6
X3.9994Y-1.7
X4.0994Y-1.6
X4.0994Y-1.7
X4.1994Y-1.6
X4.1994Y-1.7
X3.656Y-3.5024
X3.756Y-3.5024
X3.856Y-3.5024
X1.13Y-2.85
X1.13Y-2.95
X1.13Y-3.05
X1.13Y-3.15
X1.23Y-2.85
X1.23Y-2.95
X1.23Y-3.05
X1.23Y-3.15
T6
X0.65Y-3.35
X1.9Y-3.35
X4.35Y-2.9
X3.3494Y-1.65
X0.65Y-2.65
X1.9Y-4.35
X2.9Y-4.35
X1.65Y-3.35
X2.9Y-3.35
X3.35Y-2.9
X0.65Y-0.65
X3.35Y-1.9
X3.3494Y-0.65
X0.65Y-4.35
X2.65Y-2.65
X4.3494Y-0.65
X2.65Y-0.65
X4.3494Y-1.65
X4.35Y-1.9
X1.65Y-4.35
T3
X0.5925Y-2.8622G85X0.6201Y-2.8622
G05
X0.6201Y-3.1378G85X0.5925Y-3.1378
G05
T0
M30
