G04 #@! TF.GenerationSoftware,KiCad,Pcbnew,5.0.2-bee76a0~70~ubuntu16.04.1*
G04 #@! TF.CreationDate,2019-06-06T06:45:58+03:00*
G04 #@! TF.ProjectId,FreeEEG32-prealpha2,46726565-4545-4473-9332-2d707265616c,rev?*
G04 #@! TF.SameCoordinates,Original*
G04 #@! TF.FileFunction,Legend,Top*
G04 #@! TF.FilePolarity,Positive*
%FSLAX46Y46*%
G04 Gerber Fmt 4.6, Leading zero omitted, Abs format (unit mm)*
G04 Created by KiCad (PCBNEW 5.0.2-bee76a0~70~ubuntu16.04.1) date Чт 06 июн 2019 06:45:58*
%MOMM*%
%LPD*%
G01*
G04 APERTURE LIST*
%ADD10C,0.200000*%
%ADD11C,0.120000*%
%ADD12C,0.150000*%
%ADD13C,0.100000*%
G04 APERTURE END LIST*
D10*
X90628571Y-77742857D02*
X90628571Y-78542857D01*
X90628571Y-77857142D02*
X90685714Y-77800000D01*
X90800000Y-77742857D01*
X90971428Y-77742857D01*
X91085714Y-77800000D01*
X91142857Y-77914285D01*
X91142857Y-78542857D01*
X92171428Y-78485714D02*
X92057142Y-78542857D01*
X91828571Y-78542857D01*
X91714285Y-78485714D01*
X91657142Y-78371428D01*
X91657142Y-77914285D01*
X91714285Y-77800000D01*
X91828571Y-77742857D01*
X92057142Y-77742857D01*
X92171428Y-77800000D01*
X92228571Y-77914285D01*
X92228571Y-78028571D01*
X91657142Y-78142857D01*
X93257142Y-77742857D02*
X93257142Y-78542857D01*
X92742857Y-77742857D02*
X92742857Y-78371428D01*
X92800000Y-78485714D01*
X92914285Y-78542857D01*
X93085714Y-78542857D01*
X93200000Y-78485714D01*
X93257142Y-78428571D01*
X93828571Y-78542857D02*
X93828571Y-77742857D01*
X93828571Y-77971428D02*
X93885714Y-77857142D01*
X93942857Y-77800000D01*
X94057142Y-77742857D01*
X94171428Y-77742857D01*
X94742857Y-78542857D02*
X94628571Y-78485714D01*
X94571428Y-78428571D01*
X94514285Y-78314285D01*
X94514285Y-77971428D01*
X94571428Y-77857142D01*
X94628571Y-77800000D01*
X94742857Y-77742857D01*
X94914285Y-77742857D01*
X95028571Y-77800000D01*
X95085714Y-77857142D01*
X95142857Y-77971428D01*
X95142857Y-78314285D01*
X95085714Y-78428571D01*
X95028571Y-78485714D01*
X94914285Y-78542857D01*
X94742857Y-78542857D01*
X95657142Y-78542857D02*
X95657142Y-77742857D01*
X95657142Y-77342857D02*
X95600000Y-77400000D01*
X95657142Y-77457142D01*
X95714285Y-77400000D01*
X95657142Y-77342857D01*
X95657142Y-77457142D01*
X96742857Y-78542857D02*
X96742857Y-77342857D01*
X96742857Y-78485714D02*
X96628571Y-78542857D01*
X96400000Y-78542857D01*
X96285714Y-78485714D01*
X96228571Y-78428571D01*
X96171428Y-78314285D01*
X96171428Y-77971428D01*
X96228571Y-77857142D01*
X96285714Y-77800000D01*
X96400000Y-77742857D01*
X96628571Y-77742857D01*
X96742857Y-77800000D01*
X97257142Y-78485714D02*
X97371428Y-78542857D01*
X97600000Y-78542857D01*
X97714285Y-78485714D01*
X97771428Y-78371428D01*
X97771428Y-78314285D01*
X97714285Y-78200000D01*
X97600000Y-78142857D01*
X97428571Y-78142857D01*
X97314285Y-78085714D01*
X97257142Y-77971428D01*
X97257142Y-77914285D01*
X97314285Y-77800000D01*
X97428571Y-77742857D01*
X97600000Y-77742857D01*
X97714285Y-77800000D01*
X98228571Y-78485714D02*
X98342857Y-78542857D01*
X98571428Y-78542857D01*
X98685714Y-78485714D01*
X98742857Y-78371428D01*
X98742857Y-78314285D01*
X98685714Y-78200000D01*
X98571428Y-78142857D01*
X98400000Y-78142857D01*
X98285714Y-78085714D01*
X98228571Y-77971428D01*
X98228571Y-77914285D01*
X98285714Y-77800000D01*
X98400000Y-77742857D01*
X98571428Y-77742857D01*
X98685714Y-77800000D01*
X99257142Y-78428571D02*
X99314285Y-78485714D01*
X99257142Y-78542857D01*
X99200000Y-78485714D01*
X99257142Y-78428571D01*
X99257142Y-78542857D01*
X100342857Y-78485714D02*
X100228571Y-78542857D01*
X100000000Y-78542857D01*
X99885714Y-78485714D01*
X99828571Y-78428571D01*
X99771428Y-78314285D01*
X99771428Y-77971428D01*
X99828571Y-77857142D01*
X99885714Y-77800000D01*
X100000000Y-77742857D01*
X100228571Y-77742857D01*
X100342857Y-77800000D01*
X101028571Y-78542857D02*
X100914285Y-78485714D01*
X100857142Y-78428571D01*
X100800000Y-78314285D01*
X100800000Y-77971428D01*
X100857142Y-77857142D01*
X100914285Y-77800000D01*
X101028571Y-77742857D01*
X101200000Y-77742857D01*
X101314285Y-77800000D01*
X101371428Y-77857142D01*
X101428571Y-77971428D01*
X101428571Y-78314285D01*
X101371428Y-78428571D01*
X101314285Y-78485714D01*
X101200000Y-78542857D01*
X101028571Y-78542857D01*
X101942857Y-78542857D02*
X101942857Y-77742857D01*
X101942857Y-77857142D02*
X102000000Y-77800000D01*
X102114285Y-77742857D01*
X102285714Y-77742857D01*
X102400000Y-77800000D01*
X102457142Y-77914285D01*
X102457142Y-78542857D01*
X102457142Y-77914285D02*
X102514285Y-77800000D01*
X102628571Y-77742857D01*
X102800000Y-77742857D01*
X102914285Y-77800000D01*
X102971428Y-77914285D01*
X102971428Y-78542857D01*
X78214285Y-106400000D02*
X78214285Y-106800000D01*
X78842857Y-106800000D02*
X77642857Y-106800000D01*
X77642857Y-106228571D01*
X78842857Y-105771428D02*
X78042857Y-105771428D01*
X78271428Y-105771428D02*
X78157142Y-105714285D01*
X78100000Y-105657142D01*
X78042857Y-105542857D01*
X78042857Y-105428571D01*
X78785714Y-104571428D02*
X78842857Y-104685714D01*
X78842857Y-104914285D01*
X78785714Y-105028571D01*
X78671428Y-105085714D01*
X78214285Y-105085714D01*
X78100000Y-105028571D01*
X78042857Y-104914285D01*
X78042857Y-104685714D01*
X78100000Y-104571428D01*
X78214285Y-104514285D01*
X78328571Y-104514285D01*
X78442857Y-105085714D01*
X78785714Y-103542857D02*
X78842857Y-103657142D01*
X78842857Y-103885714D01*
X78785714Y-104000000D01*
X78671428Y-104057142D01*
X78214285Y-104057142D01*
X78100000Y-104000000D01*
X78042857Y-103885714D01*
X78042857Y-103657142D01*
X78100000Y-103542857D01*
X78214285Y-103485714D01*
X78328571Y-103485714D01*
X78442857Y-104057142D01*
X78214285Y-102971428D02*
X78214285Y-102571428D01*
X78842857Y-102400000D02*
X78842857Y-102971428D01*
X77642857Y-102971428D01*
X77642857Y-102400000D01*
X78214285Y-101885714D02*
X78214285Y-101485714D01*
X78842857Y-101314285D02*
X78842857Y-101885714D01*
X77642857Y-101885714D01*
X77642857Y-101314285D01*
X77700000Y-100171428D02*
X77642857Y-100285714D01*
X77642857Y-100457142D01*
X77700000Y-100628571D01*
X77814285Y-100742857D01*
X77928571Y-100800000D01*
X78157142Y-100857142D01*
X78328571Y-100857142D01*
X78557142Y-100800000D01*
X78671428Y-100742857D01*
X78785714Y-100628571D01*
X78842857Y-100457142D01*
X78842857Y-100342857D01*
X78785714Y-100171428D01*
X78728571Y-100114285D01*
X78328571Y-100114285D01*
X78328571Y-100342857D01*
X77642857Y-99714285D02*
X77642857Y-98971428D01*
X78100000Y-99371428D01*
X78100000Y-99200000D01*
X78157142Y-99085714D01*
X78214285Y-99028571D01*
X78328571Y-98971428D01*
X78614285Y-98971428D01*
X78728571Y-99028571D01*
X78785714Y-99085714D01*
X78842857Y-99200000D01*
X78842857Y-99542857D01*
X78785714Y-99657142D01*
X78728571Y-99714285D01*
X77757142Y-98514285D02*
X77700000Y-98457142D01*
X77642857Y-98342857D01*
X77642857Y-98057142D01*
X77700000Y-97942857D01*
X77757142Y-97885714D01*
X77871428Y-97828571D01*
X77985714Y-97828571D01*
X78157142Y-97885714D01*
X78842857Y-98571428D01*
X78842857Y-97828571D01*
X78042857Y-96400000D02*
X79242857Y-96400000D01*
X78100000Y-96400000D02*
X78042857Y-96285714D01*
X78042857Y-96057142D01*
X78100000Y-95942857D01*
X78157142Y-95885714D01*
X78271428Y-95828571D01*
X78614285Y-95828571D01*
X78728571Y-95885714D01*
X78785714Y-95942857D01*
X78842857Y-96057142D01*
X78842857Y-96285714D01*
X78785714Y-96400000D01*
X78842857Y-95314285D02*
X78042857Y-95314285D01*
X78271428Y-95314285D02*
X78157142Y-95257142D01*
X78100000Y-95200000D01*
X78042857Y-95085714D01*
X78042857Y-94971428D01*
X78785714Y-94114285D02*
X78842857Y-94228571D01*
X78842857Y-94457142D01*
X78785714Y-94571428D01*
X78671428Y-94628571D01*
X78214285Y-94628571D01*
X78100000Y-94571428D01*
X78042857Y-94457142D01*
X78042857Y-94228571D01*
X78100000Y-94114285D01*
X78214285Y-94057142D01*
X78328571Y-94057142D01*
X78442857Y-94628571D01*
X78842857Y-93028571D02*
X78214285Y-93028571D01*
X78100000Y-93085714D01*
X78042857Y-93200000D01*
X78042857Y-93428571D01*
X78100000Y-93542857D01*
X78785714Y-93028571D02*
X78842857Y-93142857D01*
X78842857Y-93428571D01*
X78785714Y-93542857D01*
X78671428Y-93600000D01*
X78557142Y-93600000D01*
X78442857Y-93542857D01*
X78385714Y-93428571D01*
X78385714Y-93142857D01*
X78328571Y-93028571D01*
X78842857Y-92285714D02*
X78785714Y-92400000D01*
X78671428Y-92457142D01*
X77642857Y-92457142D01*
X78042857Y-91828571D02*
X79242857Y-91828571D01*
X78100000Y-91828571D02*
X78042857Y-91714285D01*
X78042857Y-91485714D01*
X78100000Y-91371428D01*
X78157142Y-91314285D01*
X78271428Y-91257142D01*
X78614285Y-91257142D01*
X78728571Y-91314285D01*
X78785714Y-91371428D01*
X78842857Y-91485714D01*
X78842857Y-91714285D01*
X78785714Y-91828571D01*
X78842857Y-90742857D02*
X77642857Y-90742857D01*
X78842857Y-90228571D02*
X78214285Y-90228571D01*
X78100000Y-90285714D01*
X78042857Y-90400000D01*
X78042857Y-90571428D01*
X78100000Y-90685714D01*
X78157142Y-90742857D01*
X78842857Y-89142857D02*
X78214285Y-89142857D01*
X78100000Y-89200000D01*
X78042857Y-89314285D01*
X78042857Y-89542857D01*
X78100000Y-89657142D01*
X78785714Y-89142857D02*
X78842857Y-89257142D01*
X78842857Y-89542857D01*
X78785714Y-89657142D01*
X78671428Y-89714285D01*
X78557142Y-89714285D01*
X78442857Y-89657142D01*
X78385714Y-89542857D01*
X78385714Y-89257142D01*
X78328571Y-89142857D01*
X77757142Y-88628571D02*
X77700000Y-88571428D01*
X77642857Y-88457142D01*
X77642857Y-88171428D01*
X77700000Y-88057142D01*
X77757142Y-88000000D01*
X77871428Y-87942857D01*
X77985714Y-87942857D01*
X78157142Y-88000000D01*
X78842857Y-88685714D01*
X78842857Y-87942857D01*
D11*
G04 #@! TO.C,Y2*
X21571000Y-43611500D02*
X21571000Y-44861500D01*
X21571000Y-44861500D02*
X22371000Y-44861500D01*
X22371000Y-50261500D02*
X21571000Y-50261500D01*
X23771000Y-46861500D02*
X23771000Y-48261500D01*
X20171000Y-48261500D02*
X20171000Y-46861500D01*
X20171000Y-46861500D02*
X19521000Y-46861500D01*
G04 #@! TO.C,Y1*
X26926792Y-36835584D02*
X28199584Y-35562792D01*
X26714660Y-34007157D02*
X25936843Y-33229340D01*
X25371157Y-35350660D02*
X24593340Y-34572843D01*
G04 #@! TO.C,U8*
X87857911Y-90326647D02*
X87857911Y-88826647D01*
X87857911Y-88826647D02*
X86057911Y-88826647D01*
X86057911Y-81426647D02*
X87857911Y-81426647D01*
X84257911Y-86426647D02*
X84257911Y-83826647D01*
X89657911Y-83826647D02*
X89657911Y-86426647D01*
X89657911Y-86426647D02*
X90257911Y-86426647D01*
G04 #@! TO.C,C86*
X97270221Y-85790000D02*
X97595779Y-85790000D01*
X97270221Y-86810000D02*
X97595779Y-86810000D01*
G04 #@! TO.C,C85*
X97270221Y-84510000D02*
X97595779Y-84510000D01*
X97270221Y-83490000D02*
X97595779Y-83490000D01*
G04 #@! TO.C,U5*
X95741002Y-86050000D02*
X95741002Y-83600000D01*
X92521002Y-84250000D02*
X92521002Y-86050000D01*
G04 #@! TO.C,C109*
X86343221Y-94841000D02*
X86668779Y-94841000D01*
X86343221Y-95861000D02*
X86668779Y-95861000D01*
G04 #@! TO.C,C110*
X86343221Y-98147000D02*
X86668779Y-98147000D01*
X86343221Y-97127000D02*
X86668779Y-97127000D01*
G04 #@! TO.C,U10*
X81594000Y-95594000D02*
X81594000Y-97394000D01*
X84814000Y-97394000D02*
X84814000Y-94944000D01*
G04 #@! TO.C,C88*
X95070221Y-97180001D02*
X95395779Y-97180001D01*
X95070221Y-98200001D02*
X95395779Y-98200001D01*
G04 #@! TO.C,U6*
X93541000Y-97447000D02*
X93541000Y-94997000D01*
X90321000Y-95647000D02*
X90321000Y-97447000D01*
G04 #@! TO.C,C87*
X95070220Y-95914000D02*
X95395778Y-95914000D01*
X95070220Y-94894000D02*
X95395778Y-94894000D01*
G04 #@! TO.C,U3*
X102383493Y-25075000D02*
X102383493Y-24600000D01*
X93163493Y-33820000D02*
X93638493Y-33820000D01*
X93163493Y-33345000D02*
X93163493Y-33820000D01*
X93163493Y-24600000D02*
X93638493Y-24600000D01*
X93163493Y-25075000D02*
X93163493Y-24600000D01*
X102383493Y-33820000D02*
X101908493Y-33820000D01*
X102383493Y-33345000D02*
X102383493Y-33820000D01*
G04 #@! TO.C,U2*
X65095000Y-102400000D02*
X65570000Y-102400000D01*
X56350000Y-93180000D02*
X56350000Y-93655000D01*
X56825000Y-93180000D02*
X56350000Y-93180000D01*
X65570000Y-93180000D02*
X65570000Y-93655000D01*
X65095000Y-93180000D02*
X65570000Y-93180000D01*
X56350000Y-102400000D02*
X56350000Y-101925000D01*
X56825000Y-102400000D02*
X56350000Y-102400000D01*
G04 #@! TO.C,U1*
X33345000Y-102400000D02*
X33820000Y-102400000D01*
X24600000Y-93180000D02*
X24600000Y-93655000D01*
X25075000Y-93180000D02*
X24600000Y-93180000D01*
X33820000Y-93180000D02*
X33820000Y-93655000D01*
X33345000Y-93180000D02*
X33820000Y-93180000D01*
X24600000Y-102400000D02*
X24600000Y-101925000D01*
X25075000Y-102400000D02*
X24600000Y-102400000D01*
G04 #@! TO.C,U4*
X102400000Y-56825000D02*
X102400000Y-56350000D01*
X93180000Y-65570000D02*
X93655000Y-65570000D01*
X93180000Y-65095000D02*
X93180000Y-65570000D01*
X93180000Y-56350000D02*
X93655000Y-56350000D01*
X93180000Y-56825000D02*
X93180000Y-56350000D01*
X102400000Y-65570000D02*
X101925000Y-65570000D01*
X102400000Y-65095000D02*
X102400000Y-65570000D01*
G04 #@! TO.C,C104*
X56355727Y-30869478D02*
X56125522Y-30639273D01*
X55634478Y-31590727D02*
X55404273Y-31360522D01*
D12*
G04 #@! TO.C,U14*
X36257000Y-71150000D02*
X34732000Y-71150000D01*
X36257000Y-81525000D02*
X44007000Y-81525000D01*
X36257000Y-70875000D02*
X44007000Y-70875000D01*
X36257000Y-81525000D02*
X36257000Y-81170000D01*
X44007000Y-81525000D02*
X44007000Y-81170000D01*
X44007000Y-70875000D02*
X44007000Y-71230000D01*
X36257000Y-70875000D02*
X36257000Y-71150000D01*
G04 #@! TO.C,U15*
X62927000Y-70875000D02*
X62927000Y-71150000D01*
X70677000Y-70875000D02*
X70677000Y-71230000D01*
X70677000Y-81525000D02*
X70677000Y-81170000D01*
X62927000Y-81525000D02*
X62927000Y-81170000D01*
X62927000Y-70875000D02*
X70677000Y-70875000D01*
X62927000Y-81525000D02*
X70677000Y-81525000D01*
X62927000Y-71150000D02*
X61402000Y-71150000D01*
G04 #@! TO.C,T1*
X81200000Y-24575000D02*
X71200000Y-24575000D01*
X71200000Y-24575000D02*
X71200000Y-32575000D01*
X71200000Y-32575000D02*
X81200000Y-32575000D01*
X81200000Y-32575000D02*
X81200000Y-24575000D01*
G04 #@! TO.C,U16*
X81250000Y-53275000D02*
X81250000Y-51750000D01*
X70875000Y-53275000D02*
X70875000Y-61025000D01*
X81525000Y-53275000D02*
X81525000Y-61025000D01*
X70875000Y-53275000D02*
X71230000Y-53275000D01*
X70875000Y-61025000D02*
X71230000Y-61025000D01*
X81525000Y-61025000D02*
X81170000Y-61025000D01*
X81525000Y-53275000D02*
X81250000Y-53275000D01*
D11*
G04 #@! TO.C,C92*
X89817221Y-104275000D02*
X90142779Y-104275000D01*
X89817221Y-103255000D02*
X90142779Y-103255000D01*
D12*
G04 #@! TO.C,U7*
X90785000Y-110100000D02*
X92185000Y-110100000D01*
X90785000Y-105000000D02*
X86635000Y-105000000D01*
X90785000Y-110150000D02*
X86635000Y-110150000D01*
X90785000Y-105000000D02*
X90785000Y-105145000D01*
X86635000Y-105000000D02*
X86635000Y-105145000D01*
X86635000Y-110150000D02*
X86635000Y-110005000D01*
X90785000Y-110150000D02*
X90785000Y-110100000D01*
D11*
G04 #@! TO.C,C90*
X90238578Y-110675000D02*
X89721422Y-110675000D01*
X90238578Y-112095000D02*
X89721422Y-112095000D01*
G04 #@! TO.C,C38*
X63027779Y-104264999D02*
X62702221Y-104264999D01*
X63027779Y-105284999D02*
X62702221Y-105284999D01*
G04 #@! TO.C,C39*
X63027779Y-105535000D02*
X62702221Y-105535000D01*
X63027779Y-106555000D02*
X62702221Y-106555000D01*
G04 #@! TO.C,C27*
X63475727Y-89654478D02*
X63245522Y-89424273D01*
X62754478Y-90375727D02*
X62524273Y-90145522D01*
G04 #@! TO.C,C26*
X62575727Y-90554478D02*
X62345522Y-90324273D01*
X61854478Y-91275727D02*
X61624273Y-91045522D01*
G04 #@! TO.C,C80*
X105284999Y-58892221D02*
X105284999Y-59217779D01*
X104264999Y-58892221D02*
X104264999Y-59217779D01*
G04 #@! TO.C,C69*
X90375727Y-59145522D02*
X90145522Y-59375727D01*
X89654478Y-58424273D02*
X89424273Y-58654478D01*
G04 #@! TO.C,C68*
X91275727Y-60045522D02*
X91045522Y-60275727D01*
X90554478Y-59324273D02*
X90324273Y-59554478D01*
G04 #@! TO.C,C81*
X106555000Y-58892221D02*
X106555000Y-59217779D01*
X105535000Y-58892221D02*
X105535000Y-59217779D01*
G04 #@! TO.C,C48*
X89654478Y-26724273D02*
X89424273Y-26954478D01*
X90375727Y-27445522D02*
X90145522Y-27675727D01*
G04 #@! TO.C,C60*
X105518494Y-27142222D02*
X105518494Y-27467780D01*
X106538494Y-27142222D02*
X106538494Y-27467780D01*
G04 #@! TO.C,C47*
X90554478Y-27624273D02*
X90324273Y-27854478D01*
X91275727Y-28345522D02*
X91045522Y-28575727D01*
G04 #@! TO.C,C59*
X104248495Y-27142222D02*
X104248495Y-27467780D01*
X105268495Y-27142222D02*
X105268495Y-27467780D01*
G04 #@! TO.C,C5*
X30775727Y-90554478D02*
X30545522Y-90324273D01*
X30054478Y-91275727D02*
X29824273Y-91045522D01*
G04 #@! TO.C,C6*
X31675727Y-89654478D02*
X31445522Y-89424273D01*
X30954478Y-90375727D02*
X30724273Y-90145522D01*
G04 #@! TO.C,C18*
X31277779Y-105535000D02*
X30952221Y-105535000D01*
X31277779Y-106555000D02*
X30952221Y-106555000D01*
G04 #@! TO.C,C17*
X31277779Y-104264999D02*
X30952221Y-104264999D01*
X31277779Y-105284999D02*
X30952221Y-105284999D01*
G04 #@! TO.C,C100*
X52950522Y-55720727D02*
X53180727Y-55490522D01*
X52229273Y-54999478D02*
X52459478Y-54769273D01*
G04 #@! TO.C,C96*
X23953263Y-56024983D02*
X23953263Y-55699423D01*
X22933263Y-56024983D02*
X22933263Y-55699423D01*
D12*
G04 #@! TO.C,U9*
X31735000Y-32710000D02*
X30435000Y-32710000D01*
X52085000Y-31735000D02*
X51035000Y-31735000D01*
X52085000Y-52085000D02*
X51035000Y-52085000D01*
X31735000Y-52085000D02*
X32785000Y-52085000D01*
X31735000Y-31735000D02*
X32785000Y-31735000D01*
X31735000Y-52085000D02*
X31735000Y-51035000D01*
X52085000Y-52085000D02*
X52085000Y-51035000D01*
X52085000Y-31735000D02*
X52085000Y-32785000D01*
X31735000Y-31735000D02*
X31735000Y-32710000D01*
D11*
G04 #@! TO.C,C113*
X80520000Y-18887221D02*
X80520000Y-19212779D01*
X79500000Y-18887221D02*
X79500000Y-19212779D01*
G04 #@! TO.C,C115*
X75690000Y-38572221D02*
X75690000Y-38897779D01*
X76710000Y-38572221D02*
X76710000Y-38897779D01*
D12*
G04 #@! TO.C,D1*
X77940000Y-37465000D02*
X77940000Y-38815000D01*
X77940000Y-38815000D02*
X79540000Y-38815000D01*
X79540000Y-38815000D02*
X79540000Y-36115000D01*
X79540000Y-36115000D02*
X77940000Y-36115000D01*
X77940000Y-36115000D02*
X77940000Y-37465000D01*
G04 #@! TO.C,D2*
X73580000Y-36995000D02*
X74930000Y-36995000D01*
X73580000Y-35395000D02*
X73580000Y-36995000D01*
X76280000Y-35395000D02*
X73580000Y-35395000D01*
X76280000Y-36995000D02*
X76280000Y-35395000D01*
X74930000Y-36995000D02*
X76280000Y-36995000D01*
D11*
G04 #@! TO.C,U12*
X77810000Y-19950000D02*
X77810000Y-18150000D01*
X74590000Y-18150000D02*
X74590000Y-21100000D01*
G04 #@! TO.C,C122*
X38489478Y-63340727D02*
X38259273Y-63110522D01*
X39210727Y-62619478D02*
X38980522Y-62389273D01*
D13*
G04 #@! TO.C,U11*
X108345000Y-86535488D02*
X107525000Y-86535488D01*
X108245000Y-83835488D02*
X107525000Y-83835488D01*
X108245000Y-83835488D02*
X108245000Y-84055488D01*
X105045000Y-84055488D02*
X105045000Y-83835488D01*
X105045000Y-83835488D02*
X105765000Y-83835488D01*
X105765000Y-86535488D02*
X105045000Y-86535488D01*
X105045000Y-86535488D02*
X105045000Y-86315488D01*
D12*
G04 #@! TO.C,U13*
X112526261Y-97130331D02*
X98526261Y-97130331D01*
X112526261Y-112330331D02*
X112526261Y-97130331D01*
X98526261Y-111330331D02*
X110026261Y-111330331D01*
X98526261Y-97130331D02*
X98526261Y-111330331D01*
X110026261Y-112330331D02*
X112526261Y-112330331D01*
X110026261Y-111330331D02*
X110026261Y-112330331D01*
D11*
G04 #@! TO.C,J37*
X18949501Y-74500000D02*
X18499501Y-74500000D01*
X18949501Y-74500000D02*
X18949501Y-74950000D01*
X18399501Y-80100000D02*
X18399501Y-79650000D01*
X16549501Y-80100000D02*
X18399501Y-80100000D01*
X13999501Y-72300000D02*
X14249501Y-72300000D01*
X13999501Y-80100000D02*
X14249501Y-80100000D01*
X16549501Y-72300000D02*
X18399501Y-72300000D01*
X18399501Y-72300000D02*
X18399501Y-72750000D01*
G04 #@! TO.C,C128*
X21496422Y-56024983D02*
X21496422Y-55699423D01*
X22516422Y-56024983D02*
X22516422Y-55699423D01*
G04 #@! TO.C,Y2*
D12*
X21883690Y-52101690D02*
X22359880Y-52101690D01*
X21359880Y-52435023D02*
X21883690Y-52101690D01*
X21359880Y-51768357D01*
X21455119Y-51482642D02*
X21407500Y-51435023D01*
X21359880Y-51339785D01*
X21359880Y-51101690D01*
X21407500Y-51006452D01*
X21455119Y-50958833D01*
X21550357Y-50911214D01*
X21645595Y-50911214D01*
X21788452Y-50958833D01*
X22359880Y-51530261D01*
X22359880Y-50911214D01*
G04 #@! TO.C,Y1*
X23955260Y-35315304D02*
X23618542Y-35652022D01*
X24089947Y-34709213D02*
X23955260Y-35315304D01*
X24561351Y-35180617D01*
X24460336Y-36493815D02*
X24056275Y-36089754D01*
X24258306Y-36291785D02*
X24965412Y-35584678D01*
X24797054Y-35618350D01*
X24662367Y-35618350D01*
X24561351Y-35584678D01*
G04 #@! TO.C,U8*
X86238095Y-79852380D02*
X86238095Y-80661904D01*
X86285714Y-80757142D01*
X86333333Y-80804761D01*
X86428571Y-80852380D01*
X86619047Y-80852380D01*
X86714285Y-80804761D01*
X86761904Y-80757142D01*
X86809523Y-80661904D01*
X86809523Y-79852380D01*
X87428571Y-80280952D02*
X87333333Y-80233333D01*
X87285714Y-80185714D01*
X87238095Y-80090476D01*
X87238095Y-80042857D01*
X87285714Y-79947619D01*
X87333333Y-79900000D01*
X87428571Y-79852380D01*
X87619047Y-79852380D01*
X87714285Y-79900000D01*
X87761904Y-79947619D01*
X87809523Y-80042857D01*
X87809523Y-80090476D01*
X87761904Y-80185714D01*
X87714285Y-80233333D01*
X87619047Y-80280952D01*
X87428571Y-80280952D01*
X87333333Y-80328571D01*
X87285714Y-80376190D01*
X87238095Y-80471428D01*
X87238095Y-80661904D01*
X87285714Y-80757142D01*
X87333333Y-80804761D01*
X87428571Y-80852380D01*
X87619047Y-80852380D01*
X87714285Y-80804761D01*
X87761904Y-80757142D01*
X87809523Y-80661904D01*
X87809523Y-80471428D01*
X87761904Y-80376190D01*
X87714285Y-80328571D01*
X87619047Y-80280952D01*
G04 #@! TO.C,C86*
X96757142Y-87757142D02*
X96709523Y-87804761D01*
X96566666Y-87852380D01*
X96471428Y-87852380D01*
X96328571Y-87804761D01*
X96233333Y-87709523D01*
X96185714Y-87614285D01*
X96138095Y-87423809D01*
X96138095Y-87280952D01*
X96185714Y-87090476D01*
X96233333Y-86995238D01*
X96328571Y-86900000D01*
X96471428Y-86852380D01*
X96566666Y-86852380D01*
X96709523Y-86900000D01*
X96757142Y-86947619D01*
X97328571Y-87280952D02*
X97233333Y-87233333D01*
X97185714Y-87185714D01*
X97138095Y-87090476D01*
X97138095Y-87042857D01*
X97185714Y-86947619D01*
X97233333Y-86900000D01*
X97328571Y-86852380D01*
X97519047Y-86852380D01*
X97614285Y-86900000D01*
X97661904Y-86947619D01*
X97709523Y-87042857D01*
X97709523Y-87090476D01*
X97661904Y-87185714D01*
X97614285Y-87233333D01*
X97519047Y-87280952D01*
X97328571Y-87280952D01*
X97233333Y-87328571D01*
X97185714Y-87376190D01*
X97138095Y-87471428D01*
X97138095Y-87661904D01*
X97185714Y-87757142D01*
X97233333Y-87804761D01*
X97328571Y-87852380D01*
X97519047Y-87852380D01*
X97614285Y-87804761D01*
X97661904Y-87757142D01*
X97709523Y-87661904D01*
X97709523Y-87471428D01*
X97661904Y-87376190D01*
X97614285Y-87328571D01*
X97519047Y-87280952D01*
X98566666Y-86852380D02*
X98376190Y-86852380D01*
X98280952Y-86900000D01*
X98233333Y-86947619D01*
X98138095Y-87090476D01*
X98090476Y-87280952D01*
X98090476Y-87661904D01*
X98138095Y-87757142D01*
X98185714Y-87804761D01*
X98280952Y-87852380D01*
X98471428Y-87852380D01*
X98566666Y-87804761D01*
X98614285Y-87757142D01*
X98661904Y-87661904D01*
X98661904Y-87423809D01*
X98614285Y-87328571D01*
X98566666Y-87280952D01*
X98471428Y-87233333D01*
X98280952Y-87233333D01*
X98185714Y-87280952D01*
X98138095Y-87328571D01*
X98090476Y-87423809D01*
G04 #@! TO.C,C85*
X96757142Y-83257142D02*
X96709523Y-83304761D01*
X96566666Y-83352380D01*
X96471428Y-83352380D01*
X96328571Y-83304761D01*
X96233333Y-83209523D01*
X96185714Y-83114285D01*
X96138095Y-82923809D01*
X96138095Y-82780952D01*
X96185714Y-82590476D01*
X96233333Y-82495238D01*
X96328571Y-82400000D01*
X96471428Y-82352380D01*
X96566666Y-82352380D01*
X96709523Y-82400000D01*
X96757142Y-82447619D01*
X97328571Y-82780952D02*
X97233333Y-82733333D01*
X97185714Y-82685714D01*
X97138095Y-82590476D01*
X97138095Y-82542857D01*
X97185714Y-82447619D01*
X97233333Y-82400000D01*
X97328571Y-82352380D01*
X97519047Y-82352380D01*
X97614285Y-82400000D01*
X97661904Y-82447619D01*
X97709523Y-82542857D01*
X97709523Y-82590476D01*
X97661904Y-82685714D01*
X97614285Y-82733333D01*
X97519047Y-82780952D01*
X97328571Y-82780952D01*
X97233333Y-82828571D01*
X97185714Y-82876190D01*
X97138095Y-82971428D01*
X97138095Y-83161904D01*
X97185714Y-83257142D01*
X97233333Y-83304761D01*
X97328571Y-83352380D01*
X97519047Y-83352380D01*
X97614285Y-83304761D01*
X97661904Y-83257142D01*
X97709523Y-83161904D01*
X97709523Y-82971428D01*
X97661904Y-82876190D01*
X97614285Y-82828571D01*
X97519047Y-82780952D01*
X98614285Y-82352380D02*
X98138095Y-82352380D01*
X98090476Y-82828571D01*
X98138095Y-82780952D01*
X98233333Y-82733333D01*
X98471428Y-82733333D01*
X98566666Y-82780952D01*
X98614285Y-82828571D01*
X98661904Y-82923809D01*
X98661904Y-83161904D01*
X98614285Y-83257142D01*
X98566666Y-83304761D01*
X98471428Y-83352380D01*
X98233333Y-83352380D01*
X98138095Y-83304761D01*
X98090476Y-83257142D01*
G04 #@! TO.C,U5*
X91652380Y-85861904D02*
X92461904Y-85861904D01*
X92557142Y-85814285D01*
X92604761Y-85766666D01*
X92652380Y-85671428D01*
X92652380Y-85480952D01*
X92604761Y-85385714D01*
X92557142Y-85338095D01*
X92461904Y-85290476D01*
X91652380Y-85290476D01*
X91652380Y-84338095D02*
X91652380Y-84814285D01*
X92128571Y-84861904D01*
X92080952Y-84814285D01*
X92033333Y-84719047D01*
X92033333Y-84480952D01*
X92080952Y-84385714D01*
X92128571Y-84338095D01*
X92223809Y-84290476D01*
X92461904Y-84290476D01*
X92557142Y-84338095D01*
X92604761Y-84385714D01*
X92652380Y-84480952D01*
X92652380Y-84719047D01*
X92604761Y-84814285D01*
X92557142Y-84861904D01*
G04 #@! TO.C,C109*
X85380952Y-94657142D02*
X85333333Y-94704761D01*
X85190476Y-94752380D01*
X85095238Y-94752380D01*
X84952380Y-94704761D01*
X84857142Y-94609523D01*
X84809523Y-94514285D01*
X84761904Y-94323809D01*
X84761904Y-94180952D01*
X84809523Y-93990476D01*
X84857142Y-93895238D01*
X84952380Y-93800000D01*
X85095238Y-93752380D01*
X85190476Y-93752380D01*
X85333333Y-93800000D01*
X85380952Y-93847619D01*
X86333333Y-94752380D02*
X85761904Y-94752380D01*
X86047619Y-94752380D02*
X86047619Y-93752380D01*
X85952380Y-93895238D01*
X85857142Y-93990476D01*
X85761904Y-94038095D01*
X86952380Y-93752380D02*
X87047619Y-93752380D01*
X87142857Y-93800000D01*
X87190476Y-93847619D01*
X87238095Y-93942857D01*
X87285714Y-94133333D01*
X87285714Y-94371428D01*
X87238095Y-94561904D01*
X87190476Y-94657142D01*
X87142857Y-94704761D01*
X87047619Y-94752380D01*
X86952380Y-94752380D01*
X86857142Y-94704761D01*
X86809523Y-94657142D01*
X86761904Y-94561904D01*
X86714285Y-94371428D01*
X86714285Y-94133333D01*
X86761904Y-93942857D01*
X86809523Y-93847619D01*
X86857142Y-93800000D01*
X86952380Y-93752380D01*
X87761904Y-94752380D02*
X87952380Y-94752380D01*
X88047619Y-94704761D01*
X88095238Y-94657142D01*
X88190476Y-94514285D01*
X88238095Y-94323809D01*
X88238095Y-93942857D01*
X88190476Y-93847619D01*
X88142857Y-93800000D01*
X88047619Y-93752380D01*
X87857142Y-93752380D01*
X87761904Y-93800000D01*
X87714285Y-93847619D01*
X87666666Y-93942857D01*
X87666666Y-94180952D01*
X87714285Y-94276190D01*
X87761904Y-94323809D01*
X87857142Y-94371428D01*
X88047619Y-94371428D01*
X88142857Y-94323809D01*
X88190476Y-94276190D01*
X88238095Y-94180952D01*
G04 #@! TO.C,C110*
X85380952Y-99157142D02*
X85333333Y-99204761D01*
X85190476Y-99252380D01*
X85095238Y-99252380D01*
X84952380Y-99204761D01*
X84857142Y-99109523D01*
X84809523Y-99014285D01*
X84761904Y-98823809D01*
X84761904Y-98680952D01*
X84809523Y-98490476D01*
X84857142Y-98395238D01*
X84952380Y-98300000D01*
X85095238Y-98252380D01*
X85190476Y-98252380D01*
X85333333Y-98300000D01*
X85380952Y-98347619D01*
X86333333Y-99252380D02*
X85761904Y-99252380D01*
X86047619Y-99252380D02*
X86047619Y-98252380D01*
X85952380Y-98395238D01*
X85857142Y-98490476D01*
X85761904Y-98538095D01*
X87285714Y-99252380D02*
X86714285Y-99252380D01*
X87000000Y-99252380D02*
X87000000Y-98252380D01*
X86904761Y-98395238D01*
X86809523Y-98490476D01*
X86714285Y-98538095D01*
X87904761Y-98252380D02*
X88000000Y-98252380D01*
X88095238Y-98300000D01*
X88142857Y-98347619D01*
X88190476Y-98442857D01*
X88238095Y-98633333D01*
X88238095Y-98871428D01*
X88190476Y-99061904D01*
X88142857Y-99157142D01*
X88095238Y-99204761D01*
X88000000Y-99252380D01*
X87904761Y-99252380D01*
X87809523Y-99204761D01*
X87761904Y-99157142D01*
X87714285Y-99061904D01*
X87666666Y-98871428D01*
X87666666Y-98633333D01*
X87714285Y-98442857D01*
X87761904Y-98347619D01*
X87809523Y-98300000D01*
X87904761Y-98252380D01*
G04 #@! TO.C,U10*
X80652380Y-97738095D02*
X81461904Y-97738095D01*
X81557142Y-97690476D01*
X81604761Y-97642857D01*
X81652380Y-97547619D01*
X81652380Y-97357142D01*
X81604761Y-97261904D01*
X81557142Y-97214285D01*
X81461904Y-97166666D01*
X80652380Y-97166666D01*
X81652380Y-96166666D02*
X81652380Y-96738095D01*
X81652380Y-96452380D02*
X80652380Y-96452380D01*
X80795238Y-96547619D01*
X80890476Y-96642857D01*
X80938095Y-96738095D01*
X80652380Y-95547619D02*
X80652380Y-95452380D01*
X80700000Y-95357142D01*
X80747619Y-95309523D01*
X80842857Y-95261904D01*
X81033333Y-95214285D01*
X81271428Y-95214285D01*
X81461904Y-95261904D01*
X81557142Y-95309523D01*
X81604761Y-95357142D01*
X81652380Y-95452380D01*
X81652380Y-95547619D01*
X81604761Y-95642857D01*
X81557142Y-95690476D01*
X81461904Y-95738095D01*
X81271428Y-95785714D01*
X81033333Y-95785714D01*
X80842857Y-95738095D01*
X80747619Y-95690476D01*
X80700000Y-95642857D01*
X80652380Y-95547619D01*
G04 #@! TO.C,C88*
X94557142Y-99257142D02*
X94509523Y-99304761D01*
X94366666Y-99352380D01*
X94271428Y-99352380D01*
X94128571Y-99304761D01*
X94033333Y-99209523D01*
X93985714Y-99114285D01*
X93938095Y-98923809D01*
X93938095Y-98780952D01*
X93985714Y-98590476D01*
X94033333Y-98495238D01*
X94128571Y-98400000D01*
X94271428Y-98352380D01*
X94366666Y-98352380D01*
X94509523Y-98400000D01*
X94557142Y-98447619D01*
X95128571Y-98780952D02*
X95033333Y-98733333D01*
X94985714Y-98685714D01*
X94938095Y-98590476D01*
X94938095Y-98542857D01*
X94985714Y-98447619D01*
X95033333Y-98400000D01*
X95128571Y-98352380D01*
X95319047Y-98352380D01*
X95414285Y-98400000D01*
X95461904Y-98447619D01*
X95509523Y-98542857D01*
X95509523Y-98590476D01*
X95461904Y-98685714D01*
X95414285Y-98733333D01*
X95319047Y-98780952D01*
X95128571Y-98780952D01*
X95033333Y-98828571D01*
X94985714Y-98876190D01*
X94938095Y-98971428D01*
X94938095Y-99161904D01*
X94985714Y-99257142D01*
X95033333Y-99304761D01*
X95128571Y-99352380D01*
X95319047Y-99352380D01*
X95414285Y-99304761D01*
X95461904Y-99257142D01*
X95509523Y-99161904D01*
X95509523Y-98971428D01*
X95461904Y-98876190D01*
X95414285Y-98828571D01*
X95319047Y-98780952D01*
X96080952Y-98780952D02*
X95985714Y-98733333D01*
X95938095Y-98685714D01*
X95890476Y-98590476D01*
X95890476Y-98542857D01*
X95938095Y-98447619D01*
X95985714Y-98400000D01*
X96080952Y-98352380D01*
X96271428Y-98352380D01*
X96366666Y-98400000D01*
X96414285Y-98447619D01*
X96461904Y-98542857D01*
X96461904Y-98590476D01*
X96414285Y-98685714D01*
X96366666Y-98733333D01*
X96271428Y-98780952D01*
X96080952Y-98780952D01*
X95985714Y-98828571D01*
X95938095Y-98876190D01*
X95890476Y-98971428D01*
X95890476Y-99161904D01*
X95938095Y-99257142D01*
X95985714Y-99304761D01*
X96080952Y-99352380D01*
X96271428Y-99352380D01*
X96366666Y-99304761D01*
X96414285Y-99257142D01*
X96461904Y-99161904D01*
X96461904Y-98971428D01*
X96414285Y-98876190D01*
X96366666Y-98828571D01*
X96271428Y-98780952D01*
G04 #@! TO.C,U6*
X89452380Y-97161904D02*
X90261904Y-97161904D01*
X90357142Y-97114285D01*
X90404761Y-97066666D01*
X90452380Y-96971428D01*
X90452380Y-96780952D01*
X90404761Y-96685714D01*
X90357142Y-96638095D01*
X90261904Y-96590476D01*
X89452380Y-96590476D01*
X89452380Y-95685714D02*
X89452380Y-95876190D01*
X89500000Y-95971428D01*
X89547619Y-96019047D01*
X89690476Y-96114285D01*
X89880952Y-96161904D01*
X90261904Y-96161904D01*
X90357142Y-96114285D01*
X90404761Y-96066666D01*
X90452380Y-95971428D01*
X90452380Y-95780952D01*
X90404761Y-95685714D01*
X90357142Y-95638095D01*
X90261904Y-95590476D01*
X90023809Y-95590476D01*
X89928571Y-95638095D01*
X89880952Y-95685714D01*
X89833333Y-95780952D01*
X89833333Y-95971428D01*
X89880952Y-96066666D01*
X89928571Y-96114285D01*
X90023809Y-96161904D01*
G04 #@! TO.C,C87*
X94557142Y-94657142D02*
X94509523Y-94704761D01*
X94366666Y-94752380D01*
X94271428Y-94752380D01*
X94128571Y-94704761D01*
X94033333Y-94609523D01*
X93985714Y-94514285D01*
X93938095Y-94323809D01*
X93938095Y-94180952D01*
X93985714Y-93990476D01*
X94033333Y-93895238D01*
X94128571Y-93800000D01*
X94271428Y-93752380D01*
X94366666Y-93752380D01*
X94509523Y-93800000D01*
X94557142Y-93847619D01*
X95128571Y-94180952D02*
X95033333Y-94133333D01*
X94985714Y-94085714D01*
X94938095Y-93990476D01*
X94938095Y-93942857D01*
X94985714Y-93847619D01*
X95033333Y-93800000D01*
X95128571Y-93752380D01*
X95319047Y-93752380D01*
X95414285Y-93800000D01*
X95461904Y-93847619D01*
X95509523Y-93942857D01*
X95509523Y-93990476D01*
X95461904Y-94085714D01*
X95414285Y-94133333D01*
X95319047Y-94180952D01*
X95128571Y-94180952D01*
X95033333Y-94228571D01*
X94985714Y-94276190D01*
X94938095Y-94371428D01*
X94938095Y-94561904D01*
X94985714Y-94657142D01*
X95033333Y-94704761D01*
X95128571Y-94752380D01*
X95319047Y-94752380D01*
X95414285Y-94704761D01*
X95461904Y-94657142D01*
X95509523Y-94561904D01*
X95509523Y-94371428D01*
X95461904Y-94276190D01*
X95414285Y-94228571D01*
X95319047Y-94180952D01*
X95842857Y-93752380D02*
X96509523Y-93752380D01*
X96080952Y-94752380D01*
G04 #@! TO.C,U3*
X103045873Y-29971904D02*
X103855397Y-29971904D01*
X103950635Y-29924285D01*
X103998254Y-29876666D01*
X104045873Y-29781428D01*
X104045873Y-29590952D01*
X103998254Y-29495714D01*
X103950635Y-29448095D01*
X103855397Y-29400476D01*
X103045873Y-29400476D01*
X103045873Y-29019523D02*
X103045873Y-28400476D01*
X103426826Y-28733809D01*
X103426826Y-28590952D01*
X103474445Y-28495714D01*
X103522064Y-28448095D01*
X103617302Y-28400476D01*
X103855397Y-28400476D01*
X103950635Y-28448095D01*
X103998254Y-28495714D01*
X104045873Y-28590952D01*
X104045873Y-28876666D01*
X103998254Y-28971904D01*
X103950635Y-29019523D01*
G04 #@! TO.C,U2*
X60198095Y-103062380D02*
X60198095Y-103871904D01*
X60245714Y-103967142D01*
X60293333Y-104014761D01*
X60388571Y-104062380D01*
X60579047Y-104062380D01*
X60674285Y-104014761D01*
X60721904Y-103967142D01*
X60769523Y-103871904D01*
X60769523Y-103062380D01*
X61198095Y-103157619D02*
X61245714Y-103110000D01*
X61340952Y-103062380D01*
X61579047Y-103062380D01*
X61674285Y-103110000D01*
X61721904Y-103157619D01*
X61769523Y-103252857D01*
X61769523Y-103348095D01*
X61721904Y-103490952D01*
X61150476Y-104062380D01*
X61769523Y-104062380D01*
G04 #@! TO.C,U1*
X28448095Y-103062380D02*
X28448095Y-103871904D01*
X28495714Y-103967142D01*
X28543333Y-104014761D01*
X28638571Y-104062380D01*
X28829047Y-104062380D01*
X28924285Y-104014761D01*
X28971904Y-103967142D01*
X29019523Y-103871904D01*
X29019523Y-103062380D01*
X30019523Y-104062380D02*
X29448095Y-104062380D01*
X29733809Y-104062380D02*
X29733809Y-103062380D01*
X29638571Y-103205238D01*
X29543333Y-103300476D01*
X29448095Y-103348095D01*
G04 #@! TO.C,U4*
X103062380Y-61721904D02*
X103871904Y-61721904D01*
X103967142Y-61674285D01*
X104014761Y-61626666D01*
X104062380Y-61531428D01*
X104062380Y-61340952D01*
X104014761Y-61245714D01*
X103967142Y-61198095D01*
X103871904Y-61150476D01*
X103062380Y-61150476D01*
X103395714Y-60245714D02*
X104062380Y-60245714D01*
X103014761Y-60483809D02*
X103729047Y-60721904D01*
X103729047Y-60102857D01*
G04 #@! TO.C,C104*
X53825012Y-31587414D02*
X53757669Y-31587414D01*
X53622982Y-31520071D01*
X53555638Y-31452727D01*
X53488295Y-31318040D01*
X53488295Y-31183353D01*
X53521966Y-31082338D01*
X53622982Y-30913979D01*
X53723997Y-30812964D01*
X53892356Y-30711949D01*
X53993371Y-30678277D01*
X54128058Y-30678277D01*
X54262745Y-30745621D01*
X54330088Y-30812964D01*
X54397432Y-30947651D01*
X54397432Y-31014995D01*
X54431104Y-32328193D02*
X54027043Y-31924132D01*
X54229073Y-32126163D02*
X54936180Y-31419056D01*
X54767821Y-31452727D01*
X54633134Y-31452727D01*
X54532119Y-31419056D01*
X55575943Y-32058819D02*
X55643287Y-32126163D01*
X55676959Y-32227178D01*
X55676959Y-32294521D01*
X55643287Y-32395537D01*
X55542272Y-32563895D01*
X55373913Y-32732254D01*
X55205554Y-32833269D01*
X55104539Y-32866941D01*
X55037195Y-32866941D01*
X54936180Y-32833269D01*
X54868837Y-32765926D01*
X54835165Y-32664911D01*
X54835165Y-32597567D01*
X54868837Y-32496552D01*
X54969852Y-32328193D01*
X55138211Y-32159834D01*
X55306569Y-32058819D01*
X55407585Y-32025147D01*
X55474928Y-32025147D01*
X55575943Y-32058819D01*
X56182035Y-33136315D02*
X55710630Y-33607720D01*
X56283050Y-32698582D02*
X55609615Y-33035300D01*
X56047348Y-33473033D01*
G04 #@! TO.C,U14*
X33234380Y-81248095D02*
X34043904Y-81248095D01*
X34139142Y-81200476D01*
X34186761Y-81152857D01*
X34234380Y-81057619D01*
X34234380Y-80867142D01*
X34186761Y-80771904D01*
X34139142Y-80724285D01*
X34043904Y-80676666D01*
X33234380Y-80676666D01*
X34234380Y-79676666D02*
X34234380Y-80248095D01*
X34234380Y-79962380D02*
X33234380Y-79962380D01*
X33377238Y-80057619D01*
X33472476Y-80152857D01*
X33520095Y-80248095D01*
X33567714Y-78819523D02*
X34234380Y-78819523D01*
X33186761Y-79057619D02*
X33901047Y-79295714D01*
X33901047Y-78676666D01*
G04 #@! TO.C,C116*
X34139142Y-76684047D02*
X34186761Y-76731666D01*
X34234380Y-76874523D01*
X34234380Y-76969761D01*
X34186761Y-77112619D01*
X34091523Y-77207857D01*
X33996285Y-77255476D01*
X33805809Y-77303095D01*
X33662952Y-77303095D01*
X33472476Y-77255476D01*
X33377238Y-77207857D01*
X33282000Y-77112619D01*
X33234380Y-76969761D01*
X33234380Y-76874523D01*
X33282000Y-76731666D01*
X33329619Y-76684047D01*
X34234380Y-75731666D02*
X34234380Y-76303095D01*
X34234380Y-76017380D02*
X33234380Y-76017380D01*
X33377238Y-76112619D01*
X33472476Y-76207857D01*
X33520095Y-76303095D01*
X34234380Y-74779285D02*
X34234380Y-75350714D01*
X34234380Y-75065000D02*
X33234380Y-75065000D01*
X33377238Y-75160238D01*
X33472476Y-75255476D01*
X33520095Y-75350714D01*
X33234380Y-73922142D02*
X33234380Y-74112619D01*
X33282000Y-74207857D01*
X33329619Y-74255476D01*
X33472476Y-74350714D01*
X33662952Y-74398333D01*
X34043904Y-74398333D01*
X34139142Y-74350714D01*
X34186761Y-74303095D01*
X34234380Y-74207857D01*
X34234380Y-74017380D01*
X34186761Y-73922142D01*
X34139142Y-73874523D01*
X34043904Y-73826904D01*
X33805809Y-73826904D01*
X33710571Y-73874523D01*
X33662952Y-73922142D01*
X33615333Y-74017380D01*
X33615333Y-74207857D01*
X33662952Y-74303095D01*
X33710571Y-74350714D01*
X33805809Y-74398333D01*
G04 #@! TO.C,C117*
X46839142Y-76684047D02*
X46886761Y-76731666D01*
X46934380Y-76874523D01*
X46934380Y-76969761D01*
X46886761Y-77112619D01*
X46791523Y-77207857D01*
X46696285Y-77255476D01*
X46505809Y-77303095D01*
X46362952Y-77303095D01*
X46172476Y-77255476D01*
X46077238Y-77207857D01*
X45982000Y-77112619D01*
X45934380Y-76969761D01*
X45934380Y-76874523D01*
X45982000Y-76731666D01*
X46029619Y-76684047D01*
X46934380Y-75731666D02*
X46934380Y-76303095D01*
X46934380Y-76017380D02*
X45934380Y-76017380D01*
X46077238Y-76112619D01*
X46172476Y-76207857D01*
X46220095Y-76303095D01*
X46934380Y-74779285D02*
X46934380Y-75350714D01*
X46934380Y-75065000D02*
X45934380Y-75065000D01*
X46077238Y-75160238D01*
X46172476Y-75255476D01*
X46220095Y-75350714D01*
X45934380Y-74445952D02*
X45934380Y-73779285D01*
X46934380Y-74207857D01*
G04 #@! TO.C,C118*
X60809142Y-76684047D02*
X60856761Y-76731666D01*
X60904380Y-76874523D01*
X60904380Y-76969761D01*
X60856761Y-77112619D01*
X60761523Y-77207857D01*
X60666285Y-77255476D01*
X60475809Y-77303095D01*
X60332952Y-77303095D01*
X60142476Y-77255476D01*
X60047238Y-77207857D01*
X59952000Y-77112619D01*
X59904380Y-76969761D01*
X59904380Y-76874523D01*
X59952000Y-76731666D01*
X59999619Y-76684047D01*
X60904380Y-75731666D02*
X60904380Y-76303095D01*
X60904380Y-76017380D02*
X59904380Y-76017380D01*
X60047238Y-76112619D01*
X60142476Y-76207857D01*
X60190095Y-76303095D01*
X60904380Y-74779285D02*
X60904380Y-75350714D01*
X60904380Y-75065000D02*
X59904380Y-75065000D01*
X60047238Y-75160238D01*
X60142476Y-75255476D01*
X60190095Y-75350714D01*
X60332952Y-74207857D02*
X60285333Y-74303095D01*
X60237714Y-74350714D01*
X60142476Y-74398333D01*
X60094857Y-74398333D01*
X59999619Y-74350714D01*
X59952000Y-74303095D01*
X59904380Y-74207857D01*
X59904380Y-74017380D01*
X59952000Y-73922142D01*
X59999619Y-73874523D01*
X60094857Y-73826904D01*
X60142476Y-73826904D01*
X60237714Y-73874523D01*
X60285333Y-73922142D01*
X60332952Y-74017380D01*
X60332952Y-74207857D01*
X60380571Y-74303095D01*
X60428190Y-74350714D01*
X60523428Y-74398333D01*
X60713904Y-74398333D01*
X60809142Y-74350714D01*
X60856761Y-74303095D01*
X60904380Y-74207857D01*
X60904380Y-74017380D01*
X60856761Y-73922142D01*
X60809142Y-73874523D01*
X60713904Y-73826904D01*
X60523428Y-73826904D01*
X60428190Y-73874523D01*
X60380571Y-73922142D01*
X60332952Y-74017380D01*
G04 #@! TO.C,U15*
X59904380Y-81248095D02*
X60713904Y-81248095D01*
X60809142Y-81200476D01*
X60856761Y-81152857D01*
X60904380Y-81057619D01*
X60904380Y-80867142D01*
X60856761Y-80771904D01*
X60809142Y-80724285D01*
X60713904Y-80676666D01*
X59904380Y-80676666D01*
X60904380Y-79676666D02*
X60904380Y-80248095D01*
X60904380Y-79962380D02*
X59904380Y-79962380D01*
X60047238Y-80057619D01*
X60142476Y-80152857D01*
X60190095Y-80248095D01*
X59904380Y-78771904D02*
X59904380Y-79248095D01*
X60380571Y-79295714D01*
X60332952Y-79248095D01*
X60285333Y-79152857D01*
X60285333Y-78914761D01*
X60332952Y-78819523D01*
X60380571Y-78771904D01*
X60475809Y-78724285D01*
X60713904Y-78724285D01*
X60809142Y-78771904D01*
X60856761Y-78819523D01*
X60904380Y-78914761D01*
X60904380Y-79152857D01*
X60856761Y-79248095D01*
X60809142Y-79295714D01*
G04 #@! TO.C,C119*
X73509142Y-76684047D02*
X73556761Y-76731666D01*
X73604380Y-76874523D01*
X73604380Y-76969761D01*
X73556761Y-77112619D01*
X73461523Y-77207857D01*
X73366285Y-77255476D01*
X73175809Y-77303095D01*
X73032952Y-77303095D01*
X72842476Y-77255476D01*
X72747238Y-77207857D01*
X72652000Y-77112619D01*
X72604380Y-76969761D01*
X72604380Y-76874523D01*
X72652000Y-76731666D01*
X72699619Y-76684047D01*
X73604380Y-75731666D02*
X73604380Y-76303095D01*
X73604380Y-76017380D02*
X72604380Y-76017380D01*
X72747238Y-76112619D01*
X72842476Y-76207857D01*
X72890095Y-76303095D01*
X73604380Y-74779285D02*
X73604380Y-75350714D01*
X73604380Y-75065000D02*
X72604380Y-75065000D01*
X72747238Y-75160238D01*
X72842476Y-75255476D01*
X72890095Y-75350714D01*
X73604380Y-74303095D02*
X73604380Y-74112619D01*
X73556761Y-74017380D01*
X73509142Y-73969761D01*
X73366285Y-73874523D01*
X73175809Y-73826904D01*
X72794857Y-73826904D01*
X72699619Y-73874523D01*
X72652000Y-73922142D01*
X72604380Y-74017380D01*
X72604380Y-74207857D01*
X72652000Y-74303095D01*
X72699619Y-74350714D01*
X72794857Y-74398333D01*
X73032952Y-74398333D01*
X73128190Y-74350714D01*
X73175809Y-74303095D01*
X73223428Y-74207857D01*
X73223428Y-74017380D01*
X73175809Y-73922142D01*
X73128190Y-73874523D01*
X73032952Y-73826904D01*
G04 #@! TO.C,T1*
X75152380Y-29336904D02*
X75152380Y-28765476D01*
X76152380Y-29051190D02*
X75152380Y-29051190D01*
X76152380Y-27908333D02*
X76152380Y-28479761D01*
X76152380Y-28194047D02*
X75152380Y-28194047D01*
X75295238Y-28289285D01*
X75390476Y-28384523D01*
X75438095Y-28479761D01*
G04 #@! TO.C,C58*
X106350969Y-33600106D02*
X106350969Y-33667450D01*
X106283625Y-33802137D01*
X106216282Y-33869480D01*
X106081595Y-33936824D01*
X105946908Y-33936824D01*
X105845893Y-33903152D01*
X105677534Y-33802137D01*
X105576519Y-33701122D01*
X105475503Y-33532763D01*
X105441832Y-33431748D01*
X105441832Y-33297061D01*
X105509175Y-33162374D01*
X105576519Y-33095030D01*
X105711206Y-33027687D01*
X105778549Y-33027687D01*
X106350969Y-32320580D02*
X106014251Y-32657297D01*
X106317297Y-33027687D01*
X106317297Y-32960343D01*
X106350969Y-32859328D01*
X106519328Y-32690969D01*
X106620343Y-32657297D01*
X106687687Y-32657297D01*
X106788702Y-32690969D01*
X106957061Y-32859328D01*
X106990732Y-32960343D01*
X106990732Y-33027687D01*
X106957061Y-33128702D01*
X106788702Y-33297061D01*
X106687687Y-33330732D01*
X106620343Y-33330732D01*
X107091748Y-32185893D02*
X106990732Y-32219564D01*
X106923389Y-32219564D01*
X106822374Y-32185893D01*
X106788702Y-32152221D01*
X106755030Y-32051206D01*
X106755030Y-31983862D01*
X106788702Y-31882847D01*
X106923389Y-31748160D01*
X107024404Y-31714488D01*
X107091748Y-31714488D01*
X107192763Y-31748160D01*
X107226435Y-31781832D01*
X107260106Y-31882847D01*
X107260106Y-31950190D01*
X107226435Y-32051206D01*
X107091748Y-32185893D01*
X107058076Y-32286908D01*
X107058076Y-32354251D01*
X107091748Y-32455267D01*
X107226435Y-32589954D01*
X107327450Y-32623625D01*
X107394793Y-32623625D01*
X107495809Y-32589954D01*
X107630496Y-32455267D01*
X107664167Y-32354251D01*
X107664167Y-32286908D01*
X107630496Y-32185893D01*
X107495809Y-32051206D01*
X107394793Y-32017534D01*
X107327450Y-32017534D01*
X107226435Y-32051206D01*
G04 #@! TO.C,C120*
X75715952Y-51157142D02*
X75668333Y-51204761D01*
X75525476Y-51252380D01*
X75430238Y-51252380D01*
X75287380Y-51204761D01*
X75192142Y-51109523D01*
X75144523Y-51014285D01*
X75096904Y-50823809D01*
X75096904Y-50680952D01*
X75144523Y-50490476D01*
X75192142Y-50395238D01*
X75287380Y-50300000D01*
X75430238Y-50252380D01*
X75525476Y-50252380D01*
X75668333Y-50300000D01*
X75715952Y-50347619D01*
X76668333Y-51252380D02*
X76096904Y-51252380D01*
X76382619Y-51252380D02*
X76382619Y-50252380D01*
X76287380Y-50395238D01*
X76192142Y-50490476D01*
X76096904Y-50538095D01*
X77049285Y-50347619D02*
X77096904Y-50300000D01*
X77192142Y-50252380D01*
X77430238Y-50252380D01*
X77525476Y-50300000D01*
X77573095Y-50347619D01*
X77620714Y-50442857D01*
X77620714Y-50538095D01*
X77573095Y-50680952D01*
X77001666Y-51252380D01*
X77620714Y-51252380D01*
X78239761Y-50252380D02*
X78335000Y-50252380D01*
X78430238Y-50300000D01*
X78477857Y-50347619D01*
X78525476Y-50442857D01*
X78573095Y-50633333D01*
X78573095Y-50871428D01*
X78525476Y-51061904D01*
X78477857Y-51157142D01*
X78430238Y-51204761D01*
X78335000Y-51252380D01*
X78239761Y-51252380D01*
X78144523Y-51204761D01*
X78096904Y-51157142D01*
X78049285Y-51061904D01*
X78001666Y-50871428D01*
X78001666Y-50633333D01*
X78049285Y-50442857D01*
X78096904Y-50347619D01*
X78144523Y-50300000D01*
X78239761Y-50252380D01*
G04 #@! TO.C,U16*
X71151904Y-50252380D02*
X71151904Y-51061904D01*
X71199523Y-51157142D01*
X71247142Y-51204761D01*
X71342380Y-51252380D01*
X71532857Y-51252380D01*
X71628095Y-51204761D01*
X71675714Y-51157142D01*
X71723333Y-51061904D01*
X71723333Y-50252380D01*
X72723333Y-51252380D02*
X72151904Y-51252380D01*
X72437619Y-51252380D02*
X72437619Y-50252380D01*
X72342380Y-50395238D01*
X72247142Y-50490476D01*
X72151904Y-50538095D01*
X73580476Y-50252380D02*
X73390000Y-50252380D01*
X73294761Y-50300000D01*
X73247142Y-50347619D01*
X73151904Y-50490476D01*
X73104285Y-50680952D01*
X73104285Y-51061904D01*
X73151904Y-51157142D01*
X73199523Y-51204761D01*
X73294761Y-51252380D01*
X73485238Y-51252380D01*
X73580476Y-51204761D01*
X73628095Y-51157142D01*
X73675714Y-51061904D01*
X73675714Y-50823809D01*
X73628095Y-50728571D01*
X73580476Y-50680952D01*
X73485238Y-50633333D01*
X73294761Y-50633333D01*
X73199523Y-50680952D01*
X73151904Y-50728571D01*
X73104285Y-50823809D01*
G04 #@! TO.C,C121*
X75715952Y-63857142D02*
X75668333Y-63904761D01*
X75525476Y-63952380D01*
X75430238Y-63952380D01*
X75287380Y-63904761D01*
X75192142Y-63809523D01*
X75144523Y-63714285D01*
X75096904Y-63523809D01*
X75096904Y-63380952D01*
X75144523Y-63190476D01*
X75192142Y-63095238D01*
X75287380Y-63000000D01*
X75430238Y-62952380D01*
X75525476Y-62952380D01*
X75668333Y-63000000D01*
X75715952Y-63047619D01*
X76668333Y-63952380D02*
X76096904Y-63952380D01*
X76382619Y-63952380D02*
X76382619Y-62952380D01*
X76287380Y-63095238D01*
X76192142Y-63190476D01*
X76096904Y-63238095D01*
X77049285Y-63047619D02*
X77096904Y-63000000D01*
X77192142Y-62952380D01*
X77430238Y-62952380D01*
X77525476Y-63000000D01*
X77573095Y-63047619D01*
X77620714Y-63142857D01*
X77620714Y-63238095D01*
X77573095Y-63380952D01*
X77001666Y-63952380D01*
X77620714Y-63952380D01*
X78573095Y-63952380D02*
X78001666Y-63952380D01*
X78287380Y-63952380D02*
X78287380Y-62952380D01*
X78192142Y-63095238D01*
X78096904Y-63190476D01*
X78001666Y-63238095D01*
G04 #@! TO.C,C91*
X86527142Y-104407857D02*
X86574761Y-104455476D01*
X86622380Y-104598333D01*
X86622380Y-104693571D01*
X86574761Y-104836428D01*
X86479523Y-104931666D01*
X86384285Y-104979285D01*
X86193809Y-105026904D01*
X86050952Y-105026904D01*
X85860476Y-104979285D01*
X85765238Y-104931666D01*
X85670000Y-104836428D01*
X85622380Y-104693571D01*
X85622380Y-104598333D01*
X85670000Y-104455476D01*
X85717619Y-104407857D01*
X86622380Y-103931666D02*
X86622380Y-103741190D01*
X86574761Y-103645952D01*
X86527142Y-103598333D01*
X86384285Y-103503095D01*
X86193809Y-103455476D01*
X85812857Y-103455476D01*
X85717619Y-103503095D01*
X85670000Y-103550714D01*
X85622380Y-103645952D01*
X85622380Y-103836428D01*
X85670000Y-103931666D01*
X85717619Y-103979285D01*
X85812857Y-104026904D01*
X86050952Y-104026904D01*
X86146190Y-103979285D01*
X86193809Y-103931666D01*
X86241428Y-103836428D01*
X86241428Y-103645952D01*
X86193809Y-103550714D01*
X86146190Y-103503095D01*
X86050952Y-103455476D01*
X86622380Y-102503095D02*
X86622380Y-103074523D01*
X86622380Y-102788809D02*
X85622380Y-102788809D01*
X85765238Y-102884047D01*
X85860476Y-102979285D01*
X85908095Y-103074523D01*
G04 #@! TO.C,C92*
X92162857Y-103122142D02*
X92115238Y-103074523D01*
X92067619Y-102931666D01*
X92067619Y-102836428D01*
X92115238Y-102693571D01*
X92210476Y-102598333D01*
X92305714Y-102550714D01*
X92496190Y-102503095D01*
X92639047Y-102503095D01*
X92829523Y-102550714D01*
X92924761Y-102598333D01*
X93020000Y-102693571D01*
X93067619Y-102836428D01*
X93067619Y-102931666D01*
X93020000Y-103074523D01*
X92972380Y-103122142D01*
X92067619Y-103598333D02*
X92067619Y-103788809D01*
X92115238Y-103884047D01*
X92162857Y-103931666D01*
X92305714Y-104026904D01*
X92496190Y-104074523D01*
X92877142Y-104074523D01*
X92972380Y-104026904D01*
X93020000Y-103979285D01*
X93067619Y-103884047D01*
X93067619Y-103693571D01*
X93020000Y-103598333D01*
X92972380Y-103550714D01*
X92877142Y-103503095D01*
X92639047Y-103503095D01*
X92543809Y-103550714D01*
X92496190Y-103598333D01*
X92448571Y-103693571D01*
X92448571Y-103884047D01*
X92496190Y-103979285D01*
X92543809Y-104026904D01*
X92639047Y-104074523D01*
X92972380Y-104455476D02*
X93020000Y-104503095D01*
X93067619Y-104598333D01*
X93067619Y-104836428D01*
X93020000Y-104931666D01*
X92972380Y-104979285D01*
X92877142Y-105026904D01*
X92781904Y-105026904D01*
X92639047Y-104979285D01*
X92067619Y-104407857D01*
X92067619Y-105026904D01*
G04 #@! TO.C,U7*
X87948095Y-110527380D02*
X87948095Y-111336904D01*
X87995714Y-111432142D01*
X88043333Y-111479761D01*
X88138571Y-111527380D01*
X88329047Y-111527380D01*
X88424285Y-111479761D01*
X88471904Y-111432142D01*
X88519523Y-111336904D01*
X88519523Y-110527380D01*
X88900476Y-110527380D02*
X89567142Y-110527380D01*
X89138571Y-111527380D01*
G04 #@! TO.C,C89*
X86527142Y-112027857D02*
X86574761Y-112075476D01*
X86622380Y-112218333D01*
X86622380Y-112313571D01*
X86574761Y-112456428D01*
X86479523Y-112551666D01*
X86384285Y-112599285D01*
X86193809Y-112646904D01*
X86050952Y-112646904D01*
X85860476Y-112599285D01*
X85765238Y-112551666D01*
X85670000Y-112456428D01*
X85622380Y-112313571D01*
X85622380Y-112218333D01*
X85670000Y-112075476D01*
X85717619Y-112027857D01*
X86050952Y-111456428D02*
X86003333Y-111551666D01*
X85955714Y-111599285D01*
X85860476Y-111646904D01*
X85812857Y-111646904D01*
X85717619Y-111599285D01*
X85670000Y-111551666D01*
X85622380Y-111456428D01*
X85622380Y-111265952D01*
X85670000Y-111170714D01*
X85717619Y-111123095D01*
X85812857Y-111075476D01*
X85860476Y-111075476D01*
X85955714Y-111123095D01*
X86003333Y-111170714D01*
X86050952Y-111265952D01*
X86050952Y-111456428D01*
X86098571Y-111551666D01*
X86146190Y-111599285D01*
X86241428Y-111646904D01*
X86431904Y-111646904D01*
X86527142Y-111599285D01*
X86574761Y-111551666D01*
X86622380Y-111456428D01*
X86622380Y-111265952D01*
X86574761Y-111170714D01*
X86527142Y-111123095D01*
X86431904Y-111075476D01*
X86241428Y-111075476D01*
X86146190Y-111123095D01*
X86098571Y-111170714D01*
X86050952Y-111265952D01*
X86622380Y-110599285D02*
X86622380Y-110408809D01*
X86574761Y-110313571D01*
X86527142Y-110265952D01*
X86384285Y-110170714D01*
X86193809Y-110123095D01*
X85812857Y-110123095D01*
X85717619Y-110170714D01*
X85670000Y-110218333D01*
X85622380Y-110313571D01*
X85622380Y-110504047D01*
X85670000Y-110599285D01*
X85717619Y-110646904D01*
X85812857Y-110694523D01*
X86050952Y-110694523D01*
X86146190Y-110646904D01*
X86193809Y-110599285D01*
X86241428Y-110504047D01*
X86241428Y-110313571D01*
X86193809Y-110218333D01*
X86146190Y-110170714D01*
X86050952Y-110123095D01*
G04 #@! TO.C,C90*
X92877142Y-112027857D02*
X92924761Y-112075476D01*
X92972380Y-112218333D01*
X92972380Y-112313571D01*
X92924761Y-112456428D01*
X92829523Y-112551666D01*
X92734285Y-112599285D01*
X92543809Y-112646904D01*
X92400952Y-112646904D01*
X92210476Y-112599285D01*
X92115238Y-112551666D01*
X92020000Y-112456428D01*
X91972380Y-112313571D01*
X91972380Y-112218333D01*
X92020000Y-112075476D01*
X92067619Y-112027857D01*
X92972380Y-111551666D02*
X92972380Y-111361190D01*
X92924761Y-111265952D01*
X92877142Y-111218333D01*
X92734285Y-111123095D01*
X92543809Y-111075476D01*
X92162857Y-111075476D01*
X92067619Y-111123095D01*
X92020000Y-111170714D01*
X91972380Y-111265952D01*
X91972380Y-111456428D01*
X92020000Y-111551666D01*
X92067619Y-111599285D01*
X92162857Y-111646904D01*
X92400952Y-111646904D01*
X92496190Y-111599285D01*
X92543809Y-111551666D01*
X92591428Y-111456428D01*
X92591428Y-111265952D01*
X92543809Y-111170714D01*
X92496190Y-111123095D01*
X92400952Y-111075476D01*
X91972380Y-110456428D02*
X91972380Y-110361190D01*
X92020000Y-110265952D01*
X92067619Y-110218333D01*
X92162857Y-110170714D01*
X92353333Y-110123095D01*
X92591428Y-110123095D01*
X92781904Y-110170714D01*
X92877142Y-110218333D01*
X92924761Y-110265952D01*
X92972380Y-110361190D01*
X92972380Y-110456428D01*
X92924761Y-110551666D01*
X92877142Y-110599285D01*
X92781904Y-110646904D01*
X92591428Y-110694523D01*
X92353333Y-110694523D01*
X92162857Y-110646904D01*
X92067619Y-110599285D01*
X92020000Y-110551666D01*
X91972380Y-110456428D01*
G04 #@! TO.C,C40*
X60317142Y-107672142D02*
X60269523Y-107719761D01*
X60126666Y-107767380D01*
X60031428Y-107767380D01*
X59888571Y-107719761D01*
X59793333Y-107624523D01*
X59745714Y-107529285D01*
X59698095Y-107338809D01*
X59698095Y-107195952D01*
X59745714Y-107005476D01*
X59793333Y-106910238D01*
X59888571Y-106815000D01*
X60031428Y-106767380D01*
X60126666Y-106767380D01*
X60269523Y-106815000D01*
X60317142Y-106862619D01*
X61174285Y-107100714D02*
X61174285Y-107767380D01*
X60936190Y-106719761D02*
X60698095Y-107434047D01*
X61317142Y-107434047D01*
X61888571Y-106767380D02*
X61983809Y-106767380D01*
X62079047Y-106815000D01*
X62126666Y-106862619D01*
X62174285Y-106957857D01*
X62221904Y-107148333D01*
X62221904Y-107386428D01*
X62174285Y-107576904D01*
X62126666Y-107672142D01*
X62079047Y-107719761D01*
X61983809Y-107767380D01*
X61888571Y-107767380D01*
X61793333Y-107719761D01*
X61745714Y-107672142D01*
X61698095Y-107576904D01*
X61650476Y-107386428D01*
X61650476Y-107148333D01*
X61698095Y-106957857D01*
X61745714Y-106862619D01*
X61793333Y-106815000D01*
X61888571Y-106767380D01*
G04 #@! TO.C,C32*
X55602142Y-102242857D02*
X55649761Y-102290476D01*
X55697380Y-102433333D01*
X55697380Y-102528571D01*
X55649761Y-102671428D01*
X55554523Y-102766666D01*
X55459285Y-102814285D01*
X55268809Y-102861904D01*
X55125952Y-102861904D01*
X54935476Y-102814285D01*
X54840238Y-102766666D01*
X54745000Y-102671428D01*
X54697380Y-102528571D01*
X54697380Y-102433333D01*
X54745000Y-102290476D01*
X54792619Y-102242857D01*
X54697380Y-101909523D02*
X54697380Y-101290476D01*
X55078333Y-101623809D01*
X55078333Y-101480952D01*
X55125952Y-101385714D01*
X55173571Y-101338095D01*
X55268809Y-101290476D01*
X55506904Y-101290476D01*
X55602142Y-101338095D01*
X55649761Y-101385714D01*
X55697380Y-101480952D01*
X55697380Y-101766666D01*
X55649761Y-101861904D01*
X55602142Y-101909523D01*
X54792619Y-100909523D02*
X54745000Y-100861904D01*
X54697380Y-100766666D01*
X54697380Y-100528571D01*
X54745000Y-100433333D01*
X54792619Y-100385714D01*
X54887857Y-100338095D01*
X54983095Y-100338095D01*
X55125952Y-100385714D01*
X55697380Y-100957142D01*
X55697380Y-100338095D01*
G04 #@! TO.C,C33*
X54332142Y-102242857D02*
X54379761Y-102290476D01*
X54427380Y-102433333D01*
X54427380Y-102528571D01*
X54379761Y-102671428D01*
X54284523Y-102766666D01*
X54189285Y-102814285D01*
X53998809Y-102861904D01*
X53855952Y-102861904D01*
X53665476Y-102814285D01*
X53570238Y-102766666D01*
X53475000Y-102671428D01*
X53427380Y-102528571D01*
X53427380Y-102433333D01*
X53475000Y-102290476D01*
X53522619Y-102242857D01*
X53427380Y-101909523D02*
X53427380Y-101290476D01*
X53808333Y-101623809D01*
X53808333Y-101480952D01*
X53855952Y-101385714D01*
X53903571Y-101338095D01*
X53998809Y-101290476D01*
X54236904Y-101290476D01*
X54332142Y-101338095D01*
X54379761Y-101385714D01*
X54427380Y-101480952D01*
X54427380Y-101766666D01*
X54379761Y-101861904D01*
X54332142Y-101909523D01*
X53427380Y-100957142D02*
X53427380Y-100338095D01*
X53808333Y-100671428D01*
X53808333Y-100528571D01*
X53855952Y-100433333D01*
X53903571Y-100385714D01*
X53998809Y-100338095D01*
X54236904Y-100338095D01*
X54332142Y-100385714D01*
X54379761Y-100433333D01*
X54427380Y-100528571D01*
X54427380Y-100814285D01*
X54379761Y-100909523D01*
X54332142Y-100957142D01*
G04 #@! TO.C,C31*
X54332142Y-99067857D02*
X54379761Y-99115476D01*
X54427380Y-99258333D01*
X54427380Y-99353571D01*
X54379761Y-99496428D01*
X54284523Y-99591666D01*
X54189285Y-99639285D01*
X53998809Y-99686904D01*
X53855952Y-99686904D01*
X53665476Y-99639285D01*
X53570238Y-99591666D01*
X53475000Y-99496428D01*
X53427380Y-99353571D01*
X53427380Y-99258333D01*
X53475000Y-99115476D01*
X53522619Y-99067857D01*
X53427380Y-98734523D02*
X53427380Y-98115476D01*
X53808333Y-98448809D01*
X53808333Y-98305952D01*
X53855952Y-98210714D01*
X53903571Y-98163095D01*
X53998809Y-98115476D01*
X54236904Y-98115476D01*
X54332142Y-98163095D01*
X54379761Y-98210714D01*
X54427380Y-98305952D01*
X54427380Y-98591666D01*
X54379761Y-98686904D01*
X54332142Y-98734523D01*
X54427380Y-97163095D02*
X54427380Y-97734523D01*
X54427380Y-97448809D02*
X53427380Y-97448809D01*
X53570238Y-97544047D01*
X53665476Y-97639285D01*
X53713095Y-97734523D01*
G04 #@! TO.C,C34*
X53648893Y-104826969D02*
X53581549Y-104826969D01*
X53446862Y-104759625D01*
X53379519Y-104692282D01*
X53312175Y-104557595D01*
X53312175Y-104422908D01*
X53345847Y-104321893D01*
X53446862Y-104153534D01*
X53547877Y-104052519D01*
X53716236Y-103951503D01*
X53817251Y-103917832D01*
X53951938Y-103917832D01*
X54086625Y-103985175D01*
X54153969Y-104052519D01*
X54221312Y-104187206D01*
X54221312Y-104254549D01*
X54524358Y-104422908D02*
X54962091Y-104860641D01*
X54457015Y-104894312D01*
X54558030Y-104995328D01*
X54591702Y-105096343D01*
X54591702Y-105163687D01*
X54558030Y-105264702D01*
X54389671Y-105433061D01*
X54288656Y-105466732D01*
X54221312Y-105466732D01*
X54120297Y-105433061D01*
X53918267Y-105231030D01*
X53884595Y-105130015D01*
X53884595Y-105062671D01*
X55332480Y-105702435D02*
X54861076Y-106173839D01*
X55433496Y-105264702D02*
X54760061Y-105601419D01*
X55197793Y-106039152D01*
G04 #@! TO.C,C38*
X65397142Y-104497141D02*
X65349523Y-104544760D01*
X65206666Y-104592379D01*
X65111428Y-104592379D01*
X64968571Y-104544760D01*
X64873333Y-104449522D01*
X64825714Y-104354284D01*
X64778095Y-104163808D01*
X64778095Y-104020951D01*
X64825714Y-103830475D01*
X64873333Y-103735237D01*
X64968571Y-103639999D01*
X65111428Y-103592379D01*
X65206666Y-103592379D01*
X65349523Y-103639999D01*
X65397142Y-103687618D01*
X65730476Y-103592379D02*
X66349523Y-103592379D01*
X66016190Y-103973332D01*
X66159047Y-103973332D01*
X66254285Y-104020951D01*
X66301904Y-104068570D01*
X66349523Y-104163808D01*
X66349523Y-104401903D01*
X66301904Y-104497141D01*
X66254285Y-104544760D01*
X66159047Y-104592379D01*
X65873333Y-104592379D01*
X65778095Y-104544760D01*
X65730476Y-104497141D01*
X66920952Y-104020951D02*
X66825714Y-103973332D01*
X66778095Y-103925713D01*
X66730476Y-103830475D01*
X66730476Y-103782856D01*
X66778095Y-103687618D01*
X66825714Y-103639999D01*
X66920952Y-103592379D01*
X67111428Y-103592379D01*
X67206666Y-103639999D01*
X67254285Y-103687618D01*
X67301904Y-103782856D01*
X67301904Y-103830475D01*
X67254285Y-103925713D01*
X67206666Y-103973332D01*
X67111428Y-104020951D01*
X66920952Y-104020951D01*
X66825714Y-104068570D01*
X66778095Y-104116189D01*
X66730476Y-104211427D01*
X66730476Y-104401903D01*
X66778095Y-104497141D01*
X66825714Y-104544760D01*
X66920952Y-104592379D01*
X67111428Y-104592379D01*
X67206666Y-104544760D01*
X67254285Y-104497141D01*
X67301904Y-104401903D01*
X67301904Y-104211427D01*
X67254285Y-104116189D01*
X67206666Y-104068570D01*
X67111428Y-104020951D01*
G04 #@! TO.C,C42*
X67302142Y-107037142D02*
X67254523Y-107084761D01*
X67111666Y-107132380D01*
X67016428Y-107132380D01*
X66873571Y-107084761D01*
X66778333Y-106989523D01*
X66730714Y-106894285D01*
X66683095Y-106703809D01*
X66683095Y-106560952D01*
X66730714Y-106370476D01*
X66778333Y-106275238D01*
X66873571Y-106180000D01*
X67016428Y-106132380D01*
X67111666Y-106132380D01*
X67254523Y-106180000D01*
X67302142Y-106227619D01*
X68159285Y-106465714D02*
X68159285Y-107132380D01*
X67921190Y-106084761D02*
X67683095Y-106799047D01*
X68302142Y-106799047D01*
X68635476Y-106227619D02*
X68683095Y-106180000D01*
X68778333Y-106132380D01*
X69016428Y-106132380D01*
X69111666Y-106180000D01*
X69159285Y-106227619D01*
X69206904Y-106322857D01*
X69206904Y-106418095D01*
X69159285Y-106560952D01*
X68587857Y-107132380D01*
X69206904Y-107132380D01*
G04 #@! TO.C,C39*
X59301142Y-106402142D02*
X59253523Y-106449761D01*
X59110666Y-106497380D01*
X59015428Y-106497380D01*
X58872571Y-106449761D01*
X58777333Y-106354523D01*
X58729714Y-106259285D01*
X58682095Y-106068809D01*
X58682095Y-105925952D01*
X58729714Y-105735476D01*
X58777333Y-105640238D01*
X58872571Y-105545000D01*
X59015428Y-105497380D01*
X59110666Y-105497380D01*
X59253523Y-105545000D01*
X59301142Y-105592619D01*
X59634476Y-105497380D02*
X60253523Y-105497380D01*
X59920190Y-105878333D01*
X60063047Y-105878333D01*
X60158285Y-105925952D01*
X60205904Y-105973571D01*
X60253523Y-106068809D01*
X60253523Y-106306904D01*
X60205904Y-106402142D01*
X60158285Y-106449761D01*
X60063047Y-106497380D01*
X59777333Y-106497380D01*
X59682095Y-106449761D01*
X59634476Y-106402142D01*
X60729714Y-106497380D02*
X60920190Y-106497380D01*
X61015428Y-106449761D01*
X61063047Y-106402142D01*
X61158285Y-106259285D01*
X61205904Y-106068809D01*
X61205904Y-105687857D01*
X61158285Y-105592619D01*
X61110666Y-105545000D01*
X61015428Y-105497380D01*
X60824952Y-105497380D01*
X60729714Y-105545000D01*
X60682095Y-105592619D01*
X60634476Y-105687857D01*
X60634476Y-105925952D01*
X60682095Y-106021190D01*
X60729714Y-106068809D01*
X60824952Y-106116428D01*
X61015428Y-106116428D01*
X61110666Y-106068809D01*
X61158285Y-106021190D01*
X61205904Y-105925952D01*
G04 #@! TO.C,C27*
X59625893Y-88681969D02*
X59558549Y-88681969D01*
X59423862Y-88614625D01*
X59356519Y-88547282D01*
X59289175Y-88412595D01*
X59289175Y-88277908D01*
X59322847Y-88176893D01*
X59423862Y-88008534D01*
X59524877Y-87907519D01*
X59693236Y-87806503D01*
X59794251Y-87772832D01*
X59928938Y-87772832D01*
X60063625Y-87840175D01*
X60130969Y-87907519D01*
X60198312Y-88042206D01*
X60198312Y-88109549D01*
X60467687Y-88378923D02*
X60535030Y-88378923D01*
X60636045Y-88412595D01*
X60804404Y-88580954D01*
X60838076Y-88681969D01*
X60838076Y-88749312D01*
X60804404Y-88850328D01*
X60737061Y-88917671D01*
X60602374Y-88985015D01*
X59794251Y-88985015D01*
X60231984Y-89422748D01*
X61174793Y-88951343D02*
X61646198Y-89422748D01*
X60636045Y-89826809D01*
G04 #@! TO.C,C29*
X66602893Y-90602969D02*
X66535549Y-90602969D01*
X66400862Y-90535625D01*
X66333519Y-90468282D01*
X66266175Y-90333595D01*
X66266175Y-90198908D01*
X66299847Y-90097893D01*
X66400862Y-89929534D01*
X66501877Y-89828519D01*
X66670236Y-89727503D01*
X66771251Y-89693832D01*
X66905938Y-89693832D01*
X67040625Y-89761175D01*
X67107969Y-89828519D01*
X67175312Y-89963206D01*
X67175312Y-90030549D01*
X67444687Y-90299923D02*
X67512030Y-90299923D01*
X67613045Y-90333595D01*
X67781404Y-90501954D01*
X67815076Y-90602969D01*
X67815076Y-90670312D01*
X67781404Y-90771328D01*
X67714061Y-90838671D01*
X67579374Y-90906015D01*
X66771251Y-90906015D01*
X67208984Y-91343748D01*
X67545702Y-91680465D02*
X67680389Y-91815152D01*
X67781404Y-91848824D01*
X67848748Y-91848824D01*
X68017106Y-91815152D01*
X68185465Y-91714137D01*
X68454839Y-91444763D01*
X68488511Y-91343748D01*
X68488511Y-91276404D01*
X68454839Y-91175389D01*
X68320152Y-91040702D01*
X68219137Y-91007030D01*
X68151793Y-91007030D01*
X68050778Y-91040702D01*
X67882419Y-91209061D01*
X67848748Y-91310076D01*
X67848748Y-91377419D01*
X67882419Y-91478435D01*
X68017106Y-91613122D01*
X68118122Y-91646793D01*
X68185465Y-91646793D01*
X68286480Y-91613122D01*
G04 #@! TO.C,C36*
X58347893Y-103937969D02*
X58280549Y-103937969D01*
X58145862Y-103870625D01*
X58078519Y-103803282D01*
X58011175Y-103668595D01*
X58011175Y-103533908D01*
X58044847Y-103432893D01*
X58145862Y-103264534D01*
X58246877Y-103163519D01*
X58415236Y-103062503D01*
X58516251Y-103028832D01*
X58650938Y-103028832D01*
X58785625Y-103096175D01*
X58852969Y-103163519D01*
X58920312Y-103298206D01*
X58920312Y-103365549D01*
X59223358Y-103533908D02*
X59661091Y-103971641D01*
X59156015Y-104005312D01*
X59257030Y-104106328D01*
X59290702Y-104207343D01*
X59290702Y-104274687D01*
X59257030Y-104375702D01*
X59088671Y-104544061D01*
X58987656Y-104577732D01*
X58920312Y-104577732D01*
X58819297Y-104544061D01*
X58617267Y-104342030D01*
X58583595Y-104241015D01*
X58583595Y-104173671D01*
X60267183Y-104577732D02*
X60132496Y-104443045D01*
X60031480Y-104409374D01*
X59964137Y-104409374D01*
X59795778Y-104443045D01*
X59627419Y-104544061D01*
X59358045Y-104813435D01*
X59324374Y-104914450D01*
X59324374Y-104981793D01*
X59358045Y-105082809D01*
X59492732Y-105217496D01*
X59593748Y-105251167D01*
X59661091Y-105251167D01*
X59762106Y-105217496D01*
X59930465Y-105049137D01*
X59964137Y-104948122D01*
X59964137Y-104880778D01*
X59930465Y-104779763D01*
X59795778Y-104645076D01*
X59694763Y-104611404D01*
X59627419Y-104611404D01*
X59526404Y-104645076D01*
G04 #@! TO.C,C23*
X68302142Y-101607857D02*
X68349761Y-101655476D01*
X68397380Y-101798333D01*
X68397380Y-101893571D01*
X68349761Y-102036428D01*
X68254523Y-102131666D01*
X68159285Y-102179285D01*
X67968809Y-102226904D01*
X67825952Y-102226904D01*
X67635476Y-102179285D01*
X67540238Y-102131666D01*
X67445000Y-102036428D01*
X67397380Y-101893571D01*
X67397380Y-101798333D01*
X67445000Y-101655476D01*
X67492619Y-101607857D01*
X67492619Y-101226904D02*
X67445000Y-101179285D01*
X67397380Y-101084047D01*
X67397380Y-100845952D01*
X67445000Y-100750714D01*
X67492619Y-100703095D01*
X67587857Y-100655476D01*
X67683095Y-100655476D01*
X67825952Y-100703095D01*
X68397380Y-101274523D01*
X68397380Y-100655476D01*
X67397380Y-100322142D02*
X67397380Y-99703095D01*
X67778333Y-100036428D01*
X67778333Y-99893571D01*
X67825952Y-99798333D01*
X67873571Y-99750714D01*
X67968809Y-99703095D01*
X68206904Y-99703095D01*
X68302142Y-99750714D01*
X68349761Y-99798333D01*
X68397380Y-99893571D01*
X68397380Y-100179285D01*
X68349761Y-100274523D01*
X68302142Y-100322142D01*
G04 #@! TO.C,C26*
X58979893Y-89962969D02*
X58912549Y-89962969D01*
X58777862Y-89895625D01*
X58710519Y-89828282D01*
X58643175Y-89693595D01*
X58643175Y-89558908D01*
X58676847Y-89457893D01*
X58777862Y-89289534D01*
X58878877Y-89188519D01*
X59047236Y-89087503D01*
X59148251Y-89053832D01*
X59282938Y-89053832D01*
X59417625Y-89121175D01*
X59484969Y-89188519D01*
X59552312Y-89323206D01*
X59552312Y-89390549D01*
X59821687Y-89659923D02*
X59889030Y-89659923D01*
X59990045Y-89693595D01*
X60158404Y-89861954D01*
X60192076Y-89962969D01*
X60192076Y-90030312D01*
X60158404Y-90131328D01*
X60091061Y-90198671D01*
X59956374Y-90266015D01*
X59148251Y-90266015D01*
X59585984Y-90703748D01*
X60899183Y-90602732D02*
X60764496Y-90468045D01*
X60663480Y-90434374D01*
X60596137Y-90434374D01*
X60427778Y-90468045D01*
X60259419Y-90569061D01*
X59990045Y-90838435D01*
X59956374Y-90939450D01*
X59956374Y-91006793D01*
X59990045Y-91107809D01*
X60124732Y-91242496D01*
X60225748Y-91276167D01*
X60293091Y-91276167D01*
X60394106Y-91242496D01*
X60562465Y-91074137D01*
X60596137Y-90973122D01*
X60596137Y-90905778D01*
X60562465Y-90804763D01*
X60427778Y-90670076D01*
X60326763Y-90636404D01*
X60259419Y-90636404D01*
X60158404Y-90670076D01*
G04 #@! TO.C,C37*
X56569893Y-106223969D02*
X56502549Y-106223969D01*
X56367862Y-106156625D01*
X56300519Y-106089282D01*
X56233175Y-105954595D01*
X56233175Y-105819908D01*
X56266847Y-105718893D01*
X56367862Y-105550534D01*
X56468877Y-105449519D01*
X56637236Y-105348503D01*
X56738251Y-105314832D01*
X56872938Y-105314832D01*
X57007625Y-105382175D01*
X57074969Y-105449519D01*
X57142312Y-105584206D01*
X57142312Y-105651549D01*
X57445358Y-105819908D02*
X57883091Y-106257641D01*
X57378015Y-106291312D01*
X57479030Y-106392328D01*
X57512702Y-106493343D01*
X57512702Y-106560687D01*
X57479030Y-106661702D01*
X57310671Y-106830061D01*
X57209656Y-106863732D01*
X57142312Y-106863732D01*
X57041297Y-106830061D01*
X56839267Y-106628030D01*
X56805595Y-106527015D01*
X56805595Y-106459671D01*
X58118793Y-106493343D02*
X58590198Y-106964748D01*
X57580045Y-107368809D01*
G04 #@! TO.C,C28*
X65332893Y-91237968D02*
X65265549Y-91237968D01*
X65130862Y-91170624D01*
X65063519Y-91103281D01*
X64996175Y-90968594D01*
X64996175Y-90833907D01*
X65029847Y-90732892D01*
X65130862Y-90564533D01*
X65231877Y-90463518D01*
X65400236Y-90362502D01*
X65501251Y-90328831D01*
X65635938Y-90328831D01*
X65770625Y-90396174D01*
X65837969Y-90463518D01*
X65905312Y-90598205D01*
X65905312Y-90665548D01*
X66174687Y-90934922D02*
X66242030Y-90934922D01*
X66343045Y-90968594D01*
X66511404Y-91136953D01*
X66545076Y-91237968D01*
X66545076Y-91305311D01*
X66511404Y-91406327D01*
X66444061Y-91473670D01*
X66309374Y-91541014D01*
X65501251Y-91541014D01*
X65938984Y-91978747D01*
X66747106Y-91978747D02*
X66713435Y-91877731D01*
X66713435Y-91810388D01*
X66747106Y-91709373D01*
X66780778Y-91675701D01*
X66881793Y-91642029D01*
X66949137Y-91642029D01*
X67050152Y-91675701D01*
X67184839Y-91810388D01*
X67218511Y-91911403D01*
X67218511Y-91978747D01*
X67184839Y-92079762D01*
X67151167Y-92113434D01*
X67050152Y-92147105D01*
X66982809Y-92147105D01*
X66881793Y-92113434D01*
X66747106Y-91978747D01*
X66646091Y-91945075D01*
X66578748Y-91945075D01*
X66477732Y-91978747D01*
X66343045Y-92113434D01*
X66309374Y-92214449D01*
X66309374Y-92281792D01*
X66343045Y-92382808D01*
X66477732Y-92517495D01*
X66578748Y-92551166D01*
X66646091Y-92551166D01*
X66747106Y-92517495D01*
X66881793Y-92382808D01*
X66915465Y-92281792D01*
X66915465Y-92214449D01*
X66881793Y-92113434D01*
G04 #@! TO.C,C35*
X53394893Y-106350969D02*
X53327549Y-106350969D01*
X53192862Y-106283625D01*
X53125519Y-106216282D01*
X53058175Y-106081595D01*
X53058175Y-105946908D01*
X53091847Y-105845893D01*
X53192862Y-105677534D01*
X53293877Y-105576519D01*
X53462236Y-105475503D01*
X53563251Y-105441832D01*
X53697938Y-105441832D01*
X53832625Y-105509175D01*
X53899969Y-105576519D01*
X53967312Y-105711206D01*
X53967312Y-105778549D01*
X54270358Y-105946908D02*
X54708091Y-106384641D01*
X54203015Y-106418312D01*
X54304030Y-106519328D01*
X54337702Y-106620343D01*
X54337702Y-106687687D01*
X54304030Y-106788702D01*
X54135671Y-106957061D01*
X54034656Y-106990732D01*
X53967312Y-106990732D01*
X53866297Y-106957061D01*
X53664267Y-106755030D01*
X53630595Y-106654015D01*
X53630595Y-106586671D01*
X55347854Y-107024404D02*
X55011137Y-106687687D01*
X54640748Y-106990732D01*
X54708091Y-106990732D01*
X54809106Y-107024404D01*
X54977465Y-107192763D01*
X55011137Y-107293778D01*
X55011137Y-107361122D01*
X54977465Y-107462137D01*
X54809106Y-107630496D01*
X54708091Y-107664167D01*
X54640748Y-107664167D01*
X54539732Y-107630496D01*
X54371374Y-107462137D01*
X54337702Y-107361122D01*
X54337702Y-107293778D01*
G04 #@! TO.C,C25*
X68302142Y-99067857D02*
X68349761Y-99115476D01*
X68397380Y-99258333D01*
X68397380Y-99353571D01*
X68349761Y-99496428D01*
X68254523Y-99591666D01*
X68159285Y-99639285D01*
X67968809Y-99686904D01*
X67825952Y-99686904D01*
X67635476Y-99639285D01*
X67540238Y-99591666D01*
X67445000Y-99496428D01*
X67397380Y-99353571D01*
X67397380Y-99258333D01*
X67445000Y-99115476D01*
X67492619Y-99067857D01*
X67492619Y-98686904D02*
X67445000Y-98639285D01*
X67397380Y-98544047D01*
X67397380Y-98305952D01*
X67445000Y-98210714D01*
X67492619Y-98163095D01*
X67587857Y-98115476D01*
X67683095Y-98115476D01*
X67825952Y-98163095D01*
X68397380Y-98734523D01*
X68397380Y-98115476D01*
X67397380Y-97210714D02*
X67397380Y-97686904D01*
X67873571Y-97734523D01*
X67825952Y-97686904D01*
X67778333Y-97591666D01*
X67778333Y-97353571D01*
X67825952Y-97258333D01*
X67873571Y-97210714D01*
X67968809Y-97163095D01*
X68206904Y-97163095D01*
X68302142Y-97210714D01*
X68349761Y-97258333D01*
X68397380Y-97353571D01*
X68397380Y-97591666D01*
X68349761Y-97686904D01*
X68302142Y-97734523D01*
G04 #@! TO.C,C22*
X67032142Y-101607857D02*
X67079761Y-101655476D01*
X67127380Y-101798333D01*
X67127380Y-101893571D01*
X67079761Y-102036428D01*
X66984523Y-102131666D01*
X66889285Y-102179285D01*
X66698809Y-102226904D01*
X66555952Y-102226904D01*
X66365476Y-102179285D01*
X66270238Y-102131666D01*
X66175000Y-102036428D01*
X66127380Y-101893571D01*
X66127380Y-101798333D01*
X66175000Y-101655476D01*
X66222619Y-101607857D01*
X66222619Y-101226904D02*
X66175000Y-101179285D01*
X66127380Y-101084047D01*
X66127380Y-100845952D01*
X66175000Y-100750714D01*
X66222619Y-100703095D01*
X66317857Y-100655476D01*
X66413095Y-100655476D01*
X66555952Y-100703095D01*
X67127380Y-101274523D01*
X67127380Y-100655476D01*
X66222619Y-100274523D02*
X66175000Y-100226904D01*
X66127380Y-100131666D01*
X66127380Y-99893571D01*
X66175000Y-99798333D01*
X66222619Y-99750714D01*
X66317857Y-99703095D01*
X66413095Y-99703095D01*
X66555952Y-99750714D01*
X67127380Y-100322142D01*
X67127380Y-99703095D01*
G04 #@! TO.C,C30*
X55602142Y-99067857D02*
X55649761Y-99115476D01*
X55697380Y-99258333D01*
X55697380Y-99353571D01*
X55649761Y-99496428D01*
X55554523Y-99591666D01*
X55459285Y-99639285D01*
X55268809Y-99686904D01*
X55125952Y-99686904D01*
X54935476Y-99639285D01*
X54840238Y-99591666D01*
X54745000Y-99496428D01*
X54697380Y-99353571D01*
X54697380Y-99258333D01*
X54745000Y-99115476D01*
X54792619Y-99067857D01*
X54697380Y-98734523D02*
X54697380Y-98115476D01*
X55078333Y-98448809D01*
X55078333Y-98305952D01*
X55125952Y-98210714D01*
X55173571Y-98163095D01*
X55268809Y-98115476D01*
X55506904Y-98115476D01*
X55602142Y-98163095D01*
X55649761Y-98210714D01*
X55697380Y-98305952D01*
X55697380Y-98591666D01*
X55649761Y-98686904D01*
X55602142Y-98734523D01*
X54697380Y-97496428D02*
X54697380Y-97401190D01*
X54745000Y-97305952D01*
X54792619Y-97258333D01*
X54887857Y-97210714D01*
X55078333Y-97163095D01*
X55316428Y-97163095D01*
X55506904Y-97210714D01*
X55602142Y-97258333D01*
X55649761Y-97305952D01*
X55697380Y-97401190D01*
X55697380Y-97496428D01*
X55649761Y-97591666D01*
X55602142Y-97639285D01*
X55506904Y-97686904D01*
X55316428Y-97734523D01*
X55078333Y-97734523D01*
X54887857Y-97686904D01*
X54792619Y-97639285D01*
X54745000Y-97591666D01*
X54697380Y-97496428D01*
G04 #@! TO.C,C24*
X67032142Y-99067857D02*
X67079761Y-99115476D01*
X67127380Y-99258333D01*
X67127380Y-99353571D01*
X67079761Y-99496428D01*
X66984523Y-99591666D01*
X66889285Y-99639285D01*
X66698809Y-99686904D01*
X66555952Y-99686904D01*
X66365476Y-99639285D01*
X66270238Y-99591666D01*
X66175000Y-99496428D01*
X66127380Y-99353571D01*
X66127380Y-99258333D01*
X66175000Y-99115476D01*
X66222619Y-99067857D01*
X66222619Y-98686904D02*
X66175000Y-98639285D01*
X66127380Y-98544047D01*
X66127380Y-98305952D01*
X66175000Y-98210714D01*
X66222619Y-98163095D01*
X66317857Y-98115476D01*
X66413095Y-98115476D01*
X66555952Y-98163095D01*
X67127380Y-98734523D01*
X67127380Y-98115476D01*
X66460714Y-97258333D02*
X67127380Y-97258333D01*
X66079761Y-97496428D02*
X66794047Y-97734523D01*
X66794047Y-97115476D01*
G04 #@! TO.C,C41*
X67302142Y-105767142D02*
X67254523Y-105814761D01*
X67111666Y-105862380D01*
X67016428Y-105862380D01*
X66873571Y-105814761D01*
X66778333Y-105719523D01*
X66730714Y-105624285D01*
X66683095Y-105433809D01*
X66683095Y-105290952D01*
X66730714Y-105100476D01*
X66778333Y-105005238D01*
X66873571Y-104910000D01*
X67016428Y-104862380D01*
X67111666Y-104862380D01*
X67254523Y-104910000D01*
X67302142Y-104957619D01*
X68159285Y-105195714D02*
X68159285Y-105862380D01*
X67921190Y-104814761D02*
X67683095Y-105529047D01*
X68302142Y-105529047D01*
X69206904Y-105862380D02*
X68635476Y-105862380D01*
X68921190Y-105862380D02*
X68921190Y-104862380D01*
X68825952Y-105005238D01*
X68730714Y-105100476D01*
X68635476Y-105148095D01*
G04 #@! TO.C,C73*
X97782142Y-68302142D02*
X97734523Y-68349761D01*
X97591666Y-68397380D01*
X97496428Y-68397380D01*
X97353571Y-68349761D01*
X97258333Y-68254523D01*
X97210714Y-68159285D01*
X97163095Y-67968809D01*
X97163095Y-67825952D01*
X97210714Y-67635476D01*
X97258333Y-67540238D01*
X97353571Y-67445000D01*
X97496428Y-67397380D01*
X97591666Y-67397380D01*
X97734523Y-67445000D01*
X97782142Y-67492619D01*
X98115476Y-67397380D02*
X98782142Y-67397380D01*
X98353571Y-68397380D01*
X99067857Y-67397380D02*
X99686904Y-67397380D01*
X99353571Y-67778333D01*
X99496428Y-67778333D01*
X99591666Y-67825952D01*
X99639285Y-67873571D01*
X99686904Y-67968809D01*
X99686904Y-68206904D01*
X99639285Y-68302142D01*
X99591666Y-68349761D01*
X99496428Y-68397380D01*
X99210714Y-68397380D01*
X99115476Y-68349761D01*
X99067857Y-68302142D01*
G04 #@! TO.C,C79*
X106223969Y-65350106D02*
X106223969Y-65417450D01*
X106156625Y-65552137D01*
X106089282Y-65619480D01*
X105954595Y-65686824D01*
X105819908Y-65686824D01*
X105718893Y-65653152D01*
X105550534Y-65552137D01*
X105449519Y-65451122D01*
X105348503Y-65282763D01*
X105314832Y-65181748D01*
X105314832Y-65047061D01*
X105382175Y-64912374D01*
X105449519Y-64845030D01*
X105584206Y-64777687D01*
X105651549Y-64777687D01*
X105819908Y-64474641D02*
X106291312Y-64003236D01*
X106695374Y-65013389D01*
X107301465Y-64407297D02*
X107436152Y-64272610D01*
X107469824Y-64171595D01*
X107469824Y-64104251D01*
X107436152Y-63935893D01*
X107335137Y-63767534D01*
X107065763Y-63498160D01*
X106964748Y-63464488D01*
X106897404Y-63464488D01*
X106796389Y-63498160D01*
X106661702Y-63632847D01*
X106628030Y-63733862D01*
X106628030Y-63801206D01*
X106661702Y-63902221D01*
X106830061Y-64070580D01*
X106931076Y-64104251D01*
X106998419Y-64104251D01*
X107099435Y-64070580D01*
X107234122Y-63935893D01*
X107267793Y-63834877D01*
X107267793Y-63767534D01*
X107234122Y-63666519D01*
G04 #@! TO.C,C67*
X97782142Y-54332142D02*
X97734523Y-54379761D01*
X97591666Y-54427380D01*
X97496428Y-54427380D01*
X97353571Y-54379761D01*
X97258333Y-54284523D01*
X97210714Y-54189285D01*
X97163095Y-53998809D01*
X97163095Y-53855952D01*
X97210714Y-53665476D01*
X97258333Y-53570238D01*
X97353571Y-53475000D01*
X97496428Y-53427380D01*
X97591666Y-53427380D01*
X97734523Y-53475000D01*
X97782142Y-53522619D01*
X98639285Y-53427380D02*
X98448809Y-53427380D01*
X98353571Y-53475000D01*
X98305952Y-53522619D01*
X98210714Y-53665476D01*
X98163095Y-53855952D01*
X98163095Y-54236904D01*
X98210714Y-54332142D01*
X98258333Y-54379761D01*
X98353571Y-54427380D01*
X98544047Y-54427380D01*
X98639285Y-54379761D01*
X98686904Y-54332142D01*
X98734523Y-54236904D01*
X98734523Y-53998809D01*
X98686904Y-53903571D01*
X98639285Y-53855952D01*
X98544047Y-53808333D01*
X98353571Y-53808333D01*
X98258333Y-53855952D01*
X98210714Y-53903571D01*
X98163095Y-53998809D01*
X99067857Y-53427380D02*
X99734523Y-53427380D01*
X99305952Y-54427380D01*
G04 #@! TO.C,C76*
X104826969Y-68271106D02*
X104826969Y-68338450D01*
X104759625Y-68473137D01*
X104692282Y-68540480D01*
X104557595Y-68607824D01*
X104422908Y-68607824D01*
X104321893Y-68574152D01*
X104153534Y-68473137D01*
X104052519Y-68372122D01*
X103951503Y-68203763D01*
X103917832Y-68102748D01*
X103917832Y-67968061D01*
X103985175Y-67833374D01*
X104052519Y-67766030D01*
X104187206Y-67698687D01*
X104254549Y-67698687D01*
X104422908Y-67395641D02*
X104894312Y-66924236D01*
X105298374Y-67934389D01*
X105466732Y-66351816D02*
X105332045Y-66486503D01*
X105298374Y-66587519D01*
X105298374Y-66654862D01*
X105332045Y-66823221D01*
X105433061Y-66991580D01*
X105702435Y-67260954D01*
X105803450Y-67294625D01*
X105870793Y-67294625D01*
X105971809Y-67260954D01*
X106106496Y-67126267D01*
X106140167Y-67025251D01*
X106140167Y-66957908D01*
X106106496Y-66856893D01*
X105938137Y-66688534D01*
X105837122Y-66654862D01*
X105769778Y-66654862D01*
X105668763Y-66688534D01*
X105534076Y-66823221D01*
X105500404Y-66924236D01*
X105500404Y-66991580D01*
X105534076Y-67092595D01*
G04 #@! TO.C,C80*
X104497141Y-56522857D02*
X104544760Y-56570476D01*
X104592379Y-56713333D01*
X104592379Y-56808571D01*
X104544760Y-56951428D01*
X104449522Y-57046666D01*
X104354284Y-57094285D01*
X104163808Y-57141904D01*
X104020951Y-57141904D01*
X103830475Y-57094285D01*
X103735237Y-57046666D01*
X103639999Y-56951428D01*
X103592379Y-56808571D01*
X103592379Y-56713333D01*
X103639999Y-56570476D01*
X103687618Y-56522857D01*
X104020951Y-55951428D02*
X103973332Y-56046666D01*
X103925713Y-56094285D01*
X103830475Y-56141904D01*
X103782856Y-56141904D01*
X103687618Y-56094285D01*
X103639999Y-56046666D01*
X103592379Y-55951428D01*
X103592379Y-55760952D01*
X103639999Y-55665714D01*
X103687618Y-55618095D01*
X103782856Y-55570476D01*
X103830475Y-55570476D01*
X103925713Y-55618095D01*
X103973332Y-55665714D01*
X104020951Y-55760952D01*
X104020951Y-55951428D01*
X104068570Y-56046666D01*
X104116189Y-56094285D01*
X104211427Y-56141904D01*
X104401903Y-56141904D01*
X104497141Y-56094285D01*
X104544760Y-56046666D01*
X104592379Y-55951428D01*
X104592379Y-55760952D01*
X104544760Y-55665714D01*
X104497141Y-55618095D01*
X104401903Y-55570476D01*
X104211427Y-55570476D01*
X104116189Y-55618095D01*
X104068570Y-55665714D01*
X104020951Y-55760952D01*
X103592379Y-54951428D02*
X103592379Y-54856190D01*
X103639999Y-54760952D01*
X103687618Y-54713333D01*
X103782856Y-54665714D01*
X103973332Y-54618095D01*
X104211427Y-54618095D01*
X104401903Y-54665714D01*
X104497141Y-54713333D01*
X104544760Y-54760952D01*
X104592379Y-54856190D01*
X104592379Y-54951428D01*
X104544760Y-55046666D01*
X104497141Y-55094285D01*
X104401903Y-55141904D01*
X104211427Y-55189523D01*
X103973332Y-55189523D01*
X103782856Y-55141904D01*
X103687618Y-55094285D01*
X103639999Y-55046666D01*
X103592379Y-54951428D01*
G04 #@! TO.C,C71*
X90602969Y-55317106D02*
X90602969Y-55384450D01*
X90535625Y-55519137D01*
X90468282Y-55586480D01*
X90333595Y-55653824D01*
X90198908Y-55653824D01*
X90097893Y-55620152D01*
X89929534Y-55519137D01*
X89828519Y-55418122D01*
X89727503Y-55249763D01*
X89693832Y-55148748D01*
X89693832Y-55014061D01*
X89761175Y-54879374D01*
X89828519Y-54812030D01*
X89963206Y-54744687D01*
X90030549Y-54744687D01*
X90198908Y-54441641D02*
X90670312Y-53970236D01*
X91074374Y-54980389D01*
X92017183Y-54037580D02*
X91613122Y-54441641D01*
X91815152Y-54239610D02*
X91108045Y-53532503D01*
X91141717Y-53700862D01*
X91141717Y-53835549D01*
X91108045Y-53936564D01*
G04 #@! TO.C,C65*
X100322142Y-54332142D02*
X100274523Y-54379761D01*
X100131666Y-54427380D01*
X100036428Y-54427380D01*
X99893571Y-54379761D01*
X99798333Y-54284523D01*
X99750714Y-54189285D01*
X99703095Y-53998809D01*
X99703095Y-53855952D01*
X99750714Y-53665476D01*
X99798333Y-53570238D01*
X99893571Y-53475000D01*
X100036428Y-53427380D01*
X100131666Y-53427380D01*
X100274523Y-53475000D01*
X100322142Y-53522619D01*
X101179285Y-53427380D02*
X100988809Y-53427380D01*
X100893571Y-53475000D01*
X100845952Y-53522619D01*
X100750714Y-53665476D01*
X100703095Y-53855952D01*
X100703095Y-54236904D01*
X100750714Y-54332142D01*
X100798333Y-54379761D01*
X100893571Y-54427380D01*
X101084047Y-54427380D01*
X101179285Y-54379761D01*
X101226904Y-54332142D01*
X101274523Y-54236904D01*
X101274523Y-53998809D01*
X101226904Y-53903571D01*
X101179285Y-53855952D01*
X101084047Y-53808333D01*
X100893571Y-53808333D01*
X100798333Y-53855952D01*
X100750714Y-53903571D01*
X100703095Y-53998809D01*
X102179285Y-53427380D02*
X101703095Y-53427380D01*
X101655476Y-53903571D01*
X101703095Y-53855952D01*
X101798333Y-53808333D01*
X102036428Y-53808333D01*
X102131666Y-53855952D01*
X102179285Y-53903571D01*
X102226904Y-53998809D01*
X102226904Y-54236904D01*
X102179285Y-54332142D01*
X102131666Y-54379761D01*
X102036428Y-54427380D01*
X101798333Y-54427380D01*
X101703095Y-54379761D01*
X101655476Y-54332142D01*
G04 #@! TO.C,C78*
X103937969Y-63572106D02*
X103937969Y-63639450D01*
X103870625Y-63774137D01*
X103803282Y-63841480D01*
X103668595Y-63908824D01*
X103533908Y-63908824D01*
X103432893Y-63875152D01*
X103264534Y-63774137D01*
X103163519Y-63673122D01*
X103062503Y-63504763D01*
X103028832Y-63403748D01*
X103028832Y-63269061D01*
X103096175Y-63134374D01*
X103163519Y-63067030D01*
X103298206Y-62999687D01*
X103365549Y-62999687D01*
X103533908Y-62696641D02*
X104005312Y-62225236D01*
X104409374Y-63235389D01*
X104678748Y-62157893D02*
X104577732Y-62191564D01*
X104510389Y-62191564D01*
X104409374Y-62157893D01*
X104375702Y-62124221D01*
X104342030Y-62023206D01*
X104342030Y-61955862D01*
X104375702Y-61854847D01*
X104510389Y-61720160D01*
X104611404Y-61686488D01*
X104678748Y-61686488D01*
X104779763Y-61720160D01*
X104813435Y-61753832D01*
X104847106Y-61854847D01*
X104847106Y-61922190D01*
X104813435Y-62023206D01*
X104678748Y-62157893D01*
X104645076Y-62258908D01*
X104645076Y-62326251D01*
X104678748Y-62427267D01*
X104813435Y-62561954D01*
X104914450Y-62595625D01*
X104981793Y-62595625D01*
X105082809Y-62561954D01*
X105217496Y-62427267D01*
X105251167Y-62326251D01*
X105251167Y-62258908D01*
X105217496Y-62157893D01*
X105082809Y-62023206D01*
X104981793Y-61989534D01*
X104914450Y-61989534D01*
X104813435Y-62023206D01*
G04 #@! TO.C,C83*
X105767142Y-54617857D02*
X105814761Y-54665476D01*
X105862380Y-54808333D01*
X105862380Y-54903571D01*
X105814761Y-55046428D01*
X105719523Y-55141666D01*
X105624285Y-55189285D01*
X105433809Y-55236904D01*
X105290952Y-55236904D01*
X105100476Y-55189285D01*
X105005238Y-55141666D01*
X104910000Y-55046428D01*
X104862380Y-54903571D01*
X104862380Y-54808333D01*
X104910000Y-54665476D01*
X104957619Y-54617857D01*
X105290952Y-54046428D02*
X105243333Y-54141666D01*
X105195714Y-54189285D01*
X105100476Y-54236904D01*
X105052857Y-54236904D01*
X104957619Y-54189285D01*
X104910000Y-54141666D01*
X104862380Y-54046428D01*
X104862380Y-53855952D01*
X104910000Y-53760714D01*
X104957619Y-53713095D01*
X105052857Y-53665476D01*
X105100476Y-53665476D01*
X105195714Y-53713095D01*
X105243333Y-53760714D01*
X105290952Y-53855952D01*
X105290952Y-54046428D01*
X105338571Y-54141666D01*
X105386190Y-54189285D01*
X105481428Y-54236904D01*
X105671904Y-54236904D01*
X105767142Y-54189285D01*
X105814761Y-54141666D01*
X105862380Y-54046428D01*
X105862380Y-53855952D01*
X105814761Y-53760714D01*
X105767142Y-53713095D01*
X105671904Y-53665476D01*
X105481428Y-53665476D01*
X105386190Y-53713095D01*
X105338571Y-53760714D01*
X105290952Y-53855952D01*
X104862380Y-53332142D02*
X104862380Y-52713095D01*
X105243333Y-53046428D01*
X105243333Y-52903571D01*
X105290952Y-52808333D01*
X105338571Y-52760714D01*
X105433809Y-52713095D01*
X105671904Y-52713095D01*
X105767142Y-52760714D01*
X105814761Y-52808333D01*
X105862380Y-52903571D01*
X105862380Y-53189285D01*
X105814761Y-53284523D01*
X105767142Y-53332142D01*
G04 #@! TO.C,C82*
X107672142Y-61602857D02*
X107719761Y-61650476D01*
X107767380Y-61793333D01*
X107767380Y-61888571D01*
X107719761Y-62031428D01*
X107624523Y-62126666D01*
X107529285Y-62174285D01*
X107338809Y-62221904D01*
X107195952Y-62221904D01*
X107005476Y-62174285D01*
X106910238Y-62126666D01*
X106815000Y-62031428D01*
X106767380Y-61888571D01*
X106767380Y-61793333D01*
X106815000Y-61650476D01*
X106862619Y-61602857D01*
X107195952Y-61031428D02*
X107148333Y-61126666D01*
X107100714Y-61174285D01*
X107005476Y-61221904D01*
X106957857Y-61221904D01*
X106862619Y-61174285D01*
X106815000Y-61126666D01*
X106767380Y-61031428D01*
X106767380Y-60840952D01*
X106815000Y-60745714D01*
X106862619Y-60698095D01*
X106957857Y-60650476D01*
X107005476Y-60650476D01*
X107100714Y-60698095D01*
X107148333Y-60745714D01*
X107195952Y-60840952D01*
X107195952Y-61031428D01*
X107243571Y-61126666D01*
X107291190Y-61174285D01*
X107386428Y-61221904D01*
X107576904Y-61221904D01*
X107672142Y-61174285D01*
X107719761Y-61126666D01*
X107767380Y-61031428D01*
X107767380Y-60840952D01*
X107719761Y-60745714D01*
X107672142Y-60698095D01*
X107576904Y-60650476D01*
X107386428Y-60650476D01*
X107291190Y-60698095D01*
X107243571Y-60745714D01*
X107195952Y-60840952D01*
X106862619Y-60269523D02*
X106815000Y-60221904D01*
X106767380Y-60126666D01*
X106767380Y-59888571D01*
X106815000Y-59793333D01*
X106862619Y-59745714D01*
X106957857Y-59698095D01*
X107053095Y-59698095D01*
X107195952Y-59745714D01*
X107767380Y-60317142D01*
X107767380Y-59698095D01*
G04 #@! TO.C,C69*
X88681969Y-62274106D02*
X88681969Y-62341450D01*
X88614625Y-62476137D01*
X88547282Y-62543480D01*
X88412595Y-62610824D01*
X88277908Y-62610824D01*
X88176893Y-62577152D01*
X88008534Y-62476137D01*
X87907519Y-62375122D01*
X87806503Y-62206763D01*
X87772832Y-62105748D01*
X87772832Y-61971061D01*
X87840175Y-61836374D01*
X87907519Y-61769030D01*
X88042206Y-61701687D01*
X88109549Y-61701687D01*
X88648297Y-61028251D02*
X88513610Y-61162938D01*
X88479938Y-61263954D01*
X88479938Y-61331297D01*
X88513610Y-61499656D01*
X88614625Y-61668015D01*
X88884000Y-61937389D01*
X88985015Y-61971061D01*
X89052358Y-61971061D01*
X89153374Y-61937389D01*
X89288061Y-61802702D01*
X89321732Y-61701687D01*
X89321732Y-61634343D01*
X89288061Y-61533328D01*
X89119702Y-61364969D01*
X89018687Y-61331297D01*
X88951343Y-61331297D01*
X88850328Y-61364969D01*
X88715641Y-61499656D01*
X88681969Y-61600671D01*
X88681969Y-61668015D01*
X88715641Y-61769030D01*
X89759465Y-61331297D02*
X89894152Y-61196610D01*
X89927824Y-61095595D01*
X89927824Y-61028251D01*
X89894152Y-60859893D01*
X89793137Y-60691534D01*
X89523763Y-60422160D01*
X89422748Y-60388488D01*
X89355404Y-60388488D01*
X89254389Y-60422160D01*
X89119702Y-60556847D01*
X89086030Y-60657862D01*
X89086030Y-60725206D01*
X89119702Y-60826221D01*
X89288061Y-60994580D01*
X89389076Y-61028251D01*
X89456419Y-61028251D01*
X89557435Y-60994580D01*
X89692122Y-60859893D01*
X89725793Y-60758877D01*
X89725793Y-60691534D01*
X89692122Y-60590519D01*
G04 #@! TO.C,C84*
X107037142Y-54617857D02*
X107084761Y-54665476D01*
X107132380Y-54808333D01*
X107132380Y-54903571D01*
X107084761Y-55046428D01*
X106989523Y-55141666D01*
X106894285Y-55189285D01*
X106703809Y-55236904D01*
X106560952Y-55236904D01*
X106370476Y-55189285D01*
X106275238Y-55141666D01*
X106180000Y-55046428D01*
X106132380Y-54903571D01*
X106132380Y-54808333D01*
X106180000Y-54665476D01*
X106227619Y-54617857D01*
X106560952Y-54046428D02*
X106513333Y-54141666D01*
X106465714Y-54189285D01*
X106370476Y-54236904D01*
X106322857Y-54236904D01*
X106227619Y-54189285D01*
X106180000Y-54141666D01*
X106132380Y-54046428D01*
X106132380Y-53855952D01*
X106180000Y-53760714D01*
X106227619Y-53713095D01*
X106322857Y-53665476D01*
X106370476Y-53665476D01*
X106465714Y-53713095D01*
X106513333Y-53760714D01*
X106560952Y-53855952D01*
X106560952Y-54046428D01*
X106608571Y-54141666D01*
X106656190Y-54189285D01*
X106751428Y-54236904D01*
X106941904Y-54236904D01*
X107037142Y-54189285D01*
X107084761Y-54141666D01*
X107132380Y-54046428D01*
X107132380Y-53855952D01*
X107084761Y-53760714D01*
X107037142Y-53713095D01*
X106941904Y-53665476D01*
X106751428Y-53665476D01*
X106656190Y-53713095D01*
X106608571Y-53760714D01*
X106560952Y-53855952D01*
X106465714Y-52808333D02*
X107132380Y-52808333D01*
X106084761Y-53046428D02*
X106799047Y-53284523D01*
X106799047Y-52665476D01*
G04 #@! TO.C,C68*
X89962969Y-62920106D02*
X89962969Y-62987450D01*
X89895625Y-63122137D01*
X89828282Y-63189480D01*
X89693595Y-63256824D01*
X89558908Y-63256824D01*
X89457893Y-63223152D01*
X89289534Y-63122137D01*
X89188519Y-63021122D01*
X89087503Y-62852763D01*
X89053832Y-62751748D01*
X89053832Y-62617061D01*
X89121175Y-62482374D01*
X89188519Y-62415030D01*
X89323206Y-62347687D01*
X89390549Y-62347687D01*
X89929297Y-61674251D02*
X89794610Y-61808938D01*
X89760938Y-61909954D01*
X89760938Y-61977297D01*
X89794610Y-62145656D01*
X89895625Y-62314015D01*
X90165000Y-62583389D01*
X90266015Y-62617061D01*
X90333358Y-62617061D01*
X90434374Y-62583389D01*
X90569061Y-62448702D01*
X90602732Y-62347687D01*
X90602732Y-62280343D01*
X90569061Y-62179328D01*
X90400702Y-62010969D01*
X90299687Y-61977297D01*
X90232343Y-61977297D01*
X90131328Y-62010969D01*
X89996641Y-62145656D01*
X89962969Y-62246671D01*
X89962969Y-62314015D01*
X89996641Y-62415030D01*
X90703748Y-61505893D02*
X90602732Y-61539564D01*
X90535389Y-61539564D01*
X90434374Y-61505893D01*
X90400702Y-61472221D01*
X90367030Y-61371206D01*
X90367030Y-61303862D01*
X90400702Y-61202847D01*
X90535389Y-61068160D01*
X90636404Y-61034488D01*
X90703748Y-61034488D01*
X90804763Y-61068160D01*
X90838435Y-61101832D01*
X90872106Y-61202847D01*
X90872106Y-61270190D01*
X90838435Y-61371206D01*
X90703748Y-61505893D01*
X90670076Y-61606908D01*
X90670076Y-61674251D01*
X90703748Y-61775267D01*
X90838435Y-61909954D01*
X90939450Y-61943625D01*
X91006793Y-61943625D01*
X91107809Y-61909954D01*
X91242496Y-61775267D01*
X91276167Y-61674251D01*
X91276167Y-61606908D01*
X91242496Y-61505893D01*
X91107809Y-61371206D01*
X91006793Y-61337534D01*
X90939450Y-61337534D01*
X90838435Y-61371206D01*
G04 #@! TO.C,C77*
X106350969Y-68525106D02*
X106350969Y-68592450D01*
X106283625Y-68727137D01*
X106216282Y-68794480D01*
X106081595Y-68861824D01*
X105946908Y-68861824D01*
X105845893Y-68828152D01*
X105677534Y-68727137D01*
X105576519Y-68626122D01*
X105475503Y-68457763D01*
X105441832Y-68356748D01*
X105441832Y-68222061D01*
X105509175Y-68087374D01*
X105576519Y-68020030D01*
X105711206Y-67952687D01*
X105778549Y-67952687D01*
X105946908Y-67649641D02*
X106418312Y-67178236D01*
X106822374Y-68188389D01*
X106620343Y-66976206D02*
X107091748Y-66504801D01*
X107495809Y-67514954D01*
G04 #@! TO.C,C81*
X106402142Y-62618857D02*
X106449761Y-62666476D01*
X106497380Y-62809333D01*
X106497380Y-62904571D01*
X106449761Y-63047428D01*
X106354523Y-63142666D01*
X106259285Y-63190285D01*
X106068809Y-63237904D01*
X105925952Y-63237904D01*
X105735476Y-63190285D01*
X105640238Y-63142666D01*
X105545000Y-63047428D01*
X105497380Y-62904571D01*
X105497380Y-62809333D01*
X105545000Y-62666476D01*
X105592619Y-62618857D01*
X105925952Y-62047428D02*
X105878333Y-62142666D01*
X105830714Y-62190285D01*
X105735476Y-62237904D01*
X105687857Y-62237904D01*
X105592619Y-62190285D01*
X105545000Y-62142666D01*
X105497380Y-62047428D01*
X105497380Y-61856952D01*
X105545000Y-61761714D01*
X105592619Y-61714095D01*
X105687857Y-61666476D01*
X105735476Y-61666476D01*
X105830714Y-61714095D01*
X105878333Y-61761714D01*
X105925952Y-61856952D01*
X105925952Y-62047428D01*
X105973571Y-62142666D01*
X106021190Y-62190285D01*
X106116428Y-62237904D01*
X106306904Y-62237904D01*
X106402142Y-62190285D01*
X106449761Y-62142666D01*
X106497380Y-62047428D01*
X106497380Y-61856952D01*
X106449761Y-61761714D01*
X106402142Y-61714095D01*
X106306904Y-61666476D01*
X106116428Y-61666476D01*
X106021190Y-61714095D01*
X105973571Y-61761714D01*
X105925952Y-61856952D01*
X106497380Y-60714095D02*
X106497380Y-61285523D01*
X106497380Y-60999809D02*
X105497380Y-60999809D01*
X105640238Y-61095047D01*
X105735476Y-61190285D01*
X105783095Y-61285523D01*
G04 #@! TO.C,C74*
X100957142Y-67032142D02*
X100909523Y-67079761D01*
X100766666Y-67127380D01*
X100671428Y-67127380D01*
X100528571Y-67079761D01*
X100433333Y-66984523D01*
X100385714Y-66889285D01*
X100338095Y-66698809D01*
X100338095Y-66555952D01*
X100385714Y-66365476D01*
X100433333Y-66270238D01*
X100528571Y-66175000D01*
X100671428Y-66127380D01*
X100766666Y-66127380D01*
X100909523Y-66175000D01*
X100957142Y-66222619D01*
X101290476Y-66127380D02*
X101957142Y-66127380D01*
X101528571Y-67127380D01*
X102766666Y-66460714D02*
X102766666Y-67127380D01*
X102528571Y-66079761D02*
X102290476Y-66794047D01*
X102909523Y-66794047D01*
G04 #@! TO.C,C70*
X91237968Y-56575106D02*
X91237968Y-56642450D01*
X91170624Y-56777137D01*
X91103281Y-56844480D01*
X90968594Y-56911824D01*
X90833907Y-56911824D01*
X90732892Y-56878152D01*
X90564533Y-56777137D01*
X90463518Y-56676122D01*
X90362502Y-56507763D01*
X90328831Y-56406748D01*
X90328831Y-56272061D01*
X90396174Y-56137374D01*
X90463518Y-56070030D01*
X90598205Y-56002687D01*
X90665548Y-56002687D01*
X90833907Y-55699641D02*
X91305311Y-55228236D01*
X91709373Y-56238389D01*
X91709373Y-54824175D02*
X91776716Y-54756832D01*
X91877731Y-54723160D01*
X91945075Y-54723160D01*
X92046090Y-54756832D01*
X92214449Y-54857847D01*
X92382808Y-55026206D01*
X92483823Y-55194564D01*
X92517495Y-55295580D01*
X92517495Y-55362923D01*
X92483823Y-55463938D01*
X92416479Y-55531282D01*
X92315464Y-55564954D01*
X92248121Y-55564954D01*
X92147105Y-55531282D01*
X91978747Y-55430267D01*
X91810388Y-55261908D01*
X91709373Y-55093549D01*
X91675701Y-54992534D01*
X91675701Y-54925190D01*
X91709373Y-54824175D01*
G04 #@! TO.C,C72*
X97782142Y-67032142D02*
X97734523Y-67079761D01*
X97591666Y-67127380D01*
X97496428Y-67127380D01*
X97353571Y-67079761D01*
X97258333Y-66984523D01*
X97210714Y-66889285D01*
X97163095Y-66698809D01*
X97163095Y-66555952D01*
X97210714Y-66365476D01*
X97258333Y-66270238D01*
X97353571Y-66175000D01*
X97496428Y-66127380D01*
X97591666Y-66127380D01*
X97734523Y-66175000D01*
X97782142Y-66222619D01*
X98115476Y-66127380D02*
X98782142Y-66127380D01*
X98353571Y-67127380D01*
X99115476Y-66222619D02*
X99163095Y-66175000D01*
X99258333Y-66127380D01*
X99496428Y-66127380D01*
X99591666Y-66175000D01*
X99639285Y-66222619D01*
X99686904Y-66317857D01*
X99686904Y-66413095D01*
X99639285Y-66555952D01*
X99067857Y-67127380D01*
X99686904Y-67127380D01*
G04 #@! TO.C,C75*
X100957142Y-68302142D02*
X100909523Y-68349761D01*
X100766666Y-68397380D01*
X100671428Y-68397380D01*
X100528571Y-68349761D01*
X100433333Y-68254523D01*
X100385714Y-68159285D01*
X100338095Y-67968809D01*
X100338095Y-67825952D01*
X100385714Y-67635476D01*
X100433333Y-67540238D01*
X100528571Y-67445000D01*
X100671428Y-67397380D01*
X100766666Y-67397380D01*
X100909523Y-67445000D01*
X100957142Y-67492619D01*
X101290476Y-67397380D02*
X101957142Y-67397380D01*
X101528571Y-68397380D01*
X102814285Y-67397380D02*
X102338095Y-67397380D01*
X102290476Y-67873571D01*
X102338095Y-67825952D01*
X102433333Y-67778333D01*
X102671428Y-67778333D01*
X102766666Y-67825952D01*
X102814285Y-67873571D01*
X102861904Y-67968809D01*
X102861904Y-68206904D01*
X102814285Y-68302142D01*
X102766666Y-68349761D01*
X102671428Y-68397380D01*
X102433333Y-68397380D01*
X102338095Y-68349761D01*
X102290476Y-68302142D01*
G04 #@! TO.C,C66*
X97782142Y-55602142D02*
X97734523Y-55649761D01*
X97591666Y-55697380D01*
X97496428Y-55697380D01*
X97353571Y-55649761D01*
X97258333Y-55554523D01*
X97210714Y-55459285D01*
X97163095Y-55268809D01*
X97163095Y-55125952D01*
X97210714Y-54935476D01*
X97258333Y-54840238D01*
X97353571Y-54745000D01*
X97496428Y-54697380D01*
X97591666Y-54697380D01*
X97734523Y-54745000D01*
X97782142Y-54792619D01*
X98639285Y-54697380D02*
X98448809Y-54697380D01*
X98353571Y-54745000D01*
X98305952Y-54792619D01*
X98210714Y-54935476D01*
X98163095Y-55125952D01*
X98163095Y-55506904D01*
X98210714Y-55602142D01*
X98258333Y-55649761D01*
X98353571Y-55697380D01*
X98544047Y-55697380D01*
X98639285Y-55649761D01*
X98686904Y-55602142D01*
X98734523Y-55506904D01*
X98734523Y-55268809D01*
X98686904Y-55173571D01*
X98639285Y-55125952D01*
X98544047Y-55078333D01*
X98353571Y-55078333D01*
X98258333Y-55125952D01*
X98210714Y-55173571D01*
X98163095Y-55268809D01*
X99591666Y-54697380D02*
X99401190Y-54697380D01*
X99305952Y-54745000D01*
X99258333Y-54792619D01*
X99163095Y-54935476D01*
X99115476Y-55125952D01*
X99115476Y-55506904D01*
X99163095Y-55602142D01*
X99210714Y-55649761D01*
X99305952Y-55697380D01*
X99496428Y-55697380D01*
X99591666Y-55649761D01*
X99639285Y-55602142D01*
X99686904Y-55506904D01*
X99686904Y-55268809D01*
X99639285Y-55173571D01*
X99591666Y-55125952D01*
X99496428Y-55078333D01*
X99305952Y-55078333D01*
X99210714Y-55125952D01*
X99163095Y-55173571D01*
X99115476Y-55268809D01*
G04 #@! TO.C,C64*
X100322142Y-55602142D02*
X100274523Y-55649761D01*
X100131666Y-55697380D01*
X100036428Y-55697380D01*
X99893571Y-55649761D01*
X99798333Y-55554523D01*
X99750714Y-55459285D01*
X99703095Y-55268809D01*
X99703095Y-55125952D01*
X99750714Y-54935476D01*
X99798333Y-54840238D01*
X99893571Y-54745000D01*
X100036428Y-54697380D01*
X100131666Y-54697380D01*
X100274523Y-54745000D01*
X100322142Y-54792619D01*
X101179285Y-54697380D02*
X100988809Y-54697380D01*
X100893571Y-54745000D01*
X100845952Y-54792619D01*
X100750714Y-54935476D01*
X100703095Y-55125952D01*
X100703095Y-55506904D01*
X100750714Y-55602142D01*
X100798333Y-55649761D01*
X100893571Y-55697380D01*
X101084047Y-55697380D01*
X101179285Y-55649761D01*
X101226904Y-55602142D01*
X101274523Y-55506904D01*
X101274523Y-55268809D01*
X101226904Y-55173571D01*
X101179285Y-55125952D01*
X101084047Y-55078333D01*
X100893571Y-55078333D01*
X100798333Y-55125952D01*
X100750714Y-55173571D01*
X100703095Y-55268809D01*
X102131666Y-55030714D02*
X102131666Y-55697380D01*
X101893571Y-54649761D02*
X101655476Y-55364047D01*
X102274523Y-55364047D01*
G04 #@! TO.C,C52*
X97765636Y-36552142D02*
X97718017Y-36599761D01*
X97575160Y-36647380D01*
X97479922Y-36647380D01*
X97337065Y-36599761D01*
X97241827Y-36504523D01*
X97194208Y-36409285D01*
X97146589Y-36218809D01*
X97146589Y-36075952D01*
X97194208Y-35885476D01*
X97241827Y-35790238D01*
X97337065Y-35695000D01*
X97479922Y-35647380D01*
X97575160Y-35647380D01*
X97718017Y-35695000D01*
X97765636Y-35742619D01*
X98670398Y-35647380D02*
X98194208Y-35647380D01*
X98146589Y-36123571D01*
X98194208Y-36075952D01*
X98289446Y-36028333D01*
X98527541Y-36028333D01*
X98622779Y-36075952D01*
X98670398Y-36123571D01*
X98718017Y-36218809D01*
X98718017Y-36456904D01*
X98670398Y-36552142D01*
X98622779Y-36599761D01*
X98527541Y-36647380D01*
X98289446Y-36647380D01*
X98194208Y-36599761D01*
X98146589Y-36552142D01*
X99098970Y-35742619D02*
X99146589Y-35695000D01*
X99241827Y-35647380D01*
X99479922Y-35647380D01*
X99575160Y-35695000D01*
X99622779Y-35742619D01*
X99670398Y-35837857D01*
X99670398Y-35933095D01*
X99622779Y-36075952D01*
X99051351Y-36647380D01*
X99670398Y-36647380D01*
G04 #@! TO.C,C56*
X106477969Y-36775106D02*
X106477969Y-36842450D01*
X106410625Y-36977137D01*
X106343282Y-37044480D01*
X106208595Y-37111824D01*
X106073908Y-37111824D01*
X105972893Y-37078152D01*
X105804534Y-36977137D01*
X105703519Y-36876122D01*
X105602503Y-36707763D01*
X105568832Y-36606748D01*
X105568832Y-36472061D01*
X105636175Y-36337374D01*
X105703519Y-36270030D01*
X105838206Y-36202687D01*
X105905549Y-36202687D01*
X106477969Y-35495580D02*
X106141251Y-35832297D01*
X106444297Y-36202687D01*
X106444297Y-36135343D01*
X106477969Y-36034328D01*
X106646328Y-35865969D01*
X106747343Y-35832297D01*
X106814687Y-35832297D01*
X106915702Y-35865969D01*
X107084061Y-36034328D01*
X107117732Y-36135343D01*
X107117732Y-36202687D01*
X107084061Y-36303702D01*
X106915702Y-36472061D01*
X106814687Y-36505732D01*
X106747343Y-36505732D01*
X107117732Y-34855816D02*
X106983045Y-34990503D01*
X106949374Y-35091519D01*
X106949374Y-35158862D01*
X106983045Y-35327221D01*
X107084061Y-35495580D01*
X107353435Y-35764954D01*
X107454450Y-35798625D01*
X107521793Y-35798625D01*
X107622809Y-35764954D01*
X107757496Y-35630267D01*
X107791167Y-35529251D01*
X107791167Y-35461908D01*
X107757496Y-35360893D01*
X107589137Y-35192534D01*
X107488122Y-35158862D01*
X107420778Y-35158862D01*
X107319763Y-35192534D01*
X107185076Y-35327221D01*
X107151404Y-35428236D01*
X107151404Y-35495580D01*
X107185076Y-35596595D01*
G04 #@! TO.C,C62*
X105750636Y-22867856D02*
X105798255Y-22915475D01*
X105845874Y-23058332D01*
X105845874Y-23153570D01*
X105798255Y-23296427D01*
X105703017Y-23391665D01*
X105607779Y-23439284D01*
X105417303Y-23486903D01*
X105274446Y-23486903D01*
X105083970Y-23439284D01*
X104988732Y-23391665D01*
X104893494Y-23296427D01*
X104845874Y-23153570D01*
X104845874Y-23058332D01*
X104893494Y-22915475D01*
X104941113Y-22867856D01*
X104845874Y-22010713D02*
X104845874Y-22201189D01*
X104893494Y-22296427D01*
X104941113Y-22344046D01*
X105083970Y-22439284D01*
X105274446Y-22486903D01*
X105655398Y-22486903D01*
X105750636Y-22439284D01*
X105798255Y-22391665D01*
X105845874Y-22296427D01*
X105845874Y-22105951D01*
X105798255Y-22010713D01*
X105750636Y-21963094D01*
X105655398Y-21915475D01*
X105417303Y-21915475D01*
X105322065Y-21963094D01*
X105274446Y-22010713D01*
X105226827Y-22105951D01*
X105226827Y-22296427D01*
X105274446Y-22391665D01*
X105322065Y-22439284D01*
X105417303Y-22486903D01*
X104941113Y-21534522D02*
X104893494Y-21486903D01*
X104845874Y-21391665D01*
X104845874Y-21153570D01*
X104893494Y-21058332D01*
X104941113Y-21010713D01*
X105036351Y-20963094D01*
X105131589Y-20963094D01*
X105274446Y-21010713D01*
X105845874Y-21582141D01*
X105845874Y-20963094D01*
G04 #@! TO.C,C55*
X104699969Y-36775105D02*
X104699969Y-36842449D01*
X104632625Y-36977136D01*
X104565282Y-37044479D01*
X104430595Y-37111823D01*
X104295908Y-37111823D01*
X104194893Y-37078151D01*
X104026534Y-36977136D01*
X103925519Y-36876121D01*
X103824503Y-36707762D01*
X103790832Y-36606747D01*
X103790832Y-36472060D01*
X103858175Y-36337373D01*
X103925519Y-36270029D01*
X104060206Y-36202686D01*
X104127549Y-36202686D01*
X104699969Y-35495579D02*
X104363251Y-35832296D01*
X104666297Y-36202686D01*
X104666297Y-36135342D01*
X104699969Y-36034327D01*
X104868328Y-35865968D01*
X104969343Y-35832296D01*
X105036687Y-35832296D01*
X105137702Y-35865968D01*
X105306061Y-36034327D01*
X105339732Y-36135342D01*
X105339732Y-36202686D01*
X105306061Y-36303701D01*
X105137702Y-36472060D01*
X105036687Y-36505731D01*
X104969343Y-36505731D01*
X105373404Y-34822144D02*
X105036687Y-35158861D01*
X105339732Y-35529250D01*
X105339732Y-35461907D01*
X105373404Y-35360892D01*
X105541763Y-35192533D01*
X105642778Y-35158861D01*
X105710122Y-35158861D01*
X105811137Y-35192533D01*
X105979496Y-35360892D01*
X106013167Y-35461907D01*
X106013167Y-35529250D01*
X105979496Y-35630266D01*
X105811137Y-35798624D01*
X105710122Y-35832296D01*
X105642778Y-35832296D01*
G04 #@! TO.C,C48*
X88681969Y-30574106D02*
X88681969Y-30641450D01*
X88614625Y-30776137D01*
X88547282Y-30843480D01*
X88412595Y-30910824D01*
X88277908Y-30910824D01*
X88176893Y-30877152D01*
X88008534Y-30776137D01*
X87907519Y-30675122D01*
X87806503Y-30506763D01*
X87772832Y-30405748D01*
X87772832Y-30271061D01*
X87840175Y-30136374D01*
X87907519Y-30069030D01*
X88042206Y-30001687D01*
X88109549Y-30001687D01*
X88884000Y-29563954D02*
X89355404Y-30035358D01*
X88446267Y-29462938D02*
X88782984Y-30136374D01*
X89220717Y-29698641D01*
X89422748Y-29159893D02*
X89321732Y-29193564D01*
X89254389Y-29193564D01*
X89153374Y-29159893D01*
X89119702Y-29126221D01*
X89086030Y-29025206D01*
X89086030Y-28957862D01*
X89119702Y-28856847D01*
X89254389Y-28722160D01*
X89355404Y-28688488D01*
X89422748Y-28688488D01*
X89523763Y-28722160D01*
X89557435Y-28755832D01*
X89591106Y-28856847D01*
X89591106Y-28924190D01*
X89557435Y-29025206D01*
X89422748Y-29159893D01*
X89389076Y-29260908D01*
X89389076Y-29328251D01*
X89422748Y-29429267D01*
X89557435Y-29563954D01*
X89658450Y-29597625D01*
X89725793Y-29597625D01*
X89826809Y-29563954D01*
X89961496Y-29429267D01*
X89995167Y-29328251D01*
X89995167Y-29260908D01*
X89961496Y-29159893D01*
X89826809Y-29025206D01*
X89725793Y-28991534D01*
X89658450Y-28991534D01*
X89557435Y-29025206D01*
G04 #@! TO.C,C60*
X106402142Y-30868857D02*
X106449761Y-30916476D01*
X106497380Y-31059333D01*
X106497380Y-31154571D01*
X106449761Y-31297428D01*
X106354523Y-31392666D01*
X106259285Y-31440285D01*
X106068809Y-31487904D01*
X105925952Y-31487904D01*
X105735476Y-31440285D01*
X105640238Y-31392666D01*
X105545000Y-31297428D01*
X105497380Y-31154571D01*
X105497380Y-31059333D01*
X105545000Y-30916476D01*
X105592619Y-30868857D01*
X105497380Y-30011714D02*
X105497380Y-30202190D01*
X105545000Y-30297428D01*
X105592619Y-30345047D01*
X105735476Y-30440285D01*
X105925952Y-30487904D01*
X106306904Y-30487904D01*
X106402142Y-30440285D01*
X106449761Y-30392666D01*
X106497380Y-30297428D01*
X106497380Y-30106952D01*
X106449761Y-30011714D01*
X106402142Y-29964095D01*
X106306904Y-29916476D01*
X106068809Y-29916476D01*
X105973571Y-29964095D01*
X105925952Y-30011714D01*
X105878333Y-30106952D01*
X105878333Y-30297428D01*
X105925952Y-30392666D01*
X105973571Y-30440285D01*
X106068809Y-30487904D01*
X105497380Y-29297428D02*
X105497380Y-29202190D01*
X105545000Y-29106952D01*
X105592619Y-29059333D01*
X105687857Y-29011714D01*
X105878333Y-28964095D01*
X106116428Y-28964095D01*
X106306904Y-29011714D01*
X106402142Y-29059333D01*
X106449761Y-29106952D01*
X106497380Y-29202190D01*
X106497380Y-29297428D01*
X106449761Y-29392666D01*
X106402142Y-29440285D01*
X106306904Y-29487904D01*
X106116428Y-29535523D01*
X105878333Y-29535523D01*
X105687857Y-29487904D01*
X105592619Y-29440285D01*
X105545000Y-29392666D01*
X105497380Y-29297428D01*
G04 #@! TO.C,C49*
X91221463Y-24837106D02*
X91221463Y-24904450D01*
X91154119Y-25039137D01*
X91086776Y-25106480D01*
X90952089Y-25173824D01*
X90817402Y-25173824D01*
X90716387Y-25140152D01*
X90548028Y-25039137D01*
X90447013Y-24938122D01*
X90345997Y-24769763D01*
X90312326Y-24668748D01*
X90312326Y-24534061D01*
X90379669Y-24399374D01*
X90447013Y-24332030D01*
X90581700Y-24264687D01*
X90649043Y-24264687D01*
X91423494Y-23826954D02*
X91894898Y-24298358D01*
X90985761Y-23725938D02*
X91322478Y-24399374D01*
X91760211Y-23961641D01*
X92298959Y-23894297D02*
X92433646Y-23759610D01*
X92467318Y-23658595D01*
X92467318Y-23591251D01*
X92433646Y-23422893D01*
X92332631Y-23254534D01*
X92063257Y-22985160D01*
X91962242Y-22951488D01*
X91894898Y-22951488D01*
X91793883Y-22985160D01*
X91659196Y-23119847D01*
X91625524Y-23220862D01*
X91625524Y-23288206D01*
X91659196Y-23389221D01*
X91827555Y-23557580D01*
X91928570Y-23591251D01*
X91995913Y-23591251D01*
X92096929Y-23557580D01*
X92231616Y-23422893D01*
X92265287Y-23321877D01*
X92265287Y-23254534D01*
X92231616Y-23153519D01*
G04 #@! TO.C,C44*
X100305636Y-22582142D02*
X100258017Y-22629761D01*
X100115160Y-22677380D01*
X100019922Y-22677380D01*
X99877065Y-22629761D01*
X99781827Y-22534523D01*
X99734208Y-22439285D01*
X99686589Y-22248809D01*
X99686589Y-22105952D01*
X99734208Y-21915476D01*
X99781827Y-21820238D01*
X99877065Y-21725000D01*
X100019922Y-21677380D01*
X100115160Y-21677380D01*
X100258017Y-21725000D01*
X100305636Y-21772619D01*
X101162779Y-22010714D02*
X101162779Y-22677380D01*
X100924684Y-21629761D02*
X100686589Y-22344047D01*
X101305636Y-22344047D01*
X102115160Y-22010714D02*
X102115160Y-22677380D01*
X101877065Y-21629761D02*
X101638970Y-22344047D01*
X102258017Y-22344047D01*
G04 #@! TO.C,C57*
X103937969Y-31822106D02*
X103937969Y-31889450D01*
X103870625Y-32024137D01*
X103803282Y-32091480D01*
X103668595Y-32158824D01*
X103533908Y-32158824D01*
X103432893Y-32125152D01*
X103264534Y-32024137D01*
X103163519Y-31923122D01*
X103062503Y-31754763D01*
X103028832Y-31653748D01*
X103028832Y-31519061D01*
X103096175Y-31384374D01*
X103163519Y-31317030D01*
X103298206Y-31249687D01*
X103365549Y-31249687D01*
X103937969Y-30542580D02*
X103601251Y-30879297D01*
X103904297Y-31249687D01*
X103904297Y-31182343D01*
X103937969Y-31081328D01*
X104106328Y-30912969D01*
X104207343Y-30879297D01*
X104274687Y-30879297D01*
X104375702Y-30912969D01*
X104544061Y-31081328D01*
X104577732Y-31182343D01*
X104577732Y-31249687D01*
X104544061Y-31350702D01*
X104375702Y-31519061D01*
X104274687Y-31552732D01*
X104207343Y-31552732D01*
X104207343Y-30273206D02*
X104678748Y-29801801D01*
X105082809Y-30811954D01*
G04 #@! TO.C,C51*
X97765636Y-35282142D02*
X97718017Y-35329761D01*
X97575160Y-35377380D01*
X97479922Y-35377380D01*
X97337065Y-35329761D01*
X97241827Y-35234523D01*
X97194208Y-35139285D01*
X97146589Y-34948809D01*
X97146589Y-34805952D01*
X97194208Y-34615476D01*
X97241827Y-34520238D01*
X97337065Y-34425000D01*
X97479922Y-34377380D01*
X97575160Y-34377380D01*
X97718017Y-34425000D01*
X97765636Y-34472619D01*
X98670398Y-34377380D02*
X98194208Y-34377380D01*
X98146589Y-34853571D01*
X98194208Y-34805952D01*
X98289446Y-34758333D01*
X98527541Y-34758333D01*
X98622779Y-34805952D01*
X98670398Y-34853571D01*
X98718017Y-34948809D01*
X98718017Y-35186904D01*
X98670398Y-35282142D01*
X98622779Y-35329761D01*
X98527541Y-35377380D01*
X98289446Y-35377380D01*
X98194208Y-35329761D01*
X98146589Y-35282142D01*
X99670398Y-35377380D02*
X99098970Y-35377380D01*
X99384684Y-35377380D02*
X99384684Y-34377380D01*
X99289446Y-34520238D01*
X99194208Y-34615476D01*
X99098970Y-34663095D01*
G04 #@! TO.C,C45*
X97765636Y-23852142D02*
X97718017Y-23899761D01*
X97575160Y-23947380D01*
X97479922Y-23947380D01*
X97337065Y-23899761D01*
X97241827Y-23804523D01*
X97194208Y-23709285D01*
X97146589Y-23518809D01*
X97146589Y-23375952D01*
X97194208Y-23185476D01*
X97241827Y-23090238D01*
X97337065Y-22995000D01*
X97479922Y-22947380D01*
X97575160Y-22947380D01*
X97718017Y-22995000D01*
X97765636Y-23042619D01*
X98622779Y-23280714D02*
X98622779Y-23947380D01*
X98384684Y-22899761D02*
X98146589Y-23614047D01*
X98765636Y-23614047D01*
X99622779Y-22947380D02*
X99146589Y-22947380D01*
X99098970Y-23423571D01*
X99146589Y-23375952D01*
X99241827Y-23328333D01*
X99479922Y-23328333D01*
X99575160Y-23375952D01*
X99622779Y-23423571D01*
X99670398Y-23518809D01*
X99670398Y-23756904D01*
X99622779Y-23852142D01*
X99575160Y-23899761D01*
X99479922Y-23947380D01*
X99241827Y-23947380D01*
X99146589Y-23899761D01*
X99098970Y-23852142D01*
G04 #@! TO.C,C46*
X97765636Y-22582142D02*
X97718017Y-22629761D01*
X97575160Y-22677380D01*
X97479922Y-22677380D01*
X97337065Y-22629761D01*
X97241827Y-22534523D01*
X97194208Y-22439285D01*
X97146589Y-22248809D01*
X97146589Y-22105952D01*
X97194208Y-21915476D01*
X97241827Y-21820238D01*
X97337065Y-21725000D01*
X97479922Y-21677380D01*
X97575160Y-21677380D01*
X97718017Y-21725000D01*
X97765636Y-21772619D01*
X98622779Y-22010714D02*
X98622779Y-22677380D01*
X98384684Y-21629761D02*
X98146589Y-22344047D01*
X98765636Y-22344047D01*
X99575160Y-21677380D02*
X99384684Y-21677380D01*
X99289446Y-21725000D01*
X99241827Y-21772619D01*
X99146589Y-21915476D01*
X99098970Y-22105952D01*
X99098970Y-22486904D01*
X99146589Y-22582142D01*
X99194208Y-22629761D01*
X99289446Y-22677380D01*
X99479922Y-22677380D01*
X99575160Y-22629761D01*
X99622779Y-22582142D01*
X99670398Y-22486904D01*
X99670398Y-22248809D01*
X99622779Y-22153571D01*
X99575160Y-22105952D01*
X99479922Y-22058333D01*
X99289446Y-22058333D01*
X99194208Y-22105952D01*
X99146589Y-22153571D01*
X99098970Y-22248809D01*
G04 #@! TO.C,C47*
X89962969Y-31220106D02*
X89962969Y-31287450D01*
X89895625Y-31422137D01*
X89828282Y-31489480D01*
X89693595Y-31556824D01*
X89558908Y-31556824D01*
X89457893Y-31523152D01*
X89289534Y-31422137D01*
X89188519Y-31321122D01*
X89087503Y-31152763D01*
X89053832Y-31051748D01*
X89053832Y-30917061D01*
X89121175Y-30782374D01*
X89188519Y-30715030D01*
X89323206Y-30647687D01*
X89390549Y-30647687D01*
X90165000Y-30209954D02*
X90636404Y-30681358D01*
X89727267Y-30108938D02*
X90063984Y-30782374D01*
X90501717Y-30344641D01*
X90232343Y-29671206D02*
X90703748Y-29199801D01*
X91107809Y-30209954D01*
G04 #@! TO.C,C63*
X107020636Y-22867857D02*
X107068255Y-22915476D01*
X107115874Y-23058333D01*
X107115874Y-23153571D01*
X107068255Y-23296428D01*
X106973017Y-23391666D01*
X106877779Y-23439285D01*
X106687303Y-23486904D01*
X106544446Y-23486904D01*
X106353970Y-23439285D01*
X106258732Y-23391666D01*
X106163494Y-23296428D01*
X106115874Y-23153571D01*
X106115874Y-23058333D01*
X106163494Y-22915476D01*
X106211113Y-22867857D01*
X106115874Y-22010714D02*
X106115874Y-22201190D01*
X106163494Y-22296428D01*
X106211113Y-22344047D01*
X106353970Y-22439285D01*
X106544446Y-22486904D01*
X106925398Y-22486904D01*
X107020636Y-22439285D01*
X107068255Y-22391666D01*
X107115874Y-22296428D01*
X107115874Y-22105952D01*
X107068255Y-22010714D01*
X107020636Y-21963095D01*
X106925398Y-21915476D01*
X106687303Y-21915476D01*
X106592065Y-21963095D01*
X106544446Y-22010714D01*
X106496827Y-22105952D01*
X106496827Y-22296428D01*
X106544446Y-22391666D01*
X106592065Y-22439285D01*
X106687303Y-22486904D01*
X106115874Y-21582142D02*
X106115874Y-20963095D01*
X106496827Y-21296428D01*
X106496827Y-21153571D01*
X106544446Y-21058333D01*
X106592065Y-21010714D01*
X106687303Y-20963095D01*
X106925398Y-20963095D01*
X107020636Y-21010714D01*
X107068255Y-21058333D01*
X107115874Y-21153571D01*
X107115874Y-21439285D01*
X107068255Y-21534523D01*
X107020636Y-21582142D01*
G04 #@! TO.C,C61*
X107655636Y-29852857D02*
X107703255Y-29900476D01*
X107750874Y-30043333D01*
X107750874Y-30138571D01*
X107703255Y-30281428D01*
X107608017Y-30376666D01*
X107512779Y-30424285D01*
X107322303Y-30471904D01*
X107179446Y-30471904D01*
X106988970Y-30424285D01*
X106893732Y-30376666D01*
X106798494Y-30281428D01*
X106750874Y-30138571D01*
X106750874Y-30043333D01*
X106798494Y-29900476D01*
X106846113Y-29852857D01*
X106750874Y-28995714D02*
X106750874Y-29186190D01*
X106798494Y-29281428D01*
X106846113Y-29329047D01*
X106988970Y-29424285D01*
X107179446Y-29471904D01*
X107560398Y-29471904D01*
X107655636Y-29424285D01*
X107703255Y-29376666D01*
X107750874Y-29281428D01*
X107750874Y-29090952D01*
X107703255Y-28995714D01*
X107655636Y-28948095D01*
X107560398Y-28900476D01*
X107322303Y-28900476D01*
X107227065Y-28948095D01*
X107179446Y-28995714D01*
X107131827Y-29090952D01*
X107131827Y-29281428D01*
X107179446Y-29376666D01*
X107227065Y-29424285D01*
X107322303Y-29471904D01*
X107750874Y-27948095D02*
X107750874Y-28519523D01*
X107750874Y-28233809D02*
X106750874Y-28233809D01*
X106893732Y-28329047D01*
X106988970Y-28424285D01*
X107036589Y-28519523D01*
G04 #@! TO.C,C50*
X90586463Y-23567106D02*
X90586463Y-23634450D01*
X90519119Y-23769137D01*
X90451776Y-23836480D01*
X90317089Y-23903824D01*
X90182402Y-23903824D01*
X90081387Y-23870152D01*
X89913028Y-23769137D01*
X89812013Y-23668122D01*
X89710997Y-23499763D01*
X89677326Y-23398748D01*
X89677326Y-23264061D01*
X89744669Y-23129374D01*
X89812013Y-23062030D01*
X89946700Y-22994687D01*
X90014043Y-22994687D01*
X90586463Y-22287580D02*
X90249745Y-22624297D01*
X90552791Y-22994687D01*
X90552791Y-22927343D01*
X90586463Y-22826328D01*
X90754822Y-22657969D01*
X90855837Y-22624297D01*
X90923181Y-22624297D01*
X91024196Y-22657969D01*
X91192555Y-22826328D01*
X91226226Y-22927343D01*
X91226226Y-22994687D01*
X91192555Y-23095702D01*
X91024196Y-23264061D01*
X90923181Y-23297732D01*
X90855837Y-23297732D01*
X91057868Y-21816175D02*
X91125211Y-21748832D01*
X91226226Y-21715160D01*
X91293570Y-21715160D01*
X91394585Y-21748832D01*
X91562944Y-21849847D01*
X91731303Y-22018206D01*
X91832318Y-22186564D01*
X91865990Y-22287580D01*
X91865990Y-22354923D01*
X91832318Y-22455938D01*
X91764974Y-22523282D01*
X91663959Y-22556954D01*
X91596616Y-22556954D01*
X91495600Y-22523282D01*
X91327242Y-22422267D01*
X91158883Y-22253908D01*
X91057868Y-22085549D01*
X91024196Y-21984534D01*
X91024196Y-21917190D01*
X91057868Y-21816175D01*
G04 #@! TO.C,C43*
X100305636Y-23852142D02*
X100258017Y-23899761D01*
X100115160Y-23947380D01*
X100019922Y-23947380D01*
X99877065Y-23899761D01*
X99781827Y-23804523D01*
X99734208Y-23709285D01*
X99686589Y-23518809D01*
X99686589Y-23375952D01*
X99734208Y-23185476D01*
X99781827Y-23090238D01*
X99877065Y-22995000D01*
X100019922Y-22947380D01*
X100115160Y-22947380D01*
X100258017Y-22995000D01*
X100305636Y-23042619D01*
X101162779Y-23280714D02*
X101162779Y-23947380D01*
X100924684Y-22899761D02*
X100686589Y-23614047D01*
X101305636Y-23614047D01*
X101591351Y-22947380D02*
X102210398Y-22947380D01*
X101877065Y-23328333D01*
X102019922Y-23328333D01*
X102115160Y-23375952D01*
X102162779Y-23423571D01*
X102210398Y-23518809D01*
X102210398Y-23756904D01*
X102162779Y-23852142D01*
X102115160Y-23899761D01*
X102019922Y-23947380D01*
X101734208Y-23947380D01*
X101638970Y-23899761D01*
X101591351Y-23852142D01*
G04 #@! TO.C,C59*
X104480637Y-24772858D02*
X104528256Y-24820477D01*
X104575875Y-24963334D01*
X104575875Y-25058572D01*
X104528256Y-25201429D01*
X104433018Y-25296667D01*
X104337780Y-25344286D01*
X104147304Y-25391905D01*
X104004447Y-25391905D01*
X103813971Y-25344286D01*
X103718733Y-25296667D01*
X103623495Y-25201429D01*
X103575875Y-25058572D01*
X103575875Y-24963334D01*
X103623495Y-24820477D01*
X103671114Y-24772858D01*
X103575875Y-23868096D02*
X103575875Y-24344286D01*
X104052066Y-24391905D01*
X104004447Y-24344286D01*
X103956828Y-24249048D01*
X103956828Y-24010953D01*
X104004447Y-23915715D01*
X104052066Y-23868096D01*
X104147304Y-23820477D01*
X104385399Y-23820477D01*
X104480637Y-23868096D01*
X104528256Y-23915715D01*
X104575875Y-24010953D01*
X104575875Y-24249048D01*
X104528256Y-24344286D01*
X104480637Y-24391905D01*
X104575875Y-23344286D02*
X104575875Y-23153810D01*
X104528256Y-23058572D01*
X104480637Y-23010953D01*
X104337780Y-22915715D01*
X104147304Y-22868096D01*
X103766352Y-22868096D01*
X103671114Y-22915715D01*
X103623495Y-22963334D01*
X103575875Y-23058572D01*
X103575875Y-23249048D01*
X103623495Y-23344286D01*
X103671114Y-23391905D01*
X103766352Y-23439524D01*
X104004447Y-23439524D01*
X104099685Y-23391905D01*
X104147304Y-23344286D01*
X104194923Y-23249048D01*
X104194923Y-23058572D01*
X104147304Y-22963334D01*
X104099685Y-22915715D01*
X104004447Y-22868096D01*
G04 #@! TO.C,C53*
X100940636Y-35282142D02*
X100893017Y-35329761D01*
X100750160Y-35377380D01*
X100654922Y-35377380D01*
X100512065Y-35329761D01*
X100416827Y-35234523D01*
X100369208Y-35139285D01*
X100321589Y-34948809D01*
X100321589Y-34805952D01*
X100369208Y-34615476D01*
X100416827Y-34520238D01*
X100512065Y-34425000D01*
X100654922Y-34377380D01*
X100750160Y-34377380D01*
X100893017Y-34425000D01*
X100940636Y-34472619D01*
X101845398Y-34377380D02*
X101369208Y-34377380D01*
X101321589Y-34853571D01*
X101369208Y-34805952D01*
X101464446Y-34758333D01*
X101702541Y-34758333D01*
X101797779Y-34805952D01*
X101845398Y-34853571D01*
X101893017Y-34948809D01*
X101893017Y-35186904D01*
X101845398Y-35282142D01*
X101797779Y-35329761D01*
X101702541Y-35377380D01*
X101464446Y-35377380D01*
X101369208Y-35329761D01*
X101321589Y-35282142D01*
X102226351Y-34377380D02*
X102845398Y-34377380D01*
X102512065Y-34758333D01*
X102654922Y-34758333D01*
X102750160Y-34805952D01*
X102797779Y-34853571D01*
X102845398Y-34948809D01*
X102845398Y-35186904D01*
X102797779Y-35282142D01*
X102750160Y-35329761D01*
X102654922Y-35377380D01*
X102369208Y-35377380D01*
X102273970Y-35329761D01*
X102226351Y-35282142D01*
G04 #@! TO.C,C54*
X100940636Y-36552142D02*
X100893017Y-36599761D01*
X100750160Y-36647380D01*
X100654922Y-36647380D01*
X100512065Y-36599761D01*
X100416827Y-36504523D01*
X100369208Y-36409285D01*
X100321589Y-36218809D01*
X100321589Y-36075952D01*
X100369208Y-35885476D01*
X100416827Y-35790238D01*
X100512065Y-35695000D01*
X100654922Y-35647380D01*
X100750160Y-35647380D01*
X100893017Y-35695000D01*
X100940636Y-35742619D01*
X101845398Y-35647380D02*
X101369208Y-35647380D01*
X101321589Y-36123571D01*
X101369208Y-36075952D01*
X101464446Y-36028333D01*
X101702541Y-36028333D01*
X101797779Y-36075952D01*
X101845398Y-36123571D01*
X101893017Y-36218809D01*
X101893017Y-36456904D01*
X101845398Y-36552142D01*
X101797779Y-36599761D01*
X101702541Y-36647380D01*
X101464446Y-36647380D01*
X101369208Y-36599761D01*
X101321589Y-36552142D01*
X102750160Y-35980714D02*
X102750160Y-36647380D01*
X102512065Y-35599761D02*
X102273970Y-36314047D01*
X102893017Y-36314047D01*
G04 #@! TO.C,C10*
X22582142Y-99067857D02*
X22629761Y-99115476D01*
X22677380Y-99258333D01*
X22677380Y-99353571D01*
X22629761Y-99496428D01*
X22534523Y-99591666D01*
X22439285Y-99639285D01*
X22248809Y-99686904D01*
X22105952Y-99686904D01*
X21915476Y-99639285D01*
X21820238Y-99591666D01*
X21725000Y-99496428D01*
X21677380Y-99353571D01*
X21677380Y-99258333D01*
X21725000Y-99115476D01*
X21772619Y-99067857D01*
X22677380Y-98115476D02*
X22677380Y-98686904D01*
X22677380Y-98401190D02*
X21677380Y-98401190D01*
X21820238Y-98496428D01*
X21915476Y-98591666D01*
X21963095Y-98686904D01*
X21677380Y-97496428D02*
X21677380Y-97401190D01*
X21725000Y-97305952D01*
X21772619Y-97258333D01*
X21867857Y-97210714D01*
X22058333Y-97163095D01*
X22296428Y-97163095D01*
X22486904Y-97210714D01*
X22582142Y-97258333D01*
X22629761Y-97305952D01*
X22677380Y-97401190D01*
X22677380Y-97496428D01*
X22629761Y-97591666D01*
X22582142Y-97639285D01*
X22486904Y-97686904D01*
X22296428Y-97734523D01*
X22058333Y-97734523D01*
X21867857Y-97686904D01*
X21772619Y-97639285D01*
X21725000Y-97591666D01*
X21677380Y-97496428D01*
G04 #@! TO.C,C12*
X22582142Y-102242857D02*
X22629761Y-102290476D01*
X22677380Y-102433333D01*
X22677380Y-102528571D01*
X22629761Y-102671428D01*
X22534523Y-102766666D01*
X22439285Y-102814285D01*
X22248809Y-102861904D01*
X22105952Y-102861904D01*
X21915476Y-102814285D01*
X21820238Y-102766666D01*
X21725000Y-102671428D01*
X21677380Y-102528571D01*
X21677380Y-102433333D01*
X21725000Y-102290476D01*
X21772619Y-102242857D01*
X22677380Y-101290476D02*
X22677380Y-101861904D01*
X22677380Y-101576190D02*
X21677380Y-101576190D01*
X21820238Y-101671428D01*
X21915476Y-101766666D01*
X21963095Y-101861904D01*
X21772619Y-100909523D02*
X21725000Y-100861904D01*
X21677380Y-100766666D01*
X21677380Y-100528571D01*
X21725000Y-100433333D01*
X21772619Y-100385714D01*
X21867857Y-100338095D01*
X21963095Y-100338095D01*
X22105952Y-100385714D01*
X22677380Y-100957142D01*
X22677380Y-100338095D01*
G04 #@! TO.C,C5*
X27516610Y-90299687D02*
X27449267Y-90299687D01*
X27314580Y-90232343D01*
X27247236Y-90165000D01*
X27179893Y-90030312D01*
X27179893Y-89895625D01*
X27213564Y-89794610D01*
X27314580Y-89626251D01*
X27415595Y-89525236D01*
X27583954Y-89424221D01*
X27684969Y-89390549D01*
X27819656Y-89390549D01*
X27954343Y-89457893D01*
X28021687Y-89525236D01*
X28089030Y-89659923D01*
X28089030Y-89727267D01*
X28796137Y-90299687D02*
X28459419Y-89962969D01*
X28089030Y-90266015D01*
X28156374Y-90266015D01*
X28257389Y-90299687D01*
X28425748Y-90468045D01*
X28459419Y-90569061D01*
X28459419Y-90636404D01*
X28425748Y-90737419D01*
X28257389Y-90905778D01*
X28156374Y-90939450D01*
X28089030Y-90939450D01*
X27988015Y-90905778D01*
X27819656Y-90737419D01*
X27785984Y-90636404D01*
X27785984Y-90569061D01*
G04 #@! TO.C,C6*
X28162610Y-89018687D02*
X28095267Y-89018687D01*
X27960580Y-88951343D01*
X27893236Y-88884000D01*
X27825893Y-88749312D01*
X27825893Y-88614625D01*
X27859564Y-88513610D01*
X27960580Y-88345251D01*
X28061595Y-88244236D01*
X28229954Y-88143221D01*
X28330969Y-88109549D01*
X28465656Y-88109549D01*
X28600343Y-88176893D01*
X28667687Y-88244236D01*
X28735030Y-88378923D01*
X28735030Y-88446267D01*
X29408465Y-88985015D02*
X29273778Y-88850328D01*
X29172763Y-88816656D01*
X29105419Y-88816656D01*
X28937061Y-88850328D01*
X28768702Y-88951343D01*
X28499328Y-89220717D01*
X28465656Y-89321732D01*
X28465656Y-89389076D01*
X28499328Y-89490091D01*
X28634015Y-89624778D01*
X28735030Y-89658450D01*
X28802374Y-89658450D01*
X28903389Y-89624778D01*
X29071748Y-89456419D01*
X29105419Y-89355404D01*
X29105419Y-89288061D01*
X29071748Y-89187045D01*
X28937061Y-89052358D01*
X28836045Y-89018687D01*
X28768702Y-89018687D01*
X28667687Y-89052358D01*
G04 #@! TO.C,C18*
X27551142Y-106402142D02*
X27503523Y-106449761D01*
X27360666Y-106497380D01*
X27265428Y-106497380D01*
X27122571Y-106449761D01*
X27027333Y-106354523D01*
X26979714Y-106259285D01*
X26932095Y-106068809D01*
X26932095Y-105925952D01*
X26979714Y-105735476D01*
X27027333Y-105640238D01*
X27122571Y-105545000D01*
X27265428Y-105497380D01*
X27360666Y-105497380D01*
X27503523Y-105545000D01*
X27551142Y-105592619D01*
X28503523Y-106497380D02*
X27932095Y-106497380D01*
X28217809Y-106497380D02*
X28217809Y-105497380D01*
X28122571Y-105640238D01*
X28027333Y-105735476D01*
X27932095Y-105783095D01*
X29074952Y-105925952D02*
X28979714Y-105878333D01*
X28932095Y-105830714D01*
X28884476Y-105735476D01*
X28884476Y-105687857D01*
X28932095Y-105592619D01*
X28979714Y-105545000D01*
X29074952Y-105497380D01*
X29265428Y-105497380D01*
X29360666Y-105545000D01*
X29408285Y-105592619D01*
X29455904Y-105687857D01*
X29455904Y-105735476D01*
X29408285Y-105830714D01*
X29360666Y-105878333D01*
X29265428Y-105925952D01*
X29074952Y-105925952D01*
X28979714Y-105973571D01*
X28932095Y-106021190D01*
X28884476Y-106116428D01*
X28884476Y-106306904D01*
X28932095Y-106402142D01*
X28979714Y-106449761D01*
X29074952Y-106497380D01*
X29265428Y-106497380D01*
X29360666Y-106449761D01*
X29408285Y-106402142D01*
X29455904Y-106306904D01*
X29455904Y-106116428D01*
X29408285Y-106021190D01*
X29360666Y-105973571D01*
X29265428Y-105925952D01*
G04 #@! TO.C,C17*
X33647142Y-104497141D02*
X33599523Y-104544760D01*
X33456666Y-104592379D01*
X33361428Y-104592379D01*
X33218571Y-104544760D01*
X33123333Y-104449522D01*
X33075714Y-104354284D01*
X33028095Y-104163808D01*
X33028095Y-104020951D01*
X33075714Y-103830475D01*
X33123333Y-103735237D01*
X33218571Y-103639999D01*
X33361428Y-103592379D01*
X33456666Y-103592379D01*
X33599523Y-103639999D01*
X33647142Y-103687618D01*
X34599523Y-104592379D02*
X34028095Y-104592379D01*
X34313809Y-104592379D02*
X34313809Y-103592379D01*
X34218571Y-103735237D01*
X34123333Y-103830475D01*
X34028095Y-103878094D01*
X34932857Y-103592379D02*
X35599523Y-103592379D01*
X35170952Y-104592379D01*
G04 #@! TO.C,C1*
X35282142Y-101131666D02*
X35329761Y-101179285D01*
X35377380Y-101322142D01*
X35377380Y-101417380D01*
X35329761Y-101560238D01*
X35234523Y-101655476D01*
X35139285Y-101703095D01*
X34948809Y-101750714D01*
X34805952Y-101750714D01*
X34615476Y-101703095D01*
X34520238Y-101655476D01*
X34425000Y-101560238D01*
X34377380Y-101417380D01*
X34377380Y-101322142D01*
X34425000Y-101179285D01*
X34472619Y-101131666D01*
X35377380Y-100179285D02*
X35377380Y-100750714D01*
X35377380Y-100465000D02*
X34377380Y-100465000D01*
X34520238Y-100560238D01*
X34615476Y-100655476D01*
X34663095Y-100750714D01*
G04 #@! TO.C,C3*
X35282142Y-98591666D02*
X35329761Y-98639285D01*
X35377380Y-98782142D01*
X35377380Y-98877380D01*
X35329761Y-99020238D01*
X35234523Y-99115476D01*
X35139285Y-99163095D01*
X34948809Y-99210714D01*
X34805952Y-99210714D01*
X34615476Y-99163095D01*
X34520238Y-99115476D01*
X34425000Y-99020238D01*
X34377380Y-98877380D01*
X34377380Y-98782142D01*
X34425000Y-98639285D01*
X34472619Y-98591666D01*
X34377380Y-98258333D02*
X34377380Y-97639285D01*
X34758333Y-97972619D01*
X34758333Y-97829761D01*
X34805952Y-97734523D01*
X34853571Y-97686904D01*
X34948809Y-97639285D01*
X35186904Y-97639285D01*
X35282142Y-97686904D01*
X35329761Y-97734523D01*
X35377380Y-97829761D01*
X35377380Y-98115476D01*
X35329761Y-98210714D01*
X35282142Y-98258333D01*
G04 #@! TO.C,C7*
X33919610Y-91574686D02*
X33852267Y-91574686D01*
X33717580Y-91507342D01*
X33650236Y-91439999D01*
X33582893Y-91305311D01*
X33582893Y-91170624D01*
X33616564Y-91069609D01*
X33717580Y-90901250D01*
X33818595Y-90800235D01*
X33986954Y-90699220D01*
X34087969Y-90665548D01*
X34222656Y-90665548D01*
X34357343Y-90732892D01*
X34424687Y-90800235D01*
X34492030Y-90934922D01*
X34492030Y-91002266D01*
X34795076Y-91170624D02*
X35266480Y-91642029D01*
X34256328Y-92046090D01*
G04 #@! TO.C,C2*
X36552142Y-101131666D02*
X36599761Y-101179285D01*
X36647380Y-101322142D01*
X36647380Y-101417380D01*
X36599761Y-101560238D01*
X36504523Y-101655476D01*
X36409285Y-101703095D01*
X36218809Y-101750714D01*
X36075952Y-101750714D01*
X35885476Y-101703095D01*
X35790238Y-101655476D01*
X35695000Y-101560238D01*
X35647380Y-101417380D01*
X35647380Y-101322142D01*
X35695000Y-101179285D01*
X35742619Y-101131666D01*
X35742619Y-100750714D02*
X35695000Y-100703095D01*
X35647380Y-100607857D01*
X35647380Y-100369761D01*
X35695000Y-100274523D01*
X35742619Y-100226904D01*
X35837857Y-100179285D01*
X35933095Y-100179285D01*
X36075952Y-100226904D01*
X36647380Y-100798333D01*
X36647380Y-100179285D01*
G04 #@! TO.C,C4*
X36552142Y-98591666D02*
X36599761Y-98639285D01*
X36647380Y-98782142D01*
X36647380Y-98877380D01*
X36599761Y-99020238D01*
X36504523Y-99115476D01*
X36409285Y-99163095D01*
X36218809Y-99210714D01*
X36075952Y-99210714D01*
X35885476Y-99163095D01*
X35790238Y-99115476D01*
X35695000Y-99020238D01*
X35647380Y-98877380D01*
X35647380Y-98782142D01*
X35695000Y-98639285D01*
X35742619Y-98591666D01*
X35980714Y-97734523D02*
X36647380Y-97734523D01*
X35599761Y-97972619D02*
X36314047Y-98210714D01*
X36314047Y-97591666D01*
G04 #@! TO.C,C8*
X35189610Y-90939687D02*
X35122267Y-90939687D01*
X34987580Y-90872343D01*
X34920236Y-90805000D01*
X34852893Y-90670312D01*
X34852893Y-90535625D01*
X34886564Y-90434610D01*
X34987580Y-90266251D01*
X35088595Y-90165236D01*
X35256954Y-90064221D01*
X35357969Y-90030549D01*
X35492656Y-90030549D01*
X35627343Y-90097893D01*
X35694687Y-90165236D01*
X35762030Y-90299923D01*
X35762030Y-90367267D01*
X35930389Y-91007030D02*
X35896717Y-90906015D01*
X35896717Y-90838671D01*
X35930389Y-90737656D01*
X35964061Y-90703984D01*
X36065076Y-90670312D01*
X36132419Y-90670312D01*
X36233435Y-90703984D01*
X36368122Y-90838671D01*
X36401793Y-90939687D01*
X36401793Y-91007030D01*
X36368122Y-91108045D01*
X36334450Y-91141717D01*
X36233435Y-91175389D01*
X36166091Y-91175389D01*
X36065076Y-91141717D01*
X35930389Y-91007030D01*
X35829374Y-90973358D01*
X35762030Y-90973358D01*
X35661015Y-91007030D01*
X35526328Y-91141717D01*
X35492656Y-91242732D01*
X35492656Y-91310076D01*
X35526328Y-91411091D01*
X35661015Y-91545778D01*
X35762030Y-91579450D01*
X35829374Y-91579450D01*
X35930389Y-91545778D01*
X36065076Y-91411091D01*
X36098748Y-91310076D01*
X36098748Y-91242732D01*
X36065076Y-91141717D01*
G04 #@! TO.C,C21*
X35552142Y-107037142D02*
X35504523Y-107084761D01*
X35361666Y-107132380D01*
X35266428Y-107132380D01*
X35123571Y-107084761D01*
X35028333Y-106989523D01*
X34980714Y-106894285D01*
X34933095Y-106703809D01*
X34933095Y-106560952D01*
X34980714Y-106370476D01*
X35028333Y-106275238D01*
X35123571Y-106180000D01*
X35266428Y-106132380D01*
X35361666Y-106132380D01*
X35504523Y-106180000D01*
X35552142Y-106227619D01*
X35933095Y-106227619D02*
X35980714Y-106180000D01*
X36075952Y-106132380D01*
X36314047Y-106132380D01*
X36409285Y-106180000D01*
X36456904Y-106227619D01*
X36504523Y-106322857D01*
X36504523Y-106418095D01*
X36456904Y-106560952D01*
X35885476Y-107132380D01*
X36504523Y-107132380D01*
X37456904Y-107132380D02*
X36885476Y-107132380D01*
X37171190Y-107132380D02*
X37171190Y-106132380D01*
X37075952Y-106275238D01*
X36980714Y-106370476D01*
X36885476Y-106418095D01*
G04 #@! TO.C,C16*
X24946893Y-106223969D02*
X24879549Y-106223969D01*
X24744862Y-106156625D01*
X24677519Y-106089282D01*
X24610175Y-105954595D01*
X24610175Y-105819908D01*
X24643847Y-105718893D01*
X24744862Y-105550534D01*
X24845877Y-105449519D01*
X25014236Y-105348503D01*
X25115251Y-105314832D01*
X25249938Y-105314832D01*
X25384625Y-105382175D01*
X25451969Y-105449519D01*
X25519312Y-105584206D01*
X25519312Y-105651549D01*
X25552984Y-106964748D02*
X25148923Y-106560687D01*
X25350954Y-106762717D02*
X26058061Y-106055610D01*
X25889702Y-106089282D01*
X25755015Y-106089282D01*
X25654000Y-106055610D01*
X26866183Y-106863732D02*
X26731496Y-106729045D01*
X26630480Y-106695374D01*
X26563137Y-106695374D01*
X26394778Y-106729045D01*
X26226419Y-106830061D01*
X25957045Y-107099435D01*
X25923374Y-107200450D01*
X25923374Y-107267793D01*
X25957045Y-107368809D01*
X26091732Y-107503496D01*
X26192748Y-107537167D01*
X26260091Y-107537167D01*
X26361106Y-107503496D01*
X26529465Y-107335137D01*
X26563137Y-107234122D01*
X26563137Y-107166778D01*
X26529465Y-107065763D01*
X26394778Y-106931076D01*
X26293763Y-106897404D01*
X26226419Y-106897404D01*
X26125404Y-106931076D01*
G04 #@! TO.C,C20*
X35552142Y-105767142D02*
X35504523Y-105814761D01*
X35361666Y-105862380D01*
X35266428Y-105862380D01*
X35123571Y-105814761D01*
X35028333Y-105719523D01*
X34980714Y-105624285D01*
X34933095Y-105433809D01*
X34933095Y-105290952D01*
X34980714Y-105100476D01*
X35028333Y-105005238D01*
X35123571Y-104910000D01*
X35266428Y-104862380D01*
X35361666Y-104862380D01*
X35504523Y-104910000D01*
X35552142Y-104957619D01*
X35933095Y-104957619D02*
X35980714Y-104910000D01*
X36075952Y-104862380D01*
X36314047Y-104862380D01*
X36409285Y-104910000D01*
X36456904Y-104957619D01*
X36504523Y-105052857D01*
X36504523Y-105148095D01*
X36456904Y-105290952D01*
X35885476Y-105862380D01*
X36504523Y-105862380D01*
X37123571Y-104862380D02*
X37218809Y-104862380D01*
X37314047Y-104910000D01*
X37361666Y-104957619D01*
X37409285Y-105052857D01*
X37456904Y-105243333D01*
X37456904Y-105481428D01*
X37409285Y-105671904D01*
X37361666Y-105767142D01*
X37314047Y-105814761D01*
X37218809Y-105862380D01*
X37123571Y-105862380D01*
X37028333Y-105814761D01*
X36980714Y-105767142D01*
X36933095Y-105671904D01*
X36885476Y-105481428D01*
X36885476Y-105243333D01*
X36933095Y-105052857D01*
X36980714Y-104957619D01*
X37028333Y-104910000D01*
X37123571Y-104862380D01*
G04 #@! TO.C,C19*
X28567142Y-107672142D02*
X28519523Y-107719761D01*
X28376666Y-107767380D01*
X28281428Y-107767380D01*
X28138571Y-107719761D01*
X28043333Y-107624523D01*
X27995714Y-107529285D01*
X27948095Y-107338809D01*
X27948095Y-107195952D01*
X27995714Y-107005476D01*
X28043333Y-106910238D01*
X28138571Y-106815000D01*
X28281428Y-106767380D01*
X28376666Y-106767380D01*
X28519523Y-106815000D01*
X28567142Y-106862619D01*
X29519523Y-107767380D02*
X28948095Y-107767380D01*
X29233809Y-107767380D02*
X29233809Y-106767380D01*
X29138571Y-106910238D01*
X29043333Y-107005476D01*
X28948095Y-107053095D01*
X29995714Y-107767380D02*
X30186190Y-107767380D01*
X30281428Y-107719761D01*
X30329047Y-107672142D01*
X30424285Y-107529285D01*
X30471904Y-107338809D01*
X30471904Y-106957857D01*
X30424285Y-106862619D01*
X30376666Y-106815000D01*
X30281428Y-106767380D01*
X30090952Y-106767380D01*
X29995714Y-106815000D01*
X29948095Y-106862619D01*
X29900476Y-106957857D01*
X29900476Y-107195952D01*
X29948095Y-107291190D01*
X29995714Y-107338809D01*
X30090952Y-107386428D01*
X30281428Y-107386428D01*
X30376666Y-107338809D01*
X30424285Y-107291190D01*
X30471904Y-107195952D01*
G04 #@! TO.C,C15*
X26597893Y-103937969D02*
X26530549Y-103937969D01*
X26395862Y-103870625D01*
X26328519Y-103803282D01*
X26261175Y-103668595D01*
X26261175Y-103533908D01*
X26294847Y-103432893D01*
X26395862Y-103264534D01*
X26496877Y-103163519D01*
X26665236Y-103062503D01*
X26766251Y-103028832D01*
X26900938Y-103028832D01*
X27035625Y-103096175D01*
X27102969Y-103163519D01*
X27170312Y-103298206D01*
X27170312Y-103365549D01*
X27203984Y-104678748D02*
X26799923Y-104274687D01*
X27001954Y-104476717D02*
X27709061Y-103769610D01*
X27540702Y-103803282D01*
X27406015Y-103803282D01*
X27305000Y-103769610D01*
X28550854Y-104611404D02*
X28214137Y-104274687D01*
X27843748Y-104577732D01*
X27911091Y-104577732D01*
X28012106Y-104611404D01*
X28180465Y-104779763D01*
X28214137Y-104880778D01*
X28214137Y-104948122D01*
X28180465Y-105049137D01*
X28012106Y-105217496D01*
X27911091Y-105251167D01*
X27843748Y-105251167D01*
X27742732Y-105217496D01*
X27574374Y-105049137D01*
X27540702Y-104948122D01*
X27540702Y-104880778D01*
G04 #@! TO.C,C14*
X21771893Y-106350969D02*
X21704549Y-106350969D01*
X21569862Y-106283625D01*
X21502519Y-106216282D01*
X21435175Y-106081595D01*
X21435175Y-105946908D01*
X21468847Y-105845893D01*
X21569862Y-105677534D01*
X21670877Y-105576519D01*
X21839236Y-105475503D01*
X21940251Y-105441832D01*
X22074938Y-105441832D01*
X22209625Y-105509175D01*
X22276969Y-105576519D01*
X22344312Y-105711206D01*
X22344312Y-105778549D01*
X22377984Y-107091748D02*
X21973923Y-106687687D01*
X22175954Y-106889717D02*
X22883061Y-106182610D01*
X22714702Y-106216282D01*
X22580015Y-106216282D01*
X22479000Y-106182610D01*
X23455480Y-107226435D02*
X22984076Y-107697839D01*
X23556496Y-106788702D02*
X22883061Y-107125419D01*
X23320793Y-107563152D01*
G04 #@! TO.C,C13*
X22025893Y-104826969D02*
X21958549Y-104826969D01*
X21823862Y-104759625D01*
X21756519Y-104692282D01*
X21689175Y-104557595D01*
X21689175Y-104422908D01*
X21722847Y-104321893D01*
X21823862Y-104153534D01*
X21924877Y-104052519D01*
X22093236Y-103951503D01*
X22194251Y-103917832D01*
X22328938Y-103917832D01*
X22463625Y-103985175D01*
X22530969Y-104052519D01*
X22598312Y-104187206D01*
X22598312Y-104254549D01*
X22631984Y-105567748D02*
X22227923Y-105163687D01*
X22429954Y-105365717D02*
X23137061Y-104658610D01*
X22968702Y-104692282D01*
X22834015Y-104692282D01*
X22733000Y-104658610D01*
X23574793Y-105096343D02*
X24012526Y-105534076D01*
X23507450Y-105567748D01*
X23608465Y-105668763D01*
X23642137Y-105769778D01*
X23642137Y-105837122D01*
X23608465Y-105938137D01*
X23440106Y-106106496D01*
X23339091Y-106140167D01*
X23271748Y-106140167D01*
X23170732Y-106106496D01*
X22968702Y-105904465D01*
X22935030Y-105803450D01*
X22935030Y-105736106D01*
G04 #@! TO.C,C11*
X23852142Y-102242857D02*
X23899761Y-102290476D01*
X23947380Y-102433333D01*
X23947380Y-102528571D01*
X23899761Y-102671428D01*
X23804523Y-102766666D01*
X23709285Y-102814285D01*
X23518809Y-102861904D01*
X23375952Y-102861904D01*
X23185476Y-102814285D01*
X23090238Y-102766666D01*
X22995000Y-102671428D01*
X22947380Y-102528571D01*
X22947380Y-102433333D01*
X22995000Y-102290476D01*
X23042619Y-102242857D01*
X23947380Y-101290476D02*
X23947380Y-101861904D01*
X23947380Y-101576190D02*
X22947380Y-101576190D01*
X23090238Y-101671428D01*
X23185476Y-101766666D01*
X23233095Y-101861904D01*
X23947380Y-100338095D02*
X23947380Y-100909523D01*
X23947380Y-100623809D02*
X22947380Y-100623809D01*
X23090238Y-100719047D01*
X23185476Y-100814285D01*
X23233095Y-100909523D01*
G04 #@! TO.C,C9*
X23852142Y-98591666D02*
X23899761Y-98639285D01*
X23947380Y-98782142D01*
X23947380Y-98877380D01*
X23899761Y-99020238D01*
X23804523Y-99115476D01*
X23709285Y-99163095D01*
X23518809Y-99210714D01*
X23375952Y-99210714D01*
X23185476Y-99163095D01*
X23090238Y-99115476D01*
X22995000Y-99020238D01*
X22947380Y-98877380D01*
X22947380Y-98782142D01*
X22995000Y-98639285D01*
X23042619Y-98591666D01*
X23947380Y-98115476D02*
X23947380Y-97925000D01*
X23899761Y-97829761D01*
X23852142Y-97782142D01*
X23709285Y-97686904D01*
X23518809Y-97639285D01*
X23137857Y-97639285D01*
X23042619Y-97686904D01*
X22995000Y-97734523D01*
X22947380Y-97829761D01*
X22947380Y-98020238D01*
X22995000Y-98115476D01*
X23042619Y-98163095D01*
X23137857Y-98210714D01*
X23375952Y-98210714D01*
X23471190Y-98163095D01*
X23518809Y-98115476D01*
X23566428Y-98020238D01*
X23566428Y-97829761D01*
X23518809Y-97734523D01*
X23471190Y-97686904D01*
X23375952Y-97639285D01*
G04 #@! TO.C,C100*
X51155088Y-55277661D02*
X51155088Y-55345004D01*
X51087745Y-55479691D01*
X51020401Y-55547035D01*
X50885714Y-55614378D01*
X50751027Y-55614378D01*
X50650012Y-55580707D01*
X50481653Y-55479691D01*
X50380638Y-55378676D01*
X50279623Y-55210317D01*
X50245951Y-55109302D01*
X50245951Y-54974615D01*
X50313295Y-54839928D01*
X50380638Y-54772585D01*
X50515325Y-54705241D01*
X50582669Y-54705241D01*
X51895867Y-54671569D02*
X51491806Y-55075630D01*
X51693837Y-54873600D02*
X50986730Y-54166493D01*
X51020401Y-54334852D01*
X51020401Y-54469539D01*
X50986730Y-54570554D01*
X51626493Y-53526730D02*
X51693837Y-53459386D01*
X51794852Y-53425714D01*
X51862195Y-53425714D01*
X51963211Y-53459386D01*
X52131569Y-53560401D01*
X52299928Y-53728760D01*
X52400943Y-53897119D01*
X52434615Y-53998134D01*
X52434615Y-54065478D01*
X52400943Y-54166493D01*
X52333600Y-54233837D01*
X52232585Y-54267508D01*
X52165241Y-54267508D01*
X52064226Y-54233837D01*
X51895867Y-54132821D01*
X51727508Y-53964462D01*
X51626493Y-53796104D01*
X51592821Y-53695088D01*
X51592821Y-53627745D01*
X51626493Y-53526730D01*
X52299928Y-52853295D02*
X52367272Y-52785951D01*
X52468287Y-52752279D01*
X52535630Y-52752279D01*
X52636646Y-52785951D01*
X52805004Y-52886966D01*
X52973363Y-53055325D01*
X53074378Y-53223684D01*
X53108050Y-53324699D01*
X53108050Y-53392043D01*
X53074378Y-53493058D01*
X53007035Y-53560401D01*
X52906020Y-53594073D01*
X52838676Y-53594073D01*
X52737661Y-53560401D01*
X52569302Y-53459386D01*
X52400943Y-53291027D01*
X52299928Y-53122669D01*
X52266256Y-53021653D01*
X52266256Y-52954310D01*
X52299928Y-52853295D01*
G04 #@! TO.C,C96*
X23710602Y-59399464D02*
X23758221Y-59447083D01*
X23805840Y-59589940D01*
X23805840Y-59685178D01*
X23758221Y-59828035D01*
X23662983Y-59923273D01*
X23567745Y-59970892D01*
X23377269Y-60018511D01*
X23234412Y-60018511D01*
X23043936Y-59970892D01*
X22948698Y-59923273D01*
X22853460Y-59828035D01*
X22805840Y-59685178D01*
X22805840Y-59589940D01*
X22853460Y-59447083D01*
X22901079Y-59399464D01*
X23805840Y-58923273D02*
X23805840Y-58732797D01*
X23758221Y-58637559D01*
X23710602Y-58589940D01*
X23567745Y-58494702D01*
X23377269Y-58447083D01*
X22996317Y-58447083D01*
X22901079Y-58494702D01*
X22853460Y-58542321D01*
X22805840Y-58637559D01*
X22805840Y-58828035D01*
X22853460Y-58923273D01*
X22901079Y-58970892D01*
X22996317Y-59018511D01*
X23234412Y-59018511D01*
X23329650Y-58970892D01*
X23377269Y-58923273D01*
X23424888Y-58828035D01*
X23424888Y-58637559D01*
X23377269Y-58542321D01*
X23329650Y-58494702D01*
X23234412Y-58447083D01*
X22805840Y-57589940D02*
X22805840Y-57780416D01*
X22853460Y-57875654D01*
X22901079Y-57923273D01*
X23043936Y-58018511D01*
X23234412Y-58066130D01*
X23615364Y-58066130D01*
X23710602Y-58018511D01*
X23758221Y-57970892D01*
X23805840Y-57875654D01*
X23805840Y-57685178D01*
X23758221Y-57589940D01*
X23710602Y-57542321D01*
X23615364Y-57494702D01*
X23377269Y-57494702D01*
X23282031Y-57542321D01*
X23234412Y-57589940D01*
X23186793Y-57685178D01*
X23186793Y-57875654D01*
X23234412Y-57970892D01*
X23282031Y-58018511D01*
X23377269Y-58066130D01*
G04 #@! TO.C,U9*
X41148095Y-28887380D02*
X41148095Y-29696904D01*
X41195714Y-29792142D01*
X41243333Y-29839761D01*
X41338571Y-29887380D01*
X41529047Y-29887380D01*
X41624285Y-29839761D01*
X41671904Y-29792142D01*
X41719523Y-29696904D01*
X41719523Y-28887380D01*
X42243333Y-29887380D02*
X42433809Y-29887380D01*
X42529047Y-29839761D01*
X42576666Y-29792142D01*
X42671904Y-29649285D01*
X42719523Y-29458809D01*
X42719523Y-29077857D01*
X42671904Y-28982619D01*
X42624285Y-28935000D01*
X42529047Y-28887380D01*
X42338571Y-28887380D01*
X42243333Y-28935000D01*
X42195714Y-28982619D01*
X42148095Y-29077857D01*
X42148095Y-29315952D01*
X42195714Y-29411190D01*
X42243333Y-29458809D01*
X42338571Y-29506428D01*
X42529047Y-29506428D01*
X42624285Y-29458809D01*
X42671904Y-29411190D01*
X42719523Y-29315952D01*
G04 #@! TO.C,C93*
X21387968Y-42109106D02*
X21387968Y-42176450D01*
X21320624Y-42311137D01*
X21253281Y-42378480D01*
X21118594Y-42445824D01*
X20983907Y-42445824D01*
X20882892Y-42412152D01*
X20714533Y-42311137D01*
X20613518Y-42210122D01*
X20512502Y-42041763D01*
X20478831Y-41940748D01*
X20478831Y-41806061D01*
X20546174Y-41671374D01*
X20613518Y-41604030D01*
X20748205Y-41536687D01*
X20815548Y-41536687D01*
X21792029Y-41839732D02*
X21926716Y-41705045D01*
X21960388Y-41604030D01*
X21960388Y-41536687D01*
X21926716Y-41368328D01*
X21825701Y-41199969D01*
X21556327Y-40930595D01*
X21455311Y-40896923D01*
X21387968Y-40896923D01*
X21286953Y-40930595D01*
X21152266Y-41065282D01*
X21118594Y-41166297D01*
X21118594Y-41233641D01*
X21152266Y-41334656D01*
X21320624Y-41503015D01*
X21421640Y-41536687D01*
X21488983Y-41536687D01*
X21589999Y-41503015D01*
X21724686Y-41368328D01*
X21758357Y-41267312D01*
X21758357Y-41199969D01*
X21724686Y-41098954D01*
X21657342Y-40560206D02*
X22095075Y-40122473D01*
X22128747Y-40627549D01*
X22229762Y-40526534D01*
X22330777Y-40492862D01*
X22398121Y-40492862D01*
X22499136Y-40526534D01*
X22667495Y-40694893D01*
X22701166Y-40795908D01*
X22701166Y-40863251D01*
X22667495Y-40964267D01*
X22465464Y-41166297D01*
X22364449Y-41199969D01*
X22297105Y-41199969D01*
G04 #@! TO.C,C97*
X26978893Y-61519969D02*
X26911549Y-61519969D01*
X26776862Y-61452625D01*
X26709519Y-61385282D01*
X26642175Y-61250595D01*
X26642175Y-61115908D01*
X26675847Y-61014893D01*
X26776862Y-60846534D01*
X26877877Y-60745519D01*
X27046236Y-60644503D01*
X27147251Y-60610832D01*
X27281938Y-60610832D01*
X27416625Y-60678175D01*
X27483969Y-60745519D01*
X27551312Y-60880206D01*
X27551312Y-60947549D01*
X27248267Y-61924030D02*
X27382954Y-62058717D01*
X27483969Y-62092389D01*
X27551312Y-62092389D01*
X27719671Y-62058717D01*
X27888030Y-61957702D01*
X28157404Y-61688328D01*
X28191076Y-61587312D01*
X28191076Y-61519969D01*
X28157404Y-61418954D01*
X28022717Y-61284267D01*
X27921702Y-61250595D01*
X27854358Y-61250595D01*
X27753343Y-61284267D01*
X27584984Y-61452625D01*
X27551312Y-61553641D01*
X27551312Y-61620984D01*
X27584984Y-61722000D01*
X27719671Y-61856687D01*
X27820687Y-61890358D01*
X27888030Y-61890358D01*
X27989045Y-61856687D01*
X28527793Y-61789343D02*
X28999198Y-62260748D01*
X27989045Y-62664809D01*
G04 #@! TO.C,C98*
X36757893Y-59487969D02*
X36690549Y-59487969D01*
X36555862Y-59420625D01*
X36488519Y-59353282D01*
X36421175Y-59218595D01*
X36421175Y-59083908D01*
X36454847Y-58982893D01*
X36555862Y-58814534D01*
X36656877Y-58713519D01*
X36825236Y-58612503D01*
X36926251Y-58578832D01*
X37060938Y-58578832D01*
X37195625Y-58646175D01*
X37262969Y-58713519D01*
X37330312Y-58848206D01*
X37330312Y-58915549D01*
X37027267Y-59892030D02*
X37161954Y-60026717D01*
X37262969Y-60060389D01*
X37330312Y-60060389D01*
X37498671Y-60026717D01*
X37667030Y-59925702D01*
X37936404Y-59656328D01*
X37970076Y-59555312D01*
X37970076Y-59487969D01*
X37936404Y-59386954D01*
X37801717Y-59252267D01*
X37700702Y-59218595D01*
X37633358Y-59218595D01*
X37532343Y-59252267D01*
X37363984Y-59420625D01*
X37330312Y-59521641D01*
X37330312Y-59588984D01*
X37363984Y-59690000D01*
X37498671Y-59824687D01*
X37599687Y-59858358D01*
X37667030Y-59858358D01*
X37768045Y-59824687D01*
X38172106Y-60228748D02*
X38138435Y-60127732D01*
X38138435Y-60060389D01*
X38172106Y-59959374D01*
X38205778Y-59925702D01*
X38306793Y-59892030D01*
X38374137Y-59892030D01*
X38475152Y-59925702D01*
X38609839Y-60060389D01*
X38643511Y-60161404D01*
X38643511Y-60228748D01*
X38609839Y-60329763D01*
X38576167Y-60363435D01*
X38475152Y-60397106D01*
X38407809Y-60397106D01*
X38306793Y-60363435D01*
X38172106Y-60228748D01*
X38071091Y-60195076D01*
X38003748Y-60195076D01*
X37902732Y-60228748D01*
X37768045Y-60363435D01*
X37734374Y-60464450D01*
X37734374Y-60531793D01*
X37768045Y-60632809D01*
X37902732Y-60767496D01*
X38003748Y-60801167D01*
X38071091Y-60801167D01*
X38172106Y-60767496D01*
X38306793Y-60632809D01*
X38340465Y-60531793D01*
X38340465Y-60464450D01*
X38306793Y-60363435D01*
G04 #@! TO.C,C99*
X46980284Y-62494421D02*
X46980284Y-62561765D01*
X46912940Y-62696452D01*
X46845597Y-62763795D01*
X46710910Y-62831139D01*
X46576223Y-62831139D01*
X46475208Y-62797467D01*
X46306849Y-62696452D01*
X46205834Y-62595437D01*
X46104818Y-62427078D01*
X46071147Y-62326063D01*
X46071147Y-62191376D01*
X46138490Y-62056689D01*
X46205834Y-61989345D01*
X46340521Y-61922002D01*
X46407864Y-61922002D01*
X47384345Y-62225047D02*
X47519032Y-62090360D01*
X47552704Y-61989345D01*
X47552704Y-61922002D01*
X47519032Y-61753643D01*
X47418017Y-61585284D01*
X47148643Y-61315910D01*
X47047627Y-61282238D01*
X46980284Y-61282238D01*
X46879269Y-61315910D01*
X46744582Y-61450597D01*
X46710910Y-61551612D01*
X46710910Y-61618956D01*
X46744582Y-61719971D01*
X46912940Y-61888330D01*
X47013956Y-61922002D01*
X47081299Y-61922002D01*
X47182315Y-61888330D01*
X47317002Y-61753643D01*
X47350673Y-61652627D01*
X47350673Y-61585284D01*
X47317002Y-61484269D01*
X48057780Y-61551612D02*
X48192467Y-61416925D01*
X48226139Y-61315910D01*
X48226139Y-61248566D01*
X48192467Y-61080208D01*
X48091452Y-60911849D01*
X47822078Y-60642475D01*
X47721063Y-60608803D01*
X47653719Y-60608803D01*
X47552704Y-60642475D01*
X47418017Y-60777162D01*
X47384345Y-60878177D01*
X47384345Y-60945521D01*
X47418017Y-61046536D01*
X47586376Y-61214895D01*
X47687391Y-61248566D01*
X47754734Y-61248566D01*
X47855750Y-61214895D01*
X47990437Y-61080208D01*
X48024108Y-60979192D01*
X48024108Y-60911849D01*
X47990437Y-60810834D01*
G04 #@! TO.C,C102*
X59978566Y-48226139D02*
X59978566Y-48293482D01*
X59911223Y-48428169D01*
X59843879Y-48495513D01*
X59709192Y-48562856D01*
X59574505Y-48562856D01*
X59473490Y-48529185D01*
X59305131Y-48428169D01*
X59204116Y-48327154D01*
X59103101Y-48158795D01*
X59069429Y-48057780D01*
X59069429Y-47923093D01*
X59136773Y-47788406D01*
X59204116Y-47721063D01*
X59338803Y-47653719D01*
X59406147Y-47653719D01*
X60719345Y-47620047D02*
X60315284Y-48024108D01*
X60517315Y-47822078D02*
X59810208Y-47114971D01*
X59843879Y-47283330D01*
X59843879Y-47418017D01*
X59810208Y-47519032D01*
X60449971Y-46475208D02*
X60517315Y-46407864D01*
X60618330Y-46374192D01*
X60685673Y-46374192D01*
X60786689Y-46407864D01*
X60955047Y-46508879D01*
X61123406Y-46677238D01*
X61224421Y-46845597D01*
X61258093Y-46946612D01*
X61258093Y-47013956D01*
X61224421Y-47114971D01*
X61157078Y-47182315D01*
X61056063Y-47215986D01*
X60988719Y-47215986D01*
X60887704Y-47182315D01*
X60719345Y-47081299D01*
X60550986Y-46912940D01*
X60449971Y-46744582D01*
X60416299Y-46643566D01*
X60416299Y-46576223D01*
X60449971Y-46475208D01*
X61022391Y-46037475D02*
X61022391Y-45970131D01*
X61056063Y-45869116D01*
X61224421Y-45700757D01*
X61325437Y-45667086D01*
X61392780Y-45667086D01*
X61493795Y-45700757D01*
X61561139Y-45768101D01*
X61628482Y-45902788D01*
X61628482Y-46710910D01*
X62066215Y-46273177D01*
G04 #@! TO.C,C103*
X62648490Y-38003936D02*
X62581147Y-38003936D01*
X62446460Y-37936593D01*
X62379116Y-37869249D01*
X62311773Y-37734562D01*
X62311773Y-37599875D01*
X62345444Y-37498860D01*
X62446460Y-37330501D01*
X62547475Y-37229486D01*
X62715834Y-37128471D01*
X62816849Y-37094799D01*
X62951536Y-37094799D01*
X63086223Y-37162143D01*
X63153566Y-37229486D01*
X63220910Y-37364173D01*
X63220910Y-37431517D01*
X63254582Y-38744715D02*
X62850521Y-38340654D01*
X63052551Y-38542685D02*
X63759658Y-37835578D01*
X63591299Y-37869249D01*
X63456612Y-37869249D01*
X63355597Y-37835578D01*
X64399421Y-38475341D02*
X64466765Y-38542685D01*
X64500437Y-38643700D01*
X64500437Y-38711043D01*
X64466765Y-38812059D01*
X64365750Y-38980417D01*
X64197391Y-39148776D01*
X64029032Y-39249791D01*
X63928017Y-39283463D01*
X63860673Y-39283463D01*
X63759658Y-39249791D01*
X63692315Y-39182448D01*
X63658643Y-39081433D01*
X63658643Y-39014089D01*
X63692315Y-38913074D01*
X63793330Y-38744715D01*
X63961689Y-38576356D01*
X64130047Y-38475341D01*
X64231063Y-38441669D01*
X64298406Y-38441669D01*
X64399421Y-38475341D01*
X64870826Y-38946746D02*
X65308559Y-39384478D01*
X64803482Y-39418150D01*
X64904498Y-39519165D01*
X64938169Y-39620181D01*
X64938169Y-39687524D01*
X64904498Y-39788539D01*
X64736139Y-39956898D01*
X64635124Y-39990570D01*
X64567780Y-39990570D01*
X64466765Y-39956898D01*
X64264734Y-39754868D01*
X64231063Y-39653852D01*
X64231063Y-39586509D01*
G04 #@! TO.C,C105*
X56006437Y-28186883D02*
X55939094Y-28186883D01*
X55804407Y-28119540D01*
X55737063Y-28052196D01*
X55669720Y-27917509D01*
X55669720Y-27782822D01*
X55703391Y-27681807D01*
X55804407Y-27513448D01*
X55905422Y-27412433D01*
X56073781Y-27311418D01*
X56174796Y-27277746D01*
X56309483Y-27277746D01*
X56444170Y-27345090D01*
X56511513Y-27412433D01*
X56578857Y-27547120D01*
X56578857Y-27614464D01*
X56612529Y-28927662D02*
X56208468Y-28523601D01*
X56410498Y-28725632D02*
X57117605Y-28018525D01*
X56949246Y-28052196D01*
X56814559Y-28052196D01*
X56713544Y-28018525D01*
X57757368Y-28658288D02*
X57824712Y-28725632D01*
X57858384Y-28826647D01*
X57858384Y-28893990D01*
X57824712Y-28995006D01*
X57723697Y-29163364D01*
X57555338Y-29331723D01*
X57386979Y-29432738D01*
X57285964Y-29466410D01*
X57218620Y-29466410D01*
X57117605Y-29432738D01*
X57050262Y-29365395D01*
X57016590Y-29264380D01*
X57016590Y-29197036D01*
X57050262Y-29096021D01*
X57151277Y-28927662D01*
X57319636Y-28759303D01*
X57487994Y-28658288D01*
X57589010Y-28624616D01*
X57656353Y-28624616D01*
X57757368Y-28658288D01*
X58632834Y-29533754D02*
X58296116Y-29197036D01*
X57925727Y-29500082D01*
X57993071Y-29500082D01*
X58094086Y-29533754D01*
X58262445Y-29702112D01*
X58296116Y-29803128D01*
X58296116Y-29870471D01*
X58262445Y-29971486D01*
X58094086Y-30139845D01*
X57993071Y-30173517D01*
X57925727Y-30173517D01*
X57824712Y-30139845D01*
X57656353Y-29971486D01*
X57622681Y-29870471D01*
X57622681Y-29803128D01*
G04 #@! TO.C,C106*
X45503490Y-22128936D02*
X45436147Y-22128936D01*
X45301460Y-22061593D01*
X45234116Y-21994249D01*
X45166773Y-21859562D01*
X45166773Y-21724875D01*
X45200444Y-21623860D01*
X45301460Y-21455501D01*
X45402475Y-21354486D01*
X45570834Y-21253471D01*
X45671849Y-21219799D01*
X45806536Y-21219799D01*
X45941223Y-21287143D01*
X46008566Y-21354486D01*
X46075910Y-21489173D01*
X46075910Y-21556517D01*
X46109582Y-22869715D02*
X45705521Y-22465654D01*
X45907551Y-22667685D02*
X46614658Y-21960578D01*
X46446299Y-21994249D01*
X46311612Y-21994249D01*
X46210597Y-21960578D01*
X47254421Y-22600341D02*
X47321765Y-22667685D01*
X47355437Y-22768700D01*
X47355437Y-22836043D01*
X47321765Y-22937059D01*
X47220750Y-23105417D01*
X47052391Y-23273776D01*
X46884032Y-23374791D01*
X46783017Y-23408463D01*
X46715673Y-23408463D01*
X46614658Y-23374791D01*
X46547315Y-23307448D01*
X46513643Y-23206433D01*
X46513643Y-23139089D01*
X46547315Y-23038074D01*
X46648330Y-22869715D01*
X46816689Y-22701356D01*
X46985047Y-22600341D01*
X47086063Y-22566669D01*
X47153406Y-22566669D01*
X47254421Y-22600341D01*
X48096215Y-23442135D02*
X47961528Y-23307448D01*
X47860513Y-23273776D01*
X47793169Y-23273776D01*
X47624811Y-23307448D01*
X47456452Y-23408463D01*
X47187078Y-23677837D01*
X47153406Y-23778852D01*
X47153406Y-23846196D01*
X47187078Y-23947211D01*
X47321765Y-24081898D01*
X47422780Y-24115570D01*
X47490124Y-24115570D01*
X47591139Y-24081898D01*
X47759498Y-23913539D01*
X47793169Y-23812524D01*
X47793169Y-23745181D01*
X47759498Y-23644165D01*
X47624811Y-23509478D01*
X47523795Y-23475807D01*
X47456452Y-23475807D01*
X47355437Y-23509478D01*
G04 #@! TO.C,C107*
X38003936Y-21171509D02*
X38003936Y-21238852D01*
X37936593Y-21373539D01*
X37869249Y-21440883D01*
X37734562Y-21508226D01*
X37599875Y-21508226D01*
X37498860Y-21474555D01*
X37330501Y-21373539D01*
X37229486Y-21272524D01*
X37128471Y-21104165D01*
X37094799Y-21003150D01*
X37094799Y-20868463D01*
X37162143Y-20733776D01*
X37229486Y-20666433D01*
X37364173Y-20599089D01*
X37431517Y-20599089D01*
X38744715Y-20565417D02*
X38340654Y-20969478D01*
X38542685Y-20767448D02*
X37835578Y-20060341D01*
X37869249Y-20228700D01*
X37869249Y-20363387D01*
X37835578Y-20464402D01*
X38475341Y-19420578D02*
X38542685Y-19353234D01*
X38643700Y-19319562D01*
X38711043Y-19319562D01*
X38812059Y-19353234D01*
X38980417Y-19454249D01*
X39148776Y-19622608D01*
X39249791Y-19790967D01*
X39283463Y-19891982D01*
X39283463Y-19959326D01*
X39249791Y-20060341D01*
X39182448Y-20127684D01*
X39081433Y-20161356D01*
X39014089Y-20161356D01*
X38913074Y-20127685D01*
X38744715Y-20026669D01*
X38576356Y-19858310D01*
X38475341Y-19689952D01*
X38441669Y-19588936D01*
X38441669Y-19521593D01*
X38475341Y-19420578D01*
X38946746Y-18949173D02*
X39418150Y-18477769D01*
X39822211Y-19487921D01*
G04 #@! TO.C,C95*
X27212902Y-56394536D02*
X27260521Y-56442155D01*
X27308140Y-56585012D01*
X27308140Y-56680250D01*
X27260521Y-56823107D01*
X27165283Y-56918345D01*
X27070045Y-56965964D01*
X26879569Y-57013583D01*
X26736712Y-57013583D01*
X26546236Y-56965964D01*
X26450998Y-56918345D01*
X26355760Y-56823107D01*
X26308140Y-56680250D01*
X26308140Y-56585012D01*
X26355760Y-56442155D01*
X26403379Y-56394536D01*
X27308140Y-55918345D02*
X27308140Y-55727869D01*
X27260521Y-55632631D01*
X27212902Y-55585012D01*
X27070045Y-55489774D01*
X26879569Y-55442155D01*
X26498617Y-55442155D01*
X26403379Y-55489774D01*
X26355760Y-55537393D01*
X26308140Y-55632631D01*
X26308140Y-55823107D01*
X26355760Y-55918345D01*
X26403379Y-55965964D01*
X26498617Y-56013583D01*
X26736712Y-56013583D01*
X26831950Y-55965964D01*
X26879569Y-55918345D01*
X26927188Y-55823107D01*
X26927188Y-55632631D01*
X26879569Y-55537393D01*
X26831950Y-55489774D01*
X26736712Y-55442155D01*
X26308140Y-54537393D02*
X26308140Y-55013583D01*
X26784331Y-55061202D01*
X26736712Y-55013583D01*
X26689093Y-54918345D01*
X26689093Y-54680250D01*
X26736712Y-54585012D01*
X26784331Y-54537393D01*
X26879569Y-54489774D01*
X27117664Y-54489774D01*
X27212902Y-54537393D01*
X27260521Y-54585012D01*
X27308140Y-54680250D01*
X27308140Y-54918345D01*
X27260521Y-55013583D01*
X27212902Y-55061202D01*
G04 #@! TO.C,C94*
X20953630Y-57858283D02*
X21001249Y-57905902D01*
X21048868Y-58048759D01*
X21048868Y-58143997D01*
X21001249Y-58286854D01*
X20906011Y-58382092D01*
X20810773Y-58429711D01*
X20620297Y-58477330D01*
X20477440Y-58477330D01*
X20286964Y-58429711D01*
X20191726Y-58382092D01*
X20096488Y-58286854D01*
X20048868Y-58143997D01*
X20048868Y-58048759D01*
X20096488Y-57905902D01*
X20144107Y-57858283D01*
X21048868Y-57382092D02*
X21048868Y-57191616D01*
X21001249Y-57096378D01*
X20953630Y-57048759D01*
X20810773Y-56953521D01*
X20620297Y-56905902D01*
X20239345Y-56905902D01*
X20144107Y-56953521D01*
X20096488Y-57001140D01*
X20048868Y-57096378D01*
X20048868Y-57286854D01*
X20096488Y-57382092D01*
X20144107Y-57429711D01*
X20239345Y-57477330D01*
X20477440Y-57477330D01*
X20572678Y-57429711D01*
X20620297Y-57382092D01*
X20667916Y-57286854D01*
X20667916Y-57096378D01*
X20620297Y-57001140D01*
X20572678Y-56953521D01*
X20477440Y-56905902D01*
X20382202Y-56048759D02*
X21048868Y-56048759D01*
X20001249Y-56286854D02*
X20715535Y-56524949D01*
X20715535Y-55905902D01*
G04 #@! TO.C,C108*
X29498566Y-29176139D02*
X29498566Y-29243482D01*
X29431223Y-29378169D01*
X29363879Y-29445513D01*
X29229192Y-29512856D01*
X29094505Y-29512856D01*
X28993490Y-29479185D01*
X28825131Y-29378169D01*
X28724116Y-29277154D01*
X28623101Y-29108795D01*
X28589429Y-29007780D01*
X28589429Y-28873093D01*
X28656773Y-28738406D01*
X28724116Y-28671063D01*
X28858803Y-28603719D01*
X28926147Y-28603719D01*
X30239345Y-28570047D02*
X29835284Y-28974108D01*
X30037315Y-28772078D02*
X29330208Y-28064971D01*
X29363879Y-28233330D01*
X29363879Y-28368017D01*
X29330208Y-28469032D01*
X29969971Y-27425208D02*
X30037315Y-27357864D01*
X30138330Y-27324192D01*
X30205673Y-27324192D01*
X30306689Y-27357864D01*
X30475047Y-27458879D01*
X30643406Y-27627238D01*
X30744421Y-27795597D01*
X30778093Y-27896612D01*
X30778093Y-27963956D01*
X30744421Y-28064971D01*
X30677078Y-28132315D01*
X30576063Y-28165986D01*
X30508719Y-28165986D01*
X30407704Y-28132315D01*
X30239345Y-28031299D01*
X30070986Y-27862940D01*
X29969971Y-27694582D01*
X29936299Y-27593566D01*
X29936299Y-27526223D01*
X29969971Y-27425208D01*
X30912780Y-27088490D02*
X30811765Y-27122162D01*
X30744421Y-27122162D01*
X30643406Y-27088490D01*
X30609734Y-27054818D01*
X30576063Y-26953803D01*
X30576063Y-26886460D01*
X30609734Y-26785444D01*
X30744421Y-26650757D01*
X30845437Y-26617086D01*
X30912780Y-26617086D01*
X31013795Y-26650757D01*
X31047467Y-26684429D01*
X31081139Y-26785444D01*
X31081139Y-26852788D01*
X31047467Y-26953803D01*
X30912780Y-27088490D01*
X30879108Y-27189505D01*
X30879108Y-27256849D01*
X30912780Y-27357864D01*
X31047467Y-27492551D01*
X31148482Y-27526223D01*
X31215826Y-27526223D01*
X31316841Y-27492551D01*
X31451528Y-27357864D01*
X31485200Y-27256849D01*
X31485200Y-27189505D01*
X31451528Y-27088490D01*
X31316841Y-26953803D01*
X31215826Y-26920131D01*
X31148482Y-26920131D01*
X31047467Y-26953803D01*
G04 #@! TO.C,C101*
X53243936Y-56731509D02*
X53243936Y-56798852D01*
X53176593Y-56933539D01*
X53109249Y-57000883D01*
X52974562Y-57068226D01*
X52839875Y-57068226D01*
X52738860Y-57034555D01*
X52570501Y-56933539D01*
X52469486Y-56832524D01*
X52368471Y-56664165D01*
X52334799Y-56563150D01*
X52334799Y-56428463D01*
X52402143Y-56293776D01*
X52469486Y-56226433D01*
X52604173Y-56159089D01*
X52671517Y-56159089D01*
X53984715Y-56125417D02*
X53580654Y-56529478D01*
X53782685Y-56327448D02*
X53075578Y-55620341D01*
X53109249Y-55788700D01*
X53109249Y-55923387D01*
X53075578Y-56024402D01*
X53715341Y-54980578D02*
X53782685Y-54913234D01*
X53883700Y-54879562D01*
X53951043Y-54879562D01*
X54052059Y-54913234D01*
X54220417Y-55014249D01*
X54388776Y-55182608D01*
X54489791Y-55350967D01*
X54523463Y-55451982D01*
X54523463Y-55519326D01*
X54489791Y-55620341D01*
X54422448Y-55687685D01*
X54321433Y-55721356D01*
X54254089Y-55721356D01*
X54153074Y-55687685D01*
X53984715Y-55586669D01*
X53816356Y-55418310D01*
X53715341Y-55249952D01*
X53681669Y-55148936D01*
X53681669Y-55081593D01*
X53715341Y-54980578D01*
X55331585Y-54778547D02*
X54927524Y-55182608D01*
X55129555Y-54980578D02*
X54422448Y-54273471D01*
X54456120Y-54441830D01*
X54456120Y-54576517D01*
X54422448Y-54677532D01*
G04 #@! TO.C,C113*
X79097142Y-20169047D02*
X79144761Y-20216666D01*
X79192380Y-20359523D01*
X79192380Y-20454761D01*
X79144761Y-20597619D01*
X79049523Y-20692857D01*
X78954285Y-20740476D01*
X78763809Y-20788095D01*
X78620952Y-20788095D01*
X78430476Y-20740476D01*
X78335238Y-20692857D01*
X78240000Y-20597619D01*
X78192380Y-20454761D01*
X78192380Y-20359523D01*
X78240000Y-20216666D01*
X78287619Y-20169047D01*
X79192380Y-19216666D02*
X79192380Y-19788095D01*
X79192380Y-19502380D02*
X78192380Y-19502380D01*
X78335238Y-19597619D01*
X78430476Y-19692857D01*
X78478095Y-19788095D01*
X79192380Y-18264285D02*
X79192380Y-18835714D01*
X79192380Y-18550000D02*
X78192380Y-18550000D01*
X78335238Y-18645238D01*
X78430476Y-18740476D01*
X78478095Y-18835714D01*
X78192380Y-17930952D02*
X78192380Y-17311904D01*
X78573333Y-17645238D01*
X78573333Y-17502380D01*
X78620952Y-17407142D01*
X78668571Y-17359523D01*
X78763809Y-17311904D01*
X79001904Y-17311904D01*
X79097142Y-17359523D01*
X79144761Y-17407142D01*
X79192380Y-17502380D01*
X79192380Y-17788095D01*
X79144761Y-17883333D01*
X79097142Y-17930952D01*
G04 #@! TO.C,C114*
X72747141Y-40489047D02*
X72794760Y-40536666D01*
X72842379Y-40679523D01*
X72842379Y-40774761D01*
X72794760Y-40917619D01*
X72699522Y-41012857D01*
X72604284Y-41060476D01*
X72413808Y-41108095D01*
X72270951Y-41108095D01*
X72080475Y-41060476D01*
X71985237Y-41012857D01*
X71889999Y-40917619D01*
X71842379Y-40774761D01*
X71842379Y-40679523D01*
X71889999Y-40536666D01*
X71937618Y-40489047D01*
X72842379Y-39536666D02*
X72842379Y-40108095D01*
X72842379Y-39822380D02*
X71842379Y-39822380D01*
X71985237Y-39917619D01*
X72080475Y-40012857D01*
X72128094Y-40108095D01*
X72842379Y-38584285D02*
X72842379Y-39155714D01*
X72842379Y-38870000D02*
X71842379Y-38870000D01*
X71985237Y-38965238D01*
X72080475Y-39060476D01*
X72128094Y-39155714D01*
X72175713Y-37727142D02*
X72842379Y-37727142D01*
X71794760Y-37965238D02*
X72509046Y-38203333D01*
X72509046Y-37584285D01*
G04 #@! TO.C,C115*
X74017142Y-40489047D02*
X74064761Y-40536666D01*
X74112380Y-40679523D01*
X74112380Y-40774761D01*
X74064761Y-40917619D01*
X73969523Y-41012857D01*
X73874285Y-41060476D01*
X73683809Y-41108095D01*
X73540952Y-41108095D01*
X73350476Y-41060476D01*
X73255238Y-41012857D01*
X73160000Y-40917619D01*
X73112380Y-40774761D01*
X73112380Y-40679523D01*
X73160000Y-40536666D01*
X73207619Y-40489047D01*
X74112380Y-39536666D02*
X74112380Y-40108095D01*
X74112380Y-39822380D02*
X73112380Y-39822380D01*
X73255238Y-39917619D01*
X73350476Y-40012857D01*
X73398095Y-40108095D01*
X74112380Y-38584285D02*
X74112380Y-39155714D01*
X74112380Y-38870000D02*
X73112380Y-38870000D01*
X73255238Y-38965238D01*
X73350476Y-39060476D01*
X73398095Y-39155714D01*
X73112380Y-37679523D02*
X73112380Y-38155714D01*
X73588571Y-38203333D01*
X73540952Y-38155714D01*
X73493333Y-38060476D01*
X73493333Y-37822380D01*
X73540952Y-37727142D01*
X73588571Y-37679523D01*
X73683809Y-37631904D01*
X73921904Y-37631904D01*
X74017142Y-37679523D01*
X74064761Y-37727142D01*
X74112380Y-37822380D01*
X74112380Y-38060476D01*
X74064761Y-38155714D01*
X74017142Y-38203333D01*
G04 #@! TO.C,D1*
X80792380Y-38203095D02*
X79792380Y-38203095D01*
X79792380Y-37965000D01*
X79840000Y-37822142D01*
X79935238Y-37726904D01*
X80030476Y-37679285D01*
X80220952Y-37631666D01*
X80363809Y-37631666D01*
X80554285Y-37679285D01*
X80649523Y-37726904D01*
X80744761Y-37822142D01*
X80792380Y-37965000D01*
X80792380Y-38203095D01*
X80792380Y-36679285D02*
X80792380Y-37250714D01*
X80792380Y-36965000D02*
X79792380Y-36965000D01*
X79935238Y-37060238D01*
X80030476Y-37155476D01*
X80078095Y-37250714D01*
G04 #@! TO.C,D2*
X72207380Y-36933095D02*
X71207380Y-36933095D01*
X71207380Y-36695000D01*
X71255000Y-36552142D01*
X71350238Y-36456904D01*
X71445476Y-36409285D01*
X71635952Y-36361666D01*
X71778809Y-36361666D01*
X71969285Y-36409285D01*
X72064523Y-36456904D01*
X72159761Y-36552142D01*
X72207380Y-36695000D01*
X72207380Y-36933095D01*
X71302619Y-35980714D02*
X71255000Y-35933095D01*
X71207380Y-35837857D01*
X71207380Y-35599761D01*
X71255000Y-35504523D01*
X71302619Y-35456904D01*
X71397857Y-35409285D01*
X71493095Y-35409285D01*
X71635952Y-35456904D01*
X72207380Y-36028333D01*
X72207380Y-35409285D01*
G04 #@! TO.C,U12*
X72752380Y-20288095D02*
X73561904Y-20288095D01*
X73657142Y-20240476D01*
X73704761Y-20192857D01*
X73752380Y-20097619D01*
X73752380Y-19907142D01*
X73704761Y-19811904D01*
X73657142Y-19764285D01*
X73561904Y-19716666D01*
X72752380Y-19716666D01*
X73752380Y-18716666D02*
X73752380Y-19288095D01*
X73752380Y-19002380D02*
X72752380Y-19002380D01*
X72895238Y-19097619D01*
X72990476Y-19192857D01*
X73038095Y-19288095D01*
X72847619Y-18335714D02*
X72800000Y-18288095D01*
X72752380Y-18192857D01*
X72752380Y-17954761D01*
X72800000Y-17859523D01*
X72847619Y-17811904D01*
X72942857Y-17764285D01*
X73038095Y-17764285D01*
X73180952Y-17811904D01*
X73752380Y-18383333D01*
X73752380Y-17764285D01*
G04 #@! TO.C,C122*
X35151175Y-59786251D02*
X35083832Y-59786251D01*
X34949145Y-59718908D01*
X34881801Y-59651564D01*
X34814458Y-59516877D01*
X34814458Y-59382190D01*
X34848129Y-59281175D01*
X34949145Y-59112816D01*
X35050160Y-59011801D01*
X35218519Y-58910786D01*
X35319534Y-58877114D01*
X35454221Y-58877114D01*
X35588908Y-58944458D01*
X35656251Y-59011801D01*
X35723595Y-59146488D01*
X35723595Y-59213832D01*
X35757267Y-60527030D02*
X35353206Y-60122969D01*
X35555236Y-60325000D02*
X36262343Y-59617893D01*
X36093984Y-59651564D01*
X35959297Y-59651564D01*
X35858282Y-59617893D01*
X36666404Y-60156641D02*
X36733748Y-60156641D01*
X36834763Y-60190312D01*
X37003122Y-60358671D01*
X37036793Y-60459687D01*
X37036793Y-60527030D01*
X37003122Y-60628045D01*
X36935778Y-60695389D01*
X36801091Y-60762732D01*
X35992969Y-60762732D01*
X36430702Y-61200465D01*
X37339839Y-60830076D02*
X37407183Y-60830076D01*
X37508198Y-60863748D01*
X37676557Y-61032106D01*
X37710228Y-61133122D01*
X37710228Y-61200465D01*
X37676557Y-61301480D01*
X37609213Y-61368824D01*
X37474526Y-61436167D01*
X36666404Y-61436167D01*
X37104137Y-61873900D01*
G04 #@! TO.C,C112*
X103493857Y-84736952D02*
X103446238Y-84689333D01*
X103398619Y-84546476D01*
X103398619Y-84451238D01*
X103446238Y-84308380D01*
X103541476Y-84213142D01*
X103636714Y-84165523D01*
X103827190Y-84117904D01*
X103970047Y-84117904D01*
X104160523Y-84165523D01*
X104255761Y-84213142D01*
X104351000Y-84308380D01*
X104398619Y-84451238D01*
X104398619Y-84546476D01*
X104351000Y-84689333D01*
X104303380Y-84736952D01*
X103398619Y-85689333D02*
X103398619Y-85117904D01*
X103398619Y-85403619D02*
X104398619Y-85403619D01*
X104255761Y-85308380D01*
X104160523Y-85213142D01*
X104112904Y-85117904D01*
X103398619Y-86641714D02*
X103398619Y-86070285D01*
X103398619Y-86356000D02*
X104398619Y-86356000D01*
X104255761Y-86260761D01*
X104160523Y-86165523D01*
X104112904Y-86070285D01*
X104303380Y-87022666D02*
X104351000Y-87070285D01*
X104398619Y-87165523D01*
X104398619Y-87403619D01*
X104351000Y-87498857D01*
X104303380Y-87546476D01*
X104208142Y-87594095D01*
X104112904Y-87594095D01*
X103970047Y-87546476D01*
X103398619Y-86975047D01*
X103398619Y-87594095D01*
G04 #@! TO.C,C111*
X109857142Y-86919047D02*
X109904761Y-86966666D01*
X109952380Y-87109523D01*
X109952380Y-87204761D01*
X109904761Y-87347619D01*
X109809523Y-87442857D01*
X109714285Y-87490476D01*
X109523809Y-87538095D01*
X109380952Y-87538095D01*
X109190476Y-87490476D01*
X109095238Y-87442857D01*
X109000000Y-87347619D01*
X108952380Y-87204761D01*
X108952380Y-87109523D01*
X109000000Y-86966666D01*
X109047619Y-86919047D01*
X109952380Y-85966666D02*
X109952380Y-86538095D01*
X109952380Y-86252380D02*
X108952380Y-86252380D01*
X109095238Y-86347619D01*
X109190476Y-86442857D01*
X109238095Y-86538095D01*
X109952380Y-85014285D02*
X109952380Y-85585714D01*
X109952380Y-85300000D02*
X108952380Y-85300000D01*
X109095238Y-85395238D01*
X109190476Y-85490476D01*
X109238095Y-85585714D01*
X109952380Y-84061904D02*
X109952380Y-84633333D01*
X109952380Y-84347619D02*
X108952380Y-84347619D01*
X109095238Y-84442857D01*
X109190476Y-84538095D01*
X109238095Y-84633333D01*
G04 #@! TO.C,U11*
X105406904Y-86952380D02*
X105406904Y-87761904D01*
X105454523Y-87857142D01*
X105502142Y-87904761D01*
X105597380Y-87952380D01*
X105787857Y-87952380D01*
X105883095Y-87904761D01*
X105930714Y-87857142D01*
X105978333Y-87761904D01*
X105978333Y-86952380D01*
X106978333Y-87952380D02*
X106406904Y-87952380D01*
X106692619Y-87952380D02*
X106692619Y-86952380D01*
X106597380Y-87095238D01*
X106502142Y-87190476D01*
X106406904Y-87238095D01*
X107930714Y-87952380D02*
X107359285Y-87952380D01*
X107645000Y-87952380D02*
X107645000Y-86952380D01*
X107549761Y-87095238D01*
X107454523Y-87190476D01*
X107359285Y-87238095D01*
G04 #@! TO.C,U13*
X104288165Y-104582711D02*
X104288165Y-105392235D01*
X104335784Y-105487473D01*
X104383403Y-105535092D01*
X104478641Y-105582711D01*
X104669118Y-105582711D01*
X104764356Y-105535092D01*
X104811975Y-105487473D01*
X104859594Y-105392235D01*
X104859594Y-104582711D01*
X105859594Y-105582711D02*
X105288165Y-105582711D01*
X105573880Y-105582711D02*
X105573880Y-104582711D01*
X105478641Y-104725569D01*
X105383403Y-104820807D01*
X105288165Y-104868426D01*
X106192927Y-104582711D02*
X106811975Y-104582711D01*
X106478641Y-104963664D01*
X106621499Y-104963664D01*
X106716737Y-105011283D01*
X106764356Y-105058902D01*
X106811975Y-105154140D01*
X106811975Y-105392235D01*
X106764356Y-105487473D01*
X106716737Y-105535092D01*
X106621499Y-105582711D01*
X106335784Y-105582711D01*
X106240546Y-105535092D01*
X106192927Y-105487473D01*
G04 #@! TO.C,J37*
X19201881Y-77009523D02*
X19916167Y-77009523D01*
X20059024Y-77057142D01*
X20154262Y-77152380D01*
X20201881Y-77295238D01*
X20201881Y-77390476D01*
X19201881Y-76628571D02*
X19201881Y-76009523D01*
X19582834Y-76342857D01*
X19582834Y-76200000D01*
X19630453Y-76104761D01*
X19678072Y-76057142D01*
X19773310Y-76009523D01*
X20011405Y-76009523D01*
X20106643Y-76057142D01*
X20154262Y-76104761D01*
X20201881Y-76200000D01*
X20201881Y-76485714D01*
X20154262Y-76580952D01*
X20106643Y-76628571D01*
X19201881Y-75676190D02*
X19201881Y-75009523D01*
X20201881Y-75438095D01*
G04 #@! TO.C,C123*
X25242251Y-29618824D02*
X25242251Y-29686167D01*
X25174908Y-29820854D01*
X25107564Y-29888198D01*
X24972877Y-29955541D01*
X24838190Y-29955541D01*
X24737175Y-29921870D01*
X24568816Y-29820854D01*
X24467801Y-29719839D01*
X24366786Y-29551480D01*
X24333114Y-29450465D01*
X24333114Y-29315778D01*
X24400458Y-29181091D01*
X24467801Y-29113748D01*
X24602488Y-29046404D01*
X24669832Y-29046404D01*
X25983030Y-29012732D02*
X25578969Y-29416793D01*
X25781000Y-29214763D02*
X25073893Y-28507656D01*
X25107564Y-28676015D01*
X25107564Y-28810702D01*
X25073893Y-28911717D01*
X25612641Y-28103595D02*
X25612641Y-28036251D01*
X25646312Y-27935236D01*
X25814671Y-27766877D01*
X25915687Y-27733206D01*
X25983030Y-27733206D01*
X26084045Y-27766877D01*
X26151389Y-27834221D01*
X26218732Y-27968908D01*
X26218732Y-28777030D01*
X26656465Y-28339297D01*
X26185061Y-27396488D02*
X26622793Y-26958755D01*
X26656465Y-27463832D01*
X26757480Y-27362816D01*
X26858496Y-27329145D01*
X26925839Y-27329145D01*
X27026854Y-27362816D01*
X27195213Y-27531175D01*
X27228885Y-27632190D01*
X27228885Y-27699534D01*
X27195213Y-27800549D01*
X26993183Y-28002580D01*
X26892167Y-28036251D01*
X26824824Y-28036251D01*
G04 #@! TO.C,C124*
X20035252Y-34952824D02*
X20035252Y-35020167D01*
X19967909Y-35154854D01*
X19900565Y-35222198D01*
X19765878Y-35289541D01*
X19631191Y-35289541D01*
X19530176Y-35255870D01*
X19361817Y-35154854D01*
X19260802Y-35053839D01*
X19159787Y-34885480D01*
X19126115Y-34784465D01*
X19126115Y-34649778D01*
X19193459Y-34515091D01*
X19260802Y-34447748D01*
X19395489Y-34380404D01*
X19462833Y-34380404D01*
X20776031Y-34346732D02*
X20371970Y-34750793D01*
X20574001Y-34548763D02*
X19866894Y-33841656D01*
X19900565Y-34010015D01*
X19900565Y-34144702D01*
X19866894Y-34245717D01*
X20405642Y-33437595D02*
X20405642Y-33370251D01*
X20439313Y-33269236D01*
X20607672Y-33100877D01*
X20708688Y-33067206D01*
X20776031Y-33067206D01*
X20877046Y-33100877D01*
X20944390Y-33168221D01*
X21011733Y-33302908D01*
X21011733Y-34111030D01*
X21449466Y-33673297D01*
X21584153Y-32595801D02*
X22055558Y-33067206D01*
X21146420Y-32494786D02*
X21483138Y-33168221D01*
X21920871Y-32730488D01*
G04 #@! TO.C,C125*
X25249142Y-42902047D02*
X25296761Y-42949666D01*
X25344380Y-43092523D01*
X25344380Y-43187761D01*
X25296761Y-43330619D01*
X25201523Y-43425857D01*
X25106285Y-43473476D01*
X24915809Y-43521095D01*
X24772952Y-43521095D01*
X24582476Y-43473476D01*
X24487238Y-43425857D01*
X24392000Y-43330619D01*
X24344380Y-43187761D01*
X24344380Y-43092523D01*
X24392000Y-42949666D01*
X24439619Y-42902047D01*
X25344380Y-41949666D02*
X25344380Y-42521095D01*
X25344380Y-42235380D02*
X24344380Y-42235380D01*
X24487238Y-42330619D01*
X24582476Y-42425857D01*
X24630095Y-42521095D01*
X24439619Y-41568714D02*
X24392000Y-41521095D01*
X24344380Y-41425857D01*
X24344380Y-41187761D01*
X24392000Y-41092523D01*
X24439619Y-41044904D01*
X24534857Y-40997285D01*
X24630095Y-40997285D01*
X24772952Y-41044904D01*
X25344380Y-41616333D01*
X25344380Y-40997285D01*
X24344380Y-40092523D02*
X24344380Y-40568714D01*
X24820571Y-40616333D01*
X24772952Y-40568714D01*
X24725333Y-40473476D01*
X24725333Y-40235380D01*
X24772952Y-40140142D01*
X24820571Y-40092523D01*
X24915809Y-40044904D01*
X25153904Y-40044904D01*
X25249142Y-40092523D01*
X25296761Y-40140142D01*
X25344380Y-40235380D01*
X25344380Y-40473476D01*
X25296761Y-40568714D01*
X25249142Y-40616333D01*
G04 #@! TO.C,C126*
X25249142Y-50776047D02*
X25296761Y-50823666D01*
X25344380Y-50966523D01*
X25344380Y-51061761D01*
X25296761Y-51204619D01*
X25201523Y-51299857D01*
X25106285Y-51347476D01*
X24915809Y-51395095D01*
X24772952Y-51395095D01*
X24582476Y-51347476D01*
X24487238Y-51299857D01*
X24392000Y-51204619D01*
X24344380Y-51061761D01*
X24344380Y-50966523D01*
X24392000Y-50823666D01*
X24439619Y-50776047D01*
X25344380Y-49823666D02*
X25344380Y-50395095D01*
X25344380Y-50109380D02*
X24344380Y-50109380D01*
X24487238Y-50204619D01*
X24582476Y-50299857D01*
X24630095Y-50395095D01*
X24439619Y-49442714D02*
X24392000Y-49395095D01*
X24344380Y-49299857D01*
X24344380Y-49061761D01*
X24392000Y-48966523D01*
X24439619Y-48918904D01*
X24534857Y-48871285D01*
X24630095Y-48871285D01*
X24772952Y-48918904D01*
X25344380Y-49490333D01*
X25344380Y-48871285D01*
X24344380Y-48014142D02*
X24344380Y-48204619D01*
X24392000Y-48299857D01*
X24439619Y-48347476D01*
X24582476Y-48442714D01*
X24772952Y-48490333D01*
X25153904Y-48490333D01*
X25249142Y-48442714D01*
X25296761Y-48395095D01*
X25344380Y-48299857D01*
X25344380Y-48109380D01*
X25296761Y-48014142D01*
X25249142Y-47966523D01*
X25153904Y-47918904D01*
X24915809Y-47918904D01*
X24820571Y-47966523D01*
X24772952Y-48014142D01*
X24725333Y-48109380D01*
X24725333Y-48299857D01*
X24772952Y-48395095D01*
X24820571Y-48442714D01*
X24915809Y-48490333D01*
G04 #@! TO.C,R10*
X28011380Y-43568857D02*
X27535190Y-43902190D01*
X28011380Y-44140285D02*
X27011380Y-44140285D01*
X27011380Y-43759333D01*
X27059000Y-43664095D01*
X27106619Y-43616476D01*
X27201857Y-43568857D01*
X27344714Y-43568857D01*
X27439952Y-43616476D01*
X27487571Y-43664095D01*
X27535190Y-43759333D01*
X27535190Y-44140285D01*
X28011380Y-42616476D02*
X28011380Y-43187904D01*
X28011380Y-42902190D02*
X27011380Y-42902190D01*
X27154238Y-42997428D01*
X27249476Y-43092666D01*
X27297095Y-43187904D01*
X27011380Y-41997428D02*
X27011380Y-41902190D01*
X27059000Y-41806952D01*
X27106619Y-41759333D01*
X27201857Y-41711714D01*
X27392333Y-41664095D01*
X27630428Y-41664095D01*
X27820904Y-41711714D01*
X27916142Y-41759333D01*
X27963761Y-41806952D01*
X28011380Y-41902190D01*
X28011380Y-41997428D01*
X27963761Y-42092666D01*
X27916142Y-42140285D01*
X27820904Y-42187904D01*
X27630428Y-42235523D01*
X27392333Y-42235523D01*
X27201857Y-42187904D01*
X27106619Y-42140285D01*
X27059000Y-42092666D01*
X27011380Y-41997428D01*
G04 #@! TO.C,C127*
X24967839Y-59295395D02*
X25015458Y-59343014D01*
X25063077Y-59485871D01*
X25063077Y-59581109D01*
X25015458Y-59723967D01*
X24920220Y-59819205D01*
X24824982Y-59866824D01*
X24634506Y-59914443D01*
X24491649Y-59914443D01*
X24301173Y-59866824D01*
X24205935Y-59819205D01*
X24110697Y-59723967D01*
X24063077Y-59581109D01*
X24063077Y-59485871D01*
X24110697Y-59343014D01*
X24158316Y-59295395D01*
X25063077Y-58343014D02*
X25063077Y-58914443D01*
X25063077Y-58628728D02*
X24063077Y-58628728D01*
X24205935Y-58723967D01*
X24301173Y-58819205D01*
X24348792Y-58914443D01*
X24158316Y-57962062D02*
X24110697Y-57914443D01*
X24063077Y-57819205D01*
X24063077Y-57581109D01*
X24110697Y-57485871D01*
X24158316Y-57438252D01*
X24253554Y-57390633D01*
X24348792Y-57390633D01*
X24491649Y-57438252D01*
X25063077Y-58009681D01*
X25063077Y-57390633D01*
X24063077Y-57057300D02*
X24063077Y-56390633D01*
X25063077Y-56819205D01*
G04 #@! TO.C,C128*
X22273761Y-60373025D02*
X22321380Y-60420644D01*
X22368999Y-60563501D01*
X22368999Y-60658739D01*
X22321380Y-60801597D01*
X22226142Y-60896835D01*
X22130904Y-60944454D01*
X21940428Y-60992073D01*
X21797571Y-60992073D01*
X21607095Y-60944454D01*
X21511857Y-60896835D01*
X21416619Y-60801597D01*
X21368999Y-60658739D01*
X21368999Y-60563501D01*
X21416619Y-60420644D01*
X21464238Y-60373025D01*
X22368999Y-59420644D02*
X22368999Y-59992073D01*
X22368999Y-59706358D02*
X21368999Y-59706358D01*
X21511857Y-59801597D01*
X21607095Y-59896835D01*
X21654714Y-59992073D01*
X21464238Y-59039692D02*
X21416619Y-58992073D01*
X21368999Y-58896835D01*
X21368999Y-58658739D01*
X21416619Y-58563501D01*
X21464238Y-58515882D01*
X21559476Y-58468263D01*
X21654714Y-58468263D01*
X21797571Y-58515882D01*
X22368999Y-59087311D01*
X22368999Y-58468263D01*
X21797571Y-57896835D02*
X21749952Y-57992073D01*
X21702333Y-58039692D01*
X21607095Y-58087311D01*
X21559476Y-58087311D01*
X21464238Y-58039692D01*
X21416619Y-57992073D01*
X21368999Y-57896835D01*
X21368999Y-57706358D01*
X21416619Y-57611120D01*
X21464238Y-57563501D01*
X21559476Y-57515882D01*
X21607095Y-57515882D01*
X21702333Y-57563501D01*
X21749952Y-57611120D01*
X21797571Y-57706358D01*
X21797571Y-57896835D01*
X21845190Y-57992073D01*
X21892809Y-58039692D01*
X21988047Y-58087311D01*
X22178523Y-58087311D01*
X22273761Y-58039692D01*
X22321380Y-57992073D01*
X22368999Y-57896835D01*
X22368999Y-57706358D01*
X22321380Y-57611120D01*
X22273761Y-57563501D01*
X22178523Y-57515882D01*
X21988047Y-57515882D01*
X21892809Y-57563501D01*
X21845190Y-57611120D01*
X21797571Y-57706358D01*
G04 #@! TD*
M02*
