M48
;DRILL file {KiCad 5.0.2-bee76a0~70~ubuntu16.04.1} date Вс 26 май 2019 13:41:28
;FORMAT={-:-/ absolute / inch / decimal}
FMAT,2
INCH,TZ
T1C0.0122
T2C0.0394
T3C0.0866
%
G90
G05
T1
X1.2161Y0.2339
X1.2161Y0.1803
X1.2161Y0.1268
X1.2161Y0.0732
X1.2161Y0.0197
X1.2161Y-0.0339
X1.2697Y0.2339
X1.2697Y0.1803
X1.2697Y0.1268
X1.2697Y0.0732
X1.2697Y0.0197
X1.2697Y-0.0339
X1.3232Y0.2339
X1.3232Y0.1803
X1.3232Y0.1268
X1.3232Y0.0732
X1.3232Y0.0197
X1.3232Y-0.0339
X1.3768Y0.2339
X1.3768Y0.1803
X1.3768Y0.1268
X1.3768Y0.0732
X1.3768Y0.0197
X1.3768Y-0.0339
X1.4303Y0.2339
X1.4303Y0.1803
X1.4303Y0.1268
X1.4303Y0.0732
X1.4303Y0.0197
X1.4303Y-0.0339
X1.4839Y0.2339
X1.4839Y0.1803
X1.4839Y0.1268
X1.4839Y0.0732
X1.4839Y0.0197
X1.4839Y-0.0339
X1.2155Y1.4839
X1.2155Y1.4303
X1.2155Y1.3768
X1.2155Y1.3232
X1.2155Y1.2697
X1.2155Y1.2161
X1.269Y1.4839
X1.269Y1.4303
X1.269Y1.3768
X1.269Y1.3232
X1.269Y1.2697
X1.269Y1.2161
X1.3226Y1.4839
X1.3226Y1.4303
X1.3226Y1.3768
X1.3226Y1.3232
X1.3226Y1.2697
X1.3226Y1.2161
X1.3761Y1.4839
X1.3761Y1.4303
X1.3761Y1.3768
X1.3761Y1.3232
X1.3761Y1.2697
X1.3761Y1.2161
X1.4297Y1.4839
X1.4297Y1.4303
X1.4297Y1.3768
X1.4297Y1.3232
X1.4297Y1.2697
X1.4297Y1.2161
X1.4832Y1.4839
X1.4832Y1.4303
X1.4832Y1.3768
X1.4832Y1.3232
X1.4832Y1.2697
X1.4832Y1.2161
X-1.4839Y-1.2161
X-1.4839Y-1.2697
X-1.4839Y-1.3232
X-1.4839Y-1.3768
X-1.4839Y-1.4303
X-1.4839Y-1.4839
X-1.4303Y-1.2161
X-1.4303Y-1.2697
X-1.4303Y-1.3232
X-1.4303Y-1.3768
X-1.4303Y-1.4303
X-1.4303Y-1.4839
X-1.3768Y-1.2161
X-1.3768Y-1.2697
X-1.3768Y-1.3232
X-1.3768Y-1.3768
X-1.3768Y-1.4303
X-1.3768Y-1.4839
X-1.3232Y-1.2161
X-1.3232Y-1.2697
X-1.3232Y-1.3232
X-1.3232Y-1.3768
X-1.3232Y-1.4303
X-1.3232Y-1.4839
X-1.2697Y-1.2161
X-1.2697Y-1.2697
X-1.2697Y-1.3232
X-1.2697Y-1.3768
X-1.2697Y-1.4303
X-1.2697Y-1.4839
X-1.2161Y-1.2161
X-1.2161Y-1.2697
X-1.2161Y-1.3232
X-1.2161Y-1.3768
X-1.2161Y-1.4303
X-1.2161Y-1.4839
X-0.2339Y-1.2161
X-0.2339Y-1.2697
X-0.2339Y-1.3232
X-0.2339Y-1.3768
X-0.2339Y-1.4303
X-0.2339Y-1.4839
X-0.1803Y-1.2161
X-0.1803Y-1.2697
X-0.1803Y-1.3232
X-0.1803Y-1.3768
X-0.1803Y-1.4303
X-0.1803Y-1.4839
X-0.1268Y-1.2161
X-0.1268Y-1.2697
X-0.1268Y-1.3232
X-0.1268Y-1.3768
X-0.1268Y-1.4303
X-0.1268Y-1.4839
X-0.0732Y-1.2161
X-0.0732Y-1.2697
X-0.0732Y-1.3232
X-0.0732Y-1.3768
X-0.0732Y-1.4303
X-0.0732Y-1.4839
X-0.0197Y-1.2161
X-0.0197Y-1.2697
X-0.0197Y-1.3232
X-0.0197Y-1.3768
X-0.0197Y-1.4303
X-0.0197Y-1.4839
X0.0339Y-1.2161
X0.0339Y-1.2697
X0.0339Y-1.3232
X0.0339Y-1.3768
X0.0339Y-1.4303
X0.0339Y-1.4839
T2
X-1.9Y1.7
X-1.9Y1.6
X-1.9Y1.5
X-1.9Y1.4
X-1.9Y1.3
X-1.9Y1.2
X-1.9Y1.1
X-1.9Y1.
X-1.9Y0.9
X-1.9Y0.8
X-1.9Y0.7
X-1.9Y0.6
X-1.9Y0.5
X-1.9Y0.4
X-1.9Y0.3
X-1.9Y0.2
X-1.9Y0.1
X-1.9Y0.
X-1.8Y1.7
X-1.8Y1.6
X-1.8Y1.5
X-1.8Y1.4
X-1.8Y1.3
X-1.8Y1.2
X-1.8Y1.1
X-1.8Y1.
X-1.8Y0.9
X-1.8Y0.8
X-1.8Y0.7
X-1.8Y0.6
X-1.8Y0.5
X-1.8Y0.4
X-1.8Y0.3
X-1.8Y0.2
X-1.8Y0.1
X-1.8Y0.
X-0.45Y-0.8
X-0.45Y-0.9
X-0.35Y-0.8
X-0.35Y-0.9
X-0.25Y-0.8
X-0.25Y-0.9
X-0.15Y-0.8
X-0.15Y-0.9
X-0.05Y-0.8
X-0.05Y-0.9
X0.05Y-0.8
X0.05Y-0.9
X0.15Y-0.8
X0.15Y-0.9
X0.25Y-0.8
X0.25Y-0.9
X0.8Y1.7
X0.8Y1.6
X0.8Y1.5
X0.8Y1.4
X0.8Y1.3
X0.8Y1.2
X0.8Y1.1
X0.8Y1.
X0.9Y1.7
X0.9Y1.6
X0.9Y1.5
X0.9Y1.4
X0.9Y1.3
X0.9Y1.2
X0.9Y1.1
X0.9Y1.
X1.05Y-1.4
X1.15Y-1.4
X1.25Y-1.4
X1.35Y-1.4
X1.025Y-1.25
X1.125Y-1.25
X1.225Y-1.25
X1.Y-0.35
X1.Y-0.45
X1.1Y-0.35
X1.1Y-0.45
X1.2Y-0.35
X1.2Y-0.45
X1.3Y-0.35
X1.3Y-0.45
X1.4Y-0.35
X1.4Y-0.45
X1.5Y-0.35
X1.5Y-0.45
X1.6Y-0.35
X1.6Y-0.45
X1.7Y-0.35
X1.7Y-0.45
X0.6303Y-0.4545
X0.6303Y-0.5545
X1.9Y-1.5
X1.9Y-1.6
X1.9Y-1.7
X1.9Y-1.8
X1.Y1.9
X1.Y1.8
X1.1Y1.9
X1.1Y1.8
X1.2Y1.9
X1.2Y1.8
X1.3Y1.9
X1.3Y1.8
X1.4Y1.9
X1.4Y1.8
X1.5Y1.9
X1.5Y1.8
X1.6Y1.9
X1.6Y1.8
X1.7Y1.9
X1.7Y1.8
X0.1Y1.7
X0.1Y1.6
X0.1Y1.5
X0.1Y1.4
X0.1Y1.3
X0.1Y1.2
X0.1Y1.1
X0.1Y1.
X0.1Y0.9
X0.1Y0.8
X0.1Y0.7
X0.1Y0.6
X0.1Y0.5
X0.1Y0.4
X0.1Y0.3
X0.1Y0.2
X0.1Y0.1
X0.1Y0.
X0.2Y1.7
X0.2Y1.6
X0.2Y1.5
X0.2Y1.4
X0.2Y1.3
X0.2Y1.2
X0.2Y1.1
X0.2Y1.
X0.2Y0.9
X0.2Y0.8
X0.2Y0.7
X0.2Y0.6
X0.2Y0.5
X0.2Y0.4
X0.2Y0.3
X0.2Y0.2
X0.2Y0.1
X0.2Y0.
X-0.65Y-1.
X-0.65Y-1.1
X-0.65Y-1.2
X-0.65Y-1.3
X-0.65Y-1.4
X-0.65Y-1.5
X-0.65Y-1.6
X-0.65Y-1.7
X-0.55Y-1.
X-0.55Y-1.1
X-0.55Y-1.2
X-0.55Y-1.3
X-0.55Y-1.4
X-0.55Y-1.5
X-0.55Y-1.6
X-0.55Y-1.7
X0.35Y-0.1
X0.35Y-0.2
X0.45Y-0.1
X0.45Y-0.2
X0.55Y-0.1
X0.55Y-0.2
X0.65Y-0.1
X0.65Y-0.2
X1.6Y-1.4
X1.7Y-1.4
X1.8Y-1.4
X0.45Y1.9
X0.55Y1.9
X0.45Y0.825
X0.55Y0.825
X-1.7Y-0.1
X-1.7Y-0.2
X-1.6Y-0.1
X-1.6Y-0.2
X-1.5Y-0.1
X-1.5Y-0.2
X-1.4Y-0.1
X-1.4Y-0.2
X-1.3Y-0.1
X-1.3Y-0.2
X-1.2Y-0.1
X-1.2Y-0.2
X-1.1Y-0.1
X-1.1Y-0.2
X-1.Y-0.1
X-1.Y-0.2
X-0.9Y-0.1
X-0.9Y-0.2
X-0.8Y-0.1
X-0.8Y-0.2
X-0.7Y-0.1
X-0.7Y-0.2
X-0.6Y-0.1
X-0.6Y-0.2
X-0.5Y-0.1
X-0.5Y-0.2
X-0.4Y-0.1
X-0.4Y-0.2
X-0.3Y-0.1
X-0.3Y-0.2
X-0.2Y-0.1
X-0.2Y-0.2
X-0.1Y-0.1
X-0.1Y-0.2
X0.Y-0.1
X0.Y-0.2
X0.7Y-1.8
X0.8Y-1.8
X0.9Y-1.8
X1.6Y-1.9
X1.7Y-1.9
X1.8Y-1.9
X1.35Y-0.575
X1.45Y-0.575
X1.55Y-0.575
X1.65Y-0.575
X1.75Y-0.575
X-0.85Y-0.35
X-0.85Y-0.45
X-0.85Y-0.55
X-0.85Y-0.65
X-0.75Y-0.35
X-0.75Y-0.45
X-0.75Y-0.55
X-0.75Y-0.65
X-1.7Y1.9
X-1.7Y1.8
X-1.6Y1.9
X-1.6Y1.8
X-1.5Y1.9
X-1.5Y1.8
X-1.4Y1.9
X-1.4Y1.8
X-1.3Y1.9
X-1.3Y1.8
X-1.2Y1.9
X-1.2Y1.8
X-1.1Y1.9
X-1.1Y1.8
X-1.Y1.9
X-1.Y1.8
X-0.9Y1.9
X-0.9Y1.8
X-0.8Y1.9
X-0.8Y1.8
X-0.7Y1.9
X-0.7Y1.8
X-0.6Y1.9
X-0.6Y1.8
X-0.5Y1.9
X-0.5Y1.8
X-0.4Y1.9
X-0.4Y1.8
X-0.3Y1.9
X-0.3Y1.8
X-0.2Y1.9
X-0.2Y1.8
X-0.1Y1.9
X-0.1Y1.8
X0.Y1.9
X0.Y1.8
X1.5Y-1.5
X1.5Y-1.6
X1.5Y-1.7
X1.5Y-1.8
X0.9994Y0.9
X0.9994Y0.8
X1.0994Y0.9
X1.0994Y0.8
X1.1994Y0.9
X1.1994Y0.8
X1.2994Y0.9
X1.2994Y0.8
X1.3994Y0.9
X1.3994Y0.8
X1.4994Y0.9
X1.4994Y0.8
X1.5994Y0.9
X1.5994Y0.8
X1.6994Y0.9
X1.6994Y0.8
X1.35Y-1.275
X1.45Y-1.275
X1.55Y-1.275
X1.65Y-1.275
X-0.05Y-0.35
X-0.05Y-0.45
X-0.05Y-0.55
X-0.05Y-0.65
X0.05Y-0.35
X0.05Y-0.45
X0.05Y-0.55
X0.05Y-0.65
X-1.9Y-1.
X-1.9Y-1.1
X-1.9Y-1.2
X-1.9Y-1.3
X-1.9Y-1.4
X-1.9Y-1.5
X-1.9Y-1.6
X-1.9Y-1.7
X-1.8Y-1.
X-1.8Y-1.1
X-1.8Y-1.2
X-1.8Y-1.3
X-1.8Y-1.4
X-1.8Y-1.5
X-1.8Y-1.6
X-1.8Y-1.7
X0.35Y0.7
X0.35Y0.6
X0.45Y0.7
X0.45Y0.6
X0.55Y0.7
X0.55Y0.6
X0.65Y0.7
X0.65Y0.6
X0.7Y-1.4
X0.8Y-1.4
X0.9Y-1.4
X-1.7Y-0.8
X-1.7Y-0.9
X-1.6Y-0.8
X-1.6Y-0.9
X-1.5Y-0.8
X-1.5Y-0.9
X-1.4Y-0.8
X-1.4Y-0.9
X-1.3Y-0.8
X-1.3Y-0.9
X-1.2Y-0.8
X-1.2Y-0.9
X-1.1Y-0.8
X-1.1Y-0.9
X-1.Y-0.8
X-1.Y-0.9
X1.8Y1.7
X1.8Y1.6
X1.8Y1.5
X1.8Y1.4
X1.8Y1.3
X1.8Y1.2
X1.8Y1.1
X1.8Y1.
X1.9Y1.7
X1.9Y1.6
X1.9Y1.5
X1.9Y1.4
X1.9Y1.3
X1.9Y1.2
X1.9Y1.1
X1.9Y1.
X-1.7Y-1.8
X-1.7Y-1.9
X-1.6Y-1.8
X-1.6Y-1.9
X-1.5Y-1.8
X-1.5Y-1.9
X-1.4Y-1.8
X-1.4Y-1.9
X-1.3Y-1.8
X-1.3Y-1.9
X-1.2Y-1.8
X-1.2Y-1.9
X-1.1Y-1.8
X-1.1Y-1.9
X-1.Y-1.8
X-1.Y-1.9
X-0.45Y-1.8
X-0.45Y-1.9
X-0.35Y-1.8
X-0.35Y-1.9
X-0.25Y-1.8
X-0.25Y-1.9
X-0.15Y-1.8
X-0.15Y-1.9
X-0.05Y-1.8
X-0.05Y-1.9
X0.05Y-1.8
X0.05Y-1.9
X0.15Y-1.8
X0.15Y-1.9
X0.25Y-1.8
X0.25Y-1.9
X0.7Y-1.25
X0.8Y-1.25
X0.9Y-1.25
X1.Y0.65
X1.Y0.55
X1.1Y0.65
X1.1Y0.55
X1.2Y0.65
X1.2Y0.55
X1.3Y0.65
X1.3Y0.55
X1.4Y0.65
X1.4Y0.55
X1.5Y0.65
X1.5Y0.55
X1.6Y0.65
X1.6Y0.55
X1.7Y0.65
X1.7Y0.55
X-1.1Y-0.35
X-1.1Y-0.45
X-1.1Y-0.55
X-1.1Y-0.65
X-1.Y-0.35
X-1.Y-0.45
X-1.Y-0.55
X-1.Y-0.65
X-0.9Y-1.
X-0.9Y-1.1
X-0.9Y-1.2
X-0.9Y-1.3
X-0.9Y-1.4
X-0.9Y-1.5
X-0.9Y-1.6
X-0.9Y-1.7
X-0.8Y-1.
X-0.8Y-1.1
X-0.8Y-1.2
X-0.8Y-1.3
X-0.8Y-1.4
X-0.8Y-1.5
X-0.8Y-1.6
X-0.8Y-1.7
X1.05Y-1.9
X1.15Y-1.9
X1.25Y-1.9
X1.35Y-1.9
X0.8Y0.45
X0.8Y0.35
X0.8Y0.25
X0.8Y0.15
X0.8Y0.05
X0.8Y-0.05
X0.8Y-0.15
X0.8Y-0.25
X0.9Y0.45
X0.9Y0.35
X0.9Y0.25
X0.9Y0.15
X0.9Y0.05
X0.9Y-0.05
X0.9Y-0.15
X0.9Y-0.25
X1.8Y0.45
X1.8Y0.35
X1.8Y0.25
X1.8Y0.15
X1.8Y0.05
X1.8Y-0.05
X1.8Y-0.15
X1.8Y-0.25
X1.9Y0.45
X1.9Y0.35
X1.9Y0.25
X1.9Y0.15
X1.9Y0.05
X1.9Y-0.05
X1.9Y-0.15
X1.9Y-0.25
X0.7Y-0.85
X0.8Y-0.85
X0.9Y-0.85
X0.2303Y-0.4545
X0.2303Y-0.5545
X0.35Y-1.
X0.35Y-1.1
X0.35Y-1.2
X0.35Y-1.3
X0.35Y-1.4
X0.35Y-1.5
X0.35Y-1.6
X0.35Y-1.7
X0.45Y-1.
X0.45Y-1.1
X0.45Y-1.2
X0.45Y-1.3
X0.45Y-1.4
X0.45Y-1.5
X0.45Y-1.6
X0.45Y-1.7
X-1.9Y-0.35
X-1.9Y-0.45
X-1.9Y-0.55
X-1.9Y-0.65
X-1.8Y-0.35
X-1.8Y-0.45
X-1.8Y-0.55
X-1.8Y-0.65
X1.025Y-0.85
X1.125Y-0.85
X1.225Y-0.85
T3
X0.4Y-0.85
X-1.85Y1.85
X0.15Y-0.15
X1.8494Y0.85
X1.85Y-0.4
X0.15Y1.85
X1.8494Y1.85
X0.8494Y1.85
X1.85Y0.6
X-1.85Y-0.85
X-1.85Y-1.85
X-0.6Y-0.85
X-0.85Y-0.85
X0.85Y0.6
X0.85Y-0.4
X0.4Y-1.85
X-0.85Y-1.85
X-0.6Y-1.85
X0.8494Y0.85
X-1.85Y-0.15
T0
M30
