G04 #@! TF.GenerationSoftware,KiCad,Pcbnew,5.0.2-bee76a0~70~ubuntu16.04.1*
G04 #@! TF.CreationDate,2019-06-06T06:45:57+03:00*
G04 #@! TF.ProjectId,FreeEEG32-prealpha2,46726565-4545-4473-9332-2d707265616c,rev?*
G04 #@! TF.SameCoordinates,Original*
G04 #@! TF.FileFunction,Copper,L2,Bot*
G04 #@! TF.FilePolarity,Positive*
%FSLAX46Y46*%
G04 Gerber Fmt 4.6, Leading zero omitted, Abs format (unit mm)*
G04 Created by KiCad (PCBNEW 5.0.2-bee76a0~70~ubuntu16.04.1) date Чт 06 июн 2019 06:45:57*
%MOMM*%
%LPD*%
G01*
G04 APERTURE LIST*
G04 #@! TA.AperFunction,ComponentPad*
%ADD10R,1.700000X1.700000*%
G04 #@! TD*
G04 #@! TA.AperFunction,ComponentPad*
%ADD11O,1.700000X1.700000*%
G04 #@! TD*
G04 #@! TA.AperFunction,Conductor*
%ADD12C,0.100000*%
G04 #@! TD*
G04 #@! TA.AperFunction,Conductor*
%ADD13C,7.300000*%
G04 #@! TD*
G04 #@! TA.AperFunction,ViaPad*
%ADD14C,0.500000*%
G04 #@! TD*
G04 #@! TA.AperFunction,ComponentPad*
%ADD15C,4.400000*%
G04 #@! TD*
G04 #@! TA.AperFunction,ComponentPad*
%ADD16O,1.900000X1.200000*%
G04 #@! TD*
G04 #@! TA.AperFunction,ComponentPad*
%ADD17C,1.450000*%
G04 #@! TD*
G04 #@! TA.AperFunction,ViaPad*
%ADD18C,0.800000*%
G04 #@! TD*
G04 #@! TA.AperFunction,Conductor*
%ADD19C,0.254000*%
G04 #@! TD*
G04 APERTURE END LIST*
D10*
G04 #@! TO.P,J17,1*
G04 #@! TO.N,/AVDD_3_EN*
X92861149Y-81340000D03*
D11*
G04 #@! TO.P,J17,2*
G04 #@! TO.N,/AVDD_2_GND*
X95401149Y-81340000D03*
G04 #@! TO.P,J17,3*
G04 #@! TO.N,/AVDD_1_IN*
X97941149Y-81340000D03*
G04 #@! TD*
D10*
G04 #@! TO.P,J18,1*
G04 #@! TO.N,/AVDD_5_OUT*
X97941146Y-88960000D03*
D11*
G04 #@! TO.P,J18,2*
G04 #@! TO.N,Net-(J18-Pad2)*
X95401146Y-88960000D03*
G04 #@! TO.P,J18,3*
G04 #@! TO.N,/AVDD/4_NC*
X92861146Y-88960000D03*
G04 #@! TD*
G04 #@! TO.P,J30,3*
G04 #@! TO.N,/VDD/4_NC*
X81934148Y-100304000D03*
G04 #@! TO.P,J30,2*
G04 #@! TO.N,Net-(J30-Pad2)*
X84474148Y-100304000D03*
D10*
G04 #@! TO.P,J30,1*
G04 #@! TO.N,/VDD_5_OUT*
X87014148Y-100304000D03*
G04 #@! TD*
D11*
G04 #@! TO.P,J29,3*
G04 #@! TO.N,/VDD_1_IN*
X87014149Y-92684000D03*
G04 #@! TO.P,J29,2*
G04 #@! TO.N,/VDD_2_GND*
X84474149Y-92684000D03*
D10*
G04 #@! TO.P,J29,1*
G04 #@! TO.N,/VDD_3_EN*
X81934149Y-92684000D03*
G04 #@! TD*
G04 #@! TO.P,J19,1*
G04 #@! TO.N,/IOVDD_3_EN*
X90661148Y-92737000D03*
D11*
G04 #@! TO.P,J19,2*
G04 #@! TO.N,/IOVDD_2_GND*
X93201148Y-92737000D03*
G04 #@! TO.P,J19,3*
G04 #@! TO.N,/IOVDD_1_IN*
X95741148Y-92737000D03*
G04 #@! TD*
D10*
G04 #@! TO.P,J20,1*
G04 #@! TO.N,/IOVDD_5_OUT*
X95741147Y-100357000D03*
D11*
G04 #@! TO.P,J20,2*
G04 #@! TO.N,Net-(J20-Pad2)*
X93201147Y-100357000D03*
G04 #@! TO.P,J20,3*
G04 #@! TO.N,/IOVDD/4_NC*
X90661147Y-100357000D03*
G04 #@! TD*
D12*
G04 #@! TO.N,/ADC3_42_REF2-*
G04 #@! TO.C,U3*
G36*
X101197995Y-25561204D02*
X101222263Y-25564804D01*
X101246062Y-25570765D01*
X101269162Y-25579030D01*
X101291341Y-25589520D01*
X101312384Y-25602133D01*
X101332090Y-25616748D01*
X101350269Y-25633224D01*
X101366745Y-25651403D01*
X101381360Y-25671109D01*
X101393973Y-25692152D01*
X101404463Y-25714331D01*
X101412728Y-25737431D01*
X101418689Y-25761230D01*
X101422289Y-25785498D01*
X101423493Y-25810003D01*
X101423493Y-32609997D01*
X101422289Y-32634502D01*
X101418689Y-32658770D01*
X101412728Y-32682569D01*
X101404463Y-32705669D01*
X101393973Y-32727848D01*
X101381360Y-32748891D01*
X101366745Y-32768597D01*
X101350269Y-32786776D01*
X101332090Y-32803252D01*
X101312384Y-32817867D01*
X101291341Y-32830480D01*
X101269162Y-32840970D01*
X101246062Y-32849235D01*
X101222263Y-32855196D01*
X101197995Y-32858796D01*
X101173490Y-32860000D01*
X94373496Y-32860000D01*
X94348991Y-32858796D01*
X94324723Y-32855196D01*
X94300924Y-32849235D01*
X94277824Y-32840970D01*
X94255645Y-32830480D01*
X94234602Y-32817867D01*
X94214896Y-32803252D01*
X94196717Y-32786776D01*
X94180241Y-32768597D01*
X94165626Y-32748891D01*
X94153013Y-32727848D01*
X94142523Y-32705669D01*
X94134258Y-32682569D01*
X94128297Y-32658770D01*
X94124697Y-32634502D01*
X94123493Y-32609997D01*
X94123493Y-25810003D01*
X94124697Y-25785498D01*
X94128297Y-25761230D01*
X94134258Y-25737431D01*
X94142523Y-25714331D01*
X94153013Y-25692152D01*
X94165626Y-25671109D01*
X94180241Y-25651403D01*
X94196717Y-25633224D01*
X94214896Y-25616748D01*
X94234602Y-25602133D01*
X94255645Y-25589520D01*
X94277824Y-25579030D01*
X94300924Y-25570765D01*
X94324723Y-25564804D01*
X94348991Y-25561204D01*
X94373496Y-25560000D01*
X101173490Y-25560000D01*
X101197995Y-25561204D01*
X101197995Y-25561204D01*
G37*
D13*
X97773493Y-29210000D03*
D14*
X94373493Y-32610000D03*
X94373493Y-31250000D03*
X94373493Y-29890000D03*
X94373493Y-28530000D03*
X94373493Y-27170000D03*
X94373493Y-25810000D03*
X95733493Y-32610000D03*
X95733493Y-31250000D03*
X95733493Y-29890000D03*
X95733493Y-28530000D03*
X95733493Y-27170000D03*
X95733493Y-25810000D03*
X97093493Y-32610000D03*
X97093493Y-31250000D03*
X97093493Y-29890000D03*
X97093493Y-28530000D03*
X97093493Y-27170000D03*
X97093493Y-25810000D03*
X98453493Y-32610000D03*
X98453493Y-31250000D03*
X98453493Y-29890000D03*
X98453493Y-28530000D03*
X98453493Y-27170000D03*
X98453493Y-25810000D03*
X99813493Y-32610000D03*
X99813493Y-31250000D03*
X99813493Y-29890000D03*
X99813493Y-28530000D03*
X99813493Y-27170000D03*
X99813493Y-25810000D03*
X101173493Y-32610000D03*
X101173493Y-31250000D03*
X101173493Y-29890000D03*
X101173493Y-28530000D03*
X101173493Y-27170000D03*
X101173493Y-25810000D03*
G04 #@! TD*
D12*
G04 #@! TO.N,/ADC2_42_REF2-*
G04 #@! TO.C,U2*
G36*
X64384502Y-94141204D02*
X64408770Y-94144804D01*
X64432569Y-94150765D01*
X64455669Y-94159030D01*
X64477848Y-94169520D01*
X64498891Y-94182133D01*
X64518597Y-94196748D01*
X64536776Y-94213224D01*
X64553252Y-94231403D01*
X64567867Y-94251109D01*
X64580480Y-94272152D01*
X64590970Y-94294331D01*
X64599235Y-94317431D01*
X64605196Y-94341230D01*
X64608796Y-94365498D01*
X64610000Y-94390003D01*
X64610000Y-101189997D01*
X64608796Y-101214502D01*
X64605196Y-101238770D01*
X64599235Y-101262569D01*
X64590970Y-101285669D01*
X64580480Y-101307848D01*
X64567867Y-101328891D01*
X64553252Y-101348597D01*
X64536776Y-101366776D01*
X64518597Y-101383252D01*
X64498891Y-101397867D01*
X64477848Y-101410480D01*
X64455669Y-101420970D01*
X64432569Y-101429235D01*
X64408770Y-101435196D01*
X64384502Y-101438796D01*
X64359997Y-101440000D01*
X57560003Y-101440000D01*
X57535498Y-101438796D01*
X57511230Y-101435196D01*
X57487431Y-101429235D01*
X57464331Y-101420970D01*
X57442152Y-101410480D01*
X57421109Y-101397867D01*
X57401403Y-101383252D01*
X57383224Y-101366776D01*
X57366748Y-101348597D01*
X57352133Y-101328891D01*
X57339520Y-101307848D01*
X57329030Y-101285669D01*
X57320765Y-101262569D01*
X57314804Y-101238770D01*
X57311204Y-101214502D01*
X57310000Y-101189997D01*
X57310000Y-94390003D01*
X57311204Y-94365498D01*
X57314804Y-94341230D01*
X57320765Y-94317431D01*
X57329030Y-94294331D01*
X57339520Y-94272152D01*
X57352133Y-94251109D01*
X57366748Y-94231403D01*
X57383224Y-94213224D01*
X57401403Y-94196748D01*
X57421109Y-94182133D01*
X57442152Y-94169520D01*
X57464331Y-94159030D01*
X57487431Y-94150765D01*
X57511230Y-94144804D01*
X57535498Y-94141204D01*
X57560003Y-94140000D01*
X64359997Y-94140000D01*
X64384502Y-94141204D01*
X64384502Y-94141204D01*
G37*
D13*
X60960000Y-97790000D03*
D14*
X57560000Y-94390000D03*
X58920000Y-94390000D03*
X60280000Y-94390000D03*
X61640000Y-94390000D03*
X63000000Y-94390000D03*
X64360000Y-94390000D03*
X57560000Y-95750000D03*
X58920000Y-95750000D03*
X60280000Y-95750000D03*
X61640000Y-95750000D03*
X63000000Y-95750000D03*
X64360000Y-95750000D03*
X57560000Y-97110000D03*
X58920000Y-97110000D03*
X60280000Y-97110000D03*
X61640000Y-97110000D03*
X63000000Y-97110000D03*
X64360000Y-97110000D03*
X57560000Y-98470000D03*
X58920000Y-98470000D03*
X60280000Y-98470000D03*
X61640000Y-98470000D03*
X63000000Y-98470000D03*
X64360000Y-98470000D03*
X57560000Y-99830000D03*
X58920000Y-99830000D03*
X60280000Y-99830000D03*
X61640000Y-99830000D03*
X63000000Y-99830000D03*
X64360000Y-99830000D03*
X57560000Y-101190000D03*
X58920000Y-101190000D03*
X60280000Y-101190000D03*
X61640000Y-101190000D03*
X63000000Y-101190000D03*
X64360000Y-101190000D03*
G04 #@! TD*
D12*
G04 #@! TO.N,/ADC1_42_REF2-*
G04 #@! TO.C,U1*
G36*
X32634502Y-94141204D02*
X32658770Y-94144804D01*
X32682569Y-94150765D01*
X32705669Y-94159030D01*
X32727848Y-94169520D01*
X32748891Y-94182133D01*
X32768597Y-94196748D01*
X32786776Y-94213224D01*
X32803252Y-94231403D01*
X32817867Y-94251109D01*
X32830480Y-94272152D01*
X32840970Y-94294331D01*
X32849235Y-94317431D01*
X32855196Y-94341230D01*
X32858796Y-94365498D01*
X32860000Y-94390003D01*
X32860000Y-101189997D01*
X32858796Y-101214502D01*
X32855196Y-101238770D01*
X32849235Y-101262569D01*
X32840970Y-101285669D01*
X32830480Y-101307848D01*
X32817867Y-101328891D01*
X32803252Y-101348597D01*
X32786776Y-101366776D01*
X32768597Y-101383252D01*
X32748891Y-101397867D01*
X32727848Y-101410480D01*
X32705669Y-101420970D01*
X32682569Y-101429235D01*
X32658770Y-101435196D01*
X32634502Y-101438796D01*
X32609997Y-101440000D01*
X25810003Y-101440000D01*
X25785498Y-101438796D01*
X25761230Y-101435196D01*
X25737431Y-101429235D01*
X25714331Y-101420970D01*
X25692152Y-101410480D01*
X25671109Y-101397867D01*
X25651403Y-101383252D01*
X25633224Y-101366776D01*
X25616748Y-101348597D01*
X25602133Y-101328891D01*
X25589520Y-101307848D01*
X25579030Y-101285669D01*
X25570765Y-101262569D01*
X25564804Y-101238770D01*
X25561204Y-101214502D01*
X25560000Y-101189997D01*
X25560000Y-94390003D01*
X25561204Y-94365498D01*
X25564804Y-94341230D01*
X25570765Y-94317431D01*
X25579030Y-94294331D01*
X25589520Y-94272152D01*
X25602133Y-94251109D01*
X25616748Y-94231403D01*
X25633224Y-94213224D01*
X25651403Y-94196748D01*
X25671109Y-94182133D01*
X25692152Y-94169520D01*
X25714331Y-94159030D01*
X25737431Y-94150765D01*
X25761230Y-94144804D01*
X25785498Y-94141204D01*
X25810003Y-94140000D01*
X32609997Y-94140000D01*
X32634502Y-94141204D01*
X32634502Y-94141204D01*
G37*
D13*
X29210000Y-97790000D03*
D14*
X25810000Y-94390000D03*
X27170000Y-94390000D03*
X28530000Y-94390000D03*
X29890000Y-94390000D03*
X31250000Y-94390000D03*
X32610000Y-94390000D03*
X25810000Y-95750000D03*
X27170000Y-95750000D03*
X28530000Y-95750000D03*
X29890000Y-95750000D03*
X31250000Y-95750000D03*
X32610000Y-95750000D03*
X25810000Y-97110000D03*
X27170000Y-97110000D03*
X28530000Y-97110000D03*
X29890000Y-97110000D03*
X31250000Y-97110000D03*
X32610000Y-97110000D03*
X25810000Y-98470000D03*
X27170000Y-98470000D03*
X28530000Y-98470000D03*
X29890000Y-98470000D03*
X31250000Y-98470000D03*
X32610000Y-98470000D03*
X25810000Y-99830000D03*
X27170000Y-99830000D03*
X28530000Y-99830000D03*
X29890000Y-99830000D03*
X31250000Y-99830000D03*
X32610000Y-99830000D03*
X25810000Y-101190000D03*
X27170000Y-101190000D03*
X28530000Y-101190000D03*
X29890000Y-101190000D03*
X31250000Y-101190000D03*
X32610000Y-101190000D03*
G04 #@! TD*
D12*
G04 #@! TO.N,/ADC4_42_REF2-*
G04 #@! TO.C,U4*
G36*
X101214502Y-57311204D02*
X101238770Y-57314804D01*
X101262569Y-57320765D01*
X101285669Y-57329030D01*
X101307848Y-57339520D01*
X101328891Y-57352133D01*
X101348597Y-57366748D01*
X101366776Y-57383224D01*
X101383252Y-57401403D01*
X101397867Y-57421109D01*
X101410480Y-57442152D01*
X101420970Y-57464331D01*
X101429235Y-57487431D01*
X101435196Y-57511230D01*
X101438796Y-57535498D01*
X101440000Y-57560003D01*
X101440000Y-64359997D01*
X101438796Y-64384502D01*
X101435196Y-64408770D01*
X101429235Y-64432569D01*
X101420970Y-64455669D01*
X101410480Y-64477848D01*
X101397867Y-64498891D01*
X101383252Y-64518597D01*
X101366776Y-64536776D01*
X101348597Y-64553252D01*
X101328891Y-64567867D01*
X101307848Y-64580480D01*
X101285669Y-64590970D01*
X101262569Y-64599235D01*
X101238770Y-64605196D01*
X101214502Y-64608796D01*
X101189997Y-64610000D01*
X94390003Y-64610000D01*
X94365498Y-64608796D01*
X94341230Y-64605196D01*
X94317431Y-64599235D01*
X94294331Y-64590970D01*
X94272152Y-64580480D01*
X94251109Y-64567867D01*
X94231403Y-64553252D01*
X94213224Y-64536776D01*
X94196748Y-64518597D01*
X94182133Y-64498891D01*
X94169520Y-64477848D01*
X94159030Y-64455669D01*
X94150765Y-64432569D01*
X94144804Y-64408770D01*
X94141204Y-64384502D01*
X94140000Y-64359997D01*
X94140000Y-57560003D01*
X94141204Y-57535498D01*
X94144804Y-57511230D01*
X94150765Y-57487431D01*
X94159030Y-57464331D01*
X94169520Y-57442152D01*
X94182133Y-57421109D01*
X94196748Y-57401403D01*
X94213224Y-57383224D01*
X94231403Y-57366748D01*
X94251109Y-57352133D01*
X94272152Y-57339520D01*
X94294331Y-57329030D01*
X94317431Y-57320765D01*
X94341230Y-57314804D01*
X94365498Y-57311204D01*
X94390003Y-57310000D01*
X101189997Y-57310000D01*
X101214502Y-57311204D01*
X101214502Y-57311204D01*
G37*
D13*
X97790000Y-60960000D03*
D14*
X94390000Y-64360000D03*
X94390000Y-63000000D03*
X94390000Y-61640000D03*
X94390000Y-60280000D03*
X94390000Y-58920000D03*
X94390000Y-57560000D03*
X95750000Y-64360000D03*
X95750000Y-63000000D03*
X95750000Y-61640000D03*
X95750000Y-60280000D03*
X95750000Y-58920000D03*
X95750000Y-57560000D03*
X97110000Y-64360000D03*
X97110000Y-63000000D03*
X97110000Y-61640000D03*
X97110000Y-60280000D03*
X97110000Y-58920000D03*
X97110000Y-57560000D03*
X98470000Y-64360000D03*
X98470000Y-63000000D03*
X98470000Y-61640000D03*
X98470000Y-60280000D03*
X98470000Y-58920000D03*
X98470000Y-57560000D03*
X99830000Y-64360000D03*
X99830000Y-63000000D03*
X99830000Y-61640000D03*
X99830000Y-60280000D03*
X99830000Y-58920000D03*
X99830000Y-57560000D03*
X101190000Y-64360000D03*
X101190000Y-63000000D03*
X101190000Y-61640000D03*
X101190000Y-60280000D03*
X101190000Y-58920000D03*
X101190000Y-57560000D03*
G04 #@! TD*
D11*
G04 #@! TO.P,J39,8*
G04 #@! TO.N,/ISO1/8_GND1*
X28702000Y-80010000D03*
G04 #@! TO.P,J39,7*
G04 #@! TO.N,/ISO1/7_EN1*
X31242000Y-80010000D03*
G04 #@! TO.P,J39,6*
G04 #@! TO.N,/ISO1/6_OUTD*
X28702000Y-77470000D03*
G04 #@! TO.P,J39,5*
G04 #@! TO.N,/ISO1/5_INC*
X31242000Y-77470000D03*
G04 #@! TO.P,J39,4*
G04 #@! TO.N,/ISO1/4_INB*
X28702000Y-74930000D03*
G04 #@! TO.P,J39,3*
G04 #@! TO.N,/ISO1/3_INA*
X31242000Y-74930000D03*
G04 #@! TO.P,J39,2*
G04 #@! TO.N,/ISO1/2_GND1*
X28702000Y-72390000D03*
D10*
G04 #@! TO.P,J39,1*
G04 #@! TO.N,/ISO1/1_VCC1*
X31242000Y-72390000D03*
G04 #@! TD*
G04 #@! TO.P,J40,1*
G04 #@! TO.N,/ISO1/10_EN2*
X49022000Y-80010000D03*
D11*
G04 #@! TO.P,J40,2*
G04 #@! TO.N,/ISO1/9_GND2*
X51562000Y-80010000D03*
G04 #@! TO.P,J40,3*
G04 #@! TO.N,/ISO1/12_OUTC*
X49022000Y-77470000D03*
G04 #@! TO.P,J40,4*
G04 #@! TO.N,/ISO1/11_IND*
X51562000Y-77470000D03*
G04 #@! TO.P,J40,5*
G04 #@! TO.N,/ISO1/14_OUTA*
X49022000Y-74930000D03*
G04 #@! TO.P,J40,6*
G04 #@! TO.N,/ISO1/13_OUTB*
X51562000Y-74930000D03*
G04 #@! TO.P,J40,7*
G04 #@! TO.N,/ISO1/16_VCC2*
X49022000Y-72390000D03*
G04 #@! TO.P,J40,8*
G04 #@! TO.N,/ISO1/15_GND2*
X51562000Y-72390000D03*
G04 #@! TD*
D10*
G04 #@! TO.P,J41,1*
G04 #@! TO.N,/ISO2/1_VCC1*
X57912000Y-72390000D03*
D11*
G04 #@! TO.P,J41,2*
G04 #@! TO.N,/ISO2/2_GND1*
X55372000Y-72390000D03*
G04 #@! TO.P,J41,3*
G04 #@! TO.N,/ISO2/3_INA*
X57912000Y-74930000D03*
G04 #@! TO.P,J41,4*
G04 #@! TO.N,/ISO2/4_INB*
X55372000Y-74930000D03*
G04 #@! TO.P,J41,5*
G04 #@! TO.N,/ISO2/5_INC*
X57912000Y-77470000D03*
G04 #@! TO.P,J41,6*
G04 #@! TO.N,/ISO2/6_OUTD*
X55372000Y-77470000D03*
G04 #@! TO.P,J41,7*
G04 #@! TO.N,/ISO2/7_EN1*
X57912000Y-80010000D03*
G04 #@! TO.P,J41,8*
G04 #@! TO.N,/ISO2/8_GND1*
X55372000Y-80010000D03*
G04 #@! TD*
G04 #@! TO.P,J42,8*
G04 #@! TO.N,/ISO2/15_GND2*
X78232000Y-72390000D03*
G04 #@! TO.P,J42,7*
G04 #@! TO.N,/ISO2/16_VCC2*
X75692000Y-72390000D03*
G04 #@! TO.P,J42,6*
G04 #@! TO.N,/ISO2/13_OUTB*
X78232000Y-74930000D03*
G04 #@! TO.P,J42,5*
G04 #@! TO.N,/ISO2/14_OUTA*
X75692000Y-74930000D03*
G04 #@! TO.P,J42,4*
G04 #@! TO.N,/ISO2/11_IND*
X78232000Y-77470000D03*
G04 #@! TO.P,J42,3*
G04 #@! TO.N,/ISO2/12_OUTC*
X75692000Y-77470000D03*
G04 #@! TO.P,J42,2*
G04 #@! TO.N,/ISO2/9_GND2*
X78232000Y-80010000D03*
D10*
G04 #@! TO.P,J42,1*
G04 #@! TO.N,/ISO2/10_EN2*
X75692000Y-80010000D03*
G04 #@! TD*
G04 #@! TO.P,J22,1*
G04 #@! TO.N,/REF/8_TP*
X82360000Y-111385000D03*
D11*
G04 #@! TO.P,J22,2*
G04 #@! TO.N,/REF/7_NC*
X82360000Y-108845000D03*
G04 #@! TO.P,J22,3*
G04 #@! TO.N,/REF_6_OUT*
X82360000Y-106305000D03*
G04 #@! TO.P,J22,4*
G04 #@! TO.N,/REF/5_NC*
X82360000Y-103765000D03*
G04 #@! TD*
G04 #@! TO.P,J16,16*
G04 #@! TO.N,/ADC4_42_REF2-*
X109220000Y-69850000D03*
G04 #@! TO.P,J16,15*
G04 #@! TO.N,/ADC4/49_REF_OUT*
X111760000Y-69850000D03*
G04 #@! TO.P,J16,14*
G04 #@! TO.N,/ADC4_52_AVDD2B*
X109220000Y-67310000D03*
G04 #@! TO.P,J16,13*
G04 #@! TO.N,/ADC4/51_AREG2CAP*
X111760000Y-67310000D03*
G04 #@! TO.P,J16,12*
G04 #@! TO.N,/ADC4_54_FORMAT1*
X109220000Y-64770000D03*
G04 #@! TO.P,J16,11*
G04 #@! TO.N,/ADC4_42_REF2-*
X111760000Y-64770000D03*
G04 #@! TO.P,J16,10*
G04 #@! TO.N,/ADC4_56_CLK_SEL*
X109220000Y-62230000D03*
G04 #@! TO.P,J16,9*
G04 #@! TO.N,/ADC4_55_FORMAT0*
X111760000Y-62230000D03*
G04 #@! TO.P,J16,8*
G04 #@! TO.N,/ADC4_58_AVDD2A*
X109220000Y-59690000D03*
G04 #@! TO.P,J16,7*
G04 #@! TO.N,/ADC4/57_VCM*
X111760000Y-59690000D03*
G04 #@! TO.P,J16,6*
G04 #@! TO.N,/ADC4_42_REF2-*
X109220000Y-57150000D03*
G04 #@! TO.P,J16,5*
G04 #@! TO.N,/ADC4/59_AREG1CAP*
X111760000Y-57150000D03*
G04 #@! TO.P,J16,4*
G04 #@! TO.N,/ADC4_62_AVDD4*
X109220000Y-54610000D03*
G04 #@! TO.P,J16,3*
G04 #@! TO.N,/ADC4_42_REF2-*
X111760000Y-54610000D03*
G04 #@! TO.P,J16,2*
G04 #@! TO.N,/ADC4/64_AUXAIN-*
X109220000Y-52070000D03*
D10*
G04 #@! TO.P,J16,1*
G04 #@! TO.N,/ADC4/63_AUXAIN+*
X111760000Y-52070000D03*
G04 #@! TD*
D11*
G04 #@! TO.P,J43,8*
G04 #@! TO.N,/ISO3/8_GND1*
X72390000Y-45720000D03*
G04 #@! TO.P,J43,7*
G04 #@! TO.N,/ISO3/7_EN1*
X72390000Y-48260000D03*
G04 #@! TO.P,J43,6*
G04 #@! TO.N,/ISO3/6_OUTD*
X74930000Y-45720000D03*
G04 #@! TO.P,J43,5*
G04 #@! TO.N,/ISO3/5_INC*
X74930000Y-48260000D03*
G04 #@! TO.P,J43,4*
G04 #@! TO.N,/ISO3/4_INB*
X77470000Y-45720000D03*
G04 #@! TO.P,J43,3*
G04 #@! TO.N,/ISO3/3_INA*
X77470000Y-48260000D03*
G04 #@! TO.P,J43,2*
G04 #@! TO.N,/ISO3/2_GND1*
X80010000Y-45720000D03*
D10*
G04 #@! TO.P,J43,1*
G04 #@! TO.N,/ISO3/1_VCC1*
X80010000Y-48260000D03*
G04 #@! TD*
G04 #@! TO.P,J44,1*
G04 #@! TO.N,/ISO3/10_EN2*
X72390000Y-66040000D03*
D11*
G04 #@! TO.P,J44,2*
G04 #@! TO.N,/ISO3/9_GND2*
X72390000Y-68580000D03*
G04 #@! TO.P,J44,3*
G04 #@! TO.N,/ISO3/12_OUTC*
X74930000Y-66040000D03*
G04 #@! TO.P,J44,4*
G04 #@! TO.N,/ISO3/11_IND*
X74930000Y-68580000D03*
G04 #@! TO.P,J44,5*
G04 #@! TO.N,/ISO3/14_OUTA*
X77470000Y-66040000D03*
G04 #@! TO.P,J44,6*
G04 #@! TO.N,/ISO3/13_OUTB*
X77470000Y-68580000D03*
G04 #@! TO.P,J44,7*
G04 #@! TO.N,/ISO3/16_VCC2*
X80010000Y-66040000D03*
G04 #@! TO.P,J44,8*
G04 #@! TO.N,/ISO3/15_GND2*
X80010000Y-68580000D03*
G04 #@! TD*
D10*
G04 #@! TO.P,J21,1*
G04 #@! TO.N,/REF_4_GND*
X95060000Y-103765000D03*
D11*
G04 #@! TO.P,J21,2*
G04 #@! TO.N,/REF/3_NC*
X95060000Y-106305000D03*
G04 #@! TO.P,J21,3*
G04 #@! TO.N,/REF_2_VIN*
X95060000Y-108845000D03*
G04 #@! TO.P,J21,4*
G04 #@! TO.N,/REF/1_NC*
X95060000Y-111385000D03*
G04 #@! TD*
G04 #@! TO.P,J5,16*
G04 #@! TO.N,/ADC2/2_AIN0+*
X72390000Y-106680000D03*
G04 #@! TO.P,J5,15*
G04 #@! TO.N,/ADC2/1_AIN0-*
X74930000Y-106680000D03*
G04 #@! TO.P,J5,14*
G04 #@! TO.N,/ADC2/4_AIN1+*
X72390000Y-104140000D03*
G04 #@! TO.P,J5,13*
G04 #@! TO.N,/ADC2/3_AIN1-*
X74930000Y-104140000D03*
G04 #@! TO.P,J5,12*
G04 #@! TO.N,/ADC2_6_AVDD1A*
X72390000Y-101600000D03*
G04 #@! TO.P,J5,11*
G04 #@! TO.N,/ADC2_42_REF2-*
X74930000Y-101600000D03*
G04 #@! TO.P,J5,10*
G04 #@! TO.N,/ADC2_8_REF1+*
X72390000Y-99060000D03*
G04 #@! TO.P,J5,9*
G04 #@! TO.N,/ADC2_42_REF2-*
X74930000Y-99060000D03*
G04 #@! TO.P,J5,8*
G04 #@! TO.N,/ADC2/10_AIN2+*
X72390000Y-96520000D03*
G04 #@! TO.P,J5,7*
G04 #@! TO.N,/ADC2/9_AIN2-*
X74930000Y-96520000D03*
G04 #@! TO.P,J5,6*
G04 #@! TO.N,/ADC2/12_AIN3+*
X72390000Y-93980000D03*
G04 #@! TO.P,J5,5*
G04 #@! TO.N,/ADC2/11_AIN3-*
X74930000Y-93980000D03*
G04 #@! TO.P,J5,4*
G04 #@! TO.N,/ADC2/14_MODE1_GPIO1*
X72390000Y-91440000D03*
G04 #@! TO.P,J5,3*
G04 #@! TO.N,/ADC2/13_MODE0_GPIO0*
X74930000Y-91440000D03*
G04 #@! TO.P,J5,2*
G04 #@! TO.N,/ADC2/16_MODE3_ALERT*
X72390000Y-88900000D03*
D10*
G04 #@! TO.P,J5,1*
G04 #@! TO.N,/ADC2/15_MODE2_GPIO2*
X74930000Y-88900000D03*
G04 #@! TD*
D11*
G04 #@! TO.P,J6,16*
G04 #@! TO.N,/ADC2_18_ALERT_CS*
X69850000Y-86360000D03*
G04 #@! TO.P,J6,15*
G04 #@! TO.N,/ADC2_17_CONVST_SAR*
X69850000Y-83820000D03*
G04 #@! TO.P,J6,14*
G04 #@! TO.N,/ADC2_20_DCLK1_SDI*
X67310000Y-86360000D03*
G04 #@! TO.P,J6,13*
G04 #@! TO.N,/ADC2_19_DCLK2_SCLK*
X67310000Y-83820000D03*
G04 #@! TO.P,J6,12*
G04 #@! TO.N,/ADC2_22_DGND*
X64770000Y-86360000D03*
G04 #@! TO.P,J6,11*
G04 #@! TO.N,/ADC2_21_DCLK0_SDO*
X64770000Y-83820000D03*
G04 #@! TO.P,J6,10*
G04 #@! TO.N,/ADC2_24_IOVDD*
X62230000Y-86360000D03*
G04 #@! TO.P,J6,9*
G04 #@! TO.N,/ADC2_23_DREGCAP*
X62230000Y-83820000D03*
G04 #@! TO.P,J6,8*
G04 #@! TO.N,/ADC2_26_DOUT2*
X59690000Y-86360000D03*
G04 #@! TO.P,J6,7*
G04 #@! TO.N,/ADC2_25_DOUT3*
X59690000Y-83820000D03*
G04 #@! TO.P,J6,6*
G04 #@! TO.N,/ADC2_28_DOUT0*
X57150000Y-86360000D03*
G04 #@! TO.P,J6,5*
G04 #@! TO.N,/ADC2_27_DOUT1*
X57150000Y-83820000D03*
G04 #@! TO.P,J6,4*
G04 #@! TO.N,/ADC2_30_DRDY*
X54610000Y-86360000D03*
G04 #@! TO.P,J6,3*
G04 #@! TO.N,/ADC2_29_DCLK*
X54610000Y-83820000D03*
G04 #@! TO.P,J6,2*
G04 #@! TO.N,/ADC2_32_XTAL2_MCLK*
X52070000Y-86360000D03*
D10*
G04 #@! TO.P,J6,1*
G04 #@! TO.N,/ADC2_31_XTAL1*
X52070000Y-83820000D03*
G04 #@! TD*
D11*
G04 #@! TO.P,J7,16*
G04 #@! TO.N,/ADC2_34_SYNC_OUT*
X49530000Y-88900000D03*
G04 #@! TO.P,J7,15*
G04 #@! TO.N,/ADC2_33_START*
X46990000Y-88900000D03*
G04 #@! TO.P,J7,14*
G04 #@! TO.N,/ADC2_36_RESET*
X49530000Y-91440000D03*
G04 #@! TO.P,J7,13*
G04 #@! TO.N,/ADC2_35_SYNC_IN*
X46990000Y-91440000D03*
G04 #@! TO.P,J7,12*
G04 #@! TO.N,/ADC2/38_AIN7-*
X49530000Y-93980000D03*
G04 #@! TO.P,J7,11*
G04 #@! TO.N,/ADC2/37_AIN7+*
X46990000Y-93980000D03*
G04 #@! TO.P,J7,10*
G04 #@! TO.N,/ADC2/40_AIN6-*
X49530000Y-96520000D03*
G04 #@! TO.P,J7,9*
G04 #@! TO.N,/ADC2/39_AIN6+*
X46990000Y-96520000D03*
G04 #@! TO.P,J7,8*
G04 #@! TO.N,/ADC2_42_REF2-*
X49530000Y-99060000D03*
G04 #@! TO.P,J7,7*
G04 #@! TO.N,/ADC2_41_REF2+*
X46990000Y-99060000D03*
G04 #@! TO.P,J7,6*
G04 #@! TO.N,/ADC2_42_REF2-*
X49530000Y-101600000D03*
G04 #@! TO.P,J7,5*
G04 #@! TO.N,/ADC2_43_AVDD1B*
X46990000Y-101600000D03*
G04 #@! TO.P,J7,4*
G04 #@! TO.N,/ADC2/46_AIN5-*
X49530000Y-104140000D03*
G04 #@! TO.P,J7,3*
G04 #@! TO.N,/ADC2/45_AIN5+*
X46990000Y-104140000D03*
G04 #@! TO.P,J7,2*
G04 #@! TO.N,/ADC2/48_AIN4-*
X49530000Y-106680000D03*
D10*
G04 #@! TO.P,J7,1*
G04 #@! TO.N,/ADC2/47_AIN4+*
X46990000Y-106680000D03*
G04 #@! TD*
D11*
G04 #@! TO.P,J8,16*
G04 #@! TO.N,/ADC2_42_REF2-*
X52070000Y-109220000D03*
G04 #@! TO.P,J8,15*
G04 #@! TO.N,/ADC2/49_REF_OUT*
X52070000Y-111760000D03*
G04 #@! TO.P,J8,14*
G04 #@! TO.N,/ADC2_52_AVDD2B*
X54610000Y-109220000D03*
G04 #@! TO.P,J8,13*
G04 #@! TO.N,/ADC2/51_AREG2CAP*
X54610000Y-111760000D03*
G04 #@! TO.P,J8,12*
G04 #@! TO.N,/ADC2_54_FORMAT1*
X57150000Y-109220000D03*
G04 #@! TO.P,J8,11*
G04 #@! TO.N,/ADC2_42_REF2-*
X57150000Y-111760000D03*
G04 #@! TO.P,J8,10*
G04 #@! TO.N,/ADC2_56_CLK_SEL*
X59690000Y-109220000D03*
G04 #@! TO.P,J8,9*
G04 #@! TO.N,/ADC2_55_FORMAT0*
X59690000Y-111760000D03*
G04 #@! TO.P,J8,8*
G04 #@! TO.N,/ADC2_58_AVDD2A*
X62230000Y-109220000D03*
G04 #@! TO.P,J8,7*
G04 #@! TO.N,/ADC2/57_VCM*
X62230000Y-111760000D03*
G04 #@! TO.P,J8,6*
G04 #@! TO.N,/ADC2_42_REF2-*
X64770000Y-109220000D03*
G04 #@! TO.P,J8,5*
G04 #@! TO.N,/ADC2/59_AREG1CAP*
X64770000Y-111760000D03*
G04 #@! TO.P,J8,4*
G04 #@! TO.N,/ADC2_62_AVDD4*
X67310000Y-109220000D03*
G04 #@! TO.P,J8,3*
G04 #@! TO.N,/ADC2_42_REF2-*
X67310000Y-111760000D03*
G04 #@! TO.P,J8,2*
G04 #@! TO.N,/ADC2/64_AUXAIN-*
X69850000Y-109220000D03*
D10*
G04 #@! TO.P,J8,1*
G04 #@! TO.N,/ADC2/63_AUXAIN+*
X69850000Y-111760000D03*
G04 #@! TD*
D11*
G04 #@! TO.P,J15,16*
G04 #@! TO.N,/ADC4_34_SYNC_OUT*
X88900000Y-72390000D03*
G04 #@! TO.P,J15,15*
G04 #@! TO.N,/ADC4_33_START*
X88900000Y-74930000D03*
G04 #@! TO.P,J15,14*
G04 #@! TO.N,/ADC4_36_RESET*
X91440000Y-72390000D03*
G04 #@! TO.P,J15,13*
G04 #@! TO.N,/ADC4_35_SYNC_IN*
X91440000Y-74930000D03*
G04 #@! TO.P,J15,12*
G04 #@! TO.N,/ADC4/38_AIN7-*
X93980000Y-72390000D03*
G04 #@! TO.P,J15,11*
G04 #@! TO.N,/ADC4/37_AIN7+*
X93980000Y-74930000D03*
G04 #@! TO.P,J15,10*
G04 #@! TO.N,/ADC4/40_AIN6-*
X96520000Y-72390000D03*
G04 #@! TO.P,J15,9*
G04 #@! TO.N,/ADC4/39_AIN6+*
X96520000Y-74930000D03*
G04 #@! TO.P,J15,8*
G04 #@! TO.N,/ADC4_42_REF2-*
X99060000Y-72390000D03*
G04 #@! TO.P,J15,7*
G04 #@! TO.N,/ADC4_41_REF2+*
X99060000Y-74930000D03*
G04 #@! TO.P,J15,6*
G04 #@! TO.N,/ADC4_42_REF2-*
X101600000Y-72390000D03*
G04 #@! TO.P,J15,5*
G04 #@! TO.N,/ADC4_43_AVDD1B*
X101600000Y-74930000D03*
G04 #@! TO.P,J15,4*
G04 #@! TO.N,/ADC4/46_AIN5-*
X104140000Y-72390000D03*
G04 #@! TO.P,J15,3*
G04 #@! TO.N,/ADC4/45_AIN5+*
X104140000Y-74930000D03*
G04 #@! TO.P,J15,2*
G04 #@! TO.N,/ADC4/48_AIN4-*
X106680000Y-72390000D03*
D10*
G04 #@! TO.P,J15,1*
G04 #@! TO.N,/ADC4/47_AIN4+*
X106680000Y-74930000D03*
G04 #@! TD*
D11*
G04 #@! TO.P,J14,16*
G04 #@! TO.N,/ADC4_18_ALERT_CS*
X86360000Y-52070000D03*
G04 #@! TO.P,J14,15*
G04 #@! TO.N,/ADC4_17_CONVST_SAR*
X83820000Y-52070000D03*
G04 #@! TO.P,J14,14*
G04 #@! TO.N,/ADC4_20_DCLK1_SDI*
X86360000Y-54610000D03*
G04 #@! TO.P,J14,13*
G04 #@! TO.N,/ADC4_19_DCLK2_SCLK*
X83820000Y-54610000D03*
G04 #@! TO.P,J14,12*
G04 #@! TO.N,/ADC4_22_DGND*
X86360000Y-57150000D03*
G04 #@! TO.P,J14,11*
G04 #@! TO.N,/ADC4_21_DCLK0_SDO*
X83820000Y-57150000D03*
G04 #@! TO.P,J14,10*
G04 #@! TO.N,/ADC4_24_IOVDD*
X86360000Y-59690000D03*
G04 #@! TO.P,J14,9*
G04 #@! TO.N,/ADC4_23_DREGCAP*
X83820000Y-59690000D03*
G04 #@! TO.P,J14,8*
G04 #@! TO.N,/ADC4_26_DOUT2*
X86360000Y-62230000D03*
G04 #@! TO.P,J14,7*
G04 #@! TO.N,/ADC4_25_DOUT3*
X83820000Y-62230000D03*
G04 #@! TO.P,J14,6*
G04 #@! TO.N,/ADC4_28_DOUT0*
X86360000Y-64770000D03*
G04 #@! TO.P,J14,5*
G04 #@! TO.N,/ADC4_27_DOUT1*
X83820000Y-64770000D03*
G04 #@! TO.P,J14,4*
G04 #@! TO.N,/ADC4_30_DRDY*
X86360000Y-67310000D03*
G04 #@! TO.P,J14,3*
G04 #@! TO.N,/ADC4_29_DCLK*
X83820000Y-67310000D03*
G04 #@! TO.P,J14,2*
G04 #@! TO.N,/ADC4_32_XTAL2_MCLK*
X86360000Y-69850000D03*
D10*
G04 #@! TO.P,J14,1*
G04 #@! TO.N,/ADC4_31_XTAL1*
X83820000Y-69850000D03*
G04 #@! TD*
D11*
G04 #@! TO.P,J13,16*
G04 #@! TO.N,/ADC4/2_AIN0+*
X106680000Y-49530000D03*
G04 #@! TO.P,J13,15*
G04 #@! TO.N,/ADC4/1_AIN0-*
X106680000Y-46990000D03*
G04 #@! TO.P,J13,14*
G04 #@! TO.N,/ADC4/4_AIN1+*
X104140000Y-49530000D03*
G04 #@! TO.P,J13,13*
G04 #@! TO.N,/ADC4/3_AIN1-*
X104140000Y-46990000D03*
G04 #@! TO.P,J13,12*
G04 #@! TO.N,/ADC4_6_AVDD1A*
X101600000Y-49530000D03*
G04 #@! TO.P,J13,11*
G04 #@! TO.N,/ADC4_42_REF2-*
X101600000Y-46990000D03*
G04 #@! TO.P,J13,10*
G04 #@! TO.N,/ADC4_8_REF1+*
X99060000Y-49530000D03*
G04 #@! TO.P,J13,9*
G04 #@! TO.N,/ADC4_42_REF2-*
X99060000Y-46990000D03*
G04 #@! TO.P,J13,8*
G04 #@! TO.N,/ADC4/10_AIN2+*
X96520000Y-49530000D03*
G04 #@! TO.P,J13,7*
G04 #@! TO.N,/ADC4/9_AIN2-*
X96520000Y-46990000D03*
G04 #@! TO.P,J13,6*
G04 #@! TO.N,/ADC4/12_AIN3+*
X93980000Y-49530000D03*
G04 #@! TO.P,J13,5*
G04 #@! TO.N,/ADC4/11_AIN3-*
X93980000Y-46990000D03*
G04 #@! TO.P,J13,4*
G04 #@! TO.N,/ADC4/14_MODE1_GPIO1*
X91440000Y-49530000D03*
G04 #@! TO.P,J13,3*
G04 #@! TO.N,/ADC4/13_MODE0_GPIO0*
X91440000Y-46990000D03*
G04 #@! TO.P,J13,2*
G04 #@! TO.N,/ADC4/16_MODE3_ALERT*
X88900000Y-49530000D03*
D10*
G04 #@! TO.P,J13,1*
G04 #@! TO.N,/ADC4/15_MODE2_GPIO2*
X88900000Y-46990000D03*
G04 #@! TD*
D11*
G04 #@! TO.P,J11,16*
G04 #@! TO.N,/ADC3_34_SYNC_OUT*
X88883494Y-40640000D03*
G04 #@! TO.P,J11,15*
G04 #@! TO.N,/ADC3_33_START*
X88883494Y-43180000D03*
G04 #@! TO.P,J11,14*
G04 #@! TO.N,/ADC3_36_RESET*
X91423494Y-40640000D03*
G04 #@! TO.P,J11,13*
G04 #@! TO.N,/ADC3_35_SYNC_IN*
X91423494Y-43180000D03*
G04 #@! TO.P,J11,12*
G04 #@! TO.N,/ADC3/38_AIN7-*
X93963494Y-40640000D03*
G04 #@! TO.P,J11,11*
G04 #@! TO.N,/ADC3/37_AIN7+*
X93963494Y-43180000D03*
G04 #@! TO.P,J11,10*
G04 #@! TO.N,/ADC3/40_AIN6-*
X96503494Y-40640000D03*
G04 #@! TO.P,J11,9*
G04 #@! TO.N,/ADC3/39_AIN6+*
X96503494Y-43180000D03*
G04 #@! TO.P,J11,8*
G04 #@! TO.N,/ADC3_42_REF2-*
X99043494Y-40640000D03*
G04 #@! TO.P,J11,7*
G04 #@! TO.N,/ADC3_41_REF2+*
X99043494Y-43180000D03*
G04 #@! TO.P,J11,6*
G04 #@! TO.N,/ADC3_42_REF2-*
X101583494Y-40640000D03*
G04 #@! TO.P,J11,5*
G04 #@! TO.N,/ADC3_43_AVDD1B*
X101583494Y-43180000D03*
G04 #@! TO.P,J11,4*
G04 #@! TO.N,/ADC3/46_AIN5-*
X104123494Y-40640000D03*
G04 #@! TO.P,J11,3*
G04 #@! TO.N,/ADC3/45_AIN5+*
X104123494Y-43180000D03*
G04 #@! TO.P,J11,2*
G04 #@! TO.N,/ADC3/48_AIN4-*
X106663494Y-40640000D03*
D10*
G04 #@! TO.P,J11,1*
G04 #@! TO.N,/ADC3/47_AIN4+*
X106663494Y-43180000D03*
G04 #@! TD*
D11*
G04 #@! TO.P,J9,16*
G04 #@! TO.N,/ADC3/2_AIN0+*
X106680000Y-17780000D03*
G04 #@! TO.P,J9,15*
G04 #@! TO.N,/ADC3/1_AIN0-*
X106680000Y-15240000D03*
G04 #@! TO.P,J9,14*
G04 #@! TO.N,/ADC3/4_AIN1+*
X104140000Y-17780000D03*
G04 #@! TO.P,J9,13*
G04 #@! TO.N,/ADC3/3_AIN1-*
X104140000Y-15240000D03*
G04 #@! TO.P,J9,12*
G04 #@! TO.N,/ADC3_6_AVDD1A*
X101600000Y-17780000D03*
G04 #@! TO.P,J9,11*
G04 #@! TO.N,/ADC3_42_REF2-*
X101600000Y-15240000D03*
G04 #@! TO.P,J9,10*
G04 #@! TO.N,/ADC3_8_REF1+*
X99060000Y-17780000D03*
G04 #@! TO.P,J9,9*
G04 #@! TO.N,/ADC3_42_REF2-*
X99060000Y-15240000D03*
G04 #@! TO.P,J9,8*
G04 #@! TO.N,/ADC3/10_AIN2+*
X96520000Y-17780000D03*
G04 #@! TO.P,J9,7*
G04 #@! TO.N,/ADC3/9_AIN2-*
X96520000Y-15240000D03*
G04 #@! TO.P,J9,6*
G04 #@! TO.N,/ADC3/12_AIN3+*
X93980000Y-17780000D03*
G04 #@! TO.P,J9,5*
G04 #@! TO.N,/ADC3/11_AIN3-*
X93980000Y-15240000D03*
G04 #@! TO.P,J9,4*
G04 #@! TO.N,/ADC3/14_MODE1_GPIO1*
X91440000Y-17780000D03*
G04 #@! TO.P,J9,3*
G04 #@! TO.N,/ADC3/13_MODE0_GPIO0*
X91440000Y-15240000D03*
G04 #@! TO.P,J9,2*
G04 #@! TO.N,/ADC3/16_MODE3_ALERT*
X88900000Y-17780000D03*
D10*
G04 #@! TO.P,J9,1*
G04 #@! TO.N,/ADC3/15_MODE2_GPIO2*
X88900000Y-15240000D03*
G04 #@! TD*
D11*
G04 #@! TO.P,J10,16*
G04 #@! TO.N,/ADC3_18_ALERT_CS*
X86360000Y-20320000D03*
G04 #@! TO.P,J10,15*
G04 #@! TO.N,/ADC3_17_CONVST_SAR*
X83820000Y-20320000D03*
G04 #@! TO.P,J10,14*
G04 #@! TO.N,/ADC3_20_DCLK1_SDI*
X86360000Y-22860000D03*
G04 #@! TO.P,J10,13*
G04 #@! TO.N,/ADC3_19_DCLK2_SCLK*
X83820000Y-22860000D03*
G04 #@! TO.P,J10,12*
G04 #@! TO.N,/ADC3_22_DGND*
X86360000Y-25400000D03*
G04 #@! TO.P,J10,11*
G04 #@! TO.N,/ADC3_21_DCLK0_SDO*
X83820000Y-25400000D03*
G04 #@! TO.P,J10,10*
G04 #@! TO.N,/ADC3_24_IOVDD*
X86360000Y-27940000D03*
G04 #@! TO.P,J10,9*
G04 #@! TO.N,/ADC3_23_DREGCAP*
X83820000Y-27940000D03*
G04 #@! TO.P,J10,8*
G04 #@! TO.N,/ADC3_26_DOUT2*
X86360000Y-30480000D03*
G04 #@! TO.P,J10,7*
G04 #@! TO.N,/ADC3_25_DOUT3*
X83820000Y-30480000D03*
G04 #@! TO.P,J10,6*
G04 #@! TO.N,/ADC3_28_DOUT0*
X86360000Y-33020000D03*
G04 #@! TO.P,J10,5*
G04 #@! TO.N,/ADC3_27_DOUT1*
X83820000Y-33020000D03*
G04 #@! TO.P,J10,4*
G04 #@! TO.N,/ADC3_30_DRDY*
X86360000Y-35560000D03*
G04 #@! TO.P,J10,3*
G04 #@! TO.N,/ADC3_29_DCLK*
X83820000Y-35560000D03*
G04 #@! TO.P,J10,2*
G04 #@! TO.N,/ADC3_32_XTAL2_MCLK*
X86360000Y-38100000D03*
D10*
G04 #@! TO.P,J10,1*
G04 #@! TO.N,/ADC3_31_XTAL1*
X83820000Y-38100000D03*
G04 #@! TD*
D11*
G04 #@! TO.P,J12,16*
G04 #@! TO.N,/ADC3_42_REF2-*
X109220000Y-38100000D03*
G04 #@! TO.P,J12,15*
G04 #@! TO.N,/ADC3/49_REF_OUT*
X111760000Y-38100000D03*
G04 #@! TO.P,J12,14*
G04 #@! TO.N,/ADC3_52_AVDD2B*
X109220000Y-35560000D03*
G04 #@! TO.P,J12,13*
G04 #@! TO.N,/ADC3/51_AREG2CAP*
X111760000Y-35560000D03*
G04 #@! TO.P,J12,12*
G04 #@! TO.N,/ADC3_54_FORMAT1*
X109220000Y-33020000D03*
G04 #@! TO.P,J12,11*
G04 #@! TO.N,/ADC3_42_REF2-*
X111760000Y-33020000D03*
G04 #@! TO.P,J12,10*
G04 #@! TO.N,/ADC3_56_CLK_SEL*
X109220000Y-30480000D03*
G04 #@! TO.P,J12,9*
G04 #@! TO.N,/ADC3_55_FORMAT0*
X111760000Y-30480000D03*
G04 #@! TO.P,J12,8*
G04 #@! TO.N,/ADC3_58_AVDD2A*
X109220000Y-27940000D03*
G04 #@! TO.P,J12,7*
G04 #@! TO.N,/ADC3/57_VCM*
X111760000Y-27940000D03*
G04 #@! TO.P,J12,6*
G04 #@! TO.N,/ADC3_42_REF2-*
X109220000Y-25400000D03*
G04 #@! TO.P,J12,5*
G04 #@! TO.N,/ADC3/59_AREG1CAP*
X111760000Y-25400000D03*
G04 #@! TO.P,J12,4*
G04 #@! TO.N,/ADC3_62_AVDD4*
X109220000Y-22860000D03*
G04 #@! TO.P,J12,3*
G04 #@! TO.N,/ADC3_42_REF2-*
X111760000Y-22860000D03*
G04 #@! TO.P,J12,2*
G04 #@! TO.N,/ADC3/64_AUXAIN-*
X109220000Y-20320000D03*
D10*
G04 #@! TO.P,J12,1*
G04 #@! TO.N,/ADC3/63_AUXAIN+*
X111760000Y-20320000D03*
G04 #@! TD*
D11*
G04 #@! TO.P,J1,16*
G04 #@! TO.N,/ADC1/2_AIN0+*
X40640000Y-106680000D03*
G04 #@! TO.P,J1,15*
G04 #@! TO.N,/ADC1/1_AIN0-*
X43180000Y-106680000D03*
G04 #@! TO.P,J1,14*
G04 #@! TO.N,/ADC1/4_AIN1+*
X40640000Y-104140000D03*
G04 #@! TO.P,J1,13*
G04 #@! TO.N,/ADC1/3_AIN1-*
X43180000Y-104140000D03*
G04 #@! TO.P,J1,12*
G04 #@! TO.N,/ADC1_6_AVDD1A*
X40640000Y-101600000D03*
G04 #@! TO.P,J1,11*
G04 #@! TO.N,/ADC1_42_REF2-*
X43180000Y-101600000D03*
G04 #@! TO.P,J1,10*
G04 #@! TO.N,/ADC1_8_REF1+*
X40640000Y-99060000D03*
G04 #@! TO.P,J1,9*
G04 #@! TO.N,/ADC1_42_REF2-*
X43180000Y-99060000D03*
G04 #@! TO.P,J1,8*
G04 #@! TO.N,/ADC1/10_AIN2+*
X40640000Y-96520000D03*
G04 #@! TO.P,J1,7*
G04 #@! TO.N,/ADC1/9_AIN2-*
X43180000Y-96520000D03*
G04 #@! TO.P,J1,6*
G04 #@! TO.N,/ADC1/12_AIN3+*
X40640000Y-93980000D03*
G04 #@! TO.P,J1,5*
G04 #@! TO.N,/ADC1/11_AIN3-*
X43180000Y-93980000D03*
G04 #@! TO.P,J1,4*
G04 #@! TO.N,/ADC1/14_MODE1_GPIO1*
X40640000Y-91440000D03*
G04 #@! TO.P,J1,3*
G04 #@! TO.N,/ADC1/13_MODE0_GPIO0*
X43180000Y-91440000D03*
G04 #@! TO.P,J1,2*
G04 #@! TO.N,/ADC1/16_MODE3_ALERT*
X40640000Y-88900000D03*
D10*
G04 #@! TO.P,J1,1*
G04 #@! TO.N,/ADC1/15_MODE2_GPIO2*
X43180000Y-88900000D03*
G04 #@! TD*
D11*
G04 #@! TO.P,J2,16*
G04 #@! TO.N,/ADC1_18_ALERT_CS*
X38100000Y-86360000D03*
G04 #@! TO.P,J2,15*
G04 #@! TO.N,/ADC1_17_CONVST_SAR*
X38100000Y-83820000D03*
G04 #@! TO.P,J2,14*
G04 #@! TO.N,/ADC1_20_DCLK1_SDI*
X35560000Y-86360000D03*
G04 #@! TO.P,J2,13*
G04 #@! TO.N,/ADC1_19_DCLK2_SCLK*
X35560000Y-83820000D03*
G04 #@! TO.P,J2,12*
G04 #@! TO.N,/ADC1_22_DGND*
X33020000Y-86360000D03*
G04 #@! TO.P,J2,11*
G04 #@! TO.N,/ADC1_21_DCLK0_SDO*
X33020000Y-83820000D03*
G04 #@! TO.P,J2,10*
G04 #@! TO.N,/ADC1_24_IOVDD*
X30480000Y-86360000D03*
G04 #@! TO.P,J2,9*
G04 #@! TO.N,/ADC1_23_DREGCAP*
X30480000Y-83820000D03*
G04 #@! TO.P,J2,8*
G04 #@! TO.N,/ADC1_26_DOUT2*
X27940000Y-86360000D03*
G04 #@! TO.P,J2,7*
G04 #@! TO.N,/ADC1_25_DOUT3*
X27940000Y-83820000D03*
G04 #@! TO.P,J2,6*
G04 #@! TO.N,/ADC1_28_DOUT0*
X25400000Y-86360000D03*
G04 #@! TO.P,J2,5*
G04 #@! TO.N,/ADC1_27_DOUT1*
X25400000Y-83820000D03*
G04 #@! TO.P,J2,4*
G04 #@! TO.N,/ADC1_30_DRDY*
X22860000Y-86360000D03*
G04 #@! TO.P,J2,3*
G04 #@! TO.N,/ADC1_29_DCLK*
X22860000Y-83820000D03*
G04 #@! TO.P,J2,2*
G04 #@! TO.N,/ADC1_32_XTAL2_MCLK*
X20320000Y-86360000D03*
D10*
G04 #@! TO.P,J2,1*
G04 #@! TO.N,/ADC1_31_XTAL1*
X20320000Y-83820000D03*
G04 #@! TD*
D11*
G04 #@! TO.P,J3,16*
G04 #@! TO.N,/ADC1_34_SYNC_OUT*
X17780000Y-88899999D03*
G04 #@! TO.P,J3,15*
G04 #@! TO.N,/ADC1_33_START*
X15240000Y-88899999D03*
G04 #@! TO.P,J3,14*
G04 #@! TO.N,/ADC1_36_RESET*
X17780000Y-91439999D03*
G04 #@! TO.P,J3,13*
G04 #@! TO.N,/ADC1_35_SYNC_IN*
X15240000Y-91439999D03*
G04 #@! TO.P,J3,12*
G04 #@! TO.N,/ADC1/38_AIN7-*
X17780000Y-93979999D03*
G04 #@! TO.P,J3,11*
G04 #@! TO.N,/ADC1/37_AIN7+*
X15240000Y-93979999D03*
G04 #@! TO.P,J3,10*
G04 #@! TO.N,/ADC1/40_AIN6-*
X17780000Y-96519999D03*
G04 #@! TO.P,J3,9*
G04 #@! TO.N,/ADC1/39_AIN6+*
X15240000Y-96519999D03*
G04 #@! TO.P,J3,8*
G04 #@! TO.N,/ADC1_42_REF2-*
X17780000Y-99059999D03*
G04 #@! TO.P,J3,7*
G04 #@! TO.N,/ADC1_41_REF2+*
X15240000Y-99059999D03*
G04 #@! TO.P,J3,6*
G04 #@! TO.N,/ADC1_42_REF2-*
X17780000Y-101599999D03*
G04 #@! TO.P,J3,5*
G04 #@! TO.N,/ADC1_43_AVDD1B*
X15240000Y-101599999D03*
G04 #@! TO.P,J3,4*
G04 #@! TO.N,/ADC1/46_AIN5-*
X17780000Y-104139999D03*
G04 #@! TO.P,J3,3*
G04 #@! TO.N,/ADC1/45_AIN5+*
X15240000Y-104139999D03*
G04 #@! TO.P,J3,2*
G04 #@! TO.N,/ADC1/48_AIN4-*
X17780000Y-106679999D03*
D10*
G04 #@! TO.P,J3,1*
G04 #@! TO.N,/ADC1/47_AIN4+*
X15240000Y-106679999D03*
G04 #@! TD*
D11*
G04 #@! TO.P,J4,16*
G04 #@! TO.N,/ADC1_42_REF2-*
X20320000Y-109220000D03*
G04 #@! TO.P,J4,15*
G04 #@! TO.N,/ADC1/49_REF_OUT*
X20320000Y-111760000D03*
G04 #@! TO.P,J4,14*
G04 #@! TO.N,/ADC1_52_AVDD2B*
X22860000Y-109220000D03*
G04 #@! TO.P,J4,13*
G04 #@! TO.N,/ADC1/51_AREG2CAP*
X22860000Y-111760000D03*
G04 #@! TO.P,J4,12*
G04 #@! TO.N,/ADC1_54_FORMAT1*
X25400000Y-109220000D03*
G04 #@! TO.P,J4,11*
G04 #@! TO.N,/ADC1_42_REF2-*
X25400000Y-111760000D03*
G04 #@! TO.P,J4,10*
G04 #@! TO.N,/ADC1_56_CLK_SEL*
X27940000Y-109220000D03*
G04 #@! TO.P,J4,9*
G04 #@! TO.N,/ADC1_55_FORMAT0*
X27940000Y-111760000D03*
G04 #@! TO.P,J4,8*
G04 #@! TO.N,/ADC1_58_AVDD2A*
X30480000Y-109220000D03*
G04 #@! TO.P,J4,7*
G04 #@! TO.N,/ADC1/57_VCM*
X30480000Y-111760000D03*
G04 #@! TO.P,J4,6*
G04 #@! TO.N,/ADC1_42_REF2-*
X33020000Y-109220000D03*
G04 #@! TO.P,J4,5*
G04 #@! TO.N,/ADC1/59_AREG1CAP*
X33020000Y-111760000D03*
G04 #@! TO.P,J4,4*
G04 #@! TO.N,/ADC1_62_AVDD4*
X35560000Y-109220000D03*
G04 #@! TO.P,J4,3*
G04 #@! TO.N,/ADC1_42_REF2-*
X35560000Y-111760000D03*
G04 #@! TO.P,J4,2*
G04 #@! TO.N,/ADC1/64_AUXAIN-*
X38100000Y-109220000D03*
D10*
G04 #@! TO.P,J4,1*
G04 #@! TO.N,/ADC1/63_AUXAIN+*
X38100000Y-111760000D03*
G04 #@! TD*
D15*
G04 #@! TO.P,REF\002A\002A,1*
G04 #@! TO.N,N/C*
X48260000Y-110490000D03*
G04 #@! TD*
G04 #@! TO.P,REF\002A\002A,1*
G04 #@! TO.N,N/C*
X73660000Y-110490000D03*
G04 #@! TD*
G04 #@! TO.P,REF\002A\002A,1*
G04 #@! TO.N,N/C*
X73660000Y-85090000D03*
G04 #@! TD*
G04 #@! TO.P,REF\002A\002A,1*
G04 #@! TO.N,N/C*
X48260000Y-85090000D03*
G04 #@! TD*
G04 #@! TO.P,REF\002A\002A,1*
G04 #@! TO.N,N/C*
X85090000Y-48260000D03*
G04 #@! TD*
G04 #@! TO.P,REF\002A\002A,1*
G04 #@! TO.N,N/C*
X110490000Y-48260000D03*
G04 #@! TD*
G04 #@! TO.P,REF\002A\002A,1*
G04 #@! TO.N,N/C*
X110490000Y-73660000D03*
G04 #@! TD*
G04 #@! TO.P,REF\002A\002A,1*
G04 #@! TO.N,N/C*
X85090000Y-73660000D03*
G04 #@! TD*
G04 #@! TO.P,REF\002A\002A,1*
G04 #@! TO.N,N/C*
X85073493Y-41910000D03*
G04 #@! TD*
G04 #@! TO.P,REF\002A\002A,1*
G04 #@! TO.N,N/C*
X85073493Y-16510000D03*
G04 #@! TD*
G04 #@! TO.P,REF\002A\002A,1*
G04 #@! TO.N,N/C*
X110473493Y-16510000D03*
G04 #@! TD*
G04 #@! TO.P,REF\002A\002A,1*
G04 #@! TO.N,N/C*
X110473493Y-41910000D03*
G04 #@! TD*
G04 #@! TO.P,REF\002A\002A,1*
G04 #@! TO.N,N/C*
X16510000Y-110490000D03*
G04 #@! TD*
G04 #@! TO.P,REF\002A\002A,1*
G04 #@! TO.N,N/C*
X41910000Y-110490000D03*
G04 #@! TD*
G04 #@! TO.P,REF\002A\002A,1*
G04 #@! TO.N,N/C*
X41910000Y-85090000D03*
G04 #@! TD*
G04 #@! TO.P,REF\002A\002A,1*
G04 #@! TO.N,N/C*
X16510000Y-85090000D03*
G04 #@! TD*
G04 #@! TO.P,REF\002A\002A,1*
G04 #@! TO.N,N/C*
X67310000Y-16510000D03*
G04 #@! TD*
G04 #@! TO.P,REF\002A\002A,1*
G04 #@! TO.N,N/C*
X16510000Y-16510000D03*
G04 #@! TD*
G04 #@! TO.P,REF\002A\002A,1*
G04 #@! TO.N,N/C*
X16510000Y-67310000D03*
G04 #@! TD*
G04 #@! TO.P,REF\002A\002A,1*
G04 #@! TO.N,N/C*
X67310000Y-67310000D03*
G04 #@! TD*
D10*
G04 #@! TO.P,J35,1*
G04 #@! TO.N,/POWER/1_GND*
X77470001Y-15240000D03*
D11*
G04 #@! TO.P,J35,2*
G04 #@! TO.N,/POWER/2_VCC*
X74930001Y-15240000D03*
G04 #@! TD*
G04 #@! TO.P,J36,2*
G04 #@! TO.N,/POWER_4_OUT1B2A*
X74930000Y-42545000D03*
D10*
G04 #@! TO.P,J36,1*
G04 #@! TO.N,/POWER_3_OUT1A2B_DIODES*
X77470000Y-42545000D03*
G04 #@! TD*
G04 #@! TO.P,J25,1*
G04 #@! TO.N,/MCU/35_PA1*
X15240000Y-63500000D03*
D11*
G04 #@! TO.P,J25,2*
G04 #@! TO.N,/MCU/36_PA2*
X17780000Y-63500000D03*
G04 #@! TO.P,J25,3*
G04 #@! TO.N,/MCU_33_VDDA*
X15240000Y-60960000D03*
G04 #@! TO.P,J25,4*
G04 #@! TO.N,/MCU/34_PA0*
X17780000Y-60960000D03*
G04 #@! TO.P,J25,5*
G04 #@! TO.N,/MCU_107_VSS*
X15240000Y-58420000D03*
G04 #@! TO.P,J25,6*
G04 #@! TO.N,/MCU/32_VREF+*
X17780000Y-58420000D03*
G04 #@! TO.P,J25,7*
G04 #@! TO.N,/MCU/29_PC3*
X15240000Y-55880000D03*
G04 #@! TO.P,J25,8*
G04 #@! TO.N,/MCU_30_VDD*
X17780000Y-55880000D03*
G04 #@! TO.P,J25,9*
G04 #@! TO.N,/MCU/27_PC1*
X15240000Y-53340000D03*
G04 #@! TO.P,J25,10*
G04 #@! TO.N,/MCU/28_PC2*
X17780000Y-53340000D03*
G04 #@! TO.P,J25,11*
G04 #@! TO.N,/MCU/25_NRST*
X15240000Y-50800000D03*
G04 #@! TO.P,J25,12*
G04 #@! TO.N,/MCU/26_PC0*
X17780000Y-50800000D03*
G04 #@! TO.P,J25,13*
G04 #@! TO.N,/MCU/23_PH0*
X15240000Y-48260000D03*
G04 #@! TO.P,J25,14*
G04 #@! TO.N,/MCU/24_PH1*
X17780000Y-48260000D03*
G04 #@! TO.P,J25,15*
G04 #@! TO.N,/MCU/21_PF9*
X15240000Y-45720000D03*
G04 #@! TO.P,J25,16*
G04 #@! TO.N,/MCU/22_PF10*
X17780000Y-45720000D03*
G04 #@! TO.P,J25,17*
G04 #@! TO.N,/MCU/19_PF7*
X15240000Y-43180000D03*
G04 #@! TO.P,J25,18*
G04 #@! TO.N,/MCU/20_PF8*
X17780000Y-43180000D03*
G04 #@! TO.P,J25,19*
G04 #@! TO.N,/MCU_17_VDD*
X15240000Y-40640000D03*
G04 #@! TO.P,J25,20*
G04 #@! TO.N,/MCU/18_PF6*
X17780000Y-40640000D03*
G04 #@! TO.P,J25,21*
G04 #@! TO.N,/MCU/15_PF5*
X15240000Y-38100000D03*
G04 #@! TO.P,J25,22*
G04 #@! TO.N,/MCU_107_VSS*
X17780000Y-38100000D03*
G04 #@! TO.P,J25,23*
G04 #@! TO.N,/MCU/13_PF3*
X15240000Y-35560000D03*
G04 #@! TO.P,J25,24*
G04 #@! TO.N,/MCU/14_PF4*
X17780000Y-35560000D03*
G04 #@! TO.P,J25,25*
G04 #@! TO.N,/MCU/11_PF1*
X15240000Y-33020000D03*
G04 #@! TO.P,J25,26*
G04 #@! TO.N,/MCU/12_PF2*
X17780000Y-33020000D03*
G04 #@! TO.P,J25,27*
G04 #@! TO.N,/MCU/9_PC15*
X15240000Y-30480000D03*
G04 #@! TO.P,J25,28*
G04 #@! TO.N,/MCU/10_PF0*
X17780000Y-30480000D03*
G04 #@! TO.P,J25,29*
G04 #@! TO.N,/MCU/7_PC13*
X15240000Y-27940000D03*
G04 #@! TO.P,J25,30*
G04 #@! TO.N,/MCU/8_PC14*
X17780000Y-27940000D03*
G04 #@! TO.P,J25,31*
G04 #@! TO.N,/MCU/5_PE6*
X15240000Y-25400000D03*
G04 #@! TO.P,J25,32*
G04 #@! TO.N,/MCU/6_VBAT*
X17780000Y-25400000D03*
G04 #@! TO.P,J25,33*
G04 #@! TO.N,/MCU/3_PE4*
X15240000Y-22860000D03*
G04 #@! TO.P,J25,34*
G04 #@! TO.N,/MCU/4_PE5*
X17780000Y-22860000D03*
G04 #@! TO.P,J25,35*
G04 #@! TO.N,/MCU/1_PE2*
X15240000Y-20320000D03*
G04 #@! TO.P,J25,36*
G04 #@! TO.N,/MCU/2_PE3*
X17780000Y-20320000D03*
G04 #@! TD*
G04 #@! TO.P,J26,36*
G04 #@! TO.N,/MCU_107_VSS*
X20320000Y-66040000D03*
G04 #@! TO.P,J26,35*
G04 #@! TO.N,/MCU/37_PA3*
X20320000Y-68580000D03*
G04 #@! TO.P,J26,34*
G04 #@! TO.N,/MCU/40_PA4*
X22860000Y-66040000D03*
G04 #@! TO.P,J26,33*
G04 #@! TO.N,/MCU_39_VDD*
X22860000Y-68580000D03*
G04 #@! TO.P,J26,32*
G04 #@! TO.N,/MCU/42_PA6*
X25400000Y-66040000D03*
G04 #@! TO.P,J26,31*
G04 #@! TO.N,/MCU/41_PA5*
X25400000Y-68580000D03*
G04 #@! TO.P,J26,30*
G04 #@! TO.N,/MCU/44_PC4*
X27940000Y-66040000D03*
G04 #@! TO.P,J26,29*
G04 #@! TO.N,/MCU/43_PA7*
X27940000Y-68580000D03*
G04 #@! TO.P,J26,28*
G04 #@! TO.N,/MCU/46_PB0*
X30480000Y-66040000D03*
G04 #@! TO.P,J26,27*
G04 #@! TO.N,/MCU/45_PC5*
X30480000Y-68580000D03*
G04 #@! TO.P,J26,26*
G04 #@! TO.N,/MCU/48_PB2*
X33020000Y-66040000D03*
G04 #@! TO.P,J26,25*
G04 #@! TO.N,/MCU/47_PB1*
X33020000Y-68580000D03*
G04 #@! TO.P,J26,24*
G04 #@! TO.N,/MCU/50_PF12*
X35560000Y-66040000D03*
G04 #@! TO.P,J26,23*
G04 #@! TO.N,/MCU/49_PF11*
X35560000Y-68580000D03*
G04 #@! TO.P,J26,22*
G04 #@! TO.N,/MCU_52_VDD*
X38100000Y-66040000D03*
G04 #@! TO.P,J26,21*
G04 #@! TO.N,/MCU_107_VSS*
X38100000Y-68580000D03*
G04 #@! TO.P,J26,20*
G04 #@! TO.N,/MCU/54_PF14*
X40640000Y-66040000D03*
G04 #@! TO.P,J26,19*
G04 #@! TO.N,/MCU/53_PF13*
X40640000Y-68580000D03*
G04 #@! TO.P,J26,18*
G04 #@! TO.N,/MCU/56_PG0*
X43180000Y-66040000D03*
G04 #@! TO.P,J26,17*
G04 #@! TO.N,/MCU/55_PF15*
X43180000Y-68580000D03*
G04 #@! TO.P,J26,16*
G04 #@! TO.N,/MCU/58_PE7*
X45720000Y-66040000D03*
G04 #@! TO.P,J26,15*
G04 #@! TO.N,/MCU/57_PG1*
X45720000Y-68580000D03*
G04 #@! TO.P,J26,14*
G04 #@! TO.N,/MCU/60_PE9*
X48260000Y-66040000D03*
G04 #@! TO.P,J26,13*
G04 #@! TO.N,/MCU/59_PE8*
X48260000Y-68580000D03*
G04 #@! TO.P,J26,12*
G04 #@! TO.N,/MCU_62_VDD*
X50800000Y-66040000D03*
G04 #@! TO.P,J26,11*
G04 #@! TO.N,/MCU_107_VSS*
X50800000Y-68580000D03*
G04 #@! TO.P,J26,10*
G04 #@! TO.N,/MCU/64_PE11*
X53340000Y-66040000D03*
G04 #@! TO.P,J26,9*
G04 #@! TO.N,/MCU/63_PE10*
X53340000Y-68580000D03*
G04 #@! TO.P,J26,8*
G04 #@! TO.N,/MCU/66_PE13*
X55880000Y-66040000D03*
G04 #@! TO.P,J26,7*
G04 #@! TO.N,/MCU/65_PE12*
X55880000Y-68580000D03*
G04 #@! TO.P,J26,6*
G04 #@! TO.N,/MCU/68_PE15*
X58420000Y-66040000D03*
G04 #@! TO.P,J26,5*
G04 #@! TO.N,/MCU/67_PE14*
X58420000Y-68580000D03*
G04 #@! TO.P,J26,4*
G04 #@! TO.N,/MCU/70_PB11*
X60960000Y-66040000D03*
G04 #@! TO.P,J26,3*
G04 #@! TO.N,/MCU/69_PB10*
X60960000Y-68580000D03*
G04 #@! TO.P,J26,2*
G04 #@! TO.N,/MCU_72_VDD*
X63500000Y-66040000D03*
D10*
G04 #@! TO.P,J26,1*
G04 #@! TO.N,/MCU/71_VCAP_1*
X63500000Y-68580000D03*
G04 #@! TD*
D11*
G04 #@! TO.P,J27,36*
G04 #@! TO.N,/MCU/74_PB13*
X66040000Y-63500000D03*
G04 #@! TO.P,J27,35*
G04 #@! TO.N,/MCU/73_PB12*
X68580000Y-63500000D03*
G04 #@! TO.P,J27,34*
G04 #@! TO.N,/MCU/76_PB15*
X66040000Y-60960000D03*
G04 #@! TO.P,J27,33*
G04 #@! TO.N,/MCU/75_PB14*
X68580000Y-60960000D03*
G04 #@! TO.P,J27,32*
G04 #@! TO.N,/MCU/78_PD9*
X66040000Y-58420000D03*
G04 #@! TO.P,J27,31*
G04 #@! TO.N,/MCU/77_PD8*
X68580000Y-58420000D03*
G04 #@! TO.P,J27,30*
G04 #@! TO.N,/MCU/80_PD11*
X66040000Y-55880000D03*
G04 #@! TO.P,J27,29*
G04 #@! TO.N,/MCU/79_PD10*
X68580000Y-55880000D03*
G04 #@! TO.P,J27,28*
G04 #@! TO.N,/MCU/82_PD13*
X66040000Y-53340000D03*
G04 #@! TO.P,J27,27*
G04 #@! TO.N,/MCU/81_PD12*
X68580000Y-53340000D03*
G04 #@! TO.P,J27,26*
G04 #@! TO.N,/MCU_84_VDD*
X66040000Y-50800000D03*
G04 #@! TO.P,J27,25*
G04 #@! TO.N,/MCU_107_VSS*
X68580000Y-50800000D03*
G04 #@! TO.P,J27,24*
G04 #@! TO.N,/MCU/86_PD15*
X66040000Y-48260000D03*
G04 #@! TO.P,J27,23*
G04 #@! TO.N,/MCU/85_PD14*
X68580000Y-48260000D03*
G04 #@! TO.P,J27,22*
G04 #@! TO.N,/MCU/88_PG3*
X66040000Y-45720000D03*
G04 #@! TO.P,J27,21*
G04 #@! TO.N,/MCU/87_PG2*
X68580000Y-45720000D03*
G04 #@! TO.P,J27,20*
G04 #@! TO.N,/MCU/90_PG5*
X66040000Y-43180000D03*
G04 #@! TO.P,J27,19*
G04 #@! TO.N,/MCU/89_PG4*
X68580000Y-43180000D03*
G04 #@! TO.P,J27,18*
G04 #@! TO.N,/MCU/92_PG7*
X66040000Y-40640000D03*
G04 #@! TO.P,J27,17*
G04 #@! TO.N,/MCU/91_PG6*
X68580000Y-40640000D03*
G04 #@! TO.P,J27,16*
G04 #@! TO.N,/MCU_107_VSS*
X66040000Y-38100000D03*
G04 #@! TO.P,J27,15*
G04 #@! TO.N,/MCU/93_PG8*
X68580000Y-38100000D03*
G04 #@! TO.P,J27,14*
G04 #@! TO.N,/MCU/96_PC6*
X66040000Y-35560000D03*
G04 #@! TO.P,J27,13*
G04 #@! TO.N,/MCU_95_VDDUSB*
X68580000Y-35560000D03*
G04 #@! TO.P,J27,12*
G04 #@! TO.N,/MCU/98_PC8*
X66040000Y-33020000D03*
G04 #@! TO.P,J27,11*
G04 #@! TO.N,/MCU/97_PC7*
X68580000Y-33020000D03*
G04 #@! TO.P,J27,10*
G04 #@! TO.N,/MCU/100_PA8*
X66040000Y-30480000D03*
G04 #@! TO.P,J27,9*
G04 #@! TO.N,/MCU/99_PC9*
X68580000Y-30480000D03*
G04 #@! TO.P,J27,8*
G04 #@! TO.N,/MCU/102_PA10*
X66040000Y-27940000D03*
G04 #@! TO.P,J27,7*
G04 #@! TO.N,/MCU/101_PA9*
X68580000Y-27940000D03*
G04 #@! TO.P,J27,6*
G04 #@! TO.N,/MCU_104_PA12_USB_OTG_FS_DP*
X66040000Y-25400000D03*
G04 #@! TO.P,J27,5*
G04 #@! TO.N,/MCU_103_PA11_USB_OTG_FS_DM*
X68580000Y-25400000D03*
G04 #@! TO.P,J27,4*
G04 #@! TO.N,/MCU/106_VCAP_2*
X66040000Y-22860000D03*
G04 #@! TO.P,J27,3*
G04 #@! TO.N,/MCU/105_PA13*
X68580000Y-22860000D03*
G04 #@! TO.P,J27,2*
G04 #@! TO.N,/MCU_108_VDD*
X66040000Y-20320000D03*
D10*
G04 #@! TO.P,J27,1*
G04 #@! TO.N,/MCU_107_VSS*
X68580000Y-20320000D03*
G04 #@! TD*
G04 #@! TO.P,J28,1*
G04 #@! TO.N,/MCU/143_PDR_ON*
X20320000Y-15240000D03*
D11*
G04 #@! TO.P,J28,2*
G04 #@! TO.N,/MCU_144_VDD*
X20320000Y-17780000D03*
G04 #@! TO.P,J28,3*
G04 #@! TO.N,/MCU/141_PE0*
X22860000Y-15240000D03*
G04 #@! TO.P,J28,4*
G04 #@! TO.N,/MCU/142_PE1*
X22860000Y-17780000D03*
G04 #@! TO.P,J28,5*
G04 #@! TO.N,/MCU/139_PB8*
X25400000Y-15240000D03*
G04 #@! TO.P,J28,6*
G04 #@! TO.N,/MCU/140_PB9*
X25400000Y-17780000D03*
G04 #@! TO.P,J28,7*
G04 #@! TO.N,/MCU/137_PB7*
X27940000Y-15240000D03*
G04 #@! TO.P,J28,8*
G04 #@! TO.N,/MCU/138_BOOT0*
X27940000Y-17780000D03*
G04 #@! TO.P,J28,9*
G04 #@! TO.N,/MCU/135_PB5*
X30480000Y-15240000D03*
G04 #@! TO.P,J28,10*
G04 #@! TO.N,/MCU/136_PB6*
X30480000Y-17780000D03*
G04 #@! TO.P,J28,11*
G04 #@! TO.N,/MCU/133_PB3*
X33020000Y-15240000D03*
G04 #@! TO.P,J28,12*
G04 #@! TO.N,/MCU/134_PB4*
X33020000Y-17780000D03*
G04 #@! TO.P,J28,13*
G04 #@! TO.N,/MCU_131_VDD*
X35560000Y-15240000D03*
G04 #@! TO.P,J28,14*
G04 #@! TO.N,/MCU/132_PG15*
X35560000Y-17780000D03*
G04 #@! TO.P,J28,15*
G04 #@! TO.N,/MCU/129_PG14*
X38100000Y-15240000D03*
G04 #@! TO.P,J28,16*
G04 #@! TO.N,/MCU_107_VSS*
X38100000Y-17780000D03*
G04 #@! TO.P,J28,17*
G04 #@! TO.N,/MCU/127_PG12*
X40640000Y-15240000D03*
G04 #@! TO.P,J28,18*
G04 #@! TO.N,/MCU/128_PG13*
X40640000Y-17780000D03*
G04 #@! TO.P,J28,19*
G04 #@! TO.N,/MCU/125_PG10*
X43180000Y-15240000D03*
G04 #@! TO.P,J28,20*
G04 #@! TO.N,/MCU/126_PG11*
X43180000Y-17780000D03*
G04 #@! TO.P,J28,21*
G04 #@! TO.N,/MCU/123_PD7*
X45720000Y-15240000D03*
G04 #@! TO.P,J28,22*
G04 #@! TO.N,/MCU/124_PG9*
X45720000Y-17780000D03*
G04 #@! TO.P,J28,23*
G04 #@! TO.N,/MCU_121_VDDSDMMC*
X48260000Y-15240000D03*
G04 #@! TO.P,J28,24*
G04 #@! TO.N,/MCU/122_PD6*
X48260000Y-17780000D03*
G04 #@! TO.P,J28,25*
G04 #@! TO.N,/MCU/119_PD5*
X50800000Y-15240000D03*
G04 #@! TO.P,J28,26*
G04 #@! TO.N,/MCU_107_VSS*
X50800000Y-17780000D03*
G04 #@! TO.P,J28,27*
G04 #@! TO.N,/MCU/117_PD3*
X53340000Y-15240000D03*
G04 #@! TO.P,J28,28*
G04 #@! TO.N,/MCU/118_PD4*
X53340000Y-17780000D03*
G04 #@! TO.P,J28,29*
G04 #@! TO.N,/MCU/115_PD1*
X55880000Y-15240000D03*
G04 #@! TO.P,J28,30*
G04 #@! TO.N,/MCU/116_PD2*
X55880000Y-17780000D03*
G04 #@! TO.P,J28,31*
G04 #@! TO.N,/MCU/113_PC12*
X58420000Y-15240000D03*
G04 #@! TO.P,J28,32*
G04 #@! TO.N,/MCU/114_PD0*
X58420000Y-17780000D03*
G04 #@! TO.P,J28,33*
G04 #@! TO.N,/MCU/111_PC10*
X60960000Y-15240000D03*
G04 #@! TO.P,J28,34*
G04 #@! TO.N,/MCU/112_PC11*
X60960000Y-17780000D03*
G04 #@! TO.P,J28,35*
G04 #@! TO.N,/MCU/109_PA14*
X63500000Y-15240000D03*
G04 #@! TO.P,J28,36*
G04 #@! TO.N,/MCU/110_PA15*
X63500000Y-17780000D03*
G04 #@! TD*
D10*
G04 #@! TO.P,J33,1*
G04 #@! TO.N,/ACCEL&GYRO/14_SDA*
X109185000Y-89031000D03*
D11*
G04 #@! TO.P,J33,2*
G04 #@! TO.N,/ACCEL&GYRO/13_SCL*
X106645000Y-89031000D03*
G04 #@! TO.P,J33,3*
G04 #@! TO.N,/ACCEL&GYRO/12_CS*
X104105000Y-89031000D03*
G04 #@! TD*
G04 #@! TO.P,J32,3*
G04 #@! TO.N,/ACCEL&GYRO/5_VDDIO*
X109185000Y-81411000D03*
G04 #@! TO.P,J32,2*
G04 #@! TO.N,/ACCEL&GYRO/6_GND*
X106645000Y-81411000D03*
D10*
G04 #@! TO.P,J32,1*
G04 #@! TO.N,/ACCEL&GYRO/7_GND*
X104105000Y-81411000D03*
G04 #@! TD*
G04 #@! TO.P,J31,1*
G04 #@! TO.N,/ACCEL&GYRO/4_INT1*
X111725000Y-81375487D03*
D11*
G04 #@! TO.P,J31,2*
G04 #@! TO.N,/ACCEL&GYRO/3_SCx*
X111725000Y-83915487D03*
G04 #@! TO.P,J31,3*
G04 #@! TO.N,/ACCEL&GYRO/2_SDx*
X111725000Y-86455487D03*
G04 #@! TO.P,J31,4*
G04 #@! TO.N,/ACCEL&GYRO/1_SDO/SA0*
X111725000Y-88995487D03*
G04 #@! TD*
G04 #@! TO.P,J34,4*
G04 #@! TO.N,/ACCEL&GYRO/8_VDD*
X101564999Y-81375489D03*
G04 #@! TO.P,J34,3*
G04 #@! TO.N,/ACCEL&GYRO/9_INT2*
X101564999Y-83915489D03*
G04 #@! TO.P,J34,2*
G04 #@! TO.N,/ACCEL&GYRO/10_NC*
X101564999Y-86455489D03*
D10*
G04 #@! TO.P,J34,1*
G04 #@! TO.N,/ACCEL&GYRO/11_NC*
X101564999Y-88995489D03*
G04 #@! TD*
D16*
G04 #@! TO.P,J37,6*
G04 #@! TO.N,/USB/6_Shield*
X15399501Y-79700000D03*
X15399501Y-72700000D03*
D17*
X18099501Y-78700000D03*
X18099501Y-73700000D03*
G04 #@! TD*
D11*
G04 #@! TO.P,J38,6*
G04 #@! TO.N,/USB/6_Shield*
X21717000Y-78740000D03*
G04 #@! TO.P,J38,5*
G04 #@! TO.N,/USB_5_GND*
X24257000Y-78740000D03*
G04 #@! TO.P,J38,4*
G04 #@! TO.N,/USB/4_ID*
X21717000Y-76200000D03*
G04 #@! TO.P,J38,3*
G04 #@! TO.N,/USB_3_D+*
X24257000Y-76200000D03*
G04 #@! TO.P,J38,2*
G04 #@! TO.N,/USB_2_D-*
X21717000Y-73660000D03*
D10*
G04 #@! TO.P,J38,1*
G04 #@! TO.N,/USB_1_VBUS*
X24257000Y-73660000D03*
G04 #@! TD*
G04 #@! TO.P,J23,1*
G04 #@! TO.N,/CRYSTAL_4_Vin*
X81900000Y-88980000D03*
D11*
G04 #@! TO.P,J23,2*
G04 #@! TO.N,/CRYSTAL/1_NC*
X81900000Y-86440000D03*
G04 #@! TO.P,J23,3*
G04 #@! TO.N,/CRYSTAL_2_GND*
X81900000Y-83900000D03*
G04 #@! TO.P,J23,4*
G04 #@! TO.N,/CRYSTAL_3_OUT*
X81900000Y-81360000D03*
G04 #@! TD*
D10*
G04 #@! TO.P,J24,1*
G04 #@! TO.N,/SD/1_DATA2*
X110600000Y-95300000D03*
D11*
G04 #@! TO.P,J24,2*
G04 #@! TO.N,/SD/2_DATA3*
X110600000Y-92760000D03*
G04 #@! TO.P,J24,3*
G04 #@! TO.N,/SD/3_CMD*
X108060000Y-95300000D03*
G04 #@! TO.P,J24,4*
G04 #@! TO.N,/SD/4_VDD*
X108060000Y-92760000D03*
G04 #@! TO.P,J24,5*
G04 #@! TO.N,/SD/5_CLK*
X105520000Y-95300000D03*
G04 #@! TO.P,J24,6*
G04 #@! TO.N,/SD/6_Vss*
X105520000Y-92760000D03*
G04 #@! TO.P,J24,7*
G04 #@! TO.N,/SD/7_DATA0*
X102980000Y-95300000D03*
G04 #@! TO.P,J24,8*
G04 #@! TO.N,/SD/8_DATA1*
X102980000Y-92760000D03*
G04 #@! TO.P,J24,9*
G04 #@! TO.N,/SD/9_DETECT*
X100440000Y-95300000D03*
G04 #@! TO.P,J24,10*
G04 #@! TO.N,Net-(J24-Pad10)*
X100440000Y-92760000D03*
G04 #@! TD*
D18*
G04 #@! TO.N,/MCU_107_VSS*
X22352000Y-30480000D03*
X50165000Y-45720000D03*
X40005000Y-33655000D03*
X45085000Y-33655000D03*
X33655000Y-40640000D03*
X33655000Y-48260000D03*
X33655000Y-50165000D03*
X50165000Y-33655000D03*
X45085000Y-50165000D03*
X40640000Y-50165000D03*
X25781000Y-45339000D03*
G04 #@! TD*
D19*
G04 #@! TO.N,/ADC1_42_REF2-*
G36*
X35687000Y-111633000D02*
X35707000Y-111633000D01*
X35707000Y-111887000D01*
X35687000Y-111887000D01*
X35687000Y-111907000D01*
X35433000Y-111907000D01*
X35433000Y-111887000D01*
X35413000Y-111887000D01*
X35413000Y-111633000D01*
X35433000Y-111633000D01*
X35433000Y-111613000D01*
X35687000Y-111613000D01*
X35687000Y-111633000D01*
X35687000Y-111633000D01*
G37*
X35687000Y-111633000D02*
X35707000Y-111633000D01*
X35707000Y-111887000D01*
X35687000Y-111887000D01*
X35687000Y-111907000D01*
X35433000Y-111907000D01*
X35433000Y-111887000D01*
X35413000Y-111887000D01*
X35413000Y-111633000D01*
X35433000Y-111633000D01*
X35433000Y-111613000D01*
X35687000Y-111613000D01*
X35687000Y-111633000D01*
G36*
X25527000Y-111633000D02*
X25547000Y-111633000D01*
X25547000Y-111887000D01*
X25527000Y-111887000D01*
X25527000Y-111907000D01*
X25273000Y-111907000D01*
X25273000Y-111887000D01*
X25253000Y-111887000D01*
X25253000Y-111633000D01*
X25273000Y-111633000D01*
X25273000Y-111613000D01*
X25527000Y-111613000D01*
X25527000Y-111633000D01*
X25527000Y-111633000D01*
G37*
X25527000Y-111633000D02*
X25547000Y-111633000D01*
X25547000Y-111887000D01*
X25527000Y-111887000D01*
X25527000Y-111907000D01*
X25273000Y-111907000D01*
X25273000Y-111887000D01*
X25253000Y-111887000D01*
X25253000Y-111633000D01*
X25273000Y-111633000D01*
X25273000Y-111613000D01*
X25527000Y-111613000D01*
X25527000Y-111633000D01*
G36*
X22810197Y-96189803D02*
X22851399Y-96217333D01*
X22900000Y-96227000D01*
X24925000Y-96227000D01*
X24925000Y-96979413D01*
X24911872Y-97022930D01*
X24925000Y-97154164D01*
X24925000Y-97504250D01*
X25083750Y-97663000D01*
X25411349Y-97663000D01*
X25385860Y-97673558D01*
X25384685Y-97712092D01*
X25380075Y-97716702D01*
X25382310Y-97790000D01*
X25380075Y-97863298D01*
X25384685Y-97867908D01*
X25385860Y-97906442D01*
X25420858Y-97917000D01*
X25083750Y-97917000D01*
X24925000Y-98075750D01*
X24925000Y-98339413D01*
X24911872Y-98382930D01*
X24925000Y-98514164D01*
X24925000Y-99699413D01*
X24911872Y-99742930D01*
X24925000Y-99874164D01*
X24925000Y-101059413D01*
X24911872Y-101102930D01*
X24925000Y-101234164D01*
X24925000Y-101566310D01*
X25021673Y-101799699D01*
X25200302Y-101978327D01*
X25433691Y-102075000D01*
X25679413Y-102075000D01*
X25722930Y-102088128D01*
X25854164Y-102075000D01*
X27039413Y-102075000D01*
X27082930Y-102088128D01*
X27214164Y-102075000D01*
X28399413Y-102075000D01*
X28442930Y-102088128D01*
X28574164Y-102075000D01*
X28924250Y-102075000D01*
X29083000Y-101916250D01*
X29083000Y-101588651D01*
X29093558Y-101614140D01*
X29132092Y-101615315D01*
X29136702Y-101619925D01*
X29210000Y-101617690D01*
X29283298Y-101619925D01*
X29287908Y-101615315D01*
X29326442Y-101614140D01*
X29337000Y-101579142D01*
X29337000Y-101916250D01*
X29495750Y-102075000D01*
X29759413Y-102075000D01*
X29802930Y-102088128D01*
X29934164Y-102075000D01*
X31119413Y-102075000D01*
X31162930Y-102088128D01*
X31294164Y-102075000D01*
X32479413Y-102075000D01*
X32522930Y-102088128D01*
X32654164Y-102075000D01*
X32986309Y-102075000D01*
X33219698Y-101978327D01*
X33398327Y-101799699D01*
X33495000Y-101566310D01*
X33495000Y-101320587D01*
X33508128Y-101277070D01*
X33495000Y-101145836D01*
X33495000Y-99960587D01*
X33508128Y-99917070D01*
X33495000Y-99785836D01*
X33495000Y-98600587D01*
X33508128Y-98557070D01*
X33495000Y-98425836D01*
X33495000Y-98075750D01*
X33336250Y-97917000D01*
X33008651Y-97917000D01*
X33034140Y-97906442D01*
X33035315Y-97867908D01*
X33039925Y-97863298D01*
X33037690Y-97790000D01*
X33039925Y-97716702D01*
X33035315Y-97712092D01*
X33034140Y-97673558D01*
X32999142Y-97663000D01*
X33336250Y-97663000D01*
X33495000Y-97504250D01*
X33495000Y-97240587D01*
X33508128Y-97197070D01*
X33495000Y-97065836D01*
X33495000Y-96227000D01*
X36800000Y-96227000D01*
X36848601Y-96217333D01*
X36889803Y-96189803D01*
X39132439Y-93947167D01*
X39125908Y-93980000D01*
X39241161Y-94559418D01*
X39569375Y-95050625D01*
X39867761Y-95250000D01*
X39569375Y-95449375D01*
X39241161Y-95940582D01*
X39125908Y-96520000D01*
X39241161Y-97099418D01*
X39569375Y-97590625D01*
X39867761Y-97790000D01*
X39569375Y-97989375D01*
X39241161Y-98480582D01*
X39125908Y-99060000D01*
X39241161Y-99639418D01*
X39569375Y-100130625D01*
X39867761Y-100330000D01*
X39569375Y-100529375D01*
X39241161Y-101020582D01*
X39125908Y-101600000D01*
X39241161Y-102179418D01*
X39569375Y-102670625D01*
X39867761Y-102870000D01*
X39569375Y-103069375D01*
X39241161Y-103560582D01*
X39125908Y-104140000D01*
X39241161Y-104719418D01*
X39569375Y-105210625D01*
X39867761Y-105410000D01*
X39569375Y-105609375D01*
X39241161Y-106100582D01*
X39125908Y-106680000D01*
X39241161Y-107259418D01*
X39569375Y-107750625D01*
X40060582Y-108078839D01*
X40270175Y-108120529D01*
X39540529Y-108850175D01*
X39498839Y-108640582D01*
X39170625Y-108149375D01*
X38679418Y-107821161D01*
X38246256Y-107735000D01*
X37953744Y-107735000D01*
X37520582Y-107821161D01*
X37029375Y-108149375D01*
X36830000Y-108447761D01*
X36630625Y-108149375D01*
X36139418Y-107821161D01*
X35706256Y-107735000D01*
X35413744Y-107735000D01*
X34980582Y-107821161D01*
X34489375Y-108149375D01*
X34276157Y-108468478D01*
X34215183Y-108338642D01*
X33786924Y-107948355D01*
X33376890Y-107778524D01*
X33147000Y-107899845D01*
X33147000Y-109093000D01*
X33167000Y-109093000D01*
X33167000Y-109347000D01*
X33147000Y-109347000D01*
X33147000Y-109367000D01*
X32893000Y-109367000D01*
X32893000Y-109347000D01*
X32873000Y-109347000D01*
X32873000Y-109093000D01*
X32893000Y-109093000D01*
X32893000Y-107899845D01*
X32663110Y-107778524D01*
X32253076Y-107948355D01*
X31824817Y-108338642D01*
X31763843Y-108468478D01*
X31550625Y-108149375D01*
X31059418Y-107821161D01*
X30626256Y-107735000D01*
X30333744Y-107735000D01*
X29900582Y-107821161D01*
X29409375Y-108149375D01*
X29210000Y-108447761D01*
X29010625Y-108149375D01*
X28519418Y-107821161D01*
X28086256Y-107735000D01*
X27793744Y-107735000D01*
X27360582Y-107821161D01*
X26869375Y-108149375D01*
X26670000Y-108447761D01*
X26470625Y-108149375D01*
X25979418Y-107821161D01*
X25546256Y-107735000D01*
X25253744Y-107735000D01*
X24820582Y-107821161D01*
X24329375Y-108149375D01*
X24130000Y-108447761D01*
X23930625Y-108149375D01*
X23439418Y-107821161D01*
X23006256Y-107735000D01*
X22713744Y-107735000D01*
X22280582Y-107821161D01*
X21789375Y-108149375D01*
X21576157Y-108468478D01*
X21515183Y-108338642D01*
X21086924Y-107948355D01*
X20676890Y-107778524D01*
X20447000Y-107899845D01*
X20447000Y-109093000D01*
X20467000Y-109093000D01*
X20467000Y-109347000D01*
X20447000Y-109347000D01*
X20447000Y-109367000D01*
X20193000Y-109367000D01*
X20193000Y-109347000D01*
X20173000Y-109347000D01*
X20173000Y-109093000D01*
X20193000Y-109093000D01*
X20193000Y-107899845D01*
X19963110Y-107778524D01*
X19553076Y-107948355D01*
X19124817Y-108338642D01*
X18882953Y-108853657D01*
X18149825Y-108120529D01*
X18359418Y-108078838D01*
X18850625Y-107750624D01*
X19178839Y-107259417D01*
X19294092Y-106679999D01*
X19178839Y-106100581D01*
X18850625Y-105609374D01*
X18552239Y-105409999D01*
X18850625Y-105210624D01*
X19178839Y-104719417D01*
X19294092Y-104139999D01*
X19178839Y-103560581D01*
X18850625Y-103069374D01*
X18531522Y-102856156D01*
X18661358Y-102795182D01*
X19051645Y-102366923D01*
X19221476Y-101956889D01*
X19100155Y-101726999D01*
X17907000Y-101726999D01*
X17907000Y-101746999D01*
X17653000Y-101746999D01*
X17653000Y-101726999D01*
X17633000Y-101726999D01*
X17633000Y-101472999D01*
X17653000Y-101472999D01*
X17653000Y-99186999D01*
X17907000Y-99186999D01*
X17907000Y-101472999D01*
X19100155Y-101472999D01*
X19221476Y-101243109D01*
X19051645Y-100833075D01*
X18661358Y-100404816D01*
X18502046Y-100329999D01*
X18661358Y-100255182D01*
X19051645Y-99826923D01*
X19221476Y-99416889D01*
X19100155Y-99186999D01*
X17907000Y-99186999D01*
X17653000Y-99186999D01*
X17633000Y-99186999D01*
X17633000Y-98932999D01*
X17653000Y-98932999D01*
X17653000Y-98912999D01*
X17907000Y-98912999D01*
X17907000Y-98932999D01*
X19100155Y-98932999D01*
X19221476Y-98703109D01*
X19051645Y-98293075D01*
X18661358Y-97864816D01*
X18531522Y-97803842D01*
X18850625Y-97590624D01*
X19178839Y-97099417D01*
X19294092Y-96519999D01*
X19178839Y-95940581D01*
X18850625Y-95449374D01*
X18552239Y-95249999D01*
X18850625Y-95050624D01*
X19178839Y-94559417D01*
X19294092Y-93979999D01*
X19178839Y-93400581D01*
X18929220Y-93027000D01*
X19647394Y-93027000D01*
X22810197Y-96189803D01*
X22810197Y-96189803D01*
G37*
X22810197Y-96189803D02*
X22851399Y-96217333D01*
X22900000Y-96227000D01*
X24925000Y-96227000D01*
X24925000Y-96979413D01*
X24911872Y-97022930D01*
X24925000Y-97154164D01*
X24925000Y-97504250D01*
X25083750Y-97663000D01*
X25411349Y-97663000D01*
X25385860Y-97673558D01*
X25384685Y-97712092D01*
X25380075Y-97716702D01*
X25382310Y-97790000D01*
X25380075Y-97863298D01*
X25384685Y-97867908D01*
X25385860Y-97906442D01*
X25420858Y-97917000D01*
X25083750Y-97917000D01*
X24925000Y-98075750D01*
X24925000Y-98339413D01*
X24911872Y-98382930D01*
X24925000Y-98514164D01*
X24925000Y-99699413D01*
X24911872Y-99742930D01*
X24925000Y-99874164D01*
X24925000Y-101059413D01*
X24911872Y-101102930D01*
X24925000Y-101234164D01*
X24925000Y-101566310D01*
X25021673Y-101799699D01*
X25200302Y-101978327D01*
X25433691Y-102075000D01*
X25679413Y-102075000D01*
X25722930Y-102088128D01*
X25854164Y-102075000D01*
X27039413Y-102075000D01*
X27082930Y-102088128D01*
X27214164Y-102075000D01*
X28399413Y-102075000D01*
X28442930Y-102088128D01*
X28574164Y-102075000D01*
X28924250Y-102075000D01*
X29083000Y-101916250D01*
X29083000Y-101588651D01*
X29093558Y-101614140D01*
X29132092Y-101615315D01*
X29136702Y-101619925D01*
X29210000Y-101617690D01*
X29283298Y-101619925D01*
X29287908Y-101615315D01*
X29326442Y-101614140D01*
X29337000Y-101579142D01*
X29337000Y-101916250D01*
X29495750Y-102075000D01*
X29759413Y-102075000D01*
X29802930Y-102088128D01*
X29934164Y-102075000D01*
X31119413Y-102075000D01*
X31162930Y-102088128D01*
X31294164Y-102075000D01*
X32479413Y-102075000D01*
X32522930Y-102088128D01*
X32654164Y-102075000D01*
X32986309Y-102075000D01*
X33219698Y-101978327D01*
X33398327Y-101799699D01*
X33495000Y-101566310D01*
X33495000Y-101320587D01*
X33508128Y-101277070D01*
X33495000Y-101145836D01*
X33495000Y-99960587D01*
X33508128Y-99917070D01*
X33495000Y-99785836D01*
X33495000Y-98600587D01*
X33508128Y-98557070D01*
X33495000Y-98425836D01*
X33495000Y-98075750D01*
X33336250Y-97917000D01*
X33008651Y-97917000D01*
X33034140Y-97906442D01*
X33035315Y-97867908D01*
X33039925Y-97863298D01*
X33037690Y-97790000D01*
X33039925Y-97716702D01*
X33035315Y-97712092D01*
X33034140Y-97673558D01*
X32999142Y-97663000D01*
X33336250Y-97663000D01*
X33495000Y-97504250D01*
X33495000Y-97240587D01*
X33508128Y-97197070D01*
X33495000Y-97065836D01*
X33495000Y-96227000D01*
X36800000Y-96227000D01*
X36848601Y-96217333D01*
X36889803Y-96189803D01*
X39132439Y-93947167D01*
X39125908Y-93980000D01*
X39241161Y-94559418D01*
X39569375Y-95050625D01*
X39867761Y-95250000D01*
X39569375Y-95449375D01*
X39241161Y-95940582D01*
X39125908Y-96520000D01*
X39241161Y-97099418D01*
X39569375Y-97590625D01*
X39867761Y-97790000D01*
X39569375Y-97989375D01*
X39241161Y-98480582D01*
X39125908Y-99060000D01*
X39241161Y-99639418D01*
X39569375Y-100130625D01*
X39867761Y-100330000D01*
X39569375Y-100529375D01*
X39241161Y-101020582D01*
X39125908Y-101600000D01*
X39241161Y-102179418D01*
X39569375Y-102670625D01*
X39867761Y-102870000D01*
X39569375Y-103069375D01*
X39241161Y-103560582D01*
X39125908Y-104140000D01*
X39241161Y-104719418D01*
X39569375Y-105210625D01*
X39867761Y-105410000D01*
X39569375Y-105609375D01*
X39241161Y-106100582D01*
X39125908Y-106680000D01*
X39241161Y-107259418D01*
X39569375Y-107750625D01*
X40060582Y-108078839D01*
X40270175Y-108120529D01*
X39540529Y-108850175D01*
X39498839Y-108640582D01*
X39170625Y-108149375D01*
X38679418Y-107821161D01*
X38246256Y-107735000D01*
X37953744Y-107735000D01*
X37520582Y-107821161D01*
X37029375Y-108149375D01*
X36830000Y-108447761D01*
X36630625Y-108149375D01*
X36139418Y-107821161D01*
X35706256Y-107735000D01*
X35413744Y-107735000D01*
X34980582Y-107821161D01*
X34489375Y-108149375D01*
X34276157Y-108468478D01*
X34215183Y-108338642D01*
X33786924Y-107948355D01*
X33376890Y-107778524D01*
X33147000Y-107899845D01*
X33147000Y-109093000D01*
X33167000Y-109093000D01*
X33167000Y-109347000D01*
X33147000Y-109347000D01*
X33147000Y-109367000D01*
X32893000Y-109367000D01*
X32893000Y-109347000D01*
X32873000Y-109347000D01*
X32873000Y-109093000D01*
X32893000Y-109093000D01*
X32893000Y-107899845D01*
X32663110Y-107778524D01*
X32253076Y-107948355D01*
X31824817Y-108338642D01*
X31763843Y-108468478D01*
X31550625Y-108149375D01*
X31059418Y-107821161D01*
X30626256Y-107735000D01*
X30333744Y-107735000D01*
X29900582Y-107821161D01*
X29409375Y-108149375D01*
X29210000Y-108447761D01*
X29010625Y-108149375D01*
X28519418Y-107821161D01*
X28086256Y-107735000D01*
X27793744Y-107735000D01*
X27360582Y-107821161D01*
X26869375Y-108149375D01*
X26670000Y-108447761D01*
X26470625Y-108149375D01*
X25979418Y-107821161D01*
X25546256Y-107735000D01*
X25253744Y-107735000D01*
X24820582Y-107821161D01*
X24329375Y-108149375D01*
X24130000Y-108447761D01*
X23930625Y-108149375D01*
X23439418Y-107821161D01*
X23006256Y-107735000D01*
X22713744Y-107735000D01*
X22280582Y-107821161D01*
X21789375Y-108149375D01*
X21576157Y-108468478D01*
X21515183Y-108338642D01*
X21086924Y-107948355D01*
X20676890Y-107778524D01*
X20447000Y-107899845D01*
X20447000Y-109093000D01*
X20467000Y-109093000D01*
X20467000Y-109347000D01*
X20447000Y-109347000D01*
X20447000Y-109367000D01*
X20193000Y-109367000D01*
X20193000Y-109347000D01*
X20173000Y-109347000D01*
X20173000Y-109093000D01*
X20193000Y-109093000D01*
X20193000Y-107899845D01*
X19963110Y-107778524D01*
X19553076Y-107948355D01*
X19124817Y-108338642D01*
X18882953Y-108853657D01*
X18149825Y-108120529D01*
X18359418Y-108078838D01*
X18850625Y-107750624D01*
X19178839Y-107259417D01*
X19294092Y-106679999D01*
X19178839Y-106100581D01*
X18850625Y-105609374D01*
X18552239Y-105409999D01*
X18850625Y-105210624D01*
X19178839Y-104719417D01*
X19294092Y-104139999D01*
X19178839Y-103560581D01*
X18850625Y-103069374D01*
X18531522Y-102856156D01*
X18661358Y-102795182D01*
X19051645Y-102366923D01*
X19221476Y-101956889D01*
X19100155Y-101726999D01*
X17907000Y-101726999D01*
X17907000Y-101746999D01*
X17653000Y-101746999D01*
X17653000Y-101726999D01*
X17633000Y-101726999D01*
X17633000Y-101472999D01*
X17653000Y-101472999D01*
X17653000Y-99186999D01*
X17907000Y-99186999D01*
X17907000Y-101472999D01*
X19100155Y-101472999D01*
X19221476Y-101243109D01*
X19051645Y-100833075D01*
X18661358Y-100404816D01*
X18502046Y-100329999D01*
X18661358Y-100255182D01*
X19051645Y-99826923D01*
X19221476Y-99416889D01*
X19100155Y-99186999D01*
X17907000Y-99186999D01*
X17653000Y-99186999D01*
X17633000Y-99186999D01*
X17633000Y-98932999D01*
X17653000Y-98932999D01*
X17653000Y-98912999D01*
X17907000Y-98912999D01*
X17907000Y-98932999D01*
X19100155Y-98932999D01*
X19221476Y-98703109D01*
X19051645Y-98293075D01*
X18661358Y-97864816D01*
X18531522Y-97803842D01*
X18850625Y-97590624D01*
X19178839Y-97099417D01*
X19294092Y-96519999D01*
X19178839Y-95940581D01*
X18850625Y-95449374D01*
X18552239Y-95249999D01*
X18850625Y-95050624D01*
X19178839Y-94559417D01*
X19294092Y-93979999D01*
X19178839Y-93400581D01*
X18929220Y-93027000D01*
X19647394Y-93027000D01*
X22810197Y-96189803D01*
G36*
X43307000Y-98933000D02*
X43327000Y-98933000D01*
X43327000Y-99187000D01*
X43307000Y-99187000D01*
X43307000Y-101473000D01*
X43327000Y-101473000D01*
X43327000Y-101727000D01*
X43307000Y-101727000D01*
X43307000Y-101747000D01*
X43053000Y-101747000D01*
X43053000Y-101727000D01*
X43033000Y-101727000D01*
X43033000Y-101473000D01*
X43053000Y-101473000D01*
X43053000Y-99187000D01*
X43033000Y-99187000D01*
X43033000Y-98933000D01*
X43053000Y-98933000D01*
X43053000Y-98913000D01*
X43307000Y-98913000D01*
X43307000Y-98933000D01*
X43307000Y-98933000D01*
G37*
X43307000Y-98933000D02*
X43327000Y-98933000D01*
X43327000Y-99187000D01*
X43307000Y-99187000D01*
X43307000Y-101473000D01*
X43327000Y-101473000D01*
X43327000Y-101727000D01*
X43307000Y-101727000D01*
X43307000Y-101747000D01*
X43053000Y-101747000D01*
X43053000Y-101727000D01*
X43033000Y-101727000D01*
X43033000Y-101473000D01*
X43053000Y-101473000D01*
X43053000Y-99187000D01*
X43033000Y-99187000D01*
X43033000Y-98933000D01*
X43053000Y-98933000D01*
X43053000Y-98913000D01*
X43307000Y-98913000D01*
X43307000Y-98933000D01*
G36*
X29337000Y-97663000D02*
X29491349Y-97663000D01*
X29465860Y-97673558D01*
X29464685Y-97712092D01*
X29460075Y-97716702D01*
X29462310Y-97790000D01*
X29460075Y-97863298D01*
X29464685Y-97867908D01*
X29465860Y-97906442D01*
X29500858Y-97917000D01*
X29337000Y-97917000D01*
X29337000Y-98071349D01*
X29326442Y-98045860D01*
X29287908Y-98044685D01*
X29283298Y-98040075D01*
X29210000Y-98042310D01*
X29136702Y-98040075D01*
X29132092Y-98044685D01*
X29093558Y-98045860D01*
X29083000Y-98080858D01*
X29083000Y-97917000D01*
X28928651Y-97917000D01*
X28954140Y-97906442D01*
X28955315Y-97867908D01*
X28959925Y-97863298D01*
X28957690Y-97790000D01*
X28959925Y-97716702D01*
X28955315Y-97712092D01*
X28954140Y-97673558D01*
X28919142Y-97663000D01*
X29083000Y-97663000D01*
X29083000Y-97643000D01*
X29337000Y-97643000D01*
X29337000Y-97663000D01*
X29337000Y-97663000D01*
G37*
X29337000Y-97663000D02*
X29491349Y-97663000D01*
X29465860Y-97673558D01*
X29464685Y-97712092D01*
X29460075Y-97716702D01*
X29462310Y-97790000D01*
X29460075Y-97863298D01*
X29464685Y-97867908D01*
X29465860Y-97906442D01*
X29500858Y-97917000D01*
X29337000Y-97917000D01*
X29337000Y-98071349D01*
X29326442Y-98045860D01*
X29287908Y-98044685D01*
X29283298Y-98040075D01*
X29210000Y-98042310D01*
X29136702Y-98040075D01*
X29132092Y-98044685D01*
X29093558Y-98045860D01*
X29083000Y-98080858D01*
X29083000Y-97917000D01*
X28928651Y-97917000D01*
X28954140Y-97906442D01*
X28955315Y-97867908D01*
X28959925Y-97863298D01*
X28957690Y-97790000D01*
X28959925Y-97716702D01*
X28955315Y-97712092D01*
X28954140Y-97673558D01*
X28919142Y-97663000D01*
X29083000Y-97663000D01*
X29083000Y-97643000D01*
X29337000Y-97643000D01*
X29337000Y-97663000D01*
G04 #@! TO.N,/ADC1_22_DGND*
G36*
X33147000Y-86233000D02*
X33167000Y-86233000D01*
X33167000Y-86487000D01*
X33147000Y-86487000D01*
X33147000Y-87680155D01*
X33376890Y-87801476D01*
X33786924Y-87631645D01*
X34215183Y-87241358D01*
X34276157Y-87111522D01*
X34489375Y-87430625D01*
X34980582Y-87758839D01*
X35413744Y-87845000D01*
X35706256Y-87845000D01*
X36139418Y-87758839D01*
X36630625Y-87430625D01*
X36830000Y-87132239D01*
X37029375Y-87430625D01*
X37520582Y-87758839D01*
X37953744Y-87845000D01*
X38246256Y-87845000D01*
X38679418Y-87758839D01*
X39170625Y-87430625D01*
X39498839Y-86939418D01*
X39540529Y-86729825D01*
X40270175Y-87459471D01*
X40060582Y-87501161D01*
X39569375Y-87829375D01*
X39241161Y-88320582D01*
X39125908Y-88900000D01*
X39241161Y-89479418D01*
X39569375Y-89970625D01*
X39867761Y-90170000D01*
X39569375Y-90369375D01*
X39241161Y-90860582D01*
X39125908Y-91440000D01*
X39241161Y-92019418D01*
X39497435Y-92402959D01*
X36777394Y-95123000D01*
X33782000Y-95123000D01*
X33782000Y-93345000D01*
X33772333Y-93296399D01*
X33744803Y-93255197D01*
X33703601Y-93227667D01*
X33655000Y-93218000D01*
X24765000Y-93218000D01*
X24716399Y-93227667D01*
X24675197Y-93255197D01*
X24647667Y-93296399D01*
X24638000Y-93345000D01*
X24638000Y-95123000D01*
X22912606Y-95123000D01*
X19774803Y-91985197D01*
X19733601Y-91957667D01*
X19685000Y-91948000D01*
X19193045Y-91948000D01*
X19294092Y-91439999D01*
X19178839Y-90860581D01*
X18850625Y-90369374D01*
X18552239Y-90169999D01*
X18850625Y-89970624D01*
X19178839Y-89479417D01*
X19294092Y-88899999D01*
X19178839Y-88320581D01*
X18850625Y-87829374D01*
X18359418Y-87501160D01*
X18149826Y-87459470D01*
X18879471Y-86729825D01*
X18921161Y-86939418D01*
X19249375Y-87430625D01*
X19740582Y-87758839D01*
X20173744Y-87845000D01*
X20466256Y-87845000D01*
X20899418Y-87758839D01*
X21390625Y-87430625D01*
X21590000Y-87132239D01*
X21789375Y-87430625D01*
X22280582Y-87758839D01*
X22713744Y-87845000D01*
X23006256Y-87845000D01*
X23439418Y-87758839D01*
X23930625Y-87430625D01*
X24130000Y-87132239D01*
X24329375Y-87430625D01*
X24820582Y-87758839D01*
X25253744Y-87845000D01*
X25546256Y-87845000D01*
X25979418Y-87758839D01*
X26470625Y-87430625D01*
X26670000Y-87132239D01*
X26869375Y-87430625D01*
X27360582Y-87758839D01*
X27793744Y-87845000D01*
X28086256Y-87845000D01*
X28519418Y-87758839D01*
X29010625Y-87430625D01*
X29210000Y-87132239D01*
X29409375Y-87430625D01*
X29900582Y-87758839D01*
X30333744Y-87845000D01*
X30626256Y-87845000D01*
X31059418Y-87758839D01*
X31550625Y-87430625D01*
X31763843Y-87111522D01*
X31824817Y-87241358D01*
X32253076Y-87631645D01*
X32663110Y-87801476D01*
X32893000Y-87680155D01*
X32893000Y-86487000D01*
X32873000Y-86487000D01*
X32873000Y-86233000D01*
X32893000Y-86233000D01*
X32893000Y-86213000D01*
X33147000Y-86213000D01*
X33147000Y-86233000D01*
X33147000Y-86233000D01*
G37*
X33147000Y-86233000D02*
X33167000Y-86233000D01*
X33167000Y-86487000D01*
X33147000Y-86487000D01*
X33147000Y-87680155D01*
X33376890Y-87801476D01*
X33786924Y-87631645D01*
X34215183Y-87241358D01*
X34276157Y-87111522D01*
X34489375Y-87430625D01*
X34980582Y-87758839D01*
X35413744Y-87845000D01*
X35706256Y-87845000D01*
X36139418Y-87758839D01*
X36630625Y-87430625D01*
X36830000Y-87132239D01*
X37029375Y-87430625D01*
X37520582Y-87758839D01*
X37953744Y-87845000D01*
X38246256Y-87845000D01*
X38679418Y-87758839D01*
X39170625Y-87430625D01*
X39498839Y-86939418D01*
X39540529Y-86729825D01*
X40270175Y-87459471D01*
X40060582Y-87501161D01*
X39569375Y-87829375D01*
X39241161Y-88320582D01*
X39125908Y-88900000D01*
X39241161Y-89479418D01*
X39569375Y-89970625D01*
X39867761Y-90170000D01*
X39569375Y-90369375D01*
X39241161Y-90860582D01*
X39125908Y-91440000D01*
X39241161Y-92019418D01*
X39497435Y-92402959D01*
X36777394Y-95123000D01*
X33782000Y-95123000D01*
X33782000Y-93345000D01*
X33772333Y-93296399D01*
X33744803Y-93255197D01*
X33703601Y-93227667D01*
X33655000Y-93218000D01*
X24765000Y-93218000D01*
X24716399Y-93227667D01*
X24675197Y-93255197D01*
X24647667Y-93296399D01*
X24638000Y-93345000D01*
X24638000Y-95123000D01*
X22912606Y-95123000D01*
X19774803Y-91985197D01*
X19733601Y-91957667D01*
X19685000Y-91948000D01*
X19193045Y-91948000D01*
X19294092Y-91439999D01*
X19178839Y-90860581D01*
X18850625Y-90369374D01*
X18552239Y-90169999D01*
X18850625Y-89970624D01*
X19178839Y-89479417D01*
X19294092Y-88899999D01*
X19178839Y-88320581D01*
X18850625Y-87829374D01*
X18359418Y-87501160D01*
X18149826Y-87459470D01*
X18879471Y-86729825D01*
X18921161Y-86939418D01*
X19249375Y-87430625D01*
X19740582Y-87758839D01*
X20173744Y-87845000D01*
X20466256Y-87845000D01*
X20899418Y-87758839D01*
X21390625Y-87430625D01*
X21590000Y-87132239D01*
X21789375Y-87430625D01*
X22280582Y-87758839D01*
X22713744Y-87845000D01*
X23006256Y-87845000D01*
X23439418Y-87758839D01*
X23930625Y-87430625D01*
X24130000Y-87132239D01*
X24329375Y-87430625D01*
X24820582Y-87758839D01*
X25253744Y-87845000D01*
X25546256Y-87845000D01*
X25979418Y-87758839D01*
X26470625Y-87430625D01*
X26670000Y-87132239D01*
X26869375Y-87430625D01*
X27360582Y-87758839D01*
X27793744Y-87845000D01*
X28086256Y-87845000D01*
X28519418Y-87758839D01*
X29010625Y-87430625D01*
X29210000Y-87132239D01*
X29409375Y-87430625D01*
X29900582Y-87758839D01*
X30333744Y-87845000D01*
X30626256Y-87845000D01*
X31059418Y-87758839D01*
X31550625Y-87430625D01*
X31763843Y-87111522D01*
X31824817Y-87241358D01*
X32253076Y-87631645D01*
X32663110Y-87801476D01*
X32893000Y-87680155D01*
X32893000Y-86487000D01*
X32873000Y-86487000D01*
X32873000Y-86233000D01*
X32893000Y-86233000D01*
X32893000Y-86213000D01*
X33147000Y-86213000D01*
X33147000Y-86233000D01*
G04 #@! TO.N,/ADC2_22_DGND*
G36*
X64897000Y-86233000D02*
X64917000Y-86233000D01*
X64917000Y-86487000D01*
X64897000Y-86487000D01*
X64897000Y-87680155D01*
X65126890Y-87801476D01*
X65536924Y-87631645D01*
X65965183Y-87241358D01*
X66026157Y-87111522D01*
X66239375Y-87430625D01*
X66730582Y-87758839D01*
X67163744Y-87845000D01*
X67456256Y-87845000D01*
X67889418Y-87758839D01*
X68380625Y-87430625D01*
X68580000Y-87132239D01*
X68779375Y-87430625D01*
X69270582Y-87758839D01*
X69703744Y-87845000D01*
X69996256Y-87845000D01*
X70429418Y-87758839D01*
X70920625Y-87430625D01*
X71248839Y-86939418D01*
X71290529Y-86729825D01*
X72020175Y-87459471D01*
X71810582Y-87501161D01*
X71319375Y-87829375D01*
X70991161Y-88320582D01*
X70875908Y-88900000D01*
X70991161Y-89479418D01*
X71319375Y-89970625D01*
X71617761Y-90170000D01*
X71319375Y-90369375D01*
X70991161Y-90860582D01*
X70875908Y-91440000D01*
X70991161Y-92019418D01*
X71247435Y-92402959D01*
X68527394Y-95123000D01*
X65532000Y-95123000D01*
X65532000Y-93345000D01*
X65522333Y-93296399D01*
X65494803Y-93255197D01*
X65453601Y-93227667D01*
X65405000Y-93218000D01*
X56515000Y-93218000D01*
X56466399Y-93227667D01*
X56425197Y-93255197D01*
X56397667Y-93296399D01*
X56388000Y-93345000D01*
X56388000Y-95123000D01*
X54662606Y-95123000D01*
X51524803Y-91985197D01*
X51483601Y-91957667D01*
X51435000Y-91948000D01*
X50943045Y-91948000D01*
X51044092Y-91440000D01*
X50928839Y-90860582D01*
X50600625Y-90369375D01*
X50302239Y-90170000D01*
X50600625Y-89970625D01*
X50928839Y-89479418D01*
X51044092Y-88900000D01*
X50928839Y-88320582D01*
X50600625Y-87829375D01*
X50109418Y-87501161D01*
X49899825Y-87459471D01*
X50629471Y-86729825D01*
X50671161Y-86939418D01*
X50999375Y-87430625D01*
X51490582Y-87758839D01*
X51923744Y-87845000D01*
X52216256Y-87845000D01*
X52649418Y-87758839D01*
X53140625Y-87430625D01*
X53340000Y-87132239D01*
X53539375Y-87430625D01*
X54030582Y-87758839D01*
X54463744Y-87845000D01*
X54756256Y-87845000D01*
X55189418Y-87758839D01*
X55680625Y-87430625D01*
X55880000Y-87132239D01*
X56079375Y-87430625D01*
X56570582Y-87758839D01*
X57003744Y-87845000D01*
X57296256Y-87845000D01*
X57729418Y-87758839D01*
X58220625Y-87430625D01*
X58420000Y-87132239D01*
X58619375Y-87430625D01*
X59110582Y-87758839D01*
X59543744Y-87845000D01*
X59836256Y-87845000D01*
X60269418Y-87758839D01*
X60760625Y-87430625D01*
X60960000Y-87132239D01*
X61159375Y-87430625D01*
X61650582Y-87758839D01*
X62083744Y-87845000D01*
X62376256Y-87845000D01*
X62809418Y-87758839D01*
X63300625Y-87430625D01*
X63513843Y-87111522D01*
X63574817Y-87241358D01*
X64003076Y-87631645D01*
X64413110Y-87801476D01*
X64643000Y-87680155D01*
X64643000Y-86487000D01*
X64623000Y-86487000D01*
X64623000Y-86233000D01*
X64643000Y-86233000D01*
X64643000Y-86213000D01*
X64897000Y-86213000D01*
X64897000Y-86233000D01*
X64897000Y-86233000D01*
G37*
X64897000Y-86233000D02*
X64917000Y-86233000D01*
X64917000Y-86487000D01*
X64897000Y-86487000D01*
X64897000Y-87680155D01*
X65126890Y-87801476D01*
X65536924Y-87631645D01*
X65965183Y-87241358D01*
X66026157Y-87111522D01*
X66239375Y-87430625D01*
X66730582Y-87758839D01*
X67163744Y-87845000D01*
X67456256Y-87845000D01*
X67889418Y-87758839D01*
X68380625Y-87430625D01*
X68580000Y-87132239D01*
X68779375Y-87430625D01*
X69270582Y-87758839D01*
X69703744Y-87845000D01*
X69996256Y-87845000D01*
X70429418Y-87758839D01*
X70920625Y-87430625D01*
X71248839Y-86939418D01*
X71290529Y-86729825D01*
X72020175Y-87459471D01*
X71810582Y-87501161D01*
X71319375Y-87829375D01*
X70991161Y-88320582D01*
X70875908Y-88900000D01*
X70991161Y-89479418D01*
X71319375Y-89970625D01*
X71617761Y-90170000D01*
X71319375Y-90369375D01*
X70991161Y-90860582D01*
X70875908Y-91440000D01*
X70991161Y-92019418D01*
X71247435Y-92402959D01*
X68527394Y-95123000D01*
X65532000Y-95123000D01*
X65532000Y-93345000D01*
X65522333Y-93296399D01*
X65494803Y-93255197D01*
X65453601Y-93227667D01*
X65405000Y-93218000D01*
X56515000Y-93218000D01*
X56466399Y-93227667D01*
X56425197Y-93255197D01*
X56397667Y-93296399D01*
X56388000Y-93345000D01*
X56388000Y-95123000D01*
X54662606Y-95123000D01*
X51524803Y-91985197D01*
X51483601Y-91957667D01*
X51435000Y-91948000D01*
X50943045Y-91948000D01*
X51044092Y-91440000D01*
X50928839Y-90860582D01*
X50600625Y-90369375D01*
X50302239Y-90170000D01*
X50600625Y-89970625D01*
X50928839Y-89479418D01*
X51044092Y-88900000D01*
X50928839Y-88320582D01*
X50600625Y-87829375D01*
X50109418Y-87501161D01*
X49899825Y-87459471D01*
X50629471Y-86729825D01*
X50671161Y-86939418D01*
X50999375Y-87430625D01*
X51490582Y-87758839D01*
X51923744Y-87845000D01*
X52216256Y-87845000D01*
X52649418Y-87758839D01*
X53140625Y-87430625D01*
X53340000Y-87132239D01*
X53539375Y-87430625D01*
X54030582Y-87758839D01*
X54463744Y-87845000D01*
X54756256Y-87845000D01*
X55189418Y-87758839D01*
X55680625Y-87430625D01*
X55880000Y-87132239D01*
X56079375Y-87430625D01*
X56570582Y-87758839D01*
X57003744Y-87845000D01*
X57296256Y-87845000D01*
X57729418Y-87758839D01*
X58220625Y-87430625D01*
X58420000Y-87132239D01*
X58619375Y-87430625D01*
X59110582Y-87758839D01*
X59543744Y-87845000D01*
X59836256Y-87845000D01*
X60269418Y-87758839D01*
X60760625Y-87430625D01*
X60960000Y-87132239D01*
X61159375Y-87430625D01*
X61650582Y-87758839D01*
X62083744Y-87845000D01*
X62376256Y-87845000D01*
X62809418Y-87758839D01*
X63300625Y-87430625D01*
X63513843Y-87111522D01*
X63574817Y-87241358D01*
X64003076Y-87631645D01*
X64413110Y-87801476D01*
X64643000Y-87680155D01*
X64643000Y-86487000D01*
X64623000Y-86487000D01*
X64623000Y-86233000D01*
X64643000Y-86233000D01*
X64643000Y-86213000D01*
X64897000Y-86213000D01*
X64897000Y-86233000D01*
G04 #@! TO.N,/ADC2_42_REF2-*
G36*
X67437000Y-111633000D02*
X67457000Y-111633000D01*
X67457000Y-111887000D01*
X67437000Y-111887000D01*
X67437000Y-111907000D01*
X67183000Y-111907000D01*
X67183000Y-111887000D01*
X67163000Y-111887000D01*
X67163000Y-111633000D01*
X67183000Y-111633000D01*
X67183000Y-111613000D01*
X67437000Y-111613000D01*
X67437000Y-111633000D01*
X67437000Y-111633000D01*
G37*
X67437000Y-111633000D02*
X67457000Y-111633000D01*
X67457000Y-111887000D01*
X67437000Y-111887000D01*
X67437000Y-111907000D01*
X67183000Y-111907000D01*
X67183000Y-111887000D01*
X67163000Y-111887000D01*
X67163000Y-111633000D01*
X67183000Y-111633000D01*
X67183000Y-111613000D01*
X67437000Y-111613000D01*
X67437000Y-111633000D01*
G36*
X57277000Y-111633000D02*
X57297000Y-111633000D01*
X57297000Y-111887000D01*
X57277000Y-111887000D01*
X57277000Y-111907000D01*
X57023000Y-111907000D01*
X57023000Y-111887000D01*
X57003000Y-111887000D01*
X57003000Y-111633000D01*
X57023000Y-111633000D01*
X57023000Y-111613000D01*
X57277000Y-111613000D01*
X57277000Y-111633000D01*
X57277000Y-111633000D01*
G37*
X57277000Y-111633000D02*
X57297000Y-111633000D01*
X57297000Y-111887000D01*
X57277000Y-111887000D01*
X57277000Y-111907000D01*
X57023000Y-111907000D01*
X57023000Y-111887000D01*
X57003000Y-111887000D01*
X57003000Y-111633000D01*
X57023000Y-111633000D01*
X57023000Y-111613000D01*
X57277000Y-111613000D01*
X57277000Y-111633000D01*
G36*
X54510197Y-96189803D02*
X54551399Y-96217333D01*
X54600000Y-96227000D01*
X56675000Y-96227000D01*
X56675000Y-96979413D01*
X56661872Y-97022930D01*
X56675000Y-97154164D01*
X56675000Y-97504250D01*
X56833750Y-97663000D01*
X57161349Y-97663000D01*
X57135860Y-97673558D01*
X57134685Y-97712092D01*
X57130075Y-97716702D01*
X57132310Y-97790000D01*
X57130075Y-97863298D01*
X57134685Y-97867908D01*
X57135860Y-97906442D01*
X57170858Y-97917000D01*
X56833750Y-97917000D01*
X56675000Y-98075750D01*
X56675000Y-98339413D01*
X56661872Y-98382930D01*
X56675000Y-98514164D01*
X56675000Y-99699413D01*
X56661872Y-99742930D01*
X56675000Y-99874164D01*
X56675000Y-101059413D01*
X56661872Y-101102930D01*
X56675000Y-101234164D01*
X56675000Y-101566310D01*
X56771673Y-101799699D01*
X56950302Y-101978327D01*
X57183691Y-102075000D01*
X57429413Y-102075000D01*
X57472930Y-102088128D01*
X57604164Y-102075000D01*
X58789413Y-102075000D01*
X58832930Y-102088128D01*
X58964164Y-102075000D01*
X60149413Y-102075000D01*
X60192930Y-102088128D01*
X60324164Y-102075000D01*
X60674250Y-102075000D01*
X60833000Y-101916250D01*
X60833000Y-101588651D01*
X60843558Y-101614140D01*
X60882092Y-101615315D01*
X60886702Y-101619925D01*
X60960000Y-101617690D01*
X61033298Y-101619925D01*
X61037908Y-101615315D01*
X61076442Y-101614140D01*
X61087000Y-101579142D01*
X61087000Y-101916250D01*
X61245750Y-102075000D01*
X61509413Y-102075000D01*
X61552930Y-102088128D01*
X61684164Y-102075000D01*
X62869413Y-102075000D01*
X62912930Y-102088128D01*
X63044164Y-102075000D01*
X64229413Y-102075000D01*
X64272930Y-102088128D01*
X64404164Y-102075000D01*
X64736309Y-102075000D01*
X64969698Y-101978327D01*
X65148327Y-101799699D01*
X65245000Y-101566310D01*
X65245000Y-101320587D01*
X65258128Y-101277070D01*
X65245000Y-101145836D01*
X65245000Y-99960587D01*
X65258128Y-99917070D01*
X65245000Y-99785836D01*
X65245000Y-98600587D01*
X65258128Y-98557070D01*
X65245000Y-98425836D01*
X65245000Y-98075750D01*
X65086250Y-97917000D01*
X64758651Y-97917000D01*
X64784140Y-97906442D01*
X64785315Y-97867908D01*
X64789925Y-97863298D01*
X64787690Y-97790000D01*
X64789925Y-97716702D01*
X64785315Y-97712092D01*
X64784140Y-97673558D01*
X64749142Y-97663000D01*
X65086250Y-97663000D01*
X65245000Y-97504250D01*
X65245000Y-97240587D01*
X65258128Y-97197070D01*
X65245000Y-97065836D01*
X65245000Y-96227000D01*
X68600000Y-96227000D01*
X68648601Y-96217333D01*
X68689803Y-96189803D01*
X70879840Y-93999766D01*
X70991161Y-94559418D01*
X71319375Y-95050625D01*
X71617761Y-95250000D01*
X71319375Y-95449375D01*
X70991161Y-95940582D01*
X70875908Y-96520000D01*
X70991161Y-97099418D01*
X71319375Y-97590625D01*
X71617761Y-97790000D01*
X71319375Y-97989375D01*
X70991161Y-98480582D01*
X70875908Y-99060000D01*
X70991161Y-99639418D01*
X71319375Y-100130625D01*
X71617761Y-100330000D01*
X71319375Y-100529375D01*
X70991161Y-101020582D01*
X70875908Y-101600000D01*
X70991161Y-102179418D01*
X71319375Y-102670625D01*
X71617761Y-102870000D01*
X71319375Y-103069375D01*
X70991161Y-103560582D01*
X70875908Y-104140000D01*
X70991161Y-104719418D01*
X71319375Y-105210625D01*
X71617761Y-105410000D01*
X71319375Y-105609375D01*
X70991161Y-106100582D01*
X70875908Y-106680000D01*
X70991161Y-107259418D01*
X71319375Y-107750625D01*
X71810582Y-108078839D01*
X72020175Y-108120529D01*
X71290529Y-108850175D01*
X71248839Y-108640582D01*
X70920625Y-108149375D01*
X70429418Y-107821161D01*
X69996256Y-107735000D01*
X69703744Y-107735000D01*
X69270582Y-107821161D01*
X68779375Y-108149375D01*
X68580000Y-108447761D01*
X68380625Y-108149375D01*
X67889418Y-107821161D01*
X67456256Y-107735000D01*
X67163744Y-107735000D01*
X66730582Y-107821161D01*
X66239375Y-108149375D01*
X66026157Y-108468478D01*
X65965183Y-108338642D01*
X65536924Y-107948355D01*
X65126890Y-107778524D01*
X64897000Y-107899845D01*
X64897000Y-109093000D01*
X64917000Y-109093000D01*
X64917000Y-109347000D01*
X64897000Y-109347000D01*
X64897000Y-109367000D01*
X64643000Y-109367000D01*
X64643000Y-109347000D01*
X64623000Y-109347000D01*
X64623000Y-109093000D01*
X64643000Y-109093000D01*
X64643000Y-107899845D01*
X64413110Y-107778524D01*
X64003076Y-107948355D01*
X63574817Y-108338642D01*
X63513843Y-108468478D01*
X63300625Y-108149375D01*
X62809418Y-107821161D01*
X62376256Y-107735000D01*
X62083744Y-107735000D01*
X61650582Y-107821161D01*
X61159375Y-108149375D01*
X60960000Y-108447761D01*
X60760625Y-108149375D01*
X60269418Y-107821161D01*
X59836256Y-107735000D01*
X59543744Y-107735000D01*
X59110582Y-107821161D01*
X58619375Y-108149375D01*
X58420000Y-108447761D01*
X58220625Y-108149375D01*
X57729418Y-107821161D01*
X57296256Y-107735000D01*
X57003744Y-107735000D01*
X56570582Y-107821161D01*
X56079375Y-108149375D01*
X55880000Y-108447761D01*
X55680625Y-108149375D01*
X55189418Y-107821161D01*
X54756256Y-107735000D01*
X54463744Y-107735000D01*
X54030582Y-107821161D01*
X53539375Y-108149375D01*
X53326157Y-108468478D01*
X53265183Y-108338642D01*
X52836924Y-107948355D01*
X52426890Y-107778524D01*
X52197000Y-107899845D01*
X52197000Y-109093000D01*
X52217000Y-109093000D01*
X52217000Y-109347000D01*
X52197000Y-109347000D01*
X52197000Y-109367000D01*
X51943000Y-109367000D01*
X51943000Y-109347000D01*
X51923000Y-109347000D01*
X51923000Y-109093000D01*
X51943000Y-109093000D01*
X51943000Y-107899845D01*
X51713110Y-107778524D01*
X51303076Y-107948355D01*
X50874817Y-108338642D01*
X50632953Y-108853657D01*
X49899825Y-108120529D01*
X50109418Y-108078839D01*
X50600625Y-107750625D01*
X50928839Y-107259418D01*
X51044092Y-106680000D01*
X50928839Y-106100582D01*
X50600625Y-105609375D01*
X50302239Y-105410000D01*
X50600625Y-105210625D01*
X50928839Y-104719418D01*
X51044092Y-104140000D01*
X50928839Y-103560582D01*
X50600625Y-103069375D01*
X50281522Y-102856157D01*
X50411358Y-102795183D01*
X50801645Y-102366924D01*
X50971476Y-101956890D01*
X50850155Y-101727000D01*
X49657000Y-101727000D01*
X49657000Y-101747000D01*
X49403000Y-101747000D01*
X49403000Y-101727000D01*
X49383000Y-101727000D01*
X49383000Y-101473000D01*
X49403000Y-101473000D01*
X49403000Y-99187000D01*
X49657000Y-99187000D01*
X49657000Y-101473000D01*
X50850155Y-101473000D01*
X50971476Y-101243110D01*
X50801645Y-100833076D01*
X50411358Y-100404817D01*
X50252046Y-100330000D01*
X50411358Y-100255183D01*
X50801645Y-99826924D01*
X50971476Y-99416890D01*
X50850155Y-99187000D01*
X49657000Y-99187000D01*
X49403000Y-99187000D01*
X49383000Y-99187000D01*
X49383000Y-98933000D01*
X49403000Y-98933000D01*
X49403000Y-98913000D01*
X49657000Y-98913000D01*
X49657000Y-98933000D01*
X50850155Y-98933000D01*
X50971476Y-98703110D01*
X50801645Y-98293076D01*
X50411358Y-97864817D01*
X50281522Y-97803843D01*
X50600625Y-97590625D01*
X50928839Y-97099418D01*
X51044092Y-96520000D01*
X50928839Y-95940582D01*
X50600625Y-95449375D01*
X50302239Y-95250000D01*
X50600625Y-95050625D01*
X50928839Y-94559418D01*
X51044092Y-93980000D01*
X50928839Y-93400582D01*
X50679220Y-93027000D01*
X51347394Y-93027000D01*
X54510197Y-96189803D01*
X54510197Y-96189803D01*
G37*
X54510197Y-96189803D02*
X54551399Y-96217333D01*
X54600000Y-96227000D01*
X56675000Y-96227000D01*
X56675000Y-96979413D01*
X56661872Y-97022930D01*
X56675000Y-97154164D01*
X56675000Y-97504250D01*
X56833750Y-97663000D01*
X57161349Y-97663000D01*
X57135860Y-97673558D01*
X57134685Y-97712092D01*
X57130075Y-97716702D01*
X57132310Y-97790000D01*
X57130075Y-97863298D01*
X57134685Y-97867908D01*
X57135860Y-97906442D01*
X57170858Y-97917000D01*
X56833750Y-97917000D01*
X56675000Y-98075750D01*
X56675000Y-98339413D01*
X56661872Y-98382930D01*
X56675000Y-98514164D01*
X56675000Y-99699413D01*
X56661872Y-99742930D01*
X56675000Y-99874164D01*
X56675000Y-101059413D01*
X56661872Y-101102930D01*
X56675000Y-101234164D01*
X56675000Y-101566310D01*
X56771673Y-101799699D01*
X56950302Y-101978327D01*
X57183691Y-102075000D01*
X57429413Y-102075000D01*
X57472930Y-102088128D01*
X57604164Y-102075000D01*
X58789413Y-102075000D01*
X58832930Y-102088128D01*
X58964164Y-102075000D01*
X60149413Y-102075000D01*
X60192930Y-102088128D01*
X60324164Y-102075000D01*
X60674250Y-102075000D01*
X60833000Y-101916250D01*
X60833000Y-101588651D01*
X60843558Y-101614140D01*
X60882092Y-101615315D01*
X60886702Y-101619925D01*
X60960000Y-101617690D01*
X61033298Y-101619925D01*
X61037908Y-101615315D01*
X61076442Y-101614140D01*
X61087000Y-101579142D01*
X61087000Y-101916250D01*
X61245750Y-102075000D01*
X61509413Y-102075000D01*
X61552930Y-102088128D01*
X61684164Y-102075000D01*
X62869413Y-102075000D01*
X62912930Y-102088128D01*
X63044164Y-102075000D01*
X64229413Y-102075000D01*
X64272930Y-102088128D01*
X64404164Y-102075000D01*
X64736309Y-102075000D01*
X64969698Y-101978327D01*
X65148327Y-101799699D01*
X65245000Y-101566310D01*
X65245000Y-101320587D01*
X65258128Y-101277070D01*
X65245000Y-101145836D01*
X65245000Y-99960587D01*
X65258128Y-99917070D01*
X65245000Y-99785836D01*
X65245000Y-98600587D01*
X65258128Y-98557070D01*
X65245000Y-98425836D01*
X65245000Y-98075750D01*
X65086250Y-97917000D01*
X64758651Y-97917000D01*
X64784140Y-97906442D01*
X64785315Y-97867908D01*
X64789925Y-97863298D01*
X64787690Y-97790000D01*
X64789925Y-97716702D01*
X64785315Y-97712092D01*
X64784140Y-97673558D01*
X64749142Y-97663000D01*
X65086250Y-97663000D01*
X65245000Y-97504250D01*
X65245000Y-97240587D01*
X65258128Y-97197070D01*
X65245000Y-97065836D01*
X65245000Y-96227000D01*
X68600000Y-96227000D01*
X68648601Y-96217333D01*
X68689803Y-96189803D01*
X70879840Y-93999766D01*
X70991161Y-94559418D01*
X71319375Y-95050625D01*
X71617761Y-95250000D01*
X71319375Y-95449375D01*
X70991161Y-95940582D01*
X70875908Y-96520000D01*
X70991161Y-97099418D01*
X71319375Y-97590625D01*
X71617761Y-97790000D01*
X71319375Y-97989375D01*
X70991161Y-98480582D01*
X70875908Y-99060000D01*
X70991161Y-99639418D01*
X71319375Y-100130625D01*
X71617761Y-100330000D01*
X71319375Y-100529375D01*
X70991161Y-101020582D01*
X70875908Y-101600000D01*
X70991161Y-102179418D01*
X71319375Y-102670625D01*
X71617761Y-102870000D01*
X71319375Y-103069375D01*
X70991161Y-103560582D01*
X70875908Y-104140000D01*
X70991161Y-104719418D01*
X71319375Y-105210625D01*
X71617761Y-105410000D01*
X71319375Y-105609375D01*
X70991161Y-106100582D01*
X70875908Y-106680000D01*
X70991161Y-107259418D01*
X71319375Y-107750625D01*
X71810582Y-108078839D01*
X72020175Y-108120529D01*
X71290529Y-108850175D01*
X71248839Y-108640582D01*
X70920625Y-108149375D01*
X70429418Y-107821161D01*
X69996256Y-107735000D01*
X69703744Y-107735000D01*
X69270582Y-107821161D01*
X68779375Y-108149375D01*
X68580000Y-108447761D01*
X68380625Y-108149375D01*
X67889418Y-107821161D01*
X67456256Y-107735000D01*
X67163744Y-107735000D01*
X66730582Y-107821161D01*
X66239375Y-108149375D01*
X66026157Y-108468478D01*
X65965183Y-108338642D01*
X65536924Y-107948355D01*
X65126890Y-107778524D01*
X64897000Y-107899845D01*
X64897000Y-109093000D01*
X64917000Y-109093000D01*
X64917000Y-109347000D01*
X64897000Y-109347000D01*
X64897000Y-109367000D01*
X64643000Y-109367000D01*
X64643000Y-109347000D01*
X64623000Y-109347000D01*
X64623000Y-109093000D01*
X64643000Y-109093000D01*
X64643000Y-107899845D01*
X64413110Y-107778524D01*
X64003076Y-107948355D01*
X63574817Y-108338642D01*
X63513843Y-108468478D01*
X63300625Y-108149375D01*
X62809418Y-107821161D01*
X62376256Y-107735000D01*
X62083744Y-107735000D01*
X61650582Y-107821161D01*
X61159375Y-108149375D01*
X60960000Y-108447761D01*
X60760625Y-108149375D01*
X60269418Y-107821161D01*
X59836256Y-107735000D01*
X59543744Y-107735000D01*
X59110582Y-107821161D01*
X58619375Y-108149375D01*
X58420000Y-108447761D01*
X58220625Y-108149375D01*
X57729418Y-107821161D01*
X57296256Y-107735000D01*
X57003744Y-107735000D01*
X56570582Y-107821161D01*
X56079375Y-108149375D01*
X55880000Y-108447761D01*
X55680625Y-108149375D01*
X55189418Y-107821161D01*
X54756256Y-107735000D01*
X54463744Y-107735000D01*
X54030582Y-107821161D01*
X53539375Y-108149375D01*
X53326157Y-108468478D01*
X53265183Y-108338642D01*
X52836924Y-107948355D01*
X52426890Y-107778524D01*
X52197000Y-107899845D01*
X52197000Y-109093000D01*
X52217000Y-109093000D01*
X52217000Y-109347000D01*
X52197000Y-109347000D01*
X52197000Y-109367000D01*
X51943000Y-109367000D01*
X51943000Y-109347000D01*
X51923000Y-109347000D01*
X51923000Y-109093000D01*
X51943000Y-109093000D01*
X51943000Y-107899845D01*
X51713110Y-107778524D01*
X51303076Y-107948355D01*
X50874817Y-108338642D01*
X50632953Y-108853657D01*
X49899825Y-108120529D01*
X50109418Y-108078839D01*
X50600625Y-107750625D01*
X50928839Y-107259418D01*
X51044092Y-106680000D01*
X50928839Y-106100582D01*
X50600625Y-105609375D01*
X50302239Y-105410000D01*
X50600625Y-105210625D01*
X50928839Y-104719418D01*
X51044092Y-104140000D01*
X50928839Y-103560582D01*
X50600625Y-103069375D01*
X50281522Y-102856157D01*
X50411358Y-102795183D01*
X50801645Y-102366924D01*
X50971476Y-101956890D01*
X50850155Y-101727000D01*
X49657000Y-101727000D01*
X49657000Y-101747000D01*
X49403000Y-101747000D01*
X49403000Y-101727000D01*
X49383000Y-101727000D01*
X49383000Y-101473000D01*
X49403000Y-101473000D01*
X49403000Y-99187000D01*
X49657000Y-99187000D01*
X49657000Y-101473000D01*
X50850155Y-101473000D01*
X50971476Y-101243110D01*
X50801645Y-100833076D01*
X50411358Y-100404817D01*
X50252046Y-100330000D01*
X50411358Y-100255183D01*
X50801645Y-99826924D01*
X50971476Y-99416890D01*
X50850155Y-99187000D01*
X49657000Y-99187000D01*
X49403000Y-99187000D01*
X49383000Y-99187000D01*
X49383000Y-98933000D01*
X49403000Y-98933000D01*
X49403000Y-98913000D01*
X49657000Y-98913000D01*
X49657000Y-98933000D01*
X50850155Y-98933000D01*
X50971476Y-98703110D01*
X50801645Y-98293076D01*
X50411358Y-97864817D01*
X50281522Y-97803843D01*
X50600625Y-97590625D01*
X50928839Y-97099418D01*
X51044092Y-96520000D01*
X50928839Y-95940582D01*
X50600625Y-95449375D01*
X50302239Y-95250000D01*
X50600625Y-95050625D01*
X50928839Y-94559418D01*
X51044092Y-93980000D01*
X50928839Y-93400582D01*
X50679220Y-93027000D01*
X51347394Y-93027000D01*
X54510197Y-96189803D01*
G36*
X75057000Y-98933000D02*
X75077000Y-98933000D01*
X75077000Y-99187000D01*
X75057000Y-99187000D01*
X75057000Y-101473000D01*
X75077000Y-101473000D01*
X75077000Y-101727000D01*
X75057000Y-101727000D01*
X75057000Y-101747000D01*
X74803000Y-101747000D01*
X74803000Y-101727000D01*
X74783000Y-101727000D01*
X74783000Y-101473000D01*
X74803000Y-101473000D01*
X74803000Y-99187000D01*
X74783000Y-99187000D01*
X74783000Y-98933000D01*
X74803000Y-98933000D01*
X74803000Y-98913000D01*
X75057000Y-98913000D01*
X75057000Y-98933000D01*
X75057000Y-98933000D01*
G37*
X75057000Y-98933000D02*
X75077000Y-98933000D01*
X75077000Y-99187000D01*
X75057000Y-99187000D01*
X75057000Y-101473000D01*
X75077000Y-101473000D01*
X75077000Y-101727000D01*
X75057000Y-101727000D01*
X75057000Y-101747000D01*
X74803000Y-101747000D01*
X74803000Y-101727000D01*
X74783000Y-101727000D01*
X74783000Y-101473000D01*
X74803000Y-101473000D01*
X74803000Y-99187000D01*
X74783000Y-99187000D01*
X74783000Y-98933000D01*
X74803000Y-98933000D01*
X74803000Y-98913000D01*
X75057000Y-98913000D01*
X75057000Y-98933000D01*
G36*
X61087000Y-97663000D02*
X61241349Y-97663000D01*
X61215860Y-97673558D01*
X61214685Y-97712092D01*
X61210075Y-97716702D01*
X61212310Y-97790000D01*
X61210075Y-97863298D01*
X61214685Y-97867908D01*
X61215860Y-97906442D01*
X61250858Y-97917000D01*
X61087000Y-97917000D01*
X61087000Y-98071349D01*
X61076442Y-98045860D01*
X61037908Y-98044685D01*
X61033298Y-98040075D01*
X60960000Y-98042310D01*
X60886702Y-98040075D01*
X60882092Y-98044685D01*
X60843558Y-98045860D01*
X60833000Y-98080858D01*
X60833000Y-97917000D01*
X60678651Y-97917000D01*
X60704140Y-97906442D01*
X60705315Y-97867908D01*
X60709925Y-97863298D01*
X60707690Y-97790000D01*
X60709925Y-97716702D01*
X60705315Y-97712092D01*
X60704140Y-97673558D01*
X60669142Y-97663000D01*
X60833000Y-97663000D01*
X60833000Y-97643000D01*
X61087000Y-97643000D01*
X61087000Y-97663000D01*
X61087000Y-97663000D01*
G37*
X61087000Y-97663000D02*
X61241349Y-97663000D01*
X61215860Y-97673558D01*
X61214685Y-97712092D01*
X61210075Y-97716702D01*
X61212310Y-97790000D01*
X61210075Y-97863298D01*
X61214685Y-97867908D01*
X61215860Y-97906442D01*
X61250858Y-97917000D01*
X61087000Y-97917000D01*
X61087000Y-98071349D01*
X61076442Y-98045860D01*
X61037908Y-98044685D01*
X61033298Y-98040075D01*
X60960000Y-98042310D01*
X60886702Y-98040075D01*
X60882092Y-98044685D01*
X60843558Y-98045860D01*
X60833000Y-98080858D01*
X60833000Y-97917000D01*
X60678651Y-97917000D01*
X60704140Y-97906442D01*
X60705315Y-97867908D01*
X60709925Y-97863298D01*
X60707690Y-97790000D01*
X60709925Y-97716702D01*
X60705315Y-97712092D01*
X60704140Y-97673558D01*
X60669142Y-97663000D01*
X60833000Y-97663000D01*
X60833000Y-97643000D01*
X61087000Y-97643000D01*
X61087000Y-97663000D01*
G04 #@! TO.N,/ADC4_42_REF2-*
G36*
X108850175Y-50629471D02*
X108640582Y-50671161D01*
X108149375Y-50999375D01*
X107821161Y-51490582D01*
X107705908Y-52070000D01*
X107821161Y-52649418D01*
X108149375Y-53140625D01*
X108447761Y-53340000D01*
X108149375Y-53539375D01*
X107821161Y-54030582D01*
X107705908Y-54610000D01*
X107821161Y-55189418D01*
X108149375Y-55680625D01*
X108468478Y-55893843D01*
X108338642Y-55954817D01*
X107948355Y-56383076D01*
X107778524Y-56793110D01*
X107899845Y-57023000D01*
X109093000Y-57023000D01*
X109093000Y-57003000D01*
X109347000Y-57003000D01*
X109347000Y-57023000D01*
X109367000Y-57023000D01*
X109367000Y-57277000D01*
X109347000Y-57277000D01*
X109347000Y-57297000D01*
X109093000Y-57297000D01*
X109093000Y-57277000D01*
X107899845Y-57277000D01*
X107778524Y-57506890D01*
X107948355Y-57916924D01*
X108338642Y-58345183D01*
X108468478Y-58406157D01*
X108149375Y-58619375D01*
X107821161Y-59110582D01*
X107705908Y-59690000D01*
X107821161Y-60269418D01*
X108149375Y-60760625D01*
X108447761Y-60960000D01*
X108149375Y-61159375D01*
X107821161Y-61650582D01*
X107705908Y-62230000D01*
X107821161Y-62809418D01*
X108149375Y-63300625D01*
X108447761Y-63500000D01*
X108149375Y-63699375D01*
X107821161Y-64190582D01*
X107705908Y-64770000D01*
X107821161Y-65349418D01*
X108149375Y-65840625D01*
X108447761Y-66040000D01*
X108149375Y-66239375D01*
X107821161Y-66730582D01*
X107705908Y-67310000D01*
X107821161Y-67889418D01*
X108149375Y-68380625D01*
X108468478Y-68593843D01*
X108338642Y-68654817D01*
X107948355Y-69083076D01*
X107778524Y-69493110D01*
X107899845Y-69723000D01*
X109093000Y-69723000D01*
X109093000Y-69703000D01*
X109347000Y-69703000D01*
X109347000Y-69723000D01*
X109367000Y-69723000D01*
X109367000Y-69977000D01*
X109347000Y-69977000D01*
X109347000Y-69997000D01*
X109093000Y-69997000D01*
X109093000Y-69977000D01*
X107899845Y-69977000D01*
X107778524Y-70206890D01*
X107948355Y-70616924D01*
X108338642Y-71045183D01*
X108853657Y-71287047D01*
X108120529Y-72020175D01*
X108078839Y-71810582D01*
X107750625Y-71319375D01*
X107259418Y-70991161D01*
X106826256Y-70905000D01*
X106533744Y-70905000D01*
X106100582Y-70991161D01*
X105609375Y-71319375D01*
X105410000Y-71617761D01*
X105210625Y-71319375D01*
X104719418Y-70991161D01*
X104286256Y-70905000D01*
X103993744Y-70905000D01*
X103560582Y-70991161D01*
X103069375Y-71319375D01*
X102856157Y-71638478D01*
X102795183Y-71508642D01*
X102366924Y-71118355D01*
X101956890Y-70948524D01*
X101727000Y-71069845D01*
X101727000Y-72263000D01*
X101747000Y-72263000D01*
X101747000Y-72517000D01*
X101727000Y-72517000D01*
X101727000Y-72537000D01*
X101473000Y-72537000D01*
X101473000Y-72517000D01*
X99187000Y-72517000D01*
X99187000Y-72537000D01*
X98933000Y-72537000D01*
X98933000Y-72517000D01*
X98913000Y-72517000D01*
X98913000Y-72263000D01*
X98933000Y-72263000D01*
X98933000Y-71069845D01*
X99187000Y-71069845D01*
X99187000Y-72263000D01*
X101473000Y-72263000D01*
X101473000Y-71069845D01*
X101243110Y-70948524D01*
X100833076Y-71118355D01*
X100404817Y-71508642D01*
X100330000Y-71667954D01*
X100255183Y-71508642D01*
X99826924Y-71118355D01*
X99416890Y-70948524D01*
X99187000Y-71069845D01*
X98933000Y-71069845D01*
X98703110Y-70948524D01*
X98293076Y-71118355D01*
X97864817Y-71508642D01*
X97803843Y-71638478D01*
X97590625Y-71319375D01*
X97099418Y-70991161D01*
X96666256Y-70905000D01*
X96373744Y-70905000D01*
X95940582Y-70991161D01*
X95449375Y-71319375D01*
X95250000Y-71617761D01*
X95050625Y-71319375D01*
X94559418Y-70991161D01*
X94126256Y-70905000D01*
X93833744Y-70905000D01*
X93400582Y-70991161D01*
X93027000Y-71240780D01*
X93027000Y-70552606D01*
X96189803Y-67389803D01*
X96217333Y-67348601D01*
X96227000Y-67300000D01*
X96227000Y-65245000D01*
X96979413Y-65245000D01*
X97022930Y-65258128D01*
X97154164Y-65245000D01*
X97504250Y-65245000D01*
X97663000Y-65086250D01*
X97663000Y-64758651D01*
X97673558Y-64784140D01*
X97712092Y-64785315D01*
X97716702Y-64789925D01*
X97790000Y-64787690D01*
X97863298Y-64789925D01*
X97867908Y-64785315D01*
X97906442Y-64784140D01*
X97917000Y-64749142D01*
X97917000Y-65086250D01*
X98075750Y-65245000D01*
X98339413Y-65245000D01*
X98382930Y-65258128D01*
X98514164Y-65245000D01*
X99699413Y-65245000D01*
X99742930Y-65258128D01*
X99874164Y-65245000D01*
X101059413Y-65245000D01*
X101102930Y-65258128D01*
X101234164Y-65245000D01*
X101566310Y-65245000D01*
X101799699Y-65148327D01*
X101978327Y-64969698D01*
X102075000Y-64736309D01*
X102075000Y-64490587D01*
X102088128Y-64447070D01*
X102075000Y-64315836D01*
X102075000Y-63130587D01*
X102088128Y-63087070D01*
X102075000Y-62955836D01*
X102075000Y-61770587D01*
X102088128Y-61727070D01*
X102075000Y-61595836D01*
X102075000Y-61245750D01*
X101916250Y-61087000D01*
X101588651Y-61087000D01*
X101614140Y-61076442D01*
X101615315Y-61037908D01*
X101619925Y-61033298D01*
X101617690Y-60960000D01*
X101619925Y-60886702D01*
X101615315Y-60882092D01*
X101614140Y-60843558D01*
X101579142Y-60833000D01*
X101916250Y-60833000D01*
X102075000Y-60674250D01*
X102075000Y-60410587D01*
X102088128Y-60367070D01*
X102075000Y-60235836D01*
X102075000Y-59050587D01*
X102088128Y-59007070D01*
X102075000Y-58875836D01*
X102075000Y-57690587D01*
X102088128Y-57647070D01*
X102075000Y-57515836D01*
X102075000Y-57183691D01*
X101978327Y-56950302D01*
X101799699Y-56771673D01*
X101566310Y-56675000D01*
X101320587Y-56675000D01*
X101277070Y-56661872D01*
X101145836Y-56675000D01*
X99960587Y-56675000D01*
X99917070Y-56661872D01*
X99785836Y-56675000D01*
X98600587Y-56675000D01*
X98557070Y-56661872D01*
X98425836Y-56675000D01*
X98075750Y-56675000D01*
X97917000Y-56833750D01*
X97917000Y-57161349D01*
X97906442Y-57135860D01*
X97867908Y-57134685D01*
X97863298Y-57130075D01*
X97790000Y-57132310D01*
X97716702Y-57130075D01*
X97712092Y-57134685D01*
X97673558Y-57135860D01*
X97663000Y-57170858D01*
X97663000Y-56833750D01*
X97504250Y-56675000D01*
X97240587Y-56675000D01*
X97197070Y-56661872D01*
X97065836Y-56675000D01*
X96227000Y-56675000D01*
X96227000Y-53300000D01*
X96217333Y-53251399D01*
X96189803Y-53210197D01*
X93994606Y-51015000D01*
X94126256Y-51015000D01*
X94559418Y-50928839D01*
X95050625Y-50600625D01*
X95250000Y-50302239D01*
X95449375Y-50600625D01*
X95940582Y-50928839D01*
X96373744Y-51015000D01*
X96666256Y-51015000D01*
X97099418Y-50928839D01*
X97590625Y-50600625D01*
X97790000Y-50302239D01*
X97989375Y-50600625D01*
X98480582Y-50928839D01*
X98913744Y-51015000D01*
X99206256Y-51015000D01*
X99639418Y-50928839D01*
X100130625Y-50600625D01*
X100330000Y-50302239D01*
X100529375Y-50600625D01*
X101020582Y-50928839D01*
X101453744Y-51015000D01*
X101746256Y-51015000D01*
X102179418Y-50928839D01*
X102670625Y-50600625D01*
X102870000Y-50302239D01*
X103069375Y-50600625D01*
X103560582Y-50928839D01*
X103993744Y-51015000D01*
X104286256Y-51015000D01*
X104719418Y-50928839D01*
X105210625Y-50600625D01*
X105410000Y-50302239D01*
X105609375Y-50600625D01*
X106100582Y-50928839D01*
X106533744Y-51015000D01*
X106826256Y-51015000D01*
X107259418Y-50928839D01*
X107750625Y-50600625D01*
X108078839Y-50109418D01*
X108120529Y-49899825D01*
X108850175Y-50629471D01*
X108850175Y-50629471D01*
G37*
X108850175Y-50629471D02*
X108640582Y-50671161D01*
X108149375Y-50999375D01*
X107821161Y-51490582D01*
X107705908Y-52070000D01*
X107821161Y-52649418D01*
X108149375Y-53140625D01*
X108447761Y-53340000D01*
X108149375Y-53539375D01*
X107821161Y-54030582D01*
X107705908Y-54610000D01*
X107821161Y-55189418D01*
X108149375Y-55680625D01*
X108468478Y-55893843D01*
X108338642Y-55954817D01*
X107948355Y-56383076D01*
X107778524Y-56793110D01*
X107899845Y-57023000D01*
X109093000Y-57023000D01*
X109093000Y-57003000D01*
X109347000Y-57003000D01*
X109347000Y-57023000D01*
X109367000Y-57023000D01*
X109367000Y-57277000D01*
X109347000Y-57277000D01*
X109347000Y-57297000D01*
X109093000Y-57297000D01*
X109093000Y-57277000D01*
X107899845Y-57277000D01*
X107778524Y-57506890D01*
X107948355Y-57916924D01*
X108338642Y-58345183D01*
X108468478Y-58406157D01*
X108149375Y-58619375D01*
X107821161Y-59110582D01*
X107705908Y-59690000D01*
X107821161Y-60269418D01*
X108149375Y-60760625D01*
X108447761Y-60960000D01*
X108149375Y-61159375D01*
X107821161Y-61650582D01*
X107705908Y-62230000D01*
X107821161Y-62809418D01*
X108149375Y-63300625D01*
X108447761Y-63500000D01*
X108149375Y-63699375D01*
X107821161Y-64190582D01*
X107705908Y-64770000D01*
X107821161Y-65349418D01*
X108149375Y-65840625D01*
X108447761Y-66040000D01*
X108149375Y-66239375D01*
X107821161Y-66730582D01*
X107705908Y-67310000D01*
X107821161Y-67889418D01*
X108149375Y-68380625D01*
X108468478Y-68593843D01*
X108338642Y-68654817D01*
X107948355Y-69083076D01*
X107778524Y-69493110D01*
X107899845Y-69723000D01*
X109093000Y-69723000D01*
X109093000Y-69703000D01*
X109347000Y-69703000D01*
X109347000Y-69723000D01*
X109367000Y-69723000D01*
X109367000Y-69977000D01*
X109347000Y-69977000D01*
X109347000Y-69997000D01*
X109093000Y-69997000D01*
X109093000Y-69977000D01*
X107899845Y-69977000D01*
X107778524Y-70206890D01*
X107948355Y-70616924D01*
X108338642Y-71045183D01*
X108853657Y-71287047D01*
X108120529Y-72020175D01*
X108078839Y-71810582D01*
X107750625Y-71319375D01*
X107259418Y-70991161D01*
X106826256Y-70905000D01*
X106533744Y-70905000D01*
X106100582Y-70991161D01*
X105609375Y-71319375D01*
X105410000Y-71617761D01*
X105210625Y-71319375D01*
X104719418Y-70991161D01*
X104286256Y-70905000D01*
X103993744Y-70905000D01*
X103560582Y-70991161D01*
X103069375Y-71319375D01*
X102856157Y-71638478D01*
X102795183Y-71508642D01*
X102366924Y-71118355D01*
X101956890Y-70948524D01*
X101727000Y-71069845D01*
X101727000Y-72263000D01*
X101747000Y-72263000D01*
X101747000Y-72517000D01*
X101727000Y-72517000D01*
X101727000Y-72537000D01*
X101473000Y-72537000D01*
X101473000Y-72517000D01*
X99187000Y-72517000D01*
X99187000Y-72537000D01*
X98933000Y-72537000D01*
X98933000Y-72517000D01*
X98913000Y-72517000D01*
X98913000Y-72263000D01*
X98933000Y-72263000D01*
X98933000Y-71069845D01*
X99187000Y-71069845D01*
X99187000Y-72263000D01*
X101473000Y-72263000D01*
X101473000Y-71069845D01*
X101243110Y-70948524D01*
X100833076Y-71118355D01*
X100404817Y-71508642D01*
X100330000Y-71667954D01*
X100255183Y-71508642D01*
X99826924Y-71118355D01*
X99416890Y-70948524D01*
X99187000Y-71069845D01*
X98933000Y-71069845D01*
X98703110Y-70948524D01*
X98293076Y-71118355D01*
X97864817Y-71508642D01*
X97803843Y-71638478D01*
X97590625Y-71319375D01*
X97099418Y-70991161D01*
X96666256Y-70905000D01*
X96373744Y-70905000D01*
X95940582Y-70991161D01*
X95449375Y-71319375D01*
X95250000Y-71617761D01*
X95050625Y-71319375D01*
X94559418Y-70991161D01*
X94126256Y-70905000D01*
X93833744Y-70905000D01*
X93400582Y-70991161D01*
X93027000Y-71240780D01*
X93027000Y-70552606D01*
X96189803Y-67389803D01*
X96217333Y-67348601D01*
X96227000Y-67300000D01*
X96227000Y-65245000D01*
X96979413Y-65245000D01*
X97022930Y-65258128D01*
X97154164Y-65245000D01*
X97504250Y-65245000D01*
X97663000Y-65086250D01*
X97663000Y-64758651D01*
X97673558Y-64784140D01*
X97712092Y-64785315D01*
X97716702Y-64789925D01*
X97790000Y-64787690D01*
X97863298Y-64789925D01*
X97867908Y-64785315D01*
X97906442Y-64784140D01*
X97917000Y-64749142D01*
X97917000Y-65086250D01*
X98075750Y-65245000D01*
X98339413Y-65245000D01*
X98382930Y-65258128D01*
X98514164Y-65245000D01*
X99699413Y-65245000D01*
X99742930Y-65258128D01*
X99874164Y-65245000D01*
X101059413Y-65245000D01*
X101102930Y-65258128D01*
X101234164Y-65245000D01*
X101566310Y-65245000D01*
X101799699Y-65148327D01*
X101978327Y-64969698D01*
X102075000Y-64736309D01*
X102075000Y-64490587D01*
X102088128Y-64447070D01*
X102075000Y-64315836D01*
X102075000Y-63130587D01*
X102088128Y-63087070D01*
X102075000Y-62955836D01*
X102075000Y-61770587D01*
X102088128Y-61727070D01*
X102075000Y-61595836D01*
X102075000Y-61245750D01*
X101916250Y-61087000D01*
X101588651Y-61087000D01*
X101614140Y-61076442D01*
X101615315Y-61037908D01*
X101619925Y-61033298D01*
X101617690Y-60960000D01*
X101619925Y-60886702D01*
X101615315Y-60882092D01*
X101614140Y-60843558D01*
X101579142Y-60833000D01*
X101916250Y-60833000D01*
X102075000Y-60674250D01*
X102075000Y-60410587D01*
X102088128Y-60367070D01*
X102075000Y-60235836D01*
X102075000Y-59050587D01*
X102088128Y-59007070D01*
X102075000Y-58875836D01*
X102075000Y-57690587D01*
X102088128Y-57647070D01*
X102075000Y-57515836D01*
X102075000Y-57183691D01*
X101978327Y-56950302D01*
X101799699Y-56771673D01*
X101566310Y-56675000D01*
X101320587Y-56675000D01*
X101277070Y-56661872D01*
X101145836Y-56675000D01*
X99960587Y-56675000D01*
X99917070Y-56661872D01*
X99785836Y-56675000D01*
X98600587Y-56675000D01*
X98557070Y-56661872D01*
X98425836Y-56675000D01*
X98075750Y-56675000D01*
X97917000Y-56833750D01*
X97917000Y-57161349D01*
X97906442Y-57135860D01*
X97867908Y-57134685D01*
X97863298Y-57130075D01*
X97790000Y-57132310D01*
X97716702Y-57130075D01*
X97712092Y-57134685D01*
X97673558Y-57135860D01*
X97663000Y-57170858D01*
X97663000Y-56833750D01*
X97504250Y-56675000D01*
X97240587Y-56675000D01*
X97197070Y-56661872D01*
X97065836Y-56675000D01*
X96227000Y-56675000D01*
X96227000Y-53300000D01*
X96217333Y-53251399D01*
X96189803Y-53210197D01*
X93994606Y-51015000D01*
X94126256Y-51015000D01*
X94559418Y-50928839D01*
X95050625Y-50600625D01*
X95250000Y-50302239D01*
X95449375Y-50600625D01*
X95940582Y-50928839D01*
X96373744Y-51015000D01*
X96666256Y-51015000D01*
X97099418Y-50928839D01*
X97590625Y-50600625D01*
X97790000Y-50302239D01*
X97989375Y-50600625D01*
X98480582Y-50928839D01*
X98913744Y-51015000D01*
X99206256Y-51015000D01*
X99639418Y-50928839D01*
X100130625Y-50600625D01*
X100330000Y-50302239D01*
X100529375Y-50600625D01*
X101020582Y-50928839D01*
X101453744Y-51015000D01*
X101746256Y-51015000D01*
X102179418Y-50928839D01*
X102670625Y-50600625D01*
X102870000Y-50302239D01*
X103069375Y-50600625D01*
X103560582Y-50928839D01*
X103993744Y-51015000D01*
X104286256Y-51015000D01*
X104719418Y-50928839D01*
X105210625Y-50600625D01*
X105410000Y-50302239D01*
X105609375Y-50600625D01*
X106100582Y-50928839D01*
X106533744Y-51015000D01*
X106826256Y-51015000D01*
X107259418Y-50928839D01*
X107750625Y-50600625D01*
X108078839Y-50109418D01*
X108120529Y-49899825D01*
X108850175Y-50629471D01*
G36*
X111887000Y-64643000D02*
X111907000Y-64643000D01*
X111907000Y-64897000D01*
X111887000Y-64897000D01*
X111887000Y-64917000D01*
X111633000Y-64917000D01*
X111633000Y-64897000D01*
X111613000Y-64897000D01*
X111613000Y-64643000D01*
X111633000Y-64643000D01*
X111633000Y-64623000D01*
X111887000Y-64623000D01*
X111887000Y-64643000D01*
X111887000Y-64643000D01*
G37*
X111887000Y-64643000D02*
X111907000Y-64643000D01*
X111907000Y-64897000D01*
X111887000Y-64897000D01*
X111887000Y-64917000D01*
X111633000Y-64917000D01*
X111633000Y-64897000D01*
X111613000Y-64897000D01*
X111613000Y-64643000D01*
X111633000Y-64643000D01*
X111633000Y-64623000D01*
X111887000Y-64623000D01*
X111887000Y-64643000D01*
G36*
X97917000Y-60833000D02*
X98071349Y-60833000D01*
X98045860Y-60843558D01*
X98044685Y-60882092D01*
X98040075Y-60886702D01*
X98042310Y-60960000D01*
X98040075Y-61033298D01*
X98044685Y-61037908D01*
X98045860Y-61076442D01*
X98080858Y-61087000D01*
X97917000Y-61087000D01*
X97917000Y-61241349D01*
X97906442Y-61215860D01*
X97867908Y-61214685D01*
X97863298Y-61210075D01*
X97790000Y-61212310D01*
X97716702Y-61210075D01*
X97712092Y-61214685D01*
X97673558Y-61215860D01*
X97663000Y-61250858D01*
X97663000Y-61087000D01*
X97643000Y-61087000D01*
X97643000Y-60833000D01*
X97663000Y-60833000D01*
X97663000Y-60678651D01*
X97673558Y-60704140D01*
X97712092Y-60705315D01*
X97716702Y-60709925D01*
X97790000Y-60707690D01*
X97863298Y-60709925D01*
X97867908Y-60705315D01*
X97906442Y-60704140D01*
X97917000Y-60669142D01*
X97917000Y-60833000D01*
X97917000Y-60833000D01*
G37*
X97917000Y-60833000D02*
X98071349Y-60833000D01*
X98045860Y-60843558D01*
X98044685Y-60882092D01*
X98040075Y-60886702D01*
X98042310Y-60960000D01*
X98040075Y-61033298D01*
X98044685Y-61037908D01*
X98045860Y-61076442D01*
X98080858Y-61087000D01*
X97917000Y-61087000D01*
X97917000Y-61241349D01*
X97906442Y-61215860D01*
X97867908Y-61214685D01*
X97863298Y-61210075D01*
X97790000Y-61212310D01*
X97716702Y-61210075D01*
X97712092Y-61214685D01*
X97673558Y-61215860D01*
X97663000Y-61250858D01*
X97663000Y-61087000D01*
X97643000Y-61087000D01*
X97643000Y-60833000D01*
X97663000Y-60833000D01*
X97663000Y-60678651D01*
X97673558Y-60704140D01*
X97712092Y-60705315D01*
X97716702Y-60709925D01*
X97790000Y-60707690D01*
X97863298Y-60709925D01*
X97867908Y-60705315D01*
X97906442Y-60704140D01*
X97917000Y-60669142D01*
X97917000Y-60833000D01*
G36*
X111887000Y-54483000D02*
X111907000Y-54483000D01*
X111907000Y-54737000D01*
X111887000Y-54737000D01*
X111887000Y-54757000D01*
X111633000Y-54757000D01*
X111633000Y-54737000D01*
X111613000Y-54737000D01*
X111613000Y-54483000D01*
X111633000Y-54483000D01*
X111633000Y-54463000D01*
X111887000Y-54463000D01*
X111887000Y-54483000D01*
X111887000Y-54483000D01*
G37*
X111887000Y-54483000D02*
X111907000Y-54483000D01*
X111907000Y-54737000D01*
X111887000Y-54737000D01*
X111887000Y-54757000D01*
X111633000Y-54757000D01*
X111633000Y-54737000D01*
X111613000Y-54737000D01*
X111613000Y-54483000D01*
X111633000Y-54483000D01*
X111633000Y-54463000D01*
X111887000Y-54463000D01*
X111887000Y-54483000D01*
G36*
X99187000Y-46863000D02*
X101473000Y-46863000D01*
X101473000Y-46843000D01*
X101727000Y-46843000D01*
X101727000Y-46863000D01*
X101747000Y-46863000D01*
X101747000Y-47117000D01*
X101727000Y-47117000D01*
X101727000Y-47137000D01*
X101473000Y-47137000D01*
X101473000Y-47117000D01*
X99187000Y-47117000D01*
X99187000Y-47137000D01*
X98933000Y-47137000D01*
X98933000Y-47117000D01*
X98913000Y-47117000D01*
X98913000Y-46863000D01*
X98933000Y-46863000D01*
X98933000Y-46843000D01*
X99187000Y-46843000D01*
X99187000Y-46863000D01*
X99187000Y-46863000D01*
G37*
X99187000Y-46863000D02*
X101473000Y-46863000D01*
X101473000Y-46843000D01*
X101727000Y-46843000D01*
X101727000Y-46863000D01*
X101747000Y-46863000D01*
X101747000Y-47117000D01*
X101727000Y-47117000D01*
X101727000Y-47137000D01*
X101473000Y-47137000D01*
X101473000Y-47117000D01*
X99187000Y-47117000D01*
X99187000Y-47137000D01*
X98933000Y-47137000D01*
X98933000Y-47117000D01*
X98913000Y-47117000D01*
X98913000Y-46863000D01*
X98933000Y-46863000D01*
X98933000Y-46843000D01*
X99187000Y-46843000D01*
X99187000Y-46863000D01*
G04 #@! TO.N,/ADC4_22_DGND*
G36*
X87501161Y-50109418D02*
X87829375Y-50600625D01*
X88320582Y-50928839D01*
X88753744Y-51015000D01*
X89046256Y-51015000D01*
X89479418Y-50928839D01*
X89970625Y-50600625D01*
X90170000Y-50302239D01*
X90369375Y-50600625D01*
X90860582Y-50928839D01*
X91293744Y-51015000D01*
X91586256Y-51015000D01*
X92019418Y-50928839D01*
X92402959Y-50672565D01*
X95123000Y-53392606D01*
X95123000Y-56388000D01*
X93345000Y-56388000D01*
X93296399Y-56397667D01*
X93255197Y-56425197D01*
X93227667Y-56466399D01*
X93218000Y-56515000D01*
X93218000Y-65405000D01*
X93227667Y-65453601D01*
X93255197Y-65494803D01*
X93296399Y-65522333D01*
X93345000Y-65532000D01*
X95123000Y-65532000D01*
X95123000Y-67257394D01*
X91985197Y-70395197D01*
X91957667Y-70436399D01*
X91948000Y-70485000D01*
X91948000Y-70976955D01*
X91586256Y-70905000D01*
X91293744Y-70905000D01*
X90860582Y-70991161D01*
X90369375Y-71319375D01*
X90170000Y-71617761D01*
X89970625Y-71319375D01*
X89479418Y-70991161D01*
X89046256Y-70905000D01*
X88753744Y-70905000D01*
X88320582Y-70991161D01*
X87829375Y-71319375D01*
X87501161Y-71810582D01*
X87459471Y-72020175D01*
X86729825Y-71290529D01*
X86939418Y-71248839D01*
X87430625Y-70920625D01*
X87758839Y-70429418D01*
X87874092Y-69850000D01*
X87758839Y-69270582D01*
X87430625Y-68779375D01*
X87132239Y-68580000D01*
X87430625Y-68380625D01*
X87758839Y-67889418D01*
X87874092Y-67310000D01*
X87758839Y-66730582D01*
X87430625Y-66239375D01*
X87132239Y-66040000D01*
X87430625Y-65840625D01*
X87758839Y-65349418D01*
X87874092Y-64770000D01*
X87758839Y-64190582D01*
X87430625Y-63699375D01*
X87132239Y-63500000D01*
X87430625Y-63300625D01*
X87758839Y-62809418D01*
X87874092Y-62230000D01*
X87758839Y-61650582D01*
X87430625Y-61159375D01*
X87132239Y-60960000D01*
X87430625Y-60760625D01*
X87758839Y-60269418D01*
X87874092Y-59690000D01*
X87758839Y-59110582D01*
X87430625Y-58619375D01*
X87111522Y-58406157D01*
X87241358Y-58345183D01*
X87631645Y-57916924D01*
X87801476Y-57506890D01*
X87680155Y-57277000D01*
X86487000Y-57277000D01*
X86487000Y-57297000D01*
X86233000Y-57297000D01*
X86233000Y-57277000D01*
X86213000Y-57277000D01*
X86213000Y-57023000D01*
X86233000Y-57023000D01*
X86233000Y-57003000D01*
X86487000Y-57003000D01*
X86487000Y-57023000D01*
X87680155Y-57023000D01*
X87801476Y-56793110D01*
X87631645Y-56383076D01*
X87241358Y-55954817D01*
X87111522Y-55893843D01*
X87430625Y-55680625D01*
X87758839Y-55189418D01*
X87874092Y-54610000D01*
X87758839Y-54030582D01*
X87430625Y-53539375D01*
X87132239Y-53340000D01*
X87430625Y-53140625D01*
X87758839Y-52649418D01*
X87874092Y-52070000D01*
X87758839Y-51490582D01*
X87430625Y-50999375D01*
X86939418Y-50671161D01*
X86729825Y-50629471D01*
X87459471Y-49899825D01*
X87501161Y-50109418D01*
X87501161Y-50109418D01*
G37*
X87501161Y-50109418D02*
X87829375Y-50600625D01*
X88320582Y-50928839D01*
X88753744Y-51015000D01*
X89046256Y-51015000D01*
X89479418Y-50928839D01*
X89970625Y-50600625D01*
X90170000Y-50302239D01*
X90369375Y-50600625D01*
X90860582Y-50928839D01*
X91293744Y-51015000D01*
X91586256Y-51015000D01*
X92019418Y-50928839D01*
X92402959Y-50672565D01*
X95123000Y-53392606D01*
X95123000Y-56388000D01*
X93345000Y-56388000D01*
X93296399Y-56397667D01*
X93255197Y-56425197D01*
X93227667Y-56466399D01*
X93218000Y-56515000D01*
X93218000Y-65405000D01*
X93227667Y-65453601D01*
X93255197Y-65494803D01*
X93296399Y-65522333D01*
X93345000Y-65532000D01*
X95123000Y-65532000D01*
X95123000Y-67257394D01*
X91985197Y-70395197D01*
X91957667Y-70436399D01*
X91948000Y-70485000D01*
X91948000Y-70976955D01*
X91586256Y-70905000D01*
X91293744Y-70905000D01*
X90860582Y-70991161D01*
X90369375Y-71319375D01*
X90170000Y-71617761D01*
X89970625Y-71319375D01*
X89479418Y-70991161D01*
X89046256Y-70905000D01*
X88753744Y-70905000D01*
X88320582Y-70991161D01*
X87829375Y-71319375D01*
X87501161Y-71810582D01*
X87459471Y-72020175D01*
X86729825Y-71290529D01*
X86939418Y-71248839D01*
X87430625Y-70920625D01*
X87758839Y-70429418D01*
X87874092Y-69850000D01*
X87758839Y-69270582D01*
X87430625Y-68779375D01*
X87132239Y-68580000D01*
X87430625Y-68380625D01*
X87758839Y-67889418D01*
X87874092Y-67310000D01*
X87758839Y-66730582D01*
X87430625Y-66239375D01*
X87132239Y-66040000D01*
X87430625Y-65840625D01*
X87758839Y-65349418D01*
X87874092Y-64770000D01*
X87758839Y-64190582D01*
X87430625Y-63699375D01*
X87132239Y-63500000D01*
X87430625Y-63300625D01*
X87758839Y-62809418D01*
X87874092Y-62230000D01*
X87758839Y-61650582D01*
X87430625Y-61159375D01*
X87132239Y-60960000D01*
X87430625Y-60760625D01*
X87758839Y-60269418D01*
X87874092Y-59690000D01*
X87758839Y-59110582D01*
X87430625Y-58619375D01*
X87111522Y-58406157D01*
X87241358Y-58345183D01*
X87631645Y-57916924D01*
X87801476Y-57506890D01*
X87680155Y-57277000D01*
X86487000Y-57277000D01*
X86487000Y-57297000D01*
X86233000Y-57297000D01*
X86233000Y-57277000D01*
X86213000Y-57277000D01*
X86213000Y-57023000D01*
X86233000Y-57023000D01*
X86233000Y-57003000D01*
X86487000Y-57003000D01*
X86487000Y-57023000D01*
X87680155Y-57023000D01*
X87801476Y-56793110D01*
X87631645Y-56383076D01*
X87241358Y-55954817D01*
X87111522Y-55893843D01*
X87430625Y-55680625D01*
X87758839Y-55189418D01*
X87874092Y-54610000D01*
X87758839Y-54030582D01*
X87430625Y-53539375D01*
X87132239Y-53340000D01*
X87430625Y-53140625D01*
X87758839Y-52649418D01*
X87874092Y-52070000D01*
X87758839Y-51490582D01*
X87430625Y-50999375D01*
X86939418Y-50671161D01*
X86729825Y-50629471D01*
X87459471Y-49899825D01*
X87501161Y-50109418D01*
G04 #@! TO.N,/ADC3_22_DGND*
G36*
X87501161Y-18359418D02*
X87829375Y-18850625D01*
X88320582Y-19178839D01*
X88753744Y-19265000D01*
X89046256Y-19265000D01*
X89479418Y-19178839D01*
X89970625Y-18850625D01*
X90170000Y-18552239D01*
X90369375Y-18850625D01*
X90860582Y-19178839D01*
X91293744Y-19265000D01*
X91586256Y-19265000D01*
X92019418Y-19178839D01*
X92402959Y-18922565D01*
X95123000Y-21642606D01*
X95123000Y-24638000D01*
X93345000Y-24638000D01*
X93296399Y-24647667D01*
X93255197Y-24675197D01*
X93227667Y-24716399D01*
X93218000Y-24765000D01*
X93218000Y-33655000D01*
X93227667Y-33703601D01*
X93255197Y-33744803D01*
X93296399Y-33772333D01*
X93345000Y-33782000D01*
X95123000Y-33782000D01*
X95123000Y-35507394D01*
X91985197Y-38645197D01*
X91957667Y-38686399D01*
X91948000Y-38735000D01*
X91948000Y-39230238D01*
X91569750Y-39155000D01*
X91277238Y-39155000D01*
X90844076Y-39241161D01*
X90352869Y-39569375D01*
X90153494Y-39867761D01*
X89954119Y-39569375D01*
X89462912Y-39241161D01*
X89029750Y-39155000D01*
X88737238Y-39155000D01*
X88304076Y-39241161D01*
X87812869Y-39569375D01*
X87484655Y-40060582D01*
X87442964Y-40270175D01*
X86716057Y-39543268D01*
X86939418Y-39498839D01*
X87430625Y-39170625D01*
X87758839Y-38679418D01*
X87874092Y-38100000D01*
X87758839Y-37520582D01*
X87430625Y-37029375D01*
X87132239Y-36830000D01*
X87430625Y-36630625D01*
X87758839Y-36139418D01*
X87874092Y-35560000D01*
X87758839Y-34980582D01*
X87430625Y-34489375D01*
X87132239Y-34290000D01*
X87430625Y-34090625D01*
X87758839Y-33599418D01*
X87874092Y-33020000D01*
X87758839Y-32440582D01*
X87430625Y-31949375D01*
X87132239Y-31750000D01*
X87430625Y-31550625D01*
X87758839Y-31059418D01*
X87874092Y-30480000D01*
X87758839Y-29900582D01*
X87430625Y-29409375D01*
X87132239Y-29210000D01*
X87430625Y-29010625D01*
X87758839Y-28519418D01*
X87874092Y-27940000D01*
X87758839Y-27360582D01*
X87430625Y-26869375D01*
X87111522Y-26656157D01*
X87241358Y-26595183D01*
X87631645Y-26166924D01*
X87801476Y-25756890D01*
X87680155Y-25527000D01*
X86487000Y-25527000D01*
X86487000Y-25547000D01*
X86233000Y-25547000D01*
X86233000Y-25527000D01*
X86213000Y-25527000D01*
X86213000Y-25273000D01*
X86233000Y-25273000D01*
X86233000Y-25253000D01*
X86487000Y-25253000D01*
X86487000Y-25273000D01*
X87680155Y-25273000D01*
X87801476Y-25043110D01*
X87631645Y-24633076D01*
X87241358Y-24204817D01*
X87111522Y-24143843D01*
X87430625Y-23930625D01*
X87758839Y-23439418D01*
X87874092Y-22860000D01*
X87758839Y-22280582D01*
X87430625Y-21789375D01*
X87132239Y-21590000D01*
X87430625Y-21390625D01*
X87758839Y-20899418D01*
X87874092Y-20320000D01*
X87758839Y-19740582D01*
X87430625Y-19249375D01*
X86939418Y-18921161D01*
X86716057Y-18876732D01*
X87456732Y-18136057D01*
X87501161Y-18359418D01*
X87501161Y-18359418D01*
G37*
X87501161Y-18359418D02*
X87829375Y-18850625D01*
X88320582Y-19178839D01*
X88753744Y-19265000D01*
X89046256Y-19265000D01*
X89479418Y-19178839D01*
X89970625Y-18850625D01*
X90170000Y-18552239D01*
X90369375Y-18850625D01*
X90860582Y-19178839D01*
X91293744Y-19265000D01*
X91586256Y-19265000D01*
X92019418Y-19178839D01*
X92402959Y-18922565D01*
X95123000Y-21642606D01*
X95123000Y-24638000D01*
X93345000Y-24638000D01*
X93296399Y-24647667D01*
X93255197Y-24675197D01*
X93227667Y-24716399D01*
X93218000Y-24765000D01*
X93218000Y-33655000D01*
X93227667Y-33703601D01*
X93255197Y-33744803D01*
X93296399Y-33772333D01*
X93345000Y-33782000D01*
X95123000Y-33782000D01*
X95123000Y-35507394D01*
X91985197Y-38645197D01*
X91957667Y-38686399D01*
X91948000Y-38735000D01*
X91948000Y-39230238D01*
X91569750Y-39155000D01*
X91277238Y-39155000D01*
X90844076Y-39241161D01*
X90352869Y-39569375D01*
X90153494Y-39867761D01*
X89954119Y-39569375D01*
X89462912Y-39241161D01*
X89029750Y-39155000D01*
X88737238Y-39155000D01*
X88304076Y-39241161D01*
X87812869Y-39569375D01*
X87484655Y-40060582D01*
X87442964Y-40270175D01*
X86716057Y-39543268D01*
X86939418Y-39498839D01*
X87430625Y-39170625D01*
X87758839Y-38679418D01*
X87874092Y-38100000D01*
X87758839Y-37520582D01*
X87430625Y-37029375D01*
X87132239Y-36830000D01*
X87430625Y-36630625D01*
X87758839Y-36139418D01*
X87874092Y-35560000D01*
X87758839Y-34980582D01*
X87430625Y-34489375D01*
X87132239Y-34290000D01*
X87430625Y-34090625D01*
X87758839Y-33599418D01*
X87874092Y-33020000D01*
X87758839Y-32440582D01*
X87430625Y-31949375D01*
X87132239Y-31750000D01*
X87430625Y-31550625D01*
X87758839Y-31059418D01*
X87874092Y-30480000D01*
X87758839Y-29900582D01*
X87430625Y-29409375D01*
X87132239Y-29210000D01*
X87430625Y-29010625D01*
X87758839Y-28519418D01*
X87874092Y-27940000D01*
X87758839Y-27360582D01*
X87430625Y-26869375D01*
X87111522Y-26656157D01*
X87241358Y-26595183D01*
X87631645Y-26166924D01*
X87801476Y-25756890D01*
X87680155Y-25527000D01*
X86487000Y-25527000D01*
X86487000Y-25547000D01*
X86233000Y-25547000D01*
X86233000Y-25527000D01*
X86213000Y-25527000D01*
X86213000Y-25273000D01*
X86233000Y-25273000D01*
X86233000Y-25253000D01*
X86487000Y-25253000D01*
X86487000Y-25273000D01*
X87680155Y-25273000D01*
X87801476Y-25043110D01*
X87631645Y-24633076D01*
X87241358Y-24204817D01*
X87111522Y-24143843D01*
X87430625Y-23930625D01*
X87758839Y-23439418D01*
X87874092Y-22860000D01*
X87758839Y-22280582D01*
X87430625Y-21789375D01*
X87132239Y-21590000D01*
X87430625Y-21390625D01*
X87758839Y-20899418D01*
X87874092Y-20320000D01*
X87758839Y-19740582D01*
X87430625Y-19249375D01*
X86939418Y-18921161D01*
X86716057Y-18876732D01*
X87456732Y-18136057D01*
X87501161Y-18359418D01*
G04 #@! TO.N,/ADC3_42_REF2-*
G36*
X108836406Y-18882209D02*
X108640582Y-18921161D01*
X108149375Y-19249375D01*
X107821161Y-19740582D01*
X107705908Y-20320000D01*
X107821161Y-20899418D01*
X108149375Y-21390625D01*
X108447761Y-21590000D01*
X108149375Y-21789375D01*
X107821161Y-22280582D01*
X107705908Y-22860000D01*
X107821161Y-23439418D01*
X108149375Y-23930625D01*
X108468478Y-24143843D01*
X108338642Y-24204817D01*
X107948355Y-24633076D01*
X107778524Y-25043110D01*
X107899845Y-25273000D01*
X109093000Y-25273000D01*
X109093000Y-25253000D01*
X109347000Y-25253000D01*
X109347000Y-25273000D01*
X109367000Y-25273000D01*
X109367000Y-25527000D01*
X109347000Y-25527000D01*
X109347000Y-25547000D01*
X109093000Y-25547000D01*
X109093000Y-25527000D01*
X107899845Y-25527000D01*
X107778524Y-25756890D01*
X107948355Y-26166924D01*
X108338642Y-26595183D01*
X108468478Y-26656157D01*
X108149375Y-26869375D01*
X107821161Y-27360582D01*
X107705908Y-27940000D01*
X107821161Y-28519418D01*
X108149375Y-29010625D01*
X108447761Y-29210000D01*
X108149375Y-29409375D01*
X107821161Y-29900582D01*
X107705908Y-30480000D01*
X107821161Y-31059418D01*
X108149375Y-31550625D01*
X108447761Y-31750000D01*
X108149375Y-31949375D01*
X107821161Y-32440582D01*
X107705908Y-33020000D01*
X107821161Y-33599418D01*
X108149375Y-34090625D01*
X108447761Y-34290000D01*
X108149375Y-34489375D01*
X107821161Y-34980582D01*
X107705908Y-35560000D01*
X107821161Y-36139418D01*
X108149375Y-36630625D01*
X108468478Y-36843843D01*
X108338642Y-36904817D01*
X107948355Y-37333076D01*
X107778524Y-37743110D01*
X107899845Y-37973000D01*
X109093000Y-37973000D01*
X109093000Y-37953000D01*
X109347000Y-37953000D01*
X109347000Y-37973000D01*
X109367000Y-37973000D01*
X109367000Y-38227000D01*
X109347000Y-38227000D01*
X109347000Y-38247000D01*
X109093000Y-38247000D01*
X109093000Y-38227000D01*
X107899845Y-38227000D01*
X107778524Y-38456890D01*
X107948355Y-38866924D01*
X108338642Y-39295183D01*
X108842425Y-39531772D01*
X108104023Y-40270174D01*
X108062333Y-40060582D01*
X107734119Y-39569375D01*
X107242912Y-39241161D01*
X106809750Y-39155000D01*
X106517238Y-39155000D01*
X106084076Y-39241161D01*
X105592869Y-39569375D01*
X105393494Y-39867761D01*
X105194119Y-39569375D01*
X104702912Y-39241161D01*
X104269750Y-39155000D01*
X103977238Y-39155000D01*
X103544076Y-39241161D01*
X103052869Y-39569375D01*
X102839651Y-39888478D01*
X102778677Y-39758642D01*
X102350418Y-39368355D01*
X101940384Y-39198524D01*
X101710494Y-39319845D01*
X101710494Y-40513000D01*
X101730494Y-40513000D01*
X101730494Y-40767000D01*
X101710494Y-40767000D01*
X101710494Y-40787000D01*
X101456494Y-40787000D01*
X101456494Y-40767000D01*
X99170494Y-40767000D01*
X99170494Y-40787000D01*
X98916494Y-40787000D01*
X98916494Y-40767000D01*
X98896494Y-40767000D01*
X98896494Y-40513000D01*
X98916494Y-40513000D01*
X98916494Y-39319845D01*
X99170494Y-39319845D01*
X99170494Y-40513000D01*
X101456494Y-40513000D01*
X101456494Y-39319845D01*
X101226604Y-39198524D01*
X100816570Y-39368355D01*
X100388311Y-39758642D01*
X100313494Y-39917954D01*
X100238677Y-39758642D01*
X99810418Y-39368355D01*
X99400384Y-39198524D01*
X99170494Y-39319845D01*
X98916494Y-39319845D01*
X98686604Y-39198524D01*
X98276570Y-39368355D01*
X97848311Y-39758642D01*
X97787337Y-39888478D01*
X97574119Y-39569375D01*
X97082912Y-39241161D01*
X96649750Y-39155000D01*
X96357238Y-39155000D01*
X95924076Y-39241161D01*
X95432869Y-39569375D01*
X95233494Y-39867761D01*
X95034119Y-39569375D01*
X94542912Y-39241161D01*
X94109750Y-39155000D01*
X93817238Y-39155000D01*
X93384076Y-39241161D01*
X93027000Y-39479752D01*
X93027000Y-38852606D01*
X96189803Y-35689803D01*
X96217333Y-35648601D01*
X96227000Y-35600000D01*
X96227000Y-33495000D01*
X96962906Y-33495000D01*
X97006423Y-33508128D01*
X97137657Y-33495000D01*
X97487743Y-33495000D01*
X97646493Y-33336250D01*
X97646493Y-33008651D01*
X97657051Y-33034140D01*
X97695585Y-33035315D01*
X97700195Y-33039925D01*
X97773493Y-33037690D01*
X97846791Y-33039925D01*
X97851401Y-33035315D01*
X97889935Y-33034140D01*
X97900493Y-32999142D01*
X97900493Y-33336250D01*
X98059243Y-33495000D01*
X98322906Y-33495000D01*
X98366423Y-33508128D01*
X98497657Y-33495000D01*
X99682906Y-33495000D01*
X99726423Y-33508128D01*
X99857657Y-33495000D01*
X101042906Y-33495000D01*
X101086423Y-33508128D01*
X101217657Y-33495000D01*
X101549803Y-33495000D01*
X101783192Y-33398327D01*
X101961820Y-33219698D01*
X102058493Y-32986309D01*
X102058493Y-32740587D01*
X102071621Y-32697070D01*
X102058493Y-32565836D01*
X102058493Y-31380587D01*
X102071621Y-31337070D01*
X102058493Y-31205836D01*
X102058493Y-30020587D01*
X102071621Y-29977070D01*
X102058493Y-29845836D01*
X102058493Y-29495750D01*
X101899743Y-29337000D01*
X101572144Y-29337000D01*
X101597633Y-29326442D01*
X101598808Y-29287908D01*
X101603418Y-29283298D01*
X101601183Y-29210000D01*
X101603418Y-29136702D01*
X101598808Y-29132092D01*
X101597633Y-29093558D01*
X101562635Y-29083000D01*
X101899743Y-29083000D01*
X102058493Y-28924250D01*
X102058493Y-28660587D01*
X102071621Y-28617070D01*
X102058493Y-28485836D01*
X102058493Y-27300587D01*
X102071621Y-27257070D01*
X102058493Y-27125836D01*
X102058493Y-25940587D01*
X102071621Y-25897070D01*
X102058493Y-25765836D01*
X102058493Y-25433691D01*
X101961820Y-25200302D01*
X101783192Y-25021673D01*
X101549803Y-24925000D01*
X101304080Y-24925000D01*
X101260563Y-24911872D01*
X101129329Y-24925000D01*
X99944080Y-24925000D01*
X99900563Y-24911872D01*
X99769329Y-24925000D01*
X98584080Y-24925000D01*
X98540563Y-24911872D01*
X98409329Y-24925000D01*
X98059243Y-24925000D01*
X97900493Y-25083750D01*
X97900493Y-25411349D01*
X97889935Y-25385860D01*
X97851401Y-25384685D01*
X97846791Y-25380075D01*
X97773493Y-25382310D01*
X97700195Y-25380075D01*
X97695585Y-25384685D01*
X97657051Y-25385860D01*
X97646493Y-25420858D01*
X97646493Y-25083750D01*
X97487743Y-24925000D01*
X97224080Y-24925000D01*
X97180563Y-24911872D01*
X97049329Y-24925000D01*
X96227000Y-24925000D01*
X96227000Y-21600000D01*
X96217333Y-21551399D01*
X96189803Y-21510197D01*
X93944606Y-19265000D01*
X94126256Y-19265000D01*
X94559418Y-19178839D01*
X95050625Y-18850625D01*
X95250000Y-18552239D01*
X95449375Y-18850625D01*
X95940582Y-19178839D01*
X96373744Y-19265000D01*
X96666256Y-19265000D01*
X97099418Y-19178839D01*
X97590625Y-18850625D01*
X97790000Y-18552239D01*
X97989375Y-18850625D01*
X98480582Y-19178839D01*
X98913744Y-19265000D01*
X99206256Y-19265000D01*
X99639418Y-19178839D01*
X100130625Y-18850625D01*
X100330000Y-18552239D01*
X100529375Y-18850625D01*
X101020582Y-19178839D01*
X101453744Y-19265000D01*
X101746256Y-19265000D01*
X102179418Y-19178839D01*
X102670625Y-18850625D01*
X102870000Y-18552239D01*
X103069375Y-18850625D01*
X103560582Y-19178839D01*
X103993744Y-19265000D01*
X104286256Y-19265000D01*
X104719418Y-19178839D01*
X105210625Y-18850625D01*
X105410000Y-18552239D01*
X105609375Y-18850625D01*
X106100582Y-19178839D01*
X106533744Y-19265000D01*
X106826256Y-19265000D01*
X107259418Y-19178839D01*
X107750625Y-18850625D01*
X108078839Y-18359418D01*
X108117791Y-18163594D01*
X108836406Y-18882209D01*
X108836406Y-18882209D01*
G37*
X108836406Y-18882209D02*
X108640582Y-18921161D01*
X108149375Y-19249375D01*
X107821161Y-19740582D01*
X107705908Y-20320000D01*
X107821161Y-20899418D01*
X108149375Y-21390625D01*
X108447761Y-21590000D01*
X108149375Y-21789375D01*
X107821161Y-22280582D01*
X107705908Y-22860000D01*
X107821161Y-23439418D01*
X108149375Y-23930625D01*
X108468478Y-24143843D01*
X108338642Y-24204817D01*
X107948355Y-24633076D01*
X107778524Y-25043110D01*
X107899845Y-25273000D01*
X109093000Y-25273000D01*
X109093000Y-25253000D01*
X109347000Y-25253000D01*
X109347000Y-25273000D01*
X109367000Y-25273000D01*
X109367000Y-25527000D01*
X109347000Y-25527000D01*
X109347000Y-25547000D01*
X109093000Y-25547000D01*
X109093000Y-25527000D01*
X107899845Y-25527000D01*
X107778524Y-25756890D01*
X107948355Y-26166924D01*
X108338642Y-26595183D01*
X108468478Y-26656157D01*
X108149375Y-26869375D01*
X107821161Y-27360582D01*
X107705908Y-27940000D01*
X107821161Y-28519418D01*
X108149375Y-29010625D01*
X108447761Y-29210000D01*
X108149375Y-29409375D01*
X107821161Y-29900582D01*
X107705908Y-30480000D01*
X107821161Y-31059418D01*
X108149375Y-31550625D01*
X108447761Y-31750000D01*
X108149375Y-31949375D01*
X107821161Y-32440582D01*
X107705908Y-33020000D01*
X107821161Y-33599418D01*
X108149375Y-34090625D01*
X108447761Y-34290000D01*
X108149375Y-34489375D01*
X107821161Y-34980582D01*
X107705908Y-35560000D01*
X107821161Y-36139418D01*
X108149375Y-36630625D01*
X108468478Y-36843843D01*
X108338642Y-36904817D01*
X107948355Y-37333076D01*
X107778524Y-37743110D01*
X107899845Y-37973000D01*
X109093000Y-37973000D01*
X109093000Y-37953000D01*
X109347000Y-37953000D01*
X109347000Y-37973000D01*
X109367000Y-37973000D01*
X109367000Y-38227000D01*
X109347000Y-38227000D01*
X109347000Y-38247000D01*
X109093000Y-38247000D01*
X109093000Y-38227000D01*
X107899845Y-38227000D01*
X107778524Y-38456890D01*
X107948355Y-38866924D01*
X108338642Y-39295183D01*
X108842425Y-39531772D01*
X108104023Y-40270174D01*
X108062333Y-40060582D01*
X107734119Y-39569375D01*
X107242912Y-39241161D01*
X106809750Y-39155000D01*
X106517238Y-39155000D01*
X106084076Y-39241161D01*
X105592869Y-39569375D01*
X105393494Y-39867761D01*
X105194119Y-39569375D01*
X104702912Y-39241161D01*
X104269750Y-39155000D01*
X103977238Y-39155000D01*
X103544076Y-39241161D01*
X103052869Y-39569375D01*
X102839651Y-39888478D01*
X102778677Y-39758642D01*
X102350418Y-39368355D01*
X101940384Y-39198524D01*
X101710494Y-39319845D01*
X101710494Y-40513000D01*
X101730494Y-40513000D01*
X101730494Y-40767000D01*
X101710494Y-40767000D01*
X101710494Y-40787000D01*
X101456494Y-40787000D01*
X101456494Y-40767000D01*
X99170494Y-40767000D01*
X99170494Y-40787000D01*
X98916494Y-40787000D01*
X98916494Y-40767000D01*
X98896494Y-40767000D01*
X98896494Y-40513000D01*
X98916494Y-40513000D01*
X98916494Y-39319845D01*
X99170494Y-39319845D01*
X99170494Y-40513000D01*
X101456494Y-40513000D01*
X101456494Y-39319845D01*
X101226604Y-39198524D01*
X100816570Y-39368355D01*
X100388311Y-39758642D01*
X100313494Y-39917954D01*
X100238677Y-39758642D01*
X99810418Y-39368355D01*
X99400384Y-39198524D01*
X99170494Y-39319845D01*
X98916494Y-39319845D01*
X98686604Y-39198524D01*
X98276570Y-39368355D01*
X97848311Y-39758642D01*
X97787337Y-39888478D01*
X97574119Y-39569375D01*
X97082912Y-39241161D01*
X96649750Y-39155000D01*
X96357238Y-39155000D01*
X95924076Y-39241161D01*
X95432869Y-39569375D01*
X95233494Y-39867761D01*
X95034119Y-39569375D01*
X94542912Y-39241161D01*
X94109750Y-39155000D01*
X93817238Y-39155000D01*
X93384076Y-39241161D01*
X93027000Y-39479752D01*
X93027000Y-38852606D01*
X96189803Y-35689803D01*
X96217333Y-35648601D01*
X96227000Y-35600000D01*
X96227000Y-33495000D01*
X96962906Y-33495000D01*
X97006423Y-33508128D01*
X97137657Y-33495000D01*
X97487743Y-33495000D01*
X97646493Y-33336250D01*
X97646493Y-33008651D01*
X97657051Y-33034140D01*
X97695585Y-33035315D01*
X97700195Y-33039925D01*
X97773493Y-33037690D01*
X97846791Y-33039925D01*
X97851401Y-33035315D01*
X97889935Y-33034140D01*
X97900493Y-32999142D01*
X97900493Y-33336250D01*
X98059243Y-33495000D01*
X98322906Y-33495000D01*
X98366423Y-33508128D01*
X98497657Y-33495000D01*
X99682906Y-33495000D01*
X99726423Y-33508128D01*
X99857657Y-33495000D01*
X101042906Y-33495000D01*
X101086423Y-33508128D01*
X101217657Y-33495000D01*
X101549803Y-33495000D01*
X101783192Y-33398327D01*
X101961820Y-33219698D01*
X102058493Y-32986309D01*
X102058493Y-32740587D01*
X102071621Y-32697070D01*
X102058493Y-32565836D01*
X102058493Y-31380587D01*
X102071621Y-31337070D01*
X102058493Y-31205836D01*
X102058493Y-30020587D01*
X102071621Y-29977070D01*
X102058493Y-29845836D01*
X102058493Y-29495750D01*
X101899743Y-29337000D01*
X101572144Y-29337000D01*
X101597633Y-29326442D01*
X101598808Y-29287908D01*
X101603418Y-29283298D01*
X101601183Y-29210000D01*
X101603418Y-29136702D01*
X101598808Y-29132092D01*
X101597633Y-29093558D01*
X101562635Y-29083000D01*
X101899743Y-29083000D01*
X102058493Y-28924250D01*
X102058493Y-28660587D01*
X102071621Y-28617070D01*
X102058493Y-28485836D01*
X102058493Y-27300587D01*
X102071621Y-27257070D01*
X102058493Y-27125836D01*
X102058493Y-25940587D01*
X102071621Y-25897070D01*
X102058493Y-25765836D01*
X102058493Y-25433691D01*
X101961820Y-25200302D01*
X101783192Y-25021673D01*
X101549803Y-24925000D01*
X101304080Y-24925000D01*
X101260563Y-24911872D01*
X101129329Y-24925000D01*
X99944080Y-24925000D01*
X99900563Y-24911872D01*
X99769329Y-24925000D01*
X98584080Y-24925000D01*
X98540563Y-24911872D01*
X98409329Y-24925000D01*
X98059243Y-24925000D01*
X97900493Y-25083750D01*
X97900493Y-25411349D01*
X97889935Y-25385860D01*
X97851401Y-25384685D01*
X97846791Y-25380075D01*
X97773493Y-25382310D01*
X97700195Y-25380075D01*
X97695585Y-25384685D01*
X97657051Y-25385860D01*
X97646493Y-25420858D01*
X97646493Y-25083750D01*
X97487743Y-24925000D01*
X97224080Y-24925000D01*
X97180563Y-24911872D01*
X97049329Y-24925000D01*
X96227000Y-24925000D01*
X96227000Y-21600000D01*
X96217333Y-21551399D01*
X96189803Y-21510197D01*
X93944606Y-19265000D01*
X94126256Y-19265000D01*
X94559418Y-19178839D01*
X95050625Y-18850625D01*
X95250000Y-18552239D01*
X95449375Y-18850625D01*
X95940582Y-19178839D01*
X96373744Y-19265000D01*
X96666256Y-19265000D01*
X97099418Y-19178839D01*
X97590625Y-18850625D01*
X97790000Y-18552239D01*
X97989375Y-18850625D01*
X98480582Y-19178839D01*
X98913744Y-19265000D01*
X99206256Y-19265000D01*
X99639418Y-19178839D01*
X100130625Y-18850625D01*
X100330000Y-18552239D01*
X100529375Y-18850625D01*
X101020582Y-19178839D01*
X101453744Y-19265000D01*
X101746256Y-19265000D01*
X102179418Y-19178839D01*
X102670625Y-18850625D01*
X102870000Y-18552239D01*
X103069375Y-18850625D01*
X103560582Y-19178839D01*
X103993744Y-19265000D01*
X104286256Y-19265000D01*
X104719418Y-19178839D01*
X105210625Y-18850625D01*
X105410000Y-18552239D01*
X105609375Y-18850625D01*
X106100582Y-19178839D01*
X106533744Y-19265000D01*
X106826256Y-19265000D01*
X107259418Y-19178839D01*
X107750625Y-18850625D01*
X108078839Y-18359418D01*
X108117791Y-18163594D01*
X108836406Y-18882209D01*
G36*
X111887000Y-32893000D02*
X111907000Y-32893000D01*
X111907000Y-33147000D01*
X111887000Y-33147000D01*
X111887000Y-33167000D01*
X111633000Y-33167000D01*
X111633000Y-33147000D01*
X111613000Y-33147000D01*
X111613000Y-32893000D01*
X111633000Y-32893000D01*
X111633000Y-32873000D01*
X111887000Y-32873000D01*
X111887000Y-32893000D01*
X111887000Y-32893000D01*
G37*
X111887000Y-32893000D02*
X111907000Y-32893000D01*
X111907000Y-33147000D01*
X111887000Y-33147000D01*
X111887000Y-33167000D01*
X111633000Y-33167000D01*
X111633000Y-33147000D01*
X111613000Y-33147000D01*
X111613000Y-32893000D01*
X111633000Y-32893000D01*
X111633000Y-32873000D01*
X111887000Y-32873000D01*
X111887000Y-32893000D01*
G36*
X97900493Y-29083000D02*
X98054842Y-29083000D01*
X98029353Y-29093558D01*
X98028178Y-29132092D01*
X98023568Y-29136702D01*
X98025803Y-29210000D01*
X98023568Y-29283298D01*
X98028178Y-29287908D01*
X98029353Y-29326442D01*
X98064351Y-29337000D01*
X97900493Y-29337000D01*
X97900493Y-29491349D01*
X97889935Y-29465860D01*
X97851401Y-29464685D01*
X97846791Y-29460075D01*
X97773493Y-29462310D01*
X97700195Y-29460075D01*
X97695585Y-29464685D01*
X97657051Y-29465860D01*
X97646493Y-29500858D01*
X97646493Y-29337000D01*
X97626493Y-29337000D01*
X97626493Y-29083000D01*
X97646493Y-29083000D01*
X97646493Y-28928651D01*
X97657051Y-28954140D01*
X97695585Y-28955315D01*
X97700195Y-28959925D01*
X97773493Y-28957690D01*
X97846791Y-28959925D01*
X97851401Y-28955315D01*
X97889935Y-28954140D01*
X97900493Y-28919142D01*
X97900493Y-29083000D01*
X97900493Y-29083000D01*
G37*
X97900493Y-29083000D02*
X98054842Y-29083000D01*
X98029353Y-29093558D01*
X98028178Y-29132092D01*
X98023568Y-29136702D01*
X98025803Y-29210000D01*
X98023568Y-29283298D01*
X98028178Y-29287908D01*
X98029353Y-29326442D01*
X98064351Y-29337000D01*
X97900493Y-29337000D01*
X97900493Y-29491349D01*
X97889935Y-29465860D01*
X97851401Y-29464685D01*
X97846791Y-29460075D01*
X97773493Y-29462310D01*
X97700195Y-29460075D01*
X97695585Y-29464685D01*
X97657051Y-29465860D01*
X97646493Y-29500858D01*
X97646493Y-29337000D01*
X97626493Y-29337000D01*
X97626493Y-29083000D01*
X97646493Y-29083000D01*
X97646493Y-28928651D01*
X97657051Y-28954140D01*
X97695585Y-28955315D01*
X97700195Y-28959925D01*
X97773493Y-28957690D01*
X97846791Y-28959925D01*
X97851401Y-28955315D01*
X97889935Y-28954140D01*
X97900493Y-28919142D01*
X97900493Y-29083000D01*
G36*
X111887000Y-22733000D02*
X111907000Y-22733000D01*
X111907000Y-22987000D01*
X111887000Y-22987000D01*
X111887000Y-23007000D01*
X111633000Y-23007000D01*
X111633000Y-22987000D01*
X111613000Y-22987000D01*
X111613000Y-22733000D01*
X111633000Y-22733000D01*
X111633000Y-22713000D01*
X111887000Y-22713000D01*
X111887000Y-22733000D01*
X111887000Y-22733000D01*
G37*
X111887000Y-22733000D02*
X111907000Y-22733000D01*
X111907000Y-22987000D01*
X111887000Y-22987000D01*
X111887000Y-23007000D01*
X111633000Y-23007000D01*
X111633000Y-22987000D01*
X111613000Y-22987000D01*
X111613000Y-22733000D01*
X111633000Y-22733000D01*
X111633000Y-22713000D01*
X111887000Y-22713000D01*
X111887000Y-22733000D01*
G36*
X99187000Y-15113000D02*
X101473000Y-15113000D01*
X101473000Y-15093000D01*
X101727000Y-15093000D01*
X101727000Y-15113000D01*
X101747000Y-15113000D01*
X101747000Y-15367000D01*
X101727000Y-15367000D01*
X101727000Y-15387000D01*
X101473000Y-15387000D01*
X101473000Y-15367000D01*
X99187000Y-15367000D01*
X99187000Y-15387000D01*
X98933000Y-15387000D01*
X98933000Y-15367000D01*
X98913000Y-15367000D01*
X98913000Y-15113000D01*
X98933000Y-15113000D01*
X98933000Y-15093000D01*
X99187000Y-15093000D01*
X99187000Y-15113000D01*
X99187000Y-15113000D01*
G37*
X99187000Y-15113000D02*
X101473000Y-15113000D01*
X101473000Y-15093000D01*
X101727000Y-15093000D01*
X101727000Y-15113000D01*
X101747000Y-15113000D01*
X101747000Y-15367000D01*
X101727000Y-15367000D01*
X101727000Y-15387000D01*
X101473000Y-15387000D01*
X101473000Y-15367000D01*
X99187000Y-15367000D01*
X99187000Y-15387000D01*
X98933000Y-15387000D01*
X98933000Y-15367000D01*
X98913000Y-15367000D01*
X98913000Y-15113000D01*
X98933000Y-15113000D01*
X98933000Y-15093000D01*
X99187000Y-15093000D01*
X99187000Y-15113000D01*
G04 #@! TO.N,/MCU_107_VSS*
G36*
X38227000Y-68453000D02*
X38247000Y-68453000D01*
X38247000Y-68707000D01*
X38227000Y-68707000D01*
X38227000Y-68727000D01*
X37973000Y-68727000D01*
X37973000Y-68707000D01*
X37953000Y-68707000D01*
X37953000Y-68453000D01*
X37973000Y-68453000D01*
X37973000Y-68433000D01*
X38227000Y-68433000D01*
X38227000Y-68453000D01*
X38227000Y-68453000D01*
G37*
X38227000Y-68453000D02*
X38247000Y-68453000D01*
X38247000Y-68707000D01*
X38227000Y-68707000D01*
X38227000Y-68727000D01*
X37973000Y-68727000D01*
X37973000Y-68707000D01*
X37953000Y-68707000D01*
X37953000Y-68453000D01*
X37973000Y-68453000D01*
X37973000Y-68433000D01*
X38227000Y-68433000D01*
X38227000Y-68453000D01*
G36*
X50927000Y-68453000D02*
X50947000Y-68453000D01*
X50947000Y-68707000D01*
X50927000Y-68707000D01*
X50927000Y-68727000D01*
X50673000Y-68727000D01*
X50673000Y-68707000D01*
X50653000Y-68707000D01*
X50653000Y-68453000D01*
X50673000Y-68453000D01*
X50673000Y-68433000D01*
X50927000Y-68433000D01*
X50927000Y-68453000D01*
X50927000Y-68453000D01*
G37*
X50927000Y-68453000D02*
X50947000Y-68453000D01*
X50947000Y-68707000D01*
X50927000Y-68707000D01*
X50927000Y-68727000D01*
X50673000Y-68727000D01*
X50673000Y-68707000D01*
X50653000Y-68707000D01*
X50653000Y-68453000D01*
X50673000Y-68453000D01*
X50673000Y-68433000D01*
X50927000Y-68433000D01*
X50927000Y-68453000D01*
G36*
X38227000Y-17653000D02*
X38247000Y-17653000D01*
X38247000Y-17907000D01*
X38227000Y-17907000D01*
X38227000Y-19100155D01*
X38456890Y-19221476D01*
X38866924Y-19051645D01*
X39295183Y-18661358D01*
X39356157Y-18531522D01*
X39569375Y-18850625D01*
X40060582Y-19178839D01*
X40493744Y-19265000D01*
X40786256Y-19265000D01*
X41219418Y-19178839D01*
X41710625Y-18850625D01*
X41910000Y-18552239D01*
X42109375Y-18850625D01*
X42600582Y-19178839D01*
X43033744Y-19265000D01*
X43326256Y-19265000D01*
X43759418Y-19178839D01*
X44250625Y-18850625D01*
X44450000Y-18552239D01*
X44649375Y-18850625D01*
X45140582Y-19178839D01*
X45573744Y-19265000D01*
X45866256Y-19265000D01*
X46299418Y-19178839D01*
X46790625Y-18850625D01*
X46990000Y-18552239D01*
X47189375Y-18850625D01*
X47680582Y-19178839D01*
X48113744Y-19265000D01*
X48406256Y-19265000D01*
X48839418Y-19178839D01*
X49330625Y-18850625D01*
X49543843Y-18531522D01*
X49604817Y-18661358D01*
X50033076Y-19051645D01*
X50443110Y-19221476D01*
X50673000Y-19100155D01*
X50673000Y-17907000D01*
X50653000Y-17907000D01*
X50653000Y-17653000D01*
X50673000Y-17653000D01*
X50673000Y-17633000D01*
X50927000Y-17633000D01*
X50927000Y-17653000D01*
X50947000Y-17653000D01*
X50947000Y-17907000D01*
X50927000Y-17907000D01*
X50927000Y-19100155D01*
X51156890Y-19221476D01*
X51566924Y-19051645D01*
X51995183Y-18661358D01*
X52056157Y-18531522D01*
X52269375Y-18850625D01*
X52760582Y-19178839D01*
X53193744Y-19265000D01*
X53486256Y-19265000D01*
X53919418Y-19178839D01*
X54410625Y-18850625D01*
X54610000Y-18552239D01*
X54809375Y-18850625D01*
X55300582Y-19178839D01*
X55733744Y-19265000D01*
X56026256Y-19265000D01*
X56459418Y-19178839D01*
X56950625Y-18850625D01*
X57150000Y-18552239D01*
X57349375Y-18850625D01*
X57840582Y-19178839D01*
X58273744Y-19265000D01*
X58566256Y-19265000D01*
X58999418Y-19178839D01*
X59490625Y-18850625D01*
X59690000Y-18552239D01*
X59889375Y-18850625D01*
X60380582Y-19178839D01*
X60813744Y-19265000D01*
X61106256Y-19265000D01*
X61539418Y-19178839D01*
X62030625Y-18850625D01*
X62230000Y-18552239D01*
X62429375Y-18850625D01*
X62920582Y-19178839D01*
X63353744Y-19265000D01*
X63646256Y-19265000D01*
X64079418Y-19178839D01*
X64570625Y-18850625D01*
X64898839Y-18359418D01*
X64940529Y-18149825D01*
X65670175Y-18879471D01*
X65460582Y-18921161D01*
X64969375Y-19249375D01*
X64641161Y-19740582D01*
X64525908Y-20320000D01*
X64641161Y-20899418D01*
X64969375Y-21390625D01*
X65267761Y-21590000D01*
X64969375Y-21789375D01*
X64641161Y-22280582D01*
X64525908Y-22860000D01*
X64641161Y-23439418D01*
X64969375Y-23930625D01*
X65267761Y-24130000D01*
X64969375Y-24329375D01*
X64641161Y-24820582D01*
X64525908Y-25400000D01*
X64641161Y-25979418D01*
X64969375Y-26470625D01*
X65267761Y-26670000D01*
X64969375Y-26869375D01*
X64641161Y-27360582D01*
X64525908Y-27940000D01*
X64641161Y-28519418D01*
X64969375Y-29010625D01*
X65267761Y-29210000D01*
X64969375Y-29409375D01*
X64641161Y-29900582D01*
X64525908Y-30480000D01*
X64641161Y-31059418D01*
X64969375Y-31550625D01*
X65267761Y-31750000D01*
X64969375Y-31949375D01*
X64641161Y-32440582D01*
X64525908Y-33020000D01*
X64641161Y-33599418D01*
X64969375Y-34090625D01*
X65267761Y-34290000D01*
X64969375Y-34489375D01*
X64641161Y-34980582D01*
X64525908Y-35560000D01*
X64641161Y-36139418D01*
X64969375Y-36630625D01*
X65288478Y-36843843D01*
X65158642Y-36904817D01*
X64768355Y-37333076D01*
X64598524Y-37743110D01*
X64719845Y-37973000D01*
X65913000Y-37973000D01*
X65913000Y-37953000D01*
X66167000Y-37953000D01*
X66167000Y-37973000D01*
X66187000Y-37973000D01*
X66187000Y-38227000D01*
X66167000Y-38227000D01*
X66167000Y-38247000D01*
X65913000Y-38247000D01*
X65913000Y-38227000D01*
X64719845Y-38227000D01*
X64598524Y-38456890D01*
X64768355Y-38866924D01*
X65158642Y-39295183D01*
X65288478Y-39356157D01*
X64969375Y-39569375D01*
X64641161Y-40060582D01*
X64525908Y-40640000D01*
X64641161Y-41219418D01*
X64969375Y-41710625D01*
X65267761Y-41910000D01*
X64969375Y-42109375D01*
X64641161Y-42600582D01*
X64525908Y-43180000D01*
X64641161Y-43759418D01*
X64969375Y-44250625D01*
X65267761Y-44450000D01*
X64969375Y-44649375D01*
X64641161Y-45140582D01*
X64525908Y-45720000D01*
X64641161Y-46299418D01*
X64969375Y-46790625D01*
X65267761Y-46990000D01*
X64969375Y-47189375D01*
X64641161Y-47680582D01*
X64525908Y-48260000D01*
X64641161Y-48839418D01*
X64969375Y-49330625D01*
X65267761Y-49530000D01*
X64969375Y-49729375D01*
X64641161Y-50220582D01*
X64525908Y-50800000D01*
X64641161Y-51379418D01*
X64969375Y-51870625D01*
X65267761Y-52070000D01*
X64969375Y-52269375D01*
X64641161Y-52760582D01*
X64525908Y-53340000D01*
X64641161Y-53919418D01*
X64969375Y-54410625D01*
X65267761Y-54610000D01*
X64969375Y-54809375D01*
X64641161Y-55300582D01*
X64525908Y-55880000D01*
X64641161Y-56459418D01*
X64969375Y-56950625D01*
X65267761Y-57150000D01*
X64969375Y-57349375D01*
X64641161Y-57840582D01*
X64525908Y-58420000D01*
X64641161Y-58999418D01*
X64969375Y-59490625D01*
X65267761Y-59690000D01*
X64969375Y-59889375D01*
X64641161Y-60380582D01*
X64525908Y-60960000D01*
X64641161Y-61539418D01*
X64969375Y-62030625D01*
X65267761Y-62230000D01*
X64969375Y-62429375D01*
X64641161Y-62920582D01*
X64525908Y-63500000D01*
X64641161Y-64079418D01*
X64969375Y-64570625D01*
X65460582Y-64898839D01*
X65670175Y-64940529D01*
X64940529Y-65670175D01*
X64898839Y-65460582D01*
X64570625Y-64969375D01*
X64079418Y-64641161D01*
X63646256Y-64555000D01*
X63353744Y-64555000D01*
X62920582Y-64641161D01*
X62429375Y-64969375D01*
X62230000Y-65267761D01*
X62030625Y-64969375D01*
X61539418Y-64641161D01*
X61106256Y-64555000D01*
X60813744Y-64555000D01*
X60380582Y-64641161D01*
X59889375Y-64969375D01*
X59690000Y-65267761D01*
X59490625Y-64969375D01*
X58999418Y-64641161D01*
X58566256Y-64555000D01*
X58273744Y-64555000D01*
X57840582Y-64641161D01*
X57349375Y-64969375D01*
X57150000Y-65267761D01*
X56950625Y-64969375D01*
X56459418Y-64641161D01*
X56026256Y-64555000D01*
X55733744Y-64555000D01*
X55300582Y-64641161D01*
X54809375Y-64969375D01*
X54610000Y-65267761D01*
X54410625Y-64969375D01*
X53919418Y-64641161D01*
X53486256Y-64555000D01*
X53193744Y-64555000D01*
X52760582Y-64641161D01*
X52269375Y-64969375D01*
X52070000Y-65267761D01*
X51870625Y-64969375D01*
X51379418Y-64641161D01*
X50946256Y-64555000D01*
X50653744Y-64555000D01*
X50220582Y-64641161D01*
X49729375Y-64969375D01*
X49530000Y-65267761D01*
X49330625Y-64969375D01*
X48839418Y-64641161D01*
X48406256Y-64555000D01*
X48113744Y-64555000D01*
X47680582Y-64641161D01*
X47189375Y-64969375D01*
X46990000Y-65267761D01*
X46790625Y-64969375D01*
X46299418Y-64641161D01*
X45866256Y-64555000D01*
X45573744Y-64555000D01*
X45140582Y-64641161D01*
X44649375Y-64969375D01*
X44450000Y-65267761D01*
X44250625Y-64969375D01*
X43759418Y-64641161D01*
X43326256Y-64555000D01*
X43033744Y-64555000D01*
X42600582Y-64641161D01*
X42109375Y-64969375D01*
X41910000Y-65267761D01*
X41710625Y-64969375D01*
X41219418Y-64641161D01*
X40786256Y-64555000D01*
X40493744Y-64555000D01*
X40060582Y-64641161D01*
X39569375Y-64969375D01*
X39370000Y-65267761D01*
X39170625Y-64969375D01*
X38679418Y-64641161D01*
X38246256Y-64555000D01*
X37953744Y-64555000D01*
X37520582Y-64641161D01*
X37029375Y-64969375D01*
X36830000Y-65267761D01*
X36630625Y-64969375D01*
X36139418Y-64641161D01*
X35706256Y-64555000D01*
X35413744Y-64555000D01*
X34980582Y-64641161D01*
X34489375Y-64969375D01*
X34290000Y-65267761D01*
X34090625Y-64969375D01*
X33599418Y-64641161D01*
X33166256Y-64555000D01*
X32873744Y-64555000D01*
X32440582Y-64641161D01*
X31949375Y-64969375D01*
X31750000Y-65267761D01*
X31550625Y-64969375D01*
X31059418Y-64641161D01*
X30626256Y-64555000D01*
X30333744Y-64555000D01*
X29900582Y-64641161D01*
X29409375Y-64969375D01*
X29210000Y-65267761D01*
X29010625Y-64969375D01*
X28519418Y-64641161D01*
X28086256Y-64555000D01*
X27793744Y-64555000D01*
X27360582Y-64641161D01*
X26869375Y-64969375D01*
X26670000Y-65267761D01*
X26470625Y-64969375D01*
X25979418Y-64641161D01*
X25546256Y-64555000D01*
X25253744Y-64555000D01*
X24820582Y-64641161D01*
X24329375Y-64969375D01*
X24130000Y-65267761D01*
X23930625Y-64969375D01*
X23439418Y-64641161D01*
X23006256Y-64555000D01*
X22713744Y-64555000D01*
X22280582Y-64641161D01*
X21789375Y-64969375D01*
X21576157Y-65288478D01*
X21515183Y-65158642D01*
X21086924Y-64768355D01*
X20676890Y-64598524D01*
X20447000Y-64719845D01*
X20447000Y-65913000D01*
X20467000Y-65913000D01*
X20467000Y-66167000D01*
X20447000Y-66167000D01*
X20447000Y-66187000D01*
X20193000Y-66187000D01*
X20193000Y-66167000D01*
X20173000Y-66167000D01*
X20173000Y-65913000D01*
X20193000Y-65913000D01*
X20193000Y-64719845D01*
X19963110Y-64598524D01*
X19553076Y-64768355D01*
X19124817Y-65158642D01*
X18882953Y-65673657D01*
X18149825Y-64940529D01*
X18359418Y-64898839D01*
X18850625Y-64570625D01*
X19178839Y-64079418D01*
X19294092Y-63500000D01*
X19178839Y-62920582D01*
X18850625Y-62429375D01*
X18552239Y-62230000D01*
X18850625Y-62030625D01*
X19178839Y-61539418D01*
X19294092Y-60960000D01*
X19178839Y-60380582D01*
X18850625Y-59889375D01*
X18552239Y-59690000D01*
X18850625Y-59490625D01*
X19178839Y-58999418D01*
X19294092Y-58420000D01*
X19178839Y-57840582D01*
X18850625Y-57349375D01*
X18552239Y-57150000D01*
X18850625Y-56950625D01*
X19178839Y-56459418D01*
X19294092Y-55880000D01*
X19178839Y-55300582D01*
X18850625Y-54809375D01*
X18552239Y-54610000D01*
X18850625Y-54410625D01*
X19178839Y-53919418D01*
X19294092Y-53340000D01*
X19178839Y-52760582D01*
X18850625Y-52269375D01*
X18552239Y-52070000D01*
X18850625Y-51870625D01*
X19178839Y-51379418D01*
X19294092Y-50800000D01*
X19178839Y-50220582D01*
X18850625Y-49729375D01*
X18552239Y-49530000D01*
X18850625Y-49330625D01*
X19178839Y-48839418D01*
X19294092Y-48260000D01*
X19178839Y-47680582D01*
X18850625Y-47189375D01*
X18552239Y-46990000D01*
X18850625Y-46790625D01*
X19178839Y-46299418D01*
X19294092Y-45720000D01*
X19178839Y-45140582D01*
X18850625Y-44649375D01*
X18552239Y-44450000D01*
X18850625Y-44250625D01*
X19178839Y-43759418D01*
X19294092Y-43180000D01*
X19178839Y-42600582D01*
X18850625Y-42109375D01*
X18552239Y-41910000D01*
X18850625Y-41710625D01*
X19178839Y-41219418D01*
X19294092Y-40640000D01*
X19178839Y-40060582D01*
X18850625Y-39569375D01*
X18531522Y-39356157D01*
X18661358Y-39295183D01*
X19051645Y-38866924D01*
X19221476Y-38456890D01*
X19100155Y-38227000D01*
X17907000Y-38227000D01*
X17907000Y-38247000D01*
X17653000Y-38247000D01*
X17653000Y-38227000D01*
X17633000Y-38227000D01*
X17633000Y-37973000D01*
X17653000Y-37973000D01*
X17653000Y-37953000D01*
X17907000Y-37953000D01*
X17907000Y-37973000D01*
X19100155Y-37973000D01*
X19221476Y-37743110D01*
X19051645Y-37333076D01*
X18661358Y-36904817D01*
X18531522Y-36843843D01*
X18850625Y-36630625D01*
X19178839Y-36139418D01*
X19294092Y-35560000D01*
X19178839Y-34980582D01*
X18850625Y-34489375D01*
X18552239Y-34290000D01*
X18850625Y-34090625D01*
X19178839Y-33599418D01*
X19294092Y-33020000D01*
X19178839Y-32440582D01*
X18850625Y-31949375D01*
X18552239Y-31750000D01*
X18850625Y-31550625D01*
X19178839Y-31059418D01*
X19294092Y-30480000D01*
X19178839Y-29900582D01*
X18850625Y-29409375D01*
X18552239Y-29210000D01*
X18850625Y-29010625D01*
X19178839Y-28519418D01*
X19294092Y-27940000D01*
X19178839Y-27360582D01*
X18850625Y-26869375D01*
X18552239Y-26670000D01*
X18850625Y-26470625D01*
X19178839Y-25979418D01*
X19294092Y-25400000D01*
X19178839Y-24820582D01*
X18850625Y-24329375D01*
X18552239Y-24130000D01*
X18850625Y-23930625D01*
X19178839Y-23439418D01*
X19294092Y-22860000D01*
X19178839Y-22280582D01*
X18850625Y-21789375D01*
X18552239Y-21590000D01*
X18850625Y-21390625D01*
X19178839Y-20899418D01*
X19294092Y-20320000D01*
X19178839Y-19740582D01*
X18850625Y-19249375D01*
X18359418Y-18921161D01*
X18149825Y-18879471D01*
X18879471Y-18149825D01*
X18921161Y-18359418D01*
X19249375Y-18850625D01*
X19740582Y-19178839D01*
X20173744Y-19265000D01*
X20466256Y-19265000D01*
X20899418Y-19178839D01*
X21390625Y-18850625D01*
X21590000Y-18552239D01*
X21789375Y-18850625D01*
X22280582Y-19178839D01*
X22713744Y-19265000D01*
X23006256Y-19265000D01*
X23439418Y-19178839D01*
X23930625Y-18850625D01*
X24130000Y-18552239D01*
X24329375Y-18850625D01*
X24820582Y-19178839D01*
X25253744Y-19265000D01*
X25546256Y-19265000D01*
X25979418Y-19178839D01*
X26470625Y-18850625D01*
X26670000Y-18552239D01*
X26869375Y-18850625D01*
X27360582Y-19178839D01*
X27793744Y-19265000D01*
X28086256Y-19265000D01*
X28519418Y-19178839D01*
X29010625Y-18850625D01*
X29210000Y-18552239D01*
X29409375Y-18850625D01*
X29900582Y-19178839D01*
X30333744Y-19265000D01*
X30626256Y-19265000D01*
X31059418Y-19178839D01*
X31550625Y-18850625D01*
X31750000Y-18552239D01*
X31949375Y-18850625D01*
X32440582Y-19178839D01*
X32873744Y-19265000D01*
X33166256Y-19265000D01*
X33599418Y-19178839D01*
X34090625Y-18850625D01*
X34290000Y-18552239D01*
X34489375Y-18850625D01*
X34980582Y-19178839D01*
X35413744Y-19265000D01*
X35706256Y-19265000D01*
X36139418Y-19178839D01*
X36630625Y-18850625D01*
X36843843Y-18531522D01*
X36904817Y-18661358D01*
X37333076Y-19051645D01*
X37743110Y-19221476D01*
X37973000Y-19100155D01*
X37973000Y-17907000D01*
X37953000Y-17907000D01*
X37953000Y-17653000D01*
X37973000Y-17653000D01*
X37973000Y-17633000D01*
X38227000Y-17633000D01*
X38227000Y-17653000D01*
X38227000Y-17653000D01*
G37*
X38227000Y-17653000D02*
X38247000Y-17653000D01*
X38247000Y-17907000D01*
X38227000Y-17907000D01*
X38227000Y-19100155D01*
X38456890Y-19221476D01*
X38866924Y-19051645D01*
X39295183Y-18661358D01*
X39356157Y-18531522D01*
X39569375Y-18850625D01*
X40060582Y-19178839D01*
X40493744Y-19265000D01*
X40786256Y-19265000D01*
X41219418Y-19178839D01*
X41710625Y-18850625D01*
X41910000Y-18552239D01*
X42109375Y-18850625D01*
X42600582Y-19178839D01*
X43033744Y-19265000D01*
X43326256Y-19265000D01*
X43759418Y-19178839D01*
X44250625Y-18850625D01*
X44450000Y-18552239D01*
X44649375Y-18850625D01*
X45140582Y-19178839D01*
X45573744Y-19265000D01*
X45866256Y-19265000D01*
X46299418Y-19178839D01*
X46790625Y-18850625D01*
X46990000Y-18552239D01*
X47189375Y-18850625D01*
X47680582Y-19178839D01*
X48113744Y-19265000D01*
X48406256Y-19265000D01*
X48839418Y-19178839D01*
X49330625Y-18850625D01*
X49543843Y-18531522D01*
X49604817Y-18661358D01*
X50033076Y-19051645D01*
X50443110Y-19221476D01*
X50673000Y-19100155D01*
X50673000Y-17907000D01*
X50653000Y-17907000D01*
X50653000Y-17653000D01*
X50673000Y-17653000D01*
X50673000Y-17633000D01*
X50927000Y-17633000D01*
X50927000Y-17653000D01*
X50947000Y-17653000D01*
X50947000Y-17907000D01*
X50927000Y-17907000D01*
X50927000Y-19100155D01*
X51156890Y-19221476D01*
X51566924Y-19051645D01*
X51995183Y-18661358D01*
X52056157Y-18531522D01*
X52269375Y-18850625D01*
X52760582Y-19178839D01*
X53193744Y-19265000D01*
X53486256Y-19265000D01*
X53919418Y-19178839D01*
X54410625Y-18850625D01*
X54610000Y-18552239D01*
X54809375Y-18850625D01*
X55300582Y-19178839D01*
X55733744Y-19265000D01*
X56026256Y-19265000D01*
X56459418Y-19178839D01*
X56950625Y-18850625D01*
X57150000Y-18552239D01*
X57349375Y-18850625D01*
X57840582Y-19178839D01*
X58273744Y-19265000D01*
X58566256Y-19265000D01*
X58999418Y-19178839D01*
X59490625Y-18850625D01*
X59690000Y-18552239D01*
X59889375Y-18850625D01*
X60380582Y-19178839D01*
X60813744Y-19265000D01*
X61106256Y-19265000D01*
X61539418Y-19178839D01*
X62030625Y-18850625D01*
X62230000Y-18552239D01*
X62429375Y-18850625D01*
X62920582Y-19178839D01*
X63353744Y-19265000D01*
X63646256Y-19265000D01*
X64079418Y-19178839D01*
X64570625Y-18850625D01*
X64898839Y-18359418D01*
X64940529Y-18149825D01*
X65670175Y-18879471D01*
X65460582Y-18921161D01*
X64969375Y-19249375D01*
X64641161Y-19740582D01*
X64525908Y-20320000D01*
X64641161Y-20899418D01*
X64969375Y-21390625D01*
X65267761Y-21590000D01*
X64969375Y-21789375D01*
X64641161Y-22280582D01*
X64525908Y-22860000D01*
X64641161Y-23439418D01*
X64969375Y-23930625D01*
X65267761Y-24130000D01*
X64969375Y-24329375D01*
X64641161Y-24820582D01*
X64525908Y-25400000D01*
X64641161Y-25979418D01*
X64969375Y-26470625D01*
X65267761Y-26670000D01*
X64969375Y-26869375D01*
X64641161Y-27360582D01*
X64525908Y-27940000D01*
X64641161Y-28519418D01*
X64969375Y-29010625D01*
X65267761Y-29210000D01*
X64969375Y-29409375D01*
X64641161Y-29900582D01*
X64525908Y-30480000D01*
X64641161Y-31059418D01*
X64969375Y-31550625D01*
X65267761Y-31750000D01*
X64969375Y-31949375D01*
X64641161Y-32440582D01*
X64525908Y-33020000D01*
X64641161Y-33599418D01*
X64969375Y-34090625D01*
X65267761Y-34290000D01*
X64969375Y-34489375D01*
X64641161Y-34980582D01*
X64525908Y-35560000D01*
X64641161Y-36139418D01*
X64969375Y-36630625D01*
X65288478Y-36843843D01*
X65158642Y-36904817D01*
X64768355Y-37333076D01*
X64598524Y-37743110D01*
X64719845Y-37973000D01*
X65913000Y-37973000D01*
X65913000Y-37953000D01*
X66167000Y-37953000D01*
X66167000Y-37973000D01*
X66187000Y-37973000D01*
X66187000Y-38227000D01*
X66167000Y-38227000D01*
X66167000Y-38247000D01*
X65913000Y-38247000D01*
X65913000Y-38227000D01*
X64719845Y-38227000D01*
X64598524Y-38456890D01*
X64768355Y-38866924D01*
X65158642Y-39295183D01*
X65288478Y-39356157D01*
X64969375Y-39569375D01*
X64641161Y-40060582D01*
X64525908Y-40640000D01*
X64641161Y-41219418D01*
X64969375Y-41710625D01*
X65267761Y-41910000D01*
X64969375Y-42109375D01*
X64641161Y-42600582D01*
X64525908Y-43180000D01*
X64641161Y-43759418D01*
X64969375Y-44250625D01*
X65267761Y-44450000D01*
X64969375Y-44649375D01*
X64641161Y-45140582D01*
X64525908Y-45720000D01*
X64641161Y-46299418D01*
X64969375Y-46790625D01*
X65267761Y-46990000D01*
X64969375Y-47189375D01*
X64641161Y-47680582D01*
X64525908Y-48260000D01*
X64641161Y-48839418D01*
X64969375Y-49330625D01*
X65267761Y-49530000D01*
X64969375Y-49729375D01*
X64641161Y-50220582D01*
X64525908Y-50800000D01*
X64641161Y-51379418D01*
X64969375Y-51870625D01*
X65267761Y-52070000D01*
X64969375Y-52269375D01*
X64641161Y-52760582D01*
X64525908Y-53340000D01*
X64641161Y-53919418D01*
X64969375Y-54410625D01*
X65267761Y-54610000D01*
X64969375Y-54809375D01*
X64641161Y-55300582D01*
X64525908Y-55880000D01*
X64641161Y-56459418D01*
X64969375Y-56950625D01*
X65267761Y-57150000D01*
X64969375Y-57349375D01*
X64641161Y-57840582D01*
X64525908Y-58420000D01*
X64641161Y-58999418D01*
X64969375Y-59490625D01*
X65267761Y-59690000D01*
X64969375Y-59889375D01*
X64641161Y-60380582D01*
X64525908Y-60960000D01*
X64641161Y-61539418D01*
X64969375Y-62030625D01*
X65267761Y-62230000D01*
X64969375Y-62429375D01*
X64641161Y-62920582D01*
X64525908Y-63500000D01*
X64641161Y-64079418D01*
X64969375Y-64570625D01*
X65460582Y-64898839D01*
X65670175Y-64940529D01*
X64940529Y-65670175D01*
X64898839Y-65460582D01*
X64570625Y-64969375D01*
X64079418Y-64641161D01*
X63646256Y-64555000D01*
X63353744Y-64555000D01*
X62920582Y-64641161D01*
X62429375Y-64969375D01*
X62230000Y-65267761D01*
X62030625Y-64969375D01*
X61539418Y-64641161D01*
X61106256Y-64555000D01*
X60813744Y-64555000D01*
X60380582Y-64641161D01*
X59889375Y-64969375D01*
X59690000Y-65267761D01*
X59490625Y-64969375D01*
X58999418Y-64641161D01*
X58566256Y-64555000D01*
X58273744Y-64555000D01*
X57840582Y-64641161D01*
X57349375Y-64969375D01*
X57150000Y-65267761D01*
X56950625Y-64969375D01*
X56459418Y-64641161D01*
X56026256Y-64555000D01*
X55733744Y-64555000D01*
X55300582Y-64641161D01*
X54809375Y-64969375D01*
X54610000Y-65267761D01*
X54410625Y-64969375D01*
X53919418Y-64641161D01*
X53486256Y-64555000D01*
X53193744Y-64555000D01*
X52760582Y-64641161D01*
X52269375Y-64969375D01*
X52070000Y-65267761D01*
X51870625Y-64969375D01*
X51379418Y-64641161D01*
X50946256Y-64555000D01*
X50653744Y-64555000D01*
X50220582Y-64641161D01*
X49729375Y-64969375D01*
X49530000Y-65267761D01*
X49330625Y-64969375D01*
X48839418Y-64641161D01*
X48406256Y-64555000D01*
X48113744Y-64555000D01*
X47680582Y-64641161D01*
X47189375Y-64969375D01*
X46990000Y-65267761D01*
X46790625Y-64969375D01*
X46299418Y-64641161D01*
X45866256Y-64555000D01*
X45573744Y-64555000D01*
X45140582Y-64641161D01*
X44649375Y-64969375D01*
X44450000Y-65267761D01*
X44250625Y-64969375D01*
X43759418Y-64641161D01*
X43326256Y-64555000D01*
X43033744Y-64555000D01*
X42600582Y-64641161D01*
X42109375Y-64969375D01*
X41910000Y-65267761D01*
X41710625Y-64969375D01*
X41219418Y-64641161D01*
X40786256Y-64555000D01*
X40493744Y-64555000D01*
X40060582Y-64641161D01*
X39569375Y-64969375D01*
X39370000Y-65267761D01*
X39170625Y-64969375D01*
X38679418Y-64641161D01*
X38246256Y-64555000D01*
X37953744Y-64555000D01*
X37520582Y-64641161D01*
X37029375Y-64969375D01*
X36830000Y-65267761D01*
X36630625Y-64969375D01*
X36139418Y-64641161D01*
X35706256Y-64555000D01*
X35413744Y-64555000D01*
X34980582Y-64641161D01*
X34489375Y-64969375D01*
X34290000Y-65267761D01*
X34090625Y-64969375D01*
X33599418Y-64641161D01*
X33166256Y-64555000D01*
X32873744Y-64555000D01*
X32440582Y-64641161D01*
X31949375Y-64969375D01*
X31750000Y-65267761D01*
X31550625Y-64969375D01*
X31059418Y-64641161D01*
X30626256Y-64555000D01*
X30333744Y-64555000D01*
X29900582Y-64641161D01*
X29409375Y-64969375D01*
X29210000Y-65267761D01*
X29010625Y-64969375D01*
X28519418Y-64641161D01*
X28086256Y-64555000D01*
X27793744Y-64555000D01*
X27360582Y-64641161D01*
X26869375Y-64969375D01*
X26670000Y-65267761D01*
X26470625Y-64969375D01*
X25979418Y-64641161D01*
X25546256Y-64555000D01*
X25253744Y-64555000D01*
X24820582Y-64641161D01*
X24329375Y-64969375D01*
X24130000Y-65267761D01*
X23930625Y-64969375D01*
X23439418Y-64641161D01*
X23006256Y-64555000D01*
X22713744Y-64555000D01*
X22280582Y-64641161D01*
X21789375Y-64969375D01*
X21576157Y-65288478D01*
X21515183Y-65158642D01*
X21086924Y-64768355D01*
X20676890Y-64598524D01*
X20447000Y-64719845D01*
X20447000Y-65913000D01*
X20467000Y-65913000D01*
X20467000Y-66167000D01*
X20447000Y-66167000D01*
X20447000Y-66187000D01*
X20193000Y-66187000D01*
X20193000Y-66167000D01*
X20173000Y-66167000D01*
X20173000Y-65913000D01*
X20193000Y-65913000D01*
X20193000Y-64719845D01*
X19963110Y-64598524D01*
X19553076Y-64768355D01*
X19124817Y-65158642D01*
X18882953Y-65673657D01*
X18149825Y-64940529D01*
X18359418Y-64898839D01*
X18850625Y-64570625D01*
X19178839Y-64079418D01*
X19294092Y-63500000D01*
X19178839Y-62920582D01*
X18850625Y-62429375D01*
X18552239Y-62230000D01*
X18850625Y-62030625D01*
X19178839Y-61539418D01*
X19294092Y-60960000D01*
X19178839Y-60380582D01*
X18850625Y-59889375D01*
X18552239Y-59690000D01*
X18850625Y-59490625D01*
X19178839Y-58999418D01*
X19294092Y-58420000D01*
X19178839Y-57840582D01*
X18850625Y-57349375D01*
X18552239Y-57150000D01*
X18850625Y-56950625D01*
X19178839Y-56459418D01*
X19294092Y-55880000D01*
X19178839Y-55300582D01*
X18850625Y-54809375D01*
X18552239Y-54610000D01*
X18850625Y-54410625D01*
X19178839Y-53919418D01*
X19294092Y-53340000D01*
X19178839Y-52760582D01*
X18850625Y-52269375D01*
X18552239Y-52070000D01*
X18850625Y-51870625D01*
X19178839Y-51379418D01*
X19294092Y-50800000D01*
X19178839Y-50220582D01*
X18850625Y-49729375D01*
X18552239Y-49530000D01*
X18850625Y-49330625D01*
X19178839Y-48839418D01*
X19294092Y-48260000D01*
X19178839Y-47680582D01*
X18850625Y-47189375D01*
X18552239Y-46990000D01*
X18850625Y-46790625D01*
X19178839Y-46299418D01*
X19294092Y-45720000D01*
X19178839Y-45140582D01*
X18850625Y-44649375D01*
X18552239Y-44450000D01*
X18850625Y-44250625D01*
X19178839Y-43759418D01*
X19294092Y-43180000D01*
X19178839Y-42600582D01*
X18850625Y-42109375D01*
X18552239Y-41910000D01*
X18850625Y-41710625D01*
X19178839Y-41219418D01*
X19294092Y-40640000D01*
X19178839Y-40060582D01*
X18850625Y-39569375D01*
X18531522Y-39356157D01*
X18661358Y-39295183D01*
X19051645Y-38866924D01*
X19221476Y-38456890D01*
X19100155Y-38227000D01*
X17907000Y-38227000D01*
X17907000Y-38247000D01*
X17653000Y-38247000D01*
X17653000Y-38227000D01*
X17633000Y-38227000D01*
X17633000Y-37973000D01*
X17653000Y-37973000D01*
X17653000Y-37953000D01*
X17907000Y-37953000D01*
X17907000Y-37973000D01*
X19100155Y-37973000D01*
X19221476Y-37743110D01*
X19051645Y-37333076D01*
X18661358Y-36904817D01*
X18531522Y-36843843D01*
X18850625Y-36630625D01*
X19178839Y-36139418D01*
X19294092Y-35560000D01*
X19178839Y-34980582D01*
X18850625Y-34489375D01*
X18552239Y-34290000D01*
X18850625Y-34090625D01*
X19178839Y-33599418D01*
X19294092Y-33020000D01*
X19178839Y-32440582D01*
X18850625Y-31949375D01*
X18552239Y-31750000D01*
X18850625Y-31550625D01*
X19178839Y-31059418D01*
X19294092Y-30480000D01*
X19178839Y-29900582D01*
X18850625Y-29409375D01*
X18552239Y-29210000D01*
X18850625Y-29010625D01*
X19178839Y-28519418D01*
X19294092Y-27940000D01*
X19178839Y-27360582D01*
X18850625Y-26869375D01*
X18552239Y-26670000D01*
X18850625Y-26470625D01*
X19178839Y-25979418D01*
X19294092Y-25400000D01*
X19178839Y-24820582D01*
X18850625Y-24329375D01*
X18552239Y-24130000D01*
X18850625Y-23930625D01*
X19178839Y-23439418D01*
X19294092Y-22860000D01*
X19178839Y-22280582D01*
X18850625Y-21789375D01*
X18552239Y-21590000D01*
X18850625Y-21390625D01*
X19178839Y-20899418D01*
X19294092Y-20320000D01*
X19178839Y-19740582D01*
X18850625Y-19249375D01*
X18359418Y-18921161D01*
X18149825Y-18879471D01*
X18879471Y-18149825D01*
X18921161Y-18359418D01*
X19249375Y-18850625D01*
X19740582Y-19178839D01*
X20173744Y-19265000D01*
X20466256Y-19265000D01*
X20899418Y-19178839D01*
X21390625Y-18850625D01*
X21590000Y-18552239D01*
X21789375Y-18850625D01*
X22280582Y-19178839D01*
X22713744Y-19265000D01*
X23006256Y-19265000D01*
X23439418Y-19178839D01*
X23930625Y-18850625D01*
X24130000Y-18552239D01*
X24329375Y-18850625D01*
X24820582Y-19178839D01*
X25253744Y-19265000D01*
X25546256Y-19265000D01*
X25979418Y-19178839D01*
X26470625Y-18850625D01*
X26670000Y-18552239D01*
X26869375Y-18850625D01*
X27360582Y-19178839D01*
X27793744Y-19265000D01*
X28086256Y-19265000D01*
X28519418Y-19178839D01*
X29010625Y-18850625D01*
X29210000Y-18552239D01*
X29409375Y-18850625D01*
X29900582Y-19178839D01*
X30333744Y-19265000D01*
X30626256Y-19265000D01*
X31059418Y-19178839D01*
X31550625Y-18850625D01*
X31750000Y-18552239D01*
X31949375Y-18850625D01*
X32440582Y-19178839D01*
X32873744Y-19265000D01*
X33166256Y-19265000D01*
X33599418Y-19178839D01*
X34090625Y-18850625D01*
X34290000Y-18552239D01*
X34489375Y-18850625D01*
X34980582Y-19178839D01*
X35413744Y-19265000D01*
X35706256Y-19265000D01*
X36139418Y-19178839D01*
X36630625Y-18850625D01*
X36843843Y-18531522D01*
X36904817Y-18661358D01*
X37333076Y-19051645D01*
X37743110Y-19221476D01*
X37973000Y-19100155D01*
X37973000Y-17907000D01*
X37953000Y-17907000D01*
X37953000Y-17653000D01*
X37973000Y-17653000D01*
X37973000Y-17633000D01*
X38227000Y-17633000D01*
X38227000Y-17653000D01*
G36*
X15367000Y-58293000D02*
X15387000Y-58293000D01*
X15387000Y-58547000D01*
X15367000Y-58547000D01*
X15367000Y-58567000D01*
X15113000Y-58567000D01*
X15113000Y-58547000D01*
X15093000Y-58547000D01*
X15093000Y-58293000D01*
X15113000Y-58293000D01*
X15113000Y-58273000D01*
X15367000Y-58273000D01*
X15367000Y-58293000D01*
X15367000Y-58293000D01*
G37*
X15367000Y-58293000D02*
X15387000Y-58293000D01*
X15387000Y-58547000D01*
X15367000Y-58547000D01*
X15367000Y-58567000D01*
X15113000Y-58567000D01*
X15113000Y-58547000D01*
X15093000Y-58547000D01*
X15093000Y-58293000D01*
X15113000Y-58293000D01*
X15113000Y-58273000D01*
X15367000Y-58273000D01*
X15367000Y-58293000D01*
G36*
X68707000Y-50673000D02*
X68727000Y-50673000D01*
X68727000Y-50927000D01*
X68707000Y-50927000D01*
X68707000Y-50947000D01*
X68453000Y-50947000D01*
X68453000Y-50927000D01*
X68433000Y-50927000D01*
X68433000Y-50673000D01*
X68453000Y-50673000D01*
X68453000Y-50653000D01*
X68707000Y-50653000D01*
X68707000Y-50673000D01*
X68707000Y-50673000D01*
G37*
X68707000Y-50673000D02*
X68727000Y-50673000D01*
X68727000Y-50927000D01*
X68707000Y-50927000D01*
X68707000Y-50947000D01*
X68453000Y-50947000D01*
X68453000Y-50927000D01*
X68433000Y-50927000D01*
X68433000Y-50673000D01*
X68453000Y-50673000D01*
X68453000Y-50653000D01*
X68707000Y-50653000D01*
X68707000Y-50673000D01*
G36*
X68707000Y-20193000D02*
X68727000Y-20193000D01*
X68727000Y-20447000D01*
X68707000Y-20447000D01*
X68707000Y-20467000D01*
X68453000Y-20467000D01*
X68453000Y-20447000D01*
X68433000Y-20447000D01*
X68433000Y-20193000D01*
X68453000Y-20193000D01*
X68453000Y-20173000D01*
X68707000Y-20173000D01*
X68707000Y-20193000D01*
X68707000Y-20193000D01*
G37*
X68707000Y-20193000D02*
X68727000Y-20193000D01*
X68727000Y-20447000D01*
X68707000Y-20447000D01*
X68707000Y-20467000D01*
X68453000Y-20467000D01*
X68453000Y-20447000D01*
X68433000Y-20447000D01*
X68433000Y-20193000D01*
X68453000Y-20193000D01*
X68453000Y-20173000D01*
X68707000Y-20173000D01*
X68707000Y-20193000D01*
G04 #@! TO.N,/ACCEL&GYRO/6_GND*
G36*
X106772000Y-81284000D02*
X106792000Y-81284000D01*
X106792000Y-81538000D01*
X106772000Y-81538000D01*
X106772000Y-82731155D01*
X107001890Y-82852476D01*
X107411924Y-82682645D01*
X107840183Y-82292358D01*
X107901157Y-82162522D01*
X108114375Y-82481625D01*
X108605582Y-82809839D01*
X109038744Y-82896000D01*
X109331256Y-82896000D01*
X109764418Y-82809839D01*
X110255625Y-82481625D01*
X110273259Y-82455234D01*
X110276843Y-82473252D01*
X110417191Y-82683296D01*
X110627235Y-82823644D01*
X110672619Y-82832671D01*
X110654375Y-82844862D01*
X110326161Y-83336069D01*
X110210908Y-83915487D01*
X110326161Y-84494905D01*
X110654375Y-84986112D01*
X110952761Y-85185487D01*
X110654375Y-85384862D01*
X110326161Y-85876069D01*
X110210908Y-86455487D01*
X110326161Y-87034905D01*
X110654375Y-87526112D01*
X110952761Y-87725487D01*
X110654375Y-87924862D01*
X110636741Y-87951253D01*
X110633157Y-87933235D01*
X110492809Y-87723191D01*
X110282765Y-87582843D01*
X110035000Y-87533560D01*
X108335000Y-87533560D01*
X108087235Y-87582843D01*
X107877191Y-87723191D01*
X107736843Y-87933235D01*
X107727816Y-87978619D01*
X107715625Y-87960375D01*
X107224418Y-87632161D01*
X106791256Y-87546000D01*
X106498744Y-87546000D01*
X106065582Y-87632161D01*
X105574375Y-87960375D01*
X105375000Y-88258761D01*
X105175625Y-87960375D01*
X104684418Y-87632161D01*
X104251256Y-87546000D01*
X103958744Y-87546000D01*
X103525582Y-87632161D01*
X103034375Y-87960375D01*
X103027627Y-87970474D01*
X103013156Y-87897724D01*
X102872808Y-87687680D01*
X102662764Y-87547332D01*
X102617380Y-87538305D01*
X102635624Y-87526114D01*
X102963838Y-87034907D01*
X103079091Y-86455489D01*
X102963838Y-85876071D01*
X102635624Y-85384864D01*
X102337238Y-85185489D01*
X102635624Y-84986114D01*
X102963838Y-84494907D01*
X103079091Y-83915489D01*
X102963838Y-83336071D01*
X102635624Y-82844864D01*
X102337238Y-82645489D01*
X102635624Y-82446114D01*
X102642372Y-82436015D01*
X102656843Y-82508765D01*
X102797191Y-82718809D01*
X103007235Y-82859157D01*
X103255000Y-82908440D01*
X104955000Y-82908440D01*
X105202765Y-82859157D01*
X105412809Y-82718809D01*
X105553157Y-82508765D01*
X105573739Y-82405292D01*
X105878076Y-82682645D01*
X106288110Y-82852476D01*
X106518000Y-82731155D01*
X106518000Y-81538000D01*
X106498000Y-81538000D01*
X106498000Y-81284000D01*
X106518000Y-81284000D01*
X106518000Y-81264000D01*
X106772000Y-81264000D01*
X106772000Y-81284000D01*
X106772000Y-81284000D01*
G37*
X106772000Y-81284000D02*
X106792000Y-81284000D01*
X106792000Y-81538000D01*
X106772000Y-81538000D01*
X106772000Y-82731155D01*
X107001890Y-82852476D01*
X107411924Y-82682645D01*
X107840183Y-82292358D01*
X107901157Y-82162522D01*
X108114375Y-82481625D01*
X108605582Y-82809839D01*
X109038744Y-82896000D01*
X109331256Y-82896000D01*
X109764418Y-82809839D01*
X110255625Y-82481625D01*
X110273259Y-82455234D01*
X110276843Y-82473252D01*
X110417191Y-82683296D01*
X110627235Y-82823644D01*
X110672619Y-82832671D01*
X110654375Y-82844862D01*
X110326161Y-83336069D01*
X110210908Y-83915487D01*
X110326161Y-84494905D01*
X110654375Y-84986112D01*
X110952761Y-85185487D01*
X110654375Y-85384862D01*
X110326161Y-85876069D01*
X110210908Y-86455487D01*
X110326161Y-87034905D01*
X110654375Y-87526112D01*
X110952761Y-87725487D01*
X110654375Y-87924862D01*
X110636741Y-87951253D01*
X110633157Y-87933235D01*
X110492809Y-87723191D01*
X110282765Y-87582843D01*
X110035000Y-87533560D01*
X108335000Y-87533560D01*
X108087235Y-87582843D01*
X107877191Y-87723191D01*
X107736843Y-87933235D01*
X107727816Y-87978619D01*
X107715625Y-87960375D01*
X107224418Y-87632161D01*
X106791256Y-87546000D01*
X106498744Y-87546000D01*
X106065582Y-87632161D01*
X105574375Y-87960375D01*
X105375000Y-88258761D01*
X105175625Y-87960375D01*
X104684418Y-87632161D01*
X104251256Y-87546000D01*
X103958744Y-87546000D01*
X103525582Y-87632161D01*
X103034375Y-87960375D01*
X103027627Y-87970474D01*
X103013156Y-87897724D01*
X102872808Y-87687680D01*
X102662764Y-87547332D01*
X102617380Y-87538305D01*
X102635624Y-87526114D01*
X102963838Y-87034907D01*
X103079091Y-86455489D01*
X102963838Y-85876071D01*
X102635624Y-85384864D01*
X102337238Y-85185489D01*
X102635624Y-84986114D01*
X102963838Y-84494907D01*
X103079091Y-83915489D01*
X102963838Y-83336071D01*
X102635624Y-82844864D01*
X102337238Y-82645489D01*
X102635624Y-82446114D01*
X102642372Y-82436015D01*
X102656843Y-82508765D01*
X102797191Y-82718809D01*
X103007235Y-82859157D01*
X103255000Y-82908440D01*
X104955000Y-82908440D01*
X105202765Y-82859157D01*
X105412809Y-82718809D01*
X105553157Y-82508765D01*
X105573739Y-82405292D01*
X105878076Y-82682645D01*
X106288110Y-82852476D01*
X106518000Y-82731155D01*
X106518000Y-81538000D01*
X106498000Y-81538000D01*
X106498000Y-81284000D01*
X106518000Y-81284000D01*
X106518000Y-81264000D01*
X106772000Y-81264000D01*
X106772000Y-81284000D01*
G04 #@! TO.N,/VDD_2_GND*
G36*
X84601149Y-92557000D02*
X84621149Y-92557000D01*
X84621149Y-92811000D01*
X84601149Y-92811000D01*
X84601149Y-94004155D01*
X84831039Y-94125476D01*
X85241073Y-93955645D01*
X85669332Y-93565358D01*
X85730306Y-93435522D01*
X85943524Y-93754625D01*
X86434731Y-94082839D01*
X86867893Y-94169000D01*
X87160405Y-94169000D01*
X87593567Y-94082839D01*
X88011000Y-93803919D01*
X88011000Y-98835770D01*
X87864148Y-98806560D01*
X86164148Y-98806560D01*
X85916383Y-98855843D01*
X85706339Y-98996191D01*
X85565991Y-99206235D01*
X85556964Y-99251619D01*
X85544773Y-99233375D01*
X85053566Y-98905161D01*
X84620404Y-98819000D01*
X84327892Y-98819000D01*
X83894730Y-98905161D01*
X83403523Y-99233375D01*
X83204148Y-99531761D01*
X83004773Y-99233375D01*
X82513566Y-98905161D01*
X82080404Y-98819000D01*
X81787892Y-98819000D01*
X81354730Y-98905161D01*
X80899000Y-99209670D01*
X80899000Y-94144612D01*
X81084149Y-94181440D01*
X82784149Y-94181440D01*
X83031914Y-94132157D01*
X83241958Y-93991809D01*
X83382306Y-93781765D01*
X83402888Y-93678292D01*
X83707225Y-93955645D01*
X84117259Y-94125476D01*
X84347149Y-94004155D01*
X84347149Y-92811000D01*
X84327149Y-92811000D01*
X84327149Y-92557000D01*
X84347149Y-92557000D01*
X84347149Y-92537000D01*
X84601149Y-92537000D01*
X84601149Y-92557000D01*
X84601149Y-92557000D01*
G37*
X84601149Y-92557000D02*
X84621149Y-92557000D01*
X84621149Y-92811000D01*
X84601149Y-92811000D01*
X84601149Y-94004155D01*
X84831039Y-94125476D01*
X85241073Y-93955645D01*
X85669332Y-93565358D01*
X85730306Y-93435522D01*
X85943524Y-93754625D01*
X86434731Y-94082839D01*
X86867893Y-94169000D01*
X87160405Y-94169000D01*
X87593567Y-94082839D01*
X88011000Y-93803919D01*
X88011000Y-98835770D01*
X87864148Y-98806560D01*
X86164148Y-98806560D01*
X85916383Y-98855843D01*
X85706339Y-98996191D01*
X85565991Y-99206235D01*
X85556964Y-99251619D01*
X85544773Y-99233375D01*
X85053566Y-98905161D01*
X84620404Y-98819000D01*
X84327892Y-98819000D01*
X83894730Y-98905161D01*
X83403523Y-99233375D01*
X83204148Y-99531761D01*
X83004773Y-99233375D01*
X82513566Y-98905161D01*
X82080404Y-98819000D01*
X81787892Y-98819000D01*
X81354730Y-98905161D01*
X80899000Y-99209670D01*
X80899000Y-94144612D01*
X81084149Y-94181440D01*
X82784149Y-94181440D01*
X83031914Y-94132157D01*
X83241958Y-93991809D01*
X83382306Y-93781765D01*
X83402888Y-93678292D01*
X83707225Y-93955645D01*
X84117259Y-94125476D01*
X84347149Y-94004155D01*
X84347149Y-92811000D01*
X84327149Y-92811000D01*
X84327149Y-92557000D01*
X84347149Y-92557000D01*
X84347149Y-92537000D01*
X84601149Y-92537000D01*
X84601149Y-92557000D01*
G04 #@! TO.N,/IOVDD_2_GND*
G36*
X93328148Y-92610000D02*
X93348148Y-92610000D01*
X93348148Y-92864000D01*
X93328148Y-92864000D01*
X93328148Y-94057155D01*
X93558038Y-94178476D01*
X93968072Y-94008645D01*
X94396331Y-93618358D01*
X94457305Y-93488522D01*
X94670523Y-93807625D01*
X95161730Y-94135839D01*
X95594892Y-94222000D01*
X95887404Y-94222000D01*
X96320566Y-94135839D01*
X96774000Y-93832864D01*
X96774000Y-98895931D01*
X96591147Y-98859560D01*
X94891147Y-98859560D01*
X94643382Y-98908843D01*
X94433338Y-99049191D01*
X94292990Y-99259235D01*
X94283963Y-99304619D01*
X94271772Y-99286375D01*
X93780565Y-98958161D01*
X93347403Y-98872000D01*
X93054891Y-98872000D01*
X92621729Y-98958161D01*
X92130522Y-99286375D01*
X91931147Y-99584761D01*
X91731772Y-99286375D01*
X91240565Y-98958161D01*
X90807403Y-98872000D01*
X90514891Y-98872000D01*
X90081729Y-98958161D01*
X89662000Y-99238615D01*
X89662000Y-94204773D01*
X89811148Y-94234440D01*
X91511148Y-94234440D01*
X91758913Y-94185157D01*
X91968957Y-94044809D01*
X92109305Y-93834765D01*
X92129887Y-93731292D01*
X92434224Y-94008645D01*
X92844258Y-94178476D01*
X93074148Y-94057155D01*
X93074148Y-92864000D01*
X93054148Y-92864000D01*
X93054148Y-92610000D01*
X93074148Y-92610000D01*
X93074148Y-92590000D01*
X93328148Y-92590000D01*
X93328148Y-92610000D01*
X93328148Y-92610000D01*
G37*
X93328148Y-92610000D02*
X93348148Y-92610000D01*
X93348148Y-92864000D01*
X93328148Y-92864000D01*
X93328148Y-94057155D01*
X93558038Y-94178476D01*
X93968072Y-94008645D01*
X94396331Y-93618358D01*
X94457305Y-93488522D01*
X94670523Y-93807625D01*
X95161730Y-94135839D01*
X95594892Y-94222000D01*
X95887404Y-94222000D01*
X96320566Y-94135839D01*
X96774000Y-93832864D01*
X96774000Y-98895931D01*
X96591147Y-98859560D01*
X94891147Y-98859560D01*
X94643382Y-98908843D01*
X94433338Y-99049191D01*
X94292990Y-99259235D01*
X94283963Y-99304619D01*
X94271772Y-99286375D01*
X93780565Y-98958161D01*
X93347403Y-98872000D01*
X93054891Y-98872000D01*
X92621729Y-98958161D01*
X92130522Y-99286375D01*
X91931147Y-99584761D01*
X91731772Y-99286375D01*
X91240565Y-98958161D01*
X90807403Y-98872000D01*
X90514891Y-98872000D01*
X90081729Y-98958161D01*
X89662000Y-99238615D01*
X89662000Y-94204773D01*
X89811148Y-94234440D01*
X91511148Y-94234440D01*
X91758913Y-94185157D01*
X91968957Y-94044809D01*
X92109305Y-93834765D01*
X92129887Y-93731292D01*
X92434224Y-94008645D01*
X92844258Y-94178476D01*
X93074148Y-94057155D01*
X93074148Y-92864000D01*
X93054148Y-92864000D01*
X93054148Y-92610000D01*
X93074148Y-92610000D01*
X93074148Y-92590000D01*
X93328148Y-92590000D01*
X93328148Y-92610000D01*
G04 #@! TO.N,/AVDD_2_GND*
G36*
X95528149Y-81213000D02*
X95548149Y-81213000D01*
X95548149Y-81467000D01*
X95528149Y-81467000D01*
X95528149Y-82660155D01*
X95758039Y-82781476D01*
X96168073Y-82611645D01*
X96596332Y-82221358D01*
X96657306Y-82091522D01*
X96870524Y-82410625D01*
X97361731Y-82738839D01*
X97794893Y-82825000D01*
X98087405Y-82825000D01*
X98520567Y-82738839D01*
X98933000Y-82463260D01*
X98933000Y-87490776D01*
X98791146Y-87462560D01*
X97091146Y-87462560D01*
X96843381Y-87511843D01*
X96633337Y-87652191D01*
X96492989Y-87862235D01*
X96483962Y-87907619D01*
X96471771Y-87889375D01*
X95980564Y-87561161D01*
X95547402Y-87475000D01*
X95254890Y-87475000D01*
X94821728Y-87561161D01*
X94330521Y-87889375D01*
X94131146Y-88187761D01*
X93931771Y-87889375D01*
X93440564Y-87561161D01*
X93007402Y-87475000D01*
X92714890Y-87475000D01*
X92281728Y-87561161D01*
X91821000Y-87869010D01*
X91821000Y-82799617D01*
X92011149Y-82837440D01*
X93711149Y-82837440D01*
X93958914Y-82788157D01*
X94168958Y-82647809D01*
X94309306Y-82437765D01*
X94329888Y-82334292D01*
X94634225Y-82611645D01*
X95044259Y-82781476D01*
X95274149Y-82660155D01*
X95274149Y-81467000D01*
X95254149Y-81467000D01*
X95254149Y-81213000D01*
X95274149Y-81213000D01*
X95274149Y-81193000D01*
X95528149Y-81193000D01*
X95528149Y-81213000D01*
X95528149Y-81213000D01*
G37*
X95528149Y-81213000D02*
X95548149Y-81213000D01*
X95548149Y-81467000D01*
X95528149Y-81467000D01*
X95528149Y-82660155D01*
X95758039Y-82781476D01*
X96168073Y-82611645D01*
X96596332Y-82221358D01*
X96657306Y-82091522D01*
X96870524Y-82410625D01*
X97361731Y-82738839D01*
X97794893Y-82825000D01*
X98087405Y-82825000D01*
X98520567Y-82738839D01*
X98933000Y-82463260D01*
X98933000Y-87490776D01*
X98791146Y-87462560D01*
X97091146Y-87462560D01*
X96843381Y-87511843D01*
X96633337Y-87652191D01*
X96492989Y-87862235D01*
X96483962Y-87907619D01*
X96471771Y-87889375D01*
X95980564Y-87561161D01*
X95547402Y-87475000D01*
X95254890Y-87475000D01*
X94821728Y-87561161D01*
X94330521Y-87889375D01*
X94131146Y-88187761D01*
X93931771Y-87889375D01*
X93440564Y-87561161D01*
X93007402Y-87475000D01*
X92714890Y-87475000D01*
X92281728Y-87561161D01*
X91821000Y-87869010D01*
X91821000Y-82799617D01*
X92011149Y-82837440D01*
X93711149Y-82837440D01*
X93958914Y-82788157D01*
X94168958Y-82647809D01*
X94309306Y-82437765D01*
X94329888Y-82334292D01*
X94634225Y-82611645D01*
X95044259Y-82781476D01*
X95274149Y-82660155D01*
X95274149Y-81467000D01*
X95254149Y-81467000D01*
X95254149Y-81213000D01*
X95274149Y-81213000D01*
X95274149Y-81193000D01*
X95528149Y-81193000D01*
X95528149Y-81213000D01*
G04 #@! TO.N,/CRYSTAL_2_GND*
G36*
X89947000Y-90036000D02*
X83356464Y-90036000D01*
X83397440Y-89830000D01*
X83397440Y-88130000D01*
X83348157Y-87882235D01*
X83207809Y-87672191D01*
X82997765Y-87531843D01*
X82952381Y-87522816D01*
X82970625Y-87510625D01*
X83298839Y-87019418D01*
X83414092Y-86440000D01*
X83298839Y-85860582D01*
X82970625Y-85369375D01*
X82651522Y-85156157D01*
X82781358Y-85095183D01*
X83171645Y-84666924D01*
X83341476Y-84256890D01*
X83220155Y-84027000D01*
X82027000Y-84027000D01*
X82027000Y-84047000D01*
X81773000Y-84047000D01*
X81773000Y-84027000D01*
X81753000Y-84027000D01*
X81753000Y-83773000D01*
X81773000Y-83773000D01*
X81773000Y-83753000D01*
X82027000Y-83753000D01*
X82027000Y-83773000D01*
X83220155Y-83773000D01*
X83341476Y-83543110D01*
X83171645Y-83133076D01*
X82781358Y-82704817D01*
X82651522Y-82643843D01*
X82970625Y-82430625D01*
X83298839Y-81939418D01*
X83414092Y-81360000D01*
X83298839Y-80780582D01*
X82970625Y-80289375D01*
X82922172Y-80257000D01*
X89947000Y-80257000D01*
X89947000Y-90036000D01*
X89947000Y-90036000D01*
G37*
X89947000Y-90036000D02*
X83356464Y-90036000D01*
X83397440Y-89830000D01*
X83397440Y-88130000D01*
X83348157Y-87882235D01*
X83207809Y-87672191D01*
X82997765Y-87531843D01*
X82952381Y-87522816D01*
X82970625Y-87510625D01*
X83298839Y-87019418D01*
X83414092Y-86440000D01*
X83298839Y-85860582D01*
X82970625Y-85369375D01*
X82651522Y-85156157D01*
X82781358Y-85095183D01*
X83171645Y-84666924D01*
X83341476Y-84256890D01*
X83220155Y-84027000D01*
X82027000Y-84027000D01*
X82027000Y-84047000D01*
X81773000Y-84047000D01*
X81773000Y-84027000D01*
X81753000Y-84027000D01*
X81753000Y-83773000D01*
X81773000Y-83773000D01*
X81773000Y-83753000D01*
X82027000Y-83753000D01*
X82027000Y-83773000D01*
X83220155Y-83773000D01*
X83341476Y-83543110D01*
X83171645Y-83133076D01*
X82781358Y-82704817D01*
X82651522Y-82643843D01*
X82970625Y-82430625D01*
X83298839Y-81939418D01*
X83414092Y-81360000D01*
X83298839Y-80780582D01*
X82970625Y-80289375D01*
X82922172Y-80257000D01*
X89947000Y-80257000D01*
X89947000Y-90036000D01*
G04 #@! TO.N,/REF_4_GND*
G36*
X93575000Y-102788690D02*
X93575000Y-103479250D01*
X93733750Y-103638000D01*
X94933000Y-103638000D01*
X94933000Y-103618000D01*
X95187000Y-103618000D01*
X95187000Y-103638000D01*
X95207000Y-103638000D01*
X95207000Y-103892000D01*
X95187000Y-103892000D01*
X95187000Y-103912000D01*
X94933000Y-103912000D01*
X94933000Y-103892000D01*
X93733750Y-103892000D01*
X93575000Y-104050750D01*
X93575000Y-104741310D01*
X93671673Y-104974699D01*
X93850302Y-105153327D01*
X94011033Y-105219904D01*
X93989375Y-105234375D01*
X93661161Y-105725582D01*
X93545908Y-106305000D01*
X93661161Y-106884418D01*
X93989375Y-107375625D01*
X94287761Y-107575000D01*
X93989375Y-107774375D01*
X93661161Y-108265582D01*
X93545908Y-108845000D01*
X93661161Y-109424418D01*
X93989375Y-109915625D01*
X94287761Y-110115000D01*
X93989375Y-110314375D01*
X93661161Y-110805582D01*
X93545908Y-111385000D01*
X93661161Y-111964418D01*
X93882049Y-112295000D01*
X83845505Y-112295000D01*
X83857440Y-112235000D01*
X83857440Y-110535000D01*
X83808157Y-110287235D01*
X83667809Y-110077191D01*
X83457765Y-109936843D01*
X83412381Y-109927816D01*
X83430625Y-109915625D01*
X83758839Y-109424418D01*
X83874092Y-108845000D01*
X83758839Y-108265582D01*
X83430625Y-107774375D01*
X83132239Y-107575000D01*
X83430625Y-107375625D01*
X83758839Y-106884418D01*
X83874092Y-106305000D01*
X83758839Y-105725582D01*
X83430625Y-105234375D01*
X83132239Y-105035000D01*
X83430625Y-104835625D01*
X83758839Y-104344418D01*
X83874092Y-103765000D01*
X83758839Y-103185582D01*
X83463115Y-102743000D01*
X93593925Y-102743000D01*
X93575000Y-102788690D01*
X93575000Y-102788690D01*
G37*
X93575000Y-102788690D02*
X93575000Y-103479250D01*
X93733750Y-103638000D01*
X94933000Y-103638000D01*
X94933000Y-103618000D01*
X95187000Y-103618000D01*
X95187000Y-103638000D01*
X95207000Y-103638000D01*
X95207000Y-103892000D01*
X95187000Y-103892000D01*
X95187000Y-103912000D01*
X94933000Y-103912000D01*
X94933000Y-103892000D01*
X93733750Y-103892000D01*
X93575000Y-104050750D01*
X93575000Y-104741310D01*
X93671673Y-104974699D01*
X93850302Y-105153327D01*
X94011033Y-105219904D01*
X93989375Y-105234375D01*
X93661161Y-105725582D01*
X93545908Y-106305000D01*
X93661161Y-106884418D01*
X93989375Y-107375625D01*
X94287761Y-107575000D01*
X93989375Y-107774375D01*
X93661161Y-108265582D01*
X93545908Y-108845000D01*
X93661161Y-109424418D01*
X93989375Y-109915625D01*
X94287761Y-110115000D01*
X93989375Y-110314375D01*
X93661161Y-110805582D01*
X93545908Y-111385000D01*
X93661161Y-111964418D01*
X93882049Y-112295000D01*
X83845505Y-112295000D01*
X83857440Y-112235000D01*
X83857440Y-110535000D01*
X83808157Y-110287235D01*
X83667809Y-110077191D01*
X83457765Y-109936843D01*
X83412381Y-109927816D01*
X83430625Y-109915625D01*
X83758839Y-109424418D01*
X83874092Y-108845000D01*
X83758839Y-108265582D01*
X83430625Y-107774375D01*
X83132239Y-107575000D01*
X83430625Y-107375625D01*
X83758839Y-106884418D01*
X83874092Y-106305000D01*
X83758839Y-105725582D01*
X83430625Y-105234375D01*
X83132239Y-105035000D01*
X83430625Y-104835625D01*
X83758839Y-104344418D01*
X83874092Y-103765000D01*
X83758839Y-103185582D01*
X83463115Y-102743000D01*
X93593925Y-102743000D01*
X93575000Y-102788690D01*
G04 #@! TO.N,/SD/6_Vss*
G36*
X112295001Y-112295000D02*
X98427815Y-112295000D01*
X98542055Y-92760000D01*
X98925908Y-92760000D01*
X99041161Y-93339418D01*
X99369375Y-93830625D01*
X99667761Y-94030000D01*
X99369375Y-94229375D01*
X99041161Y-94720582D01*
X98925908Y-95300000D01*
X99041161Y-95879418D01*
X99369375Y-96370625D01*
X99860582Y-96698839D01*
X100293744Y-96785000D01*
X100586256Y-96785000D01*
X101019418Y-96698839D01*
X101510625Y-96370625D01*
X101710000Y-96072239D01*
X101909375Y-96370625D01*
X102400582Y-96698839D01*
X102833744Y-96785000D01*
X103126256Y-96785000D01*
X103559418Y-96698839D01*
X104050625Y-96370625D01*
X104250000Y-96072239D01*
X104449375Y-96370625D01*
X104940582Y-96698839D01*
X105373744Y-96785000D01*
X105666256Y-96785000D01*
X106099418Y-96698839D01*
X106590625Y-96370625D01*
X106790000Y-96072239D01*
X106989375Y-96370625D01*
X107480582Y-96698839D01*
X107913744Y-96785000D01*
X108206256Y-96785000D01*
X108639418Y-96698839D01*
X109130625Y-96370625D01*
X109142816Y-96352381D01*
X109151843Y-96397765D01*
X109292191Y-96607809D01*
X109502235Y-96748157D01*
X109750000Y-96797440D01*
X111450000Y-96797440D01*
X111697765Y-96748157D01*
X111907809Y-96607809D01*
X112048157Y-96397765D01*
X112097440Y-96150000D01*
X112097440Y-94450000D01*
X112048157Y-94202235D01*
X111907809Y-93992191D01*
X111697765Y-93851843D01*
X111652381Y-93842816D01*
X111670625Y-93830625D01*
X111998839Y-93339418D01*
X112114092Y-92760000D01*
X111998839Y-92180582D01*
X111670625Y-91689375D01*
X111179418Y-91361161D01*
X110746256Y-91275000D01*
X110453744Y-91275000D01*
X110020582Y-91361161D01*
X109529375Y-91689375D01*
X109330000Y-91987761D01*
X109130625Y-91689375D01*
X108639418Y-91361161D01*
X108206256Y-91275000D01*
X107913744Y-91275000D01*
X107480582Y-91361161D01*
X106989375Y-91689375D01*
X106776157Y-92008478D01*
X106715183Y-91878642D01*
X106286924Y-91488355D01*
X105876890Y-91318524D01*
X105647000Y-91439845D01*
X105647000Y-92633000D01*
X105667000Y-92633000D01*
X105667000Y-92887000D01*
X105647000Y-92887000D01*
X105647000Y-92907000D01*
X105393000Y-92907000D01*
X105393000Y-92887000D01*
X105373000Y-92887000D01*
X105373000Y-92633000D01*
X105393000Y-92633000D01*
X105393000Y-91439845D01*
X105163110Y-91318524D01*
X104753076Y-91488355D01*
X104324817Y-91878642D01*
X104263843Y-92008478D01*
X104050625Y-91689375D01*
X103559418Y-91361161D01*
X103126256Y-91275000D01*
X102833744Y-91275000D01*
X102400582Y-91361161D01*
X101909375Y-91689375D01*
X101710000Y-91987761D01*
X101510625Y-91689375D01*
X101019418Y-91361161D01*
X100586256Y-91275000D01*
X100293744Y-91275000D01*
X99860582Y-91361161D01*
X99369375Y-91689375D01*
X99041161Y-92180582D01*
X98925908Y-92760000D01*
X98542055Y-92760000D01*
X98551260Y-91186000D01*
X112295001Y-91186000D01*
X112295001Y-112295000D01*
X112295001Y-112295000D01*
G37*
X112295001Y-112295000D02*
X98427815Y-112295000D01*
X98542055Y-92760000D01*
X98925908Y-92760000D01*
X99041161Y-93339418D01*
X99369375Y-93830625D01*
X99667761Y-94030000D01*
X99369375Y-94229375D01*
X99041161Y-94720582D01*
X98925908Y-95300000D01*
X99041161Y-95879418D01*
X99369375Y-96370625D01*
X99860582Y-96698839D01*
X100293744Y-96785000D01*
X100586256Y-96785000D01*
X101019418Y-96698839D01*
X101510625Y-96370625D01*
X101710000Y-96072239D01*
X101909375Y-96370625D01*
X102400582Y-96698839D01*
X102833744Y-96785000D01*
X103126256Y-96785000D01*
X103559418Y-96698839D01*
X104050625Y-96370625D01*
X104250000Y-96072239D01*
X104449375Y-96370625D01*
X104940582Y-96698839D01*
X105373744Y-96785000D01*
X105666256Y-96785000D01*
X106099418Y-96698839D01*
X106590625Y-96370625D01*
X106790000Y-96072239D01*
X106989375Y-96370625D01*
X107480582Y-96698839D01*
X107913744Y-96785000D01*
X108206256Y-96785000D01*
X108639418Y-96698839D01*
X109130625Y-96370625D01*
X109142816Y-96352381D01*
X109151843Y-96397765D01*
X109292191Y-96607809D01*
X109502235Y-96748157D01*
X109750000Y-96797440D01*
X111450000Y-96797440D01*
X111697765Y-96748157D01*
X111907809Y-96607809D01*
X112048157Y-96397765D01*
X112097440Y-96150000D01*
X112097440Y-94450000D01*
X112048157Y-94202235D01*
X111907809Y-93992191D01*
X111697765Y-93851843D01*
X111652381Y-93842816D01*
X111670625Y-93830625D01*
X111998839Y-93339418D01*
X112114092Y-92760000D01*
X111998839Y-92180582D01*
X111670625Y-91689375D01*
X111179418Y-91361161D01*
X110746256Y-91275000D01*
X110453744Y-91275000D01*
X110020582Y-91361161D01*
X109529375Y-91689375D01*
X109330000Y-91987761D01*
X109130625Y-91689375D01*
X108639418Y-91361161D01*
X108206256Y-91275000D01*
X107913744Y-91275000D01*
X107480582Y-91361161D01*
X106989375Y-91689375D01*
X106776157Y-92008478D01*
X106715183Y-91878642D01*
X106286924Y-91488355D01*
X105876890Y-91318524D01*
X105647000Y-91439845D01*
X105647000Y-92633000D01*
X105667000Y-92633000D01*
X105667000Y-92887000D01*
X105647000Y-92887000D01*
X105647000Y-92907000D01*
X105393000Y-92907000D01*
X105393000Y-92887000D01*
X105373000Y-92887000D01*
X105373000Y-92633000D01*
X105393000Y-92633000D01*
X105393000Y-91439845D01*
X105163110Y-91318524D01*
X104753076Y-91488355D01*
X104324817Y-91878642D01*
X104263843Y-92008478D01*
X104050625Y-91689375D01*
X103559418Y-91361161D01*
X103126256Y-91275000D01*
X102833744Y-91275000D01*
X102400582Y-91361161D01*
X101909375Y-91689375D01*
X101710000Y-91987761D01*
X101510625Y-91689375D01*
X101019418Y-91361161D01*
X100586256Y-91275000D01*
X100293744Y-91275000D01*
X99860582Y-91361161D01*
X99369375Y-91689375D01*
X99041161Y-92180582D01*
X98925908Y-92760000D01*
X98542055Y-92760000D01*
X98551260Y-91186000D01*
X112295001Y-91186000D01*
X112295001Y-112295000D01*
G04 #@! TD*
M02*
