G04 #@! TF.GenerationSoftware,KiCad,Pcbnew,5.0.2-bee76a0~70~ubuntu16.04.1*
G04 #@! TF.CreationDate,2019-05-26T13:41:25+03:00*
G04 #@! TF.ProjectId,FreeEEG32-prealpha2,46726565-4545-4473-9332-2d707265616c,rev?*
G04 #@! TF.SameCoordinates,Original*
G04 #@! TF.FileFunction,Profile,NP*
%FSLAX46Y46*%
G04 Gerber Fmt 4.6, Leading zero omitted, Abs format (unit mm)*
G04 Created by KiCad (PCBNEW 5.0.2-bee76a0~70~ubuntu16.04.1) date Вс 26 май 2019 13:41:25*
%MOMM*%
%LPD*%
G01*
G04 APERTURE LIST*
%ADD10C,0.150000*%
%ADD11C,0.200000*%
G04 APERTURE END LIST*
D10*
X16510000Y-27305000D02*
X16510000Y-28575000D01*
X15875000Y-27305000D02*
X15875000Y-28575000D01*
X15875000Y-26035000D02*
X16510000Y-26035000D01*
X15875000Y-24765000D02*
X16510000Y-24765000D01*
X15875000Y-22225000D02*
X15875000Y-23495000D01*
X16510000Y-22225000D02*
X16510000Y-23495000D01*
X15875000Y-20320000D02*
X14605000Y-20320000D01*
X15875000Y-22225000D02*
X15875000Y-20320000D01*
X16510000Y-20320000D02*
X16510000Y-22225000D01*
X18415000Y-20320000D02*
X16510000Y-20320000D01*
X15875000Y-23495000D02*
X15875000Y-24765000D01*
X16510000Y-24765000D02*
X16510000Y-23495000D01*
X16510000Y-26035000D02*
X16510000Y-27305000D01*
X15875000Y-27305000D02*
X15875000Y-26035000D01*
X14605000Y-19050000D02*
X14605000Y-20320000D01*
X18415000Y-19050000D02*
X18415000Y-20320000D01*
X22860000Y-19050000D02*
X22860000Y-20320000D01*
X19685000Y-19050000D02*
X19685000Y-20320000D01*
X15875150Y-48260430D02*
X23495150Y-48260430D01*
X23495150Y-46990430D02*
X15875150Y-46990430D01*
X23495150Y-48260430D02*
X23495150Y-46990430D01*
X15875150Y-46990430D02*
X15875150Y-48260430D01*
X15875000Y-31115000D02*
X16510000Y-31115000D01*
X15875000Y-35560000D02*
X16510000Y-35560000D01*
X15875000Y-39370000D02*
X16510000Y-39370000D01*
X15875000Y-40640000D02*
X16510000Y-40640000D01*
X15875000Y-45720000D02*
X16510000Y-45720000D01*
X24130000Y-48260000D02*
X24765000Y-48260000D01*
X24130000Y-41910000D02*
X24765000Y-41910000D01*
X24130000Y-40640000D02*
X24765000Y-40640000D01*
X24130000Y-34290000D02*
X24765000Y-34290000D01*
X24130000Y-33020000D02*
X24765000Y-33020000D01*
X24130000Y-26035000D02*
X24765000Y-26035000D01*
X24130000Y-24765000D02*
X24765000Y-24765000D01*
X24130000Y-18415000D02*
X24765000Y-18415000D01*
D11*
X17145000Y19685000D02*
X15875000Y19685000D01*
X17145000Y19050000D02*
X17145000Y19685000D01*
X15875000Y19050000D02*
X17145000Y19050000D01*
X15875000Y19685000D02*
X15875000Y19050000D01*
D10*
X6985000Y23495000D02*
X6985000Y19050000D01*
X6985000Y-6350000D02*
X9525000Y-6350000D01*
X5080000Y-6350000D02*
X6350000Y-6350000D01*
X5080000Y-6985000D02*
X5080000Y-6350000D01*
X6350000Y-5080000D02*
X6350000Y-6350000D01*
X6350000Y-5080000D02*
X6985000Y-5080000D01*
X9525000Y-6985000D02*
X5080000Y-6985000D01*
X9525000Y-6985000D02*
X9525000Y-6350000D01*
X17145000Y-6350000D02*
X17145000Y-6985000D01*
X10795000Y-6350000D02*
X17145000Y-6350000D01*
X10795000Y-6985000D02*
X10795000Y-6350000D01*
X17145000Y-6985000D02*
X10795000Y-6985000D01*
X6985000Y-5080000D02*
X6985000Y-6350000D01*
X15875150Y-34290430D02*
X23495150Y-34290430D01*
X15875150Y-33020430D02*
X15875150Y-34290430D01*
X23495150Y-33020430D02*
X15875150Y-33020430D01*
X32385000Y-21590000D02*
X32385000Y-26670000D01*
X33020000Y-21590000D02*
X32385000Y-21590000D01*
X33020000Y-21590000D02*
X33020000Y-26670000D01*
X33020000Y-20320000D02*
X29210000Y-20320000D01*
X33020000Y-18415000D02*
X33020000Y-20320000D01*
X19685000Y-20320000D02*
X22860000Y-20320000D01*
X19685000Y-18415000D02*
X19685000Y-19050000D01*
X22860000Y-18415000D02*
X19685000Y-18415000D01*
X18415000Y-14605000D02*
X19050000Y-14605000D01*
X18415000Y-17145000D02*
X18415000Y-14605000D01*
X19050000Y-17145000D02*
X18415000Y-17145000D01*
X19050000Y-14605000D02*
X19050000Y-17145000D01*
X22860000Y-19050000D02*
X22860000Y-18415000D01*
X24130000Y-18415000D02*
X24130000Y-24765000D01*
X24765000Y-24765000D02*
X24765000Y-18415000D01*
X27940000Y-18415000D02*
X27940000Y-20320000D01*
X26035000Y-18415000D02*
X27940000Y-18415000D01*
X26035000Y-20320000D02*
X26035000Y-18415000D01*
X27940000Y-20320000D02*
X26035000Y-20320000D01*
X29210000Y-18415000D02*
X29210000Y-20320000D01*
X15875150Y-45720430D02*
X15875150Y-40640430D01*
X16510150Y-40640430D02*
X16510150Y-45720430D01*
X15875150Y-39370430D02*
X15875150Y-35560430D01*
X16510150Y-35560430D02*
X16510150Y-39370430D01*
X6985000Y10160000D02*
X6985000Y8890000D01*
X15875150Y-28575430D02*
X15875150Y-31115430D01*
X16510150Y-31115430D02*
X16510150Y-28575430D01*
X13335000Y-48260000D02*
X13335000Y-41275000D01*
X12700000Y-48260000D02*
X13335000Y-48260000D01*
X12700000Y-41275000D02*
X12700000Y-48260000D01*
X32385000Y-14605000D02*
X33020000Y-14605000D01*
X32385000Y-17145000D02*
X32385000Y-14605000D01*
X33020000Y-17145000D02*
X32385000Y-17145000D01*
X33020000Y-14605000D02*
X33020000Y-17145000D01*
X24130000Y-26035000D02*
X24130000Y-33020000D01*
X24765000Y-33020000D02*
X24765000Y-26035000D01*
X32385000Y-26670000D02*
X33020000Y-26670000D01*
X32385000Y-27940000D02*
X32385000Y-33020000D01*
X33020000Y-27940000D02*
X32385000Y-27940000D01*
X33020000Y-33020000D02*
X33020000Y-27940000D01*
X34290000Y-34290000D02*
X34925000Y-34290000D01*
X34290000Y-33655000D02*
X34290000Y-34290000D01*
X34925000Y-33655000D02*
X34290000Y-33655000D01*
X33020000Y-34290000D02*
X32385000Y-34290000D01*
X33020000Y-33020000D02*
X33020000Y-34290000D01*
X40640000Y-33655000D02*
X40640000Y-34290000D01*
X36830000Y-33655000D02*
X40640000Y-33655000D01*
X40640000Y-34290000D02*
X36830000Y-34290000D01*
X48260000Y-33655000D02*
X48260000Y-34290000D01*
X41910000Y-33655000D02*
X48260000Y-33655000D01*
X41910000Y-34290000D02*
X41910000Y-33655000D01*
X48260000Y-34290000D02*
X41910000Y-34290000D01*
X36830000Y-34290000D02*
X36830000Y-33655000D01*
X36195000Y-33655000D02*
X34925000Y-33655000D01*
X36195000Y-34290000D02*
X36195000Y-33655000D01*
X34925000Y-34290000D02*
X36195000Y-34290000D01*
X32385000Y-33020000D02*
X32385000Y-34290000D01*
X24130000Y-34290000D02*
X24130000Y-40640000D01*
X24765000Y-40640000D02*
X24765000Y-34290000D01*
X24130000Y-41910000D02*
X24130000Y-48260000D01*
X24765000Y-48260000D02*
X24765000Y-41910000D01*
X18415000Y-19050000D02*
X18415000Y-18415000D01*
X14605000Y-18415000D02*
X14605000Y-19050000D01*
X18415000Y-18415000D02*
X14605000Y-18415000D01*
X36195000Y-40640000D02*
X36830000Y-40640000D01*
X36195000Y-34290000D02*
X36195000Y-40640000D01*
X36830000Y-34290000D02*
X36195000Y-34290000D01*
X36830000Y-40640000D02*
X36830000Y-34290000D01*
X36195000Y-48260000D02*
X36830000Y-48260000D01*
X36195000Y-41910000D02*
X36195000Y-48260000D01*
X36830000Y-41910000D02*
X36195000Y-41910000D01*
X36830000Y-48260000D02*
X36830000Y-41910000D01*
X31115000Y-33020000D02*
X24765000Y-33020000D01*
X31115000Y-34290000D02*
X31115000Y-33020000D01*
X24765000Y-34290000D02*
X31115000Y-34290000D01*
X24765000Y-33020000D02*
X24765000Y-34290000D01*
X29210000Y-18415000D02*
X33020000Y-18415000D01*
D11*
X13335000Y-41275000D02*
X12700000Y-41275000D01*
X13335000Y-33655000D02*
X12700000Y-33655000D01*
X13335000Y-40005000D02*
X13335000Y-33655000D01*
X12700000Y-40005000D02*
X13335000Y-40005000D01*
X12700000Y-33655000D02*
X12700000Y-40005000D01*
X13335000Y-26035000D02*
X12700000Y-26035000D01*
X13335000Y-32385000D02*
X13335000Y-26035000D01*
X12700000Y-32385000D02*
X13335000Y-32385000D01*
X12700000Y-26035000D02*
X12700000Y-32385000D01*
X12700000Y-24765000D02*
X12700000Y-19050000D01*
X13335000Y-24765000D02*
X12700000Y-24765000D01*
X13335000Y-18415000D02*
X13335000Y-24765000D01*
X12700000Y-18415000D02*
X13335000Y-18415000D01*
X12700000Y-19050000D02*
X12700000Y-18415000D01*
X5080000Y-18415000D02*
X5080000Y-19050000D01*
X11430000Y-18415000D02*
X5080000Y-18415000D01*
X11430000Y-19050000D02*
X11430000Y-18415000D01*
X5080000Y-19050000D02*
X11430000Y-19050000D01*
D10*
X6985000Y8890000D02*
X6985000Y3810000D01*
X23495150Y-34290430D02*
X23495150Y-33020430D01*
X18415000Y10160000D02*
X18415000Y3810000D01*
X8255000Y19050000D02*
X14605000Y19050000D01*
X3175000Y-18415000D02*
X3810000Y-18415000D01*
X-2540000Y-18415000D02*
X2540000Y-18415000D01*
X-22860000Y-18415000D02*
X-19050000Y-18415000D01*
X-25400000Y-18415000D02*
X-24130000Y-18415000D01*
X3175000Y-15875000D02*
X2540000Y-15875000D01*
X3175000Y-18415000D02*
X3175000Y-15875000D01*
X2540000Y-15875000D02*
X2540000Y-18415000D01*
X3175000Y-8255000D02*
X2540000Y-8255000D01*
X3175000Y-14605000D02*
X3175000Y-8255000D01*
X2540000Y-14605000D02*
X3175000Y-14605000D01*
X2540000Y-8255000D02*
X2540000Y-14605000D01*
X-2540000Y-19050000D02*
X-2540000Y-18415000D01*
X3810000Y-19050000D02*
X-2540000Y-19050000D01*
X3810000Y-18415000D02*
X3810000Y-19050000D01*
X-10160000Y-18415000D02*
X-10160000Y-19050000D01*
X-3810000Y-18415000D02*
X-10160000Y-18415000D01*
X-3810000Y-19050000D02*
X-3810000Y-18415000D01*
X-10160000Y-19050000D02*
X-3810000Y-19050000D01*
X-17780000Y-19050000D02*
X-17780000Y-18415000D01*
X-11430000Y-19050000D02*
X-17780000Y-19050000D01*
X-11430000Y-18415000D02*
X-11430000Y-19050000D01*
X-17780000Y-18415000D02*
X-11430000Y-18415000D01*
X-19050000Y-19050000D02*
X-19050000Y-18415000D01*
X-25400000Y-19050000D02*
X-19050000Y-19050000D01*
X-24130000Y-15875000D02*
X-22860000Y-15875000D01*
X-24130000Y-18415000D02*
X-24130000Y-15875000D01*
X-22860000Y-15875000D02*
X-22860000Y-18415000D01*
X-24130000Y-14605000D02*
X-24130000Y-8255000D01*
X-22860000Y-14605000D02*
X-24130000Y-14605000D01*
X-22860000Y-8255000D02*
X-22860000Y-14605000D01*
X-24130000Y-8255000D02*
X-22860000Y-8255000D01*
X-2540000Y-6985000D02*
X-2540000Y-6350000D01*
X3810000Y-6985000D02*
X-2540000Y-6985000D01*
X3810000Y-6350000D02*
X3810000Y-6985000D01*
X-2540000Y-6350000D02*
X3810000Y-6350000D01*
X-10160000Y-6985000D02*
X-10160000Y-6350000D01*
X-3810000Y-6985000D02*
X-10160000Y-6985000D01*
X-3810000Y-6350000D02*
X-3810000Y-6985000D01*
X-10160000Y-6350000D02*
X-3810000Y-6350000D01*
X-17780000Y-6985000D02*
X-17780000Y-6350000D01*
X-11430000Y-6985000D02*
X-17780000Y-6985000D01*
X-11430000Y-6350000D02*
X-11430000Y-6985000D01*
X-17780000Y-6350000D02*
X-11430000Y-6350000D01*
X18415000Y-5080000D02*
X19050000Y-5080000D01*
X18415000Y-11430000D02*
X18415000Y-5080000D01*
X19050000Y-11430000D02*
X18415000Y-11430000D01*
X19050000Y-5080000D02*
X19050000Y-11430000D01*
X18415000Y2540000D02*
X19050000Y2540000D01*
X18415000Y-3810000D02*
X18415000Y2540000D01*
X19050000Y-3810000D02*
X18415000Y-3810000D01*
X19050000Y2540000D02*
X19050000Y-3810000D01*
X18415000Y10160000D02*
X19050000Y10160000D01*
X19050000Y3810000D02*
X18415000Y3810000D01*
X19050000Y10160000D02*
X19050000Y3810000D01*
X25400000Y-13335000D02*
X25400000Y-12700000D01*
X19050000Y-13335000D02*
X25400000Y-13335000D01*
X19050000Y-12700000D02*
X19050000Y-13335000D01*
X25400000Y-12700000D02*
X19050000Y-12700000D01*
X33020000Y-13335000D02*
X33020000Y-12700000D01*
X26670000Y-13335000D02*
X33020000Y-13335000D01*
X26670000Y-12700000D02*
X26670000Y-13335000D01*
X33020000Y-12700000D02*
X26670000Y-12700000D01*
X40640000Y-13335000D02*
X40640000Y-12700000D01*
X34290000Y-13335000D02*
X40640000Y-13335000D01*
X34290000Y-12700000D02*
X34290000Y-13335000D01*
X40640000Y-12700000D02*
X34290000Y-12700000D01*
X48260000Y-13335000D02*
X48260000Y-12700000D01*
X41910000Y-13335000D02*
X48260000Y-13335000D01*
X41910000Y-12700000D02*
X41910000Y-13335000D01*
X48260000Y-12700000D02*
X41910000Y-12700000D01*
X18415000Y17780000D02*
X19050000Y17780000D01*
X18415000Y11430000D02*
X18415000Y17780000D01*
X19050000Y11430000D02*
X18415000Y11430000D01*
X19050000Y17780000D02*
X19050000Y11430000D01*
X25400000Y17780000D02*
X25400000Y19050000D01*
X19050000Y17780000D02*
X25400000Y17780000D01*
X19050000Y19050000D02*
X19050000Y17780000D01*
X25400000Y19050000D02*
X19050000Y19050000D01*
X33020000Y17780000D02*
X33020000Y19050000D01*
X26670000Y17780000D02*
X33020000Y17780000D01*
X26670000Y19050000D02*
X26670000Y17780000D01*
X33020000Y19050000D02*
X26670000Y19050000D01*
X40640000Y17780000D02*
X40640000Y19050000D01*
X34290000Y17780000D02*
X40640000Y17780000D01*
X34290000Y19050000D02*
X34290000Y17780000D01*
X40640000Y19050000D02*
X34290000Y19050000D01*
X48260000Y17780000D02*
X48260000Y19050000D01*
X41910000Y17780000D02*
X48260000Y17780000D01*
X41910000Y19050000D02*
X41910000Y17780000D01*
X48260000Y19050000D02*
X41910000Y19050000D01*
X6350000Y2540000D02*
X6985000Y2540000D01*
X6350000Y-3810000D02*
X6350000Y2540000D01*
X6985000Y-3810000D02*
X6350000Y-3810000D01*
X6985000Y2540000D02*
X6985000Y-3810000D01*
X6350000Y10160000D02*
X6985000Y10160000D01*
X6350000Y3810000D02*
X6350000Y10160000D01*
X6985000Y3810000D02*
X6350000Y3810000D01*
X6350000Y17780000D02*
X6985000Y17780000D01*
X6350000Y11430000D02*
X6350000Y17780000D01*
X6985000Y11430000D02*
X6350000Y11430000D01*
X6985000Y17780000D02*
X6985000Y11430000D01*
X6350000Y19050000D02*
X6350000Y23495000D01*
X6985000Y19050000D02*
X6350000Y19050000D01*
X6985000Y25400000D02*
X6350000Y25400000D01*
X6985000Y24130000D02*
X6985000Y25400000D01*
X6350000Y25400000D02*
X6350000Y24130000D01*
X6985000Y33020000D02*
X6350000Y33020000D01*
X6985000Y26670000D02*
X6985000Y33020000D01*
X6350000Y26670000D02*
X6985000Y26670000D01*
X6350000Y33020000D02*
X6350000Y26670000D01*
X6985000Y40640000D02*
X6350000Y40640000D01*
X6985000Y34290000D02*
X6985000Y40640000D01*
X6350000Y34290000D02*
X6985000Y34290000D01*
X6350000Y40640000D02*
X6350000Y34290000D01*
X6985000Y48260000D02*
X6350000Y48260000D01*
X6985000Y41910000D02*
X6985000Y48260000D01*
X6350000Y41910000D02*
X6985000Y41910000D01*
X6350000Y48260000D02*
X6350000Y41910000D01*
X6985000Y23495000D02*
X6985000Y24130000D01*
X6350000Y24130000D02*
X6350000Y23495000D01*
X14605000Y19050000D02*
X14605000Y19685000D01*
X8255000Y19685000D02*
X8255000Y19050000D01*
X14605000Y19685000D02*
X8255000Y19685000D01*
X18415000Y25400000D02*
X19050000Y25400000D01*
X18415000Y19050000D02*
X18415000Y25400000D01*
X19050000Y19050000D02*
X18415000Y19050000D01*
X19050000Y25400000D02*
X19050000Y19050000D01*
X19050000Y26670000D02*
X19050000Y33020000D01*
X18415000Y26670000D02*
X19050000Y26670000D01*
X18415000Y33020000D02*
X18415000Y26670000D01*
X19050000Y33020000D02*
X18415000Y33020000D01*
X19050000Y34290000D02*
X19050000Y40640000D01*
X18415000Y34290000D02*
X19050000Y34290000D01*
X18415000Y40640000D02*
X18415000Y34290000D01*
X19050000Y40640000D02*
X18415000Y40640000D01*
X18415000Y41910000D02*
X18415000Y48260000D01*
X19050000Y41910000D02*
X18415000Y41910000D01*
X19050000Y48260000D02*
X19050000Y41910000D01*
X19050000Y48260000D02*
X18415000Y48260000D01*
X-25400000Y-18415000D02*
X-25400000Y-19050000D01*
X-26670000Y-18415000D02*
X-33020000Y-18415000D01*
X-26670000Y-19050000D02*
X-26670000Y-18415000D01*
X-33020000Y-19050000D02*
X-26670000Y-19050000D01*
X-33020000Y-18415000D02*
X-33020000Y-19050000D01*
X-40640000Y-19050000D02*
X-40640000Y-18415000D01*
X-34290000Y-19050000D02*
X-40640000Y-19050000D01*
X-34290000Y-18415000D02*
X-34290000Y-19050000D01*
X-40640000Y-18415000D02*
X-34290000Y-18415000D01*
X-19050000Y-6350000D02*
X-25400000Y-6350000D01*
X-19050000Y-6985000D02*
X-19050000Y-6350000D01*
X-25400000Y-6985000D02*
X-19050000Y-6985000D01*
X-25400000Y-6350000D02*
X-25400000Y-6985000D01*
X-26670000Y-6350000D02*
X-33020000Y-6350000D01*
X-26670000Y-6985000D02*
X-26670000Y-6350000D01*
X-33020000Y-6985000D02*
X-26670000Y-6985000D01*
X-33020000Y-6350000D02*
X-33020000Y-6985000D01*
X-34290000Y-6350000D02*
X-40640000Y-6350000D01*
X-34290000Y-6985000D02*
X-34290000Y-6350000D01*
X-40640000Y-6985000D02*
X-34290000Y-6985000D01*
X-40640000Y-6350000D02*
X-40640000Y-6985000D01*
X-41910000Y-6985000D02*
X-41910000Y-6350000D01*
X-48260000Y-6985000D02*
X-41910000Y-6985000D01*
X-48260000Y-6350000D02*
X-48260000Y-6985000D01*
X-41910000Y-18415000D02*
X-41910000Y-19050000D01*
X-48260000Y-18415000D02*
X-41910000Y-18415000D01*
X-48260000Y-19050000D02*
X-48260000Y-18415000D01*
X-41910000Y-19050000D02*
X-48260000Y-19050000D01*
X-48260000Y-6350000D02*
X-41910000Y-6350000D01*
X-19050000Y-19050000D02*
X-19050000Y-25400000D01*
X-17780000Y-19050000D02*
X-19050000Y-19050000D01*
X-17780000Y-25400000D02*
X-17780000Y-19050000D01*
X-19050000Y-25400000D02*
X-17780000Y-25400000D01*
X-19050000Y-26670000D02*
X-19050000Y-33020000D01*
X-17780000Y-26670000D02*
X-19050000Y-26670000D01*
X-17780000Y-33020000D02*
X-17780000Y-26670000D01*
X-19050000Y-33020000D02*
X-17780000Y-33020000D01*
X-19050000Y-34290000D02*
X-19050000Y-40640000D01*
X-17780000Y-34290000D02*
X-19050000Y-34290000D01*
X-17780000Y-40640000D02*
X-17780000Y-34290000D01*
X-19050000Y-40640000D02*
X-17780000Y-40640000D01*
X-17780000Y-48260000D02*
X-17780000Y-46990000D01*
X-19050000Y-48260000D02*
X-17780000Y-48260000D01*
X-19050000Y-46990000D02*
X-19050000Y-48260000D01*
X-19050000Y-41910000D02*
X-19050000Y-46990000D01*
X-17780000Y-41910000D02*
X-19050000Y-41910000D01*
X-17780000Y-46990000D02*
X-17780000Y-41910000D01*
X-49530000Y-49530000D02*
X-49530000Y49530000D01*
X49530000Y-49530000D02*
X-49530000Y-49530000D01*
X49530000Y49530000D02*
X49530000Y-49530000D01*
X-49530000Y49530000D02*
X49530000Y49530000D01*
M02*
